G04*
G04 #@! TF.GenerationSoftware,Altium Limited,Altium Designer,19.0.11 (319)*
G04*
G04 Layer_Physical_Order=1*
G04 Layer_Color=255*
%FSLAX25Y25*%
%MOIN*%
G70*
G01*
G75*
%ADD10R,0.02559X0.03543*%
%ADD11R,0.02362X0.03347*%
%ADD12R,0.03347X0.01772*%
%ADD13R,0.06299X0.09843*%
%ADD14C,0.01200*%
%ADD15C,0.01000*%
%ADD16R,0.03150X0.07087*%
%ADD17R,0.01181X0.06299*%
%ADD18C,0.02000*%
%ADD19C,0.00835*%
%ADD20C,0.00700*%
%ADD21C,0.02800*%
%ADD22C,0.05906*%
%ADD23R,0.05906X0.05906*%
%ADD24C,0.05000*%
%ADD25R,0.05906X0.05906*%
%ADD26O,0.07874X0.03937*%
%ADD27R,0.07874X0.03937*%
%ADD28C,0.06000*%
%ADD29C,0.03937*%
%ADD30O,0.03937X0.07874*%
%ADD31R,0.03937X0.07874*%
G36*
X155923Y336529D02*
X116482D01*
Y378971D01*
X155923D01*
Y336529D01*
D02*
G37*
G36*
X99947D02*
X60506D01*
Y378971D01*
X99947D01*
Y336529D01*
D02*
G37*
G36*
X43971D02*
X4529D01*
Y378971D01*
X43971D01*
Y336529D01*
D02*
G37*
G36*
X348471Y336529D02*
X316529D01*
Y378971D01*
X348471D01*
Y336529D01*
D02*
G37*
G36*
X303471D02*
X271529D01*
Y378971D01*
X303471D01*
Y336529D01*
D02*
G37*
G36*
X258471D02*
X226529D01*
Y378971D01*
X258471D01*
Y336529D01*
D02*
G37*
G36*
X213471D02*
X181529D01*
Y378971D01*
X213471D01*
Y336529D01*
D02*
G37*
G36*
X313502Y326444D02*
Y325998D01*
X313531Y325083D01*
X313771Y323267D01*
X314245Y321498D01*
X314945Y319807D01*
X315861Y318220D01*
X316976Y316768D01*
X318271Y315473D01*
X319724Y314358D01*
X321309Y313442D01*
X323001Y312741D01*
X324770Y312267D01*
X326586Y312029D01*
X327502Y311999D01*
X327502Y311999D01*
X327502Y240498D01*
X326553Y240468D01*
X324673Y240220D01*
X322841Y239729D01*
X321088Y239003D01*
X319446Y238055D01*
X317941Y236900D01*
X316600Y235559D01*
X315445Y234054D01*
X314497Y232412D01*
X313771Y230659D01*
X313280Y228827D01*
X313033Y226947D01*
X313001Y225998D01*
X241501D01*
X241470Y226947D01*
X241223Y228827D01*
X240732Y230659D01*
X240006Y232412D01*
X239058Y234054D01*
X237903Y235559D01*
X236562Y236900D01*
X235057Y238055D01*
X233415Y239003D01*
X231662Y239729D01*
X229830Y240220D01*
X227950Y240468D01*
X227002Y240498D01*
X227002Y240498D01*
Y263807D01*
X227481Y264058D01*
X227949Y263883D01*
Y261546D01*
X235854D01*
Y263969D01*
X259068D01*
X260689Y262348D01*
X260592Y262112D01*
X260471Y261198D01*
X260592Y260285D01*
X260944Y259433D01*
X261505Y258702D01*
X262236Y258141D01*
X263088Y257789D01*
X264001Y257668D01*
X264915Y257789D01*
X265767Y258141D01*
X266498Y258702D01*
X267059Y259433D01*
X267411Y260285D01*
X267532Y261198D01*
X267411Y262112D01*
X267059Y262964D01*
X266498Y263695D01*
X265767Y264256D01*
X264915Y264608D01*
X264001Y264729D01*
X263088Y264608D01*
X262852Y264511D01*
X260783Y266580D01*
X260287Y266912D01*
X259701Y267028D01*
X246940D01*
X246771Y267528D01*
X246998Y267702D01*
X247559Y268433D01*
X247911Y269285D01*
X248032Y270198D01*
X247911Y271112D01*
X247814Y271348D01*
X264909Y288443D01*
X265241Y288939D01*
X265357Y289525D01*
Y300576D01*
X267265D01*
Y308875D01*
X266296D01*
Y304725D01*
X265418D01*
Y308875D01*
X262237D01*
Y308209D01*
X261737Y308080D01*
X261191Y308499D01*
X260469Y308799D01*
X259709Y308898D01*
Y312147D01*
X260209Y312354D01*
X260446Y312117D01*
X260942Y311786D01*
X261527Y311669D01*
X264702D01*
X265287Y311786D01*
X265783Y312117D01*
X266847Y313181D01*
X267178Y313677D01*
X267295Y314262D01*
Y314749D01*
X270172D01*
Y313198D01*
X270288Y312613D01*
X270620Y312117D01*
X272520Y310217D01*
X273016Y309886D01*
X273602Y309769D01*
X282902D01*
X283487Y309886D01*
X283983Y310217D01*
X285200Y311434D01*
X285662Y311243D01*
Y308898D01*
X284903Y308799D01*
X284181Y308499D01*
X283635Y308080D01*
X283135Y308209D01*
Y308875D01*
X276016D01*
Y304725D01*
X275138D01*
Y308875D01*
X274170D01*
Y300576D01*
X276078D01*
Y299693D01*
X276194Y299108D01*
X276526Y298611D01*
X276989Y298148D01*
X276892Y297912D01*
X276771Y296999D01*
X276892Y296085D01*
X277244Y295233D01*
X277805Y294502D01*
X278262Y294152D01*
Y277199D01*
X278417Y276418D01*
X278860Y275757D01*
X299046Y255570D01*
X298971Y254998D01*
X299092Y254085D01*
X299444Y253233D01*
X300005Y252502D01*
X300736Y251941D01*
X301588Y251589D01*
X302502Y251468D01*
X303415Y251589D01*
X304267Y251941D01*
X304998Y252502D01*
X305559Y253233D01*
X305911Y254085D01*
X306032Y254998D01*
X305911Y255912D01*
X305559Y256764D01*
X304998Y257495D01*
X304267Y258056D01*
X303415Y258408D01*
X302502Y258529D01*
X301930Y258453D01*
X282341Y278043D01*
Y294152D01*
X282798Y294502D01*
X283359Y295233D01*
X283711Y296085D01*
X283832Y296999D01*
X283711Y297912D01*
X283359Y298764D01*
X283073Y299135D01*
Y300576D01*
X283135D01*
Y303604D01*
X283635Y303732D01*
X284181Y303313D01*
X284903Y303014D01*
X285678Y302912D01*
X286453Y303014D01*
X287175Y303313D01*
X287795Y303789D01*
X288271Y304409D01*
X288570Y305131D01*
X288672Y305906D01*
X288570Y306681D01*
X288499Y306853D01*
X288777Y307269D01*
X290172D01*
Y278499D01*
X290288Y277913D01*
X290620Y277417D01*
X303620Y264417D01*
X304116Y264086D01*
X304701Y263969D01*
X318649D01*
Y261546D01*
X326554D01*
Y269451D01*
X318649D01*
Y267028D01*
X305335D01*
X293231Y279132D01*
Y301453D01*
X293693Y301644D01*
X296172Y299165D01*
Y278398D01*
X296288Y277813D01*
X296620Y277317D01*
X299520Y274417D01*
X300016Y274085D01*
X300602Y273969D01*
X318957D01*
X319149Y273505D01*
X319782Y272679D01*
X320608Y272046D01*
X321570Y271648D01*
X322602Y271512D01*
X323633Y271648D01*
X324595Y272046D01*
X325421Y272679D01*
X326054Y273505D01*
X326452Y274467D01*
X326588Y275499D01*
X326452Y276530D01*
X326054Y277492D01*
X325421Y278318D01*
X324595Y278951D01*
X323633Y279349D01*
X322602Y279485D01*
X321570Y279349D01*
X320608Y278951D01*
X319782Y278318D01*
X319149Y277492D01*
X318957Y277028D01*
X306110D01*
X305940Y277528D01*
X306298Y277802D01*
X306859Y278533D01*
X307211Y279385D01*
X307332Y280298D01*
X307211Y281212D01*
X306859Y282064D01*
X306298Y282795D01*
X305567Y283356D01*
X304931Y283619D01*
Y297753D01*
X305393Y297944D01*
X308620Y294717D01*
X309116Y294386D01*
X309701Y294269D01*
X318832D01*
X319149Y293505D01*
X319782Y292679D01*
X320608Y292046D01*
X321570Y291648D01*
X322602Y291512D01*
X323633Y291648D01*
X324595Y292046D01*
X325421Y292679D01*
X326054Y293505D01*
X326452Y294467D01*
X326588Y295498D01*
X326452Y296530D01*
X326054Y297492D01*
X325421Y298318D01*
X324595Y298951D01*
X323633Y299349D01*
X322602Y299485D01*
X321570Y299349D01*
X320608Y298951D01*
X319782Y298318D01*
X319149Y297492D01*
X319081Y297328D01*
X310335D01*
X304931Y302732D01*
Y306760D01*
X305431Y306929D01*
X305605Y306702D01*
X306336Y306141D01*
X307188Y305789D01*
X308102Y305668D01*
X309015Y305789D01*
X309867Y306141D01*
X310598Y306702D01*
X311159Y307433D01*
X311511Y308285D01*
X311632Y309198D01*
X311511Y310112D01*
X311159Y310964D01*
X310598Y311695D01*
X309867Y312256D01*
X309631Y312353D01*
Y317399D01*
X309514Y317984D01*
X309183Y318480D01*
X301377Y326286D01*
X301567Y326749D01*
X313147Y326797D01*
X313502Y326444D01*
D02*
G37*
G36*
X201002D02*
Y325998D01*
X201031Y325083D01*
X201271Y323267D01*
X201745Y321498D01*
X202445Y319807D01*
X203361Y318220D01*
X204476Y316768D01*
X205771Y315473D01*
X207224Y314358D01*
X208809Y313442D01*
X210501Y312741D01*
X212270Y312267D01*
X214086Y312029D01*
X215002Y311999D01*
X215002Y311999D01*
X215002Y240498D01*
X214053Y240468D01*
X212173Y240220D01*
X210341Y239729D01*
X208588Y239003D01*
X206946Y238055D01*
X205441Y236900D01*
X204100Y235559D01*
X202945Y234054D01*
X201997Y232412D01*
X201271Y230659D01*
X200780Y228827D01*
X200533Y226947D01*
X200501Y225998D01*
X129001D01*
X128971Y226947D01*
X128723Y228827D01*
X128232Y230659D01*
X127506Y232412D01*
X126558Y234054D01*
X125403Y235559D01*
X124062Y236900D01*
X122557Y238055D01*
X120915Y239003D01*
X119162Y239729D01*
X117330Y240220D01*
X115450Y240468D01*
X114502Y240498D01*
X114502Y240498D01*
Y263807D01*
X114981Y264058D01*
X115449Y263883D01*
Y261546D01*
X123354D01*
Y263969D01*
X146568D01*
X148189Y262348D01*
X148092Y262112D01*
X147971Y261198D01*
X148092Y260285D01*
X148444Y259433D01*
X149005Y258702D01*
X149736Y258141D01*
X150588Y257789D01*
X151502Y257668D01*
X152415Y257789D01*
X153267Y258141D01*
X153998Y258702D01*
X154559Y259433D01*
X154911Y260285D01*
X155032Y261198D01*
X154911Y262112D01*
X154559Y262964D01*
X153998Y263695D01*
X153267Y264256D01*
X152415Y264608D01*
X151502Y264729D01*
X150588Y264608D01*
X150352Y264511D01*
X148283Y266580D01*
X147787Y266912D01*
X147202Y267028D01*
X134440D01*
X134271Y267528D01*
X134498Y267702D01*
X135059Y268433D01*
X135411Y269285D01*
X135532Y270198D01*
X135411Y271112D01*
X135314Y271348D01*
X152409Y288443D01*
X152741Y288939D01*
X152857Y289525D01*
Y300576D01*
X154764D01*
Y308875D01*
X153796D01*
Y304725D01*
X152918D01*
Y308875D01*
X149737D01*
Y308209D01*
X149237Y308080D01*
X148691Y308499D01*
X147969Y308799D01*
X147209Y308898D01*
Y312147D01*
X147709Y312354D01*
X147946Y312117D01*
X148442Y311786D01*
X149028Y311669D01*
X152201D01*
X152787Y311786D01*
X153283Y312117D01*
X154347Y313181D01*
X154678Y313677D01*
X154795Y314262D01*
Y314749D01*
X157672D01*
Y313198D01*
X157789Y312613D01*
X158120Y312117D01*
X160020Y310217D01*
X160516Y309886D01*
X161101Y309769D01*
X170402D01*
X170987Y309886D01*
X171483Y310217D01*
X172700Y311434D01*
X173162Y311243D01*
Y308898D01*
X172403Y308799D01*
X171681Y308499D01*
X171135Y308080D01*
X170635Y308209D01*
Y308875D01*
X163516D01*
Y304725D01*
X162638D01*
Y308875D01*
X161670D01*
Y300576D01*
X163578D01*
Y299693D01*
X163694Y299108D01*
X164026Y298611D01*
X164489Y298148D01*
X164392Y297912D01*
X164271Y296999D01*
X164392Y296085D01*
X164744Y295233D01*
X165305Y294502D01*
X165762Y294152D01*
Y277199D01*
X165918Y276418D01*
X166360Y275757D01*
X186547Y255570D01*
X186471Y254998D01*
X186592Y254085D01*
X186944Y253233D01*
X187505Y252502D01*
X188236Y251941D01*
X189088Y251589D01*
X190001Y251468D01*
X190915Y251589D01*
X191767Y251941D01*
X192498Y252502D01*
X193059Y253233D01*
X193411Y254085D01*
X193532Y254998D01*
X193411Y255912D01*
X193059Y256764D01*
X192498Y257495D01*
X191767Y258056D01*
X190915Y258408D01*
X190001Y258529D01*
X189430Y258453D01*
X169841Y278043D01*
Y294152D01*
X170298Y294502D01*
X170859Y295233D01*
X171211Y296085D01*
X171332Y296999D01*
X171211Y297912D01*
X170859Y298764D01*
X170573Y299135D01*
Y300576D01*
X170635D01*
Y303604D01*
X171135Y303732D01*
X171681Y303313D01*
X172403Y303014D01*
X173178Y302912D01*
X173953Y303014D01*
X174675Y303313D01*
X175295Y303789D01*
X175771Y304409D01*
X176070Y305131D01*
X176172Y305906D01*
X176070Y306681D01*
X175999Y306853D01*
X176277Y307269D01*
X177672D01*
Y278499D01*
X177788Y277913D01*
X178120Y277417D01*
X191120Y264417D01*
X191616Y264086D01*
X192201Y263969D01*
X206149D01*
Y261546D01*
X214054D01*
Y269451D01*
X206149D01*
Y267028D01*
X192835D01*
X180731Y279132D01*
Y301453D01*
X181193Y301644D01*
X183672Y299165D01*
Y278398D01*
X183789Y277813D01*
X184120Y277317D01*
X187020Y274417D01*
X187516Y274085D01*
X188101Y273969D01*
X206457D01*
X206649Y273505D01*
X207282Y272679D01*
X208108Y272046D01*
X209070Y271648D01*
X210102Y271512D01*
X211133Y271648D01*
X212095Y272046D01*
X212921Y272679D01*
X213554Y273505D01*
X213952Y274467D01*
X214088Y275499D01*
X213952Y276530D01*
X213554Y277492D01*
X212921Y278318D01*
X212095Y278951D01*
X211133Y279349D01*
X210102Y279485D01*
X209070Y279349D01*
X208108Y278951D01*
X207282Y278318D01*
X206649Y277492D01*
X206457Y277028D01*
X193610D01*
X193440Y277528D01*
X193798Y277802D01*
X194359Y278533D01*
X194711Y279385D01*
X194832Y280298D01*
X194711Y281212D01*
X194359Y282064D01*
X193798Y282795D01*
X193067Y283356D01*
X192431Y283619D01*
Y297753D01*
X192893Y297944D01*
X196120Y294717D01*
X196616Y294386D01*
X197202Y294269D01*
X206332D01*
X206649Y293505D01*
X207282Y292679D01*
X208108Y292046D01*
X209070Y291648D01*
X210102Y291512D01*
X211133Y291648D01*
X212095Y292046D01*
X212921Y292679D01*
X213554Y293505D01*
X213952Y294467D01*
X214088Y295498D01*
X213952Y296530D01*
X213554Y297492D01*
X212921Y298318D01*
X212095Y298951D01*
X211133Y299349D01*
X210102Y299485D01*
X209070Y299349D01*
X208108Y298951D01*
X207282Y298318D01*
X206649Y297492D01*
X206581Y297328D01*
X197835D01*
X192431Y302732D01*
Y306760D01*
X192931Y306929D01*
X193105Y306702D01*
X193836Y306141D01*
X194688Y305789D01*
X195601Y305668D01*
X196515Y305789D01*
X197367Y306141D01*
X198098Y306702D01*
X198659Y307433D01*
X199011Y308285D01*
X199132Y309198D01*
X199011Y310112D01*
X198659Y310964D01*
X198098Y311695D01*
X197367Y312256D01*
X197131Y312353D01*
Y317399D01*
X197014Y317984D01*
X196683Y318480D01*
X188876Y326286D01*
X189067Y326749D01*
X200647Y326797D01*
X201002Y326444D01*
D02*
G37*
G36*
X88502D02*
Y325998D01*
X88532Y325083D01*
X88771Y323267D01*
X89245Y321498D01*
X89945Y319807D01*
X90861Y318220D01*
X91976Y316768D01*
X93271Y315473D01*
X94723Y314358D01*
X96310Y313442D01*
X98001Y312741D01*
X99770Y312267D01*
X101586Y312029D01*
X102501Y311999D01*
X102501Y311999D01*
X102501Y240498D01*
X101553Y240468D01*
X99673Y240220D01*
X97841Y239729D01*
X96088Y239003D01*
X94446Y238055D01*
X92941Y236900D01*
X91600Y235559D01*
X90445Y234054D01*
X89497Y232412D01*
X88771Y230659D01*
X88280Y228827D01*
X88033Y226947D01*
X88002Y225998D01*
X16501D01*
X16470Y226947D01*
X16223Y228827D01*
X15732Y230659D01*
X15006Y232412D01*
X14058Y234054D01*
X12903Y235559D01*
X11562Y236900D01*
X10057Y238055D01*
X8415Y239003D01*
X6662Y239729D01*
X4830Y240220D01*
X2950Y240468D01*
X2001Y240498D01*
X2001Y240498D01*
Y263807D01*
X2481Y264058D01*
X2949Y263883D01*
Y261546D01*
X10854D01*
Y263969D01*
X34068D01*
X35689Y262348D01*
X35592Y262112D01*
X35471Y261198D01*
X35592Y260285D01*
X35944Y259433D01*
X36505Y258702D01*
X37236Y258141D01*
X38088Y257789D01*
X39002Y257668D01*
X39915Y257789D01*
X40767Y258141D01*
X41498Y258702D01*
X42059Y259433D01*
X42411Y260285D01*
X42532Y261198D01*
X42411Y262112D01*
X42059Y262964D01*
X41498Y263695D01*
X40767Y264256D01*
X39915Y264608D01*
X39002Y264729D01*
X38088Y264608D01*
X37852Y264511D01*
X35783Y266580D01*
X35287Y266912D01*
X34701Y267028D01*
X21940D01*
X21770Y267528D01*
X21998Y267702D01*
X22559Y268433D01*
X22911Y269285D01*
X23032Y270198D01*
X22911Y271112D01*
X22814Y271348D01*
X39909Y288443D01*
X40240Y288939D01*
X40357Y289525D01*
Y300576D01*
X42265D01*
Y308875D01*
X41296D01*
Y304725D01*
X40418D01*
Y308875D01*
X37237D01*
Y308209D01*
X36737Y308080D01*
X36191Y308499D01*
X35469Y308799D01*
X34709Y308898D01*
Y312147D01*
X35209Y312354D01*
X35446Y312117D01*
X35942Y311786D01*
X36527Y311669D01*
X39702D01*
X40287Y311786D01*
X40783Y312117D01*
X41847Y313181D01*
X42178Y313677D01*
X42295Y314262D01*
Y314749D01*
X45172D01*
Y313198D01*
X45289Y312613D01*
X45620Y312117D01*
X47520Y310217D01*
X48016Y309886D01*
X48601Y309769D01*
X57902D01*
X58487Y309886D01*
X58983Y310217D01*
X60200Y311434D01*
X60662Y311243D01*
Y308898D01*
X59903Y308799D01*
X59181Y308499D01*
X58635Y308080D01*
X58135Y308209D01*
Y308875D01*
X51016D01*
Y304725D01*
X50138D01*
Y308875D01*
X49170D01*
Y300576D01*
X51078D01*
Y299693D01*
X51194Y299108D01*
X51526Y298611D01*
X51989Y298148D01*
X51892Y297912D01*
X51771Y296999D01*
X51892Y296085D01*
X52244Y295233D01*
X52805Y294502D01*
X53262Y294152D01*
Y277199D01*
X53417Y276418D01*
X53860Y275757D01*
X74046Y255570D01*
X73971Y254998D01*
X74092Y254085D01*
X74444Y253233D01*
X75005Y252502D01*
X75736Y251941D01*
X76588Y251589D01*
X77501Y251468D01*
X78415Y251589D01*
X79267Y251941D01*
X79998Y252502D01*
X80559Y253233D01*
X80911Y254085D01*
X81032Y254998D01*
X80911Y255912D01*
X80559Y256764D01*
X79998Y257495D01*
X79267Y258056D01*
X78415Y258408D01*
X77501Y258529D01*
X76930Y258453D01*
X57341Y278043D01*
Y294152D01*
X57798Y294502D01*
X58359Y295233D01*
X58711Y296085D01*
X58832Y296999D01*
X58711Y297912D01*
X58359Y298764D01*
X58073Y299135D01*
Y300576D01*
X58135D01*
Y303604D01*
X58635Y303732D01*
X59181Y303313D01*
X59903Y303014D01*
X60678Y302912D01*
X61453Y303014D01*
X62175Y303313D01*
X62795Y303789D01*
X63271Y304409D01*
X63570Y305131D01*
X63672Y305906D01*
X63570Y306681D01*
X63499Y306853D01*
X63777Y307269D01*
X65172D01*
Y278499D01*
X65289Y277913D01*
X65620Y277417D01*
X78620Y264417D01*
X79116Y264086D01*
X79702Y263969D01*
X93649D01*
Y261546D01*
X101554D01*
Y269451D01*
X93649D01*
Y267028D01*
X80335D01*
X68231Y279132D01*
Y301453D01*
X68693Y301644D01*
X71172Y299165D01*
Y278398D01*
X71289Y277813D01*
X71620Y277317D01*
X74520Y274417D01*
X75016Y274085D01*
X75602Y273969D01*
X93957D01*
X94149Y273505D01*
X94782Y272679D01*
X95608Y272046D01*
X96570Y271648D01*
X97601Y271512D01*
X98633Y271648D01*
X99595Y272046D01*
X100421Y272679D01*
X101054Y273505D01*
X101453Y274467D01*
X101588Y275499D01*
X101453Y276530D01*
X101054Y277492D01*
X100421Y278318D01*
X99595Y278951D01*
X98633Y279349D01*
X97601Y279485D01*
X96570Y279349D01*
X95608Y278951D01*
X94782Y278318D01*
X94149Y277492D01*
X93957Y277028D01*
X81110D01*
X80940Y277528D01*
X81298Y277802D01*
X81859Y278533D01*
X82211Y279385D01*
X82332Y280298D01*
X82211Y281212D01*
X81859Y282064D01*
X81298Y282795D01*
X80567Y283356D01*
X79931Y283619D01*
Y297753D01*
X80393Y297944D01*
X83620Y294717D01*
X84116Y294386D01*
X84702Y294269D01*
X93832D01*
X94149Y293505D01*
X94782Y292679D01*
X95608Y292046D01*
X96570Y291648D01*
X97601Y291512D01*
X98633Y291648D01*
X99595Y292046D01*
X100421Y292679D01*
X101054Y293505D01*
X101453Y294467D01*
X101588Y295498D01*
X101453Y296530D01*
X101054Y297492D01*
X100421Y298318D01*
X99595Y298951D01*
X98633Y299349D01*
X97601Y299485D01*
X96570Y299349D01*
X95608Y298951D01*
X94782Y298318D01*
X94149Y297492D01*
X94081Y297328D01*
X85335D01*
X79931Y302732D01*
Y306760D01*
X80431Y306929D01*
X80605Y306702D01*
X81336Y306141D01*
X82188Y305789D01*
X83101Y305668D01*
X84015Y305789D01*
X84867Y306141D01*
X85598Y306702D01*
X86159Y307433D01*
X86511Y308285D01*
X86632Y309198D01*
X86511Y310112D01*
X86159Y310964D01*
X85598Y311695D01*
X84867Y312256D01*
X84631Y312353D01*
Y317399D01*
X84514Y317984D01*
X84183Y318480D01*
X76376Y326286D01*
X76567Y326749D01*
X88147Y326797D01*
X88502Y326444D01*
D02*
G37*
G36*
X241367Y315794D02*
X241292Y315612D01*
X241171Y314699D01*
X241292Y313785D01*
X241644Y312933D01*
X242205Y312202D01*
X242936Y311641D01*
X243788Y311289D01*
X244702Y311168D01*
X245615Y311289D01*
X246467Y311641D01*
X247072Y312106D01*
X247572Y311927D01*
Y308029D01*
X247072Y307860D01*
X246721Y308318D01*
X245895Y308951D01*
X244933Y309349D01*
X244402Y309419D01*
Y305499D01*
X243901D01*
Y304998D01*
X239981D01*
X240051Y304467D01*
X240449Y303505D01*
X241082Y302679D01*
X241280Y302528D01*
X241110Y302028D01*
X236901D01*
X236316Y301911D01*
X235820Y301580D01*
X233397Y299157D01*
X232933Y299349D01*
X231902Y299485D01*
X230870Y299349D01*
X229908Y298951D01*
X229231Y298432D01*
X228731Y298633D01*
Y302364D01*
X229231Y302565D01*
X229908Y302046D01*
X230870Y301647D01*
X231401Y301577D01*
Y305499D01*
X231902D01*
Y305998D01*
X235823D01*
X235753Y306530D01*
X235354Y307492D01*
X234721Y308318D01*
X233895Y308951D01*
X232933Y309349D01*
X232785Y309369D01*
X232817Y309869D01*
X234102D01*
X234687Y309985D01*
X235183Y310317D01*
X240943Y316077D01*
X241367Y315794D01*
D02*
G37*
G36*
X128867D02*
X128792Y315612D01*
X128671Y314699D01*
X128792Y313785D01*
X129144Y312933D01*
X129705Y312202D01*
X130436Y311641D01*
X131288Y311289D01*
X132202Y311168D01*
X133115Y311289D01*
X133967Y311641D01*
X134572Y312106D01*
X135072Y311927D01*
Y308029D01*
X134572Y307860D01*
X134221Y308318D01*
X133395Y308951D01*
X132433Y309349D01*
X131902Y309419D01*
Y305499D01*
X131402D01*
Y304998D01*
X127480D01*
X127550Y304467D01*
X127949Y303505D01*
X128582Y302679D01*
X128780Y302528D01*
X128610Y302028D01*
X124401D01*
X123816Y301911D01*
X123320Y301580D01*
X120897Y299157D01*
X120433Y299349D01*
X119402Y299485D01*
X118370Y299349D01*
X117408Y298951D01*
X116731Y298432D01*
X116231Y298633D01*
Y302364D01*
X116731Y302565D01*
X117408Y302046D01*
X118370Y301647D01*
X118902Y301577D01*
Y305499D01*
X119402D01*
Y305998D01*
X123322D01*
X123252Y306530D01*
X122854Y307492D01*
X122221Y308318D01*
X121395Y308951D01*
X120433Y309349D01*
X120284Y309369D01*
X120317Y309869D01*
X121601D01*
X122187Y309985D01*
X122683Y310317D01*
X128443Y316077D01*
X128867Y315794D01*
D02*
G37*
G36*
X16367D02*
X16292Y315612D01*
X16171Y314699D01*
X16292Y313785D01*
X16644Y312933D01*
X17205Y312202D01*
X17936Y311641D01*
X18788Y311289D01*
X19702Y311168D01*
X20615Y311289D01*
X21467Y311641D01*
X22072Y312106D01*
X22572Y311927D01*
Y308029D01*
X22072Y307860D01*
X21721Y308318D01*
X20895Y308951D01*
X19933Y309349D01*
X19401Y309419D01*
Y305499D01*
X18902D01*
Y304998D01*
X14980D01*
X15051Y304467D01*
X15449Y303505D01*
X16082Y302679D01*
X16280Y302528D01*
X16110Y302028D01*
X11902D01*
X11316Y301911D01*
X10820Y301580D01*
X8397Y299157D01*
X7933Y299349D01*
X6901Y299485D01*
X5870Y299349D01*
X4908Y298951D01*
X4231Y298432D01*
X3731Y298633D01*
Y302364D01*
X4231Y302565D01*
X4908Y302046D01*
X5870Y301647D01*
X6402Y301577D01*
Y305499D01*
X6901D01*
Y305998D01*
X10823D01*
X10752Y306530D01*
X10354Y307492D01*
X9721Y308318D01*
X8895Y308951D01*
X7933Y309349D01*
X7784Y309369D01*
X7817Y309869D01*
X9102D01*
X9687Y309985D01*
X10183Y310317D01*
X15943Y316077D01*
X16367Y315794D01*
D02*
G37*
G36*
X301872Y309690D02*
Y283230D01*
X301305Y282795D01*
X300744Y282064D01*
X300392Y281212D01*
X300271Y280298D01*
X300392Y279385D01*
X300744Y278533D01*
X301305Y277802D01*
X301310Y277798D01*
X301188Y277262D01*
X301033Y277229D01*
X299231Y279032D01*
Y299798D01*
X299114Y300384D01*
X298783Y300880D01*
X295131Y304532D01*
Y308027D01*
X295631Y308206D01*
X296236Y307741D01*
X297088Y307389D01*
X298002Y307268D01*
X298915Y307389D01*
X299767Y307741D01*
X300498Y308302D01*
X301059Y309033D01*
X301372Y309790D01*
X301872Y309690D01*
D02*
G37*
G36*
X189372D02*
Y283230D01*
X188805Y282795D01*
X188244Y282064D01*
X187892Y281212D01*
X187771Y280298D01*
X187892Y279385D01*
X188244Y278533D01*
X188805Y277802D01*
X188810Y277798D01*
X188688Y277262D01*
X188533Y277229D01*
X186731Y279032D01*
Y299798D01*
X186615Y300384D01*
X186283Y300880D01*
X182631Y304532D01*
Y308027D01*
X183131Y308206D01*
X183736Y307741D01*
X184588Y307389D01*
X185502Y307268D01*
X186415Y307389D01*
X187267Y307741D01*
X187998Y308302D01*
X188559Y309033D01*
X188872Y309790D01*
X189372Y309690D01*
D02*
G37*
G36*
X76872D02*
Y283230D01*
X76305Y282795D01*
X75744Y282064D01*
X75392Y281212D01*
X75271Y280298D01*
X75392Y279385D01*
X75744Y278533D01*
X76305Y277802D01*
X76310Y277798D01*
X76188Y277262D01*
X76034Y277229D01*
X74231Y279032D01*
Y299798D01*
X74115Y300384D01*
X73783Y300880D01*
X70131Y304532D01*
Y308027D01*
X70631Y308206D01*
X71236Y307741D01*
X72088Y307389D01*
X73001Y307268D01*
X73915Y307389D01*
X74767Y307741D01*
X75498Y308302D01*
X76059Y309033D01*
X76372Y309790D01*
X76872Y309690D01*
D02*
G37*
G36*
X254560Y314741D02*
Y307269D01*
X256595D01*
X256873Y306853D01*
X256802Y306681D01*
X256699Y305906D01*
X256802Y305131D01*
X257101Y304409D01*
X257576Y303789D01*
X258197Y303313D01*
X258919Y303014D01*
X259694Y302912D01*
X260469Y303014D01*
X261191Y303313D01*
X261737Y303732D01*
X262237Y303604D01*
Y300576D01*
X262298D01*
Y298532D01*
X261839Y298072D01*
X261498Y298095D01*
X260767Y298656D01*
X259915Y299008D01*
X259001Y299129D01*
X258088Y299008D01*
X257236Y298656D01*
X256505Y298095D01*
X255944Y297364D01*
X255592Y296512D01*
X255471Y295599D01*
X255592Y294685D01*
X255944Y293833D01*
X256505Y293102D01*
X257236Y292541D01*
X258088Y292189D01*
X259001Y292068D01*
X259915Y292189D01*
X260767Y292541D01*
X261498Y293102D01*
X261798Y293494D01*
X262298Y293324D01*
Y290158D01*
X245651Y273511D01*
X245415Y273608D01*
X244501Y273729D01*
X243588Y273608D01*
X242736Y273256D01*
X242005Y272695D01*
X241444Y271964D01*
X241092Y271112D01*
X240971Y270198D01*
X241092Y269285D01*
X241444Y268433D01*
X242005Y267702D01*
X242232Y267528D01*
X242063Y267028D01*
X235854D01*
Y269451D01*
X228731D01*
Y272364D01*
X229231Y272565D01*
X229908Y272046D01*
X230870Y271648D01*
X231902Y271512D01*
X232933Y271648D01*
X233895Y272046D01*
X234721Y272679D01*
X235354Y273505D01*
X235753Y274467D01*
X235888Y275499D01*
X235753Y276530D01*
X235354Y277492D01*
X234721Y278318D01*
X233895Y278951D01*
X232933Y279349D01*
X231902Y279485D01*
X230870Y279349D01*
X229908Y278951D01*
X229231Y278432D01*
X228731Y278633D01*
Y282364D01*
X229231Y282565D01*
X229908Y282046D01*
X230870Y281647D01*
X231902Y281512D01*
X232933Y281647D01*
X233895Y282046D01*
X234721Y282679D01*
X235114Y283192D01*
X235613Y283224D01*
X239689Y279148D01*
X239592Y278912D01*
X239471Y277998D01*
X239592Y277085D01*
X239944Y276233D01*
X240505Y275502D01*
X241236Y274941D01*
X242088Y274589D01*
X243002Y274468D01*
X243915Y274589D01*
X244767Y274941D01*
X245498Y275502D01*
X246059Y276233D01*
X246411Y277085D01*
X246532Y277998D01*
X246411Y278912D01*
X246314Y279148D01*
X253233Y286067D01*
X253565Y286563D01*
X253681Y287148D01*
Y314515D01*
X254098Y314932D01*
X254560Y314741D01*
D02*
G37*
G36*
X142060D02*
Y307269D01*
X144095D01*
X144373Y306853D01*
X144301Y306681D01*
X144200Y305906D01*
X144301Y305131D01*
X144601Y304409D01*
X145077Y303789D01*
X145697Y303313D01*
X146419Y303014D01*
X147194Y302912D01*
X147969Y303014D01*
X148691Y303313D01*
X149237Y303732D01*
X149737Y303604D01*
Y300576D01*
X149798D01*
Y298532D01*
X149338Y298072D01*
X148998Y298095D01*
X148267Y298656D01*
X147415Y299008D01*
X146502Y299129D01*
X145588Y299008D01*
X144736Y298656D01*
X144005Y298095D01*
X143444Y297364D01*
X143092Y296512D01*
X142971Y295599D01*
X143092Y294685D01*
X143444Y293833D01*
X144005Y293102D01*
X144736Y292541D01*
X145588Y292189D01*
X146502Y292068D01*
X147415Y292189D01*
X148267Y292541D01*
X148998Y293102D01*
X149298Y293494D01*
X149798Y293324D01*
Y290158D01*
X133151Y273511D01*
X132915Y273608D01*
X132001Y273729D01*
X131088Y273608D01*
X130236Y273256D01*
X129505Y272695D01*
X128944Y271964D01*
X128592Y271112D01*
X128471Y270198D01*
X128592Y269285D01*
X128944Y268433D01*
X129505Y267702D01*
X129733Y267528D01*
X129563Y267028D01*
X123354D01*
Y269451D01*
X116231D01*
Y272364D01*
X116731Y272565D01*
X117408Y272046D01*
X118370Y271648D01*
X119402Y271512D01*
X120433Y271648D01*
X121395Y272046D01*
X122221Y272679D01*
X122854Y273505D01*
X123252Y274467D01*
X123388Y275499D01*
X123252Y276530D01*
X122854Y277492D01*
X122221Y278318D01*
X121395Y278951D01*
X120433Y279349D01*
X119402Y279485D01*
X118370Y279349D01*
X117408Y278951D01*
X116731Y278432D01*
X116231Y278633D01*
Y282364D01*
X116731Y282565D01*
X117408Y282046D01*
X118370Y281647D01*
X119402Y281512D01*
X120433Y281647D01*
X121395Y282046D01*
X122221Y282679D01*
X122614Y283192D01*
X123113Y283224D01*
X127189Y279148D01*
X127092Y278912D01*
X126971Y277998D01*
X127092Y277085D01*
X127444Y276233D01*
X128005Y275502D01*
X128736Y274941D01*
X129588Y274589D01*
X130501Y274468D01*
X131415Y274589D01*
X132267Y274941D01*
X132998Y275502D01*
X133559Y276233D01*
X133911Y277085D01*
X134032Y277998D01*
X133911Y278912D01*
X133814Y279148D01*
X140733Y286067D01*
X141065Y286563D01*
X141181Y287148D01*
Y314515D01*
X141598Y314932D01*
X142060Y314741D01*
D02*
G37*
G36*
X29560D02*
Y307269D01*
X31595D01*
X31873Y306853D01*
X31802Y306681D01*
X31699Y305906D01*
X31802Y305131D01*
X32101Y304409D01*
X32577Y303789D01*
X33197Y303313D01*
X33919Y303014D01*
X34694Y302912D01*
X35469Y303014D01*
X36191Y303313D01*
X36737Y303732D01*
X37237Y303604D01*
Y300576D01*
X37298D01*
Y298532D01*
X36838Y298072D01*
X36498Y298095D01*
X35767Y298656D01*
X34915Y299008D01*
X34001Y299129D01*
X33088Y299008D01*
X32236Y298656D01*
X31505Y298095D01*
X30944Y297364D01*
X30592Y296512D01*
X30471Y295599D01*
X30592Y294685D01*
X30944Y293833D01*
X31505Y293102D01*
X32236Y292541D01*
X33088Y292189D01*
X34001Y292068D01*
X34915Y292189D01*
X35767Y292541D01*
X36498Y293102D01*
X36798Y293494D01*
X37298Y293324D01*
Y290158D01*
X20651Y273511D01*
X20415Y273608D01*
X19501Y273729D01*
X18588Y273608D01*
X17736Y273256D01*
X17005Y272695D01*
X16444Y271964D01*
X16092Y271112D01*
X15971Y270198D01*
X16092Y269285D01*
X16444Y268433D01*
X17005Y267702D01*
X17233Y267528D01*
X17063Y267028D01*
X10854D01*
Y269451D01*
X3731D01*
Y272364D01*
X4231Y272565D01*
X4908Y272046D01*
X5870Y271648D01*
X6901Y271512D01*
X7933Y271648D01*
X8895Y272046D01*
X9721Y272679D01*
X10354Y273505D01*
X10752Y274467D01*
X10888Y275499D01*
X10752Y276530D01*
X10354Y277492D01*
X9721Y278318D01*
X8895Y278951D01*
X7933Y279349D01*
X6901Y279485D01*
X5870Y279349D01*
X4908Y278951D01*
X4231Y278432D01*
X3731Y278633D01*
Y282364D01*
X4231Y282565D01*
X4908Y282046D01*
X5870Y281647D01*
X6901Y281512D01*
X7933Y281647D01*
X8895Y282046D01*
X9721Y282679D01*
X10114Y283192D01*
X10613Y283224D01*
X14689Y279148D01*
X14592Y278912D01*
X14471Y277998D01*
X14592Y277085D01*
X14944Y276233D01*
X15505Y275502D01*
X16236Y274941D01*
X17088Y274589D01*
X18001Y274468D01*
X18915Y274589D01*
X19767Y274941D01*
X20498Y275502D01*
X21059Y276233D01*
X21411Y277085D01*
X21532Y277998D01*
X21411Y278912D01*
X21314Y279148D01*
X28233Y286067D01*
X28565Y286563D01*
X28681Y287148D01*
Y314515D01*
X29098Y314932D01*
X29560Y314741D01*
D02*
G37*
G36*
X250370Y301514D02*
X250622Y301374D01*
Y287782D01*
X244151Y281311D01*
X243915Y281408D01*
X243002Y281529D01*
X242088Y281408D01*
X241852Y281311D01*
X236583Y286580D01*
X236087Y286912D01*
X235550Y287018D01*
X235354Y287492D01*
X234721Y288318D01*
X233895Y288951D01*
X232933Y289350D01*
X231902Y289485D01*
X230870Y289350D01*
X229908Y288951D01*
X229231Y288432D01*
X228731Y288633D01*
Y292364D01*
X229231Y292565D01*
X229908Y292046D01*
X230870Y291648D01*
X231902Y291512D01*
X232933Y291648D01*
X233895Y292046D01*
X234721Y292679D01*
X235354Y293505D01*
X235753Y294467D01*
X235888Y295498D01*
X235753Y296530D01*
X235560Y296994D01*
X237535Y298969D01*
X239949D01*
Y291546D01*
X247854D01*
Y299331D01*
X247983Y299417D01*
X250122Y301556D01*
X250370Y301514D01*
D02*
G37*
G36*
X137870D02*
X138122Y301374D01*
Y287782D01*
X131651Y281311D01*
X131415Y281408D01*
X130501Y281529D01*
X129588Y281408D01*
X129352Y281311D01*
X124083Y286580D01*
X123587Y286912D01*
X123050Y287018D01*
X122854Y287492D01*
X122221Y288318D01*
X121395Y288951D01*
X120433Y289350D01*
X119402Y289485D01*
X118370Y289350D01*
X117408Y288951D01*
X116731Y288432D01*
X116231Y288633D01*
Y292364D01*
X116731Y292565D01*
X117408Y292046D01*
X118370Y291648D01*
X119402Y291512D01*
X120433Y291648D01*
X121395Y292046D01*
X122221Y292679D01*
X122854Y293505D01*
X123252Y294467D01*
X123388Y295498D01*
X123252Y296530D01*
X123060Y296994D01*
X125035Y298969D01*
X127449D01*
Y291546D01*
X135354D01*
Y299331D01*
X135483Y299417D01*
X137622Y301556D01*
X137870Y301514D01*
D02*
G37*
G36*
X25370D02*
X25622Y301374D01*
Y287782D01*
X19151Y281311D01*
X18915Y281408D01*
X18001Y281529D01*
X17088Y281408D01*
X16852Y281311D01*
X11583Y286580D01*
X11087Y286912D01*
X10550Y287018D01*
X10354Y287492D01*
X9721Y288318D01*
X8895Y288951D01*
X7933Y289350D01*
X6901Y289485D01*
X5870Y289350D01*
X4908Y288951D01*
X4231Y288432D01*
X3731Y288633D01*
Y292364D01*
X4231Y292565D01*
X4908Y292046D01*
X5870Y291648D01*
X6901Y291512D01*
X7933Y291648D01*
X8895Y292046D01*
X9721Y292679D01*
X10354Y293505D01*
X10752Y294467D01*
X10888Y295498D01*
X10752Y296530D01*
X10560Y296994D01*
X12535Y298969D01*
X14949D01*
Y291546D01*
X22854D01*
Y299331D01*
X22983Y299417D01*
X25122Y301556D01*
X25370Y301514D01*
D02*
G37*
G36*
X378471Y272029D02*
X336029D01*
Y303971D01*
X378471D01*
Y272029D01*
D02*
G37*
G36*
Y227029D02*
X336029D01*
Y258971D01*
X378471D01*
Y227029D01*
D02*
G37*
G36*
X313502Y213944D02*
Y213498D01*
X313531Y212583D01*
X313771Y210767D01*
X314245Y208998D01*
X314945Y207307D01*
X315861Y205720D01*
X316976Y204268D01*
X318271Y202973D01*
X319724Y201858D01*
X321309Y200942D01*
X323001Y200241D01*
X324770Y199767D01*
X326586Y199529D01*
X327502Y199498D01*
X327502Y199498D01*
X327502Y127998D01*
X326553Y127968D01*
X324673Y127720D01*
X322841Y127229D01*
X321088Y126503D01*
X319446Y125555D01*
X317941Y124400D01*
X316600Y123059D01*
X315445Y121554D01*
X314497Y119912D01*
X313771Y118159D01*
X313280Y116327D01*
X313033Y114447D01*
X313001Y113498D01*
X241501D01*
X241470Y114447D01*
X241223Y116327D01*
X240732Y118159D01*
X240006Y119912D01*
X239058Y121554D01*
X237903Y123059D01*
X236562Y124400D01*
X235057Y125555D01*
X233415Y126503D01*
X231662Y127229D01*
X229830Y127720D01*
X227950Y127968D01*
X227002Y127998D01*
X227002Y127998D01*
Y151307D01*
X227481Y151558D01*
X227949Y151383D01*
Y149046D01*
X235854D01*
Y151469D01*
X259068D01*
X260689Y149848D01*
X260592Y149612D01*
X260471Y148698D01*
X260592Y147785D01*
X260944Y146933D01*
X261505Y146202D01*
X262236Y145641D01*
X263088Y145289D01*
X264001Y145168D01*
X264915Y145289D01*
X265767Y145641D01*
X266498Y146202D01*
X267059Y146933D01*
X267411Y147785D01*
X267532Y148698D01*
X267411Y149612D01*
X267059Y150464D01*
X266498Y151195D01*
X265767Y151756D01*
X264915Y152108D01*
X264001Y152229D01*
X263088Y152108D01*
X262852Y152011D01*
X260783Y154080D01*
X260287Y154411D01*
X259701Y154528D01*
X246940D01*
X246771Y155028D01*
X246998Y155202D01*
X247559Y155933D01*
X247911Y156785D01*
X248032Y157699D01*
X247911Y158612D01*
X247814Y158848D01*
X264909Y175943D01*
X265241Y176439D01*
X265357Y177024D01*
Y188076D01*
X267265D01*
Y196375D01*
X266296D01*
Y192225D01*
X265418D01*
Y196375D01*
X262237D01*
Y195709D01*
X261737Y195580D01*
X261191Y195999D01*
X260469Y196299D01*
X259709Y196398D01*
Y199647D01*
X260209Y199854D01*
X260446Y199617D01*
X260942Y199285D01*
X261527Y199169D01*
X264702D01*
X265287Y199285D01*
X265783Y199617D01*
X266847Y200681D01*
X267178Y201177D01*
X267295Y201762D01*
Y202249D01*
X270172D01*
Y200698D01*
X270288Y200113D01*
X270620Y199617D01*
X272520Y197717D01*
X273016Y197386D01*
X273602Y197269D01*
X282902D01*
X283487Y197386D01*
X283983Y197717D01*
X285200Y198934D01*
X285662Y198743D01*
Y196398D01*
X284903Y196299D01*
X284181Y195999D01*
X283635Y195580D01*
X283135Y195709D01*
Y196375D01*
X276016D01*
Y192225D01*
X275138D01*
Y196375D01*
X274170D01*
Y188076D01*
X276078D01*
Y187193D01*
X276194Y186608D01*
X276526Y186112D01*
X276989Y185648D01*
X276892Y185412D01*
X276771Y184499D01*
X276892Y183585D01*
X277244Y182733D01*
X277805Y182002D01*
X278262Y181652D01*
Y164699D01*
X278417Y163918D01*
X278860Y163257D01*
X299046Y143070D01*
X298971Y142499D01*
X299092Y141585D01*
X299444Y140733D01*
X300005Y140002D01*
X300736Y139441D01*
X301588Y139089D01*
X302502Y138968D01*
X303415Y139089D01*
X304267Y139441D01*
X304998Y140002D01*
X305559Y140733D01*
X305911Y141585D01*
X306032Y142499D01*
X305911Y143412D01*
X305559Y144264D01*
X304998Y144995D01*
X304267Y145556D01*
X303415Y145908D01*
X302502Y146029D01*
X301930Y145954D01*
X282341Y165543D01*
Y181652D01*
X282798Y182002D01*
X283359Y182733D01*
X283711Y183585D01*
X283832Y184499D01*
X283711Y185412D01*
X283359Y186264D01*
X283073Y186635D01*
Y188076D01*
X283135D01*
Y191103D01*
X283635Y191233D01*
X284181Y190813D01*
X284903Y190514D01*
X285678Y190412D01*
X286453Y190514D01*
X287175Y190813D01*
X287795Y191289D01*
X288271Y191909D01*
X288570Y192631D01*
X288672Y193406D01*
X288570Y194181D01*
X288499Y194353D01*
X288777Y194769D01*
X290172D01*
Y165998D01*
X290288Y165413D01*
X290620Y164917D01*
X303620Y151917D01*
X304116Y151585D01*
X304701Y151469D01*
X318649D01*
Y149046D01*
X326554D01*
Y156951D01*
X318649D01*
Y154528D01*
X305335D01*
X293231Y166632D01*
Y188953D01*
X293693Y189144D01*
X296172Y186665D01*
Y165899D01*
X296288Y165313D01*
X296620Y164817D01*
X299520Y161917D01*
X300016Y161585D01*
X300602Y161469D01*
X318957D01*
X319149Y161005D01*
X319782Y160179D01*
X320608Y159546D01*
X321570Y159148D01*
X322602Y159012D01*
X323633Y159148D01*
X324595Y159546D01*
X325421Y160179D01*
X326054Y161005D01*
X326452Y161967D01*
X326588Y162998D01*
X326452Y164030D01*
X326054Y164992D01*
X325421Y165818D01*
X324595Y166451D01*
X323633Y166850D01*
X322602Y166985D01*
X321570Y166850D01*
X320608Y166451D01*
X319782Y165818D01*
X319149Y164992D01*
X318957Y164528D01*
X306110D01*
X305940Y165028D01*
X306298Y165302D01*
X306859Y166033D01*
X307211Y166885D01*
X307332Y167798D01*
X307211Y168712D01*
X306859Y169564D01*
X306298Y170295D01*
X305567Y170856D01*
X304931Y171119D01*
Y185253D01*
X305393Y185444D01*
X308620Y182217D01*
X309116Y181886D01*
X309701Y181769D01*
X318832D01*
X319149Y181005D01*
X319782Y180179D01*
X320608Y179546D01*
X321570Y179148D01*
X322602Y179012D01*
X323633Y179148D01*
X324595Y179546D01*
X325421Y180179D01*
X326054Y181005D01*
X326452Y181967D01*
X326588Y182999D01*
X326452Y184030D01*
X326054Y184992D01*
X325421Y185818D01*
X324595Y186451D01*
X323633Y186849D01*
X322602Y186985D01*
X321570Y186849D01*
X320608Y186451D01*
X319782Y185818D01*
X319149Y184992D01*
X319081Y184828D01*
X310335D01*
X304931Y190232D01*
Y194260D01*
X305431Y194430D01*
X305605Y194202D01*
X306336Y193641D01*
X307188Y193289D01*
X308102Y193168D01*
X309015Y193289D01*
X309867Y193641D01*
X310598Y194202D01*
X311159Y194933D01*
X311511Y195785D01*
X311632Y196698D01*
X311511Y197612D01*
X311159Y198464D01*
X310598Y199195D01*
X309867Y199756D01*
X309631Y199853D01*
Y204899D01*
X309514Y205484D01*
X309183Y205980D01*
X301377Y213786D01*
X301567Y214249D01*
X313147Y214297D01*
X313502Y213944D01*
D02*
G37*
G36*
X201002D02*
Y213498D01*
X201031Y212583D01*
X201271Y210767D01*
X201745Y208998D01*
X202445Y207307D01*
X203361Y205720D01*
X204476Y204268D01*
X205771Y202973D01*
X207224Y201858D01*
X208809Y200942D01*
X210501Y200241D01*
X212270Y199767D01*
X214086Y199529D01*
X215002Y199498D01*
X215002Y199498D01*
X215002Y127998D01*
X214053Y127968D01*
X212173Y127720D01*
X210341Y127229D01*
X208588Y126503D01*
X206946Y125555D01*
X205441Y124400D01*
X204100Y123059D01*
X202945Y121554D01*
X201997Y119912D01*
X201271Y118159D01*
X200780Y116327D01*
X200533Y114447D01*
X200501Y113498D01*
X129001D01*
X128971Y114447D01*
X128723Y116327D01*
X128232Y118159D01*
X127506Y119912D01*
X126558Y121554D01*
X125403Y123059D01*
X124062Y124400D01*
X122557Y125555D01*
X120915Y126503D01*
X119162Y127229D01*
X117330Y127720D01*
X115450Y127968D01*
X114502Y127998D01*
X114502Y127998D01*
Y151307D01*
X114981Y151558D01*
X115449Y151383D01*
Y149046D01*
X123354D01*
Y151469D01*
X146568D01*
X148189Y149848D01*
X148092Y149612D01*
X147971Y148698D01*
X148092Y147785D01*
X148444Y146933D01*
X149005Y146202D01*
X149736Y145641D01*
X150588Y145289D01*
X151502Y145168D01*
X152415Y145289D01*
X153267Y145641D01*
X153998Y146202D01*
X154559Y146933D01*
X154911Y147785D01*
X155032Y148698D01*
X154911Y149612D01*
X154559Y150464D01*
X153998Y151195D01*
X153267Y151756D01*
X152415Y152108D01*
X151502Y152229D01*
X150588Y152108D01*
X150352Y152011D01*
X148283Y154080D01*
X147787Y154411D01*
X147202Y154528D01*
X134440D01*
X134271Y155028D01*
X134498Y155202D01*
X135059Y155933D01*
X135411Y156785D01*
X135532Y157699D01*
X135411Y158612D01*
X135314Y158848D01*
X152409Y175943D01*
X152741Y176439D01*
X152857Y177024D01*
Y188076D01*
X154764D01*
Y196375D01*
X153796D01*
Y192225D01*
X152918D01*
Y196375D01*
X149737D01*
Y195709D01*
X149237Y195580D01*
X148691Y195999D01*
X147969Y196299D01*
X147209Y196398D01*
Y199647D01*
X147709Y199854D01*
X147946Y199617D01*
X148442Y199285D01*
X149028Y199169D01*
X152201D01*
X152787Y199285D01*
X153283Y199617D01*
X154347Y200681D01*
X154678Y201177D01*
X154795Y201762D01*
Y202249D01*
X157672D01*
Y200698D01*
X157789Y200113D01*
X158120Y199617D01*
X160020Y197717D01*
X160516Y197386D01*
X161101Y197269D01*
X170402D01*
X170987Y197386D01*
X171483Y197717D01*
X172700Y198934D01*
X173162Y198743D01*
Y196398D01*
X172403Y196299D01*
X171681Y195999D01*
X171135Y195580D01*
X170635Y195709D01*
Y196375D01*
X163516D01*
Y192225D01*
X162638D01*
Y196375D01*
X161670D01*
Y188076D01*
X163578D01*
Y187193D01*
X163694Y186608D01*
X164026Y186112D01*
X164489Y185648D01*
X164392Y185412D01*
X164271Y184499D01*
X164392Y183585D01*
X164744Y182733D01*
X165305Y182002D01*
X165762Y181652D01*
Y164699D01*
X165918Y163918D01*
X166360Y163257D01*
X186547Y143070D01*
X186471Y142499D01*
X186592Y141585D01*
X186944Y140733D01*
X187505Y140002D01*
X188236Y139441D01*
X189088Y139089D01*
X190001Y138968D01*
X190915Y139089D01*
X191767Y139441D01*
X192498Y140002D01*
X193059Y140733D01*
X193411Y141585D01*
X193532Y142499D01*
X193411Y143412D01*
X193059Y144264D01*
X192498Y144995D01*
X191767Y145556D01*
X190915Y145908D01*
X190001Y146029D01*
X189430Y145954D01*
X169841Y165543D01*
Y181652D01*
X170298Y182002D01*
X170859Y182733D01*
X171211Y183585D01*
X171332Y184499D01*
X171211Y185412D01*
X170859Y186264D01*
X170573Y186635D01*
Y188076D01*
X170635D01*
Y191103D01*
X171135Y191233D01*
X171681Y190813D01*
X172403Y190514D01*
X173178Y190412D01*
X173953Y190514D01*
X174675Y190813D01*
X175295Y191289D01*
X175771Y191909D01*
X176070Y192631D01*
X176172Y193406D01*
X176070Y194181D01*
X175999Y194353D01*
X176277Y194769D01*
X177672D01*
Y165998D01*
X177788Y165413D01*
X178120Y164917D01*
X191120Y151917D01*
X191616Y151585D01*
X192201Y151469D01*
X206149D01*
Y149046D01*
X214054D01*
Y156951D01*
X206149D01*
Y154528D01*
X192835D01*
X180731Y166632D01*
Y188953D01*
X181193Y189144D01*
X183672Y186665D01*
Y165899D01*
X183789Y165313D01*
X184120Y164817D01*
X187020Y161917D01*
X187516Y161585D01*
X188101Y161469D01*
X206457D01*
X206649Y161005D01*
X207282Y160179D01*
X208108Y159546D01*
X209070Y159148D01*
X210102Y159012D01*
X211133Y159148D01*
X212095Y159546D01*
X212921Y160179D01*
X213554Y161005D01*
X213952Y161967D01*
X214088Y162998D01*
X213952Y164030D01*
X213554Y164992D01*
X212921Y165818D01*
X212095Y166451D01*
X211133Y166850D01*
X210102Y166985D01*
X209070Y166850D01*
X208108Y166451D01*
X207282Y165818D01*
X206649Y164992D01*
X206457Y164528D01*
X193610D01*
X193440Y165028D01*
X193798Y165302D01*
X194359Y166033D01*
X194711Y166885D01*
X194832Y167798D01*
X194711Y168712D01*
X194359Y169564D01*
X193798Y170295D01*
X193067Y170856D01*
X192431Y171119D01*
Y185253D01*
X192893Y185444D01*
X196120Y182217D01*
X196616Y181886D01*
X197202Y181769D01*
X206332D01*
X206649Y181005D01*
X207282Y180179D01*
X208108Y179546D01*
X209070Y179148D01*
X210102Y179012D01*
X211133Y179148D01*
X212095Y179546D01*
X212921Y180179D01*
X213554Y181005D01*
X213952Y181967D01*
X214088Y182999D01*
X213952Y184030D01*
X213554Y184992D01*
X212921Y185818D01*
X212095Y186451D01*
X211133Y186849D01*
X210102Y186985D01*
X209070Y186849D01*
X208108Y186451D01*
X207282Y185818D01*
X206649Y184992D01*
X206581Y184828D01*
X197835D01*
X192431Y190232D01*
Y194260D01*
X192931Y194430D01*
X193105Y194202D01*
X193836Y193641D01*
X194688Y193289D01*
X195601Y193168D01*
X196515Y193289D01*
X197367Y193641D01*
X198098Y194202D01*
X198659Y194933D01*
X199011Y195785D01*
X199132Y196698D01*
X199011Y197612D01*
X198659Y198464D01*
X198098Y199195D01*
X197367Y199756D01*
X197131Y199853D01*
Y204899D01*
X197014Y205484D01*
X196683Y205980D01*
X188876Y213786D01*
X189067Y214249D01*
X200647Y214297D01*
X201002Y213944D01*
D02*
G37*
G36*
X88502D02*
Y213498D01*
X88532Y212583D01*
X88771Y210767D01*
X89245Y208998D01*
X89945Y207307D01*
X90861Y205720D01*
X91976Y204268D01*
X93271Y202973D01*
X94723Y201858D01*
X96310Y200942D01*
X98001Y200241D01*
X99770Y199767D01*
X101586Y199529D01*
X102501Y199498D01*
X102501Y199498D01*
X102501Y127998D01*
X101553Y127968D01*
X99673Y127720D01*
X97841Y127229D01*
X96088Y126503D01*
X94446Y125555D01*
X92941Y124400D01*
X91600Y123059D01*
X90445Y121554D01*
X89497Y119912D01*
X88771Y118159D01*
X88280Y116327D01*
X88033Y114447D01*
X88002Y113498D01*
X16501D01*
X16470Y114447D01*
X16223Y116327D01*
X15732Y118159D01*
X15006Y119912D01*
X14058Y121554D01*
X12903Y123059D01*
X11562Y124400D01*
X10057Y125555D01*
X8415Y126503D01*
X6662Y127229D01*
X4830Y127720D01*
X2950Y127968D01*
X2001Y127998D01*
X2001Y127998D01*
Y151307D01*
X2481Y151558D01*
X2949Y151383D01*
Y149046D01*
X10854D01*
Y151469D01*
X34068D01*
X35689Y149848D01*
X35592Y149612D01*
X35471Y148698D01*
X35592Y147785D01*
X35944Y146933D01*
X36505Y146202D01*
X37236Y145641D01*
X38088Y145289D01*
X39002Y145168D01*
X39915Y145289D01*
X40767Y145641D01*
X41498Y146202D01*
X42059Y146933D01*
X42411Y147785D01*
X42532Y148698D01*
X42411Y149612D01*
X42059Y150464D01*
X41498Y151195D01*
X40767Y151756D01*
X39915Y152108D01*
X39002Y152229D01*
X38088Y152108D01*
X37852Y152011D01*
X35783Y154080D01*
X35287Y154411D01*
X34701Y154528D01*
X21940D01*
X21770Y155028D01*
X21998Y155202D01*
X22559Y155933D01*
X22911Y156785D01*
X23032Y157699D01*
X22911Y158612D01*
X22814Y158848D01*
X39909Y175943D01*
X40240Y176439D01*
X40357Y177024D01*
Y188076D01*
X42265D01*
Y196375D01*
X41296D01*
Y192225D01*
X40418D01*
Y196375D01*
X37237D01*
Y195709D01*
X36737Y195580D01*
X36191Y195999D01*
X35469Y196299D01*
X34709Y196398D01*
Y199647D01*
X35209Y199854D01*
X35446Y199617D01*
X35942Y199285D01*
X36527Y199169D01*
X39702D01*
X40287Y199285D01*
X40783Y199617D01*
X41847Y200681D01*
X42178Y201177D01*
X42295Y201762D01*
Y202249D01*
X45172D01*
Y200698D01*
X45289Y200113D01*
X45620Y199617D01*
X47520Y197717D01*
X48016Y197386D01*
X48601Y197269D01*
X57902D01*
X58487Y197386D01*
X58983Y197717D01*
X60200Y198934D01*
X60662Y198743D01*
Y196398D01*
X59903Y196299D01*
X59181Y195999D01*
X58635Y195580D01*
X58135Y195709D01*
Y196375D01*
X51016D01*
Y192225D01*
X50138D01*
Y196375D01*
X49170D01*
Y188076D01*
X51078D01*
Y187193D01*
X51194Y186608D01*
X51526Y186112D01*
X51989Y185648D01*
X51892Y185412D01*
X51771Y184499D01*
X51892Y183585D01*
X52244Y182733D01*
X52805Y182002D01*
X53262Y181652D01*
Y164699D01*
X53417Y163918D01*
X53860Y163257D01*
X74046Y143070D01*
X73971Y142499D01*
X74092Y141585D01*
X74444Y140733D01*
X75005Y140002D01*
X75736Y139441D01*
X76588Y139089D01*
X77501Y138968D01*
X78415Y139089D01*
X79267Y139441D01*
X79998Y140002D01*
X80559Y140733D01*
X80911Y141585D01*
X81032Y142499D01*
X80911Y143412D01*
X80559Y144264D01*
X79998Y144995D01*
X79267Y145556D01*
X78415Y145908D01*
X77501Y146029D01*
X76930Y145954D01*
X57341Y165543D01*
Y181652D01*
X57798Y182002D01*
X58359Y182733D01*
X58711Y183585D01*
X58832Y184499D01*
X58711Y185412D01*
X58359Y186264D01*
X58073Y186635D01*
Y188076D01*
X58135D01*
Y191103D01*
X58635Y191233D01*
X59181Y190813D01*
X59903Y190514D01*
X60678Y190412D01*
X61453Y190514D01*
X62175Y190813D01*
X62795Y191289D01*
X63271Y191909D01*
X63570Y192631D01*
X63672Y193406D01*
X63570Y194181D01*
X63499Y194353D01*
X63777Y194769D01*
X65172D01*
Y165998D01*
X65289Y165413D01*
X65620Y164917D01*
X78620Y151917D01*
X79116Y151585D01*
X79702Y151469D01*
X93649D01*
Y149046D01*
X101554D01*
Y156951D01*
X93649D01*
Y154528D01*
X80335D01*
X68231Y166632D01*
Y188953D01*
X68693Y189144D01*
X71172Y186665D01*
Y165899D01*
X71289Y165313D01*
X71620Y164817D01*
X74520Y161917D01*
X75016Y161585D01*
X75602Y161469D01*
X93957D01*
X94149Y161005D01*
X94782Y160179D01*
X95608Y159546D01*
X96570Y159148D01*
X97601Y159012D01*
X98633Y159148D01*
X99595Y159546D01*
X100421Y160179D01*
X101054Y161005D01*
X101453Y161967D01*
X101588Y162998D01*
X101453Y164030D01*
X101054Y164992D01*
X100421Y165818D01*
X99595Y166451D01*
X98633Y166850D01*
X97601Y166985D01*
X96570Y166850D01*
X95608Y166451D01*
X94782Y165818D01*
X94149Y164992D01*
X93957Y164528D01*
X81110D01*
X80940Y165028D01*
X81298Y165302D01*
X81859Y166033D01*
X82211Y166885D01*
X82332Y167798D01*
X82211Y168712D01*
X81859Y169564D01*
X81298Y170295D01*
X80567Y170856D01*
X79931Y171119D01*
Y185253D01*
X80393Y185444D01*
X83620Y182217D01*
X84116Y181886D01*
X84702Y181769D01*
X93832D01*
X94149Y181005D01*
X94782Y180179D01*
X95608Y179546D01*
X96570Y179148D01*
X97601Y179012D01*
X98633Y179148D01*
X99595Y179546D01*
X100421Y180179D01*
X101054Y181005D01*
X101453Y181967D01*
X101588Y182999D01*
X101453Y184030D01*
X101054Y184992D01*
X100421Y185818D01*
X99595Y186451D01*
X98633Y186849D01*
X97601Y186985D01*
X96570Y186849D01*
X95608Y186451D01*
X94782Y185818D01*
X94149Y184992D01*
X94081Y184828D01*
X85335D01*
X79931Y190232D01*
Y194260D01*
X80431Y194430D01*
X80605Y194202D01*
X81336Y193641D01*
X82188Y193289D01*
X83101Y193168D01*
X84015Y193289D01*
X84867Y193641D01*
X85598Y194202D01*
X86159Y194933D01*
X86511Y195785D01*
X86632Y196698D01*
X86511Y197612D01*
X86159Y198464D01*
X85598Y199195D01*
X84867Y199756D01*
X84631Y199853D01*
Y204899D01*
X84514Y205484D01*
X84183Y205980D01*
X76376Y213786D01*
X76567Y214249D01*
X88147Y214297D01*
X88502Y213944D01*
D02*
G37*
G36*
X241367Y203294D02*
X241292Y203112D01*
X241171Y202199D01*
X241292Y201285D01*
X241644Y200433D01*
X242205Y199702D01*
X242936Y199141D01*
X243788Y198789D01*
X244702Y198668D01*
X245615Y198789D01*
X246467Y199141D01*
X247072Y199606D01*
X247572Y199427D01*
Y195529D01*
X247072Y195360D01*
X246721Y195818D01*
X245895Y196451D01*
X244933Y196850D01*
X244402Y196920D01*
Y192999D01*
X243901D01*
Y192499D01*
X239981D01*
X240051Y191967D01*
X240449Y191005D01*
X241082Y190179D01*
X241280Y190028D01*
X241110Y189528D01*
X236901D01*
X236316Y189411D01*
X235820Y189080D01*
X233397Y186657D01*
X232933Y186849D01*
X231902Y186985D01*
X230870Y186849D01*
X229908Y186451D01*
X229231Y185932D01*
X228731Y186133D01*
Y189864D01*
X229231Y190065D01*
X229908Y189546D01*
X230870Y189147D01*
X231401Y189077D01*
Y192999D01*
X231902D01*
Y193499D01*
X235823D01*
X235753Y194030D01*
X235354Y194992D01*
X234721Y195818D01*
X233895Y196451D01*
X232933Y196850D01*
X232785Y196869D01*
X232817Y197369D01*
X234102D01*
X234687Y197485D01*
X235183Y197817D01*
X240943Y203577D01*
X241367Y203294D01*
D02*
G37*
G36*
X128867D02*
X128792Y203112D01*
X128671Y202199D01*
X128792Y201285D01*
X129144Y200433D01*
X129705Y199702D01*
X130436Y199141D01*
X131288Y198789D01*
X132202Y198668D01*
X133115Y198789D01*
X133967Y199141D01*
X134572Y199606D01*
X135072Y199427D01*
Y195529D01*
X134572Y195360D01*
X134221Y195818D01*
X133395Y196451D01*
X132433Y196850D01*
X131902Y196920D01*
Y192999D01*
X131402D01*
Y192499D01*
X127480D01*
X127550Y191967D01*
X127949Y191005D01*
X128582Y190179D01*
X128780Y190028D01*
X128610Y189528D01*
X124401D01*
X123816Y189411D01*
X123320Y189080D01*
X120897Y186657D01*
X120433Y186849D01*
X119402Y186985D01*
X118370Y186849D01*
X117408Y186451D01*
X116731Y185932D01*
X116231Y186133D01*
Y189864D01*
X116731Y190065D01*
X117408Y189546D01*
X118370Y189147D01*
X118902Y189077D01*
Y192999D01*
X119402D01*
Y193499D01*
X123322D01*
X123252Y194030D01*
X122854Y194992D01*
X122221Y195818D01*
X121395Y196451D01*
X120433Y196850D01*
X120284Y196869D01*
X120317Y197369D01*
X121601D01*
X122187Y197485D01*
X122683Y197817D01*
X128443Y203577D01*
X128867Y203294D01*
D02*
G37*
G36*
X16367D02*
X16292Y203112D01*
X16171Y202199D01*
X16292Y201285D01*
X16644Y200433D01*
X17205Y199702D01*
X17936Y199141D01*
X18788Y198789D01*
X19702Y198668D01*
X20615Y198789D01*
X21467Y199141D01*
X22072Y199606D01*
X22572Y199427D01*
Y195529D01*
X22072Y195360D01*
X21721Y195818D01*
X20895Y196451D01*
X19933Y196850D01*
X19401Y196920D01*
Y192999D01*
X18902D01*
Y192499D01*
X14980D01*
X15051Y191967D01*
X15449Y191005D01*
X16082Y190179D01*
X16280Y190028D01*
X16110Y189528D01*
X11902D01*
X11316Y189411D01*
X10820Y189080D01*
X8397Y186657D01*
X7933Y186849D01*
X6901Y186985D01*
X5870Y186849D01*
X4908Y186451D01*
X4231Y185932D01*
X3731Y186133D01*
Y189864D01*
X4231Y190065D01*
X4908Y189546D01*
X5870Y189147D01*
X6402Y189077D01*
Y192999D01*
X6901D01*
Y193499D01*
X10823D01*
X10752Y194030D01*
X10354Y194992D01*
X9721Y195818D01*
X8895Y196451D01*
X7933Y196850D01*
X7784Y196869D01*
X7817Y197369D01*
X9102D01*
X9687Y197485D01*
X10183Y197817D01*
X15943Y203577D01*
X16367Y203294D01*
D02*
G37*
G36*
X301872Y197190D02*
Y170730D01*
X301305Y170295D01*
X300744Y169564D01*
X300392Y168712D01*
X300271Y167798D01*
X300392Y166885D01*
X300744Y166033D01*
X301305Y165302D01*
X301310Y165298D01*
X301188Y164762D01*
X301033Y164729D01*
X299231Y166532D01*
Y187299D01*
X299114Y187884D01*
X298783Y188380D01*
X295131Y192032D01*
Y195527D01*
X295631Y195706D01*
X296236Y195241D01*
X297088Y194889D01*
X298002Y194768D01*
X298915Y194889D01*
X299767Y195241D01*
X300498Y195802D01*
X301059Y196533D01*
X301372Y197290D01*
X301872Y197190D01*
D02*
G37*
G36*
X189372D02*
Y170730D01*
X188805Y170295D01*
X188244Y169564D01*
X187892Y168712D01*
X187771Y167798D01*
X187892Y166885D01*
X188244Y166033D01*
X188805Y165302D01*
X188810Y165298D01*
X188688Y164762D01*
X188533Y164729D01*
X186731Y166532D01*
Y187299D01*
X186615Y187884D01*
X186283Y188380D01*
X182631Y192032D01*
Y195527D01*
X183131Y195706D01*
X183736Y195241D01*
X184588Y194889D01*
X185502Y194768D01*
X186415Y194889D01*
X187267Y195241D01*
X187998Y195802D01*
X188559Y196533D01*
X188872Y197290D01*
X189372Y197190D01*
D02*
G37*
G36*
X76872D02*
Y170730D01*
X76305Y170295D01*
X75744Y169564D01*
X75392Y168712D01*
X75271Y167798D01*
X75392Y166885D01*
X75744Y166033D01*
X76305Y165302D01*
X76310Y165298D01*
X76188Y164762D01*
X76034Y164729D01*
X74231Y166532D01*
Y187299D01*
X74115Y187884D01*
X73783Y188380D01*
X70131Y192032D01*
Y195527D01*
X70631Y195706D01*
X71236Y195241D01*
X72088Y194889D01*
X73001Y194768D01*
X73915Y194889D01*
X74767Y195241D01*
X75498Y195802D01*
X76059Y196533D01*
X76372Y197290D01*
X76872Y197190D01*
D02*
G37*
G36*
X254560Y202241D02*
Y194769D01*
X256595D01*
X256873Y194353D01*
X256802Y194181D01*
X256699Y193406D01*
X256802Y192631D01*
X257101Y191909D01*
X257576Y191289D01*
X258197Y190813D01*
X258919Y190514D01*
X259694Y190412D01*
X260469Y190514D01*
X261191Y190813D01*
X261737Y191233D01*
X262237Y191103D01*
Y188076D01*
X262298D01*
Y186032D01*
X261839Y185572D01*
X261498Y185595D01*
X260767Y186156D01*
X259915Y186508D01*
X259001Y186629D01*
X258088Y186508D01*
X257236Y186156D01*
X256505Y185595D01*
X255944Y184864D01*
X255592Y184012D01*
X255471Y183098D01*
X255592Y182185D01*
X255944Y181333D01*
X256505Y180602D01*
X257236Y180041D01*
X258088Y179689D01*
X259001Y179568D01*
X259915Y179689D01*
X260767Y180041D01*
X261498Y180602D01*
X261798Y180994D01*
X262298Y180824D01*
Y177658D01*
X245651Y161011D01*
X245415Y161108D01*
X244501Y161229D01*
X243588Y161108D01*
X242736Y160756D01*
X242005Y160195D01*
X241444Y159464D01*
X241092Y158612D01*
X240971Y157699D01*
X241092Y156785D01*
X241444Y155933D01*
X242005Y155202D01*
X242232Y155028D01*
X242063Y154528D01*
X235854D01*
Y156951D01*
X228731D01*
Y159864D01*
X229231Y160065D01*
X229908Y159546D01*
X230870Y159148D01*
X231902Y159012D01*
X232933Y159148D01*
X233895Y159546D01*
X234721Y160179D01*
X235354Y161005D01*
X235753Y161967D01*
X235888Y162998D01*
X235753Y164030D01*
X235354Y164992D01*
X234721Y165818D01*
X233895Y166451D01*
X232933Y166850D01*
X231902Y166985D01*
X230870Y166850D01*
X229908Y166451D01*
X229231Y165932D01*
X228731Y166133D01*
Y169864D01*
X229231Y170065D01*
X229908Y169546D01*
X230870Y169148D01*
X231902Y169012D01*
X232933Y169148D01*
X233895Y169546D01*
X234721Y170179D01*
X235114Y170692D01*
X235613Y170724D01*
X239689Y166648D01*
X239592Y166412D01*
X239471Y165498D01*
X239592Y164585D01*
X239944Y163733D01*
X240505Y163002D01*
X241236Y162441D01*
X242088Y162089D01*
X243002Y161968D01*
X243915Y162089D01*
X244767Y162441D01*
X245498Y163002D01*
X246059Y163733D01*
X246411Y164585D01*
X246532Y165498D01*
X246411Y166412D01*
X246314Y166648D01*
X253233Y173567D01*
X253565Y174063D01*
X253681Y174648D01*
Y202015D01*
X254098Y202432D01*
X254560Y202241D01*
D02*
G37*
G36*
X142060D02*
Y194769D01*
X144095D01*
X144373Y194353D01*
X144301Y194181D01*
X144200Y193406D01*
X144301Y192631D01*
X144601Y191909D01*
X145077Y191289D01*
X145697Y190813D01*
X146419Y190514D01*
X147194Y190412D01*
X147969Y190514D01*
X148691Y190813D01*
X149237Y191233D01*
X149737Y191103D01*
Y188076D01*
X149798D01*
Y186032D01*
X149338Y185572D01*
X148998Y185595D01*
X148267Y186156D01*
X147415Y186508D01*
X146502Y186629D01*
X145588Y186508D01*
X144736Y186156D01*
X144005Y185595D01*
X143444Y184864D01*
X143092Y184012D01*
X142971Y183098D01*
X143092Y182185D01*
X143444Y181333D01*
X144005Y180602D01*
X144736Y180041D01*
X145588Y179689D01*
X146502Y179568D01*
X147415Y179689D01*
X148267Y180041D01*
X148998Y180602D01*
X149298Y180994D01*
X149798Y180824D01*
Y177658D01*
X133151Y161011D01*
X132915Y161108D01*
X132001Y161229D01*
X131088Y161108D01*
X130236Y160756D01*
X129505Y160195D01*
X128944Y159464D01*
X128592Y158612D01*
X128471Y157699D01*
X128592Y156785D01*
X128944Y155933D01*
X129505Y155202D01*
X129733Y155028D01*
X129563Y154528D01*
X123354D01*
Y156951D01*
X116231D01*
Y159864D01*
X116731Y160065D01*
X117408Y159546D01*
X118370Y159148D01*
X119402Y159012D01*
X120433Y159148D01*
X121395Y159546D01*
X122221Y160179D01*
X122854Y161005D01*
X123252Y161967D01*
X123388Y162998D01*
X123252Y164030D01*
X122854Y164992D01*
X122221Y165818D01*
X121395Y166451D01*
X120433Y166850D01*
X119402Y166985D01*
X118370Y166850D01*
X117408Y166451D01*
X116731Y165932D01*
X116231Y166133D01*
Y169864D01*
X116731Y170065D01*
X117408Y169546D01*
X118370Y169148D01*
X119402Y169012D01*
X120433Y169148D01*
X121395Y169546D01*
X122221Y170179D01*
X122614Y170692D01*
X123113Y170724D01*
X127189Y166648D01*
X127092Y166412D01*
X126971Y165498D01*
X127092Y164585D01*
X127444Y163733D01*
X128005Y163002D01*
X128736Y162441D01*
X129588Y162089D01*
X130501Y161968D01*
X131415Y162089D01*
X132267Y162441D01*
X132998Y163002D01*
X133559Y163733D01*
X133911Y164585D01*
X134032Y165498D01*
X133911Y166412D01*
X133814Y166648D01*
X140733Y173567D01*
X141065Y174063D01*
X141181Y174648D01*
Y202015D01*
X141598Y202432D01*
X142060Y202241D01*
D02*
G37*
G36*
X29560D02*
Y194769D01*
X31595D01*
X31873Y194353D01*
X31802Y194181D01*
X31699Y193406D01*
X31802Y192631D01*
X32101Y191909D01*
X32577Y191289D01*
X33197Y190813D01*
X33919Y190514D01*
X34694Y190412D01*
X35469Y190514D01*
X36191Y190813D01*
X36737Y191233D01*
X37237Y191103D01*
Y188076D01*
X37298D01*
Y186032D01*
X36838Y185572D01*
X36498Y185595D01*
X35767Y186156D01*
X34915Y186508D01*
X34001Y186629D01*
X33088Y186508D01*
X32236Y186156D01*
X31505Y185595D01*
X30944Y184864D01*
X30592Y184012D01*
X30471Y183098D01*
X30592Y182185D01*
X30944Y181333D01*
X31505Y180602D01*
X32236Y180041D01*
X33088Y179689D01*
X34001Y179568D01*
X34915Y179689D01*
X35767Y180041D01*
X36498Y180602D01*
X36798Y180994D01*
X37298Y180824D01*
Y177658D01*
X20651Y161011D01*
X20415Y161108D01*
X19501Y161229D01*
X18588Y161108D01*
X17736Y160756D01*
X17005Y160195D01*
X16444Y159464D01*
X16092Y158612D01*
X15971Y157699D01*
X16092Y156785D01*
X16444Y155933D01*
X17005Y155202D01*
X17233Y155028D01*
X17063Y154528D01*
X10854D01*
Y156951D01*
X3731D01*
Y159864D01*
X4231Y160065D01*
X4908Y159546D01*
X5870Y159148D01*
X6901Y159012D01*
X7933Y159148D01*
X8895Y159546D01*
X9721Y160179D01*
X10354Y161005D01*
X10752Y161967D01*
X10888Y162998D01*
X10752Y164030D01*
X10354Y164992D01*
X9721Y165818D01*
X8895Y166451D01*
X7933Y166850D01*
X6901Y166985D01*
X5870Y166850D01*
X4908Y166451D01*
X4231Y165932D01*
X3731Y166133D01*
Y169864D01*
X4231Y170065D01*
X4908Y169546D01*
X5870Y169148D01*
X6901Y169012D01*
X7933Y169148D01*
X8895Y169546D01*
X9721Y170179D01*
X10114Y170692D01*
X10613Y170724D01*
X14689Y166648D01*
X14592Y166412D01*
X14471Y165498D01*
X14592Y164585D01*
X14944Y163733D01*
X15505Y163002D01*
X16236Y162441D01*
X17088Y162089D01*
X18001Y161968D01*
X18915Y162089D01*
X19767Y162441D01*
X20498Y163002D01*
X21059Y163733D01*
X21411Y164585D01*
X21532Y165498D01*
X21411Y166412D01*
X21314Y166648D01*
X28233Y173567D01*
X28565Y174063D01*
X28681Y174648D01*
Y202015D01*
X29098Y202432D01*
X29560Y202241D01*
D02*
G37*
G36*
X378471Y182029D02*
X336029D01*
Y213971D01*
X378471D01*
Y182029D01*
D02*
G37*
G36*
X250370Y189014D02*
X250622Y188874D01*
Y175282D01*
X244151Y168811D01*
X243915Y168908D01*
X243002Y169029D01*
X242088Y168908D01*
X241852Y168811D01*
X236583Y174080D01*
X236087Y174411D01*
X235550Y174518D01*
X235354Y174992D01*
X234721Y175818D01*
X233895Y176451D01*
X232933Y176849D01*
X231902Y176985D01*
X230870Y176849D01*
X229908Y176451D01*
X229231Y175932D01*
X228731Y176133D01*
Y179864D01*
X229231Y180065D01*
X229908Y179546D01*
X230870Y179148D01*
X231902Y179012D01*
X232933Y179148D01*
X233895Y179546D01*
X234721Y180179D01*
X235354Y181005D01*
X235753Y181967D01*
X235888Y182999D01*
X235753Y184030D01*
X235560Y184494D01*
X237535Y186469D01*
X239949D01*
Y179046D01*
X247854D01*
Y186831D01*
X247983Y186917D01*
X250122Y189056D01*
X250370Y189014D01*
D02*
G37*
G36*
X137870D02*
X138122Y188874D01*
Y175282D01*
X131651Y168811D01*
X131415Y168908D01*
X130501Y169029D01*
X129588Y168908D01*
X129352Y168811D01*
X124083Y174080D01*
X123587Y174411D01*
X123050Y174518D01*
X122854Y174992D01*
X122221Y175818D01*
X121395Y176451D01*
X120433Y176849D01*
X119402Y176985D01*
X118370Y176849D01*
X117408Y176451D01*
X116731Y175932D01*
X116231Y176133D01*
Y179864D01*
X116731Y180065D01*
X117408Y179546D01*
X118370Y179148D01*
X119402Y179012D01*
X120433Y179148D01*
X121395Y179546D01*
X122221Y180179D01*
X122854Y181005D01*
X123252Y181967D01*
X123388Y182999D01*
X123252Y184030D01*
X123060Y184494D01*
X125035Y186469D01*
X127449D01*
Y179046D01*
X135354D01*
Y186831D01*
X135483Y186917D01*
X137622Y189056D01*
X137870Y189014D01*
D02*
G37*
G36*
X25370D02*
X25622Y188874D01*
Y175282D01*
X19151Y168811D01*
X18915Y168908D01*
X18001Y169029D01*
X17088Y168908D01*
X16852Y168811D01*
X11583Y174080D01*
X11087Y174411D01*
X10550Y174518D01*
X10354Y174992D01*
X9721Y175818D01*
X8895Y176451D01*
X7933Y176849D01*
X6901Y176985D01*
X5870Y176849D01*
X4908Y176451D01*
X4231Y175932D01*
X3731Y176133D01*
Y179864D01*
X4231Y180065D01*
X4908Y179546D01*
X5870Y179148D01*
X6901Y179012D01*
X7933Y179148D01*
X8895Y179546D01*
X9721Y180179D01*
X10354Y181005D01*
X10752Y181967D01*
X10888Y182999D01*
X10752Y184030D01*
X10560Y184494D01*
X12535Y186469D01*
X14949D01*
Y179046D01*
X22854D01*
Y186831D01*
X22983Y186917D01*
X25122Y189056D01*
X25370Y189014D01*
D02*
G37*
G36*
X313502Y101444D02*
Y100998D01*
X313531Y100083D01*
X313771Y98267D01*
X314245Y96498D01*
X314945Y94806D01*
X315861Y93221D01*
X316976Y91768D01*
X318271Y90473D01*
X319724Y89358D01*
X321309Y88442D01*
X323001Y87742D01*
X324770Y87268D01*
X326586Y87028D01*
X327502Y86998D01*
X327502Y86998D01*
X327502Y15498D01*
X326553Y15468D01*
X324673Y15220D01*
X322841Y14729D01*
X321088Y14003D01*
X319446Y13055D01*
X317941Y11900D01*
X316600Y10559D01*
X315445Y9054D01*
X314497Y7412D01*
X313771Y5659D01*
X313280Y3827D01*
X313033Y1947D01*
X313001Y998D01*
X241501D01*
X241470Y1947D01*
X241223Y3827D01*
X240732Y5659D01*
X240006Y7412D01*
X239058Y9054D01*
X237903Y10559D01*
X236562Y11900D01*
X235057Y13055D01*
X233415Y14003D01*
X231662Y14729D01*
X229830Y15220D01*
X227950Y15468D01*
X227002Y15498D01*
X227002Y15498D01*
Y38807D01*
X227481Y39058D01*
X227949Y38883D01*
Y36546D01*
X235854D01*
Y38969D01*
X259068D01*
X260689Y37348D01*
X260592Y37112D01*
X260471Y36198D01*
X260592Y35285D01*
X260944Y34433D01*
X261505Y33702D01*
X262236Y33141D01*
X263088Y32789D01*
X264001Y32668D01*
X264915Y32789D01*
X265767Y33141D01*
X266498Y33702D01*
X267059Y34433D01*
X267411Y35285D01*
X267532Y36198D01*
X267411Y37112D01*
X267059Y37964D01*
X266498Y38695D01*
X265767Y39256D01*
X264915Y39608D01*
X264001Y39729D01*
X263088Y39608D01*
X262852Y39511D01*
X260783Y41580D01*
X260287Y41912D01*
X259701Y42028D01*
X246940D01*
X246771Y42528D01*
X246998Y42702D01*
X247559Y43433D01*
X247911Y44285D01*
X248032Y45199D01*
X247911Y46112D01*
X247814Y46348D01*
X264909Y63443D01*
X265241Y63939D01*
X265357Y64525D01*
Y75576D01*
X267265D01*
Y83875D01*
X266296D01*
Y79725D01*
X265418D01*
Y83875D01*
X262237D01*
Y83209D01*
X261737Y83080D01*
X261191Y83499D01*
X260469Y83798D01*
X259709Y83898D01*
Y87147D01*
X260209Y87354D01*
X260446Y87117D01*
X260942Y86786D01*
X261527Y86669D01*
X264702D01*
X265287Y86786D01*
X265783Y87117D01*
X266847Y88181D01*
X267178Y88677D01*
X267295Y89262D01*
Y89749D01*
X270172D01*
Y88199D01*
X270288Y87613D01*
X270620Y87117D01*
X272520Y85217D01*
X273016Y84886D01*
X273602Y84769D01*
X282902D01*
X283487Y84886D01*
X283983Y85217D01*
X285200Y86434D01*
X285662Y86243D01*
Y83898D01*
X284903Y83798D01*
X284181Y83499D01*
X283635Y83080D01*
X283135Y83209D01*
Y83875D01*
X276016D01*
Y79725D01*
X275138D01*
Y83875D01*
X274170D01*
Y75576D01*
X276078D01*
Y74693D01*
X276194Y74108D01*
X276526Y73611D01*
X276989Y73148D01*
X276892Y72912D01*
X276771Y71999D01*
X276892Y71085D01*
X277244Y70233D01*
X277805Y69502D01*
X278262Y69152D01*
Y52198D01*
X278417Y51418D01*
X278860Y50757D01*
X299046Y30570D01*
X298971Y29998D01*
X299092Y29085D01*
X299444Y28233D01*
X300005Y27502D01*
X300736Y26941D01*
X301588Y26589D01*
X302502Y26468D01*
X303415Y26589D01*
X304267Y26941D01*
X304998Y27502D01*
X305559Y28233D01*
X305911Y29085D01*
X306032Y29998D01*
X305911Y30912D01*
X305559Y31764D01*
X304998Y32495D01*
X304267Y33056D01*
X303415Y33408D01*
X302502Y33529D01*
X301930Y33454D01*
X282341Y53043D01*
Y69152D01*
X282798Y69502D01*
X283359Y70233D01*
X283711Y71085D01*
X283832Y71999D01*
X283711Y72912D01*
X283359Y73764D01*
X283073Y74136D01*
Y75576D01*
X283135D01*
Y78603D01*
X283635Y78733D01*
X284181Y78313D01*
X284903Y78014D01*
X285678Y77912D01*
X286453Y78014D01*
X287175Y78313D01*
X287795Y78789D01*
X288271Y79409D01*
X288570Y80131D01*
X288672Y80906D01*
X288570Y81681D01*
X288499Y81853D01*
X288777Y82269D01*
X290172D01*
Y53499D01*
X290288Y52913D01*
X290620Y52417D01*
X303620Y39417D01*
X304116Y39086D01*
X304701Y38969D01*
X318649D01*
Y36546D01*
X326554D01*
Y44451D01*
X318649D01*
Y42028D01*
X305335D01*
X293231Y54132D01*
Y76453D01*
X293693Y76644D01*
X296172Y74165D01*
Y53399D01*
X296288Y52813D01*
X296620Y52317D01*
X299520Y49417D01*
X300016Y49086D01*
X300602Y48969D01*
X318957D01*
X319149Y48505D01*
X319782Y47679D01*
X320608Y47046D01*
X321570Y46648D01*
X322602Y46512D01*
X323633Y46648D01*
X324595Y47046D01*
X325421Y47679D01*
X326054Y48505D01*
X326452Y49467D01*
X326588Y50498D01*
X326452Y51530D01*
X326054Y52492D01*
X325421Y53318D01*
X324595Y53951D01*
X323633Y54349D01*
X322602Y54485D01*
X321570Y54349D01*
X320608Y53951D01*
X319782Y53318D01*
X319149Y52492D01*
X318957Y52028D01*
X306110D01*
X305940Y52528D01*
X306298Y52802D01*
X306859Y53533D01*
X307211Y54385D01*
X307332Y55299D01*
X307211Y56212D01*
X306859Y57064D01*
X306298Y57795D01*
X305567Y58356D01*
X304931Y58619D01*
Y72753D01*
X305393Y72944D01*
X308620Y69717D01*
X309116Y69385D01*
X309701Y69269D01*
X318832D01*
X319149Y68505D01*
X319782Y67679D01*
X320608Y67046D01*
X321570Y66647D01*
X322602Y66512D01*
X323633Y66647D01*
X324595Y67046D01*
X325421Y67679D01*
X326054Y68505D01*
X326452Y69467D01*
X326588Y70499D01*
X326452Y71530D01*
X326054Y72492D01*
X325421Y73318D01*
X324595Y73951D01*
X323633Y74349D01*
X322602Y74485D01*
X321570Y74349D01*
X320608Y73951D01*
X319782Y73318D01*
X319149Y72492D01*
X319081Y72328D01*
X310335D01*
X304931Y77732D01*
Y81760D01*
X305431Y81929D01*
X305605Y81702D01*
X306336Y81141D01*
X307188Y80789D01*
X308102Y80668D01*
X309015Y80789D01*
X309867Y81141D01*
X310598Y81702D01*
X311159Y82433D01*
X311511Y83285D01*
X311632Y84198D01*
X311511Y85112D01*
X311159Y85964D01*
X310598Y86695D01*
X309867Y87256D01*
X309631Y87353D01*
Y92399D01*
X309514Y92984D01*
X309183Y93480D01*
X301377Y101286D01*
X301567Y101749D01*
X313147Y101797D01*
X313502Y101444D01*
D02*
G37*
G36*
X201002D02*
Y100998D01*
X201031Y100083D01*
X201271Y98267D01*
X201745Y96498D01*
X202445Y94806D01*
X203361Y93221D01*
X204476Y91768D01*
X205771Y90473D01*
X207224Y89358D01*
X208809Y88442D01*
X210501Y87742D01*
X212270Y87268D01*
X214086Y87028D01*
X215002Y86998D01*
X215002Y86998D01*
X215002Y15498D01*
X214053Y15468D01*
X212173Y15220D01*
X210341Y14729D01*
X208588Y14003D01*
X206946Y13055D01*
X205441Y11900D01*
X204100Y10559D01*
X202945Y9054D01*
X201997Y7412D01*
X201271Y5659D01*
X200780Y3827D01*
X200533Y1947D01*
X200501Y998D01*
X129001D01*
X128971Y1947D01*
X128723Y3827D01*
X128232Y5659D01*
X127506Y7412D01*
X126558Y9054D01*
X125403Y10559D01*
X124062Y11900D01*
X122557Y13055D01*
X120915Y14003D01*
X119162Y14729D01*
X117330Y15220D01*
X115450Y15468D01*
X114502Y15498D01*
X114502Y15498D01*
Y38807D01*
X114981Y39058D01*
X115449Y38883D01*
Y36546D01*
X123354D01*
Y38969D01*
X146568D01*
X148189Y37348D01*
X148092Y37112D01*
X147971Y36198D01*
X148092Y35285D01*
X148444Y34433D01*
X149005Y33702D01*
X149736Y33141D01*
X150588Y32789D01*
X151502Y32668D01*
X152415Y32789D01*
X153267Y33141D01*
X153998Y33702D01*
X154559Y34433D01*
X154911Y35285D01*
X155032Y36198D01*
X154911Y37112D01*
X154559Y37964D01*
X153998Y38695D01*
X153267Y39256D01*
X152415Y39608D01*
X151502Y39729D01*
X150588Y39608D01*
X150352Y39511D01*
X148283Y41580D01*
X147787Y41912D01*
X147202Y42028D01*
X134440D01*
X134271Y42528D01*
X134498Y42702D01*
X135059Y43433D01*
X135411Y44285D01*
X135532Y45199D01*
X135411Y46112D01*
X135314Y46348D01*
X152409Y63443D01*
X152741Y63939D01*
X152857Y64525D01*
Y75576D01*
X154764D01*
Y83875D01*
X153796D01*
Y79725D01*
X152918D01*
Y83875D01*
X149737D01*
Y83209D01*
X149237Y83080D01*
X148691Y83499D01*
X147969Y83798D01*
X147209Y83898D01*
Y87147D01*
X147709Y87354D01*
X147946Y87117D01*
X148442Y86786D01*
X149028Y86669D01*
X152201D01*
X152787Y86786D01*
X153283Y87117D01*
X154347Y88181D01*
X154678Y88677D01*
X154795Y89262D01*
Y89749D01*
X157672D01*
Y88199D01*
X157789Y87613D01*
X158120Y87117D01*
X160020Y85217D01*
X160516Y84886D01*
X161101Y84769D01*
X170402D01*
X170987Y84886D01*
X171483Y85217D01*
X172700Y86434D01*
X173162Y86243D01*
Y83898D01*
X172403Y83798D01*
X171681Y83499D01*
X171135Y83080D01*
X170635Y83209D01*
Y83875D01*
X163516D01*
Y79725D01*
X162638D01*
Y83875D01*
X161670D01*
Y75576D01*
X163578D01*
Y74693D01*
X163694Y74108D01*
X164026Y73611D01*
X164489Y73148D01*
X164392Y72912D01*
X164271Y71999D01*
X164392Y71085D01*
X164744Y70233D01*
X165305Y69502D01*
X165762Y69152D01*
Y52198D01*
X165918Y51418D01*
X166360Y50757D01*
X186547Y30570D01*
X186471Y29998D01*
X186592Y29085D01*
X186944Y28233D01*
X187505Y27502D01*
X188236Y26941D01*
X189088Y26589D01*
X190001Y26468D01*
X190915Y26589D01*
X191767Y26941D01*
X192498Y27502D01*
X193059Y28233D01*
X193411Y29085D01*
X193532Y29998D01*
X193411Y30912D01*
X193059Y31764D01*
X192498Y32495D01*
X191767Y33056D01*
X190915Y33408D01*
X190001Y33529D01*
X189430Y33454D01*
X169841Y53043D01*
Y69152D01*
X170298Y69502D01*
X170859Y70233D01*
X171211Y71085D01*
X171332Y71999D01*
X171211Y72912D01*
X170859Y73764D01*
X170573Y74136D01*
Y75576D01*
X170635D01*
Y78603D01*
X171135Y78733D01*
X171681Y78313D01*
X172403Y78014D01*
X173178Y77912D01*
X173953Y78014D01*
X174675Y78313D01*
X175295Y78789D01*
X175771Y79409D01*
X176070Y80131D01*
X176172Y80906D01*
X176070Y81681D01*
X175999Y81853D01*
X176277Y82269D01*
X177672D01*
Y53499D01*
X177788Y52913D01*
X178120Y52417D01*
X191120Y39417D01*
X191616Y39086D01*
X192201Y38969D01*
X206149D01*
Y36546D01*
X214054D01*
Y44451D01*
X206149D01*
Y42028D01*
X192835D01*
X180731Y54132D01*
Y76453D01*
X181193Y76644D01*
X183672Y74165D01*
Y53399D01*
X183789Y52813D01*
X184120Y52317D01*
X187020Y49417D01*
X187516Y49086D01*
X188101Y48969D01*
X206457D01*
X206649Y48505D01*
X207282Y47679D01*
X208108Y47046D01*
X209070Y46648D01*
X210102Y46512D01*
X211133Y46648D01*
X212095Y47046D01*
X212921Y47679D01*
X213554Y48505D01*
X213952Y49467D01*
X214088Y50498D01*
X213952Y51530D01*
X213554Y52492D01*
X212921Y53318D01*
X212095Y53951D01*
X211133Y54349D01*
X210102Y54485D01*
X209070Y54349D01*
X208108Y53951D01*
X207282Y53318D01*
X206649Y52492D01*
X206457Y52028D01*
X193610D01*
X193440Y52528D01*
X193798Y52802D01*
X194359Y53533D01*
X194711Y54385D01*
X194832Y55299D01*
X194711Y56212D01*
X194359Y57064D01*
X193798Y57795D01*
X193067Y58356D01*
X192431Y58619D01*
Y72753D01*
X192893Y72944D01*
X196120Y69717D01*
X196616Y69385D01*
X197202Y69269D01*
X206332D01*
X206649Y68505D01*
X207282Y67679D01*
X208108Y67046D01*
X209070Y66647D01*
X210102Y66512D01*
X211133Y66647D01*
X212095Y67046D01*
X212921Y67679D01*
X213554Y68505D01*
X213952Y69467D01*
X214088Y70499D01*
X213952Y71530D01*
X213554Y72492D01*
X212921Y73318D01*
X212095Y73951D01*
X211133Y74349D01*
X210102Y74485D01*
X209070Y74349D01*
X208108Y73951D01*
X207282Y73318D01*
X206649Y72492D01*
X206581Y72328D01*
X197835D01*
X192431Y77732D01*
Y81760D01*
X192931Y81929D01*
X193105Y81702D01*
X193836Y81141D01*
X194688Y80789D01*
X195601Y80668D01*
X196515Y80789D01*
X197367Y81141D01*
X198098Y81702D01*
X198659Y82433D01*
X199011Y83285D01*
X199132Y84198D01*
X199011Y85112D01*
X198659Y85964D01*
X198098Y86695D01*
X197367Y87256D01*
X197131Y87353D01*
Y92399D01*
X197014Y92984D01*
X196683Y93480D01*
X188876Y101286D01*
X189067Y101749D01*
X200647Y101797D01*
X201002Y101444D01*
D02*
G37*
G36*
X88502D02*
Y100998D01*
X88532Y100083D01*
X88771Y98267D01*
X89245Y96498D01*
X89945Y94806D01*
X90861Y93221D01*
X91976Y91768D01*
X93271Y90473D01*
X94723Y89358D01*
X96310Y88442D01*
X98001Y87742D01*
X99770Y87268D01*
X101586Y87028D01*
X102501Y86998D01*
X102501Y86998D01*
X102501Y15498D01*
X101553Y15468D01*
X99673Y15220D01*
X97841Y14729D01*
X96088Y14003D01*
X94446Y13055D01*
X92941Y11900D01*
X91600Y10559D01*
X90445Y9054D01*
X89497Y7412D01*
X88771Y5659D01*
X88280Y3827D01*
X88033Y1947D01*
X88002Y998D01*
X16501D01*
X16470Y1947D01*
X16223Y3827D01*
X15732Y5659D01*
X15006Y7412D01*
X14058Y9054D01*
X12903Y10559D01*
X11562Y11900D01*
X10057Y13055D01*
X8415Y14003D01*
X6662Y14729D01*
X4830Y15220D01*
X2950Y15468D01*
X2001Y15498D01*
X2001Y15498D01*
Y38807D01*
X2481Y39058D01*
X2949Y38883D01*
Y36546D01*
X10854D01*
Y38969D01*
X34068D01*
X35689Y37348D01*
X35592Y37112D01*
X35471Y36198D01*
X35592Y35285D01*
X35944Y34433D01*
X36505Y33702D01*
X37236Y33141D01*
X38088Y32789D01*
X39002Y32668D01*
X39915Y32789D01*
X40767Y33141D01*
X41498Y33702D01*
X42059Y34433D01*
X42411Y35285D01*
X42532Y36198D01*
X42411Y37112D01*
X42059Y37964D01*
X41498Y38695D01*
X40767Y39256D01*
X39915Y39608D01*
X39002Y39729D01*
X38088Y39608D01*
X37852Y39511D01*
X35783Y41580D01*
X35287Y41912D01*
X34701Y42028D01*
X21940D01*
X21770Y42528D01*
X21998Y42702D01*
X22559Y43433D01*
X22911Y44285D01*
X23032Y45199D01*
X22911Y46112D01*
X22814Y46348D01*
X39909Y63443D01*
X40240Y63939D01*
X40357Y64525D01*
Y75576D01*
X42265D01*
Y83875D01*
X41296D01*
Y79725D01*
X40418D01*
Y83875D01*
X37237D01*
Y83209D01*
X36737Y83080D01*
X36191Y83499D01*
X35469Y83798D01*
X34709Y83898D01*
Y87147D01*
X35209Y87354D01*
X35446Y87117D01*
X35942Y86786D01*
X36527Y86669D01*
X39702D01*
X40287Y86786D01*
X40783Y87117D01*
X41847Y88181D01*
X42178Y88677D01*
X42295Y89262D01*
Y89749D01*
X45172D01*
Y88199D01*
X45289Y87613D01*
X45620Y87117D01*
X47520Y85217D01*
X48016Y84886D01*
X48601Y84769D01*
X57902D01*
X58487Y84886D01*
X58983Y85217D01*
X60200Y86434D01*
X60662Y86243D01*
Y83898D01*
X59903Y83798D01*
X59181Y83499D01*
X58635Y83080D01*
X58135Y83209D01*
Y83875D01*
X51016D01*
Y79725D01*
X50138D01*
Y83875D01*
X49170D01*
Y75576D01*
X51078D01*
Y74693D01*
X51194Y74108D01*
X51526Y73611D01*
X51989Y73148D01*
X51892Y72912D01*
X51771Y71999D01*
X51892Y71085D01*
X52244Y70233D01*
X52805Y69502D01*
X53262Y69152D01*
Y52198D01*
X53417Y51418D01*
X53860Y50757D01*
X74046Y30570D01*
X73971Y29998D01*
X74092Y29085D01*
X74444Y28233D01*
X75005Y27502D01*
X75736Y26941D01*
X76588Y26589D01*
X77501Y26468D01*
X78415Y26589D01*
X79267Y26941D01*
X79998Y27502D01*
X80559Y28233D01*
X80911Y29085D01*
X81032Y29998D01*
X80911Y30912D01*
X80559Y31764D01*
X79998Y32495D01*
X79267Y33056D01*
X78415Y33408D01*
X77501Y33529D01*
X76930Y33454D01*
X57341Y53043D01*
Y69152D01*
X57798Y69502D01*
X58359Y70233D01*
X58711Y71085D01*
X58832Y71999D01*
X58711Y72912D01*
X58359Y73764D01*
X58073Y74136D01*
Y75576D01*
X58135D01*
Y78603D01*
X58635Y78733D01*
X59181Y78313D01*
X59903Y78014D01*
X60678Y77912D01*
X61453Y78014D01*
X62175Y78313D01*
X62795Y78789D01*
X63271Y79409D01*
X63570Y80131D01*
X63672Y80906D01*
X63570Y81681D01*
X63499Y81853D01*
X63777Y82269D01*
X65172D01*
Y53499D01*
X65289Y52913D01*
X65620Y52417D01*
X78620Y39417D01*
X79116Y39086D01*
X79702Y38969D01*
X93649D01*
Y36546D01*
X101554D01*
Y44451D01*
X93649D01*
Y42028D01*
X80335D01*
X68231Y54132D01*
Y76453D01*
X68693Y76644D01*
X71172Y74165D01*
Y53399D01*
X71289Y52813D01*
X71620Y52317D01*
X74520Y49417D01*
X75016Y49086D01*
X75602Y48969D01*
X93957D01*
X94149Y48505D01*
X94782Y47679D01*
X95608Y47046D01*
X96570Y46648D01*
X97601Y46512D01*
X98633Y46648D01*
X99595Y47046D01*
X100421Y47679D01*
X101054Y48505D01*
X101453Y49467D01*
X101588Y50498D01*
X101453Y51530D01*
X101054Y52492D01*
X100421Y53318D01*
X99595Y53951D01*
X98633Y54349D01*
X97601Y54485D01*
X96570Y54349D01*
X95608Y53951D01*
X94782Y53318D01*
X94149Y52492D01*
X93957Y52028D01*
X81110D01*
X80940Y52528D01*
X81298Y52802D01*
X81859Y53533D01*
X82211Y54385D01*
X82332Y55299D01*
X82211Y56212D01*
X81859Y57064D01*
X81298Y57795D01*
X80567Y58356D01*
X79931Y58619D01*
Y72753D01*
X80393Y72944D01*
X83620Y69717D01*
X84116Y69385D01*
X84702Y69269D01*
X93832D01*
X94149Y68505D01*
X94782Y67679D01*
X95608Y67046D01*
X96570Y66647D01*
X97601Y66512D01*
X98633Y66647D01*
X99595Y67046D01*
X100421Y67679D01*
X101054Y68505D01*
X101453Y69467D01*
X101588Y70499D01*
X101453Y71530D01*
X101054Y72492D01*
X100421Y73318D01*
X99595Y73951D01*
X98633Y74349D01*
X97601Y74485D01*
X96570Y74349D01*
X95608Y73951D01*
X94782Y73318D01*
X94149Y72492D01*
X94081Y72328D01*
X85335D01*
X79931Y77732D01*
Y81760D01*
X80431Y81929D01*
X80605Y81702D01*
X81336Y81141D01*
X82188Y80789D01*
X83101Y80668D01*
X84015Y80789D01*
X84867Y81141D01*
X85598Y81702D01*
X86159Y82433D01*
X86511Y83285D01*
X86632Y84198D01*
X86511Y85112D01*
X86159Y85964D01*
X85598Y86695D01*
X84867Y87256D01*
X84631Y87353D01*
Y92399D01*
X84514Y92984D01*
X84183Y93480D01*
X76376Y101286D01*
X76567Y101749D01*
X88147Y101797D01*
X88502Y101444D01*
D02*
G37*
G36*
X241367Y90794D02*
X241292Y90612D01*
X241171Y89698D01*
X241292Y88785D01*
X241644Y87933D01*
X242205Y87202D01*
X242936Y86641D01*
X243788Y86289D01*
X244702Y86168D01*
X245615Y86289D01*
X246467Y86641D01*
X247072Y87106D01*
X247572Y86927D01*
Y83029D01*
X247072Y82860D01*
X246721Y83318D01*
X245895Y83951D01*
X244933Y84350D01*
X244402Y84420D01*
Y80498D01*
X243901D01*
Y79998D01*
X239981D01*
X240051Y79467D01*
X240449Y78505D01*
X241082Y77679D01*
X241280Y77528D01*
X241110Y77028D01*
X236901D01*
X236316Y76911D01*
X235820Y76580D01*
X233397Y74157D01*
X232933Y74349D01*
X231902Y74485D01*
X230870Y74349D01*
X229908Y73951D01*
X229231Y73432D01*
X228731Y73633D01*
Y77364D01*
X229231Y77565D01*
X229908Y77046D01*
X230870Y76648D01*
X231401Y76578D01*
Y80498D01*
X231902D01*
Y80998D01*
X235823D01*
X235753Y81530D01*
X235354Y82492D01*
X234721Y83318D01*
X233895Y83951D01*
X232933Y84350D01*
X232785Y84369D01*
X232817Y84869D01*
X234102D01*
X234687Y84986D01*
X235183Y85317D01*
X240943Y91077D01*
X241367Y90794D01*
D02*
G37*
G36*
X128867D02*
X128792Y90612D01*
X128671Y89698D01*
X128792Y88785D01*
X129144Y87933D01*
X129705Y87202D01*
X130436Y86641D01*
X131288Y86289D01*
X132202Y86168D01*
X133115Y86289D01*
X133967Y86641D01*
X134572Y87106D01*
X135072Y86927D01*
Y83029D01*
X134572Y82860D01*
X134221Y83318D01*
X133395Y83951D01*
X132433Y84350D01*
X131902Y84420D01*
Y80498D01*
X131402D01*
Y79998D01*
X127480D01*
X127550Y79467D01*
X127949Y78505D01*
X128582Y77679D01*
X128780Y77528D01*
X128610Y77028D01*
X124401D01*
X123816Y76911D01*
X123320Y76580D01*
X120897Y74157D01*
X120433Y74349D01*
X119402Y74485D01*
X118370Y74349D01*
X117408Y73951D01*
X116731Y73432D01*
X116231Y73633D01*
Y77364D01*
X116731Y77565D01*
X117408Y77046D01*
X118370Y76648D01*
X118902Y76578D01*
Y80498D01*
X119402D01*
Y80998D01*
X123322D01*
X123252Y81530D01*
X122854Y82492D01*
X122221Y83318D01*
X121395Y83951D01*
X120433Y84350D01*
X120284Y84369D01*
X120317Y84869D01*
X121601D01*
X122187Y84986D01*
X122683Y85317D01*
X128443Y91077D01*
X128867Y90794D01*
D02*
G37*
G36*
X16367D02*
X16292Y90612D01*
X16171Y89698D01*
X16292Y88785D01*
X16644Y87933D01*
X17205Y87202D01*
X17936Y86641D01*
X18788Y86289D01*
X19702Y86168D01*
X20615Y86289D01*
X21467Y86641D01*
X22072Y87106D01*
X22572Y86927D01*
Y83029D01*
X22072Y82860D01*
X21721Y83318D01*
X20895Y83951D01*
X19933Y84350D01*
X19401Y84420D01*
Y80498D01*
X18902D01*
Y79998D01*
X14980D01*
X15051Y79467D01*
X15449Y78505D01*
X16082Y77679D01*
X16280Y77528D01*
X16110Y77028D01*
X11902D01*
X11316Y76911D01*
X10820Y76580D01*
X8397Y74157D01*
X7933Y74349D01*
X6901Y74485D01*
X5870Y74349D01*
X4908Y73951D01*
X4231Y73432D01*
X3731Y73633D01*
Y77364D01*
X4231Y77565D01*
X4908Y77046D01*
X5870Y76648D01*
X6402Y76578D01*
Y80498D01*
X6901D01*
Y80998D01*
X10823D01*
X10752Y81530D01*
X10354Y82492D01*
X9721Y83318D01*
X8895Y83951D01*
X7933Y84350D01*
X7784Y84369D01*
X7817Y84869D01*
X9102D01*
X9687Y84986D01*
X10183Y85317D01*
X15943Y91077D01*
X16367Y90794D01*
D02*
G37*
G36*
X301872Y84690D02*
Y58230D01*
X301305Y57795D01*
X300744Y57064D01*
X300392Y56212D01*
X300271Y55299D01*
X300392Y54385D01*
X300744Y53533D01*
X301305Y52802D01*
X301310Y52798D01*
X301188Y52262D01*
X301033Y52229D01*
X299231Y54032D01*
Y74799D01*
X299114Y75384D01*
X298783Y75880D01*
X295131Y79532D01*
Y83027D01*
X295631Y83206D01*
X296236Y82741D01*
X297088Y82389D01*
X298002Y82268D01*
X298915Y82389D01*
X299767Y82741D01*
X300498Y83302D01*
X301059Y84033D01*
X301372Y84790D01*
X301872Y84690D01*
D02*
G37*
G36*
X189372D02*
Y58230D01*
X188805Y57795D01*
X188244Y57064D01*
X187892Y56212D01*
X187771Y55299D01*
X187892Y54385D01*
X188244Y53533D01*
X188805Y52802D01*
X188810Y52798D01*
X188688Y52262D01*
X188533Y52229D01*
X186731Y54032D01*
Y74799D01*
X186615Y75384D01*
X186283Y75880D01*
X182631Y79532D01*
Y83027D01*
X183131Y83206D01*
X183736Y82741D01*
X184588Y82389D01*
X185502Y82268D01*
X186415Y82389D01*
X187267Y82741D01*
X187998Y83302D01*
X188559Y84033D01*
X188872Y84790D01*
X189372Y84690D01*
D02*
G37*
G36*
X76872D02*
Y58230D01*
X76305Y57795D01*
X75744Y57064D01*
X75392Y56212D01*
X75271Y55299D01*
X75392Y54385D01*
X75744Y53533D01*
X76305Y52802D01*
X76310Y52798D01*
X76188Y52262D01*
X76034Y52229D01*
X74231Y54032D01*
Y74799D01*
X74115Y75384D01*
X73783Y75880D01*
X70131Y79532D01*
Y83027D01*
X70631Y83206D01*
X71236Y82741D01*
X72088Y82389D01*
X73001Y82268D01*
X73915Y82389D01*
X74767Y82741D01*
X75498Y83302D01*
X76059Y84033D01*
X76372Y84790D01*
X76872Y84690D01*
D02*
G37*
G36*
X254560Y89741D02*
Y82269D01*
X256595D01*
X256873Y81853D01*
X256802Y81681D01*
X256699Y80906D01*
X256802Y80131D01*
X257101Y79409D01*
X257576Y78789D01*
X258197Y78313D01*
X258919Y78014D01*
X259694Y77912D01*
X260469Y78014D01*
X261191Y78313D01*
X261737Y78733D01*
X262237Y78603D01*
Y75576D01*
X262298D01*
Y73532D01*
X261839Y73072D01*
X261498Y73095D01*
X260767Y73656D01*
X259915Y74008D01*
X259001Y74129D01*
X258088Y74008D01*
X257236Y73656D01*
X256505Y73095D01*
X255944Y72364D01*
X255592Y71512D01*
X255471Y70599D01*
X255592Y69685D01*
X255944Y68833D01*
X256505Y68102D01*
X257236Y67541D01*
X258088Y67189D01*
X259001Y67068D01*
X259915Y67189D01*
X260767Y67541D01*
X261498Y68102D01*
X261798Y68494D01*
X262298Y68324D01*
Y65158D01*
X245651Y48511D01*
X245415Y48608D01*
X244501Y48729D01*
X243588Y48608D01*
X242736Y48256D01*
X242005Y47695D01*
X241444Y46964D01*
X241092Y46112D01*
X240971Y45199D01*
X241092Y44285D01*
X241444Y43433D01*
X242005Y42702D01*
X242232Y42528D01*
X242063Y42028D01*
X235854D01*
Y44451D01*
X228731D01*
Y47364D01*
X229231Y47565D01*
X229908Y47046D01*
X230870Y46648D01*
X231902Y46512D01*
X232933Y46648D01*
X233895Y47046D01*
X234721Y47679D01*
X235354Y48505D01*
X235753Y49467D01*
X235888Y50498D01*
X235753Y51530D01*
X235354Y52492D01*
X234721Y53318D01*
X233895Y53951D01*
X232933Y54349D01*
X231902Y54485D01*
X230870Y54349D01*
X229908Y53951D01*
X229231Y53432D01*
X228731Y53633D01*
Y57364D01*
X229231Y57565D01*
X229908Y57046D01*
X230870Y56647D01*
X231902Y56512D01*
X232933Y56647D01*
X233895Y57046D01*
X234721Y57679D01*
X235114Y58192D01*
X235613Y58224D01*
X239689Y54148D01*
X239592Y53912D01*
X239471Y52999D01*
X239592Y52085D01*
X239944Y51233D01*
X240505Y50502D01*
X241236Y49941D01*
X242088Y49589D01*
X243002Y49468D01*
X243915Y49589D01*
X244767Y49941D01*
X245498Y50502D01*
X246059Y51233D01*
X246411Y52085D01*
X246532Y52999D01*
X246411Y53912D01*
X246314Y54148D01*
X253233Y61067D01*
X253565Y61563D01*
X253681Y62148D01*
Y89515D01*
X254098Y89932D01*
X254560Y89741D01*
D02*
G37*
G36*
X142060D02*
Y82269D01*
X144095D01*
X144373Y81853D01*
X144301Y81681D01*
X144200Y80906D01*
X144301Y80131D01*
X144601Y79409D01*
X145077Y78789D01*
X145697Y78313D01*
X146419Y78014D01*
X147194Y77912D01*
X147969Y78014D01*
X148691Y78313D01*
X149237Y78733D01*
X149737Y78603D01*
Y75576D01*
X149798D01*
Y73532D01*
X149338Y73072D01*
X148998Y73095D01*
X148267Y73656D01*
X147415Y74008D01*
X146502Y74129D01*
X145588Y74008D01*
X144736Y73656D01*
X144005Y73095D01*
X143444Y72364D01*
X143092Y71512D01*
X142971Y70599D01*
X143092Y69685D01*
X143444Y68833D01*
X144005Y68102D01*
X144736Y67541D01*
X145588Y67189D01*
X146502Y67068D01*
X147415Y67189D01*
X148267Y67541D01*
X148998Y68102D01*
X149298Y68494D01*
X149798Y68324D01*
Y65158D01*
X133151Y48511D01*
X132915Y48608D01*
X132001Y48729D01*
X131088Y48608D01*
X130236Y48256D01*
X129505Y47695D01*
X128944Y46964D01*
X128592Y46112D01*
X128471Y45199D01*
X128592Y44285D01*
X128944Y43433D01*
X129505Y42702D01*
X129733Y42528D01*
X129563Y42028D01*
X123354D01*
Y44451D01*
X116231D01*
Y47364D01*
X116731Y47565D01*
X117408Y47046D01*
X118370Y46648D01*
X119402Y46512D01*
X120433Y46648D01*
X121395Y47046D01*
X122221Y47679D01*
X122854Y48505D01*
X123252Y49467D01*
X123388Y50498D01*
X123252Y51530D01*
X122854Y52492D01*
X122221Y53318D01*
X121395Y53951D01*
X120433Y54349D01*
X119402Y54485D01*
X118370Y54349D01*
X117408Y53951D01*
X116731Y53432D01*
X116231Y53633D01*
Y57364D01*
X116731Y57565D01*
X117408Y57046D01*
X118370Y56647D01*
X119402Y56512D01*
X120433Y56647D01*
X121395Y57046D01*
X122221Y57679D01*
X122614Y58192D01*
X123113Y58224D01*
X127189Y54148D01*
X127092Y53912D01*
X126971Y52999D01*
X127092Y52085D01*
X127444Y51233D01*
X128005Y50502D01*
X128736Y49941D01*
X129588Y49589D01*
X130501Y49468D01*
X131415Y49589D01*
X132267Y49941D01*
X132998Y50502D01*
X133559Y51233D01*
X133911Y52085D01*
X134032Y52999D01*
X133911Y53912D01*
X133814Y54148D01*
X140733Y61067D01*
X141065Y61563D01*
X141181Y62148D01*
Y89515D01*
X141598Y89932D01*
X142060Y89741D01*
D02*
G37*
G36*
X29560D02*
Y82269D01*
X31595D01*
X31873Y81853D01*
X31802Y81681D01*
X31699Y80906D01*
X31802Y80131D01*
X32101Y79409D01*
X32577Y78789D01*
X33197Y78313D01*
X33919Y78014D01*
X34694Y77912D01*
X35469Y78014D01*
X36191Y78313D01*
X36737Y78733D01*
X37237Y78603D01*
Y75576D01*
X37298D01*
Y73532D01*
X36838Y73072D01*
X36498Y73095D01*
X35767Y73656D01*
X34915Y74008D01*
X34001Y74129D01*
X33088Y74008D01*
X32236Y73656D01*
X31505Y73095D01*
X30944Y72364D01*
X30592Y71512D01*
X30471Y70599D01*
X30592Y69685D01*
X30944Y68833D01*
X31505Y68102D01*
X32236Y67541D01*
X33088Y67189D01*
X34001Y67068D01*
X34915Y67189D01*
X35767Y67541D01*
X36498Y68102D01*
X36798Y68494D01*
X37298Y68324D01*
Y65158D01*
X20651Y48511D01*
X20415Y48608D01*
X19501Y48729D01*
X18588Y48608D01*
X17736Y48256D01*
X17005Y47695D01*
X16444Y46964D01*
X16092Y46112D01*
X15971Y45199D01*
X16092Y44285D01*
X16444Y43433D01*
X17005Y42702D01*
X17233Y42528D01*
X17063Y42028D01*
X10854D01*
Y44451D01*
X3731D01*
Y47364D01*
X4231Y47565D01*
X4908Y47046D01*
X5870Y46648D01*
X6901Y46512D01*
X7933Y46648D01*
X8895Y47046D01*
X9721Y47679D01*
X10354Y48505D01*
X10752Y49467D01*
X10888Y50498D01*
X10752Y51530D01*
X10354Y52492D01*
X9721Y53318D01*
X8895Y53951D01*
X7933Y54349D01*
X6901Y54485D01*
X5870Y54349D01*
X4908Y53951D01*
X4231Y53432D01*
X3731Y53633D01*
Y57364D01*
X4231Y57565D01*
X4908Y57046D01*
X5870Y56647D01*
X6901Y56512D01*
X7933Y56647D01*
X8895Y57046D01*
X9721Y57679D01*
X10114Y58192D01*
X10613Y58224D01*
X14689Y54148D01*
X14592Y53912D01*
X14471Y52999D01*
X14592Y52085D01*
X14944Y51233D01*
X15505Y50502D01*
X16236Y49941D01*
X17088Y49589D01*
X18001Y49468D01*
X18915Y49589D01*
X19767Y49941D01*
X20498Y50502D01*
X21059Y51233D01*
X21411Y52085D01*
X21532Y52999D01*
X21411Y53912D01*
X21314Y54148D01*
X28233Y61067D01*
X28565Y61563D01*
X28681Y62148D01*
Y89515D01*
X29098Y89932D01*
X29560Y89741D01*
D02*
G37*
G36*
X250370Y76513D02*
X250622Y76374D01*
Y62782D01*
X244151Y56311D01*
X243915Y56408D01*
X243002Y56529D01*
X242088Y56408D01*
X241852Y56311D01*
X236583Y61580D01*
X236087Y61911D01*
X235550Y62018D01*
X235354Y62492D01*
X234721Y63318D01*
X233895Y63951D01*
X232933Y64350D01*
X231902Y64485D01*
X230870Y64350D01*
X229908Y63951D01*
X229231Y63432D01*
X228731Y63633D01*
Y67364D01*
X229231Y67565D01*
X229908Y67046D01*
X230870Y66647D01*
X231902Y66512D01*
X232933Y66647D01*
X233895Y67046D01*
X234721Y67679D01*
X235354Y68505D01*
X235753Y69467D01*
X235888Y70499D01*
X235753Y71530D01*
X235560Y71994D01*
X237535Y73969D01*
X239949D01*
Y66546D01*
X247854D01*
Y74331D01*
X247983Y74417D01*
X250122Y76556D01*
X250370Y76513D01*
D02*
G37*
G36*
X137870D02*
X138122Y76374D01*
Y62782D01*
X131651Y56311D01*
X131415Y56408D01*
X130501Y56529D01*
X129588Y56408D01*
X129352Y56311D01*
X124083Y61580D01*
X123587Y61911D01*
X123050Y62018D01*
X122854Y62492D01*
X122221Y63318D01*
X121395Y63951D01*
X120433Y64350D01*
X119402Y64485D01*
X118370Y64350D01*
X117408Y63951D01*
X116731Y63432D01*
X116231Y63633D01*
Y67364D01*
X116731Y67565D01*
X117408Y67046D01*
X118370Y66647D01*
X119402Y66512D01*
X120433Y66647D01*
X121395Y67046D01*
X122221Y67679D01*
X122854Y68505D01*
X123252Y69467D01*
X123388Y70499D01*
X123252Y71530D01*
X123060Y71994D01*
X125035Y73969D01*
X127449D01*
Y66546D01*
X135354D01*
Y74331D01*
X135483Y74417D01*
X137622Y76556D01*
X137870Y76513D01*
D02*
G37*
G36*
X25370D02*
X25622Y76374D01*
Y62782D01*
X19151Y56311D01*
X18915Y56408D01*
X18001Y56529D01*
X17088Y56408D01*
X16852Y56311D01*
X11583Y61580D01*
X11087Y61911D01*
X10550Y62018D01*
X10354Y62492D01*
X9721Y63318D01*
X8895Y63951D01*
X7933Y64350D01*
X6901Y64485D01*
X5870Y64350D01*
X4908Y63951D01*
X4231Y63432D01*
X3731Y63633D01*
Y67364D01*
X4231Y67565D01*
X4908Y67046D01*
X5870Y66647D01*
X6901Y66512D01*
X7933Y66647D01*
X8895Y67046D01*
X9721Y67679D01*
X10354Y68505D01*
X10752Y69467D01*
X10888Y70499D01*
X10752Y71530D01*
X10560Y71994D01*
X12535Y73969D01*
X14949D01*
Y66546D01*
X22854D01*
Y74331D01*
X22983Y74417D01*
X25122Y76556D01*
X25370Y76513D01*
D02*
G37*
%LPC*%
G36*
X124906Y378151D02*
X121453D01*
Y374698D01*
X124906D01*
Y378151D01*
D02*
G37*
G36*
X120453D02*
X117000D01*
Y374698D01*
X120453D01*
Y378151D01*
D02*
G37*
G36*
X124906Y373698D02*
X121453D01*
Y370246D01*
X124906D01*
Y373698D01*
D02*
G37*
G36*
X120453D02*
X117000D01*
Y370246D01*
X120453D01*
Y373698D01*
D02*
G37*
G36*
X145953Y367118D02*
X144173D01*
Y364846D01*
X145953D01*
Y367118D01*
D02*
G37*
G36*
Y363846D02*
X144173D01*
Y361575D01*
X145953D01*
Y363846D01*
D02*
G37*
G36*
X124953Y365385D02*
X124039Y365264D01*
X123188Y364912D01*
X122457Y364351D01*
X121896Y363619D01*
X121543Y362768D01*
X121423Y361854D01*
X121543Y360941D01*
X121896Y360089D01*
X122457Y359358D01*
X123188Y358797D01*
X124039Y358444D01*
X124953Y358324D01*
X125866Y358444D01*
X126718Y358797D01*
X126796Y358857D01*
X131075D01*
Y364203D01*
X127562D01*
X127449Y364351D01*
X126718Y364912D01*
X125866Y365264D01*
X124953Y365385D01*
D02*
G37*
G36*
X150953Y378185D02*
X149921Y378049D01*
X148959Y377651D01*
X148134Y377017D01*
X147500Y376192D01*
X147102Y375230D01*
X146966Y374198D01*
X147102Y373166D01*
X147500Y372205D01*
X147604Y372070D01*
X147481Y371886D01*
X147357Y371262D01*
Y367118D01*
X146709D01*
Y361575D01*
X147369D01*
Y359673D01*
X146831D01*
Y354327D01*
X147380D01*
Y349741D01*
X147335Y349260D01*
X145525D01*
Y354327D01*
X146075D01*
Y359673D01*
X144020D01*
X142618Y361075D01*
X142825Y361575D01*
X143173D01*
Y364347D01*
Y367118D01*
X142425D01*
Y370530D01*
X142946Y370746D01*
X143772Y371379D01*
X144405Y372205D01*
X144804Y373166D01*
X144940Y374198D01*
X144804Y375230D01*
X144405Y376192D01*
X143772Y377017D01*
X142946Y377651D01*
X141985Y378049D01*
X140953Y378185D01*
X139921Y378049D01*
X138959Y377651D01*
X138134Y377017D01*
X137500Y376192D01*
X137102Y375230D01*
X136966Y374198D01*
X137102Y373166D01*
X137500Y372205D01*
X138134Y371379D01*
X138959Y370746D01*
X139162Y370661D01*
Y360592D01*
X139286Y359968D01*
X139640Y359439D01*
X141713Y357366D01*
Y354327D01*
X142262D01*
Y349358D01*
X135643D01*
Y358857D01*
X136193D01*
Y364203D01*
X135643D01*
Y370838D01*
X135519Y371462D01*
X135165Y371991D01*
X134565Y372591D01*
X134804Y373166D01*
X134940Y374198D01*
X134804Y375230D01*
X134406Y376192D01*
X133772Y377017D01*
X132946Y377651D01*
X131985Y378049D01*
X130953Y378185D01*
X129921Y378049D01*
X128959Y377651D01*
X128134Y377017D01*
X127500Y376192D01*
X127102Y375230D01*
X126966Y374198D01*
X127102Y373166D01*
X127500Y372205D01*
X128134Y371379D01*
X128959Y370746D01*
X129921Y370347D01*
X130953Y370212D01*
X131956Y370343D01*
X132135Y370216D01*
X132380Y370003D01*
Y364203D01*
X131831D01*
Y358857D01*
X132380D01*
Y349260D01*
X130571D01*
Y345488D01*
X130571D01*
Y345323D01*
X130571D01*
Y343937D01*
X133244D01*
Y342937D01*
X130571D01*
Y341551D01*
X130571D01*
Y341386D01*
X130571D01*
Y337614D01*
X134803D01*
Y337516D01*
X143102D01*
Y337614D01*
X147335D01*
Y341386D01*
X147335D01*
Y341551D01*
X147635Y341927D01*
X147650Y341930D01*
X148180Y342284D01*
X150165Y344269D01*
X150519Y344798D01*
X150643Y345423D01*
Y354327D01*
X151193D01*
Y359673D01*
X150631D01*
Y361575D01*
X151268D01*
Y367118D01*
X150620D01*
Y369919D01*
X150953Y370212D01*
X151985Y370347D01*
X152946Y370746D01*
X153772Y371379D01*
X154405Y372205D01*
X154804Y373166D01*
X154940Y374198D01*
X154804Y375230D01*
X154405Y376192D01*
X153772Y377017D01*
X152946Y377651D01*
X151985Y378049D01*
X150953Y378185D01*
D02*
G37*
G36*
X68929Y378151D02*
X65476D01*
Y374698D01*
X68929D01*
Y378151D01*
D02*
G37*
G36*
X64476D02*
X61024D01*
Y374698D01*
X64476D01*
Y378151D01*
D02*
G37*
G36*
X68929Y373698D02*
X65476D01*
Y370246D01*
X68929D01*
Y373698D01*
D02*
G37*
G36*
X64476D02*
X61024D01*
Y370246D01*
X64476D01*
Y373698D01*
D02*
G37*
G36*
X89976Y367118D02*
X88197D01*
Y364846D01*
X89976D01*
Y367118D01*
D02*
G37*
G36*
Y363846D02*
X88197D01*
Y361575D01*
X89976D01*
Y363846D01*
D02*
G37*
G36*
X68976Y365385D02*
X68063Y365264D01*
X67211Y364912D01*
X66480Y364351D01*
X65919Y363619D01*
X65566Y362768D01*
X65446Y361854D01*
X65566Y360941D01*
X65919Y360089D01*
X66480Y359358D01*
X67211Y358797D01*
X68063Y358444D01*
X68976Y358324D01*
X69890Y358444D01*
X70741Y358797D01*
X70819Y358857D01*
X75098D01*
Y364203D01*
X71586D01*
X71473Y364351D01*
X70741Y364912D01*
X69890Y365264D01*
X68976Y365385D01*
D02*
G37*
G36*
X94976Y378185D02*
X93945Y378049D01*
X92983Y377651D01*
X92157Y377017D01*
X91524Y376192D01*
X91125Y375230D01*
X90990Y374198D01*
X91125Y373166D01*
X91524Y372205D01*
X91627Y372070D01*
X91505Y371886D01*
X91381Y371262D01*
Y367118D01*
X90732D01*
Y361575D01*
X91392D01*
Y359673D01*
X90854D01*
Y354327D01*
X91404D01*
Y349741D01*
X91358Y349260D01*
X89549D01*
Y354327D01*
X90098D01*
Y359673D01*
X88043D01*
X86642Y361075D01*
X86849Y361575D01*
X87197D01*
Y364347D01*
Y367118D01*
X86449D01*
Y370530D01*
X86970Y370746D01*
X87796Y371379D01*
X88429Y372205D01*
X88827Y373166D01*
X88963Y374198D01*
X88827Y375230D01*
X88429Y376192D01*
X87796Y377017D01*
X86970Y377651D01*
X86008Y378049D01*
X84976Y378185D01*
X83944Y378049D01*
X82983Y377651D01*
X82157Y377017D01*
X81524Y376192D01*
X81125Y375230D01*
X80989Y374198D01*
X81125Y373166D01*
X81524Y372205D01*
X82157Y371379D01*
X82983Y370746D01*
X83186Y370661D01*
Y360592D01*
X83310Y359968D01*
X83664Y359439D01*
X85736Y357366D01*
Y354327D01*
X86286D01*
Y349358D01*
X79667D01*
Y358857D01*
X80216D01*
Y364203D01*
X79667D01*
Y370838D01*
X79543Y371462D01*
X79189Y371991D01*
X78589Y372591D01*
X78827Y373166D01*
X78963Y374198D01*
X78827Y375230D01*
X78429Y376192D01*
X77795Y377017D01*
X76970Y377651D01*
X76008Y378049D01*
X74976Y378185D01*
X73944Y378049D01*
X72983Y377651D01*
X72157Y377017D01*
X71524Y376192D01*
X71125Y375230D01*
X70990Y374198D01*
X71125Y373166D01*
X71524Y372205D01*
X72157Y371379D01*
X72983Y370746D01*
X73944Y370347D01*
X74976Y370212D01*
X75979Y370343D01*
X76159Y370216D01*
X76404Y370003D01*
Y364203D01*
X75854D01*
Y358857D01*
X76404D01*
Y349260D01*
X74594D01*
Y345488D01*
X74594D01*
Y345323D01*
X74594D01*
Y343937D01*
X77268D01*
Y342937D01*
X74594D01*
Y341551D01*
X74594D01*
Y341386D01*
X74594D01*
Y337614D01*
X78827D01*
Y337516D01*
X87126D01*
Y337614D01*
X91358D01*
Y341386D01*
X91358D01*
Y341551D01*
X91659Y341927D01*
X91674Y341930D01*
X92203Y342284D01*
X94189Y344269D01*
X94543Y344798D01*
X94667Y345423D01*
Y354327D01*
X95217D01*
Y359673D01*
X94655D01*
Y361575D01*
X95291D01*
Y367118D01*
X94643D01*
Y369919D01*
X94976Y370212D01*
X96008Y370347D01*
X96970Y370746D01*
X97795Y371379D01*
X98429Y372205D01*
X98827Y373166D01*
X98963Y374198D01*
X98827Y375230D01*
X98429Y376192D01*
X97795Y377017D01*
X96970Y377651D01*
X96008Y378049D01*
X94976Y378185D01*
D02*
G37*
G36*
X12953Y378151D02*
X9500D01*
Y374698D01*
X12953D01*
Y378151D01*
D02*
G37*
G36*
X8500D02*
X5047D01*
Y374698D01*
X8500D01*
Y378151D01*
D02*
G37*
G36*
X12953Y373698D02*
X9500D01*
Y370246D01*
X12953D01*
Y373698D01*
D02*
G37*
G36*
X8500D02*
X5047D01*
Y370246D01*
X8500D01*
Y373698D01*
D02*
G37*
G36*
X34000Y367118D02*
X32221D01*
Y364846D01*
X34000D01*
Y367118D01*
D02*
G37*
G36*
Y363846D02*
X32221D01*
Y361575D01*
X34000D01*
Y363846D01*
D02*
G37*
G36*
X13000Y365385D02*
X12086Y365264D01*
X11235Y364912D01*
X10504Y364351D01*
X9943Y363619D01*
X9590Y362768D01*
X9470Y361854D01*
X9590Y360941D01*
X9943Y360089D01*
X10504Y359358D01*
X11235Y358797D01*
X12086Y358444D01*
X13000Y358324D01*
X13914Y358444D01*
X14765Y358797D01*
X14843Y358857D01*
X19122D01*
Y364203D01*
X15609D01*
X15496Y364351D01*
X14765Y364912D01*
X13914Y365264D01*
X13000Y365385D01*
D02*
G37*
G36*
X39000Y378185D02*
X37968Y378049D01*
X37007Y377651D01*
X36181Y377017D01*
X35547Y376192D01*
X35149Y375230D01*
X35013Y374198D01*
X35149Y373166D01*
X35547Y372205D01*
X35651Y372070D01*
X35528Y371886D01*
X35404Y371262D01*
Y367118D01*
X34756D01*
Y361575D01*
X35416D01*
Y359673D01*
X34878D01*
Y354327D01*
X35428D01*
Y349741D01*
X35382Y349260D01*
X33572D01*
Y354327D01*
X34122D01*
Y359673D01*
X32067D01*
X30665Y361075D01*
X30872Y361575D01*
X31220D01*
Y364347D01*
Y367118D01*
X30472D01*
Y370530D01*
X30993Y370746D01*
X31819Y371379D01*
X32453Y372205D01*
X32851Y373166D01*
X32987Y374198D01*
X32851Y375230D01*
X32453Y376192D01*
X31819Y377017D01*
X30993Y377651D01*
X30032Y378049D01*
X29000Y378185D01*
X27968Y378049D01*
X27007Y377651D01*
X26181Y377017D01*
X25547Y376192D01*
X25149Y375230D01*
X25013Y374198D01*
X25149Y373166D01*
X25547Y372205D01*
X26181Y371379D01*
X27007Y370746D01*
X27210Y370661D01*
Y360592D01*
X27334Y359968D01*
X27687Y359439D01*
X29760Y357366D01*
Y354327D01*
X30310D01*
Y349358D01*
X23690D01*
Y358857D01*
X24240D01*
Y364203D01*
X23690D01*
Y370838D01*
X23566Y371462D01*
X23213Y371991D01*
X22613Y372591D01*
X22851Y373166D01*
X22987Y374198D01*
X22851Y375230D01*
X22453Y376192D01*
X21819Y377017D01*
X20993Y377651D01*
X20032Y378049D01*
X19000Y378185D01*
X17968Y378049D01*
X17007Y377651D01*
X16181Y377017D01*
X15547Y376192D01*
X15149Y375230D01*
X15013Y374198D01*
X15149Y373166D01*
X15547Y372205D01*
X16181Y371379D01*
X17007Y370746D01*
X17968Y370347D01*
X19000Y370212D01*
X20003Y370343D01*
X20182Y370216D01*
X20428Y370003D01*
Y364203D01*
X19878D01*
Y358857D01*
X20428D01*
Y349260D01*
X18618D01*
Y345488D01*
X18618D01*
Y345323D01*
X18618D01*
Y343937D01*
X21291D01*
Y342937D01*
X18618D01*
Y341551D01*
X18618D01*
Y341386D01*
X18618D01*
Y337614D01*
X22850D01*
Y337516D01*
X31150D01*
Y337614D01*
X35382D01*
Y341386D01*
X35382D01*
Y341551D01*
X35682Y341927D01*
X35698Y341930D01*
X36227Y342284D01*
X38213Y344269D01*
X38566Y344798D01*
X38690Y345423D01*
Y354327D01*
X39240D01*
Y359673D01*
X38679D01*
Y361575D01*
X39315D01*
Y367118D01*
X38667D01*
Y369919D01*
X39000Y370212D01*
X40032Y370347D01*
X40993Y370746D01*
X41819Y371379D01*
X42453Y372205D01*
X42851Y373166D01*
X42987Y374198D01*
X42851Y375230D01*
X42453Y376192D01*
X41819Y377017D01*
X40993Y377651D01*
X40032Y378049D01*
X39000Y378185D01*
D02*
G37*
G36*
X326453Y377453D02*
X323000D01*
Y374000D01*
X326453D01*
Y377453D01*
D02*
G37*
G36*
X322000D02*
X318547D01*
Y374000D01*
X322000D01*
Y377453D01*
D02*
G37*
G36*
X326453Y373000D02*
X323000D01*
Y369547D01*
X326453D01*
Y373000D01*
D02*
G37*
G36*
X322000D02*
X318547D01*
Y369547D01*
X322000D01*
Y373000D01*
D02*
G37*
G36*
X342500Y377487D02*
X341468Y377351D01*
X340507Y376953D01*
X339681Y376319D01*
X339047Y375493D01*
X338649Y374532D01*
X338513Y373500D01*
X338649Y372468D01*
X339047Y371507D01*
X339681Y370681D01*
X340507Y370047D01*
X340869Y369897D01*
Y360644D01*
X337661Y357437D01*
X334032D01*
X333881Y357875D01*
Y369794D01*
X334493Y370047D01*
X335319Y370681D01*
X335953Y371507D01*
X336351Y372468D01*
X336487Y373500D01*
X336351Y374532D01*
X335953Y375493D01*
X335319Y376319D01*
X334493Y376953D01*
X333532Y377351D01*
X332500Y377487D01*
X331468Y377351D01*
X330507Y376953D01*
X329681Y376319D01*
X329047Y375493D01*
X328649Y374532D01*
X328513Y373500D01*
X328649Y372468D01*
X329047Y371507D01*
X329681Y370681D01*
X330507Y370047D01*
X330619Y370001D01*
Y357109D01*
X330503Y357062D01*
X329883Y356586D01*
X329750Y356413D01*
X329250D01*
X329117Y356586D01*
X328497Y357062D01*
X327775Y357361D01*
X327500Y357397D01*
Y347603D01*
X327775Y347639D01*
X328497Y347938D01*
X329117Y348414D01*
X329250Y348587D01*
X329750D01*
X329883Y348414D01*
X330503Y347938D01*
X331225Y347639D01*
X332000Y347537D01*
X332775Y347639D01*
X333497Y347938D01*
X333583Y348005D01*
X334032Y347783D01*
Y347563D01*
X339968D01*
Y355130D01*
X343653Y358815D01*
X344007Y359344D01*
X344131Y359968D01*
Y369897D01*
X344493Y370047D01*
X345319Y370681D01*
X345953Y371507D01*
X346351Y372468D01*
X346487Y373500D01*
X346351Y374532D01*
X345953Y375493D01*
X345319Y376319D01*
X344493Y376953D01*
X343532Y377351D01*
X342500Y377487D01*
D02*
G37*
G36*
X326500Y357397D02*
X326225Y357361D01*
X325503Y357062D01*
X324883Y356586D01*
X324407Y355965D01*
X324108Y355243D01*
X324006Y354468D01*
Y353000D01*
X326500D01*
Y357397D01*
D02*
G37*
G36*
Y352000D02*
X324006D01*
Y350532D01*
X324108Y349757D01*
X324407Y349034D01*
X324883Y348414D01*
X325503Y347938D01*
X326225Y347639D01*
X326500Y347603D01*
Y352000D01*
D02*
G37*
G36*
X281453Y377453D02*
X278000D01*
Y374000D01*
X281453D01*
Y377453D01*
D02*
G37*
G36*
X277000D02*
X273547D01*
Y374000D01*
X277000D01*
Y377453D01*
D02*
G37*
G36*
X281453Y373000D02*
X278000D01*
Y369547D01*
X281453D01*
Y373000D01*
D02*
G37*
G36*
X277000D02*
X273547D01*
Y369547D01*
X277000D01*
Y373000D01*
D02*
G37*
G36*
X297500Y377487D02*
X296468Y377351D01*
X295507Y376953D01*
X294681Y376319D01*
X294047Y375493D01*
X293649Y374532D01*
X293513Y373500D01*
X293649Y372468D01*
X294047Y371507D01*
X294681Y370681D01*
X295507Y370047D01*
X295869Y369897D01*
Y360644D01*
X292661Y357437D01*
X289032D01*
X288881Y357875D01*
Y369794D01*
X289493Y370047D01*
X290319Y370681D01*
X290953Y371507D01*
X291351Y372468D01*
X291487Y373500D01*
X291351Y374532D01*
X290953Y375493D01*
X290319Y376319D01*
X289493Y376953D01*
X288532Y377351D01*
X287500Y377487D01*
X286468Y377351D01*
X285507Y376953D01*
X284681Y376319D01*
X284047Y375493D01*
X283649Y374532D01*
X283513Y373500D01*
X283649Y372468D01*
X284047Y371507D01*
X284681Y370681D01*
X285507Y370047D01*
X285619Y370001D01*
Y357109D01*
X285503Y357062D01*
X284883Y356586D01*
X284750Y356413D01*
X284250D01*
X284117Y356586D01*
X283497Y357062D01*
X282775Y357361D01*
X282500Y357397D01*
Y347603D01*
X282775Y347639D01*
X283497Y347938D01*
X284117Y348414D01*
X284250Y348587D01*
X284750D01*
X284883Y348414D01*
X285503Y347938D01*
X286225Y347639D01*
X287000Y347537D01*
X287775Y347639D01*
X288497Y347938D01*
X288583Y348005D01*
X289032Y347783D01*
Y347563D01*
X294969D01*
Y355130D01*
X298654Y358815D01*
X299007Y359344D01*
X299131Y359968D01*
Y369897D01*
X299493Y370047D01*
X300319Y370681D01*
X300953Y371507D01*
X301351Y372468D01*
X301487Y373500D01*
X301351Y374532D01*
X300953Y375493D01*
X300319Y376319D01*
X299493Y376953D01*
X298532Y377351D01*
X297500Y377487D01*
D02*
G37*
G36*
X281500Y357397D02*
X281225Y357361D01*
X280503Y357062D01*
X279883Y356586D01*
X279407Y355965D01*
X279108Y355243D01*
X279006Y354468D01*
Y353000D01*
X281500D01*
Y357397D01*
D02*
G37*
G36*
Y352000D02*
X279006D01*
Y350532D01*
X279108Y349757D01*
X279407Y349034D01*
X279883Y348414D01*
X280503Y347938D01*
X281225Y347639D01*
X281500Y347603D01*
Y352000D01*
D02*
G37*
G36*
X236453Y377453D02*
X233000D01*
Y374000D01*
X236453D01*
Y377453D01*
D02*
G37*
G36*
X232000D02*
X228547D01*
Y374000D01*
X232000D01*
Y377453D01*
D02*
G37*
G36*
X236453Y373000D02*
X233000D01*
Y369547D01*
X236453D01*
Y373000D01*
D02*
G37*
G36*
X232000D02*
X228547D01*
Y369547D01*
X232000D01*
Y373000D01*
D02*
G37*
G36*
X252500Y377487D02*
X251468Y377351D01*
X250507Y376953D01*
X249681Y376319D01*
X249047Y375493D01*
X248649Y374532D01*
X248513Y373500D01*
X248649Y372468D01*
X249047Y371507D01*
X249681Y370681D01*
X250507Y370047D01*
X250869Y369897D01*
Y360644D01*
X247661Y357437D01*
X244032D01*
X243881Y357875D01*
Y369794D01*
X244493Y370047D01*
X245319Y370681D01*
X245953Y371507D01*
X246351Y372468D01*
X246487Y373500D01*
X246351Y374532D01*
X245953Y375493D01*
X245319Y376319D01*
X244493Y376953D01*
X243532Y377351D01*
X242500Y377487D01*
X241468Y377351D01*
X240507Y376953D01*
X239681Y376319D01*
X239047Y375493D01*
X238649Y374532D01*
X238513Y373500D01*
X238649Y372468D01*
X239047Y371507D01*
X239681Y370681D01*
X240507Y370047D01*
X240619Y370001D01*
Y357109D01*
X240503Y357062D01*
X239883Y356586D01*
X239750Y356413D01*
X239250D01*
X239117Y356586D01*
X238497Y357062D01*
X237775Y357361D01*
X237500Y357397D01*
Y347603D01*
X237775Y347639D01*
X238497Y347938D01*
X239117Y348414D01*
X239250Y348587D01*
X239750D01*
X239883Y348414D01*
X240503Y347938D01*
X241225Y347639D01*
X242000Y347537D01*
X242775Y347639D01*
X243497Y347938D01*
X243583Y348005D01*
X244032Y347783D01*
Y347563D01*
X249969D01*
Y355130D01*
X253654Y358815D01*
X254007Y359344D01*
X254131Y359968D01*
Y369897D01*
X254493Y370047D01*
X255319Y370681D01*
X255953Y371507D01*
X256351Y372468D01*
X256487Y373500D01*
X256351Y374532D01*
X255953Y375493D01*
X255319Y376319D01*
X254493Y376953D01*
X253532Y377351D01*
X252500Y377487D01*
D02*
G37*
G36*
X236500Y357397D02*
X236225Y357361D01*
X235503Y357062D01*
X234883Y356586D01*
X234407Y355965D01*
X234108Y355243D01*
X234006Y354468D01*
Y353000D01*
X236500D01*
Y357397D01*
D02*
G37*
G36*
Y352000D02*
X234006D01*
Y350532D01*
X234108Y349757D01*
X234407Y349034D01*
X234883Y348414D01*
X235503Y347938D01*
X236225Y347639D01*
X236500Y347603D01*
Y352000D01*
D02*
G37*
G36*
X191453Y377453D02*
X188000D01*
Y374000D01*
X191453D01*
Y377453D01*
D02*
G37*
G36*
X187000D02*
X183547D01*
Y374000D01*
X187000D01*
Y377453D01*
D02*
G37*
G36*
X191453Y373000D02*
X188000D01*
Y369547D01*
X191453D01*
Y373000D01*
D02*
G37*
G36*
X187000D02*
X183547D01*
Y369547D01*
X187000D01*
Y373000D01*
D02*
G37*
G36*
X207500Y377487D02*
X206468Y377351D01*
X205507Y376953D01*
X204681Y376319D01*
X204047Y375493D01*
X203649Y374532D01*
X203513Y373500D01*
X203649Y372468D01*
X204047Y371507D01*
X204681Y370681D01*
X205507Y370047D01*
X205869Y369897D01*
Y360644D01*
X202661Y357437D01*
X199031D01*
X198881Y357875D01*
Y369794D01*
X199493Y370047D01*
X200319Y370681D01*
X200953Y371507D01*
X201351Y372468D01*
X201487Y373500D01*
X201351Y374532D01*
X200953Y375493D01*
X200319Y376319D01*
X199493Y376953D01*
X198532Y377351D01*
X197500Y377487D01*
X196468Y377351D01*
X195507Y376953D01*
X194681Y376319D01*
X194047Y375493D01*
X193649Y374532D01*
X193513Y373500D01*
X193649Y372468D01*
X194047Y371507D01*
X194681Y370681D01*
X195507Y370047D01*
X195619Y370001D01*
Y357109D01*
X195503Y357062D01*
X194883Y356586D01*
X194750Y356413D01*
X194250D01*
X194117Y356586D01*
X193497Y357062D01*
X192775Y357361D01*
X192500Y357397D01*
Y347603D01*
X192775Y347639D01*
X193497Y347938D01*
X194117Y348414D01*
X194250Y348587D01*
X194750D01*
X194883Y348414D01*
X195503Y347938D01*
X196225Y347639D01*
X197000Y347537D01*
X197775Y347639D01*
X198497Y347938D01*
X198583Y348005D01*
X199031Y347783D01*
Y347563D01*
X204969D01*
Y355130D01*
X208653Y358815D01*
X209007Y359344D01*
X209131Y359968D01*
Y369897D01*
X209493Y370047D01*
X210319Y370681D01*
X210953Y371507D01*
X211351Y372468D01*
X211487Y373500D01*
X211351Y374532D01*
X210953Y375493D01*
X210319Y376319D01*
X209493Y376953D01*
X208532Y377351D01*
X207500Y377487D01*
D02*
G37*
G36*
X191500Y357397D02*
X191225Y357361D01*
X190503Y357062D01*
X189883Y356586D01*
X189407Y355965D01*
X189108Y355243D01*
X189006Y354468D01*
Y353000D01*
X191500D01*
Y357397D01*
D02*
G37*
G36*
Y352000D02*
X189006D01*
Y350532D01*
X189108Y349757D01*
X189407Y349034D01*
X189883Y348414D01*
X190503Y347938D01*
X191225Y347639D01*
X191500Y347603D01*
Y352000D01*
D02*
G37*
G36*
X322602Y309485D02*
X321570Y309349D01*
X320608Y308951D01*
X319782Y308318D01*
X319149Y307492D01*
X318751Y306530D01*
X318615Y305499D01*
X318751Y304467D01*
X319149Y303505D01*
X319782Y302679D01*
X320608Y302046D01*
X321570Y301647D01*
X322602Y301512D01*
X323633Y301647D01*
X324595Y302046D01*
X325421Y302679D01*
X326054Y303505D01*
X326452Y304467D01*
X326588Y305499D01*
X326452Y306530D01*
X326054Y307492D01*
X325421Y308318D01*
X324595Y308951D01*
X323633Y309349D01*
X322602Y309485D01*
D02*
G37*
G36*
X273170Y308875D02*
X272201D01*
Y300576D01*
X273170D01*
Y308875D01*
D02*
G37*
G36*
X271201D02*
X270233D01*
Y300576D01*
X271201D01*
Y308875D01*
D02*
G37*
G36*
X269233D02*
X268265D01*
Y300576D01*
X269233D01*
Y308875D01*
D02*
G37*
G36*
X322602Y289485D02*
X321570Y289350D01*
X320608Y288951D01*
X319782Y288318D01*
X319149Y287492D01*
X318751Y286530D01*
X318615Y285498D01*
X318751Y284467D01*
X319149Y283505D01*
X319782Y282679D01*
X320608Y282046D01*
X321570Y281647D01*
X322602Y281512D01*
X323633Y281647D01*
X324595Y282046D01*
X325421Y282679D01*
X326054Y283505D01*
X326452Y284467D01*
X326588Y285498D01*
X326452Y286530D01*
X326054Y287492D01*
X325421Y288318D01*
X324595Y288951D01*
X323633Y289350D01*
X322602Y289485D01*
D02*
G37*
G36*
X210102Y309485D02*
X209070Y309349D01*
X208108Y308951D01*
X207282Y308318D01*
X206649Y307492D01*
X206251Y306530D01*
X206115Y305499D01*
X206251Y304467D01*
X206649Y303505D01*
X207282Y302679D01*
X208108Y302046D01*
X209070Y301647D01*
X210102Y301512D01*
X211133Y301647D01*
X212095Y302046D01*
X212921Y302679D01*
X213554Y303505D01*
X213952Y304467D01*
X214088Y305499D01*
X213952Y306530D01*
X213554Y307492D01*
X212921Y308318D01*
X212095Y308951D01*
X211133Y309349D01*
X210102Y309485D01*
D02*
G37*
G36*
X160670Y308875D02*
X159702D01*
Y300576D01*
X160670D01*
Y308875D01*
D02*
G37*
G36*
X158702D02*
X157733D01*
Y300576D01*
X158702D01*
Y308875D01*
D02*
G37*
G36*
X156733D02*
X155764D01*
Y300576D01*
X156733D01*
Y308875D01*
D02*
G37*
G36*
X210102Y289485D02*
X209070Y289350D01*
X208108Y288951D01*
X207282Y288318D01*
X206649Y287492D01*
X206251Y286530D01*
X206115Y285498D01*
X206251Y284467D01*
X206649Y283505D01*
X207282Y282679D01*
X208108Y282046D01*
X209070Y281647D01*
X210102Y281512D01*
X211133Y281647D01*
X212095Y282046D01*
X212921Y282679D01*
X213554Y283505D01*
X213952Y284467D01*
X214088Y285498D01*
X213952Y286530D01*
X213554Y287492D01*
X212921Y288318D01*
X212095Y288951D01*
X211133Y289350D01*
X210102Y289485D01*
D02*
G37*
G36*
X97601Y309485D02*
X96570Y309349D01*
X95608Y308951D01*
X94782Y308318D01*
X94149Y307492D01*
X93751Y306530D01*
X93615Y305499D01*
X93751Y304467D01*
X94149Y303505D01*
X94782Y302679D01*
X95608Y302046D01*
X96570Y301647D01*
X97601Y301512D01*
X98633Y301647D01*
X99595Y302046D01*
X100421Y302679D01*
X101054Y303505D01*
X101453Y304467D01*
X101588Y305499D01*
X101453Y306530D01*
X101054Y307492D01*
X100421Y308318D01*
X99595Y308951D01*
X98633Y309349D01*
X97601Y309485D01*
D02*
G37*
G36*
X48170Y308875D02*
X47201D01*
Y300576D01*
X48170D01*
Y308875D01*
D02*
G37*
G36*
X46202D02*
X45233D01*
Y300576D01*
X46202D01*
Y308875D01*
D02*
G37*
G36*
X44233D02*
X43264D01*
Y300576D01*
X44233D01*
Y308875D01*
D02*
G37*
G36*
X97601Y289485D02*
X96570Y289350D01*
X95608Y288951D01*
X94782Y288318D01*
X94149Y287492D01*
X93751Y286530D01*
X93615Y285498D01*
X93751Y284467D01*
X94149Y283505D01*
X94782Y282679D01*
X95608Y282046D01*
X96570Y281647D01*
X97601Y281512D01*
X98633Y281647D01*
X99595Y282046D01*
X100421Y282679D01*
X101054Y283505D01*
X101453Y284467D01*
X101588Y285498D01*
X101453Y286530D01*
X101054Y287492D01*
X100421Y288318D01*
X99595Y288951D01*
X98633Y289350D01*
X97601Y289485D01*
D02*
G37*
G36*
X243402Y309419D02*
X242870Y309349D01*
X241908Y308951D01*
X241082Y308318D01*
X240449Y307492D01*
X240051Y306530D01*
X239981Y305998D01*
X243402D01*
Y309419D01*
D02*
G37*
G36*
X235823Y304998D02*
X232401D01*
Y301577D01*
X232933Y301647D01*
X233895Y302046D01*
X234721Y302679D01*
X235354Y303505D01*
X235753Y304467D01*
X235823Y304998D01*
D02*
G37*
G36*
X130902Y309419D02*
X130370Y309349D01*
X129408Y308951D01*
X128582Y308318D01*
X127949Y307492D01*
X127550Y306530D01*
X127480Y305998D01*
X130902D01*
Y309419D01*
D02*
G37*
G36*
X123322Y304998D02*
X119902D01*
Y301577D01*
X120433Y301647D01*
X121395Y302046D01*
X122221Y302679D01*
X122854Y303505D01*
X123252Y304467D01*
X123322Y304998D01*
D02*
G37*
G36*
X18402Y309419D02*
X17870Y309349D01*
X16908Y308951D01*
X16082Y308318D01*
X15449Y307492D01*
X15051Y306530D01*
X14980Y305998D01*
X18402D01*
Y309419D01*
D02*
G37*
G36*
X10823Y304998D02*
X7401D01*
Y301577D01*
X7933Y301647D01*
X8895Y302046D01*
X9721Y302679D01*
X10354Y303505D01*
X10752Y304467D01*
X10823Y304998D01*
D02*
G37*
G36*
X376953Y301953D02*
X373500D01*
Y298500D01*
X376953D01*
Y301953D01*
D02*
G37*
G36*
X372500D02*
X369047D01*
Y298500D01*
X372500D01*
Y301953D01*
D02*
G37*
G36*
X376953Y297500D02*
X373500D01*
Y294047D01*
X376953D01*
Y297500D01*
D02*
G37*
G36*
X372500D02*
X369047D01*
Y294047D01*
X372500D01*
Y297500D01*
D02*
G37*
G36*
X353969Y296494D02*
X352500D01*
Y294000D01*
X356897D01*
X356861Y294275D01*
X356561Y294997D01*
X356086Y295617D01*
X355466Y296093D01*
X354743Y296392D01*
X353969Y296494D01*
D02*
G37*
G36*
X351500D02*
X350031D01*
X349257Y296392D01*
X348534Y296093D01*
X347914Y295617D01*
X347439Y294997D01*
X347139Y294275D01*
X347103Y294000D01*
X351500D01*
Y296494D01*
D02*
G37*
G36*
X356897Y293000D02*
X347103D01*
X347139Y292725D01*
X347439Y292003D01*
X347914Y291383D01*
X348087Y291250D01*
Y290750D01*
X347914Y290617D01*
X347439Y289997D01*
X347139Y289275D01*
X347037Y288500D01*
X347139Y287725D01*
X347439Y287003D01*
X347504Y286917D01*
X347283Y286469D01*
X347063D01*
Y280532D01*
X354630D01*
X358315Y276847D01*
X358844Y276493D01*
X359469Y276369D01*
X369397D01*
X369547Y276007D01*
X370181Y275181D01*
X371007Y274547D01*
X371968Y274149D01*
X373000Y274013D01*
X374032Y274149D01*
X374993Y274547D01*
X375819Y275181D01*
X376453Y276007D01*
X376851Y276968D01*
X376987Y278000D01*
X376851Y279032D01*
X376453Y279993D01*
X375819Y280819D01*
X374993Y281453D01*
X374032Y281851D01*
X373000Y281987D01*
X371968Y281851D01*
X371007Y281453D01*
X370181Y280819D01*
X369547Y279993D01*
X369397Y279631D01*
X360144D01*
X356937Y282839D01*
Y286469D01*
X357375Y286619D01*
X369294D01*
X369547Y286007D01*
X370181Y285181D01*
X371007Y284547D01*
X371968Y284149D01*
X373000Y284013D01*
X374032Y284149D01*
X374993Y284547D01*
X375819Y285181D01*
X376453Y286007D01*
X376851Y286968D01*
X376987Y288000D01*
X376851Y289032D01*
X376453Y289993D01*
X375819Y290819D01*
X374993Y291453D01*
X374032Y291851D01*
X373000Y291987D01*
X371968Y291851D01*
X371007Y291453D01*
X370181Y290819D01*
X369547Y289993D01*
X369501Y289881D01*
X356609D01*
X356561Y289997D01*
X356086Y290617D01*
X355912Y290750D01*
Y291250D01*
X356086Y291383D01*
X356561Y292003D01*
X356861Y292725D01*
X356897Y293000D01*
D02*
G37*
G36*
X376953Y256953D02*
X373500D01*
Y253500D01*
X376953D01*
Y256953D01*
D02*
G37*
G36*
X372500D02*
X369047D01*
Y253500D01*
X372500D01*
Y256953D01*
D02*
G37*
G36*
X376953Y252500D02*
X373500D01*
Y249047D01*
X376953D01*
Y252500D01*
D02*
G37*
G36*
X372500D02*
X369047D01*
Y249047D01*
X372500D01*
Y252500D01*
D02*
G37*
G36*
X353969Y251494D02*
X352500D01*
Y249000D01*
X356897D01*
X356861Y249275D01*
X356561Y249997D01*
X356086Y250617D01*
X355466Y251093D01*
X354743Y251392D01*
X353969Y251494D01*
D02*
G37*
G36*
X351500D02*
X350031D01*
X349257Y251392D01*
X348534Y251093D01*
X347914Y250617D01*
X347439Y249997D01*
X347139Y249275D01*
X347103Y249000D01*
X351500D01*
Y251494D01*
D02*
G37*
G36*
X356897Y248000D02*
X347103D01*
X347139Y247725D01*
X347439Y247003D01*
X347914Y246383D01*
X348087Y246250D01*
Y245750D01*
X347914Y245617D01*
X347439Y244997D01*
X347139Y244275D01*
X347037Y243500D01*
X347139Y242725D01*
X347439Y242003D01*
X347504Y241917D01*
X347283Y241469D01*
X347063D01*
Y235531D01*
X354630D01*
X358315Y231846D01*
X358844Y231493D01*
X359469Y231369D01*
X369397D01*
X369547Y231007D01*
X370181Y230181D01*
X371007Y229547D01*
X371968Y229149D01*
X373000Y229013D01*
X374032Y229149D01*
X374993Y229547D01*
X375819Y230181D01*
X376453Y231007D01*
X376851Y231968D01*
X376987Y233000D01*
X376851Y234032D01*
X376453Y234993D01*
X375819Y235819D01*
X374993Y236453D01*
X374032Y236851D01*
X373000Y236987D01*
X371968Y236851D01*
X371007Y236453D01*
X370181Y235819D01*
X369547Y234993D01*
X369397Y234631D01*
X360144D01*
X356937Y237839D01*
Y241469D01*
X357375Y241619D01*
X369294D01*
X369547Y241007D01*
X370181Y240181D01*
X371007Y239547D01*
X371968Y239149D01*
X373000Y239013D01*
X374032Y239149D01*
X374993Y239547D01*
X375819Y240181D01*
X376453Y241007D01*
X376851Y241968D01*
X376987Y243000D01*
X376851Y244032D01*
X376453Y244993D01*
X375819Y245819D01*
X374993Y246453D01*
X374032Y246851D01*
X373000Y246987D01*
X371968Y246851D01*
X371007Y246453D01*
X370181Y245819D01*
X369547Y244993D01*
X369501Y244881D01*
X356609D01*
X356561Y244997D01*
X356086Y245617D01*
X355912Y245750D01*
Y246250D01*
X356086Y246383D01*
X356561Y247003D01*
X356861Y247725D01*
X356897Y248000D01*
D02*
G37*
G36*
X322602Y196985D02*
X321570Y196850D01*
X320608Y196451D01*
X319782Y195818D01*
X319149Y194992D01*
X318751Y194030D01*
X318615Y192999D01*
X318751Y191967D01*
X319149Y191005D01*
X319782Y190179D01*
X320608Y189546D01*
X321570Y189147D01*
X322602Y189012D01*
X323633Y189147D01*
X324595Y189546D01*
X325421Y190179D01*
X326054Y191005D01*
X326452Y191967D01*
X326588Y192999D01*
X326452Y194030D01*
X326054Y194992D01*
X325421Y195818D01*
X324595Y196451D01*
X323633Y196850D01*
X322602Y196985D01*
D02*
G37*
G36*
X273170Y196375D02*
X272201D01*
Y188076D01*
X273170D01*
Y196375D01*
D02*
G37*
G36*
X271201D02*
X270233D01*
Y188076D01*
X271201D01*
Y196375D01*
D02*
G37*
G36*
X269233D02*
X268265D01*
Y188076D01*
X269233D01*
Y196375D01*
D02*
G37*
G36*
X322602Y176985D02*
X321570Y176849D01*
X320608Y176451D01*
X319782Y175818D01*
X319149Y174992D01*
X318751Y174030D01*
X318615Y172998D01*
X318751Y171967D01*
X319149Y171005D01*
X319782Y170179D01*
X320608Y169546D01*
X321570Y169148D01*
X322602Y169012D01*
X323633Y169148D01*
X324595Y169546D01*
X325421Y170179D01*
X326054Y171005D01*
X326452Y171967D01*
X326588Y172998D01*
X326452Y174030D01*
X326054Y174992D01*
X325421Y175818D01*
X324595Y176451D01*
X323633Y176849D01*
X322602Y176985D01*
D02*
G37*
G36*
X210102Y196985D02*
X209070Y196850D01*
X208108Y196451D01*
X207282Y195818D01*
X206649Y194992D01*
X206251Y194030D01*
X206115Y192999D01*
X206251Y191967D01*
X206649Y191005D01*
X207282Y190179D01*
X208108Y189546D01*
X209070Y189147D01*
X210102Y189012D01*
X211133Y189147D01*
X212095Y189546D01*
X212921Y190179D01*
X213554Y191005D01*
X213952Y191967D01*
X214088Y192999D01*
X213952Y194030D01*
X213554Y194992D01*
X212921Y195818D01*
X212095Y196451D01*
X211133Y196850D01*
X210102Y196985D01*
D02*
G37*
G36*
X160670Y196375D02*
X159702D01*
Y188076D01*
X160670D01*
Y196375D01*
D02*
G37*
G36*
X158702D02*
X157733D01*
Y188076D01*
X158702D01*
Y196375D01*
D02*
G37*
G36*
X156733D02*
X155764D01*
Y188076D01*
X156733D01*
Y196375D01*
D02*
G37*
G36*
X210102Y176985D02*
X209070Y176849D01*
X208108Y176451D01*
X207282Y175818D01*
X206649Y174992D01*
X206251Y174030D01*
X206115Y172998D01*
X206251Y171967D01*
X206649Y171005D01*
X207282Y170179D01*
X208108Y169546D01*
X209070Y169148D01*
X210102Y169012D01*
X211133Y169148D01*
X212095Y169546D01*
X212921Y170179D01*
X213554Y171005D01*
X213952Y171967D01*
X214088Y172998D01*
X213952Y174030D01*
X213554Y174992D01*
X212921Y175818D01*
X212095Y176451D01*
X211133Y176849D01*
X210102Y176985D01*
D02*
G37*
G36*
X97601Y196985D02*
X96570Y196850D01*
X95608Y196451D01*
X94782Y195818D01*
X94149Y194992D01*
X93751Y194030D01*
X93615Y192999D01*
X93751Y191967D01*
X94149Y191005D01*
X94782Y190179D01*
X95608Y189546D01*
X96570Y189147D01*
X97601Y189012D01*
X98633Y189147D01*
X99595Y189546D01*
X100421Y190179D01*
X101054Y191005D01*
X101453Y191967D01*
X101588Y192999D01*
X101453Y194030D01*
X101054Y194992D01*
X100421Y195818D01*
X99595Y196451D01*
X98633Y196850D01*
X97601Y196985D01*
D02*
G37*
G36*
X48170Y196375D02*
X47201D01*
Y188076D01*
X48170D01*
Y196375D01*
D02*
G37*
G36*
X46202D02*
X45233D01*
Y188076D01*
X46202D01*
Y196375D01*
D02*
G37*
G36*
X44233D02*
X43264D01*
Y188076D01*
X44233D01*
Y196375D01*
D02*
G37*
G36*
X97601Y176985D02*
X96570Y176849D01*
X95608Y176451D01*
X94782Y175818D01*
X94149Y174992D01*
X93751Y174030D01*
X93615Y172998D01*
X93751Y171967D01*
X94149Y171005D01*
X94782Y170179D01*
X95608Y169546D01*
X96570Y169148D01*
X97601Y169012D01*
X98633Y169148D01*
X99595Y169546D01*
X100421Y170179D01*
X101054Y171005D01*
X101453Y171967D01*
X101588Y172998D01*
X101453Y174030D01*
X101054Y174992D01*
X100421Y175818D01*
X99595Y176451D01*
X98633Y176849D01*
X97601Y176985D01*
D02*
G37*
G36*
X243402Y196920D02*
X242870Y196850D01*
X241908Y196451D01*
X241082Y195818D01*
X240449Y194992D01*
X240051Y194030D01*
X239981Y193499D01*
X243402D01*
Y196920D01*
D02*
G37*
G36*
X235823Y192499D02*
X232401D01*
Y189077D01*
X232933Y189147D01*
X233895Y189546D01*
X234721Y190179D01*
X235354Y191005D01*
X235753Y191967D01*
X235823Y192499D01*
D02*
G37*
G36*
X130902Y196920D02*
X130370Y196850D01*
X129408Y196451D01*
X128582Y195818D01*
X127949Y194992D01*
X127550Y194030D01*
X127480Y193499D01*
X130902D01*
Y196920D01*
D02*
G37*
G36*
X123322Y192499D02*
X119902D01*
Y189077D01*
X120433Y189147D01*
X121395Y189546D01*
X122221Y190179D01*
X122854Y191005D01*
X123252Y191967D01*
X123322Y192499D01*
D02*
G37*
G36*
X18402Y196920D02*
X17870Y196850D01*
X16908Y196451D01*
X16082Y195818D01*
X15449Y194992D01*
X15051Y194030D01*
X14980Y193499D01*
X18402D01*
Y196920D01*
D02*
G37*
G36*
X10823Y192499D02*
X7401D01*
Y189077D01*
X7933Y189147D01*
X8895Y189546D01*
X9721Y190179D01*
X10354Y191005D01*
X10752Y191967D01*
X10823Y192499D01*
D02*
G37*
G36*
X376953Y211953D02*
X373500D01*
Y208500D01*
X376953D01*
Y211953D01*
D02*
G37*
G36*
X372500D02*
X369047D01*
Y208500D01*
X372500D01*
Y211953D01*
D02*
G37*
G36*
X376953Y207500D02*
X373500D01*
Y204047D01*
X376953D01*
Y207500D01*
D02*
G37*
G36*
X372500D02*
X369047D01*
Y204047D01*
X372500D01*
Y207500D01*
D02*
G37*
G36*
X353969Y206494D02*
X352500D01*
Y204000D01*
X356897D01*
X356861Y204275D01*
X356561Y204997D01*
X356086Y205617D01*
X355466Y206093D01*
X354743Y206392D01*
X353969Y206494D01*
D02*
G37*
G36*
X351500D02*
X350031D01*
X349257Y206392D01*
X348534Y206093D01*
X347914Y205617D01*
X347439Y204997D01*
X347139Y204275D01*
X347103Y204000D01*
X351500D01*
Y206494D01*
D02*
G37*
G36*
X356897Y203000D02*
X347103D01*
X347139Y202725D01*
X347439Y202003D01*
X347914Y201383D01*
X348087Y201250D01*
Y200750D01*
X347914Y200617D01*
X347439Y199997D01*
X347139Y199275D01*
X347037Y198500D01*
X347139Y197725D01*
X347439Y197003D01*
X347504Y196917D01*
X347283Y196468D01*
X347063D01*
Y190532D01*
X354630D01*
X358315Y186846D01*
X358844Y186493D01*
X359469Y186369D01*
X369397D01*
X369547Y186007D01*
X370181Y185181D01*
X371007Y184547D01*
X371968Y184149D01*
X373000Y184013D01*
X374032Y184149D01*
X374993Y184547D01*
X375819Y185181D01*
X376453Y186007D01*
X376851Y186968D01*
X376987Y188000D01*
X376851Y189032D01*
X376453Y189993D01*
X375819Y190819D01*
X374993Y191453D01*
X374032Y191851D01*
X373000Y191987D01*
X371968Y191851D01*
X371007Y191453D01*
X370181Y190819D01*
X369547Y189993D01*
X369397Y189631D01*
X360144D01*
X356937Y192839D01*
Y196468D01*
X357375Y196619D01*
X369294D01*
X369547Y196007D01*
X370181Y195181D01*
X371007Y194547D01*
X371968Y194149D01*
X373000Y194013D01*
X374032Y194149D01*
X374993Y194547D01*
X375819Y195181D01*
X376453Y196007D01*
X376851Y196968D01*
X376987Y198000D01*
X376851Y199032D01*
X376453Y199993D01*
X375819Y200819D01*
X374993Y201453D01*
X374032Y201851D01*
X373000Y201987D01*
X371968Y201851D01*
X371007Y201453D01*
X370181Y200819D01*
X369547Y199993D01*
X369501Y199881D01*
X356609D01*
X356561Y199997D01*
X356086Y200617D01*
X355912Y200750D01*
Y201250D01*
X356086Y201383D01*
X356561Y202003D01*
X356861Y202725D01*
X356897Y203000D01*
D02*
G37*
G36*
X322602Y84485D02*
X321570Y84350D01*
X320608Y83951D01*
X319782Y83318D01*
X319149Y82492D01*
X318751Y81530D01*
X318615Y80498D01*
X318751Y79467D01*
X319149Y78505D01*
X319782Y77679D01*
X320608Y77046D01*
X321570Y76648D01*
X322602Y76512D01*
X323633Y76648D01*
X324595Y77046D01*
X325421Y77679D01*
X326054Y78505D01*
X326452Y79467D01*
X326588Y80498D01*
X326452Y81530D01*
X326054Y82492D01*
X325421Y83318D01*
X324595Y83951D01*
X323633Y84350D01*
X322602Y84485D01*
D02*
G37*
G36*
X273170Y83875D02*
X272201D01*
Y75576D01*
X273170D01*
Y83875D01*
D02*
G37*
G36*
X271201D02*
X270233D01*
Y75576D01*
X271201D01*
Y83875D01*
D02*
G37*
G36*
X269233D02*
X268265D01*
Y75576D01*
X269233D01*
Y83875D01*
D02*
G37*
G36*
X322602Y64485D02*
X321570Y64350D01*
X320608Y63951D01*
X319782Y63318D01*
X319149Y62492D01*
X318751Y61530D01*
X318615Y60498D01*
X318751Y59467D01*
X319149Y58505D01*
X319782Y57679D01*
X320608Y57046D01*
X321570Y56647D01*
X322602Y56512D01*
X323633Y56647D01*
X324595Y57046D01*
X325421Y57679D01*
X326054Y58505D01*
X326452Y59467D01*
X326588Y60498D01*
X326452Y61530D01*
X326054Y62492D01*
X325421Y63318D01*
X324595Y63951D01*
X323633Y64350D01*
X322602Y64485D01*
D02*
G37*
G36*
X210102Y84485D02*
X209070Y84350D01*
X208108Y83951D01*
X207282Y83318D01*
X206649Y82492D01*
X206251Y81530D01*
X206115Y80498D01*
X206251Y79467D01*
X206649Y78505D01*
X207282Y77679D01*
X208108Y77046D01*
X209070Y76648D01*
X210102Y76512D01*
X211133Y76648D01*
X212095Y77046D01*
X212921Y77679D01*
X213554Y78505D01*
X213952Y79467D01*
X214088Y80498D01*
X213952Y81530D01*
X213554Y82492D01*
X212921Y83318D01*
X212095Y83951D01*
X211133Y84350D01*
X210102Y84485D01*
D02*
G37*
G36*
X160670Y83875D02*
X159702D01*
Y75576D01*
X160670D01*
Y83875D01*
D02*
G37*
G36*
X158702D02*
X157733D01*
Y75576D01*
X158702D01*
Y83875D01*
D02*
G37*
G36*
X156733D02*
X155764D01*
Y75576D01*
X156733D01*
Y83875D01*
D02*
G37*
G36*
X210102Y64485D02*
X209070Y64350D01*
X208108Y63951D01*
X207282Y63318D01*
X206649Y62492D01*
X206251Y61530D01*
X206115Y60498D01*
X206251Y59467D01*
X206649Y58505D01*
X207282Y57679D01*
X208108Y57046D01*
X209070Y56647D01*
X210102Y56512D01*
X211133Y56647D01*
X212095Y57046D01*
X212921Y57679D01*
X213554Y58505D01*
X213952Y59467D01*
X214088Y60498D01*
X213952Y61530D01*
X213554Y62492D01*
X212921Y63318D01*
X212095Y63951D01*
X211133Y64350D01*
X210102Y64485D01*
D02*
G37*
G36*
X97601Y84485D02*
X96570Y84350D01*
X95608Y83951D01*
X94782Y83318D01*
X94149Y82492D01*
X93751Y81530D01*
X93615Y80498D01*
X93751Y79467D01*
X94149Y78505D01*
X94782Y77679D01*
X95608Y77046D01*
X96570Y76648D01*
X97601Y76512D01*
X98633Y76648D01*
X99595Y77046D01*
X100421Y77679D01*
X101054Y78505D01*
X101453Y79467D01*
X101588Y80498D01*
X101453Y81530D01*
X101054Y82492D01*
X100421Y83318D01*
X99595Y83951D01*
X98633Y84350D01*
X97601Y84485D01*
D02*
G37*
G36*
X48170Y83875D02*
X47201D01*
Y75576D01*
X48170D01*
Y83875D01*
D02*
G37*
G36*
X46202D02*
X45233D01*
Y75576D01*
X46202D01*
Y83875D01*
D02*
G37*
G36*
X44233D02*
X43264D01*
Y75576D01*
X44233D01*
Y83875D01*
D02*
G37*
G36*
X97601Y64485D02*
X96570Y64350D01*
X95608Y63951D01*
X94782Y63318D01*
X94149Y62492D01*
X93751Y61530D01*
X93615Y60498D01*
X93751Y59467D01*
X94149Y58505D01*
X94782Y57679D01*
X95608Y57046D01*
X96570Y56647D01*
X97601Y56512D01*
X98633Y56647D01*
X99595Y57046D01*
X100421Y57679D01*
X101054Y58505D01*
X101453Y59467D01*
X101588Y60498D01*
X101453Y61530D01*
X101054Y62492D01*
X100421Y63318D01*
X99595Y63951D01*
X98633Y64350D01*
X97601Y64485D01*
D02*
G37*
G36*
X243402Y84420D02*
X242870Y84350D01*
X241908Y83951D01*
X241082Y83318D01*
X240449Y82492D01*
X240051Y81530D01*
X239981Y80998D01*
X243402D01*
Y84420D01*
D02*
G37*
G36*
X235823Y79998D02*
X232401D01*
Y76578D01*
X232933Y76648D01*
X233895Y77046D01*
X234721Y77679D01*
X235354Y78505D01*
X235753Y79467D01*
X235823Y79998D01*
D02*
G37*
G36*
X130902Y84420D02*
X130370Y84350D01*
X129408Y83951D01*
X128582Y83318D01*
X127949Y82492D01*
X127550Y81530D01*
X127480Y80998D01*
X130902D01*
Y84420D01*
D02*
G37*
G36*
X123322Y79998D02*
X119902D01*
Y76578D01*
X120433Y76648D01*
X121395Y77046D01*
X122221Y77679D01*
X122854Y78505D01*
X123252Y79467D01*
X123322Y79998D01*
D02*
G37*
G36*
X18402Y84420D02*
X17870Y84350D01*
X16908Y83951D01*
X16082Y83318D01*
X15449Y82492D01*
X15051Y81530D01*
X14980Y80998D01*
X18402D01*
Y84420D01*
D02*
G37*
G36*
X10823Y79998D02*
X7401D01*
Y76578D01*
X7933Y76648D01*
X8895Y77046D01*
X9721Y77679D01*
X10354Y78505D01*
X10752Y79467D01*
X10823Y79998D01*
D02*
G37*
%LPD*%
D10*
X31721Y364347D02*
D03*
X37035D02*
D03*
X87697D02*
D03*
X93012D02*
D03*
X143673D02*
D03*
X148988D02*
D03*
D11*
X16941Y361530D02*
D03*
X22059D02*
D03*
X37059Y357000D02*
D03*
X31941D02*
D03*
X72917Y361530D02*
D03*
X78035D02*
D03*
X93035Y357000D02*
D03*
X87917D02*
D03*
X128894Y361530D02*
D03*
X134012D02*
D03*
X149012Y357000D02*
D03*
X143894D02*
D03*
D12*
X21291Y347374D02*
D03*
Y343437D02*
D03*
Y339500D02*
D03*
X32709D02*
D03*
Y343437D02*
D03*
Y347374D02*
D03*
X77268D02*
D03*
Y343437D02*
D03*
Y339500D02*
D03*
X88685D02*
D03*
Y343437D02*
D03*
Y347374D02*
D03*
X133244D02*
D03*
Y343437D02*
D03*
Y339500D02*
D03*
X144661D02*
D03*
Y343437D02*
D03*
Y347374D02*
D03*
D13*
X27000Y343437D02*
D03*
X82976D02*
D03*
X138953D02*
D03*
D14*
X29000Y374198D02*
X28841Y374039D01*
Y360592D01*
X31941Y357492D01*
X37035Y371262D02*
Y364347D01*
X39000Y373227D02*
X37035Y371262D01*
X39000Y374198D02*
Y373227D01*
X22059Y370838D02*
Y361530D01*
X19000Y373897D02*
X22059Y370838D01*
X19000Y374198D02*
Y373897D01*
X22059Y361530D02*
Y347760D01*
X31941Y357492D02*
Y347760D01*
X32709Y343437D02*
X35073D01*
X37059Y345423D02*
X35073Y343437D01*
X37059Y357000D02*
Y345423D01*
X21291Y347374D02*
X21673D01*
X22059Y347760D02*
X21673Y347374D01*
X37035Y364347D02*
X37047Y364335D01*
Y357012D01*
X37059Y357000D01*
X32327Y347374D02*
X32709D01*
X31941Y347760D02*
X32327Y347374D01*
X84976Y374198D02*
X84817Y374039D01*
Y360592D01*
X87917Y357492D01*
X93012Y371262D02*
Y364347D01*
X94976Y373227D02*
X93012Y371262D01*
X94976Y374198D02*
Y373227D01*
X78035Y370838D02*
Y361530D01*
X74976Y373897D02*
X78035Y370838D01*
X74976Y374198D02*
Y373897D01*
X78035Y361530D02*
Y347760D01*
X87917Y357492D02*
Y347760D01*
X88685Y343437D02*
X91050D01*
X93035Y345423D02*
X91050Y343437D01*
X93035Y357000D02*
Y345423D01*
X77268Y347374D02*
X77650D01*
X78035Y347760D02*
X77650Y347374D01*
X93012Y364347D02*
X93024Y364335D01*
Y357012D01*
X93035Y357000D01*
X88303Y347374D02*
X88685D01*
X87917Y347760D02*
X88303Y347374D01*
X140953Y374198D02*
X140794Y374039D01*
Y360592D01*
X143894Y357492D01*
X148988Y371262D02*
Y364347D01*
X150953Y373227D02*
X148988Y371262D01*
X150953Y374198D02*
Y373227D01*
X134012Y370838D02*
Y361530D01*
X130953Y373897D02*
X134012Y370838D01*
X130953Y374198D02*
Y373897D01*
X134012Y361530D02*
Y347760D01*
X143894Y357492D02*
Y347760D01*
X144661Y343437D02*
X147026D01*
X149012Y345423D02*
X147026Y343437D01*
X149012Y357000D02*
Y345423D01*
X133244Y347374D02*
X133626D01*
X134012Y347760D02*
X133626Y347374D01*
X148988Y364347D02*
X149000Y364335D01*
Y357012D01*
X149012Y357000D01*
X144280Y347374D02*
X144661D01*
X143894Y347760D02*
X144280Y347374D01*
X352250Y288250D02*
X352000Y288500D01*
X372750Y288250D02*
X352250D01*
X373000Y288000D02*
X372750Y288250D01*
X353969Y283500D02*
X352000D01*
X359469Y278000D02*
X353969Y283500D01*
X373000Y278000D02*
X359469D01*
X352250Y243250D02*
X352000Y243500D01*
X372750Y243250D02*
X352250D01*
X373000Y243000D02*
X372750Y243250D01*
X353969Y238500D02*
X352000D01*
X359469Y233000D02*
X353969Y238500D01*
X373000Y233000D02*
X359469D01*
X352250Y198250D02*
X352000Y198500D01*
X372750Y198250D02*
X352250D01*
X373000Y198000D02*
X372750Y198250D01*
X353969Y193500D02*
X352000D01*
X359469Y188000D02*
X353969Y193500D01*
X373000Y188000D02*
X359469D01*
X197250Y352750D02*
X197000Y352500D01*
X197250Y373250D02*
Y352750D01*
X197500Y373500D02*
X197250Y373250D01*
X202000Y354468D02*
Y352500D01*
X207500Y359968D02*
X202000Y354468D01*
X207500Y373500D02*
Y359968D01*
X242250Y352750D02*
X242000Y352500D01*
X242250Y373250D02*
Y352750D01*
X242500Y373500D02*
X242250Y373250D01*
X247000Y354468D02*
Y352500D01*
X252500Y359968D02*
X247000Y354468D01*
X252500Y373500D02*
Y359968D01*
X287250Y352750D02*
X287000Y352500D01*
X287250Y373250D02*
Y352750D01*
X287500Y373500D02*
X287250Y373250D01*
X292000Y354468D02*
Y352500D01*
X297500Y359968D02*
X292000Y354468D01*
X297500Y373500D02*
Y359968D01*
X332250Y352750D02*
X332000Y352500D01*
X332250Y373250D02*
Y352750D01*
X332500Y373500D02*
X332250Y373250D01*
X337000Y354468D02*
Y352500D01*
X342500Y359968D02*
X337000Y354468D01*
X342500Y373500D02*
Y359968D01*
D15*
X16617Y361854D02*
X16941Y361530D01*
X13000Y361854D02*
X16617D01*
X16941Y361530D02*
Y361038D01*
X72593Y361854D02*
X72917Y361530D01*
X68976Y361854D02*
X72593D01*
X72917Y361530D02*
Y361038D01*
X128570Y361854D02*
X128894Y361530D01*
X124953Y361854D02*
X128570D01*
X128894Y361530D02*
Y361038D01*
X52622Y318883D02*
X52576Y318837D01*
X78401Y302098D02*
Y280698D01*
X78802Y280298D01*
X38827Y289525D02*
X19501Y270198D01*
X38827Y297899D02*
Y289525D01*
X27152Y287148D02*
X18001Y277998D01*
X35952Y317148D02*
Y313774D01*
X40765Y318837D02*
Y314262D01*
X39702Y313198D01*
X36527D02*
X39702D01*
X35002Y318098D02*
X35952Y317148D01*
Y313774D02*
X36527Y313198D01*
X30101Y318098D02*
X35002D01*
X30101D02*
X27152Y315148D01*
Y287148D01*
X10502Y285498D02*
X18001Y277998D01*
X6901Y285498D02*
X10502D01*
X6901Y265498D02*
X34701D01*
X39002Y261198D01*
X38827Y304725D02*
Y297899D01*
X36527Y295599D01*
X34001D02*
X36527D01*
X19501Y296098D02*
X18902Y295498D01*
X11902Y300499D02*
X6901Y295498D01*
X11902Y300499D02*
X21902D01*
X24102Y302698D02*
X21902Y300499D01*
X29239Y323336D02*
X19702Y313798D01*
Y314699D02*
Y313798D01*
X4702Y311399D02*
X9102D01*
X22901Y325199D02*
X42585D01*
X22901D02*
X9102Y311399D01*
X75602Y275499D02*
X97601D01*
X72702Y299798D02*
Y278398D01*
X75602Y275499D01*
X68602Y303899D02*
X72702Y299798D01*
X68602Y317198D02*
Y303899D01*
X78401Y316699D02*
Y302098D01*
X84702Y295798D01*
X53702Y324199D02*
X70902D01*
X78401Y316699D01*
X83101Y317399D02*
Y309198D01*
X52002Y325998D02*
X74502D01*
X83101Y317399D01*
X66702Y315999D02*
Y278499D01*
X79702Y265498D02*
X97601D01*
X66702Y278499D02*
X79702Y265498D01*
X2201Y308898D02*
Y266299D01*
X4702Y311399D02*
X2201Y308898D01*
X3001Y265498D02*
X6901D01*
X2201Y266299D02*
X3001Y265498D01*
X38797Y318929D02*
Y318837D01*
X24102Y315599D02*
Y302698D01*
X28901Y320398D02*
X24102Y315599D01*
X54801Y321698D02*
X66802D01*
X54801D02*
X54501Y321398D01*
X54576Y321324D01*
Y318899D01*
X56544Y304725D02*
Y298241D01*
X55301Y296999D01*
X52607Y299693D02*
X54576Y297725D01*
Y304725D02*
Y297725D01*
X52607Y304725D02*
Y299693D01*
X73001Y315498D02*
Y310799D01*
X66802Y321698D02*
X73001Y315498D01*
X84702Y295798D02*
X96702D01*
X97001Y295498D01*
X65901Y316798D02*
X66702Y315999D01*
X61285Y316798D02*
X65901D01*
X61285D02*
X60375Y315889D01*
Y313772D01*
X57902Y311298D01*
X48601D02*
X57902D01*
X46701Y313198D02*
X48601Y311298D01*
X46701Y318899D02*
Y313198D01*
X67202Y318599D02*
X68602Y317198D01*
X60401Y318599D02*
X67202D01*
X60401D02*
X58422Y316619D01*
Y314819D01*
X57701Y314099D01*
X49202D02*
X57701D01*
X48670Y314630D02*
X49202Y314099D01*
X48670Y318899D02*
Y314630D01*
X53702Y324199D02*
X52607Y323104D01*
Y318899D01*
X52002Y325998D02*
X50639Y324636D01*
Y318899D01*
X42585Y325199D02*
X44642Y323141D01*
Y318989D01*
X44733Y318899D01*
X28901Y320398D02*
X37328D01*
X29239Y323336D02*
X41920D01*
X42674Y322581D01*
Y318989D01*
X42764Y318899D01*
X37328Y320398D02*
X38797Y318929D01*
X38827Y318899D01*
X52622Y206383D02*
X52576Y206337D01*
X78401Y189599D02*
Y168199D01*
X78802Y167798D01*
X38827Y177024D02*
X19501Y157699D01*
X38827Y185398D02*
Y177024D01*
X27152Y174648D02*
X18001Y165498D01*
X35952Y204648D02*
Y201274D01*
X40765Y206337D02*
Y201762D01*
X39702Y200698D01*
X36527D02*
X39702D01*
X35002Y205598D02*
X35952Y204648D01*
Y201274D02*
X36527Y200698D01*
X30101Y205598D02*
X35002D01*
X30101D02*
X27152Y202648D01*
Y174648D01*
X10502Y172998D02*
X18001Y165498D01*
X6901Y172998D02*
X10502D01*
X6901Y152998D02*
X34701D01*
X39002Y148698D01*
X38827Y192225D02*
Y185398D01*
X36527Y183098D01*
X34001D02*
X36527D01*
X19501Y183598D02*
X18902Y182999D01*
X11902Y187998D02*
X6901Y182999D01*
X11902Y187998D02*
X21902D01*
X24102Y190199D02*
X21902Y187998D01*
X29239Y210836D02*
X19702Y201298D01*
Y202199D02*
Y201298D01*
X4702Y198898D02*
X9102D01*
X22901Y212699D02*
X42585D01*
X22901D02*
X9102Y198898D01*
X75602Y162998D02*
X97601D01*
X72702Y187299D02*
Y165899D01*
X75602Y162998D01*
X68602Y191399D02*
X72702Y187299D01*
X68602Y204698D02*
Y191399D01*
X78401Y204199D02*
Y189599D01*
X84702Y183299D01*
X53702Y211699D02*
X70902D01*
X78401Y204199D01*
X83101Y204899D02*
Y196698D01*
X52002Y213498D02*
X74502D01*
X83101Y204899D01*
X66702Y203499D02*
Y165998D01*
X79702Y152998D02*
X97601D01*
X66702Y165998D02*
X79702Y152998D01*
X2201Y196398D02*
Y153798D01*
X4702Y198898D02*
X2201Y196398D01*
X3001Y152998D02*
X6901D01*
X2201Y153798D02*
X3001Y152998D01*
X38797Y206429D02*
Y206337D01*
X24102Y203099D02*
Y190199D01*
X28901Y207898D02*
X24102Y203099D01*
X54801Y209198D02*
X66802D01*
X54801D02*
X54501Y208898D01*
X54576Y208824D01*
Y206399D01*
X56544Y192225D02*
Y185741D01*
X55301Y184499D01*
X52607Y187193D02*
X54576Y185224D01*
Y192225D02*
Y185224D01*
X52607Y192225D02*
Y187193D01*
X73001Y202998D02*
Y198299D01*
X66802Y209198D02*
X73001Y202998D01*
X84702Y183299D02*
X96702D01*
X97001Y182999D01*
X65901Y204298D02*
X66702Y203499D01*
X61285Y204298D02*
X65901D01*
X61285D02*
X60375Y203388D01*
Y201272D01*
X57902Y198799D01*
X48601D02*
X57902D01*
X46701Y200698D02*
X48601Y198799D01*
X46701Y206399D02*
Y200698D01*
X67202Y206099D02*
X68602Y204698D01*
X60401Y206099D02*
X67202D01*
X60401D02*
X58422Y204119D01*
Y202319D01*
X57701Y201599D01*
X49202D02*
X57701D01*
X48670Y202130D02*
X49202Y201599D01*
X48670Y206399D02*
Y202130D01*
X53702Y211699D02*
X52607Y210604D01*
Y206399D01*
X52002Y213498D02*
X50639Y212136D01*
Y206399D01*
X42585Y212699D02*
X44642Y210641D01*
Y206489D01*
X44733Y206399D01*
X28901Y207898D02*
X37328D01*
X29239Y210836D02*
X41920D01*
X42674Y210081D01*
Y206489D01*
X42764Y206399D01*
X37328Y207898D02*
X38797Y206429D01*
X38827Y206399D01*
X52622Y93883D02*
X52576Y93837D01*
X78401Y77099D02*
Y55699D01*
X78802Y55299D01*
X38827Y64525D02*
X19501Y45199D01*
X38827Y72899D02*
Y64525D01*
X27152Y62148D02*
X18001Y52999D01*
X35952Y92149D02*
Y88775D01*
X40765Y93837D02*
Y89262D01*
X39702Y88199D01*
X36527D02*
X39702D01*
X35002Y93098D02*
X35952Y92149D01*
Y88775D02*
X36527Y88199D01*
X30101Y93098D02*
X35002D01*
X30101D02*
X27152Y90149D01*
Y62148D01*
X10502Y60498D02*
X18001Y52999D01*
X6901Y60498D02*
X10502D01*
X6901Y40499D02*
X34701D01*
X39002Y36198D01*
X38827Y79725D02*
Y72899D01*
X36527Y70599D01*
X34001D02*
X36527D01*
X19501Y71099D02*
X18902Y70499D01*
X11902Y75498D02*
X6901Y70499D01*
X11902Y75498D02*
X21902D01*
X24102Y77698D02*
X21902Y75498D01*
X29239Y98335D02*
X19702Y88798D01*
Y89698D02*
Y88798D01*
X4702Y86399D02*
X9102D01*
X22901Y100198D02*
X42585D01*
X22901D02*
X9102Y86399D01*
X75602Y50498D02*
X97601D01*
X72702Y74799D02*
Y53399D01*
X75602Y50498D01*
X68602Y78899D02*
X72702Y74799D01*
X68602Y92198D02*
Y78899D01*
X78401Y91698D02*
Y77099D01*
X84702Y70798D01*
X53702Y99199D02*
X70902D01*
X78401Y91698D01*
X83101Y92399D02*
Y84198D01*
X52002Y100998D02*
X74502D01*
X83101Y92399D01*
X66702Y90999D02*
Y53499D01*
X79702Y40499D02*
X97601D01*
X66702Y53499D02*
X79702Y40499D01*
X2201Y83899D02*
Y41298D01*
X4702Y86399D02*
X2201Y83899D01*
X3001Y40499D02*
X6901D01*
X2201Y41298D02*
X3001Y40499D01*
X38797Y93929D02*
Y93837D01*
X24102Y90598D02*
Y77698D01*
X28901Y95398D02*
X24102Y90598D01*
X54801Y96698D02*
X66802D01*
X54801D02*
X54501Y96399D01*
X54576Y96324D01*
Y93898D01*
X56544Y79725D02*
Y73241D01*
X55301Y71999D01*
X52607Y74693D02*
X54576Y72724D01*
Y79725D02*
Y72724D01*
X52607Y79725D02*
Y74693D01*
X73001Y90499D02*
Y85799D01*
X66802Y96698D02*
X73001Y90499D01*
X84702Y70798D02*
X96702D01*
X97001Y70499D01*
X65901Y91799D02*
X66702Y90999D01*
X61285Y91799D02*
X65901D01*
X61285D02*
X60375Y90889D01*
Y88772D01*
X57902Y86299D01*
X48601D02*
X57902D01*
X46701Y88199D02*
X48601Y86299D01*
X46701Y93898D02*
Y88199D01*
X67202Y93599D02*
X68602Y92198D01*
X60401Y93599D02*
X67202D01*
X60401D02*
X58422Y91619D01*
Y89819D01*
X57701Y89099D01*
X49202D02*
X57701D01*
X48670Y89630D02*
X49202Y89099D01*
X48670Y93898D02*
Y89630D01*
X53702Y99199D02*
X52607Y98104D01*
Y93898D01*
X52002Y100998D02*
X50639Y99635D01*
Y93898D01*
X42585Y100198D02*
X44642Y98141D01*
Y93989D01*
X44733Y93898D01*
X28901Y95398D02*
X37328D01*
X29239Y98335D02*
X41920D01*
X42674Y97581D01*
Y93989D01*
X42764Y93898D01*
X37328Y95398D02*
X38797Y93929D01*
X38827Y93898D01*
X165122Y318883D02*
X165076Y318837D01*
X190902Y302098D02*
Y280698D01*
X191302Y280298D01*
X151328Y289525D02*
X132001Y270198D01*
X151328Y297899D02*
Y289525D01*
X139652Y287148D02*
X130501Y277998D01*
X148451Y317148D02*
Y313774D01*
X153265Y318837D02*
Y314262D01*
X152201Y313198D01*
X149028D02*
X152201D01*
X147502Y318098D02*
X148451Y317148D01*
Y313774D02*
X149028Y313198D01*
X142602Y318098D02*
X147502D01*
X142602D02*
X139652Y315148D01*
Y287148D01*
X123002Y285498D02*
X130501Y277998D01*
X119402Y285498D02*
X123002D01*
X119402Y265498D02*
X147202D01*
X151502Y261198D01*
X151328Y304725D02*
Y297899D01*
X149028Y295599D01*
X146502D02*
X149028D01*
X132001Y296098D02*
X131402Y295498D01*
X124401Y300499D02*
X119402Y295498D01*
X124401Y300499D02*
X134402D01*
X136601Y302698D02*
X134402Y300499D01*
X141738Y323336D02*
X132202Y313798D01*
Y314699D02*
Y313798D01*
X117201Y311399D02*
X121601D01*
X135401Y325199D02*
X155085D01*
X135401D02*
X121601Y311399D01*
X188101Y275499D02*
X210102D01*
X185202Y299798D02*
Y278398D01*
X188101Y275499D01*
X181102Y303899D02*
X185202Y299798D01*
X181102Y317198D02*
Y303899D01*
X190902Y316699D02*
Y302098D01*
X197202Y295798D01*
X166201Y324199D02*
X183402D01*
X190902Y316699D01*
X195601Y317399D02*
Y309198D01*
X164502Y325998D02*
X187002D01*
X195601Y317399D01*
X179201Y315999D02*
Y278499D01*
X192201Y265498D02*
X210102D01*
X179201Y278499D02*
X192201Y265498D01*
X114701Y308898D02*
Y266299D01*
X117201Y311399D02*
X114701Y308898D01*
X115501Y265498D02*
X119402D01*
X114701Y266299D02*
X115501Y265498D01*
X151297Y318929D02*
Y318837D01*
X136601Y315599D02*
Y302698D01*
X141402Y320398D02*
X136601Y315599D01*
X167301Y321698D02*
X179302D01*
X167301D02*
X167001Y321398D01*
X167076Y321324D01*
Y318899D01*
X169044Y304725D02*
Y298241D01*
X167801Y296999D01*
X165107Y299693D02*
X167076Y297725D01*
Y304725D02*
Y297725D01*
X165107Y304725D02*
Y299693D01*
X185502Y315498D02*
Y310799D01*
X179302Y321698D02*
X185502Y315498D01*
X197202Y295798D02*
X209202D01*
X209502Y295498D01*
X178402Y316798D02*
X179201Y315999D01*
X173785Y316798D02*
X178402D01*
X173785D02*
X172875Y315889D01*
Y313772D01*
X170402Y311298D01*
X161101D02*
X170402D01*
X159202Y313198D02*
X161101Y311298D01*
X159202Y318899D02*
Y313198D01*
X179701Y318599D02*
X181102Y317198D01*
X172901Y318599D02*
X179701D01*
X172901D02*
X170922Y316619D01*
Y314819D01*
X170202Y314099D01*
X161702D02*
X170202D01*
X161170Y314630D02*
X161702Y314099D01*
X161170Y318899D02*
Y314630D01*
X166201Y324199D02*
X165107Y323104D01*
Y318899D01*
X164502Y325998D02*
X163138Y324636D01*
Y318899D01*
X155085Y325199D02*
X157142Y323141D01*
Y318989D01*
X157233Y318899D01*
X141402Y320398D02*
X149828D01*
X141738Y323336D02*
X154420D01*
X155174Y322581D01*
Y318989D01*
X155264Y318899D01*
X149828Y320398D02*
X151297Y318929D01*
X151328Y318899D01*
X165122Y206383D02*
X165076Y206337D01*
X190902Y189599D02*
Y168199D01*
X191302Y167798D01*
X151328Y177024D02*
X132001Y157699D01*
X151328Y185398D02*
Y177024D01*
X139652Y174648D02*
X130501Y165498D01*
X148451Y204648D02*
Y201274D01*
X153265Y206337D02*
Y201762D01*
X152201Y200698D01*
X149028D02*
X152201D01*
X147502Y205598D02*
X148451Y204648D01*
Y201274D02*
X149028Y200698D01*
X142602Y205598D02*
X147502D01*
X142602D02*
X139652Y202648D01*
Y174648D01*
X123002Y172998D02*
X130501Y165498D01*
X119402Y172998D02*
X123002D01*
X119402Y152998D02*
X147202D01*
X151502Y148698D01*
X151328Y192225D02*
Y185398D01*
X149028Y183098D01*
X146502D02*
X149028D01*
X132001Y183598D02*
X131402Y182999D01*
X124401Y187998D02*
X119402Y182999D01*
X124401Y187998D02*
X134402D01*
X136601Y190199D02*
X134402Y187998D01*
X141738Y210836D02*
X132202Y201298D01*
Y202199D02*
Y201298D01*
X117201Y198898D02*
X121601D01*
X135401Y212699D02*
X155085D01*
X135401D02*
X121601Y198898D01*
X188101Y162998D02*
X210102D01*
X185202Y187299D02*
Y165899D01*
X188101Y162998D01*
X181102Y191399D02*
X185202Y187299D01*
X181102Y204698D02*
Y191399D01*
X190902Y204199D02*
Y189599D01*
X197202Y183299D01*
X166201Y211699D02*
X183402D01*
X190902Y204199D01*
X195601Y204899D02*
Y196698D01*
X164502Y213498D02*
X187002D01*
X195601Y204899D01*
X179201Y203499D02*
Y165998D01*
X192201Y152998D02*
X210102D01*
X179201Y165998D02*
X192201Y152998D01*
X114701Y196398D02*
Y153798D01*
X117201Y198898D02*
X114701Y196398D01*
X115501Y152998D02*
X119402D01*
X114701Y153798D02*
X115501Y152998D01*
X151297Y206429D02*
Y206337D01*
X136601Y203099D02*
Y190199D01*
X141402Y207898D02*
X136601Y203099D01*
X167301Y209198D02*
X179302D01*
X167301D02*
X167001Y208898D01*
X167076Y208824D01*
Y206399D01*
X169044Y192225D02*
Y185741D01*
X167801Y184499D01*
X165107Y187193D02*
X167076Y185224D01*
Y192225D02*
Y185224D01*
X165107Y192225D02*
Y187193D01*
X185502Y202998D02*
Y198299D01*
X179302Y209198D02*
X185502Y202998D01*
X197202Y183299D02*
X209202D01*
X209502Y182999D01*
X178402Y204298D02*
X179201Y203499D01*
X173785Y204298D02*
X178402D01*
X173785D02*
X172875Y203388D01*
Y201272D01*
X170402Y198799D01*
X161101D02*
X170402D01*
X159202Y200698D02*
X161101Y198799D01*
X159202Y206399D02*
Y200698D01*
X179701Y206099D02*
X181102Y204698D01*
X172901Y206099D02*
X179701D01*
X172901D02*
X170922Y204119D01*
Y202319D01*
X170202Y201599D01*
X161702D02*
X170202D01*
X161170Y202130D02*
X161702Y201599D01*
X161170Y206399D02*
Y202130D01*
X166201Y211699D02*
X165107Y210604D01*
Y206399D01*
X164502Y213498D02*
X163138Y212136D01*
Y206399D01*
X155085Y212699D02*
X157142Y210641D01*
Y206489D01*
X157233Y206399D01*
X141402Y207898D02*
X149828D01*
X141738Y210836D02*
X154420D01*
X155174Y210081D01*
Y206489D01*
X155264Y206399D01*
X149828Y207898D02*
X151297Y206429D01*
X151328Y206399D01*
X165122Y93883D02*
X165076Y93837D01*
X190902Y77099D02*
Y55699D01*
X191302Y55299D01*
X151328Y64525D02*
X132001Y45199D01*
X151328Y72899D02*
Y64525D01*
X139652Y62148D02*
X130501Y52999D01*
X148451Y92149D02*
Y88775D01*
X153265Y93837D02*
Y89262D01*
X152201Y88199D01*
X149028D02*
X152201D01*
X147502Y93098D02*
X148451Y92149D01*
Y88775D02*
X149028Y88199D01*
X142602Y93098D02*
X147502D01*
X142602D02*
X139652Y90149D01*
Y62148D01*
X123002Y60498D02*
X130501Y52999D01*
X119402Y60498D02*
X123002D01*
X119402Y40499D02*
X147202D01*
X151502Y36198D01*
X151328Y79725D02*
Y72899D01*
X149028Y70599D01*
X146502D02*
X149028D01*
X132001Y71099D02*
X131402Y70499D01*
X124401Y75498D02*
X119402Y70499D01*
X124401Y75498D02*
X134402D01*
X136601Y77698D02*
X134402Y75498D01*
X141738Y98335D02*
X132202Y88798D01*
Y89698D02*
Y88798D01*
X117201Y86399D02*
X121601D01*
X135401Y100198D02*
X155085D01*
X135401D02*
X121601Y86399D01*
X188101Y50498D02*
X210102D01*
X185202Y74799D02*
Y53399D01*
X188101Y50498D01*
X181102Y78899D02*
X185202Y74799D01*
X181102Y92198D02*
Y78899D01*
X190902Y91698D02*
Y77099D01*
X197202Y70798D01*
X166201Y99199D02*
X183402D01*
X190902Y91698D01*
X195601Y92399D02*
Y84198D01*
X164502Y100998D02*
X187002D01*
X195601Y92399D01*
X179201Y90999D02*
Y53499D01*
X192201Y40499D02*
X210102D01*
X179201Y53499D02*
X192201Y40499D01*
X114701Y83899D02*
Y41298D01*
X117201Y86399D02*
X114701Y83899D01*
X115501Y40499D02*
X119402D01*
X114701Y41298D02*
X115501Y40499D01*
X151297Y93929D02*
Y93837D01*
X136601Y90598D02*
Y77698D01*
X141402Y95398D02*
X136601Y90598D01*
X167301Y96698D02*
X179302D01*
X167301D02*
X167001Y96399D01*
X167076Y96324D01*
Y93898D01*
X169044Y79725D02*
Y73241D01*
X167801Y71999D01*
X165107Y74693D02*
X167076Y72724D01*
Y79725D02*
Y72724D01*
X165107Y79725D02*
Y74693D01*
X185502Y90499D02*
Y85799D01*
X179302Y96698D02*
X185502Y90499D01*
X197202Y70798D02*
X209202D01*
X209502Y70499D01*
X178402Y91799D02*
X179201Y90999D01*
X173785Y91799D02*
X178402D01*
X173785D02*
X172875Y90889D01*
Y88772D01*
X170402Y86299D01*
X161101D02*
X170402D01*
X159202Y88199D02*
X161101Y86299D01*
X159202Y93898D02*
Y88199D01*
X179701Y93599D02*
X181102Y92198D01*
X172901Y93599D02*
X179701D01*
X172901D02*
X170922Y91619D01*
Y89819D01*
X170202Y89099D01*
X161702D02*
X170202D01*
X161170Y89630D02*
X161702Y89099D01*
X161170Y93898D02*
Y89630D01*
X166201Y99199D02*
X165107Y98104D01*
Y93898D01*
X164502Y100998D02*
X163138Y99635D01*
Y93898D01*
X155085Y100198D02*
X157142Y98141D01*
Y93989D01*
X157233Y93898D01*
X141402Y95398D02*
X149828D01*
X141738Y98335D02*
X154420D01*
X155174Y97581D01*
Y93989D01*
X155264Y93898D01*
X149828Y95398D02*
X151297Y93929D01*
X151328Y93898D01*
X277622Y318883D02*
X277576Y318837D01*
X303401Y302098D02*
Y280698D01*
X303801Y280298D01*
X263827Y289525D02*
X244501Y270198D01*
X263827Y297899D02*
Y289525D01*
X252151Y287148D02*
X243002Y277998D01*
X260951Y317148D02*
Y313774D01*
X265765Y318837D02*
Y314262D01*
X264702Y313198D01*
X261527D02*
X264702D01*
X260001Y318098D02*
X260951Y317148D01*
Y313774D02*
X261527Y313198D01*
X255101Y318098D02*
X260001D01*
X255101D02*
X252151Y315148D01*
Y287148D01*
X235502Y285498D02*
X243002Y277998D01*
X231902Y285498D02*
X235502D01*
X231902Y265498D02*
X259701D01*
X264001Y261198D01*
X263827Y304725D02*
Y297899D01*
X261527Y295599D01*
X259001D02*
X261527D01*
X244501Y296098D02*
X243901Y295498D01*
X236901Y300499D02*
X231902Y295498D01*
X236901Y300499D02*
X246901D01*
X249101Y302698D02*
X246901Y300499D01*
X254239Y323336D02*
X244702Y313798D01*
Y314699D02*
Y313798D01*
X229701Y311399D02*
X234102D01*
X247902Y325199D02*
X267585D01*
X247902D02*
X234102Y311399D01*
X300602Y275499D02*
X322602D01*
X297702Y299798D02*
Y278398D01*
X300602Y275499D01*
X293601Y303899D02*
X297702Y299798D01*
X293601Y317198D02*
Y303899D01*
X303401Y316699D02*
Y302098D01*
X309701Y295798D01*
X278701Y324199D02*
X295901D01*
X303401Y316699D01*
X308102Y317399D02*
Y309198D01*
X277002Y325998D02*
X299501D01*
X308102Y317399D01*
X291702Y315999D02*
Y278499D01*
X304701Y265498D02*
X322602D01*
X291702Y278499D02*
X304701Y265498D01*
X227202Y308898D02*
Y266299D01*
X229701Y311399D02*
X227202Y308898D01*
X228001Y265498D02*
X231902D01*
X227202Y266299D02*
X228001Y265498D01*
X263797Y318929D02*
Y318837D01*
X249101Y315599D02*
Y302698D01*
X253902Y320398D02*
X249101Y315599D01*
X279802Y321698D02*
X291802D01*
X279802D02*
X279502Y321398D01*
X279575Y321324D01*
Y318899D01*
X281544Y304725D02*
Y298241D01*
X280301Y296999D01*
X277607Y299693D02*
X279575Y297725D01*
Y304725D02*
Y297725D01*
X277607Y304725D02*
Y299693D01*
X298002Y315498D02*
Y310799D01*
X291802Y321698D02*
X298002Y315498D01*
X309701Y295798D02*
X321702D01*
X322002Y295498D01*
X290901Y316798D02*
X291702Y315999D01*
X286285Y316798D02*
X290901D01*
X286285D02*
X285375Y315889D01*
Y313772D01*
X282902Y311298D01*
X273602D02*
X282902D01*
X271702Y313198D02*
X273602Y311298D01*
X271702Y318899D02*
Y313198D01*
X292201Y318599D02*
X293601Y317198D01*
X285402Y318599D02*
X292201D01*
X285402D02*
X283422Y316619D01*
Y314819D01*
X282701Y314099D01*
X274201D02*
X282701D01*
X273670Y314630D02*
X274201Y314099D01*
X273670Y318899D02*
Y314630D01*
X278701Y324199D02*
X277607Y323104D01*
Y318899D01*
X277002Y325998D02*
X275639Y324636D01*
Y318899D01*
X267585Y325199D02*
X269642Y323141D01*
Y318989D01*
X269733Y318899D01*
X253902Y320398D02*
X262328D01*
X254239Y323336D02*
X266920D01*
X267674Y322581D01*
Y318989D01*
X267764Y318899D01*
X262328Y320398D02*
X263797Y318929D01*
X263827Y318899D01*
X277622Y206383D02*
X277576Y206337D01*
X303401Y189599D02*
Y168199D01*
X303801Y167798D01*
X263827Y177024D02*
X244501Y157699D01*
X263827Y185398D02*
Y177024D01*
X252151Y174648D02*
X243002Y165498D01*
X260951Y204648D02*
Y201274D01*
X265765Y206337D02*
Y201762D01*
X264702Y200698D01*
X261527D02*
X264702D01*
X260001Y205598D02*
X260951Y204648D01*
Y201274D02*
X261527Y200698D01*
X255101Y205598D02*
X260001D01*
X255101D02*
X252151Y202648D01*
Y174648D01*
X235502Y172998D02*
X243002Y165498D01*
X231902Y172998D02*
X235502D01*
X231902Y152998D02*
X259701D01*
X264001Y148698D01*
X263827Y192225D02*
Y185398D01*
X261527Y183098D01*
X259001D02*
X261527D01*
X244501Y183598D02*
X243901Y182999D01*
X236901Y187998D02*
X231902Y182999D01*
X236901Y187998D02*
X246901D01*
X249101Y190199D02*
X246901Y187998D01*
X254239Y210836D02*
X244702Y201298D01*
Y202199D02*
Y201298D01*
X229701Y198898D02*
X234102D01*
X247902Y212699D02*
X267585D01*
X247902D02*
X234102Y198898D01*
X300602Y162998D02*
X322602D01*
X297702Y187299D02*
Y165899D01*
X300602Y162998D01*
X293601Y191399D02*
X297702Y187299D01*
X293601Y204698D02*
Y191399D01*
X303401Y204199D02*
Y189599D01*
X309701Y183299D01*
X278701Y211699D02*
X295901D01*
X303401Y204199D01*
X308102Y204899D02*
Y196698D01*
X277002Y213498D02*
X299501D01*
X308102Y204899D01*
X291702Y203499D02*
Y165998D01*
X304701Y152998D02*
X322602D01*
X291702Y165998D02*
X304701Y152998D01*
X227202Y196398D02*
Y153798D01*
X229701Y198898D02*
X227202Y196398D01*
X228001Y152998D02*
X231902D01*
X227202Y153798D02*
X228001Y152998D01*
X263797Y206429D02*
Y206337D01*
X249101Y203099D02*
Y190199D01*
X253902Y207898D02*
X249101Y203099D01*
X279802Y209198D02*
X291802D01*
X279802D02*
X279502Y208898D01*
X279575Y208824D01*
Y206399D01*
X281544Y192225D02*
Y185741D01*
X280301Y184499D01*
X277607Y187193D02*
X279575Y185224D01*
Y192225D02*
Y185224D01*
X277607Y192225D02*
Y187193D01*
X298002Y202998D02*
Y198299D01*
X291802Y209198D02*
X298002Y202998D01*
X309701Y183299D02*
X321702D01*
X322002Y182999D01*
X290901Y204298D02*
X291702Y203499D01*
X286285Y204298D02*
X290901D01*
X286285D02*
X285375Y203388D01*
Y201272D01*
X282902Y198799D01*
X273602D02*
X282902D01*
X271702Y200698D02*
X273602Y198799D01*
X271702Y206399D02*
Y200698D01*
X292201Y206099D02*
X293601Y204698D01*
X285402Y206099D02*
X292201D01*
X285402D02*
X283422Y204119D01*
Y202319D01*
X282701Y201599D01*
X274201D02*
X282701D01*
X273670Y202130D02*
X274201Y201599D01*
X273670Y206399D02*
Y202130D01*
X278701Y211699D02*
X277607Y210604D01*
Y206399D01*
X277002Y213498D02*
X275639Y212136D01*
Y206399D01*
X267585Y212699D02*
X269642Y210641D01*
Y206489D01*
X269733Y206399D01*
X253902Y207898D02*
X262328D01*
X254239Y210836D02*
X266920D01*
X267674Y210081D01*
Y206489D01*
X267764Y206399D01*
X262328Y207898D02*
X263797Y206429D01*
X263827Y206399D01*
X277622Y93883D02*
X277576Y93837D01*
X303401Y77099D02*
Y55699D01*
X303801Y55299D01*
X263827Y64525D02*
X244501Y45199D01*
X263827Y72899D02*
Y64525D01*
X252151Y62148D02*
X243002Y52999D01*
X260951Y92149D02*
Y88775D01*
X265765Y93837D02*
Y89262D01*
X264702Y88199D01*
X261527D02*
X264702D01*
X260001Y93098D02*
X260951Y92149D01*
Y88775D02*
X261527Y88199D01*
X255101Y93098D02*
X260001D01*
X255101D02*
X252151Y90149D01*
Y62148D01*
X235502Y60498D02*
X243002Y52999D01*
X231902Y60498D02*
X235502D01*
X231902Y40499D02*
X259701D01*
X264001Y36198D01*
X263827Y79725D02*
Y72899D01*
X261527Y70599D01*
X259001D02*
X261527D01*
X244501Y71099D02*
X243901Y70499D01*
X236901Y75498D02*
X231902Y70499D01*
X236901Y75498D02*
X246901D01*
X249101Y77698D02*
X246901Y75498D01*
X254239Y98335D02*
X244702Y88798D01*
Y89698D02*
Y88798D01*
X229701Y86399D02*
X234102D01*
X247902Y100198D02*
X267585D01*
X247902D02*
X234102Y86399D01*
X300602Y50498D02*
X322602D01*
X297702Y74799D02*
Y53399D01*
X300602Y50498D01*
X293601Y78899D02*
X297702Y74799D01*
X293601Y92198D02*
Y78899D01*
X303401Y91698D02*
Y77099D01*
X309701Y70798D01*
X278701Y99199D02*
X295901D01*
X303401Y91698D01*
X308102Y92399D02*
Y84198D01*
X277002Y100998D02*
X299501D01*
X308102Y92399D01*
X291702Y90999D02*
Y53499D01*
X304701Y40499D02*
X322602D01*
X291702Y53499D02*
X304701Y40499D01*
X227202Y83899D02*
Y41298D01*
X229701Y86399D02*
X227202Y83899D01*
X228001Y40499D02*
X231902D01*
X227202Y41298D02*
X228001Y40499D01*
X263797Y93929D02*
Y93837D01*
X249101Y90598D02*
Y77698D01*
X253902Y95398D02*
X249101Y90598D01*
X279802Y96698D02*
X291802D01*
X279802D02*
X279502Y96399D01*
X279575Y96324D01*
Y93898D01*
X281544Y79725D02*
Y73241D01*
X280301Y71999D01*
X277607Y74693D02*
X279575Y72724D01*
Y79725D02*
Y72724D01*
X277607Y79725D02*
Y74693D01*
X298002Y90499D02*
Y85799D01*
X291802Y96698D02*
X298002Y90499D01*
X309701Y70798D02*
X321702D01*
X322002Y70499D01*
X290901Y91799D02*
X291702Y90999D01*
X286285Y91799D02*
X290901D01*
X286285D02*
X285375Y90889D01*
Y88772D01*
X282902Y86299D01*
X273602D02*
X282902D01*
X271702Y88199D02*
X273602Y86299D01*
X271702Y93898D02*
Y88199D01*
X292201Y93599D02*
X293601Y92198D01*
X285402Y93599D02*
X292201D01*
X285402D02*
X283422Y91619D01*
Y89819D01*
X282701Y89099D01*
X274201D02*
X282701D01*
X273670Y89630D02*
X274201Y89099D01*
X273670Y93898D02*
Y89630D01*
X278701Y99199D02*
X277607Y98104D01*
Y93898D01*
X277002Y100998D02*
X275639Y99635D01*
Y93898D01*
X267585Y100198D02*
X269642Y98141D01*
Y93989D01*
X269733Y93898D01*
X253902Y95398D02*
X262328D01*
X254239Y98335D02*
X266920D01*
X267674Y97581D01*
Y93989D01*
X267764Y93898D01*
X262328Y95398D02*
X263797Y93929D01*
X263827Y93898D01*
D16*
X32135Y311812D02*
D03*
X63237D02*
D03*
X32135Y199312D02*
D03*
X63237D02*
D03*
X32135Y86812D02*
D03*
X63237D02*
D03*
X144635Y311812D02*
D03*
X175737D02*
D03*
X144635Y199312D02*
D03*
X175737D02*
D03*
X144635Y86812D02*
D03*
X175737D02*
D03*
X257135Y311812D02*
D03*
X288237D02*
D03*
X257135Y199312D02*
D03*
X288237D02*
D03*
X257135Y86812D02*
D03*
X288237D02*
D03*
D17*
X38827Y304725D02*
D03*
Y318899D02*
D03*
X40796Y304725D02*
D03*
Y318899D02*
D03*
X42764Y304725D02*
D03*
Y318899D02*
D03*
X44733Y304725D02*
D03*
Y318899D02*
D03*
X46701Y304725D02*
D03*
Y318899D02*
D03*
X48670Y304725D02*
D03*
Y318899D02*
D03*
X50639Y304725D02*
D03*
Y318899D02*
D03*
X52607Y304725D02*
D03*
Y318899D02*
D03*
X54576Y304725D02*
D03*
Y318899D02*
D03*
X56544Y304725D02*
D03*
Y318899D02*
D03*
X38827Y192225D02*
D03*
Y206399D02*
D03*
X40796Y192225D02*
D03*
Y206399D02*
D03*
X42764Y192225D02*
D03*
Y206399D02*
D03*
X44733Y192225D02*
D03*
Y206399D02*
D03*
X46701Y192225D02*
D03*
Y206399D02*
D03*
X48670Y192225D02*
D03*
Y206399D02*
D03*
X50639Y192225D02*
D03*
Y206399D02*
D03*
X52607Y192225D02*
D03*
Y206399D02*
D03*
X54576Y192225D02*
D03*
Y206399D02*
D03*
X56544Y192225D02*
D03*
Y206399D02*
D03*
X38827Y79725D02*
D03*
Y93898D02*
D03*
X40796Y79725D02*
D03*
Y93898D02*
D03*
X42764Y79725D02*
D03*
Y93898D02*
D03*
X44733Y79725D02*
D03*
Y93898D02*
D03*
X46701Y79725D02*
D03*
Y93898D02*
D03*
X48670Y79725D02*
D03*
Y93898D02*
D03*
X50639Y79725D02*
D03*
Y93898D02*
D03*
X52607Y79725D02*
D03*
Y93898D02*
D03*
X54576Y79725D02*
D03*
Y93898D02*
D03*
X56544Y79725D02*
D03*
Y93898D02*
D03*
X151328Y304725D02*
D03*
Y318899D02*
D03*
X153296Y304725D02*
D03*
Y318899D02*
D03*
X155264Y304725D02*
D03*
Y318899D02*
D03*
X157233Y304725D02*
D03*
Y318899D02*
D03*
X159202Y304725D02*
D03*
Y318899D02*
D03*
X161170Y304725D02*
D03*
Y318899D02*
D03*
X163138Y304725D02*
D03*
Y318899D02*
D03*
X165107Y304725D02*
D03*
Y318899D02*
D03*
X167076Y304725D02*
D03*
Y318899D02*
D03*
X169044Y304725D02*
D03*
Y318899D02*
D03*
X151328Y192225D02*
D03*
Y206399D02*
D03*
X153296Y192225D02*
D03*
Y206399D02*
D03*
X155264Y192225D02*
D03*
Y206399D02*
D03*
X157233Y192225D02*
D03*
Y206399D02*
D03*
X159202Y192225D02*
D03*
Y206399D02*
D03*
X161170Y192225D02*
D03*
Y206399D02*
D03*
X163138Y192225D02*
D03*
Y206399D02*
D03*
X165107Y192225D02*
D03*
Y206399D02*
D03*
X167076Y192225D02*
D03*
Y206399D02*
D03*
X169044Y192225D02*
D03*
Y206399D02*
D03*
X151328Y79725D02*
D03*
Y93898D02*
D03*
X153296Y79725D02*
D03*
Y93898D02*
D03*
X155264Y79725D02*
D03*
Y93898D02*
D03*
X157233Y79725D02*
D03*
Y93898D02*
D03*
X159202Y79725D02*
D03*
Y93898D02*
D03*
X161170Y79725D02*
D03*
Y93898D02*
D03*
X163138Y79725D02*
D03*
Y93898D02*
D03*
X165107Y79725D02*
D03*
Y93898D02*
D03*
X167076Y79725D02*
D03*
Y93898D02*
D03*
X169044Y79725D02*
D03*
Y93898D02*
D03*
X263827Y304725D02*
D03*
Y318899D02*
D03*
X265796Y304725D02*
D03*
Y318899D02*
D03*
X267764Y304725D02*
D03*
Y318899D02*
D03*
X269733Y304725D02*
D03*
Y318899D02*
D03*
X271702Y304725D02*
D03*
Y318899D02*
D03*
X273670Y304725D02*
D03*
Y318899D02*
D03*
X275639Y304725D02*
D03*
Y318899D02*
D03*
X277607Y304725D02*
D03*
Y318899D02*
D03*
X279575Y304725D02*
D03*
Y318899D02*
D03*
X281544Y304725D02*
D03*
Y318899D02*
D03*
X263827Y192225D02*
D03*
Y206399D02*
D03*
X265796Y192225D02*
D03*
Y206399D02*
D03*
X267764Y192225D02*
D03*
Y206399D02*
D03*
X269733Y192225D02*
D03*
Y206399D02*
D03*
X271702Y192225D02*
D03*
Y206399D02*
D03*
X273670Y192225D02*
D03*
Y206399D02*
D03*
X275639Y192225D02*
D03*
Y206399D02*
D03*
X277607Y192225D02*
D03*
Y206399D02*
D03*
X279575Y192225D02*
D03*
Y206399D02*
D03*
X281544Y192225D02*
D03*
Y206399D02*
D03*
X263827Y79725D02*
D03*
Y93898D02*
D03*
X265796Y79725D02*
D03*
Y93898D02*
D03*
X267764Y79725D02*
D03*
Y93898D02*
D03*
X269733Y79725D02*
D03*
Y93898D02*
D03*
X271702Y79725D02*
D03*
Y93898D02*
D03*
X273670Y79725D02*
D03*
Y93898D02*
D03*
X275639Y79725D02*
D03*
Y93898D02*
D03*
X277607Y79725D02*
D03*
Y93898D02*
D03*
X279575Y79725D02*
D03*
Y93898D02*
D03*
X281544Y79725D02*
D03*
Y93898D02*
D03*
D18*
X55301Y296999D02*
Y277199D01*
X77501Y254998D01*
X55301Y184499D02*
Y164699D01*
X77501Y142499D01*
X55301Y71999D02*
Y52198D01*
X77501Y29998D01*
X167801Y296999D02*
Y277199D01*
X190001Y254998D01*
X167801Y184499D02*
Y164699D01*
X190001Y142499D01*
X167801Y71999D02*
Y52198D01*
X190001Y29998D01*
X280301Y296999D02*
Y277199D01*
X302502Y254998D01*
X280301Y184499D02*
Y164699D01*
X302502Y142499D01*
X280301Y71999D02*
Y52198D01*
X302502Y29998D01*
D19*
X365213Y38850D02*
D03*
X366787D02*
D03*
X365213Y37276D02*
D03*
X366787D02*
D03*
X365213Y86287D02*
D03*
X366787D02*
D03*
X365213Y84713D02*
D03*
X366787D02*
D03*
X365213Y133724D02*
D03*
X366787D02*
D03*
X365213Y132150D02*
D03*
X366787D02*
D03*
D20*
X366824Y37276D02*
X369000Y35099D01*
X362518D02*
X363036D01*
X365213Y37276D01*
X363000Y41027D02*
Y41063D01*
Y41027D02*
X365176Y38850D01*
X366787D02*
X369000Y41063D01*
X365176Y38850D02*
X365213D01*
X366787Y37276D02*
X366824D01*
X366787D02*
X366813Y37301D01*
X366824Y84713D02*
X369000Y82537D01*
X362518D02*
X363036D01*
X365213Y84713D01*
X363000Y88464D02*
Y88500D01*
Y88464D02*
X365176Y86287D01*
X366787D02*
X369000Y88500D01*
X365176Y86287D02*
X365213D01*
X366787Y84713D02*
X366824D01*
X366787D02*
X366813Y84738D01*
X366824Y132150D02*
X369000Y129973D01*
X362518D02*
X363036D01*
X365213Y132150D01*
X363000Y135901D02*
Y135937D01*
Y135901D02*
X365176Y133724D01*
X366787D02*
X369000Y135937D01*
X365176Y133724D02*
X365213D01*
X366787Y132150D02*
X366824D01*
X366787D02*
X366813Y132175D01*
D21*
X266450Y377900D02*
D03*
X261400Y377750D02*
D03*
X222850Y377300D02*
D03*
X216450Y377600D02*
D03*
X332100Y302500D02*
D03*
Y298596D02*
D03*
X332400Y183959D02*
D03*
X18700Y334950D02*
D03*
X18450Y329150D02*
D03*
X83050Y334100D02*
D03*
X82750Y329650D02*
D03*
X140200Y329400D02*
D03*
X135900Y329450D02*
D03*
X131641Y329400D02*
D03*
X302300Y329850D02*
D03*
X296550Y329800D02*
D03*
X307100Y329650D02*
D03*
X311750Y329700D02*
D03*
X177550Y330600D02*
D03*
X172550Y330450D02*
D03*
X179350Y377700D02*
D03*
X158300Y377550D02*
D03*
X102400Y377700D02*
D03*
X113500D02*
D03*
X45600Y347400D02*
D03*
X45115Y343250D02*
D03*
X45344Y339000D02*
D03*
X58100Y347600D02*
D03*
X58215Y343300D02*
D03*
X57978Y338596D02*
D03*
X375850Y152650D02*
D03*
X371596D02*
D03*
X367341D02*
D03*
X374350Y112802D02*
D03*
X370096D02*
D03*
X365841D02*
D03*
X314500Y346950D02*
D03*
Y342796D02*
D03*
Y338641D02*
D03*
X47150Y377550D02*
D03*
X57250Y377150D02*
D03*
X159791Y330300D02*
D03*
X163846D02*
D03*
X167900D02*
D03*
X335750Y73291D02*
D03*
Y77246D02*
D03*
Y81200D02*
D03*
X290600Y329850D02*
D03*
X285050Y329800D02*
D03*
X111550Y153687D02*
D03*
Y157741D02*
D03*
Y161796D02*
D03*
Y149583D02*
D03*
Y169904D02*
D03*
Y173959D02*
D03*
Y178013D02*
D03*
Y165850D02*
D03*
Y182117D02*
D03*
X105800Y181417D02*
D03*
Y165150D02*
D03*
Y177313D02*
D03*
Y173259D02*
D03*
Y169204D02*
D03*
Y148883D02*
D03*
Y161096D02*
D03*
Y157041D02*
D03*
Y152987D02*
D03*
X270984Y338491D02*
D03*
Y342646D02*
D03*
X270643Y346750D02*
D03*
X305350Y338641D02*
D03*
Y343100D02*
D03*
X305300Y347354D02*
D03*
X260650Y339091D02*
D03*
Y343196D02*
D03*
Y347300D02*
D03*
X223800Y338341D02*
D03*
Y342496D02*
D03*
Y346600D02*
D03*
X216049Y338491D02*
D03*
Y342646D02*
D03*
Y346750D02*
D03*
X178750Y339491D02*
D03*
Y343646D02*
D03*
Y347800D02*
D03*
X158300Y339091D02*
D03*
Y343196D02*
D03*
Y347300D02*
D03*
X114573Y338396D02*
D03*
X114623Y343300D02*
D03*
X114600Y347900D02*
D03*
X102123Y338200D02*
D03*
X102136Y343100D02*
D03*
X102273Y347950D02*
D03*
X369041Y217100D02*
D03*
X373296D02*
D03*
X377550D02*
D03*
X368491Y225750D02*
D03*
X372746D02*
D03*
X377000D02*
D03*
X368641Y260437D02*
D03*
X372896D02*
D03*
X377150D02*
D03*
X368641Y270450D02*
D03*
X372896D02*
D03*
X377150D02*
D03*
X332250Y195900D02*
D03*
Y191946D02*
D03*
X332400Y187950D02*
D03*
X332600Y146850D02*
D03*
Y142896D02*
D03*
Y138941D02*
D03*
X330375Y80900D02*
D03*
Y76946D02*
D03*
Y72991D02*
D03*
X330750Y38900D02*
D03*
Y34796D02*
D03*
Y30841D02*
D03*
X335050Y32241D02*
D03*
Y36346D02*
D03*
Y40450D02*
D03*
X367396Y56450D02*
D03*
X371650D02*
D03*
X375904D02*
D03*
X366841Y65050D02*
D03*
X371096D02*
D03*
X375350D02*
D03*
X365991Y103302D02*
D03*
X370246D02*
D03*
X374500D02*
D03*
X375950Y179250D02*
D03*
X371696D02*
D03*
X367441D02*
D03*
X332400Y243296D02*
D03*
Y247200D02*
D03*
X287634Y334596D02*
D03*
X292884D02*
D03*
X297884Y334646D02*
D03*
X131491Y334250D02*
D03*
X135750Y334300D02*
D03*
X139850Y334400D02*
D03*
X77850Y329700D02*
D03*
X73450Y329800D02*
D03*
X68891Y329700D02*
D03*
X77650Y334500D02*
D03*
X73150Y334700D02*
D03*
X69041Y334750D02*
D03*
X33250Y329100D02*
D03*
X28200Y329300D02*
D03*
X23550Y329600D02*
D03*
X33400Y334950D02*
D03*
X28500Y334800D02*
D03*
X23350Y335000D02*
D03*
X225450Y288046D02*
D03*
Y283991D02*
D03*
Y279937D02*
D03*
Y292100D02*
D03*
Y271829D02*
D03*
Y267724D02*
D03*
Y263670D02*
D03*
Y275883D02*
D03*
Y259616D02*
D03*
X217850Y258944D02*
D03*
Y275212D02*
D03*
Y262999D02*
D03*
Y267053D02*
D03*
Y271157D02*
D03*
Y291429D02*
D03*
Y279266D02*
D03*
Y283320D02*
D03*
Y287374D02*
D03*
X111750Y289546D02*
D03*
Y285491D02*
D03*
Y281437D02*
D03*
Y293600D02*
D03*
Y273329D02*
D03*
Y269274D02*
D03*
Y265170D02*
D03*
Y277383D02*
D03*
Y261116D02*
D03*
X106050Y261516D02*
D03*
Y277783D02*
D03*
Y265570D02*
D03*
Y269674D02*
D03*
Y273729D02*
D03*
Y294000D02*
D03*
Y281837D02*
D03*
Y285891D02*
D03*
Y289946D02*
D03*
X61661Y216600D02*
D03*
X57607D02*
D03*
X53553D02*
D03*
X65716D02*
D03*
X45544D02*
D03*
X41390D02*
D03*
X37336D02*
D03*
X49549D02*
D03*
X33281D02*
D03*
X34066Y223150D02*
D03*
X50333D02*
D03*
X38120D02*
D03*
X42174D02*
D03*
X46329D02*
D03*
X66550D02*
D03*
X54337D02*
D03*
X58441D02*
D03*
X62496D02*
D03*
X175246Y217450D02*
D03*
X171241D02*
D03*
X167187D02*
D03*
X179300D02*
D03*
X159029D02*
D03*
X154974D02*
D03*
X150970D02*
D03*
X163133D02*
D03*
X146966D02*
D03*
Y223950D02*
D03*
X163133D02*
D03*
X150970D02*
D03*
X154974D02*
D03*
X159029D02*
D03*
X179300D02*
D03*
X167187D02*
D03*
X171241D02*
D03*
X175246D02*
D03*
X290663Y216650D02*
D03*
X286509D02*
D03*
X282454D02*
D03*
X294817D02*
D03*
X274346D02*
D03*
X270291D02*
D03*
X266187D02*
D03*
X278400D02*
D03*
X262133D02*
D03*
X261617Y223950D02*
D03*
X277850Y223750D02*
D03*
X265637D02*
D03*
X269691D02*
D03*
X273796D02*
D03*
X294267D02*
D03*
X281904D02*
D03*
X285959D02*
D03*
X290113D02*
D03*
X218100Y152220D02*
D03*
Y156274D02*
D03*
Y160329D02*
D03*
Y148116D02*
D03*
Y168437D02*
D03*
Y172491D02*
D03*
Y176546D02*
D03*
Y164383D02*
D03*
Y180600D02*
D03*
X224800Y180150D02*
D03*
Y163933D02*
D03*
Y176096D02*
D03*
Y172041D02*
D03*
Y167987D02*
D03*
Y147666D02*
D03*
Y159879D02*
D03*
Y155824D02*
D03*
Y151770D02*
D03*
X263070Y111900D02*
D03*
X267124D02*
D03*
X271229D02*
D03*
X259016D02*
D03*
X279337D02*
D03*
X283391D02*
D03*
X287546D02*
D03*
X275283D02*
D03*
X291600D02*
D03*
X291450Y103670D02*
D03*
X275083D02*
D03*
X287346D02*
D03*
X283191D02*
D03*
X279137D02*
D03*
X258816D02*
D03*
X271029D02*
D03*
X266924D02*
D03*
X262870D02*
D03*
X223000Y63996D02*
D03*
Y59941D02*
D03*
Y55837D02*
D03*
Y68100D02*
D03*
Y47729D02*
D03*
Y43674D02*
D03*
Y39620D02*
D03*
Y51783D02*
D03*
Y35516D02*
D03*
X217600Y34816D02*
D03*
Y51083D02*
D03*
Y38920D02*
D03*
Y42974D02*
D03*
Y47029D02*
D03*
Y67400D02*
D03*
Y55137D02*
D03*
Y59241D02*
D03*
Y63296D02*
D03*
X176646Y104750D02*
D03*
X172641D02*
D03*
X168637D02*
D03*
X180750D02*
D03*
X160529D02*
D03*
X156374D02*
D03*
X152370D02*
D03*
X164583D02*
D03*
X148366D02*
D03*
X148766Y112350D02*
D03*
X164983D02*
D03*
X152770D02*
D03*
X156774D02*
D03*
X160929D02*
D03*
X181150D02*
D03*
X169037D02*
D03*
X173041D02*
D03*
X177046D02*
D03*
X105800Y40070D02*
D03*
Y44124D02*
D03*
Y48179D02*
D03*
Y35966D02*
D03*
Y56287D02*
D03*
Y60391D02*
D03*
Y64446D02*
D03*
Y52233D02*
D03*
Y68550D02*
D03*
X111300Y68250D02*
D03*
Y51933D02*
D03*
Y64146D02*
D03*
Y60091D02*
D03*
Y55987D02*
D03*
Y35666D02*
D03*
Y47879D02*
D03*
Y43824D02*
D03*
Y39770D02*
D03*
X37420Y105100D02*
D03*
X41474D02*
D03*
X45629D02*
D03*
X33366D02*
D03*
X53687D02*
D03*
X57691D02*
D03*
X61796D02*
D03*
X49683D02*
D03*
X65850D02*
D03*
X66700Y110550D02*
D03*
X50283D02*
D03*
X62596D02*
D03*
X58491D02*
D03*
X54337D02*
D03*
X33766D02*
D03*
X46179D02*
D03*
X41974D02*
D03*
X37870D02*
D03*
D22*
X39000Y374198D02*
D03*
X29000D02*
D03*
X19000D02*
D03*
X94976D02*
D03*
X84976D02*
D03*
X74976D02*
D03*
X150953D02*
D03*
X140953D02*
D03*
X130953D02*
D03*
X373000Y278000D02*
D03*
Y288000D02*
D03*
Y233000D02*
D03*
Y243000D02*
D03*
Y188000D02*
D03*
Y198000D02*
D03*
X18902Y305499D02*
D03*
X97601D02*
D03*
Y295498D02*
D03*
Y285498D02*
D03*
Y275499D02*
D03*
X6901D02*
D03*
Y285498D02*
D03*
Y295498D02*
D03*
Y305499D02*
D03*
X18902Y192999D02*
D03*
X97601D02*
D03*
Y182999D02*
D03*
Y172998D02*
D03*
Y162998D02*
D03*
X6901D02*
D03*
Y172998D02*
D03*
Y182999D02*
D03*
Y192999D02*
D03*
X18902Y80498D02*
D03*
X97601D02*
D03*
Y70499D02*
D03*
Y60498D02*
D03*
Y50498D02*
D03*
X6901D02*
D03*
Y60498D02*
D03*
Y70499D02*
D03*
Y80498D02*
D03*
X131402Y305499D02*
D03*
X210102D02*
D03*
Y295498D02*
D03*
Y285498D02*
D03*
Y275499D02*
D03*
X119402D02*
D03*
Y285498D02*
D03*
Y295498D02*
D03*
Y305499D02*
D03*
X131402Y192999D02*
D03*
X210102D02*
D03*
Y182999D02*
D03*
Y172998D02*
D03*
Y162998D02*
D03*
X119402D02*
D03*
Y172998D02*
D03*
Y182999D02*
D03*
Y192999D02*
D03*
X131402Y80498D02*
D03*
X210102D02*
D03*
Y70499D02*
D03*
Y60498D02*
D03*
Y50498D02*
D03*
X119402D02*
D03*
Y60498D02*
D03*
Y70499D02*
D03*
Y80498D02*
D03*
X243901Y305499D02*
D03*
X322602D02*
D03*
Y295498D02*
D03*
Y285498D02*
D03*
Y275499D02*
D03*
X231902D02*
D03*
Y285498D02*
D03*
Y295498D02*
D03*
Y305499D02*
D03*
X243901Y192999D02*
D03*
X322602D02*
D03*
Y182999D02*
D03*
Y172998D02*
D03*
Y162998D02*
D03*
X231902D02*
D03*
Y172998D02*
D03*
Y182999D02*
D03*
Y192999D02*
D03*
X243901Y80498D02*
D03*
X322602D02*
D03*
Y70499D02*
D03*
Y60498D02*
D03*
Y50498D02*
D03*
X231902D02*
D03*
Y60498D02*
D03*
Y70499D02*
D03*
Y80498D02*
D03*
X344500Y36563D02*
D03*
Y26563D02*
D03*
Y84000D02*
D03*
Y74000D02*
D03*
Y131437D02*
D03*
Y121437D02*
D03*
X207500Y373500D02*
D03*
X197500D02*
D03*
X252500D02*
D03*
X242500D02*
D03*
X297500D02*
D03*
X287500D02*
D03*
X342500D02*
D03*
X332500D02*
D03*
D23*
X9000Y374198D02*
D03*
X64976D02*
D03*
X120953D02*
D03*
X187500Y373500D02*
D03*
X232500D02*
D03*
X277500D02*
D03*
X322500D02*
D03*
D24*
X13000Y361854D02*
D03*
X68976D02*
D03*
X124953D02*
D03*
X18001Y277998D02*
D03*
X39002Y261198D02*
D03*
X21501Y255199D02*
D03*
X19501Y270198D02*
D03*
X78802Y280298D02*
D03*
X77501Y254998D02*
D03*
X90333Y246599D02*
D03*
X34001Y295599D02*
D03*
X19702Y314699D02*
D03*
X55301Y296999D02*
D03*
X73001Y310799D02*
D03*
X83101Y309198D02*
D03*
X18001Y165498D02*
D03*
X39002Y148698D02*
D03*
X21501Y142699D02*
D03*
X19501Y157699D02*
D03*
X78802Y167798D02*
D03*
X77501Y142499D02*
D03*
X90333Y134098D02*
D03*
X34001Y183098D02*
D03*
X19702Y202199D02*
D03*
X55301Y184499D02*
D03*
X73001Y198299D02*
D03*
X83101Y196698D02*
D03*
X18001Y52999D02*
D03*
X39002Y36198D02*
D03*
X21501Y30198D02*
D03*
X19501Y45199D02*
D03*
X78802Y55299D02*
D03*
X77501Y29998D02*
D03*
X90333Y21599D02*
D03*
X34001Y70599D02*
D03*
X19702Y89698D02*
D03*
X55301Y71999D02*
D03*
X73001Y85799D02*
D03*
X83101Y84198D02*
D03*
X130501Y277998D02*
D03*
X151502Y261198D02*
D03*
X134002Y255199D02*
D03*
X132001Y270198D02*
D03*
X191302Y280298D02*
D03*
X190001Y254998D02*
D03*
X202833Y246599D02*
D03*
X146502Y295599D02*
D03*
X132202Y314699D02*
D03*
X167801Y296999D02*
D03*
X185502Y310799D02*
D03*
X195601Y309198D02*
D03*
X130501Y165498D02*
D03*
X151502Y148698D02*
D03*
X134002Y142699D02*
D03*
X132001Y157699D02*
D03*
X191302Y167798D02*
D03*
X190001Y142499D02*
D03*
X202833Y134098D02*
D03*
X146502Y183098D02*
D03*
X132202Y202199D02*
D03*
X167801Y184499D02*
D03*
X185502Y198299D02*
D03*
X195601Y196698D02*
D03*
X130501Y52999D02*
D03*
X151502Y36198D02*
D03*
X134002Y30198D02*
D03*
X132001Y45199D02*
D03*
X191302Y55299D02*
D03*
X190001Y29998D02*
D03*
X202833Y21599D02*
D03*
X146502Y70599D02*
D03*
X132202Y89698D02*
D03*
X167801Y71999D02*
D03*
X185502Y85799D02*
D03*
X195601Y84198D02*
D03*
X243002Y277998D02*
D03*
X264001Y261198D02*
D03*
X246501Y255199D02*
D03*
X244501Y270198D02*
D03*
X303801Y280298D02*
D03*
X302502Y254998D02*
D03*
X315333Y246599D02*
D03*
X259001Y295599D02*
D03*
X244702Y314699D02*
D03*
X280301Y296999D02*
D03*
X298002Y310799D02*
D03*
X308102Y309198D02*
D03*
X243002Y165498D02*
D03*
X264001Y148698D02*
D03*
X246501Y142699D02*
D03*
X244501Y157699D02*
D03*
X303801Y167798D02*
D03*
X302502Y142499D02*
D03*
X315333Y134098D02*
D03*
X259001Y183098D02*
D03*
X244702Y202199D02*
D03*
X280301Y184499D02*
D03*
X298002Y198299D02*
D03*
X308102Y196698D02*
D03*
X243002Y52999D02*
D03*
X264001Y36198D02*
D03*
X246501Y30198D02*
D03*
X244501Y45199D02*
D03*
X303801Y55299D02*
D03*
X302502Y29998D02*
D03*
X315333Y21599D02*
D03*
X259001Y70599D02*
D03*
X244702Y89698D02*
D03*
X280301Y71999D02*
D03*
X298002Y85799D02*
D03*
X308102Y84198D02*
D03*
X369000Y35099D02*
D03*
X363000D02*
D03*
X369000Y41063D02*
D03*
X363000D02*
D03*
X369000Y82537D02*
D03*
X363000D02*
D03*
X369000Y88500D02*
D03*
X363000D02*
D03*
X369000Y129973D02*
D03*
X363000D02*
D03*
X369000Y135937D02*
D03*
X363000D02*
D03*
D25*
X373000Y298000D02*
D03*
Y253000D02*
D03*
Y208000D02*
D03*
X18902Y295498D02*
D03*
X97601Y265498D02*
D03*
X6901D02*
D03*
X18902Y182999D02*
D03*
X97601Y152998D02*
D03*
X6901D02*
D03*
X18902Y70499D02*
D03*
X97601Y40499D02*
D03*
X6901D02*
D03*
X131402Y295498D02*
D03*
X210102Y265498D02*
D03*
X119402D02*
D03*
X131402Y182999D02*
D03*
X210102Y152998D02*
D03*
X119402D02*
D03*
X131402Y70499D02*
D03*
X210102Y40499D02*
D03*
X119402D02*
D03*
X243901Y295498D02*
D03*
X322602Y265498D02*
D03*
X231902D02*
D03*
X243901Y182999D02*
D03*
X322602Y152998D02*
D03*
X231902D02*
D03*
X243901Y70499D02*
D03*
X322602Y40499D02*
D03*
X231902D02*
D03*
X344500Y46563D02*
D03*
Y94000D02*
D03*
Y141437D02*
D03*
D26*
X352000Y293500D02*
D03*
Y288500D02*
D03*
Y248500D02*
D03*
Y243500D02*
D03*
Y203500D02*
D03*
Y198500D02*
D03*
D27*
Y283500D02*
D03*
Y238500D02*
D03*
Y193500D02*
D03*
D28*
X46202Y295999D02*
D03*
Y183499D02*
D03*
Y70999D02*
D03*
X158702Y295999D02*
D03*
Y183499D02*
D03*
Y70999D02*
D03*
X271201Y295999D02*
D03*
Y183499D02*
D03*
Y70999D02*
D03*
D29*
X34694Y305906D02*
D03*
X60678D02*
D03*
X34694Y193406D02*
D03*
X60678D02*
D03*
X34694Y80906D02*
D03*
X60678D02*
D03*
X147194Y305906D02*
D03*
X173178D02*
D03*
X147194Y193406D02*
D03*
X173178D02*
D03*
X147194Y80906D02*
D03*
X173178D02*
D03*
X259694Y305906D02*
D03*
X285678D02*
D03*
X259694Y193406D02*
D03*
X285678D02*
D03*
X259694Y80906D02*
D03*
X285678D02*
D03*
D30*
X192000Y352500D02*
D03*
X197000D02*
D03*
X237000D02*
D03*
X242000D02*
D03*
X282000D02*
D03*
X287000D02*
D03*
X327000D02*
D03*
X332000D02*
D03*
D31*
X202000D02*
D03*
X247000D02*
D03*
X292000D02*
D03*
X337000D02*
D03*
M02*
