M48
;Layer_Color=9474304
;FILE_FORMAT=2:5
INCH,LZ
;TYPE=PLATED
T1F00S00C0.02559
T2F00S00C0.02800
T3F00S00C0.02953
T4F00S00C0.03000
T5F00S00C0.03543
%
T01
X0259694Y0080906
X0285678
X0173178
X0147194
X0060678
X0034694
Y0193406
Y0305906
X0060678
X0147194
X0173178
Y0193406
X0147194
X0060678
X0259694
X0285678
Y0305906
X0259694
T02
X0369Y0035099
Y0041063
X0367396Y005645
X037165
X0375904
X037535Y006505
X0371096
X0366841
X0369Y0082537
Y00885
X0370246Y0103302
X0365991
X03745
X037435Y0112802
X0370096
X0365841
X0369Y0129973
Y0135937
X0367341Y015265
X0371596
X037585
X0363Y0135937
Y0129973
X03326Y0138941
Y0142896
Y014685
X0315333Y0134098
X0302502Y0142499
X02916Y01119
X0287546
X0283391
X0279337
X0275283
X0271229
X0267124
X026307
X0259016
X0258816Y010367
X026287
X0266924
X0271029
X0275083
X0279137
X0283191
X0287346
X029145
X0298002Y0085799
X0308102Y0084198
X0330375Y00809
Y0076946
Y0072991
X033575Y0073291
Y0077246
Y00812
X0363Y0082537
Y00885
Y0041063
Y0035099
X033505Y0036346
Y0032241
X033075Y0030841
Y0034796
Y00389
X033505Y004045
X0315333Y0021599
X0302502Y0029998
X0303801Y0055299
X0280301Y0071999
X0259001Y0070599
X0244702Y0089698
X0243002Y0052999
X0244501Y0045199
X0246501Y0030198
X0264001Y0036198
X0223Y0035516
Y003962
Y0043674
Y0047729
Y0051783
Y0055837
Y0059941
Y0063996
Y00681
X02176Y00674
Y0063296
Y0059241
Y0055137
Y0051083
Y0047029
Y0042974
Y003892
Y0034816
X02181Y0148116
Y015222
X02248Y015177
Y0147666
X0246501Y0142699
X0264001Y0148698
X0202833Y0134098
X0190001Y0142499
X018115Y011235
X0177046
X0173041
X0169037
X0164983
X0160929
X0156774
X015277
X0148766
X0148366Y010475
X015237
X0156374
X0160529
X0164583
X0168637
X0172641
X0176646
X018075
X0185502Y0085799
X0195601Y0084198
X0191302Y0055299
X0190001Y0029998
X0202833Y0021599
X0151502Y0036198
X0134002Y0030198
X0132001Y0045199
X0130501Y0052999
X01113Y0051933
Y0055987
Y0060091
Y0064146
Y006825
X01058Y006855
Y0064446
Y0060391
Y0056287
Y0052233
Y0048179
Y0044124
Y004007
Y0035966
X01113Y0035666
Y003977
Y0043824
Y0047879
X0078802Y0055299
X0077501Y0029998
X0090333Y0021599
X0083101Y0084198
X0073001Y0085799
X006585Y01051
X0061796
X0057691
X0053687
X0054337Y011055
X0058491
X0062596
X00667
X0077501Y0142499
X0090333Y0134098
X01058Y0148883
Y0152987
X011155Y0149583
X0134002Y0142699
X0151502Y0148698
X0132202Y0089698
X0146502Y0070599
X0167801Y0071999
X0055301
X0034001Y0070599
X0019702Y0089698
X0033366Y01051
X003742
X0041474
X0045629
X0049683
X0050283Y011055
X0046179
X0041974
X003787
X0033766
X0039002Y0148698
X0021501Y0142699
X0018001Y0052999
X0019501Y0045199
X0021501Y0030198
X0039002Y0036198
X0019501Y0157699
X0018001Y0165498
X0034001Y0183098
X0019702Y0202199
X0033281Y02166
X0037336
X004139
X0045544
X0049549
X0050333Y022315
X0046329
X0042174
X003812
X0034066
X0039002Y0261198
X0021501Y0255199
X0019501Y0270198
X0018001Y0277998
X0034001Y0295599
X0055301Y0296999
X0083101Y0309198
X0078802Y0280298
X0077501Y0254998
X0090333Y0246599
X010605Y0261516
Y026557
Y0269674
Y0273729
Y0277783
Y0281837
Y0285891
Y0289946
Y0294
X011175Y02936
Y0289546
Y0285491
Y0281437
Y0277383
Y0273329
Y0269274
Y026517
Y0261116
X0134002Y0255199
X0132001Y0270198
X0130501Y0277998
X0146502Y0295599
X0167801Y0296999
X0195601Y0309198
X0191302Y0280298
X0190001Y0254998
X0202833Y0246599
X01793Y022395
X0175246
X0171241
X0167187
X0163133
X0159029
X0154974
X015097
X0146966
Y021745
X015097
X0154974
X0159029
X0163133
X0167187
X0171241
X0175246
X01793
X0185502Y0198299
X0195601Y0196698
X0191302Y0167798
X0167801Y0184499
X0146502Y0183098
X0132202Y0202199
X0130501Y0165498
X0132001Y0157699
X011155Y0157741
Y0153687
Y0161796
Y016585
Y0169904
Y0173959
Y0178013
Y0182117
X01058Y0181417
Y0177313
Y0173259
Y0169204
Y016515
Y0161096
Y0157041
X0078802Y0167798
X0083101Y0196698
X0073001Y0198299
X0065716Y02166
X0061661
X0057607
X0053553
X0054337Y022315
X0058441
X0062496
X006655
X0055301Y0184499
X0151502Y0261198
X021785Y0262999
Y0258944
Y0267053
Y0271157
Y0275212
Y0279266
Y028332
Y0287374
Y0291429
X022545Y02921
Y0288046
Y0283991
Y0279937
Y0275883
Y0271829
Y0267724
Y026367
Y0259616
X0246501Y0255199
X0244501Y0270198
X0243002Y0277998
X0259001Y0295599
X0280301Y0296999
X0308102Y0309198
X03321Y03025
Y0298596
X0303801Y0280298
X0302502Y0254998
X0315333Y0246599
X03324Y02472
Y0243296
X033225Y01959
Y0191946
X03324Y018795
Y0183959
X0308102Y0196698
X0298002Y0198299
X0294817Y021665
X0290663
X0286509
X0282454
X02784
X0274346
X0270291
X0266187
X0262133
X0261617Y022395
X0265637Y022375
X0269691
X0273796
X027785
X0281904
X0285959
X0290113
X0294267
X0280301Y0184499
X0259001Y0183098
X0244702Y0202199
X0243002Y0165498
X0244501Y0157699
X02248Y0155824
Y0159879
Y0163933
Y0167987
Y0172041
Y0176096
Y018015
X02181Y01806
Y0176546
Y0172491
Y0168437
Y0164383
Y0160329
Y0156274
X0303801Y0167798
X0264001Y0261198
X0368641Y0260437
X0372896
X037715
Y027045
X0372896
X0368641
X0368491Y022575
X0372746
X0377
X037755Y02171
X0373296
X0369041
X0367441Y017925
X0371696
X037595
X0298002Y0310799
X029655Y03298
X03023Y032985
X03071Y032965
X031175Y03297
X03145Y0338641
Y0342796
Y034695
X03053Y0347354
X030535Y03431
Y0338641
X0297884Y0334646
X0292884Y0334596
X0287634
X028505Y03298
X02906Y032985
X0270984Y0338491
Y0342646
X0270643Y034675
X026065Y03473
Y0343196
Y0339091
X02238Y0338341
Y0342496
Y03466
X0216049Y034675
Y0342646
Y0338491
X021645Y03776
X022285Y03773
X02614Y037775
X026645Y03779
X0244702Y0314699
X0185502Y0310799
X017755Y03306
X017255Y033045
X01679Y03303
X0163846
X0159791
X01583Y0339091
Y0343196
Y03473
X017875Y03478
Y0343646
Y0339491
X017935Y03777
X01583Y037755
X01135Y03777
X01024
X0102273Y034795
X0102136Y03431
X0102123Y03382
X0114573Y0338396
X0114623Y03433
X01146Y03479
X0124953Y0361854
X0131491Y033425
X013575Y03343
X013985Y03344
X01402Y03294
X01359Y032945
X0131641Y03294
X0132202Y0314699
X0073001Y0310799
X007345Y03298
X007785Y03297
X008275Y032965
X008305Y03341
X007765Y03345
X007315Y03347
X0069041Y033475
X0068891Y03297
X0057978Y0338596
X0058215Y03433
X00581Y03476
X0068976Y0361854
X005725Y037715
X004715Y037755
X00456Y03474
X0045115Y034325
X0045344Y0339
X00334Y033495
X00285Y03348
X002335Y0335
X00187Y033495
X001845Y032915
X002355Y03296
X00282Y03293
X003325Y03291
X0019702Y0314699
X0013Y0361854
T03
X0352Y01935
Y01985
Y02035
Y02385
Y02435
Y02485
Y02835
Y02885
Y02935
X0337Y03525
X0332
X0327
X0292
X0287
X0282
X0247
X0242
X0237
X0202
X0197
X0192
T04
X0271201Y0070999
X0158702
X0046202
Y0183499
Y0295999
X0158702
Y0183499
X0271201
Y0295999
T05
X0210102Y0040499
Y0050498
Y0060498
Y0070499
Y0080498
X0231902
Y0070499
Y0060498
Y0050498
Y0040499
X0243901Y0070499
Y0080498
X0322602
Y0070499
Y0060498
Y0050498
Y0040499
X03445Y0036563
Y0046563
Y0026563
Y0074
Y0084
Y0094
Y0121437
Y0131437
Y0141437
X0322602Y0152998
X0231902
X0210102
X0119402
X0097601
Y0080498
Y0070499
Y0060498
Y0050498
Y0040499
X0119402
Y0050498
Y0060498
Y0070499
Y0080498
X0131402
Y0070499
X0018902
Y0080498
X0006901
Y0070499
Y0060498
Y0050498
Y0040499
Y0152998
Y0162998
Y0172998
Y0182999
Y0192999
X0018902
Y0182999
X0006901Y0265498
Y0275499
Y0285498
Y0295498
Y0305499
X0018902
Y0295498
X0097601
Y0305499
Y0285498
Y0275499
Y0265498
X0119402
Y0275499
Y0285498
Y0295498
Y0305499
X0131402
Y0295498
Y0192999
Y0182999
X0119402
Y0172998
Y0162998
X0097601
Y0172998
Y0182999
Y0192999
X0119402
X0210102
Y0182999
Y0172998
Y0162998
X0231902
Y0172998
Y0182999
Y0192999
X0243901
Y0182999
X0322602
Y0192999
Y0172998
Y0162998
Y0265498
Y0275499
Y0285498
Y0295498
Y0305499
X0243901
Y0295498
X0231902
Y0285498
Y0275499
Y0265498
X0210102
Y0275499
Y0285498
Y0295498
Y0305499
X0231902
X0373Y0298
Y0288
Y0278
Y0253
Y0243
Y0233
Y0208
Y0198
Y0188
X03425Y03735
X03325
X03225
X02975
X02875
X02775
X02525
X02425
X02325
X02075
X01975
X01875
X0150953Y0374198
X0140953
X0130953
X0120953
X0094976
X0084976
X0074976
X0064976
X0039
X0029
X0019
X0009
M30
