G04*
G04 #@! TF.GenerationSoftware,Altium Limited,Altium Designer,19.0.11 (319)*
G04*
G04 Layer_Color=32768*
%FSLAX25Y25*%
%MOIN*%
G70*
G01*
G75*
%ADD15C,0.01000*%
D15*
X328450Y238950D02*
G03*
X313883Y224639I-128J-14439D01*
G01*
X215367Y239261D02*
G03*
X200800Y224950I-128J-14439D01*
G01*
X103500Y239550D02*
G03*
X88933Y225239I-128J-14439D01*
G01*
X103650Y126500D02*
G03*
X89083Y112189I-128J-14439D01*
G01*
X216050Y127511D02*
G03*
X201483Y113200I-128J-14439D01*
G01*
X328600Y127000D02*
G03*
X314033Y112689I-128J-14439D01*
G01*
X328750Y15011D02*
G03*
X314183Y700I-128J-14439D01*
G01*
X216000Y14811D02*
G03*
X201433Y500I-128J-14439D01*
G01*
X103967Y15211D02*
G03*
X89400Y900I-128J-14439D01*
G01*
X239311Y183D02*
G03*
X225000Y14750I-14439J128D01*
G01*
X15800Y50D02*
G03*
X1001Y14613I-14439J128D01*
G01*
X127826Y-337D02*
G03*
X113589Y15567I-14365J1465D01*
G01*
X128900Y112150D02*
G03*
X114589Y126717I-14439J128D01*
G01*
X241400Y112500D02*
G03*
X227089Y127067I-14439J128D01*
G01*
X240650Y225250D02*
G03*
X226339Y239817I-14439J128D01*
G01*
X127550Y225500D02*
G03*
X113239Y240067I-14439J128D01*
G01*
X15750Y225300D02*
G03*
X1439Y239867I-14439J128D01*
G01*
X15400Y112750D02*
G03*
X1089Y127317I-14439J128D01*
G01*
X89931Y103498D02*
G03*
X104200Y87950I14397J-1109D01*
G01*
X201989Y102267D02*
G03*
X216300Y87700I14439J-128D01*
G01*
X314389Y101950D02*
G03*
X328700Y87383I14439J-128D01*
G01*
X314388Y214117D02*
G03*
X328699Y199551I14439J-128D01*
G01*
X202189Y216000D02*
G03*
X216500Y201433I14439J-128D01*
G01*
X88939Y215550D02*
G03*
X103250Y200983I14439J-128D01*
G01*
X202389Y327267D02*
G03*
X216700Y312700I14439J-128D01*
G01*
X89289Y327617D02*
G03*
X103600Y313050I14439J-128D01*
G01*
X314439Y327517D02*
G03*
X328750Y312950I14439J-128D01*
G01*
X225500Y88500D02*
G03*
X240067Y102811I128J14439D01*
G01*
X114500Y89000D02*
G03*
X129067Y103311I128J14439D01*
G01*
X633Y87939D02*
G03*
X15200Y102250I128J14439D01*
G01*
X0Y200500D02*
G03*
X14567Y214811I128J14439D01*
G01*
X112933Y200539D02*
G03*
X127500Y214850I128J14439D01*
G01*
X225383Y200189D02*
G03*
X239950Y214500I128J14439D01*
G01*
X226033Y313000D02*
G03*
X240600Y327311I128J14439D01*
G01*
X114000Y313000D02*
G03*
X128567Y327311I128J14439D01*
G01*
X1000Y313500D02*
G03*
X15567Y327811I128J14439D01*
G01*
X15200Y102250D02*
Y103500D01*
X114000Y126450D02*
Y146550D01*
X104000Y71000D02*
X105300D01*
X112500Y89100D02*
X115250D01*
X226150Y145350D02*
X227000Y144500D01*
X183100Y104250D02*
X183850Y103500D01*
X201989Y102267D02*
Y103500D01*
X103500Y239550D02*
Y257500D01*
X103367Y201100D02*
X104500D01*
X127500Y214850D02*
Y216150D01*
X328600Y127000D02*
Y134100D01*
X334500Y150008D02*
Y181500D01*
Y150008D02*
X363000D01*
X313500Y374500D02*
X314500Y373500D01*
X225700Y294200D02*
Y312667D01*
X240600Y327311D02*
X241289Y328000D01*
X179229Y350500D02*
X180000Y351271D01*
X112500Y313000D02*
X114000D01*
X-1900Y198600D02*
X0Y200500D01*
X-850Y311650D02*
X1000Y313500D01*
X-850Y242156D02*
X1439Y239867D01*
X30500Y216000D02*
Y225500D01*
X-1900Y127050D02*
X822D01*
X-1250Y86056D02*
X633Y87939D01*
X-1250Y16864D02*
X1001Y14613D01*
X88500Y0D02*
X89400Y900D01*
X334500Y102000D02*
X335500Y103000D01*
X314439Y333939D02*
X315000Y334500D01*
X328750Y306828D02*
Y312950D01*
X305500Y349500D02*
X314500D01*
X305500Y374500D02*
X313500D01*
X260000Y350500D02*
X269500D01*
X260166Y375000D02*
X269709D01*
X215000Y350000D02*
X224000D01*
X215000Y374000D02*
X224000D01*
X282500Y328000D02*
Y335000D01*
X191000D02*
X259000D01*
X181000Y327500D02*
Y335000D01*
X158000Y350500D02*
X179229D01*
X158000Y373150D02*
X180000D01*
X142700Y328550D02*
Y335500D01*
X156000Y328950D02*
Y335500D01*
X155600Y328550D02*
X156000Y328950D01*
X142700Y328550D02*
X155600D01*
X129000Y327500D02*
Y336000D01*
X101997Y350000D02*
X114000D01*
X102063Y373937D02*
X113563D01*
X103850Y297250D02*
X112400D01*
X99000Y336000D02*
X115500D01*
X85500Y327500D02*
Y336000D01*
X65000Y328000D02*
Y336550D01*
X44500Y336500D02*
X59000D01*
X37300Y327523D02*
Y336500D01*
X45500Y350000D02*
X57500D01*
X45500Y373500D02*
X57500D01*
X3000Y381000D02*
X349000Y381000D01*
X334500Y334500D02*
X349000D01*
X314439Y328000D02*
Y333939D01*
X328750Y306828D02*
X328978Y306600D01*
X336250D01*
X335000Y271500D02*
X336000Y270500D01*
X335000Y271500D02*
Y293750D01*
X328500Y264050D02*
Y293750D01*
X335000D01*
X364500Y306500D02*
X380000D01*
X365500Y260050D02*
Y270500D01*
X328500Y249500D02*
X334500D01*
X328500D02*
Y264050D01*
X217000Y294500D02*
X225950D01*
X216550Y256350D02*
X225950D01*
X182100Y216900D02*
X183000Y216000D01*
X182100Y216900D02*
Y224950D01*
X258600Y214500D02*
Y224900D01*
X216050Y145350D02*
X226150D01*
X216500Y182300D02*
X225050D01*
X104500Y184950D02*
X112700D01*
X71000Y216000D02*
Y225200D01*
X144000Y216500D02*
Y225500D01*
X103000Y258000D02*
X112900D01*
X334600Y235100D02*
Y238950D01*
X328450D02*
X334600D01*
X314400Y213450D02*
Y216250D01*
X311200D02*
X314400D01*
X311200D02*
X311250Y216200D01*
X297500D02*
Y224250D01*
X365000Y214150D02*
Y226500D01*
X328827Y199550D02*
X334500D01*
X363000Y150008D02*
Y181500D01*
X328600Y134500D02*
X334500D01*
X328700Y84050D02*
X334450D01*
X293500Y102000D02*
Y112300D01*
X256650Y103950D02*
Y112550D01*
X256200Y103500D02*
X256650Y103950D01*
X239900Y103500D02*
X256200D01*
X361500Y103000D02*
Y112950D01*
X329400Y43150D02*
X335000D01*
X364000Y56500D02*
Y65000D01*
X334500Y66000D02*
X335500Y65000D01*
X329400Y69213D02*
X334287D01*
X215500Y70500D02*
X225000D01*
X183100Y104250D02*
Y112400D01*
X103750Y146550D02*
X114000D01*
X69000Y103500D02*
Y105900D01*
Y112000D01*
X145950Y104000D02*
Y112500D01*
X105300Y71000D02*
X112500D01*
X103800Y31400D02*
X113400D01*
X-1250Y16864D02*
Y86056D01*
X31000Y103500D02*
Y113000D01*
X-1900Y127050D02*
Y198600D01*
X-850Y242156D02*
Y311650D01*
X15567Y327500D02*
Y335567D01*
X328750Y27950D02*
X335000D01*
X223400Y33079D02*
X223750Y32729D01*
X216000Y32850D02*
X224650D01*
X239311Y250D02*
X313933Y250D01*
X16000Y-0D02*
X88500Y0D01*
X3000Y336500D02*
Y381000D01*
X71000Y225500D02*
X88656D01*
X297500Y224600D02*
X314100D01*
X113000Y240067D02*
Y257900D01*
X127550Y225500D02*
X144000D01*
X225950Y240067D02*
Y256350D01*
X240650Y224900D02*
X258600D01*
X182100Y224950D02*
X200800D01*
X216050Y239111D02*
Y256350D01*
X183000Y216000D02*
X202189D01*
X216500Y182300D02*
Y201433D01*
X293500Y112300D02*
X314033D01*
X241400Y112550D02*
X256650D01*
X216050Y127511D02*
Y145350D01*
X183100Y112400D02*
X201350D01*
X128900Y112500D02*
X145950D01*
X69000Y112000D02*
X89100D01*
X103750Y126500D02*
Y146550D01*
X89900Y103500D02*
X90375D01*
X104000Y71000D02*
Y87950D01*
X183850Y103500D02*
X201989D01*
X215500Y70500D02*
Y87550D01*
X328700Y84050D02*
Y87383D01*
X181000Y327500D02*
X202389D01*
X217000Y294500D02*
Y312300D01*
X103850Y297250D02*
Y313050D01*
X85500Y327500D02*
X89050D01*
X112400Y297250D02*
Y312900D01*
X241289Y328000D02*
X271500D01*
X225050Y183050D02*
Y200300D01*
X239950Y214500D02*
X258600D01*
X71000Y216000D02*
X88450D01*
X104500Y184950D02*
Y201100D01*
X112700Y184950D02*
Y200750D01*
X127150Y216500D02*
X144000D01*
X225000Y70500D02*
Y88500D01*
X129300Y103500D02*
X145950D01*
X112500Y71000D02*
Y89100D01*
X314500Y349500D02*
Y373500D01*
X315000Y334500D02*
X334500D01*
X349000D02*
Y337500D01*
Y381000D01*
X180000Y351271D02*
Y373150D01*
X329400Y43150D02*
Y69213D01*
X334500Y84000D02*
Y102000D01*
Y66000D02*
Y69000D01*
Y113000D02*
X361500D01*
X334500D02*
Y134500D01*
X335500Y65000D02*
X364000D01*
X335500Y56000D02*
X364000D01*
X335000Y55500D02*
X335500Y56000D01*
X335000Y43150D02*
Y55500D01*
Y17500D02*
Y27950D01*
Y17500D02*
X380000D01*
Y181000D01*
X334500Y199550D02*
Y214000D01*
Y249500D02*
Y259500D01*
X365500D01*
X334500Y226500D02*
Y235000D01*
X336250Y306600D02*
X364250D01*
X336000Y270500D02*
X365500D01*
X45500Y350000D02*
Y373500D01*
X58000Y350000D02*
Y373500D01*
X101997Y350000D02*
X102063Y373937D01*
X114000Y350000D02*
Y373937D01*
X158000Y350500D02*
Y373150D01*
X305500Y349500D02*
Y374500D01*
X215000Y350000D02*
Y374000D01*
X224500Y350000D02*
Y374000D01*
X260000Y350500D02*
X260166Y375000D01*
X269709D02*
X269994Y350506D01*
X225000Y14750D02*
Y32500D01*
X216000Y14811D02*
Y32850D01*
X15600Y225500D02*
X30500D01*
X37300Y336500D02*
X44500D01*
X69000Y103500D02*
X76125D01*
X90375D01*
X334500Y181500D02*
X363000D01*
X380000Y181000D02*
Y284000D01*
X271500Y328000D02*
X282500D01*
X334500Y214000D02*
X365000D01*
X334500Y226500D02*
X365000D01*
X259000Y335000D02*
X282500D01*
X248000D02*
X259000D01*
X181000D02*
X191000D01*
X142700Y335500D02*
X156000D01*
X85500Y336000D02*
X99000D01*
X115500D02*
X129000D01*
X297500Y216200D02*
X311250D01*
X59000Y336500D02*
X65000D01*
X37322Y327523D02*
X65000Y328000D01*
X3000Y336000D02*
X15567D01*
X14567Y215500D02*
X31000D01*
X335500Y103000D02*
X361500D01*
X293500Y102000D02*
X314389D01*
X227000Y127067D02*
Y144500D01*
X113500Y15567D02*
Y31500D01*
X103800Y15350D02*
Y31400D01*
X15200Y103500D02*
X31000D01*
X15400Y113000D02*
X31000D01*
X328750Y15011D02*
Y27950D01*
X380000Y181000D02*
Y250000D01*
Y258000D02*
Y276000D01*
Y284000D02*
Y306500D01*
X127950Y-350D02*
X147950D01*
X201436Y44D01*
M02*
