  0
SECTION
  2
HEADER
  9
$ACADVER
  1
AC1015
  9
$ACADMAINTVER
 70
     6
  9
$DWGCODEPAGE
  3
ANSI_1252
  9
$INSBASE
 10
0.0
 20
0.0
 30
0.0
  9
$EXTMIN
 10
0.0
 20
0.0
 30
0.0
  9
$EXTMAX
 10
594.0
 20
420.0
 30
0.0
  9
$LIMMIN
 10
0.0
 20
0.0
  9
$LIMMAX
 10
594.0
 20
420.0
  9
$ORTHOMODE
 70
     0
  9
$REGENMODE
 70
     1
  9
$FILLMODE
 70
     1
  9
$QTEXTMODE
 70
     0
  9
$MIRRTEXT
 70
     1
  9
$LTSCALE
 40
2.0
  9
$ATTMODE
 70
     1
  9
$TEXTSIZE
 40
7.0
  9
$TRACEWID
 40
1.0
  9
$TEXTSTYLE
  7
Standard
  9
$CLAYER
  8
0
  9
$CELTYPE
  6
ByLayer
  9
$CECOLOR
 62
   256
  9
$CELTSCALE
 40
1.0
  9
$DISPSILH
 70
     0
  9
$DIMSCALE
 40
1.0
  9
$DIMASZ
 40
6.604
  9
$DIMEXO
 40
2.0
  9
$DIMDLI
 40
3.75
  9
$DIMRND
 40
0.0
  9
$DIMDLE
 40
0.0
  9
$DIMEXE
 40
2.0
  9
$DIMTP
 40
0.0
  9
$DIMTM
 40
0.0
  9
$DIMTXT
 40
7.0
  9
$DIMCEN
 40
2.5
  9
$DIMTSZ
 40
0.0
  9
$DIMTOL
 70
     0
  9
$DIMLIM
 70
     0
  9
$DIMTIH
 70
     1
  9
$DIMTOH
 70
     1
  9
$DIMSE1
 70
     0
  9
$DIMSE2
 70
     0
  9
$DIMTAD
 70
     1
  9
$DIMZIN
 70
     1
  9
$DIMBLK
  1

  9
$DIMASO
 70
     1
  9
$DIMSHO
 70
     1
  9
$DIMPOST
  1

  9
$DIMAPOST
  1

  9
$DIMALT
 70
     0
  9
$DIMALTD
 70
     3
  9
$DIMALTF
 40
0.0393700787
  9
$DIMLFAC
 40
1.0
  9
$DIMTOFL
 70
     1
  9
$DIMTVP
 40
0.0
  9
$DIMTIX
 70
     0
  9
$DIMSOXD
 70
     0
  9
$DIMSAH
 70
     0
  9
$DIMBLK1
  1

  9
$DIMBLK2
  1

  9
$DIMSTYLE
  2
ISO-25
  9
$DIMCLRD
 70
     0
  9
$DIMCLRE
 70
     0
  9
$DIMCLRT
 70
     0
  9
$DIMTFAC
 40
1.0
  9
$DIMGAP
 40
3.048
  9
$DIMJUST
 70
     0
  9
$DIMSD1
 70
     0
  9
$DIMSD2
 70
     0
  9
$DIMTOLJ
 70
     0
  9
$DIMTZIN
 70
     1
  9
$DIMALTZ
 70
     0
  9
$DIMALTTZ
 70
     0
  9
$DIMUPT
 70
     0
  9
$DIMDEC
 70
     2
  9
$DIMTDEC
 70
     2
  9
$DIMALTU
 70
     2
  9
$DIMALTTD
 70
     3
  9
$DIMTXSTY
  7
Standard
  9
$DIMAUNIT
 70
     0
  9
$DIMADEC
 70
     2
  9
$DIMALTRND
 40
0.0
  9
$DIMAZIN
 70
     0
  9
$DIMDSEP
 70
    44
  9
$DIMATFIT
 70
     3
  9
$DIMFRAC
 70
     0
  9
$DIMLDRBLK
  1

  9
$DIMLUNIT
 70
     2
  9
$DIMLWD
 70
    -2
  9
$DIMLWE
 70
    -2
  9
$DIMTMOVE
 70
     0
  9
$LUNITS
 70
     2
  9
$LUPREC
 70
     2
  9
$SKETCHINC
 40
1.0
  9
$FILLETRAD
 40
10.0
  9
$AUNITS
 70
     0
  9
$AUPREC
 70
     2
  9
$MENU
  1
.
  9
$ELEVATION
 40
0.0
  9
$PELEVATION
 40
0.0
  9
$THICKNESS
 40
0.0
  9
$LIMCHECK
 70
     0
  9
$CHAMFERA
 40
0.0
  9
$CHAMFERB
 40
0.0
  9
$CHAMFERC
 40
0.0
  9
$CHAMFERD
 40
0.0
  9
$SKPOLY
 70
     0
  9
$TDCREATE
 40
2459059.416887407
  9
$TDUCREATE
 40
2459059.625220741
  9
$TDUPDATE
 40
2459059.416902268
  9
$TDUUPDATE
 40
2459059.625235602
  9
$TDINDWG
 40
0.0000000116
  9
$TDUSRTIMER
 40
0.0000000116
  9
$USRTIMER
 70
     1
  9
$ANGBASE
 50
0.0
  9
$ANGDIR
 70
     0
  9
$PDMODE
 70
     0
  9
$PDSIZE
 40
-1.0
  9
$PLINEWID
 40
0.0
  9
$SPLFRAME
 70
     0
  9
$SPLINETYPE
 70
     6
  9
$SPLINESEGS
 70
     8
  9
$HANDSEED
  5
235
  9
$SURFTAB1
 70
     6
  9
$SURFTAB2
 70
     6
  9
$SURFTYPE
 70
     6
  9
$SURFU
 70
     6
  9
$SURFV
 70
     6
  9
$UCSBASE
  2

  9
$UCSNAME
  2

  9
$UCSORG
 10
0.0
 20
0.0
 30
0.0
  9
$UCSXDIR
 10
1.0
 20
0.0
 30
0.0
  9
$UCSYDIR
 10
0.0
 20
1.0
 30
0.0
  9
$UCSORTHOREF
  2

  9
$UCSORTHOVIEW
 70
     0
  9
$UCSORGTOP
 10
0.0
 20
0.0
 30
0.0
  9
$UCSORGBOTTOM
 10
0.0
 20
0.0
 30
0.0
  9
$UCSORGLEFT
 10
0.0
 20
0.0
 30
0.0
  9
$UCSORGRIGHT
 10
0.0
 20
0.0
 30
0.0
  9
$UCSORGFRONT
 10
0.0
 20
0.0
 30
0.0
  9
$UCSORGBACK
 10
0.0
 20
0.0
 30
0.0
  9
$PUCSBASE
  2

  9
$PUCSNAME
  2

  9
$PUCSORG
 10
0.0
 20
0.0
 30
0.0
  9
$PUCSXDIR
 10
1.0
 20
0.0
 30
0.0
  9
$PUCSYDIR
 10
0.0
 20
1.0
 30
0.0
  9
$PUCSORTHOREF
  2

  9
$PUCSORTHOVIEW
 70
     0
  9
$PUCSORGTOP
 10
0.0
 20
0.0
 30
0.0
  9
$PUCSORGBOTTOM
 10
0.0
 20
0.0
 30
0.0
  9
$PUCSORGLEFT
 10
0.0
 20
0.0
 30
0.0
  9
$PUCSORGRIGHT
 10
0.0
 20
0.0
 30
0.0
  9
$PUCSORGFRONT
 10
0.0
 20
0.0
 30
0.0
  9
$PUCSORGBACK
 10
0.0
 20
0.0
 30
0.0
  9
$USERI1
 70
     0
  9
$USERI2
 70
     0
  9
$USERI3
 70
     0
  9
$USERI4
 70
     0
  9
$USERI5
 70
     0
  9
$USERR1
 40
0.0
  9
$USERR2
 40
0.0
  9
$USERR3
 40
0.0
  9
$USERR4
 40
0.0
  9
$USERR5
 40
0.0
  9
$WORLDVIEW
 70
     1
  9
$SHADEDGE
 70
     3
  9
$SHADEDIF
 70
    70
  9
$TILEMODE
 70
     1
  9
$MAXACTVP
 70
    64
  9
$PINSBASE
 10
0.0
 20
0.0
 30
0.0
  9
$PLIMCHECK
 70
     0
  9
$PEXTMIN
 10
1.0000000000E+20
 20
1.0000000000E+20
 30
1.0000000000E+20
  9
$PEXTMAX
 10
-1.0000000000E+20
 20
-1.0000000000E+20
 30
-1.0000000000E+20
  9
$PLIMMIN
 10
0.0
 20
0.0
  9
$PLIMMAX
 10
420.0
 20
297.0
  9
$UNITMODE
 70
     0
  9
$VISRETAIN
 70
     1
  9
$PLINEGEN
 70
     0
  9
$PSLTSCALE
 70
     1
  9
$TREEDEPTH
 70
  3020
  9
$CMLSTYLE
  2
Standard
  9
$CMLJUST
 70
     0
  9
$CMLSCALE
 40
20.0
  9
$PROXYGRAPHICS
 70
     1
  9
$MEASUREMENT
 70
     1
  9
$CELWEIGHT
370
    -1
  9
$ENDCAPS
280
     0
  9
$JOINSTYLE
280
     0
  9
$LWDISPLAY
290
     1
  9
$INSUNITS
 70
     4
  9
$HYPERLINKBASE
  1

  9
$STYLESHEET
  1

  9
$XEDIT
290
     1
  9
$CEPSNTYPE
380
     0
  9
$PSTYLEMODE
290
     1
  9
$FINGERPRINTGUID
  2
{2657FBAC-F28F-43BE-ADF7-F0BB9D40A061}
  9
$VERSIONGUID
  2
{FAEB1C32-E019-11D5-929B-00C0DF256EC4}
  9
$EXTNAMES
290
     1
  9
$PSVPSCALE
 40
0.0
  9
$OLESTARTUP
290
     0
  0
ENDSEC
  0
SECTION
  2
CLASSES
  0
CLASS
  1
ACDBDICTIONARYWDFLT
  2
AcDbDictionaryWithDefault
  3
ObjectDBX Classes
 90
        0
280
     0
281
     0
  0
CLASS
  1
VISUALSTYLE
  2
AcDbVisualStyle
  3
ObjectDBX Classes
 90
     4095
280
     0
281
     0
  0
CLASS
  1
MATERIAL
  2
AcDbMaterial
  3
ObjectDBX Classes
 90
     1153
280
     0
281
     0
  0
CLASS
  1
SCALE
  2
AcDbScale
  3
ObjectDBX Classes
 90
     1153
280
     0
281
     0
  0
CLASS
  1
TABLESTYLE
  2
AcDbTableStyle
  3
ObjectDBX Classes
 90
     4095
280
     0
281
     0
  0
CLASS
  1
MLEADERSTYLE
  2
AcDbMLeaderStyle
  3
ACDB_MLEADERSTYLE_CLASS
 90
     4095
280
     0
281
     0
  0
CLASS
  1
SUN
  2
AcDbSun
  3
SCENEOE
 90
     1153
280
     0
281
     0
  0
CLASS
  1
ACDBPLACEHOLDER
  2
AcDbPlaceHolder
  3
ObjectDBX Classes
 90
        0
280
     0
281
     0
  0
CLASS
  1
LAYOUT
  2
AcDbLayout
  3
ObjectDBX Classes
 90
        0
280
     0
281
     0
  0
ENDSEC
  0
SECTION
  2
TABLES
  0
TABLE
  2
VPORT
  5
8
330
0
100
AcDbSymbolTable
 70
     1
  0
VPORT
  5
29
330
8
100
AcDbSymbolTableRecord
100
AcDbViewportTableRecord
  2
*Active
 70
     0
 10
0.0
 20
0.0
 11
1.0
 21
1.0
 12
297.0
 22
210.0
 13
0.0
 23
0.0
 14
10.0
 24
10.0
 15
10.0
 25
10.0
 16
0.0
 26
0.0
 36
1.0
 17
0.0
 27
0.0
 37
0.0
 40
420.0
 41
1.4142857143
 42
50.0
 43
0.0
 44
0.0
 50
0.0
 51
0.0
 71
     0
 72
  2000
 73
     1
 74
     3
 75
     0
 76
     0
 77
     0
 78
     0
281
     0
 65
     1
110
0.0
120
0.0
130
0.0
111
1.0
121
0.0
131
0.0
112
0.0
122
1.0
132
0.0
 79
     0
146
0.0
  0
ENDTAB
  0
TABLE
  2
LTYPE
  5
5
330
0
100
AcDbSymbolTable
 70
     6
  0
LTYPE
  5
14
330
5
100
AcDbSymbolTableRecord
100
AcDbLinetypeTableRecord
  2
ByBlock
 70
     0
  3

 72
    65
 73
     0
 40
0.0
  0
LTYPE
  5
15
330
5
100
AcDbSymbolTableRecord
100
AcDbLinetypeTableRecord
  2
ByLayer
 70
     0
  3

 72
    65
 73
     0
 40
0.0
  0
LTYPE
  5
16
330
5
100
AcDbSymbolTableRecord
100
AcDbLinetypeTableRecord
  2
Continuous
 70
     0
  3
Solid line
 72
    65
 73
     0
 40
0.0
  0
LTYPE
  5
6E
330
5
100
AcDbSymbolTableRecord
100
AcDbLinetypeTableRecord
  2
HIDDEN
 70
     0
  3
Hidden __ __ __ __ __ __ __ __ __ __ __ __ __ __
 72
    65
 73
     2
 40
1.905
 49
1.27
 74
     0
 49
-0.635
 74
     0
  0
LTYPE
  5
6F
330
5
100
AcDbSymbolTableRecord
100
AcDbLinetypeTableRecord
  2
PHANTOM
 70
     0
  3
Phantom ______  __  __  ______  __  __  ______
 72
    65
 73
     6
 40
12.7
 49
6.35
 74
     0
 49
-1.27
 74
     0
 49
1.27
 74
     0
 49
-1.27
 74
     0
 49
1.27
 74
     0
 49
-1.27
 74
     0
  0
LTYPE
  5
70
330
5
100
AcDbSymbolTableRecord
100
AcDbLinetypeTableRecord
  2
CENTER
 70
     0
  3
Center ____ _ ____ _ ____ _ ____ _ ____ _ ____
 72
    65
 73
     4
 40
10.16
 49
6.35
 74
     0
 49
-1.27
 74
     0
 49
1.27
 74
     0
 49
-1.27
 74
     0
  0
LTYPE
  5
71
330
5
100
AcDbSymbolTableRecord
100
AcDbLinetypeTableRecord
  2
CENTERX2
 70
     0
  3
Center (2x) ________  __  ________  __  _____
 72
    65
 73
     4
 40
20.32
 49
12.7
 74
     0
 49
-2.54
 74
     0
 49
2.54
 74
     0
 49
-2.54
 74
     0
  0
LTYPE
  5
72
330
5
100
AcDbSymbolTableRecord
100
AcDbLinetypeTableRecord
  2
DOT2
 70
     0
  3
Dot (.5x) ........................................
 72
    65
 73
     2
 40
0.635
 49
0.0
 74
     0
 49
-0.635
 74
     0
  0
ENDTAB
  0
TABLE
  2
LAYER
  5
2
330
0
100
AcDbSymbolTable
 70
     1
  0
LAYER
  5
10
330
2
100
AcDbSymbolTableRecord
100
AcDbLayerTableRecord
  2
0
 70
     0
 62
     7
  6
Continuous
370
    -3
390
F
  0
ENDTAB
  0
TABLE
  2
STYLE
  5
3
330
0
100
AcDbSymbolTable
 70
     3
  0
STYLE
  5
11
330
3
100
AcDbSymbolTableRecord
100
AcDbTextStyleTableRecord
  2
Standard
 70
     0
 40
0.0
 41
1.0
 50
0.0
 71
     0
 42
7.0
  3
txt
  4

  0
STYLE
  5
7F
330
3
100
AcDbSymbolTableRecord
100
AcDbTextStyleTableRecord
  2
SLDTEXTSTYLE0
 70
     0
 40
0.0
 41
0.6607142857
 50
0.0
 71
     0
 42
7.0
  3
TXT
  4

  0
STYLE
  5
22F
330
3
100
AcDbSymbolTableRecord
100
AcDbTextStyleTableRecord
  2
SLDTEXTSTYLE1
 70
     0
 40
0.0
 41
0.6458333333
 50
0.0
 71
     0
 42
7.0
  3
TXT
  4

  0
ENDTAB
  0
TABLE
  2
VIEW
  5
6
330
0
100
AcDbSymbolTable
 70
     0
  0
ENDTAB
  0
TABLE
  2
UCS
  5
7
330
0
100
AcDbSymbolTable
 70
     0
  0
ENDTAB
  0
TABLE
  2
APPID
  5
9
330
0
100
AcDbSymbolTable
 70
     1
  0
APPID
  5
12
330
9
100
AcDbSymbolTableRecord
100
AcDbRegAppTableRecord
  2
ACAD
 70
     0
  0
ENDTAB
  0
TABLE
  2
DIMSTYLE
  5
A
330
0
100
AcDbSymbolTable
 70
     1
100
AcDbDimStyleTable
  0
DIMSTYLE
105
27
330
A
100
AcDbSymbolTableRecord
100
AcDbDimStyleTableRecord
  2
ISO-25
 70
     0
 41
2.5
 42
0.625
 43
3.75
 44
1.25
 73
     0
 74
     0
 77
     1
 78
     8
140
2.5
141
2.5
143
0.0393700787
147
0.625
171
     3
172
     1
178
     0
271
     2
272
     2
274
     3
278
    44
283
     0
284
     8
340
11
  0
ENDTAB
  0
TABLE
  2
BLOCK_RECORD
  5
1
330
0
100
AcDbSymbolTable
 70
     4
  0
BLOCK_RECORD
  5
1F
330
1
100
AcDbSymbolTableRecord
100
AcDbBlockTableRecord
  2
*Model_Space
340
22
  0
BLOCK_RECORD
  5
1B
330
1
100
AcDbSymbolTableRecord
100
AcDbBlockTableRecord
  2
*Paper_Space
340
1E
  0
BLOCK_RECORD
  5
23
330
1
100
AcDbSymbolTableRecord
100
AcDbBlockTableRecord
  2
*Paper_Space0
340
26
  0
BLOCK_RECORD
  5
82
330
1
100
AcDbSymbolTableRecord
100
AcDbBlockTableRecord
  2
SW_CENTERMARKSYMBOL_11
340
0
102
{BLKREFS
331
8D
102
}
  0
BLOCK_RECORD
  5
8E
330
1
100
AcDbSymbolTableRecord
100
AcDbBlockTableRecord
  2
SW_CENTERMARKSYMBOL_12
340
0
102
{BLKREFS
331
99
102
}
  0
BLOCK_RECORD
  5
A4
330
1
100
AcDbSymbolTableRecord
100
AcDbBlockTableRecord
  2
SW_CENTERMARKSYMBOL_13
340
0
102
{BLKREFS
331
AF
102
}
  0
ENDTAB
  0
ENDSEC
  0
SECTION
  2
BLOCKS
  0
BLOCK
  5
20
330
1F
100
AcDbEntity
  8
0
100
AcDbBlockBegin
  2
*Model_Space
 70
     0
 10
0.0
 20
0.0
 30
0.0
  3
*Model_Space
  1

  0
ENDBLK
  5
21
330
1F
100
AcDbEntity
  8
0
100
AcDbBlockEnd
  0
BLOCK
  5
1C
330
1B
100
AcDbEntity
 67
     1
  8
0
100
AcDbBlockBegin
  2
*Paper_Space
 70
     0
 10
0.0
 20
0.0
 30
0.0
  3
*Paper_Space
  1

  0
ENDBLK
  5
1D
330
1B
100
AcDbEntity
 67
     1
  8
0
100
AcDbBlockEnd
  0
BLOCK
  5
24
330
23
100
AcDbEntity
  8
0
100
AcDbBlockBegin
  2
*Paper_Space0
 70
     0
 10
0.0
 20
0.0
 30
0.0
  3
*Paper_Space0
  1

  0
ENDBLK
  5
25
330
23
100
AcDbEntity
  8
0
100
AcDbBlockEnd
  0
BLOCK
  5
83
330
82
100
AcDbEntity
  8
0
100
AcDbBlockBegin
  2
SW_CENTERMARKSYMBOL_11
 70
     0
 10
0.0
 20
0.0
 30
0.0
  3
SW_CENTERMARKSYMBOL_11
  1

  0
LINE
  5
85
330
82
100
AcDbEntity
  8
0
  6
Continuous
 62
     0
370
     0
100
AcDbLine
 10
0.0
 20
0.0
 30
0.0
 11
0.0
 21
2.5
 31
0.0
  0
LINE
  5
86
330
82
100
AcDbEntity
  8
0
  6
Continuous
 62
     0
370
     0
100
AcDbLine
 10
0.0
 20
0.0
 30
0.0
 11
-2.5
 21
0.0
 31
0.0
  0
LINE
  5
87
330
82
100
AcDbEntity
  8
0
  6
Continuous
 62
     0
370
     0
100
AcDbLine
 10
0.0
 20
0.0
 30
0.0
 11
0.0
 21
-2.5
 31
0.0
  0
LINE
  5
88
330
82
100
AcDbEntity
  8
0
  6
Continuous
 62
     0
370
     0
100
AcDbLine
 10
0.0
 20
0.0
 30
0.0
 11
2.5
 21
0.0
 31
0.0
  0
LINE
  5
89
330
82
100
AcDbEntity
  8
0
  6
Continuous
 62
     0
370
     0
100
AcDbLine
 10
0.0
 20
2.5
 30
0.0
 11
0.0
 21
5.0
 31
0.0
  0
LINE
  5
8A
330
82
100
AcDbEntity
  8
0
  6
Continuous
 62
     0
370
     0
100
AcDbLine
 10
-2.5
 20
0.0
 30
0.0
 11
-5.0
 21
0.0
 31
0.0
  0
LINE
  5
8B
330
82
100
AcDbEntity
  8
0
  6
Continuous
 62
     0
370
     0
100
AcDbLine
 10
0.0
 20
-2.5
 30
0.0
 11
0.0
 21
-5.0
 31
0.0
  0
LINE
  5
8C
330
82
100
AcDbEntity
  8
0
  6
Continuous
 62
     0
370
     0
100
AcDbLine
 10
2.5
 20
0.0
 30
0.0
 11
5.0
 21
0.0
 31
0.0
  0
ENDBLK
  5
84
330
82
100
AcDbEntity
  8
0
100
AcDbBlockEnd
  0
BLOCK
  5
8F
330
8E
100
AcDbEntity
  8
0
100
AcDbBlockBegin
  2
SW_CENTERMARKSYMBOL_12
 70
     0
 10
0.0
 20
0.0
 30
0.0
  3
SW_CENTERMARKSYMBOL_12
  1

  0
LINE
  5
91
330
8E
100
AcDbEntity
  8
0
  6
Continuous
 62
     0
370
     0
100
AcDbLine
 10
0.0
 20
0.0
 30
0.0
 11
0.0
 21
2.5
 31
0.0
  0
LINE
  5
92
330
8E
100
AcDbEntity
  8
0
  6
Continuous
 62
     0
370
     0
100
AcDbLine
 10
0.0
 20
0.0
 30
0.0
 11
-2.5
 21
0.0
 31
0.0
  0
LINE
  5
93
330
8E
100
AcDbEntity
  8
0
  6
Continuous
 62
     0
370
     0
100
AcDbLine
 10
0.0
 20
0.0
 30
0.0
 11
0.0
 21
-2.5
 31
0.0
  0
LINE
  5
94
330
8E
100
AcDbEntity
  8
0
  6
Continuous
 62
     0
370
     0
100
AcDbLine
 10
0.0
 20
0.0
 30
0.0
 11
2.5
 21
0.0
 31
0.0
  0
LINE
  5
95
330
8E
100
AcDbEntity
  8
0
  6
Continuous
 62
     0
370
     0
100
AcDbLine
 10
0.0
 20
2.5
 30
0.0
 11
0.0
 21
5.0
 31
0.0
  0
LINE
  5
96
330
8E
100
AcDbEntity
  8
0
  6
Continuous
 62
     0
370
     0
100
AcDbLine
 10
-2.5
 20
0.0
 30
0.0
 11
-5.0
 21
0.0
 31
0.0
  0
LINE
  5
97
330
8E
100
AcDbEntity
  8
0
  6
Continuous
 62
     0
370
     0
100
AcDbLine
 10
0.0
 20
-2.5
 30
0.0
 11
0.0
 21
-5.0
 31
0.0
  0
LINE
  5
98
330
8E
100
AcDbEntity
  8
0
  6
Continuous
 62
     0
370
     0
100
AcDbLine
 10
2.5
 20
0.0
 30
0.0
 11
5.0
 21
0.0
 31
0.0
  0
ENDBLK
  5
90
330
8E
100
AcDbEntity
  8
0
100
AcDbBlockEnd
  0
BLOCK
  5
A5
330
A4
100
AcDbEntity
  8
0
100
AcDbBlockBegin
  2
SW_CENTERMARKSYMBOL_13
 70
     0
 10
0.0
 20
0.0
 30
0.0
  3
SW_CENTERMARKSYMBOL_13
  1

  0
LINE
  5
A7
330
A4
100
AcDbEntity
  8
0
  6
Continuous
 62
     0
370
     0
100
AcDbLine
 10
0.0
 20
0.0
 30
0.0
 11
0.0
 21
2.5
 31
0.0
  0
LINE
  5
A8
330
A4
100
AcDbEntity
  8
0
  6
Continuous
 62
     0
370
     0
100
AcDbLine
 10
0.0
 20
0.0
 30
0.0
 11
-2.5
 21
0.0
 31
0.0
  0
LINE
  5
A9
330
A4
100
AcDbEntity
  8
0
  6
Continuous
 62
     0
370
     0
100
AcDbLine
 10
0.0
 20
0.0
 30
0.0
 11
0.0
 21
-2.5
 31
0.0
  0
LINE
  5
AA
330
A4
100
AcDbEntity
  8
0
  6
Continuous
 62
     0
370
     0
100
AcDbLine
 10
0.0
 20
0.0
 30
0.0
 11
2.5
 21
0.0
 31
0.0
  0
LINE
  5
AB
330
A4
100
AcDbEntity
  8
0
  6
Continuous
 62
     0
370
     0
100
AcDbLine
 10
0.0
 20
2.5
 30
0.0
 11
0.0
 21
5.0
 31
0.0
  0
LINE
  5
AC
330
A4
100
AcDbEntity
  8
0
  6
Continuous
 62
     0
370
     0
100
AcDbLine
 10
-2.5
 20
0.0
 30
0.0
 11
-5.0
 21
0.0
 31
0.0
  0
LINE
  5
AD
330
A4
100
AcDbEntity
  8
0
  6
Continuous
 62
     0
370
     0
100
AcDbLine
 10
0.0
 20
-2.5
 30
0.0
 11
0.0
 21
-5.0
 31
0.0
  0
LINE
  5
AE
330
A4
100
AcDbEntity
  8
0
  6
Continuous
 62
     0
370
     0
100
AcDbLine
 10
2.5
 20
0.0
 30
0.0
 11
5.0
 21
0.0
 31
0.0
  0
ENDBLK
  5
A6
330
A4
100
AcDbEntity
  8
0
100
AcDbBlockEnd
  0
ENDSEC
  0
SECTION
  2
ENTITIES
  0
LINE
  5
73
330
1F
100
AcDbEntity
  8
0
  6
CENTERX2
 62
     7
100
AcDbLine
 10
417.0898902843
 20
208.4000554208
 30
0.0
 11
440.6345588031
 21
208.4000554208
 31
0.0
  0
LINE
  5
74
330
1F
100
AcDbEntity
  8
0
  6
CENTERX2
 62
     7
100
AcDbLine
 10
417.0898902843
 20
197.8009405633
 30
0.0
 11
440.6345588031
 21
197.8009405633
 31
0.0
  0
CIRCLE
  5
75
330
1F
100
AcDbEntity
  8
0
  6
Continuous
 62
     7
370
    25
100
AcDbCircle
 10
433.1345588031
 20
182.5013831345
 30
0.0
 40
2.500000000000057
  0
LINE
  5
76
330
1F
100
AcDbEntity
  8
0
  6
Continuous
 62
     7
370
    25
100
AcDbLine
 10
417.5452217655
 20
209.4996128496
 30
0.0
 11
416.6345588031
 21
207.3004979921
 31
0.0
  0
ARC
  5
77
330
1F
100
AcDbEntity
  8
0
  6
Continuous
 62
     7
370
    25
100
AcDbCircle
 10
433.1345588031
 20
223.6996128496
 30
0.0
 40
7.500000000000057
100
AcDbArc
 50
0.0
 51
153.1640626161
  0
LINE
  5
78
330
1F
100
AcDbEntity
  8
0
  6
Continuous
 62
     7
370
    25
100
AcDbLine
 10
440.6345588031
 20
223.6996128496
 30
0.0
 11
440.6345588031
 21
182.5013831345
 31
0.0
  0
ARC
  5
79
330
1F
100
AcDbEntity
  8
0
  6
Continuous
 62
     7
370
    25
100
AcDbCircle
 10
433.1345588031
 20
182.5013831345
 30
0.0
 40
7.500000000000057
100
AcDbArc
 50
206.8359373839
 51
0.0
  0
LINE
  5
7A
330
1F
100
AcDbEntity
  8
0
  6
Continuous
 62
     7
370
    25
100
AcDbLine
 10
417.5452217655
 20
196.7013831345
 30
0.0
 11
426.4422874961
 21
179.1156033493
 31
0.0
  0
LINE
  5
7B
330
1F
100
AcDbEntity
  8
0
  6
Continuous
 62
     7
370
    25
100
AcDbLine
 10
416.6345588031
 20
198.9004979921
 30
0.0
 11
417.5452217655
 21
196.7013831345
 31
0.0
  0
LINE
  5
7C
330
1F
100
AcDbEntity
  8
0
  6
Continuous
 62
     7
370
    25
100
AcDbLine
 10
416.6345588031
 20
207.3004979921
 30
0.0
 11
416.6345588031
 21
198.9004979921
 31
0.0
  0
LINE
  5
7D
330
1F
100
AcDbEntity
  8
0
  6
Continuous
 62
     7
370
    25
100
AcDbLine
 10
417.5452217655
 20
209.4996128496
 30
0.0
 11
426.4422874961
 21
227.0853926348
 31
0.0
  0
CIRCLE
  5
7E
330
1F
100
AcDbEntity
  8
0
  6
Continuous
 62
     7
370
    25
100
AcDbCircle
 10
433.1345588031
 20
223.6996128496
 30
0.0
 40
2.500000000000057
  0
MTEXT
  5
80
330
1F
100
AcDbEntity
  8
0
  6
Continuous
 62
     7
370
     0
100
AcDbMText
 10
427.2021562403
 20
217.366849533
 30
0.0
 40
7.0
 41
0.0
 71
     2
 72
     1
  1
DOWN  90°  R 1
  7
SLDTEXTSTYLE0
 73
     1
 44
1.0
  0
MTEXT
  5
81
330
1F
100
AcDbEntity
  8
0
  6
Continuous
 62
     7
370
     0
100
AcDbMText
 10
429.1606805741
 20
196.8579119007
 30
0.0
 40
7.0
 41
0.0
 71
     2
 72
     1
  1
DOWN  90°  R 1
  7
SLDTEXTSTYLE0
 73
     1
 44
1.0
  0
INSERT
  5
8D
330
1F
100
AcDbEntity
  8
0
  6
Continuous
 62
     7
370
     0
100
AcDbBlockReference
  2
SW_CENTERMARKSYMBOL_11
 10
433.1345588031
 20
223.6996128496
 30
0.0
  0
INSERT
  5
99
330
1F
100
AcDbEntity
  8
0
  6
Continuous
 62
     7
370
     0
100
AcDbBlockReference
  2
SW_CENTERMARKSYMBOL_12
 10
433.1345588031
 20
182.5013831345
 30
0.0
  0
LINE
  5
9A
330
1F
100
AcDbEntity
  8
0
  6
Continuous
 62
     7
370
    25
100
AcDbLine
 10
513.399697679
 20
185.7140810686
 30
0.0
 11
490.3103606414
 21
185.7140810686
 31
0.0
  0
LINE
  5
9B
330
1F
100
AcDbEntity
  8
0
  6
Continuous
 62
     7
370
    25
100
AcDbLine
 10
489.399697679
 20
187.5140810686
 30
0.0
 11
490.3103606414
 21
185.7140810686
 31
0.0
  0
LINE
  5
9C
330
1F
100
AcDbEntity
  8
0
  6
Continuous
 62
     7
370
    25
100
AcDbLine
 10
489.399697679
 20
187.5140810686
 30
0.0
 11
513.399697679
 21
187.5140810686
 31
0.0
  0
LINE
  5
9D
330
1F
100
AcDbEntity
  8
0
  6
Continuous
 62
     7
370
    25
100
AcDbLine
 10
513.399697679
 20
185.7140810686
 30
0.0
 11
513.399697679
 21
187.5140810686
 31
0.0
  0
LINE
  5
9E
330
1F
100
AcDbEntity
  8
0
  6
Continuous
 62
     7
370
    25
100
AcDbLine
 10
489.399697679
 20
186.7140810686
 30
0.0
 11
490.3103606414
 21
185.7140810686
 31
0.0
  0
LINE
  5
9F
330
1F
100
AcDbEntity
  8
0
  6
Continuous
 62
     7
370
    25
100
AcDbLine
 10
489.399697679
 20
186.7140810686
 30
0.0
 11
489.399697679
 21
187.5140810686
 31
0.0
  0
CIRCLE
  5
A0
330
1F
100
AcDbEntity
  8
0
  6
Continuous
 62
     7
370
    25
100
AcDbCircle
 10
505.899697679
 20
171.5140810686
 30
0.0
 40
2.499999999999943
  0
LINE
  5
A1
330
1F
100
AcDbEntity
  8
0
  6
Continuous
 62
     7
370
    25
100
AcDbLine
 10
513.399697679
 20
171.5140810686
 30
0.0
 11
513.399697679
 21
185.7140810686
 31
0.0
  0
ARC
  5
A2
330
1F
100
AcDbEntity
  8
0
  6
Continuous
 62
     7
370
    25
100
AcDbCircle
 10
505.899697679
 20
171.5140810686
 30
0.0
 40
7.500000000000028
100
AcDbArc
 50
206.8359373839
 51
0.0
  0
LINE
  5
A3
330
1F
100
AcDbEntity
  8
0
  6
Continuous
 62
     7
370
    25
100
AcDbLine
 10
490.3103606414
 20
185.7140810686
 30
0.0
 11
499.2074263721
 21
168.1283012833
 31
0.0
  0
INSERT
  5
AF
330
1F
100
AcDbEntity
  8
0
  6
Continuous
 62
     7
370
     0
100
AcDbBlockReference
  2
SW_CENTERMARKSYMBOL_13
 10
505.899697679
 20
171.5140810686
 30
0.0
  0
LINE
  5
B0
330
1F
100
AcDbEntity
  8
0
  6
Continuous
 62
     7
370
    25
100
AcDbLine
 10
513.399697679
 20
211.2467051168
 30
0.0
 11
489.399697679
 21
211.2467051168
 31
0.0
  0
ELLIPSE
  5
B1
330
1F
100
AcDbEntity
  8
0
  6
Continuous
 62
     7
370
    25
100
AcDbEllipse
 10
490.3103606414
 20
211.2467051168
 30
0.0
 11
0.0
 21
1.799999999999983
 31
0.0
210
0.0
220
0.0
230
1.0
 40
0.505923868
 41
0.0
 42
1.570796326794897
  0
LINE
  5
B2
330
1F
100
AcDbEntity
  8
0
  6
Continuous
 62
     7
370
    25
100
AcDbLine
 10
490.3103606414
 20
213.0467051168
 30
0.0
 11
513.399697679
 21
213.0467051168
 31
0.0
  0
LINE
  5
B3
330
1F
100
AcDbEntity
  8
0
  6
Continuous
 62
     7
370
    25
100
AcDbLine
 10
513.399697679
 20
211.2467051168
 30
0.0
 11
513.399697679
 21
213.0467051168
 31
0.0
  0
LINE
  5
B4
330
1F
100
AcDbEntity
  8
0
  6
Continuous
 62
     7
370
    25
100
AcDbLine
 10
489.399697679
 20
202.8467051168
 30
0.0
 11
513.399697679
 21
202.8467051168
 31
0.0
  0
LINE
  5
B5
330
1F
100
AcDbEntity
  8
0
  6
Continuous
 62
     7
370
    25
100
AcDbLine
 10
489.399697679
 20
211.2467051168
 30
0.0
 11
489.399697679
 21
202.8467051168
 31
0.0
  0
LINE
  5
B6
330
1F
100
AcDbEntity
  8
0
  6
Continuous
 62
     7
370
    25
100
AcDbLine
 10
513.399697679
 20
211.2467051168
 30
0.0
 11
513.399697679
 21
202.8467051168
 31
0.0
  0
LINE
  5
B7
330
1F
100
AcDbEntity
  8
0
  6
Continuous
 62
     7
370
    25
100
AcDbLine
 10
513.399697679
 20
201.0467051168
 30
0.0
 11
490.3103606414
 21
201.0467051168
 31
0.0
  0
ELLIPSE
  5
B8
330
1F
100
AcDbEntity
  8
0
  6
Continuous
 62
     7
370
    25
100
AcDbEllipse
 10
490.3103606414
 20
202.8467051168
 30
0.0
 11
0.0
 21
1.800000000000011
 31
0.0
210
0.0
220
0.0
230
1.0
 40
0.505923868
 41
1.570796326794897
 42
3.141592653589793
  0
LINE
  5
B9
330
1F
100
AcDbEntity
  8
0
  6
Continuous
 62
     7
370
    25
100
AcDbLine
 10
513.399697679
 20
201.0467051168
 30
0.0
 11
513.399697679
 21
202.8467051168
 31
0.0
  0
LINE
  5
BA
330
1F
100
AcDbEntity
  8
0
  6
Continuous
 62
     7
370
    25
100
AcDbLine
 10
502.5053667385
 20
257.3423823772
 30
0.0
 11
485.7233714644
 21
247.6543427211
 31
0.0
  0
LINE
  5
BB
330
1F
100
AcDbEntity
  8
0
  6
Continuous
 62
     7
370
    25
100
AcDbLine
 10
500.9991012348
 20
230.7945998834
 30
0.0
 11
501.5647866597
 21
230.4680366386
 31
0.0
  0
LINE
  5
BC
330
1F
100
AcDbEntity
  8
0
  6
Continuous
 62
     7
370
    25
100
AcDbLine
 10
493.0795052855
 20
235.3664853096
 30
0.0
 11
493.6451907104
 21
235.0399220648
 31
0.0
  0
LINE
  5
BD
330
1F
100
AcDbEntity
  8
0
  6
Continuous
 62
     7
370
    25
100
AcDbLine
 10
510.617782766
 20
251.6198130546
 30
0.0
 11
494.2911559736
 21
242.1946520276
 31
0.0
  0
ELLIPSE
  5
BE
330
1F
100
AcDbEntity
  8
0
  6
Continuous
 62
     7
370
    25
100
AcDbEllipse
 10
493.0183637675
 20
242.9294193282
 30
0.0
 11
1.387261499163571
 21
-1.270526212207756
 31
0.0
210
0.0
220
0.0
230
1.0
 40
0.26123205
 41
0.7032110725423558
 42
2.274007399337281
  0
LINE
  5
BF
330
1F
100
AcDbEntity
  8
0
  6
Continuous
 62
     7
370
    25
100
AcDbLine
 10
492.3744278114
 20
244.0274564748
 30
0.0
 11
509.3449905599
 21
253.8243538166
 31
0.0
  0
ARC
  5
C0
330
1F
100
AcDbEntity
  8
0
  6
Continuous
 62
     7
370
    25
100
AcDbCircle
 10
507.8621310347
 20
251.4985306246
 30
0.0
 40
2.758319396324214
100
AcDbArc
 50
2.520089748
 51
57.4799103976
  0
LINE
  5
C1
330
1F
100
AcDbEntity
  8
0
  6
Continuous
 62
     7
370
    25
100
AcDbLine
 10
493.7254705487
 20
242.5212152723
 30
0.0
 11
494.2911559736
 21
242.1946520276
 31
0.0
  0
ELLIPSE
  5
C2
330
1F
100
AcDbEntity
  8
0
  6
Continuous
 62
     7
370
    25
100
AcDbEllipse
 10
493.0183637675
 20
242.9294193282
 30
0.0
 11
0.9560645142313433
 21
-0.6024826926021944
 31
0.0
210
0.0
220
0.0
230
1.0
 40
0.0404582589
 41
0.7641651424438375
 42
2.334961469238434
  0
LINE
  5
C3
330
1F
100
AcDbEntity
  8
0
  6
Continuous
 62
     7
370
    25
100
AcDbLine
 10
492.3744278114
 20
243.3742238253
 30
0.0
 11
492.3744278114
 21
244.0274564748
 31
0.0
  0
LINE
  5
C4
330
1F
100
AcDbEntity
  8
0
  6
Continuous
 62
     7
370
    25
100
AcDbLine
 10
503.4052935979
 20
257.2532678863
 30
0.0
 11
486.4347308494
 21
247.4563705444
 31
0.0
  0
LINE
  5
C5
330
1F
100
AcDbEntity
  8
0
  6
Continuous
 62
     7
370
    25
100
AcDbLine
 10
503.4052935979
 20
257.2532678863
 30
0.0
 11
509.3449905599
 21
253.8243538166
 31
0.0
  0
LINE
  5
C6
330
1F
100
AcDbEntity
  8
0
  6
Continuous
 62
     7
370
    25
100
AcDbLine
 10
486.4347308494
 20
247.4563705444
 30
0.0
 11
492.3744278114
 21
244.0274564748
 31
0.0
  0
LINE
  5
C7
330
1F
100
AcDbEntity
  8
0
  6
Continuous
 62
     7
370
    25
100
AcDbLine
 10
486.4347308494
 20
246.8031378949
 30
0.0
 11
492.3744278114
 21
243.3742238253
 31
0.0
  0
LINE
  5
C8
330
1F
100
AcDbEntity
  8
0
  6
Continuous
 62
     7
370
    25
100
AcDbLine
 10
486.4347308494
 20
246.8031378949
 30
0.0
 11
486.4347308494
 21
247.4563705444
 31
0.0
  0
LWPOLYLINE
  5
C9
330
1F
100
AcDbEntity
  8
0
  6
Continuous
 62
     7
370
    25
100
AcDbPolyline
 90
       47
 70
   128
 43
0.0
 10
500.5823314844
 20
231.466963441
 10
500.7293713627
 20
231.2391319596
 10
500.8918915779
 20
231.0306268708
 10
501.0693434262
 20
230.8421521333
 10
501.2611277914
 20
230.6743440792
 10
501.4665971674
 20
230.5277692651
 10
501.6850578447
 20
230.4029225598
 10
501.9157722522
 20
230.300225473
 10
502.1579614475
 20
230.2200247326
 10
502.4108077469
 20
230.1625911139
 10
502.673457486
 20
230.1281185252
 10
502.9450239016
 20
230.1167233537
 10
503.2245901263
 20
230.1284440719
 10
503.511212283
 20
230.1632411081
 10
503.8039226728
 20
230.2209969799
 10
504.1017330413
 20
230.3015166908
 10
504.4036379154
 20
230.4045283887
 10
504.7086179983
 20
230.5296842835
 10
505.0156436103
 20
230.6765618215
 10
505.3236781659
 20
230.844665112
 10
505.6316816728
 20
231.0334266014
 10
505.938614244
 20
231.2422089898
 10
506.2434396077
 20
231.4703073819
 10
506.5451286068
 20
231.7169516678
 10
506.8426626733
 20
231.9813091222
 10
507.135037267
 20
232.2624872167
 10
507.4212652672
 20
232.5595366323
 10
507.7003803056
 20
232.8714544652
 10
507.9714400286
 20
233.1971876125
 10
508.2335292794
 20
233.5356363278
 10
508.4857631872
 20
233.8856579342
 10
508.7272901552
 20
234.2460706821
 10
508.9572947354
 20
234.6156577391
 10
509.175000382
 20
234.9931712984
 10
509.3796720731
 20
235.3773367916
 10
509.5706187922
 20
235.7668571919
 10
509.7471958615
 20
236.1604173932
 10
509.9088071181
 20
236.5566886501
 10
510.0549069269
 20
236.9543330639
 10
510.1850020231
 20
237.3520081003
 10
510.2986531772
 20
237.7483711211
 10
510.3954766779
 20
238.142083918
 10
510.475145628
 20
238.5318172305
 10
510.5373910475
 20
238.9162552335
 10
510.5820027824
 20
239.2940999803
 10
510.6088302137
 20
239.6640757842
 10
510.617782766
 20
240.0249335258
  0
LINE
  5
CA
330
1F
100
AcDbEntity
  8
0
  6
Continuous
 62
     7
370
    25
100
AcDbLine
 10
494.2911559736
 20
242.1946520276
 30
0.0
 11
500.5823314844
 21
231.466963441
 31
0.0
  0
LINE
  5
CB
330
1F
100
AcDbEntity
  8
0
  6
Continuous
 62
     7
370
    25
100
AcDbLine
 10
510.617782766
 20
240.0249335258
 30
0.0
 11
510.617782766
 21
251.6198130546
 31
0.0
  0
LWPOLYLINE
  5
CC
330
1F
100
AcDbEntity
  8
0
  6
Continuous
 62
     7
370
    25
100
AcDbPolyline
 90
       64
 70
   128
 43
0.0
 10
507.0822488601
 20
237.9839132463
 10
507.073464429
 20
238.1820951279
 10
507.0471984393
 20
238.3681651007
 10
507.0037119343
 20
238.5402739177
 10
506.9434371024
 20
238.6967110841
 10
506.8669729819
 20
238.8359218571
 10
506.7750795076
 20
238.9565226975
 10
506.6686699582
 20
239.0573150199
 10
506.5488018795
 20
239.1372971051
 10
506.4166665744
 20
239.195674055
 10
506.2735772628
 20
239.2318656933
 10
506.1209560308
 20
239.2455123313
 10
505.9603196966
 20
239.2364783425
 10
505.7932647362
 20
239.2048535109
 10
505.621451417
 20
239.1509521381
 10
505.446587297
 20
239.0753099202
 10
505.2704102542
 20
238.9786786235
 10
505.0946712152
 20
238.8620186134
 10
504.9211167537
 20
238.7264893094
 10
504.7514717318
 20
238.5734376627
 10
504.587422158
 20
238.4043847691
 10
504.4305984306
 20
238.2210107524
 10
504.2825591343
 20
238.0251380659
 10
504.1447755502
 20
237.8187133804
 10
504.0186170333
 20
237.6037882371
 10
503.9053374037
 20
237.3824986587
 10
503.8060624853
 20
237.1570439204
 10
503.7217789168
 20
236.9296646927
 10
503.6533243462
 20
236.7026207725
 10
503.6013791057
 20
236.4781686243
 10
503.5664594504
 20
236.2585389544
 10
503.5489124277
 20
236.0459145411
 10
503.5489124277
 20
235.8424085414
 10
503.5664594504
 20
235.6500434892
 10
503.6013791057
 20
235.4707311951
 10
503.6533243462
 20
235.3062537449
 10
503.7217789168
 20
235.1582457897
 10
503.8060624853
 20
235.0281782988
 10
503.9053374037
 20
234.9173439416
 10
504.0186170333
 20
234.8268442395
 10
504.1447755502
 20
234.7575786194
 10
504.2825591343
 20
234.710235474
 10
504.4305984306
 20
234.6852853208
 10
504.587422158
 20
234.6829761257
 10
504.7514717318
 20
234.7033308384
 10
504.9211167537
 20
234.7461471647
 10
505.0946712152
 20
234.8109995767
 10
505.2704102542
 20
234.897243542
 10
505.446587297
 20
235.0040219293
 10
505.621451417
 20
235.1302735271
 10
505.7932647362
 20
235.2747435901
 10
505.9603196966
 20
235.4359963101
 10
506.1209560308
 20
235.6124290851
 10
506.2735772628
 20
235.8022884468
 10
506.4166665744
 20
236.0036874877
 10
506.5488018795
 20
236.2146246136
 10
506.6686699582
 20
236.4330034365
 10
506.7750795076
 20
236.6566536097
 10
506.8669729819
 20
236.8833523971
 10
506.9434371024
 20
237.1108467645
 10
507.0037119343
 20
237.3368757705
 10
507.0471984393
 20
237.5591930375
 10
507.073464429
 20
237.7755890764
 10
507.0822488601
 20
237.9839132463
  0
LINE
  5
CD
330
1F
100
AcDbEntity
  8
0
  6
Continuous
 62
     7
370
    25
100
AcDbLine
 10
500.0166460595
 20
231.7935266857
 30
0.0
 11
500.5823314844
 21
231.466963441
 31
0.0
  0
LINE
  5
CE
330
1F
100
AcDbEntity
  8
0
  6
Continuous
 62
     7
370
    25
100
AcDbLine
 10
493.7254705487
 20
242.5212152723
 30
0.0
 11
500.0166460595
 21
231.7935266857
 31
0.0
  0
ELLIPSE
  5
CF
330
1F
100
AcDbEntity
  8
0
  6
Continuous
 62
     7
370
    25
100
AcDbEllipse
 10
487.0786668055
 20
246.3583333979
 30
0.0
 11
1.387261499163572
 21
-1.270526212207784
 31
0.0
210
0.0
220
0.0
230
1.0
 40
0.26123205
 41
2.274007399337295
 42
3.844803726132212
  0
ARC
  5
D0
330
1F
100
AcDbEntity
  8
0
  6
Continuous
 62
     7
370
    25
100
AcDbCircle
 10
502.8817521062
 20
256.5547936266
 30
0.0
 40
0.8729043389624438
100
AcDbArc
 50
53.146601305
 51
115.5429402659
  0
LINE
  5
D1
330
1F
100
AcDbEntity
  8
0
  6
Continuous
 62
     7
370
    25
100
AcDbLine
 10
486.3715600243
 20
246.7665374538
 30
0.0
 11
485.8058745994
 21
247.0931006985
 31
0.0
  0
ELLIPSE
  5
D2
330
1F
100
AcDbEntity
  8
0
  6
Continuous
 62
     7
370
    25
100
AcDbEllipse
 10
487.0786668055
 20
246.3583333979
 30
0.0
 11
0.9560645142313433
 21
-0.6024826926021944
 31
0.0
210
0.0
220
0.0
230
1.0
 40
0.0404582589
 41
2.334961469238765
 42
3.905757796033089
  0
LINE
  5
D3
330
1F
100
AcDbEntity
  8
0
  6
Continuous
 62
     7
370
    25
100
AcDbLine
 10
486.3715600243
 20
246.7665374538
 30
0.0
 11
486.4348457835
 21
246.8030715449
 31
0.0
  0
LWPOLYLINE
  5
D4
330
1F
100
AcDbEntity
  8
0
  6
Continuous
 62
     7
370
    25
100
AcDbPolyline
 90
       22
 70
   128
 43
0.0
 10
492.6627355352
 20
236.0388488672
 10
492.8097754134
 20
235.8110173858
 10
492.9722956286
 20
235.602512297
 10
493.1497474769
 20
235.4140375595
 10
493.3415318421
 20
235.2462295054
 10
493.5470012181
 20
235.0996546913
 10
493.7654618954
 20
234.974807986
 10
493.9961763029
 20
234.8721108992
 10
494.2383654982
 20
234.7919101588
 10
494.4912117976
 20
234.7344765401
 10
494.7538615367
 20
234.7000039514
 10
495.0254279524
 20
234.6886087799
 10
495.304994177
 20
234.7003294981
 10
495.5916163337
 20
234.7351265343
 10
495.8843267235
 20
234.7928824061
 10
496.182137092
 20
234.873402117
 10
496.4840419661
 20
234.9764138149
 10
496.789022049
 20
235.1015697097
 10
497.096047661
 20
235.2484472477
 10
497.4040822166
 20
235.4165505382
 10
497.7120857236
 20
235.6053120277
 10
497.7621215189
 20
235.6379333695
  0
LINE
  5
D5
330
1F
100
AcDbEntity
  8
0
  6
Continuous
 62
     7
370
    25
100
AcDbLine
 10
486.3715600243
 20
246.7665374538
 30
0.0
 11
492.6627355352
 21
236.0388488672
 31
0.0
  0
LINE
  5
D6
330
1F
100
AcDbEntity
  8
0
  6
Continuous
 62
     7
370
    25
100
AcDbLine
 10
485.8058745994
 20
247.0931006985
 30
0.0
 11
492.0970501102
 21
236.3654121119
 31
0.0
  0
LINE
  5
D7
330
1F
100
AcDbEntity
  8
0
  6
Continuous
 62
     7
370
    25
100
AcDbLine
 10
492.6627355352
 20
236.0388488672
 30
0.0
 11
492.0970501102
 21
236.3654121119
 31
0.0
  0
ARC
  5
D8
330
1F
100
AcDbEntity
  8
0
  6
Continuous
 62
     7
370
    25
100
AcDbCircle
 10
502.3786619447
 20
233.1340035489
 30
0.0
 40
2.715878727495016
100
AcDbArc
 50
209.5755131956
 51
239.4718860598
  0
ARC
  5
D9
330
1F
100
AcDbEntity
  8
0
  6
Continuous
 62
     7
370
    25
100
AcDbCircle
 10
505.0388469369
 20
238.3845661935
 30
0.0
 40
1.47957268603763
100
AcDbArc
 50
357.1297095567
 51
35.1157399874
  0
ARC
  5
DA
330
1F
100
AcDbEntity
  8
0
  6
Continuous
 62
     7
370
    25
100
AcDbCircle
 10
503.3113479535
 20
238.1856989877
 30
0.0
 40
3.207643326398591
100
AcDbArc
 50
279.0184347674
 51
2.2293714949
  0
ARC
  5
DB
330
1F
100
AcDbEntity
  8
0
  6
Continuous
 62
     7
370
    25
100
AcDbCircle
 10
494.4590659954
 20
237.7058889751
 30
0.0
 40
2.715878727493048
100
AcDbArc
 50
209.5755131955
 51
239.4718860598
  0
LINE
  5
DC
330
1F
100
AcDbEntity
  8
0
  6
Continuous
 62
     7
370
    25
100
AcDbLine
 10
146.7533906773
 20
147.4215436039
 30
0.0
 11
192.3533906773
 21
147.4215436039
 31
0.0
  0
LINE
  5
DD
330
1F
100
AcDbEntity
  8
0
  6
Continuous
 62
     7
370
    25
100
AcDbLine
 10
146.7533906773
 20
199.7287606988
 30
0.0
 11
192.3533906773
 21
199.7287606988
 31
0.0
  0
LINE
  5
DE
330
1F
100
AcDbEntity
  8
0
  6
Continuous
 62
     7
370
    25
100
AcDbLine
 10
192.3533906773
 20
198.4470479347
 30
0.0
 11
146.7533906773
 21
198.4470479347
 31
0.0
  0
LINE
  5
DF
330
1F
100
AcDbEntity
  8
0
  6
Continuous
 62
     7
370
    25
100
AcDbLine
 10
146.7533906773
 20
199.7287606988
 30
0.0
 11
146.7533906773
 21
198.4470479347
 31
0.0
  0
LINE
  5
E0
330
1F
100
AcDbEntity
  8
0
  6
Continuous
 62
     7
370
    25
100
AcDbLine
 10
192.3533906773
 20
198.4470479347
 30
0.0
 11
192.3533906773
 21
199.7287606988
 31
0.0
  0
LINE
  5
E1
330
1F
100
AcDbEntity
  8
0
  6
Continuous
 62
     7
370
    25
100
AcDbLine
 10
146.7533906773
 20
148.0795234605
 30
0.0
 11
192.3533906773
 21
148.0795234605
 31
0.0
  0
LINE
  5
E2
330
1F
100
AcDbEntity
  8
0
  6
Continuous
 62
     7
370
    25
100
AcDbLine
 10
146.7533906773
 20
198.4470479347
 30
0.0
 11
146.7533906773
 21
148.0795234605
 31
0.0
  0
LINE
  5
E3
330
1F
100
AcDbEntity
  8
0
  6
Continuous
 62
     7
370
    25
100
AcDbLine
 10
192.3533906773
 20
148.0795234605
 30
0.0
 11
192.3533906773
 21
198.4470479347
 31
0.0
  0
LWPOLYLINE
  5
E4
330
1F
100
AcDbEntity
  8
0
  6
Continuous
 62
     7
370
    25
100
AcDbPolyline
 90
        9
 70
   128
 43
0.0
 10
193.3533906773
 20
198.789068078
 10
193.3341759577
 20
198.7223432581
 10
193.2772702098
 20
198.6581826356
 10
193.1848602896
 20
198.5990518673
 10
193.0604974585
 20
198.5472233153
 10
192.9089609103
 20
198.504688722
 10
192.7360741097
 20
198.4730826679
 10
192.5484809993
 20
198.4536197558
 10
192.3533906773
 20
198.4470479347
  0
LWPOLYLINE
  5
E5
330
1F
100
AcDbEntity
  8
0
  6
Continuous
 62
     7
370
    25
100
AcDbPolyline
 90
        9
 70
   128
 43
0.0
 10
192.5533906773
 20
198.789068078
 10
192.5495477334
 20
198.775723114
 10
192.5381665838
 20
198.7628909895
 10
192.5196845998
 20
198.7510648358
 10
192.4948120335
 20
198.7406991254
 10
192.4645047239
 20
198.7321922068
 10
192.4299273638
 20
198.725870996
 10
192.3924087417
 20
198.7219784135
 10
192.3533906773
 20
198.7206640493
  0
LINE
  5
E6
330
1F
100
AcDbEntity
  8
0
  6
Continuous
 62
     7
370
    25
100
AcDbLine
 10
192.5533906773
 20
198.789068078
 30
0.0
 11
193.3533906773
 21
198.789068078
 31
0.0
  0
LWPOLYLINE
  5
E7
330
1F
100
AcDbEntity
  8
0
  6
Continuous
 62
     7
370
    25
100
AcDbPolyline
 90
        9
 70
   128
 43
0.0
 10
145.7533906773
 20
148.4215436039
 10
145.7726053969
 20
148.354818784
 10
145.8295111448
 20
148.2906581615
 10
145.921921065
 20
148.2315273931
 10
146.0462838961
 20
148.1796988412
 10
146.1978204443
 20
148.1371642479
 10
146.3707072449
 20
148.1055581937
 10
146.5583003553
 20
148.0860952817
 10
146.7533906773
 20
148.0795234605
  0
LINE
  5
E8
330
1F
100
AcDbEntity
  8
0
  6
Continuous
 62
     7
370
    25
100
AcDbLine
 10
145.7533906773
 20
148.4215436039
 30
0.0
 11
145.7533906773
 21
198.789068078
 31
0.0
  0
LWPOLYLINE
  5
E9
330
1F
100
AcDbEntity
  8
0
  6
Continuous
 62
     7
370
    25
100
AcDbPolyline
 90
        9
 70
   128
 43
0.0
 10
146.7533906773
 20
198.4470479347
 10
146.5583003553
 20
198.4536197558
 10
146.3707072449
 20
198.4730826679
 10
146.1978204443
 20
198.504688722
 10
146.0462838961
 20
198.5472233153
 10
145.921921065
 20
198.5990518673
 10
145.8295111448
 20
198.6581826356
 10
145.7726053969
 20
198.7223432581
 10
145.7533906773
 20
198.789068078
  0
LINE
  5
EA
330
1F
100
AcDbEntity
  8
0
  6
Continuous
 62
     7
370
    25
100
AcDbLine
 10
193.3533906773
 20
198.789068078
 30
0.0
 11
193.3533906773
 21
148.4215436039
 31
0.0
  0
LWPOLYLINE
  5
EB
330
1F
100
AcDbEntity
  8
0
  6
Continuous
 62
     7
370
    25
100
AcDbPolyline
 90
        9
 70
   128
 43
0.0
 10
192.3533906773
 20
148.0795234605
 10
192.5484809993
 20
148.0860952817
 10
192.7360741097
 20
148.1055581937
 10
192.9089609103
 20
148.1371642479
 10
193.0604974585
 20
148.1796988412
 10
193.1848602896
 20
148.2315273931
 10
193.2772702098
 20
148.2906581615
 10
193.3341759577
 20
148.354818784
 10
193.3533906773
 20
148.4215436039
  0
LINE
  5
EC
330
1F
100
AcDbEntity
  8
0
  6
Continuous
 62
     7
370
    25
100
AcDbLine
 10
146.5533906773
 20
198.789068078
 30
0.0
 11
145.7533906773
 21
198.789068078
 31
0.0
  0
LWPOLYLINE
  5
ED
330
1F
100
AcDbEntity
  8
0
  6
Continuous
 62
     7
370
    25
100
AcDbPolyline
 90
        9
 70
   128
 43
0.0
 10
146.7533906773
 20
198.7206640493
 10
146.7143726129
 20
198.7219784135
 10
146.6768539908
 20
198.725870996
 10
146.6422766307
 20
198.7321922068
 10
146.6119693211
 20
198.7406991254
 10
146.5870967548
 20
198.7510648358
 10
146.5686147708
 20
198.7628909895
 10
146.5572336212
 20
198.775723114
 10
146.5533906773
 20
198.789068078
  0
LINE
  5
EE
330
1F
100
AcDbEntity
  8
0
  6
Continuous
 62
     7
370
    25
100
AcDbLine
 10
146.7533906773
 20
199.862155053
 30
0.0
 11
145.7533906773
 21
199.862155053
 31
0.0
  0
LINE
  5
EF
330
1F
100
AcDbEntity
  8
0
  6
Continuous
 62
     7
370
    25
100
AcDbLine
 10
145.7533906773
 20
204.1066185333
 30
0.0
 11
145.7533906773
 21
199.862155053
 31
0.0
  0
LINE
  5
F0
330
1F
100
AcDbEntity
  8
0
  6
Continuous
 62
     7
370
    25
100
AcDbLine
 10
145.7533906773
 20
204.1066185333
 30
0.0
 11
193.3533906773
 21
204.1066185333
 31
0.0
  0
LINE
  5
F1
330
1F
100
AcDbEntity
  8
0
  6
Continuous
 62
     7
370
    25
100
AcDbLine
 10
193.3533906773
 20
199.862155053
 30
0.0
 11
193.3533906773
 21
204.1066185333
 31
0.0
  0
LINE
  5
F2
330
1F
100
AcDbEntity
  8
0
  6
Continuous
 62
     7
370
    25
100
AcDbLine
 10
192.3533906773
 20
199.862155053
 30
0.0
 11
193.3533906773
 21
199.862155053
 31
0.0
  0
LINE
  5
F3
330
1F
100
AcDbEntity
  8
0
  6
Continuous
 62
     7
370
    25
100
AcDbLine
 10
192.3533906773
 20
199.862155053
 30
0.0
 11
192.3533906773
 21
199.7287606988
 31
0.0
  0
LINE
  5
F4
330
1F
100
AcDbEntity
  8
0
  6
Continuous
 62
     7
370
    25
100
AcDbLine
 10
146.7533906773
 20
199.862155053
 30
0.0
 11
146.7533906773
 21
199.7287606988
 31
0.0
  0
LINE
  5
F5
330
1F
100
AcDbEntity
  8
0
  6
Continuous
 62
     7
370
    25
100
AcDbLine
 10
146.5533906773
 20
199.1104009564
 30
0.0
 11
146.5533906773
 21
198.789068078
 31
0.0
  0
LINE
  5
F6
330
1F
100
AcDbEntity
  8
0
  6
Continuous
 62
     7
370
    25
100
AcDbLine
 10
145.7533906773
 20
199.1104009564
 30
0.0
 11
145.7533906773
 21
198.789068078
 31
0.0
  0
LINE
  5
F7
330
1F
100
AcDbEntity
  8
0
  6
Continuous
 62
     7
370
    25
100
AcDbLine
 10
192.5533906773
 20
198.789068078
 30
0.0
 11
192.5533906773
 21
199.1104009564
 31
0.0
  0
LINE
  5
F8
330
1F
100
AcDbEntity
  8
0
  6
Continuous
 62
     7
370
    25
100
AcDbLine
 10
193.3533906773
 20
198.789068078
 30
0.0
 11
193.3533906773
 21
199.1104009564
 31
0.0
  0
LINE
  5
F9
330
1F
100
AcDbEntity
  8
0
  6
Continuous
 62
     7
370
    25
100
AcDbLine
 10
193.3533906773
 20
199.862155053
 30
0.0
 11
193.3533906773
 21
199.1104009564
 31
0.0
  0
LINE
  5
FA
330
1F
100
AcDbEntity
  8
0
  6
Continuous
 62
     7
370
    25
100
AcDbLine
 10
192.3533906773
 20
199.1104009564
 30
0.0
 11
193.3533906773
 21
199.1104009564
 31
0.0
  0
LINE
  5
FB
330
1F
100
AcDbEntity
  8
0
  6
Continuous
 62
     7
370
    25
100
AcDbLine
 10
145.7533906773
 20
199.862155053
 30
0.0
 11
145.7533906773
 21
199.1104009564
 31
0.0
  0
LINE
  5
FC
330
1F
100
AcDbEntity
  8
0
  6
Continuous
 62
     7
370
    25
100
AcDbLine
 10
146.7533906773
 20
199.1104009564
 30
0.0
 11
145.7533906773
 21
199.1104009564
 31
0.0
  0
LINE
  5
FD
330
1F
100
AcDbEntity
  8
0
  6
Continuous
 62
     7
370
    25
100
AcDbLine
 10
192.3533906773
 20
147.4215436039
 30
0.0
 11
192.3533906773
 21
148.0795234605
 31
0.0
  0
LINE
  5
FE
330
1F
100
AcDbEntity
  8
0
  6
Continuous
 62
     7
370
    25
100
AcDbLine
 10
146.7533906773
 20
148.0795234605
 30
0.0
 11
146.7533906773
 21
147.4215436039
 31
0.0
  0
LINE
  5
FF
330
1F
100
AcDbEntity
  8
0
  6
Continuous
 62
     7
370
    25
100
AcDbLine
 10
145.7661889497
 20
148.366999434
 30
0.0
 11
145.7533906773
 21
148.366999434
 31
0.0
  0
LINE
  5
100
330
1F
100
AcDbEntity
  8
0
  6
Continuous
 62
     7
370
    25
100
AcDbLine
 10
145.7533906773
 20
148.366999434
 30
0.0
 11
145.7533906773
 21
148.4215436039
 31
0.0
  0
LINE
  5
101
330
1F
100
AcDbEntity
  8
0
  6
Continuous
 62
     7
370
    25
100
AcDbLine
 10
193.3533906773
 20
148.4215436039
 30
0.0
 11
193.3533906773
 21
148.366999434
 31
0.0
  0
LINE
  5
102
330
1F
100
AcDbEntity
  8
0
  6
Continuous
 62
     7
370
    25
100
AcDbLine
 10
193.340592405
 20
148.366999434
 30
0.0
 11
193.3533906773
 21
148.366999434
 31
0.0
  0
LINE
  5
103
330
1F
100
AcDbEntity
  8
0
  6
Continuous
 62
     7
370
    25
100
AcDbLine
 10
145.7533906773
 20
147.6152453373
 30
0.0
 11
145.7533906773
 21
148.366999434
 31
0.0
  0
LINE
  5
104
330
1F
100
AcDbEntity
  8
0
  6
Continuous
 62
     7
370
    25
100
AcDbLine
 10
146.7533906773
 20
147.6152453373
 30
0.0
 11
145.7533906773
 21
147.6152453373
 31
0.0
  0
LINE
  5
105
330
1F
100
AcDbEntity
  8
0
  6
Continuous
 62
     7
370
    25
100
AcDbLine
 10
193.3533906773
 20
147.6152453373
 30
0.0
 11
193.3533906773
 21
148.366999434
 31
0.0
  0
LINE
  5
106
330
1F
100
AcDbEntity
  8
0
  6
Continuous
 62
     7
370
    25
100
AcDbLine
 10
192.3533906773
 20
147.6152453373
 30
0.0
 11
193.3533906773
 21
147.6152453373
 31
0.0
  0
LINE
  5
107
330
1F
100
AcDbEntity
  8
0
  6
HIDDEN
 62
     7
370
    18
100
AcDbLine
 10
192.3533906773
 20
198.7206640493
 30
0.0
 11
146.7533906773
 21
198.7206640493
 31
0.0
  0
LINE
  5
108
330
1F
100
AcDbEntity
  8
0
  6
HIDDEN
 62
     7
370
    18
100
AcDbLine
 10
146.5533906773
 20
148.4215436039
 30
0.0
 11
146.5533906773
 21
198.789068078
 31
0.0
  0
LWPOLYLINE
  5
109
330
1F
100
AcDbEntity
  8
0
  6
HIDDEN
 62
     7
370
    18
100
AcDbPolyline
 90
        9
 70
   128
 43
0.0
 10
146.5533906773
 20
148.4215436039
 10
146.5572336212
 20
148.4081986399
 10
146.5686147708
 20
148.3953665154
 10
146.5870967548
 20
148.3835403617
 10
146.6119693211
 20
148.3731746513
 10
146.6422766307
 20
148.3646677327
 10
146.6768539908
 20
148.3583465218
 10
146.7143726129
 20
148.3544539394
 10
146.7533906773
 20
148.3531395752
  0
LWPOLYLINE
  5
10A
330
1F
100
AcDbEntity
  8
0
  6
HIDDEN
 62
     7
370
    18
100
AcDbPolyline
 90
        9
 70
   128
 43
0.0
 10
192.3533906773
 20
148.3531395752
 10
192.3924087417
 20
148.3544539394
 10
192.4299273638
 20
148.3583465218
 10
192.4645047239
 20
148.3646677327
 10
192.4948120335
 20
148.3731746513
 10
192.5196845998
 20
148.3835403617
 10
192.5381665838
 20
148.3953665154
 10
192.5495477334
 20
148.4081986399
 10
192.5533906773
 20
148.4215436039
  0
LINE
  5
10B
330
1F
100
AcDbEntity
  8
0
  6
HIDDEN
 62
     7
370
    18
100
AcDbLine
 10
192.5533906773
 20
198.789068078
 30
0.0
 11
192.5533906773
 21
148.4215436039
 31
0.0
  0
LINE
  5
10C
330
1F
100
AcDbEntity
  8
0
  6
HIDDEN
 62
     7
370
    18
100
AcDbLine
 10
146.7533906773
 20
198.9770066021
 30
0.0
 11
192.3533906773
 21
198.9770066021
 31
0.0
  0
LINE
  5
10D
330
1F
100
AcDbEntity
  8
0
  6
HIDDEN
 62
     7
370
    18
100
AcDbLine
 10
146.5533906773
 20
203.1669259125
 30
0.0
 11
145.7533906773
 21
203.1669259125
 31
0.0
  0
LINE
  5
10E
330
1F
100
AcDbEntity
  8
0
  6
HIDDEN
 62
     7
370
    18
100
AcDbLine
 10
146.5533906773
 20
203.1669259125
 30
0.0
 11
146.5533906773
 21
199.1104009564
 31
0.0
  0
LINE
  5
10F
330
1F
100
AcDbEntity
  8
0
  6
HIDDEN
 62
     7
370
    18
100
AcDbLine
 10
192.5533906773
 20
199.1104009564
 30
0.0
 11
192.5533906773
 21
203.1669259125
 31
0.0
  0
LINE
  5
110
330
1F
100
AcDbEntity
  8
0
  6
HIDDEN
 62
     7
370
    18
100
AcDbLine
 10
192.5533906773
 20
203.1669259125
 30
0.0
 11
193.3533906773
 21
203.1669259125
 31
0.0
  0
LINE
  5
111
330
1F
100
AcDbEntity
  8
0
  6
HIDDEN
 62
     7
370
    18
100
AcDbLine
 10
145.7533906773
 20
203.3548644367
 30
0.0
 11
193.3533906773
 21
203.3548644367
 31
0.0
  0
LINE
  5
112
330
1F
100
AcDbEntity
  8
0
  6
HIDDEN
 62
     7
370
    18
100
AcDbLine
 10
192.3533906773
 20
147.4818509831
 30
0.0
 11
146.7533906773
 21
147.4818509831
 31
0.0
  0
LINE
  5
113
330
1F
100
AcDbEntity
  8
0
  6
HIDDEN
 62
     7
370
    18
100
AcDbLine
 10
192.3533906773
 20
148.2336050797
 30
0.0
 11
146.7533906773
 21
148.2336050797
 31
0.0
  0
LINE
  5
114
330
1F
100
AcDbEntity
  8
0
  6
HIDDEN
 62
     7
370
    18
100
AcDbLine
 10
146.7533906773
 20
148.3531395752
 30
0.0
 11
192.3533906773
 21
148.3531395752
 31
0.0
  0
LINE
  5
115
330
1F
100
AcDbEntity
  8
0
  6
HIDDEN
 62
     7
370
    18
100
AcDbLine
 10
146.5533906773
 20
148.4215436039
 30
0.0
 11
145.7533906773
 21
148.4215436039
 31
0.0
  0
LINE
  5
116
330
1F
100
AcDbEntity
  8
0
  6
HIDDEN
 62
     7
370
    18
100
AcDbLine
 10
145.7533906773
 20
152.7994014384
 30
0.0
 11
146.5533906773
 21
152.7994014384
 31
0.0
  0
LINE
  5
117
330
1F
100
AcDbEntity
  8
0
  6
HIDDEN
 62
     7
370
    18
100
AcDbLine
 10
192.5533906773
 20
148.4215436039
 30
0.0
 11
193.3533906773
 21
148.4215436039
 31
0.0
  0
LINE
  5
118
330
1F
100
AcDbEntity
  8
0
  6
HIDDEN
 62
     7
370
    18
100
AcDbLine
 10
193.3533906773
 20
152.7994014384
 30
0.0
 11
192.5533906773
 21
152.7994014384
 31
0.0
  0
LINE
  5
119
330
1F
100
AcDbEntity
  8
0
  6
HIDDEN
 62
     7
370
    18
100
AcDbLine
 10
146.7533906773
 20
148.366999434
 30
0.0
 11
145.7661889497
 21
148.366999434
 31
0.0
  0
LINE
  5
11A
330
1F
100
AcDbEntity
  8
0
  6
HIDDEN
 62
     7
370
    18
100
AcDbLine
 10
145.7533906773
 20
152.6114629143
 30
0.0
 11
160.5533906773
 21
152.6114629143
 31
0.0
  0
LINE
  5
11B
330
1F
100
AcDbEntity
  8
0
  6
HIDDEN
 62
     7
370
    18
100
AcDbLine
 10
160.5533906773
 20
152.6114629143
 30
0.0
 11
160.5533906773
 21
159.3175937951
 31
0.0
  0
LINE
  5
11C
330
1F
100
AcDbEntity
  8
0
  6
HIDDEN
 62
     7
370
    18
100
AcDbLine
 10
160.5533906773
 20
159.3175937951
 30
0.0
 11
178.5533906773
 21
159.3175937951
 31
0.0
  0
LINE
  5
11D
330
1F
100
AcDbEntity
  8
0
  6
HIDDEN
 62
     7
370
    18
100
AcDbLine
 10
178.5533906773
 20
152.6114629143
 30
0.0
 11
178.5533906773
 21
159.3175937951
 31
0.0
  0
LINE
  5
11E
330
1F
100
AcDbEntity
  8
0
  6
HIDDEN
 62
     7
370
    18
100
AcDbLine
 10
178.5533906773
 20
152.6114629143
 30
0.0
 11
193.3533906773
 21
152.6114629143
 31
0.0
  0
LINE
  5
11F
330
1F
100
AcDbEntity
  8
0
  6
HIDDEN
 62
     7
370
    18
100
AcDbLine
 10
192.3533906773
 20
148.366999434
 30
0.0
 11
193.340592405
 21
148.366999434
 31
0.0
  0
LINE
  5
120
330
1F
100
AcDbEntity
  8
0
  6
HIDDEN
 62
     7
370
    18
100
AcDbLine
 10
178.5533906773
 20
151.8597088176
 30
0.0
 11
193.3533906773
 21
151.8597088176
 31
0.0
  0
LINE
  5
121
330
1F
100
AcDbEntity
  8
0
  6
HIDDEN
 62
     7
370
    18
100
AcDbLine
 10
178.5533906773
 20
152.6114629143
 30
0.0
 11
178.5533906773
 21
151.8597088176
 31
0.0
  0
LINE
  5
122
330
1F
100
AcDbEntity
  8
0
  6
HIDDEN
 62
     7
370
    18
100
AcDbLine
 10
145.7533906773
 20
151.8597088176
 30
0.0
 11
160.5533906773
 21
151.8597088176
 31
0.0
  0
LINE
  5
123
330
1F
100
AcDbEntity
  8
0
  6
HIDDEN
 62
     7
370
    18
100
AcDbLine
 10
160.5533906773
 20
152.6114629143
 30
0.0
 11
160.5533906773
 21
151.8597088176
 31
0.0
  0
LINE
  5
124
330
1F
100
AcDbEntity
  8
0
  6
HIDDEN
 62
     7
370
    18
100
AcDbLine
 10
178.5533906773
 20
159.8482987322
 30
0.0
 11
160.5533906773
 21
159.8482987322
 31
0.0
  0
LINE
  5
125
330
1F
100
AcDbEntity
  8
0
  6
HIDDEN
 62
     7
370
    18
100
AcDbLine
 10
178.5533906773
 20
159.8482987322
 30
0.0
 11
178.5533906773
 21
159.3175937951
 31
0.0
  0
LINE
  5
126
330
1F
100
AcDbEntity
  8
0
  6
HIDDEN
 62
     7
370
    18
100
AcDbLine
 10
160.5533906773
 20
159.3175937951
 30
0.0
 11
160.5533906773
 21
159.8482987322
 31
0.0
  0
LINE
  5
127
330
1F
100
AcDbEntity
  8
0
  6
HIDDEN
 62
     7
370
    18
100
AcDbLine
 10
178.5533906773
 20
159.0482987322
 30
0.0
 11
160.5533906773
 21
159.0482987322
 31
0.0
  0
LINE
  5
128
330
1F
100
AcDbEntity
  8
0
  6
HIDDEN
 62
     7
370
    18
100
AcDbLine
 10
160.5533906773
 20
158.5658396985
 30
0.0
 11
178.5533906773
 21
158.5658396985
 31
0.0
  0
LINE
  5
129
330
1F
100
AcDbEntity
  8
0
  6
HIDDEN
 62
     7
370
    18
100
AcDbLine
 10
171.1533906773
 20
159.0482987322
 30
0.0
 11
171.1533906773
 21
159.8482987322
 31
0.0
  0
LINE
  5
12A
330
1F
100
AcDbEntity
  8
0
  6
HIDDEN
 62
     7
370
    18
100
AcDbLine
 10
167.9533906773
 20
159.0482987322
 30
0.0
 11
167.9533906773
 21
159.8482987322
 31
0.0
  0
LINE
  5
12B
330
1F
100
AcDbEntity
  8
0
  6
HIDDEN
 62
     7
370
    18
100
AcDbLine
 10
172.5533906773
 20
159.8482987322
 30
0.0
 11
172.5533906773
 21
159.0482987322
 31
0.0
  0
LINE
  5
12C
330
1F
100
AcDbEntity
  8
0
  6
HIDDEN
 62
     7
370
    18
100
AcDbLine
 10
166.5533906773
 20
159.0482987322
 30
0.0
 11
166.5533906773
 21
159.8482987322
 31
0.0
  0
LINE
  5
12D
330
1F
100
AcDbEntity
  8
0
  6
HIDDEN
 62
     7
370
    18
100
AcDbLine
 10
146.7533906773
 20
148.2215436039
 30
0.0
 11
192.3533906773
 21
148.2215436039
 31
0.0
  0
LINE
  5
12E
330
1F
100
AcDbEntity
  8
0
  6
Continuous
 62
     7
370
    25
100
AcDbLine
 10
146.7533906773
 20
235.7969312259
 30
0.0
 11
192.3533906773
 21
235.7969312259
 31
0.0
  0
LINE
  5
12F
330
1F
100
AcDbEntity
  8
0
  6
Continuous
 62
     7
370
    25
100
AcDbLine
 10
145.7533906773
 20
248.4829766287
 30
0.0
 11
145.7533906773
 21
248.7565927433
 31
0.0
  0
LINE
  5
130
330
1F
100
AcDbEntity
  8
0
  6
Continuous
 62
     7
370
    25
100
AcDbLine
 10
145.7533906773
 20
248.7565927433
 30
0.0
 11
193.3533906773
 21
248.7565927433
 31
0.0
  0
LINE
  5
131
330
1F
100
AcDbEntity
  8
0
  6
Continuous
 62
     7
370
    25
100
AcDbLine
 10
145.7533906773
 20
248.4829766287
 30
0.0
 11
193.3533906773
 21
248.4829766287
 31
0.0
  0
LINE
  5
132
330
1F
100
AcDbEntity
  8
0
  6
Continuous
 62
     7
370
    25
100
AcDbLine
 10
193.3533906773
 20
248.4829766287
 30
0.0
 11
193.3533906773
 21
248.7565927433
 31
0.0
  0
LINE
  5
133
330
1F
100
AcDbEntity
  8
0
  6
Continuous
 62
     7
370
    25
100
AcDbLine
 10
146.7533906773
 20
236.8214090589
 30
0.0
 11
145.7533906773
 21
236.8214090589
 31
0.0
  0
LINE
  5
134
330
1F
100
AcDbEntity
  8
0
  6
Continuous
 62
     7
370
    25
100
AcDbLine
 10
192.3533906773
 20
236.8214090589
 30
0.0
 11
193.3533906773
 21
236.8214090589
 31
0.0
  0
LINE
  5
135
330
1F
100
AcDbEntity
  8
0
  6
Continuous
 62
     7
370
    25
100
AcDbLine
 10
192.3533906773
 20
236.8214090589
 30
0.0
 11
192.3533906773
 21
236.4549110826
 31
0.0
  0
LINE
  5
136
330
1F
100
AcDbEntity
  8
0
  6
Continuous
 62
     7
370
    25
100
AcDbLine
 10
146.7533906773
 20
236.4549110826
 30
0.0
 11
192.3533906773
 21
236.4549110826
 31
0.0
  0
LINE
  5
137
330
1F
100
AcDbEntity
  8
0
  6
Continuous
 62
     7
370
    25
100
AcDbLine
 10
146.7533906773
 20
236.8214090589
 30
0.0
 11
146.7533906773
 21
236.4549110826
 31
0.0
  0
LINE
  5
138
330
1F
100
AcDbEntity
  8
0
  6
Continuous
 62
     7
370
    25
100
AcDbLine
 10
145.7533906773
 20
248.4829766287
 30
0.0
 11
145.7533906773
 21
236.8214090589
 31
0.0
  0
LINE
  5
139
330
1F
100
AcDbEntity
  8
0
  6
Continuous
 62
     7
370
    25
100
AcDbLine
 10
193.3533906773
 20
236.8214090589
 30
0.0
 11
193.3533906773
 21
248.4829766287
 31
0.0
  0
LINE
  5
13A
330
1F
100
AcDbEntity
  8
0
  6
Continuous
 62
     7
370
    25
100
AcDbLine
 10
145.7533906773
 20
248.824996772
 30
0.0
 11
145.7533906773
 21
267.1572764543
 31
0.0
  0
LINE
  5
13B
330
1F
100
AcDbEntity
  8
0
  6
Continuous
 62
     7
370
    25
100
AcDbLine
 10
145.7533906773
 20
267.1572764543
 30
0.0
 11
146.5533906773
 21
267.1572764543
 31
0.0
  0
LINE
  5
13C
330
1F
100
AcDbEntity
  8
0
  6
Continuous
 62
     7
370
    25
100
AcDbLine
 10
146.5533906773
 20
248.824996772
 30
0.0
 11
145.7533906773
 21
248.824996772
 31
0.0
  0
LINE
  5
13D
330
1F
100
AcDbEntity
  8
0
  6
Continuous
 62
     7
370
    25
100
AcDbLine
 10
146.5533906773
 20
248.824996772
 30
0.0
 11
146.5533906773
 21
267.1572764543
 31
0.0
  0
LINE
  5
13E
330
1F
100
AcDbEntity
  8
0
  6
Continuous
 62
     7
370
    25
100
AcDbLine
 10
193.3533906773
 20
267.1572764543
 30
0.0
 11
192.5533906773
 21
267.1572764543
 31
0.0
  0
LINE
  5
13F
330
1F
100
AcDbEntity
  8
0
  6
Continuous
 62
     7
370
    25
100
AcDbLine
 10
193.3533906773
 20
248.824996772
 30
0.0
 11
193.3533906773
 21
267.1572764543
 31
0.0
  0
LINE
  5
140
330
1F
100
AcDbEntity
  8
0
  6
Continuous
 62
     7
370
    25
100
AcDbLine
 10
192.5533906773
 20
248.824996772
 30
0.0
 11
193.3533906773
 21
248.824996772
 31
0.0
  0
LINE
  5
141
330
1F
100
AcDbEntity
  8
0
  6
Continuous
 62
     7
370
    25
100
AcDbLine
 10
192.5533906773
 20
248.824996772
 30
0.0
 11
192.5533906773
 21
267.1572764543
 31
0.0
  0
LINE
  5
142
330
1F
100
AcDbEntity
  8
0
  6
Continuous
 62
     7
370
    25
100
AcDbLine
 10
146.5533906773
 20
236.7969312259
 30
0.0
 11
145.7533906773
 21
236.7969312259
 31
0.0
  0
LINE
  5
143
330
1F
100
AcDbEntity
  8
0
  6
Continuous
 62
     7
370
    25
100
AcDbLine
 10
145.7533906773
 20
248.824996772
 30
0.0
 11
145.7533906773
 21
248.7565927433
 31
0.0
  0
LINE
  5
144
330
1F
100
AcDbEntity
  8
0
  6
Continuous
 62
     7
370
    25
100
AcDbLine
 10
145.7533906773
 20
236.8214090589
 30
0.0
 11
145.7533906773
 21
236.7969312259
 31
0.0
  0
LINE
  5
145
330
1F
100
AcDbEntity
  8
0
  6
Continuous
 62
     7
370
    25
100
AcDbLine
 10
146.5533906773
 20
248.824996772
 30
0.0
 11
146.5533906773
 21
248.7565927433
 31
0.0
  0
LINE
  5
146
330
1F
100
AcDbEntity
  8
0
  6
Continuous
 62
     7
370
    25
100
AcDbLine
 10
146.5533906773
 20
236.8214090589
 30
0.0
 11
146.5533906773
 21
236.7969312259
 31
0.0
  0
LINE
  5
147
330
1F
100
AcDbEntity
  8
0
  6
Continuous
 62
     7
370
    25
100
AcDbLine
 10
192.5533906773
 20
236.7969312259
 30
0.0
 11
193.3533906773
 21
236.7969312259
 31
0.0
  0
LINE
  5
148
330
1F
100
AcDbEntity
  8
0
  6
Continuous
 62
     7
370
    25
100
AcDbLine
 10
193.3533906773
 20
236.7969312259
 30
0.0
 11
193.3533906773
 21
236.8214090589
 31
0.0
  0
LINE
  5
149
330
1F
100
AcDbEntity
  8
0
  6
Continuous
 62
     7
370
    25
100
AcDbLine
 10
193.3533906773
 20
248.7565927433
 30
0.0
 11
193.3533906773
 21
248.824996772
 31
0.0
  0
LINE
  5
14A
330
1F
100
AcDbEntity
  8
0
  6
Continuous
 62
     7
370
    25
100
AcDbLine
 10
192.5533906773
 20
236.7969312259
 30
0.0
 11
192.5533906773
 21
236.8214090589
 31
0.0
  0
LINE
  5
14B
330
1F
100
AcDbEntity
  8
0
  6
Continuous
 62
     7
370
    25
100
AcDbLine
 10
192.5533906773
 20
248.7565927433
 30
0.0
 11
192.5533906773
 21
248.824996772
 31
0.0
  0
LINE
  5
14C
330
1F
100
AcDbEntity
  8
0
  6
Continuous
 62
     7
370
    25
100
AcDbLine
 10
192.3533906773
 20
235.7969312259
 30
0.0
 11
192.3533906773
 21
236.4549110826
 31
0.0
  0
LINE
  5
14D
330
1F
100
AcDbEntity
  8
0
  6
Continuous
 62
     7
370
    25
100
AcDbLine
 10
146.7533906773
 20
236.4549110826
 30
0.0
 11
146.7533906773
 21
235.7969312259
 31
0.0
  0
ARC
  5
14E
330
1F
100
AcDbEntity
  8
0
  6
Continuous
 62
     7
370
    25
100
AcDbCircle
 10
146.7241462327
 20
236.8280525139
 30
0.0
 40
0.9712542833276525
100
AcDbArc
 50
181.8362067977
 51
271.7254354149
  0
ARC
  5
14F
330
1F
100
AcDbEntity
  8
0
  6
Continuous
 62
     7
370
    25
100
AcDbCircle
 10
146.7475417884
 20
255.1354351658
 30
0.0
 40
0.1942508566655342
100
AcDbArc
 50
181.8362067976
 51
271.7254354149
  0
LINE
  5
150
330
1F
100
AcDbEntity
  8
0
  6
Continuous
 62
     7
370
    25
100
AcDbLine
 10
146.7533906773
 20
248.7565927433
 30
0.0
 11
146.7533906773
 21
254.941272384
 31
0.0
  0
ARC
  5
151
330
1F
100
AcDbEntity
  8
0
  6
Continuous
 62
     7
370
    25
100
AcDbCircle
 10
146.7475417884
 20
236.8031554835
 30
0.0
 40
0.1942508566654764
100
AcDbArc
 50
181.8362067976
 51
271.7254354149
  0
LINE
  5
152
330
1F
100
AcDbEntity
  8
0
  6
Continuous
 62
     7
370
    25
100
AcDbLine
 10
192.3533906773
 20
254.941272384
 30
0.0
 11
192.3533906773
 21
248.7565927433
 31
0.0
  0
ARC
  5
153
330
1F
100
AcDbEntity
  8
0
  6
Continuous
 62
     7
370
    25
100
AcDbCircle
 10
192.3592395662
 20
255.1354351658
 30
0.0
 40
0.1942508566655245
100
AcDbArc
 50
268.2745645851
 51
358.1637932024
  0
ARC
  5
154
330
1F
100
AcDbEntity
  8
0
  6
Continuous
 62
     7
370
    25
100
AcDbCircle
 10
192.3592395662
 20
236.8031554835
 30
0.0
 40
0.194250856665536
100
AcDbArc
 50
268.2745645851
 51
358.1637932023
  0
ARC
  5
155
330
1F
100
AcDbEntity
  8
0
  6
Continuous
 62
     7
370
    25
100
AcDbCircle
 10
192.3826351219
 20
236.8280525139
 30
0.0
 40
0.9712542833275948
100
AcDbArc
 50
268.2745645851
 51
358.1637932023
  0
LINE
  5
156
330
1F
100
AcDbEntity
  8
0
  6
Continuous
 62
     7
370
    25
100
AcDbLine
 10
146.7533906773
 20
254.941272384
 30
0.0
 11
192.3533906773
 21
254.941272384
 31
0.0
  0
ARC
  5
157
330
1F
100
AcDbEntity
  8
0
  6
Continuous
 62
     7
370
    25
100
AcDbCircle
 10
172.5533906773
 20
361.1087234809
 30
0.0
 40
6.0
100
AcDbArc
 50
0.0
 51
90.0
  0
LINE
  5
158
330
1F
100
AcDbEntity
  8
0
  6
Continuous
 62
     7
370
    25
100
AcDbLine
 10
178.5533906773
 20
288.6604009111
 30
0.0
 11
178.5533906773
 21
361.1087234809
 31
0.0
  0
LINE
  5
159
330
1F
100
AcDbEntity
  8
0
  6
Continuous
 62
     7
370
    25
100
AcDbLine
 10
178.5533906773
 20
288.6604009111
 30
0.0
 11
160.5533906773
 21
288.6604009111
 31
0.0
  0
LINE
  5
15A
330
1F
100
AcDbEntity
  8
0
  6
Continuous
 62
     7
370
    25
100
AcDbLine
 10
160.5533906773
 20
288.6604009111
 30
0.0
 11
160.5533906773
 21
361.1087234809
 31
0.0
  0
LINE
  5
15B
330
1F
100
AcDbEntity
  8
0
  6
Continuous
 62
     7
370
    25
100
AcDbLine
 10
166.5533906773
 20
367.1087234809
 30
0.0
 11
172.5533906773
 21
367.1087234809
 31
0.0
  0
ARC
  5
15C
330
1F
100
AcDbEntity
  8
0
  6
Continuous
 62
     7
370
    25
100
AcDbCircle
 10
169.5533906773
 20
295.484562196
 30
0.0
 40
1.600000000000023
100
AcDbArc
 50
180.0
 51
0.0
  0
LINE
  5
15D
330
1F
100
AcDbEntity
  8
0
  6
Continuous
 62
     7
370
    25
100
AcDbLine
 10
171.1533906773
 20
295.484562196
 30
0.0
 11
171.1533906773
 21
360.284562196
 31
0.0
  0
ARC
  5
15E
330
1F
100
AcDbEntity
  8
0
  6
Continuous
 62
     7
370
    25
100
AcDbCircle
 10
169.5533906773
 20
360.284562196
 30
0.0
 40
1.600000000000023
100
AcDbArc
 50
0.0
 51
180.0
  0
LINE
  5
15F
330
1F
100
AcDbEntity
  8
0
  6
Continuous
 62
     7
370
    25
100
AcDbLine
 10
167.9533906773
 20
295.484562196
 30
0.0
 11
167.9533906773
 21
360.284562196
 31
0.0
  0
ARC
  5
160
330
1F
100
AcDbEntity
  8
0
  6
Continuous
 62
     7
370
    25
100
AcDbCircle
 10
166.5533906773
 20
361.1087234809
 30
0.0
 40
6.0
100
AcDbArc
 50
90.0
 51
180.0
  0
LINE
  5
161
330
1F
100
AcDbEntity
  8
0
  6
Continuous
 62
     7
370
    25
100
AcDbLine
 10
178.5533906773
 20
288.6604009111
 30
0.0
 11
178.5533906773
 21
285.6506236499
 31
0.0
  0
LINE
  5
162
330
1F
100
AcDbEntity
  8
0
  6
Continuous
 62
     7
370
    25
100
AcDbLine
 10
160.5533906773
 20
285.6506236499
 30
0.0
 11
178.5533906773
 21
285.6506236499
 31
0.0
  0
LINE
  5
163
330
1F
100
AcDbEntity
  8
0
  6
Continuous
 62
     7
370
    25
100
AcDbLine
 10
160.5533906773
 20
285.6506236499
 30
0.0
 11
160.5533906773
 21
288.6604009111
 31
0.0
  0
LINE
  5
164
330
1F
100
AcDbEntity
  8
0
  6
Continuous
 62
     7
370
    25
100
AcDbLine
 10
192.3533906773
 20
255.1976149369
 30
0.0
 11
146.7533906773
 21
255.1976149369
 31
0.0
  0
LINE
  5
165
330
1F
100
AcDbEntity
  8
0
  6
Continuous
 62
     7
370
    25
100
AcDbLine
 10
146.7533906773
 20
255.5641129131
 30
0.0
 11
146.7533906773
 21
255.1976149369
 31
0.0
  0
LINE
  5
166
330
1F
100
AcDbEntity
  8
0
  6
Continuous
 62
     7
370
    25
100
AcDbLine
 10
146.7533906773
 20
255.5641129131
 30
0.0
 11
146.5533906773
 21
255.5641129131
 31
0.0
  0
LINE
  5
167
330
1F
100
AcDbEntity
  8
0
  6
Continuous
 62
     7
370
    25
100
AcDbLine
 10
145.7533906773
 20
267.1572764543
 30
0.0
 11
145.7533906773
 21
267.2256804829
 31
0.0
  0
LINE
  5
168
330
1F
100
AcDbEntity
  8
0
  6
Continuous
 62
     7
370
    25
100
AcDbLine
 10
145.7533906773
 20
267.2256804829
 30
0.0
 11
160.5533906773
 21
267.2256804829
 31
0.0
  0
LINE
  5
169
330
1F
100
AcDbEntity
  8
0
  6
Continuous
 62
     7
370
    25
100
AcDbLine
 10
160.5533906773
 20
267.2256804829
 30
0.0
 11
160.5533906773
 21
285.6506236499
 31
0.0
  0
LINE
  5
16A
330
1F
100
AcDbEntity
  8
0
  6
Continuous
 62
     7
370
    25
100
AcDbLine
 10
178.5533906773
 20
267.2256804829
 30
0.0
 11
178.5533906773
 21
285.6506236499
 31
0.0
  0
LINE
  5
16B
330
1F
100
AcDbEntity
  8
0
  6
Continuous
 62
     7
370
    25
100
AcDbLine
 10
178.5533906773
 20
267.2256804829
 30
0.0
 11
193.3533906773
 21
267.2256804829
 31
0.0
  0
LINE
  5
16C
330
1F
100
AcDbEntity
  8
0
  6
Continuous
 62
     7
370
    25
100
AcDbLine
 10
193.3533906773
 20
267.2256804829
 30
0.0
 11
193.3533906773
 21
267.1572764543
 31
0.0
  0
LINE
  5
16D
330
1F
100
AcDbEntity
  8
0
  6
Continuous
 62
     7
370
    25
100
AcDbLine
 10
192.3533906773
 20
255.5641129131
 30
0.0
 11
192.5533906773
 21
255.5641129131
 31
0.0
  0
LINE
  5
16E
330
1F
100
AcDbEntity
  8
0
  6
Continuous
 62
     7
370
    25
100
AcDbLine
 10
192.3533906773
 20
255.5641129131
 30
0.0
 11
192.3533906773
 21
255.1976149369
 31
0.0
  0
LINE
  5
16F
330
1F
100
AcDbEntity
  8
0
  6
Continuous
 62
     7
370
    25
100
AcDbLine
 10
145.7533906773
 20
267.4992965976
 30
0.0
 11
145.7533906773
 21
267.2256804829
 31
0.0
  0
LINE
  5
170
330
1F
100
AcDbEntity
  8
0
  6
Continuous
 62
     7
370
    25
100
AcDbLine
 10
145.7533906773
 20
267.4992965976
 30
0.0
 11
160.5533906773
 21
267.4992965976
 31
0.0
  0
LINE
  5
171
330
1F
100
AcDbEntity
  8
0
  6
Continuous
 62
     7
370
    25
100
AcDbLine
 10
193.3533906773
 20
267.4992965976
 30
0.0
 11
193.3533906773
 21
267.2256804829
 31
0.0
  0
LINE
  5
172
330
1F
100
AcDbEntity
  8
0
  6
Continuous
 62
     7
370
    25
100
AcDbLine
 10
178.5533906773
 20
267.4992965976
 30
0.0
 11
193.3533906773
 21
267.4992965976
 31
0.0
  0
LINE
  5
173
330
1F
100
AcDbEntity
  8
0
  6
Continuous
 62
     7
370
    25
100
AcDbLine
 10
192.3533906773
 20
255.1976149369
 30
0.0
 11
192.3533906773
 21
254.941272384
 31
0.0
  0
LINE
  5
174
330
1F
100
AcDbEntity
  8
0
  6
Continuous
 62
     7
370
    25
100
AcDbLine
 10
146.7533906773
 20
254.941272384
 30
0.0
 11
146.7533906773
 21
255.1976149369
 31
0.0
  0
LINE
  5
175
330
1F
100
AcDbEntity
  8
0
  6
HIDDEN
 62
     7
370
    18
100
AcDbLine
 10
146.5533906773
 20
248.7565927433
 30
0.0
 11
146.5533906773
 21
236.8214090589
 31
0.0
  0
LINE
  5
176
330
1F
100
AcDbEntity
  8
0
  6
HIDDEN
 62
     7
370
    18
100
AcDbLine
 10
192.5533906773
 20
236.8214090589
 30
0.0
 11
192.5533906773
 21
248.7565927433
 31
0.0
  0
LINE
  5
177
330
1F
100
AcDbEntity
  8
0
  6
HIDDEN
 62
     7
370
    18
100
AcDbLine
 10
192.3533906773
 20
237.0950251735
 30
0.0
 11
193.3533906773
 21
237.0950251735
 31
0.0
  0
LINE
  5
178
330
1F
100
AcDbEntity
  8
0
  6
HIDDEN
 62
     7
370
    18
100
AcDbLine
 10
146.7533906773
 20
237.0950251735
 30
0.0
 11
145.7533906773
 21
237.0950251735
 31
0.0
  0
LINE
  5
179
330
1F
100
AcDbEntity
  8
0
  6
HIDDEN
 62
     7
370
    18
100
AcDbLine
 10
146.7533906773
 20
237.0950251735
 30
0.0
 11
146.7533906773
 21
236.8214090589
 31
0.0
  0
LINE
  5
17A
330
1F
100
AcDbEntity
  8
0
  6
HIDDEN
 62
     7
370
    18
100
AcDbLine
 10
192.3533906773
 20
237.0950251735
 30
0.0
 11
192.3533906773
 21
236.8214090589
 31
0.0
  0
LINE
  5
17B
330
1F
100
AcDbEntity
  8
0
  6
HIDDEN
 62
     7
370
    18
100
AcDbLine
 10
192.3533906773
 20
235.8572386052
 30
0.0
 11
146.7533906773
 21
235.8572386052
 31
0.0
  0
LINE
  5
17C
330
1F
100
AcDbEntity
  8
0
  6
HIDDEN
 62
     7
370
    18
100
AcDbLine
 10
192.3533906773
 20
236.6089927018
 30
0.0
 11
146.7533906773
 21
236.6089927018
 31
0.0
  0
LINE
  5
17D
330
1F
100
AcDbEntity
  8
0
  6
HIDDEN
 62
     7
370
    18
100
AcDbLine
 10
146.7533906773
 20
236.7285271973
 30
0.0
 11
192.3533906773
 21
236.7285271973
 31
0.0
  0
ARC
  5
17E
330
1F
100
AcDbEntity
  8
0
  6
HIDDEN
 62
     7
370
    18
100
AcDbCircle
 10
146.7241462327
 20
255.1603321961
 30
0.0
 40
0.9712542833276195
100
AcDbArc
 50
181.8362067977
 51
271.7254354149
  0
LINE
  5
17F
330
1F
100
AcDbEntity
  8
0
  6
HIDDEN
 62
     7
370
    18
100
AcDbLine
 10
146.7533906773
 20
237.0950251735
 30
0.0
 11
146.7533906773
 21
248.7565927433
 31
0.0
  0
LINE
  5
180
330
1F
100
AcDbEntity
  8
0
  6
HIDDEN
 62
     7
370
    18
100
AcDbLine
 10
192.3533906773
 20
248.7565927433
 30
0.0
 11
192.3533906773
 21
237.0950251735
 31
0.0
  0
ARC
  5
181
330
1F
100
AcDbEntity
  8
0
  6
HIDDEN
 62
     7
370
    18
100
AcDbCircle
 10
192.3826351219
 20
255.1603321961
 30
0.0
 40
0.9712542833276232
100
AcDbArc
 50
268.2745645851
 51
358.1637932023
  0
LINE
  5
182
330
1F
100
AcDbEntity
  8
0
  6
HIDDEN
 62
     7
370
    18
100
AcDbLine
 10
146.5533906773
 20
255.5641129131
 30
0.0
 11
145.7533906773
 21
255.5641129131
 31
0.0
  0
LINE
  5
183
330
1F
100
AcDbEntity
  8
0
  6
HIDDEN
 62
     7
370
    18
100
AcDbLine
 10
192.5533906773
 20
255.5641129131
 30
0.0
 11
193.3533906773
 21
255.5641129131
 31
0.0
  0
LINE
  5
184
330
1F
100
AcDbEntity
  8
0
  6
HIDDEN
 62
     7
370
    18
100
AcDbLine
 10
160.5533906773
 20
285.9242397645
 30
0.0
 11
178.5533906773
 21
285.9242397645
 31
0.0
  0
LINE
  5
185
330
1F
100
AcDbEntity
  8
0
  6
HIDDEN
 62
     7
370
    18
100
AcDbLine
 10
192.5533906773
 20
255.1292109082
 30
0.0
 11
193.3533906773
 21
255.1292109082
 31
0.0
  0
LINE
  5
186
330
1F
100
AcDbEntity
  8
0
  6
HIDDEN
 62
     7
370
    18
100
AcDbLine
 10
146.5533906773
 20
255.1292109082
 30
0.0
 11
145.7533906773
 21
255.1292109082
 31
0.0
  0
LINE
  5
187
330
1F
100
AcDbEntity
  8
0
  6
HIDDEN
 62
     7
370
    18
100
AcDbLine
 10
192.3533906773
 20
255.8377290278
 30
0.0
 11
193.3533906773
 21
255.8377290278
 31
0.0
  0
LINE
  5
188
330
1F
100
AcDbEntity
  8
0
  6
HIDDEN
 62
     7
370
    18
100
AcDbLine
 10
146.7533906773
 20
255.8377290278
 30
0.0
 11
145.7533906773
 21
255.8377290278
 31
0.0
  0
LINE
  5
189
330
1F
100
AcDbEntity
  8
0
  6
HIDDEN
 62
     7
370
    18
100
AcDbLine
 10
146.7533906773
 20
255.5641129131
 30
0.0
 11
146.7533906773
 21
255.8377290278
 31
0.0
  0
LINE
  5
18A
330
1F
100
AcDbEntity
  8
0
  6
HIDDEN
 62
     7
370
    18
100
AcDbLine
 10
192.3533906773
 20
255.5641129131
 30
0.0
 11
192.3533906773
 21
255.8377290278
 31
0.0
  0
LINE
  5
18B
330
1F
100
AcDbEntity
  8
0
  6
HIDDEN
 62
     7
370
    18
100
AcDbLine
 10
192.3533906773
 20
255.4712310515
 30
0.0
 11
146.7533906773
 21
255.4712310515
 31
0.0
  0
LINE
  5
18C
330
1F
100
AcDbEntity
  8
0
  6
HIDDEN
 62
     7
370
    18
100
AcDbLine
 10
146.7533906773
 20
254.1895182874
 30
0.0
 11
192.3533906773
 21
254.1895182874
 31
0.0
  0
LINE
  5
18D
330
1F
100
AcDbEntity
  8
0
  6
HIDDEN
 62
     7
370
    18
100
AcDbLine
 10
146.7533906773
 20
236.5969312259
 30
0.0
 11
192.3533906773
 21
236.5969312259
 31
0.0
  0
LINE
  5
18E
330
1F
100
AcDbEntity
  8
0
  6
Continuous
 62
     7
370
    25
100
AcDbLine
 10
220.413294895
 20
187.0548504144
 30
0.0
 11
238.7455745773
 21
136.6873259403
 31
0.0
  0
LINE
  5
18F
330
1F
100
AcDbEntity
  8
0
  6
Continuous
 62
     7
370
    25
100
AcDbLine
 10
220.413294895
 20
187.0548504144
 30
0.0
 11
232.4413604411
 21
191.432708249
 31
0.0
  0
LINE
  5
190
330
1F
100
AcDbEntity
  8
0
  6
Continuous
 62
     7
370
    25
100
AcDbLine
 10
232.4413604411
 20
191.432708249
 30
0.0
 11
250.7736401233
 21
141.0651837749
 31
0.0
  0
LINE
  5
191
330
1F
100
AcDbEntity
  8
0
  6
Continuous
 62
     7
370
    25
100
AcDbLine
 10
250.7736401233
 20
141.0651837749
 30
0.0
 11
238.7455745773
 21
136.6873259403
 31
0.0
  0
LINE
  5
192
330
1F
100
AcDbEntity
  8
0
  6
Continuous
 62
     7
370
    25
100
AcDbLine
 10
251.1156602667
 20
140.1254911541
 30
0.0
 11
250.842044152
 21
140.8772452507
 31
0.0
  0
LINE
  5
193
330
1F
100
AcDbEntity
  8
0
  6
Continuous
 62
     7
370
    25
100
AcDbLine
 10
239.4540926969
 20
135.8810276738
 30
0.0
 11
239.1804765822
 21
136.6327817704
 31
0.0
  0
LINE
  5
194
330
1F
100
AcDbEntity
  8
0
  6
Continuous
 62
     7
370
    25
100
AcDbLine
 10
251.1156602667
 20
140.1254911541
 30
0.0
 11
239.4540926969
 21
135.8810276738
 31
0.0
  0
LINE
  5
195
330
1F
100
AcDbEntity
  8
0
  6
Continuous
 62
     7
370
    25
100
AcDbLine
 10
250.842044152
 20
140.8772452507
 30
0.0
 11
239.1804765822
 21
136.6327817704
 31
0.0
  0
LINE
  5
196
330
1F
100
AcDbEntity
  8
0
  6
Continuous
 62
     7
370
    25
100
AcDbLine
 10
237.8058819565
 20
136.345305797
 30
0.0
 11
238.7455745773
 21
136.6873259403
 31
0.0
  0
LINE
  5
197
330
1F
100
AcDbEntity
  8
0
  6
Continuous
 62
     7
370
    25
100
AcDbLine
 10
237.8058819565
 20
136.345305797
 30
0.0
 11
219.4736022742
 21
186.7128302711
 31
0.0
  0
LINE
  5
198
330
1F
100
AcDbEntity
  8
0
  6
Continuous
 62
     7
370
    25
100
AcDbLine
 10
220.413294895
 20
187.0548504144
 30
0.0
 11
219.4736022742
 21
186.7128302711
 31
0.0
  0
LINE
  5
199
330
1F
100
AcDbEntity
  8
0
  6
Continuous
 62
     7
370
    25
100
AcDbLine
 10
220.437772728
 20
188.1279373895
 30
0.0
 11
220.7113888426
 21
187.3761832928
 31
0.0
  0
LINE
  5
19A
330
1F
100
AcDbEntity
  8
0
  6
Continuous
 62
     7
370
    25
100
AcDbLine
 10
220.437772728
 20
188.1279373895
 30
0.0
 11
232.0993402978
 21
192.3724008698
 31
0.0
  0
LINE
  5
19B
330
1F
100
AcDbEntity
  8
0
  6
Continuous
 62
     7
370
    25
100
AcDbLine
 10
232.0993402978
 20
192.3724008698
 30
0.0
 11
232.3729564124
 21
191.6206467731
 31
0.0
  0
LINE
  5
19C
330
1F
100
AcDbEntity
  8
0
  6
Continuous
 62
     7
370
    25
100
AcDbLine
 10
220.7113888426
 20
187.3761832928
 30
0.0
 11
232.3729564124
 21
191.6206467731
 31
0.0
  0
ARC
  5
19D
330
1F
100
AcDbEntity
  8
0
  6
Continuous
 62
     7
370
    25
100
AcDbCircle
 10
238.7455745773
 20
136.6873259403
 30
0.0
 40
0.2000000000000019
100
AcDbArc
 50
200.0
 51
290.0
  0
LINE
  5
19E
330
1F
100
AcDbEntity
  8
0
  6
Continuous
 62
     7
370
    25
100
AcDbLine
 10
238.8139786059
 20
136.4993874161
 30
0.0
 11
239.0875947206
 21
135.7476333195
 31
0.0
  0
ARC
  5
19F
330
1F
100
AcDbEntity
  8
0
  6
Continuous
 62
     7
370
    25
100
AcDbCircle
 10
238.7455745773
 20
136.6873259403
 30
0.0
 40
1.000000000000007
100
AcDbArc
 50
200.0
 51
290.0
  0
LINE
  5
1A0
330
1F
100
AcDbEntity
  8
0
  6
Continuous
 62
     7
370
    25
100
AcDbLine
 10
239.4540926969
 20
135.8810276738
 30
0.0
 11
239.0875947206
 21
135.7476333195
 31
0.0
  0
LINE
  5
1A1
330
1F
100
AcDbEntity
  8
0
  6
Continuous
 62
     7
370
    25
100
AcDbLine
 10
239.1804765822
 20
136.6327817704
 30
0.0
 11
238.8139786059
 21
136.4993874161
 31
0.0
  0
LINE
  5
1A2
330
1F
100
AcDbEntity
  8
0
  6
Continuous
 62
     7
370
    25
100
AcDbLine
 10
220.3448908664
 20
187.2427889386
 30
0.0
 11
220.0712747517
 21
187.9945430352
 31
0.0
  0
LINE
  5
1A3
330
1F
100
AcDbEntity
  8
0
  6
Continuous
 62
     7
370
    25
100
AcDbLine
 10
220.437772728
 20
188.1279373895
 30
0.0
 11
220.0712747517
 21
187.9945430352
 31
0.0
  0
LINE
  5
1A4
330
1F
100
AcDbEntity
  8
0
  6
Continuous
 62
     7
370
    25
100
AcDbLine
 10
220.7113888426
 20
187.3761832928
 30
0.0
 11
220.3448908664
 21
187.2427889386
 31
0.0
  0
ARC
  5
1A5
330
1F
100
AcDbEntity
  8
0
  6
Continuous
 62
     7
370
    25
100
AcDbCircle
 10
220.413294895
 20
187.0548504144
 30
0.0
 40
0.2000000000000286
100
AcDbArc
 50
110.0
 51
200.0
  0
ARC
  5
1A6
330
1F
100
AcDbEntity
  8
0
  6
Continuous
 62
     7
370
    25
100
AcDbCircle
 10
220.413294895
 20
187.0548504144
 30
0.0
 40
1.000000000000034
100
AcDbArc
 50
110.0
 51
200.0
  0
LINE
  5
1A7
330
1F
100
AcDbEntity
  8
0
  6
Continuous
 62
     7
370
    25
100
AcDbLine
 10
350.72508715
 20
148.1140810686
 30
0.0
 11
350.72508715
 21
147.3140810686
 31
0.0
  0
LINE
  5
1A8
330
1F
100
AcDbEntity
  8
0
  6
Continuous
 62
     7
370
    25
100
AcDbLine
 10
350.72508715
 20
147.3140810686
 30
0.0
 11
344.72508715
 21
147.3140810686
 31
0.0
  0
LINE
  5
1A9
330
1F
100
AcDbEntity
  8
0
  6
Continuous
 62
     7
370
    25
100
AcDbLine
 10
344.72508715
 20
147.3140810686
 30
0.0
 11
344.72508715
 21
148.1140810686
 31
0.0
  0
LINE
  5
1AA
330
1F
100
AcDbEntity
  8
0
  6
Continuous
 62
     7
370
    25
100
AcDbLine
 10
344.72508715
 20
148.1140810686
 30
0.0
 11
350.72508715
 21
148.1140810686
 31
0.0
  0
LINE
  5
1AB
330
1F
100
AcDbEntity
  8
0
  6
Continuous
 62
     7
370
    25
100
AcDbLine
 10
272.2767645802
 20
148.1140810686
 30
0.0
 11
272.2767645802
 21
147.3140810686
 31
0.0
  0
LINE
  5
1AC
330
1F
100
AcDbEntity
  8
0
  6
Continuous
 62
     7
370
    25
100
AcDbLine
 10
272.2767645802
 20
148.1140810686
 30
0.0
 11
344.72508715
 21
148.1140810686
 31
0.0
  0
LINE
  5
1AD
330
1F
100
AcDbEntity
  8
0
  6
Continuous
 62
     7
370
    25
100
AcDbLine
 10
272.2767645802
 20
147.3140810686
 30
0.0
 11
344.72508715
 21
147.3140810686
 31
0.0
  0
LINE
  5
1AE
330
1F
100
AcDbEntity
  8
0
  6
Continuous
 62
     7
370
    25
100
AcDbLine
 10
269.266987319
 20
147.5833761315
 30
0.0
 11
269.5406034336
 21
146.8316220349
 31
0.0
  0
LINE
  5
1AF
330
1F
100
AcDbEntity
  8
0
  6
Continuous
 62
     7
370
    25
100
AcDbLine
 10
251.1156602667
 20
140.1254911541
 30
0.0
 11
269.5406034336
 21
146.8316220349
 31
0.0
  0
LINE
  5
1B0
330
1F
100
AcDbEntity
  8
0
  6
Continuous
 62
     7
370
    25
100
AcDbLine
 10
250.842044152
 20
140.8772452507
 30
0.0
 11
269.266987319
 21
147.5833761315
 31
0.0
  0
ARC
  5
1B1
330
1F
100
AcDbEntity
  8
0
  6
Continuous
 62
     7
370
    25
100
AcDbCircle
 10
272.2767645802
 20
139.3140810686
 30
0.0
 40
8.000000000000032
100
AcDbArc
 50
90.0
 51
110.0
  0
ARC
  5
1B2
330
1F
100
AcDbEntity
  8
0
  6
Continuous
 62
     7
370
    25
100
AcDbCircle
 10
272.2767645802
 20
139.3140810686
 30
0.0
 40
8.80000000000004
100
AcDbArc
 50
90.0
 51
110.0
  0
LINE
  5
1B3
330
1F
100
AcDbEntity
  8
0
  6
HIDDEN
 62
     7
370
    18
100
AcDbLine
 10
238.5576360531
 20
136.6189219116
 30
0.0
 11
220.2253563709
 21
186.9864463857
 31
0.0
  0
LINE
  5
1B4
330
1F
100
AcDbEntity
  8
0
  6
HIDDEN
 62
     7
370
    18
100
AcDbLine
 10
343.9009258651
 20
147.3140810686
 30
0.0
 11
343.9009258651
 21
148.1140810686
 31
0.0
  0
LINE
  5
1B5
330
1F
100
AcDbEntity
  8
0
  6
HIDDEN
 62
     7
370
    18
100
AcDbLine
 10
279.1009258651
 20
147.3140810686
 30
0.0
 11
279.1009258651
 21
148.1140810686
 31
0.0
  0
LINE
  5
1B6
330
1F
100
AcDbEntity
  8
0
  6
HIDDEN
 62
     7
370
    18
100
AcDbLine
 10
345.5009258651
 20
147.3140810686
 30
0.0
 11
345.5009258651
 21
148.1140810686
 31
0.0
  0
LINE
  5
1B7
330
1F
100
AcDbEntity
  8
0
  6
HIDDEN
 62
     7
370
    18
100
AcDbLine
 10
277.5009258651
 20
148.1140810686
 30
0.0
 11
277.5009258651
 21
147.3140810686
 31
0.0
  0
LINE
  5
1B8
330
1F
100
AcDbEntity
  8
0
  6
Continuous
 62
     7
370
    25
100
AcDbLine
 10
209.6001603921
 20
287.0066342054
 30
0.0
 11
222.5630396701
 21
253.362805799
 31
0.0
  0
LINE
  5
1B9
330
1F
100
AcDbEntity
  8
0
  6
Continuous
 62
     7
370
    25
100
AcDbLine
 10
222.9962125181
 20
252.8562903434
 30
0.0
 11
255.2402817402
 21
234.2421853938
 31
0.0
  0
LINE
  5
1BA
330
1F
100
AcDbEntity
  8
0
  6
Continuous
 62
     7
370
    25
100
AcDbLine
 10
322.678358846
 20
295.1291206991
 30
0.0
 11
322.678358846
 21
295.7823533486
 31
0.0
  0
LINE
  5
1BB
330
1F
100
AcDbEntity
  8
0
  6
Continuous
 62
     7
370
    25
100
AcDbLine
 10
210.5506010481
 20
288.2523788727
 30
0.0
 11
209.8434942669
 21
288.6605829286
 31
0.0
  0
LINE
  5
1BC
330
1F
100
AcDbEntity
  8
0
  6
Continuous
 62
     7
370
    25
100
AcDbLine
 10
218.0894677748
 20
296.8866597651
 30
0.0
 11
209.8434942669
 21
288.6605829286
 31
0.0
  0
LINE
  5
1BD
330
1F
100
AcDbEntity
  8
0
  6
Continuous
 62
     7
370
    25
100
AcDbLine
 10
218.0894677748
 20
296.8866597651
 30
0.0
 11
251.7477505593
 21
277.4561467037
 31
0.0
  0
LINE
  5
1BE
330
1F
100
AcDbEntity
  8
0
  6
Continuous
 62
     7
370
    25
100
AcDbLine
 10
243.5017770514
 20
269.2300698672
 30
0.0
 11
251.7477505593
 21
277.4561467037
 31
0.0
  0
LINE
  5
1BF
330
1F
100
AcDbEntity
  8
0
  6
Continuous
 62
     7
370
    25
100
AcDbLine
 10
242.7946702702
 20
269.6382739231
 30
0.0
 11
243.5017770514
 21
269.2300698672
 31
0.0
  0
LINE
  5
1C0
330
1F
100
AcDbEntity
  8
0
  6
Continuous
 62
     7
370
    25
100
AcDbLine
 10
242.7946702702
 20
269.6382739231
 30
0.0
 11
242.5355170659
 21
269.3797460284
 31
0.0
  0
LINE
  5
1C1
330
1F
100
AcDbEntity
  8
0
  6
Continuous
 62
     7
370
    25
100
AcDbLine
 10
210.2914478438
 20
287.9938509779
 30
0.0
 11
242.5355170659
 21
269.3797460284
 31
0.0
  0
LINE
  5
1C2
330
1F
100
AcDbEntity
  8
0
  6
Continuous
 62
     7
370
    25
100
AcDbLine
 10
210.5506010481
 20
288.2523788727
 30
0.0
 11
210.2914478438
 21
287.9938509779
 31
0.0
  0
LINE
  5
1C3
330
1F
100
AcDbEntity
  8
0
  6
Continuous
 62
     7
370
    25
100
AcDbLine
 10
243.5017770514
 20
269.2300698672
 30
0.0
 11
243.6952528615
 21
268.7279231746
 31
0.0
  0
LINE
  5
1C4
330
1F
100
AcDbEntity
  8
0
  6
Continuous
 62
     7
370
    25
100
AcDbLine
 10
251.7477505593
 20
277.4561467037
 30
0.0
 11
251.9412263694
 21
276.9540000111
 31
0.0
  0
LINE
  5
1C5
330
1F
100
AcDbEntity
  8
0
  6
Continuous
 62
     7
370
    25
100
AcDbLine
 10
243.6952528615
 20
268.7279231746
 30
0.0
 11
251.9412263694
 21
276.9540000111
 31
0.0
  0
LINE
  5
1C6
330
1F
100
AcDbEntity
  8
0
  6
Continuous
 62
     7
370
    25
100
AcDbLine
 10
264.9524745999
 20
243.1846349315
 30
0.0
 11
256.4473478877
 21
234.7000302003
 31
0.0
  0
LINE
  5
1C7
330
1F
100
AcDbEntity
  8
0
  6
Continuous
 62
     7
370
    25
100
AcDbLine
 10
243.4844686098
 20
268.3438586067
 30
0.0
 11
256.4473478877
 21
234.7000302003
 31
0.0
  0
LINE
  5
1C8
330
1F
100
AcDbEntity
  8
0
  6
Continuous
 62
     7
370
    25
100
AcDbLine
 10
243.4844686098
 20
268.3438586067
 30
0.0
 11
251.9895953219
 21
276.8284633379
 31
0.0
  0
LINE
  5
1C9
330
1F
100
AcDbEntity
  8
0
  6
Continuous
 62
     7
370
    25
100
AcDbLine
 10
251.9895953219
 20
276.8284633379
 30
0.0
 11
264.9524745999
 21
243.1846349315
 31
0.0
  0
LINE
  5
1CA
330
1F
100
AcDbEntity
  8
0
  6
Continuous
 62
     7
370
    25
100
AcDbLine
 10
242.9187831848
 20
268.6704218514
 30
0.0
 11
243.4844686098
 21
268.3438586067
 31
0.0
  0
LINE
  5
1CB
330
1F
100
AcDbEntity
  8
0
  6
Continuous
 62
     7
370
    25
100
AcDbLine
 10
242.9187831848
 20
268.6704218514
 30
0.0
 11
243.2399183766
 21
268.9907821776
 31
0.0
  0
LINE
  5
1CC
330
1F
100
AcDbEntity
  8
0
  6
Continuous
 62
     7
370
    25
100
AcDbLine
 10
251.8792443819
 20
276.8921675796
 30
0.0
 11
251.9895953219
 21
276.8284633379
 31
0.0
  0
LINE
  5
1CD
330
1F
100
AcDbEntity
  8
0
  6
Continuous
 62
     7
370
    25
100
AcDbLine
 10
242.9881460803
 20
269.1361272305
 30
0.0
 11
242.7946702702
 21
269.6382739231
 31
0.0
  0
LINE
  5
1CE
330
1F
100
AcDbEntity
  8
0
  6
Continuous
 62
     7
370
    25
100
AcDbLine
 10
242.9881460803
 20
269.1361272305
 30
0.0
 11
243.6952528615
 21
268.7279231746
 31
0.0
  0
ARC
  5
1CF
330
1F
100
AcDbEntity
  8
0
  6
Continuous
 62
     7
370
    25
100
AcDbCircle
 10
242.6195066611
 20
269.1815742971
 30
0.0
 40
1.204129042347505
100
AcDbArc
 50
245.1195968597
 51
315.9167691777
  0
LINE
  5
1D0
330
1F
100
AcDbEntity
  8
0
  6
Continuous
 62
     7
370
    25
100
AcDbLine
 10
242.6444692237
 20
268.6194907137
 30
0.0
 11
242.1128988042
 21
268.089202918
 31
0.0
  0
ARC
  5
1D1
330
1F
100
AcDbEntity
  8
0
  6
Continuous
 62
     7
370
    25
100
AcDbCircle
 10
242.7457907951
 20
268.8379649895
 30
0.0
 40
0.2408258084695596
100
AcDbArc
 50
245.1195968597
 51
315.9167691778
  0
ARC
  5
1D2
330
1F
100
AcDbEntity
  8
0
  6
Continuous
 62
     7
370
    25
100
AcDbCircle
 10
255.582385939
 20
235.5377458907
 30
0.0
 40
1.204129042347503
100
AcDbArc
 50
245.1195968597
 51
315.9167691777
  0
LINE
  5
1D3
330
1F
100
AcDbEntity
  8
0
  6
Continuous
 62
     7
370
    25
100
AcDbLine
 10
255.0757780821
 20
234.4453745116
 30
0.0
 11
242.1128988042
 21
268.089202918
 31
0.0
  0
ARC
  5
1D4
330
1F
100
AcDbEntity
  8
0
  6
Continuous
 62
     7
370
    25
100
AcDbCircle
 10
243.452412154
 20
268.3650178452
 30
0.0
 40
1.367614671014914
100
AcDbArc
 50
132.1005538061
 51
191.6349785584
  0
LINE
  5
1D5
330
1F
100
AcDbEntity
  8
0
  6
Continuous
 62
     7
370
    25
100
AcDbLine
 10
242.728992876
 20
268.8775993358
 30
0.0
 11
242.5355170659
 21
269.3797460284
 31
0.0
  0
ARC
  5
1D6
330
1F
100
AcDbEntity
  8
0
  6
Continuous
 62
     7
370
    25
100
AcDbCircle
 10
242.9123718936
 20
268.6746536991
 30
0.0
 40
0.2735229342031593
100
AcDbArc
 50
132.1005538061
 51
191.6349785584
  0
LINE
  5
1D7
330
1F
100
AcDbEntity
  8
0
  6
Continuous
 62
     7
370
    25
100
AcDbLine
 10
242.1128988042
 20
268.089202918
 30
0.0
 11
209.8688295821
 21
286.7033078675
 31
0.0
  0
ARC
  5
1D8
330
1F
100
AcDbEntity
  8
0
  6
Continuous
 62
     7
370
    25
100
AcDbCircle
 10
211.2083429319
 20
286.9791227947
 30
0.0
 40
1.367614671014765
100
AcDbArc
 50
132.1005538061
 51
191.6349785584
  0
LINE
  5
1D9
330
1F
100
AcDbEntity
  8
0
  6
Continuous
 62
     7
370
    25
100
AcDbLine
 10
242.9881460803
 20
269.1361272305
 30
0.0
 11
242.728992876
 21
268.8775993358
 31
0.0
  0
LINE
  5
1DA
330
1F
100
AcDbEntity
  8
0
  6
Continuous
 62
     7
370
    25
100
AcDbLine
 10
222.83170886
 20
253.0594794612
 30
0.0
 11
255.0757780821
 21
234.4453745116
 31
0.0
  0
LINE
  5
1DB
330
1F
100
AcDbEntity
  8
0
  6
Continuous
 62
     7
370
    25
100
AcDbLine
 10
209.8688295821
 20
286.7033078675
 30
0.0
 11
222.83170886
 21
253.0594794612
 31
0.0
  0
LINE
  5
1DC
330
1F
100
AcDbEntity
  8
0
  6
Continuous
 62
     7
370
    25
100
AcDbLine
 10
210.1473210171
 20
288.0947319943
 30
0.0
 11
209.8261858253
 21
287.7743716681
 31
0.0
  0
LINE
  5
1DD
330
1F
100
AcDbEntity
  8
0
  6
Continuous
 62
     7
370
    25
100
AcDbLine
 10
210.0332519761
 20
287.6548349236
 30
0.0
 11
209.8261858253
 21
287.7743716681
 31
0.0
  0
LINE
  5
1DE
330
1F
100
AcDbEntity
  8
0
  6
Continuous
 62
     7
370
    25
100
AcDbLine
 10
209.8434942669
 20
288.6605829286
 30
0.0
 11
210.0369700771
 21
288.158436236
 31
0.0
  0
LINE
  5
1DF
330
1F
100
AcDbEntity
  8
0
  6
Continuous
 62
     7
370
    25
100
AcDbLine
 10
210.3026730981
 20
288.0050491469
 30
0.0
 11
210.0369700771
 21
288.158436236
 31
0.0
  0
ARC
  5
1E0
330
1F
100
AcDbEntity
  8
0
  6
Continuous
 62
     7
370
    25
100
AcDbCircle
 10
223.1207832446
 20
253.5861741831
 30
0.0
 40
0.6008088963490913
100
AcDbArc
 50
201.8254007609
 51
241.2399865983
  0
ARC
  5
1E1
330
1F
100
AcDbEntity
  8
0
  6
Continuous
 62
     7
370
    25
100
AcDbCircle
 10
210.2139096087
 20
287.2534278378
 30
0.0
 40
0.6493937222586595
100
AcDbArc
 50
126.6592690569
 51
237.900716035
  0
LINE
  5
1E2
330
1F
100
AcDbEntity
  8
0
  6
Continuous
 62
     7
370
    25
100
AcDbLine
 10
254.8348579276
 20
269.4438750205
 30
0.0
 11
254.8361433858
 21
269.445157377
 31
0.0
  0
LINE
  5
1E3
330
1F
100
AcDbEntity
  8
0
  6
Continuous
 62
     7
370
    25
100
AcDbLine
 10
254.8361433858
 20
269.445157377
 30
0.0
 11
267.5640654472
 21
262.0974843706
 31
0.0
  0
LINE
  5
1E4
330
1F
100
AcDbEntity
  8
0
  6
Continuous
 62
     7
370
    25
100
AcDbLine
 10
260.4137524778
 20
254.9644243583
 30
0.0
 11
267.5640654472
 21
262.0974843706
 31
0.0
  0
LINE
  5
1E5
330
1F
100
AcDbEntity
  8
0
  6
Continuous
 62
     7
370
    25
100
AcDbLine
 10
264.8904926124
 20
243.1228025001
 30
0.0
 11
265.0008435524
 21
243.0590982584
 31
0.0
  0
LINE
  5
1E6
330
1F
100
AcDbEntity
  8
0
  6
Continuous
 62
     7
370
    25
100
AcDbLine
 10
265.0008435524
 20
243.0590982584
 30
0.0
 11
256.7548700445
 21
234.8330214219
 31
0.0
  0
LINE
  5
1E7
330
1F
100
AcDbEntity
  8
0
  6
Continuous
 62
     7
370
    25
100
AcDbLine
 10
256.6445191045
 20
234.8967256636
 30
0.0
 11
256.7548700445
 21
234.8330214219
 31
0.0
  0
LINE
  5
1E8
330
1F
100
AcDbEntity
  8
0
  6
Continuous
 62
     7
370
    25
100
AcDbLine
 10
265.1943193625
 20
242.5569515657
 30
0.0
 11
265.0008435524
 21
243.0590982584
 31
0.0
  0
LINE
  5
1E9
330
1F
100
AcDbEntity
  8
0
  6
Continuous
 62
     7
370
    25
100
AcDbLine
 10
256.9483458546
 20
234.3308747293
 30
0.0
 11
256.7548700445
 21
234.8330214219
 31
0.0
  0
LINE
  5
1EA
330
1F
100
AcDbEntity
  8
0
  6
Continuous
 62
     7
370
    25
100
AcDbLine
 10
265.1943193625
 20
242.5569515657
 30
0.0
 11
256.9483458546
 21
234.3308747293
 31
0.0
  0
LWPOLYLINE
  5
1EB
330
1F
100
AcDbEntity
  8
0
  6
Continuous
 62
     7
370
    25
100
AcDbPolyline
 90
        9
 70
   128
 43
0.0
 10
255.8564330133
 20
234.3698687973
 10
255.8478085844
 20
234.3632941293
 10
255.7093975419
 20
234.2746649994
 10
255.5721718002
 20
234.2180694686
 10
255.4414048678
 20
234.1956824714
 10
255.3221220444
 20
234.2083643276
 10
255.218907302
 20
234.2556276804
 10
255.1357271254
 20
234.3356562258
 10
255.0757780821
 20
234.4453745116
  0
ARC
  5
1EC
330
1F
100
AcDbEntity
  8
0
  6
Continuous
 62
     7
370
    25
100
AcDbCircle
 10
223.1906754403
 20
253.1819155459
 30
0.0
 40
0.3792724622964752
100
AcDbArc
 50
198.8334485553
 51
239.1544092903
  0
LINE
  5
1ED
330
1F
100
AcDbEntity
  8
0
  6
Continuous
 62
     7
370
    25
100
AcDbLine
 10
256.3945251292
 20
234.6505886287
 30
0.0
 11
256.9483458546
 21
234.3308747293
 31
0.0
  0
LINE
  5
1EE
330
1F
100
AcDbEntity
  8
0
  6
Continuous
 62
     7
370
    25
100
AcDbLine
 10
267.5640654472
 20
262.0974843706
 30
0.0
 11
267.7575412573
 21
261.595337678
 31
0.0
  0
LINE
  5
1EF
330
1F
100
AcDbEntity
  8
0
  6
Continuous
 62
     7
370
    25
100
AcDbLine
 10
260.6072282879
 20
254.4622776657
 30
0.0
 11
267.7575412573
 21
261.595337678
 31
0.0
  0
LINE
  5
1F0
330
1F
100
AcDbEntity
  8
0
  6
Continuous
 62
     7
370
    25
100
AcDbLine
 10
269.6922993585
 20
263.7594298962
 30
0.0
 11
256.9643772971
 21
271.1071029026
 31
0.0
  0
ARC
  5
1F1
330
1F
100
AcDbEntity
  8
0
  6
Continuous
 62
     7
370
    25
100
AcDbCircle
 10
275.0117971718
 20
254.7538056671
 30
0.0
 40
10.45936540818394
100
AcDbArc
 50
120.5697597039
 51
135.4030515309
  0
ARC
  5
1F2
330
1F
100
AcDbEntity
  8
0
  6
Continuous
 62
     7
370
    25
100
AcDbCircle
 10
262.2838751104
 20
262.1014786735
 30
0.0
 40
10.45936540818797
100
AcDbArc
 50
120.5697597039
 51
135.4030515309
  0
ARC
  5
1F3
330
1F
100
AcDbEntity
  8
0
  6
Continuous
 62
     7
370
    25
100
AcDbCircle
 10
274.5282064615
 20
254.9192661293
 30
0.0
 40
9.508514007436569
100
AcDbArc
 50
120.5697597039
 51
135.4030515309
  0
LINE
  5
1F4
330
1F
100
AcDbEntity
  8
0
  6
Continuous
 62
     7
370
    25
100
AcDbLine
 10
269.6922993585
 20
263.7594298962
 30
0.0
 11
269.6922993585
 21
263.1061972467
 31
0.0
  0
ARC
  5
1F5
330
1F
100
AcDbEntity
  8
0
  6
Continuous
 62
     7
370
    25
100
AcDbCircle
 10
319.9676493047
 20
295.7823533486
 30
0.0
 40
2.628226874425405
100
AcDbArc
 50
291.2682653033
 51
68.7317346967
  0
LINE
  5
1F6
330
1F
100
AcDbEntity
  8
0
  6
Continuous
 62
     7
370
    25
100
AcDbLine
 10
269.6922993585
 20
263.7594298962
 30
0.0
 11
320.9209995331
 21
293.3331290132
 31
0.0
  0
LINE
  5
1F7
330
1F
100
AcDbEntity
  8
0
  6
Continuous
 62
     7
370
    25
100
AcDbLine
 10
256.9643772971
 20
271.1071029026
 30
0.0
 11
308.1930774718
 21
300.6808020196
 31
0.0
  0
ARC
  5
1F8
330
1F
100
AcDbEntity
  8
0
  6
Continuous
 62
     7
370
    25
100
AcDbCircle
 10
312.4357181589
 20
292.5337421164
 30
0.0
 40
9.185563949246058
100
AcDbArc
 50
62.4914255688
 51
117.5085744312
  0
LINE
  5
1F9
330
1F
100
AcDbEntity
  8
0
  6
Continuous
 62
     7
370
    25
100
AcDbLine
 10
316.678358846
 20
300.6808020196
 30
0.0
 11
320.9209995331
 21
298.2315776841
 31
0.0
  0
LWPOLYLINE
  5
1FA
330
1F
100
AcDbEntity
  8
0
  6
Continuous
 62
     7
370
    25
100
AcDbPolyline
 90
       13
 70
   128
 43
0.0
 10
269.2851198981
 20
269.5657902247
 10
268.9537490482
 20
269.4190033958
 10
268.5678595204
 20
269.3267293376
 10
268.1537490482
 20
269.2952563748
 10
267.7396385761
 20
269.3267293376
 10
267.3537490482
 20
269.4190033958
 10
267.0223781983
 20
269.5657902247
 10
266.7681084022
 20
269.7570865444
 10
266.6082677262
 20
269.9798558271
 10
266.5537490482
 20
270.2189167141
 10
266.6082677262
 20
270.4579776011
 10
266.7681084022
 20
270.6807468838
 10
267.0223781983
 20
270.8720432036
  0
LINE
  5
1FB
330
1F
100
AcDbEntity
  8
0
  6
Continuous
 62
     7
370
    25
100
AcDbLine
 10
269.2851198981
 20
269.5657902247
 30
0.0
 11
315.105639319
 21
296.0174130477
 31
0.0
  0
LWPOLYLINE
  5
1FC
330
1F
100
AcDbEntity
  8
0
  6
Continuous
 62
     7
370
    25
100
AcDbPolyline
 90
       13
 70
   128
 43
0.0
 10
312.8428976192
 20
297.3236660266
 10
313.1742684691
 20
297.4704528555
 10
313.560157997
 20
297.5627269136
 10
313.9742684691
 20
297.5941998765
 10
314.3883789413
 20
297.5627269136
 10
314.7742684691
 20
297.4704528555
 10
315.105639319
 20
297.3236660266
 10
315.3599091152
 20
297.1323697068
 10
315.5197497912
 20
296.9096004242
 10
315.5742684691
 20
296.6705395372
 10
315.5197497912
 20
296.4314786501
 10
315.3599091152
 20
296.2087093675
 10
315.105639319
 20
296.0174130477
  0
LINE
  5
1FD
330
1F
100
AcDbEntity
  8
0
  6
Continuous
 62
     7
370
    25
100
AcDbLine
 10
267.0223781983
 20
270.8720432036
 30
0.0
 11
312.8428976192
 21
297.3236660266
 31
0.0
  0
LINE
  5
1FE
330
1F
100
AcDbEntity
  8
0
  6
Continuous
 62
     7
370
    25
100
AcDbLine
 10
320.9209995331
 20
292.6798963637
 30
0.0
 11
320.9209995331
 21
293.3331290132
 31
0.0
  0
LINE
  5
1FF
330
1F
100
AcDbEntity
  8
0
  6
Continuous
 62
     7
370
    25
100
AcDbLine
 10
269.6922993585
 20
263.1061972467
 30
0.0
 11
320.9209995331
 21
292.6798963637
 31
0.0
  0
LINE
  5
200
330
1F
100
AcDbEntity
  8
0
  6
Continuous
 62
     7
370
    25
100
AcDbLine
 10
267.0223781983
 20
270.2188105541
 30
0.0
 11
267.0223781983
 21
270.8720432036
 31
0.0
  0
LWPOLYLINE
  5
201
330
1F
100
AcDbEntity
  8
0
  6
Continuous
 62
     7
370
    25
100
AcDbPolyline
 90
        3
 70
   128
 43
0.0
 10
266.6571208495
 20
269.8923003894
 10
266.7681084022
 20
270.0275142343
 10
267.0223781983
 20
270.2188105541
  0
LINE
  5
202
330
1F
100
AcDbEntity
  8
0
  6
Continuous
 62
     7
370
    25
100
AcDbLine
 10
312.8428976192
 20
296.6704333771
 30
0.0
 11
312.8428976192
 21
297.3236660266
 31
0.0
  0
LINE
  5
203
330
1F
100
AcDbEntity
  8
0
  6
Continuous
 62
     7
370
    25
100
AcDbLine
 10
267.0223781983
 20
270.2188105541
 30
0.0
 11
312.8428976192
 21
296.6704333771
 31
0.0
  0
ARC
  5
204
330
1F
100
AcDbEntity
  8
0
  6
Continuous
 62
     7
370
    25
100
AcDbCircle
 10
319.7016377078
 20
295.4098882892
 30
0.0
 40
2.989932971559856
100
AcDbArc
 50
294.0681184713
 51
354.6117405711
  0
ARC
  5
205
330
1F
100
AcDbEntity
  8
0
  6
Continuous
 62
     7
370
    25
100
AcDbCircle
 10
313.9442068136
 20
294.7952867671
 30
0.0
 40
2.174639453030819
100
AcDbArc
 50
45.4088755395
 51
120.4265247526
  0
LINE
  5
206
330
1F
100
AcDbEntity
  8
0
  6
CENTERX2
 62
     7
100
AcDbLine
 10
89.7671781201
 20
239.0776465444
 30
0.0
 11
71.7671781201
 21
239.0776465444
 31
0.0
  0
LINE
  5
207
330
1F
100
AcDbEntity
  8
0
  6
CENTERX2
 62
     7
100
AcDbLine
 10
57.6676206914
 20
274.3628113395
 30
0.0
 11
57.6676206914
 21
326.3628113395
 31
0.0
  0
LINE
  5
208
330
1F
100
AcDbEntity
  8
0
  6
CENTERX2
 62
     7
100
AcDbLine
 10
103.8667355489
 20
274.3628113395
 30
0.0
 11
103.8667355489
 21
326.3628113395
 31
0.0
  0
LINE
  5
209
330
1F
100
AcDbEntity
  8
0
  6
CENTERX2
 62
     7
100
AcDbLine
 10
102.7671781201
 20
327.4623687683
 30
0.0
 11
58.7671781201
 21
327.4623687683
 31
0.0
  0
LINE
  5
20A
330
1F
100
AcDbEntity
  8
0
  6
CENTERX2
 62
     7
100
AcDbLine
 10
102.7671781201
 20
273.2632539108
 30
0.0
 11
58.7671781201
 21
273.2632539108
 31
0.0
  0
LINE
  5
20B
330
1F
100
AcDbEntity
  8
0
  6
Continuous
 62
     7
370
    25
100
AcDbLine
 10
82.3671781201
 20
231.7270159951
 30
0.0
 11
82.3671781201
 21
166.9270159951
 31
0.0
  0
ARC
  5
20C
330
1F
100
AcDbEntity
  8
0
  6
Continuous
 62
     7
370
    25
100
AcDbCircle
 10
80.7671781201
 20
231.7270159951
 30
0.0
 40
1.599999999999994
100
AcDbArc
 50
0.0
 51
180.0
  0
LINE
  5
20D
330
1F
100
AcDbEntity
  8
0
  6
Continuous
 62
     7
370
    25
100
AcDbLine
 10
79.1671781201
 20
231.7270159951
 30
0.0
 11
79.1671781201
 21
166.9270159951
 31
0.0
  0
ARC
  5
20E
330
1F
100
AcDbEntity
  8
0
  6
Continuous
 62
     7
370
    25
100
AcDbCircle
 10
80.7671781201
 20
166.9270159951
 30
0.0
 40
1.600000000000009
100
AcDbArc
 50
180.0
 51
0.0
  0
LINE
  5
20F
330
1F
100
AcDbEntity
  8
0
  6
Continuous
 62
     7
370
    25
100
AcDbLine
 10
104.5671781201
 20
271.773597482
 30
0.0
 11
102.7671781201
 21
271.773597482
 31
0.0
  0
LINE
  5
210
330
1F
100
AcDbEntity
  8
0
  6
Continuous
 62
     7
370
    25
100
AcDbLine
 10
104.5671781201
 20
260.163696482
 30
0.0
 11
104.5671781201
 21
271.773597482
 31
0.0
  0
LINE
  5
211
330
1F
100
AcDbEntity
  8
0
  6
Continuous
 62
     7
370
    25
100
AcDbLine
 10
89.7671781201
 20
260.163696482
 30
0.0
 11
104.5671781201
 21
260.163696482
 31
0.0
  0
LINE
  5
212
330
1F
100
AcDbEntity
  8
0
  6
Continuous
 62
     7
370
    25
100
AcDbLine
 10
89.7671781201
 20
260.163696482
 30
0.0
 11
89.7671781201
 21
168.1506890144
 31
0.0
  0
ARC
  5
213
330
1F
100
AcDbEntity
  8
0
  6
Continuous
 62
     7
370
    25
100
AcDbCircle
 10
80.7671781201
 20
168.1506890144
 30
0.0
 40
9.000000000000014
100
AcDbArc
 50
180.0
 51
0.0
  0
LINE
  5
214
330
1F
100
AcDbEntity
  8
0
  6
Continuous
 62
     7
370
    25
100
AcDbLine
 10
71.7671781201
 20
260.163696482
 30
0.0
 11
71.7671781201
 21
168.1506890144
 31
0.0
  0
LINE
  5
215
330
1F
100
AcDbEntity
  8
0
  6
Continuous
 62
     7
370
    25
100
AcDbLine
 10
56.9671781201
 20
260.163696482
 30
0.0
 11
71.7671781201
 21
260.163696482
 31
0.0
  0
LINE
  5
216
330
1F
100
AcDbEntity
  8
0
  6
Continuous
 62
     7
370
    25
100
AcDbLine
 10
56.9671781201
 20
271.773597482
 30
0.0
 11
56.9671781201
 21
260.163696482
 31
0.0
  0
LINE
  5
217
330
1F
100
AcDbEntity
  8
0
  6
Continuous
 62
     7
370
    25
100
AcDbLine
 10
56.9671781201
 20
271.773597482
 30
0.0
 11
58.7671781201
 21
271.773597482
 31
0.0
  0
LINE
  5
218
330
1F
100
AcDbEntity
  8
0
  6
Continuous
 62
     7
370
    25
100
AcDbLine
 10
58.7671781201
 20
274.3628113395
 30
0.0
 11
58.7671781201
 21
271.773597482
 31
0.0
  0
LINE
  5
219
330
1F
100
AcDbEntity
  8
0
  6
Continuous
 62
     7
370
    25
100
AcDbLine
 10
56.1779642626
 20
274.3628113395
 30
0.0
 11
58.7671781201
 21
274.3628113395
 31
0.0
  0
LINE
  5
21A
330
1F
100
AcDbEntity
  8
0
  6
Continuous
 62
     7
370
    25
100
AcDbLine
 10
56.1779642626
 20
274.3628113395
 30
0.0
 11
56.1779642626
 21
273.5628113395
 31
0.0
  0
LINE
  5
21B
330
1F
100
AcDbEntity
  8
0
  6
Continuous
 62
     7
370
    25
100
AcDbLine
 10
44.5680632626
 20
273.5628113395
 30
0.0
 11
56.1779642626
 21
273.5628113395
 31
0.0
  0
LINE
  5
21C
330
1F
100
AcDbEntity
  8
0
  6
Continuous
 62
     7
370
    25
100
AcDbLine
 10
44.5680632626
 20
327.1628113395
 30
0.0
 11
44.5680632626
 21
273.5628113395
 31
0.0
  0
LINE
  5
21D
330
1F
100
AcDbEntity
  8
0
  6
Continuous
 62
     7
370
    25
100
AcDbLine
 10
56.1779642626
 20
327.1628113395
 30
0.0
 11
44.5680632626
 21
327.1628113395
 31
0.0
  0
LINE
  5
21E
330
1F
100
AcDbEntity
  8
0
  6
Continuous
 62
     7
370
    25
100
AcDbLine
 10
56.1779642626
 20
326.3628113395
 30
0.0
 11
56.1779642626
 21
327.1628113395
 31
0.0
  0
LINE
  5
21F
330
1F
100
AcDbEntity
  8
0
  6
Continuous
 62
     7
370
    25
100
AcDbLine
 10
56.1779642626
 20
326.3628113395
 30
0.0
 11
58.7671781201
 21
326.3628113395
 31
0.0
  0
LINE
  5
220
330
1F
100
AcDbEntity
  8
0
  6
Continuous
 62
     7
370
    25
100
AcDbLine
 10
58.7671781201
 20
328.952025197
 30
0.0
 11
58.7671781201
 21
326.3628113395
 31
0.0
  0
LINE
  5
221
330
1F
100
AcDbEntity
  8
0
  6
Continuous
 62
     7
370
    25
100
AcDbLine
 10
58.7671781201
 20
328.952025197
 30
0.0
 11
56.9671781201
 21
328.952025197
 31
0.0
  0
LINE
  5
222
330
1F
100
AcDbEntity
  8
0
  6
Continuous
 62
     7
370
    25
100
AcDbLine
 10
56.9671781201
 20
340.561926197
 30
0.0
 11
56.9671781201
 21
328.952025197
 31
0.0
  0
LINE
  5
223
330
1F
100
AcDbEntity
  8
0
  6
Continuous
 62
     7
370
    25
100
AcDbLine
 10
56.9671781201
 20
340.561926197
 30
0.0
 11
104.5671781201
 21
340.561926197
 31
0.0
  0
LINE
  5
224
330
1F
100
AcDbEntity
  8
0
  6
Continuous
 62
     7
370
    25
100
AcDbLine
 10
104.5671781201
 20
328.952025197
 30
0.0
 11
104.5671781201
 21
340.561926197
 31
0.0
  0
LINE
  5
225
330
1F
100
AcDbEntity
  8
0
  6
Continuous
 62
     7
370
    25
100
AcDbLine
 10
102.7671781201
 20
328.952025197
 30
0.0
 11
104.5671781201
 21
328.952025197
 31
0.0
  0
LINE
  5
226
330
1F
100
AcDbEntity
  8
0
  6
Continuous
 62
     7
370
    25
100
AcDbLine
 10
102.7671781201
 20
328.952025197
 30
0.0
 11
102.7671781201
 21
326.3628113395
 31
0.0
  0
LINE
  5
227
330
1F
100
AcDbEntity
  8
0
  6
Continuous
 62
     7
370
    25
100
AcDbLine
 10
102.7671781201
 20
326.3628113395
 30
0.0
 11
105.3563919776
 21
326.3628113395
 31
0.0
  0
LINE
  5
228
330
1F
100
AcDbEntity
  8
0
  6
Continuous
 62
     7
370
    25
100
AcDbLine
 10
105.3563919776
 20
327.1628113395
 30
0.0
 11
105.3563919776
 21
326.3628113395
 31
0.0
  0
LINE
  5
229
330
1F
100
AcDbEntity
  8
0
  6
Continuous
 62
     7
370
    25
100
AcDbLine
 10
105.3563919776
 20
327.1628113395
 30
0.0
 11
116.9662929776
 21
327.1628113395
 31
0.0
  0
LINE
  5
22A
330
1F
100
AcDbEntity
  8
0
  6
Continuous
 62
     7
370
    25
100
AcDbLine
 10
116.9662929776
 20
327.1628113395
 30
0.0
 11
116.9662929776
 21
273.5628113395
 31
0.0
  0
LINE
  5
22B
330
1F
100
AcDbEntity
  8
0
  6
Continuous
 62
     7
370
    25
100
AcDbLine
 10
116.9662929776
 20
273.5628113395
 30
0.0
 11
105.3563919776
 21
273.5628113395
 31
0.0
  0
LINE
  5
22C
330
1F
100
AcDbEntity
  8
0
  6
Continuous
 62
     7
370
    25
100
AcDbLine
 10
105.3563919776
 20
273.5628113395
 30
0.0
 11
105.3563919776
 21
274.3628113395
 31
0.0
  0
LINE
  5
22D
330
1F
100
AcDbEntity
  8
0
  6
Continuous
 62
     7
370
    25
100
AcDbLine
 10
102.7671781201
 20
274.3628113395
 30
0.0
 11
105.3563919776
 21
274.3628113395
 31
0.0
  0
LINE
  5
22E
330
1F
100
AcDbEntity
  8
0
  6
Continuous
 62
     7
370
    25
100
AcDbLine
 10
102.7671781201
 20
274.3628113395
 30
0.0
 11
102.7671781201
 21
271.773597482
 31
0.0
  0
MTEXT
  5
230
330
1F
100
AcDbEntity
  8
0
  6
Continuous
 62
     7
370
     0
100
AcDbMText
 10
82.2843577197
 20
240.4720591236
 30
0.0
 40
7.0
 41
0.0
 71
     2
 72
     1
  1
UP  20°  R 1
  7
SLDTEXTSTYLE1
 73
     1
 44
1.0
  0
MTEXT
  5
231
330
1F
100
AcDbEntity
  8
0
  6
Continuous
 62
     7
370
     0
100
AcDbMText
 10
30.8927247003
 20
301.374372869
 30
0.0
 40
7.0
 41
0.0
 71
     2
 72
     1
  1
DOWN  90°  R 1
  7
SLDTEXTSTYLE0
 11
-3.491481338843133E-15
 21
1.0
 31
0.0
 73
     1
 44
1.0
  0
MTEXT
  5
232
330
1F
100
AcDbEntity
  8
0
  6
Continuous
 62
     7
370
     0
100
AcDbMText
 10
124.2270230369
 20
300.801880762
 30
0.0
 40
7.0
 41
0.0
 71
     2
 72
     1
  1
DOWN  90°  R 1
  7
SLDTEXTSTYLE0
 11
-3.491481338843133E-15
 21
1.0
 31
0.0
 73
     1
 44
1.0
  0
MTEXT
  5
233
330
1F
100
AcDbEntity
  8
0
  6
Continuous
 62
     7
370
     0
100
AcDbMText
 10
81.5879089473
 20
354.6189261641
 30
0.0
 40
7.0
 41
0.0
 71
     2
 72
     1
  1
DOWN  90°  R 1
  7
SLDTEXTSTYLE0
 73
     1
 44
1.0
  0
MTEXT
  5
234
330
1F
100
AcDbEntity
  8
0
  6
Continuous
 62
     7
370
     0
100
AcDbMText
 10
80.6337554355
 20
269.696068229
 30
0.0
 40
7.0
 41
0.0
 71
     2
 72
     1
  1
DOWN  90°  R 1
  7
SLDTEXTSTYLE0
 73
     1
 44
1.0
  0
ENDSEC
  0
SECTION
  2
OBJECTS
  0
DICTIONARY
  5
C
330
0
100
AcDbDictionary
281
     1
  3
ACAD_GROUP
350
D
  3
ACAD_LAYOUT
350
1A
  3
ACAD_MLINESTYLE
350
17
  3
ACAD_PLOTSETTINGS
350
19
  3
ACAD_PLOTSTYLENAME
350
E
  3
ACAD_SCALELIST
350
47
  0
DICTIONARY
  5
D
102
{ACAD_REACTORS
330
C
102
}
330
C
100
AcDbDictionary
281
     1
  0
DICTIONARY
  5
1A
102
{ACAD_REACTORS
330
C
102
}
330
C
100
AcDbDictionary
281
     1
  3
Layout1
350
1E
  3
Layout2
350
26
  3
Model
350
22
  0
DICTIONARY
  5
17
102
{ACAD_REACTORS
330
C
102
}
330
C
100
AcDbDictionary
281
     1
  3
Standard
350
18
  0
DICTIONARY
  5
19
102
{ACAD_REACTORS
330
C
102
}
330
C
100
AcDbDictionary
281
     1
  0
ACDBDICTIONARYWDFLT
  5
E
102
{ACAD_REACTORS
330
C
102
}
330
C
100
AcDbDictionary
281
     1
  3
Normal
350
F
100
AcDbDictionaryWithDefault
340
F
  0
DICTIONARY
  5
47
102
{ACAD_REACTORS
330
C
102
}
330
C
100
AcDbDictionary
281
     1
  3
A0
350
48
  3
A1
350
49
  3
A2
350
4A
  3
A3
350
4B
  3
A4
350
4C
  3
A5
350
4D
  3
A6
350
4E
  3
A7
350
4F
  3
A8
350
50
  3
A9
350
51
  3
B0
350
52
  3
B1
350
53
  3
B2
350
54
  3
B3
350
55
  3
B4
350
56
  3
B5
350
57
  3
B6
350
58
  3
B7
350
59
  3
B8
350
5A
  3
B9
350
5B
  3
C0
350
5C
  3
C1
350
5D
  3
C2
350
5E
  3
C3
350
5F
  3
C4
350
60
  3
C5
350
61
  3
C6
350
62
  3
C7
350
63
  3
C8
350
64
  3
C9
350
65
  3
D0
350
66
  3
D1
350
67
  3
D2
350
68
  0
LAYOUT
  5
1E
102
{ACAD_REACTORS
330
1A
102
}
330
1A
100
AcDbPlotSettings
  1

  2
none_device
  4

  6

 40
0.0
 41
0.0
 42
0.0
 43
0.0
 44
0.0
 45
0.0
 46
0.0
 47
0.0
 48
0.0
 49
0.0
140
0.0
141
0.0
142
1.0
143
1.0
 70
   688
 72
     1
 73
     0
 74
     5
  7

 75
    16
147
1.0
148
0.0
149
0.0
100
AcDbLayout
  1
Layout1
 70
     1
 71
     1
 10
0.0
 20
0.0
 11
420.0
 21
297.0
 12
0.0
 22
0.0
 32
0.0
 14
1.0000000000E+20
 24
1.0000000000E+20
 34
1.0000000000E+20
 15
-1.0000000000E+20
 25
-1.0000000000E+20
 35
-1.0000000000E+20
146
0.0
 13
0.0
 23
0.0
 33
0.0
 16
1.0
 26
0.0
 36
0.0
 17
0.0
 27
1.0
 37
0.0
 76
     0
330
1B
  0
LAYOUT
  5
26
102
{ACAD_REACTORS
330
1A
102
}
330
1A
100
AcDbPlotSettings
  1

  2
none_device
  4

  6

 40
0.0
 41
0.0
 42
0.0
 43
0.0
 44
0.0
 45
0.0
 46
0.0
 47
0.0
 48
0.0
 49
0.0
140
0.0
141
0.0
142
1.0
143
1.0
 70
   688
 72
     1
 73
     0
 74
     5
  7

 75
    16
147
1.0
148
0.0
149
0.0
100
AcDbLayout
  1
Layout2
 70
     1
 71
     2
 10
0.0
 20
0.0
 11
0.0
 21
0.0
 12
0.0
 22
0.0
 32
0.0
 14
0.0
 24
0.0
 34
0.0
 15
0.0
 25
0.0
 35
0.0
146
0.0
 13
0.0
 23
0.0
 33
0.0
 16
1.0
 26
0.0
 36
0.0
 17
0.0
 27
1.0
 37
0.0
 76
     0
330
23
  0
LAYOUT
  5
22
102
{ACAD_REACTORS
330
1A
102
}
330
1A
100
AcDbPlotSettings
  1

  2
none_device
  4
Letter_(8.50_x_11.00_Inches)
  6

 40
6.35
 41
6.35
 42
6.35000508
 43
6.35000508
 44
215.9
 45
279.4
 46
0.0
 47
0.0
 48
0.0
 49
0.0
140
0.0
141
0.0
142
1.0
143
1.0
 70
  1712
 72
     1
 73
     0
 74
     0
  7

 75
     0
147
1.0
148
0.0
149
0.0
100
AcDbLayout
  1
Model
 70
     1
 71
     0
 10
0.0
 20
0.0
 11
594.0
 21
420.0
 12
0.0
 22
0.0
 32
0.0
 14
0.0
 24
0.0
 34
0.0
 15
594.0
 25
420.0
 35
0.0
146
0.0
 13
0.0
 23
0.0
 33
0.0
 16
1.0
 26
0.0
 36
0.0
 17
0.0
 27
1.0
 37
0.0
 76
     0
330
1F
331
29
  0
MLINESTYLE
  5
18
102
{ACAD_REACTORS
330
17
102
}
330
17
100
AcDbMlineStyle
  2
Standard
 70
     0
  3

 62
   256
 51
90.0
 52
90.0
 71
     2
 49
0.5
 62
   256
  6
BYLAYER
 49
-0.5
 62
   256
  6
BYLAYER
  0
ACDBPLACEHOLDER
  5
F
102
{ACAD_REACTORS
330
E
102
}
330
E
  0
SCALE
  5
48
102
{ACAD_REACTORS
330
47
102
}
330
47
100
AcDbScale
 70
     0
300
1:1
140
1.0
141
1.0
290
     1
  0
SCALE
  5
49
102
{ACAD_REACTORS
330
47
102
}
330
47
100
AcDbScale
 70
     0
300
1:2
140
1.0
141
2.0
290
     0
  0
SCALE
  5
4A
102
{ACAD_REACTORS
330
47
102
}
330
47
100
AcDbScale
 70
     0
300
1:4
140
1.0
141
4.0
290
     0
  0
SCALE
  5
4B
102
{ACAD_REACTORS
330
47
102
}
330
47
100
AcDbScale
 70
     0
300
1:5
140
1.0
141
5.0
290
     0
  0
SCALE
  5
4C
102
{ACAD_REACTORS
330
47
102
}
330
47
100
AcDbScale
 70
     0
300
1:8
140
1.0
141
8.0
290
     0
  0
SCALE
  5
4D
102
{ACAD_REACTORS
330
47
102
}
330
47
100
AcDbScale
 70
     0
300
1:10
140
1.0
141
10.0
290
     0
  0
SCALE
  5
4E
102
{ACAD_REACTORS
330
47
102
}
330
47
100
AcDbScale
 70
     0
300
1:16
140
1.0
141
16.0
290
     0
  0
SCALE
  5
4F
102
{ACAD_REACTORS
330
47
102
}
330
47
100
AcDbScale
 70
     0
300
1:20
140
1.0
141
20.0
290
     0
  0
SCALE
  5
50
102
{ACAD_REACTORS
330
47
102
}
330
47
100
AcDbScale
 70
     0
300
1:30
140
1.0
141
30.0
290
     0
  0
SCALE
  5
51
102
{ACAD_REACTORS
330
47
102
}
330
47
100
AcDbScale
 70
     0
300
1:40
140
1.0
141
40.0
290
     0
  0
SCALE
  5
52
102
{ACAD_REACTORS
330
47
102
}
330
47
100
AcDbScale
 70
     0
300
1:50
140
1.0
141
50.0
290
     0
  0
SCALE
  5
53
102
{ACAD_REACTORS
330
47
102
}
330
47
100
AcDbScale
 70
     0
300
1:100
140
1.0
141
100.0
290
     0
  0
SCALE
  5
54
102
{ACAD_REACTORS
330
47
102
}
330
47
100
AcDbScale
 70
     0
300
2:1
140
2.0
141
1.0
290
     0
  0
SCALE
  5
55
102
{ACAD_REACTORS
330
47
102
}
330
47
100
AcDbScale
 70
     0
300
4:1
140
4.0
141
1.0
290
     0
  0
SCALE
  5
56
102
{ACAD_REACTORS
330
47
102
}
330
47
100
AcDbScale
 70
     0
300
8:1
140
8.0
141
1.0
290
     0
  0
SCALE
  5
57
102
{ACAD_REACTORS
330
47
102
}
330
47
100
AcDbScale
 70
     0
300
10:1
140
10.0
141
1.0
290
     0
  0
SCALE
  5
58
102
{ACAD_REACTORS
330
47
102
}
330
47
100
AcDbScale
 70
     0
300
100:1
140
100.0
141
1.0
290
     0
  0
SCALE
  5
59
102
{ACAD_REACTORS
330
47
102
}
330
47
100
AcDbScale
 70
     0
300
1/128" = 1'-0"
140
0.0078125
141
12.0
290
     0
  0
SCALE
  5
5A
102
{ACAD_REACTORS
330
47
102
}
330
47
100
AcDbScale
 70
     0
300
1/64" = 1'-0"
140
0.015625
141
12.0
290
     0
  0
SCALE
  5
5B
102
{ACAD_REACTORS
330
47
102
}
330
47
100
AcDbScale
 70
     0
300
1/32" = 1'-0"
140
0.03125
141
12.0
290
     0
  0
SCALE
  5
5C
102
{ACAD_REACTORS
330
47
102
}
330
47
100
AcDbScale
 70
     0
300
1/16" = 1'-0"
140
0.0625
141
12.0
290
     0
  0
SCALE
  5
5D
102
{ACAD_REACTORS
330
47
102
}
330
47
100
AcDbScale
 70
     0
300
3/32" = 1'-0"
140
0.09375
141
12.0
290
     0
  0
SCALE
  5
5E
102
{ACAD_REACTORS
330
47
102
}
330
47
100
AcDbScale
 70
     0
300
1/8" = 1'-0"
140
0.125
141
12.0
290
     0
  0
SCALE
  5
5F
102
{ACAD_REACTORS
330
47
102
}
330
47
100
AcDbScale
 70
     0
300
3/16" = 1'-0"
140
0.1875
141
12.0
290
     0
  0
SCALE
  5
60
102
{ACAD_REACTORS
330
47
102
}
330
47
100
AcDbScale
 70
     0
300
1/4" = 1'-0"
140
0.25
141
12.0
290
     0
  0
SCALE
  5
61
102
{ACAD_REACTORS
330
47
102
}
330
47
100
AcDbScale
 70
     0
300
3/8" = 1'-0"
140
0.375
141
12.0
290
     0
  0
SCALE
  5
62
102
{ACAD_REACTORS
330
47
102
}
330
47
100
AcDbScale
 70
     0
300
1/2" = 1'-0"
140
0.5
141
12.0
290
     0
  0
SCALE
  5
63
102
{ACAD_REACTORS
330
47
102
}
330
47
100
AcDbScale
 70
     0
300
3/4" = 1'-0"
140
0.75
141
12.0
290
     0
  0
SCALE
  5
64
102
{ACAD_REACTORS
330
47
102
}
330
47
100
AcDbScale
 70
     0
300
1" = 1'-0"
140
1.0
141
12.0
290
     0
  0
SCALE
  5
65
102
{ACAD_REACTORS
330
47
102
}
330
47
100
AcDbScale
 70
     0
300
1-1/2" = 1'-0"
140
1.5
141
12.0
290
     0
  0
SCALE
  5
66
102
{ACAD_REACTORS
330
47
102
}
330
47
100
AcDbScale
 70
     0
300
3" = 1'-0"
140
3.0
141
12.0
290
     0
  0
SCALE
  5
67
102
{ACAD_REACTORS
330
47
102
}
330
47
100
AcDbScale
 70
     0
300
6" = 1'-0"
140
6.0
141
12.0
290
     0
  0
SCALE
  5
68
102
{ACAD_REACTORS
330
47
102
}
330
47
100
AcDbScale
 70
     0
300
1'-0" = 1'-0"
140
12.0
141
12.0
290
     0
  0
ENDSEC
  0
EOF
