  0
SECTION
  2
HEADER
  9
$ACADVER
  1
AC1015
  9
$ACADMAINTVER
 70
     6
  9
$DWGCODEPAGE
  3
ANSI_1252
  9
$INSBASE
 10
0.0
 20
0.0
 30
0.0
  9
$EXTMIN
 10
0.0
 20
0.0
 30
0.0
  9
$EXTMAX
 10
594.0
 20
420.0
 30
0.0
  9
$LIMMIN
 10
0.0
 20
0.0
  9
$LIMMAX
 10
594.0
 20
420.0
  9
$ORTHOMODE
 70
     0
  9
$REGENMODE
 70
     1
  9
$FILLMODE
 70
     1
  9
$QTEXTMODE
 70
     0
  9
$MIRRTEXT
 70
     1
  9
$LTSCALE
 40
2.0
  9
$ATTMODE
 70
     1
  9
$TEXTSIZE
 40
7.0
  9
$TRACEWID
 40
1.0
  9
$TEXTSTYLE
  7
Standard
  9
$CLAYER
  8
0
  9
$CELTYPE
  6
ByLayer
  9
$CECOLOR
 62
   256
  9
$CELTSCALE
 40
1.0
  9
$DISPSILH
 70
     0
  9
$DIMSCALE
 40
1.0
  9
$DIMASZ
 40
6.604
  9
$DIMEXO
 40
2.0
  9
$DIMDLI
 40
3.75
  9
$DIMRND
 40
0.0
  9
$DIMDLE
 40
0.0
  9
$DIMEXE
 40
2.0
  9
$DIMTP
 40
0.0
  9
$DIMTM
 40
0.0
  9
$DIMTXT
 40
7.0
  9
$DIMCEN
 40
2.5
  9
$DIMTSZ
 40
0.0
  9
$DIMTOL
 70
     0
  9
$DIMLIM
 70
     0
  9
$DIMTIH
 70
     1
  9
$DIMTOH
 70
     1
  9
$DIMSE1
 70
     0
  9
$DIMSE2
 70
     0
  9
$DIMTAD
 70
     1
  9
$DIMZIN
 70
     1
  9
$DIMBLK
  1

  9
$DIMASO
 70
     1
  9
$DIMSHO
 70
     1
  9
$DIMPOST
  1

  9
$DIMAPOST
  1

  9
$DIMALT
 70
     0
  9
$DIMALTD
 70
     3
  9
$DIMALTF
 40
0.0393700787
  9
$DIMLFAC
 40
1.0
  9
$DIMTOFL
 70
     1
  9
$DIMTVP
 40
0.0
  9
$DIMTIX
 70
     0
  9
$DIMSOXD
 70
     0
  9
$DIMSAH
 70
     0
  9
$DIMBLK1
  1

  9
$DIMBLK2
  1

  9
$DIMSTYLE
  2
ISO-25
  9
$DIMCLRD
 70
     0
  9
$DIMCLRE
 70
     0
  9
$DIMCLRT
 70
     0
  9
$DIMTFAC
 40
1.0
  9
$DIMGAP
 40
3.048
  9
$DIMJUST
 70
     0
  9
$DIMSD1
 70
     0
  9
$DIMSD2
 70
     0
  9
$DIMTOLJ
 70
     0
  9
$DIMTZIN
 70
     1
  9
$DIMALTZ
 70
     0
  9
$DIMALTTZ
 70
     0
  9
$DIMUPT
 70
     0
  9
$DIMDEC
 70
     2
  9
$DIMTDEC
 70
     2
  9
$DIMALTU
 70
     2
  9
$DIMALTTD
 70
     3
  9
$DIMTXSTY
  7
Standard
  9
$DIMAUNIT
 70
     0
  9
$DIMADEC
 70
     2
  9
$DIMALTRND
 40
0.0
  9
$DIMAZIN
 70
     0
  9
$DIMDSEP
 70
    44
  9
$DIMATFIT
 70
     3
  9
$DIMFRAC
 70
     0
  9
$DIMLDRBLK
  1

  9
$DIMLUNIT
 70
     2
  9
$DIMLWD
 70
    -2
  9
$DIMLWE
 70
    -2
  9
$DIMTMOVE
 70
     0
  9
$LUNITS
 70
     2
  9
$LUPREC
 70
     2
  9
$SKETCHINC
 40
1.0
  9
$FILLETRAD
 40
10.0
  9
$AUNITS
 70
     0
  9
$AUPREC
 70
     2
  9
$MENU
  1
.
  9
$ELEVATION
 40
0.0
  9
$PELEVATION
 40
0.0
  9
$THICKNESS
 40
0.0
  9
$LIMCHECK
 70
     0
  9
$CHAMFERA
 40
0.0
  9
$CHAMFERB
 40
0.0
  9
$CHAMFERC
 40
0.0
  9
$CHAMFERD
 40
0.0
  9
$SKPOLY
 70
     0
  9
$TDCREATE
 40
2459058.511721169
  9
$TDUCREATE
 40
2459058.720054502
  9
$TDUPDATE
 40
2459058.511721852
  9
$TDUUPDATE
 40
2459058.720055185
  9
$TDINDWG
 40
0.0000000116
  9
$TDUSRTIMER
 40
0.0000000116
  9
$USRTIMER
 70
     1
  9
$ANGBASE
 50
0.0
  9
$ANGDIR
 70
     0
  9
$PDMODE
 70
     0
  9
$PDSIZE
 40
-1.0
  9
$PLINEWID
 40
0.0
  9
$SPLFRAME
 70
     0
  9
$SPLINETYPE
 70
     6
  9
$SPLINESEGS
 70
     8
  9
$HANDSEED
  5
319
  9
$SURFTAB1
 70
     6
  9
$SURFTAB2
 70
     6
  9
$SURFTYPE
 70
     6
  9
$SURFU
 70
     6
  9
$SURFV
 70
     6
  9
$UCSBASE
  2

  9
$UCSNAME
  2

  9
$UCSORG
 10
0.0
 20
0.0
 30
0.0
  9
$UCSXDIR
 10
1.0
 20
0.0
 30
0.0
  9
$UCSYDIR
 10
0.0
 20
1.0
 30
0.0
  9
$UCSORTHOREF
  2

  9
$UCSORTHOVIEW
 70
     0
  9
$UCSORGTOP
 10
0.0
 20
0.0
 30
0.0
  9
$UCSORGBOTTOM
 10
0.0
 20
0.0
 30
0.0
  9
$UCSORGLEFT
 10
0.0
 20
0.0
 30
0.0
  9
$UCSORGRIGHT
 10
0.0
 20
0.0
 30
0.0
  9
$UCSORGFRONT
 10
0.0
 20
0.0
 30
0.0
  9
$UCSORGBACK
 10
0.0
 20
0.0
 30
0.0
  9
$PUCSBASE
  2

  9
$PUCSNAME
  2

  9
$PUCSORG
 10
0.0
 20
0.0
 30
0.0
  9
$PUCSXDIR
 10
1.0
 20
0.0
 30
0.0
  9
$PUCSYDIR
 10
0.0
 20
1.0
 30
0.0
  9
$PUCSORTHOREF
  2

  9
$PUCSORTHOVIEW
 70
     0
  9
$PUCSORGTOP
 10
0.0
 20
0.0
 30
0.0
  9
$PUCSORGBOTTOM
 10
0.0
 20
0.0
 30
0.0
  9
$PUCSORGLEFT
 10
0.0
 20
0.0
 30
0.0
  9
$PUCSORGRIGHT
 10
0.0
 20
0.0
 30
0.0
  9
$PUCSORGFRONT
 10
0.0
 20
0.0
 30
0.0
  9
$PUCSORGBACK
 10
0.0
 20
0.0
 30
0.0
  9
$USERI1
 70
     0
  9
$USERI2
 70
     0
  9
$USERI3
 70
     0
  9
$USERI4
 70
     0
  9
$USERI5
 70
     0
  9
$USERR1
 40
0.0
  9
$USERR2
 40
0.0
  9
$USERR3
 40
0.0
  9
$USERR4
 40
0.0
  9
$USERR5
 40
0.0
  9
$WORLDVIEW
 70
     1
  9
$SHADEDGE
 70
     3
  9
$SHADEDIF
 70
    70
  9
$TILEMODE
 70
     1
  9
$MAXACTVP
 70
    64
  9
$PINSBASE
 10
0.0
 20
0.0
 30
0.0
  9
$PLIMCHECK
 70
     0
  9
$PEXTMIN
 10
1.0000000000E+20
 20
1.0000000000E+20
 30
1.0000000000E+20
  9
$PEXTMAX
 10
-1.0000000000E+20
 20
-1.0000000000E+20
 30
-1.0000000000E+20
  9
$PLIMMIN
 10
0.0
 20
0.0
  9
$PLIMMAX
 10
420.0
 20
297.0
  9
$UNITMODE
 70
     0
  9
$VISRETAIN
 70
     1
  9
$PLINEGEN
 70
     0
  9
$PSLTSCALE
 70
     1
  9
$TREEDEPTH
 70
  3020
  9
$CMLSTYLE
  2
Standard
  9
$CMLJUST
 70
     0
  9
$CMLSCALE
 40
20.0
  9
$PROXYGRAPHICS
 70
     1
  9
$MEASUREMENT
 70
     1
  9
$CELWEIGHT
370
    -1
  9
$ENDCAPS
280
     0
  9
$JOINSTYLE
280
     0
  9
$LWDISPLAY
290
     1
  9
$INSUNITS
 70
     4
  9
$HYPERLINKBASE
  1

  9
$STYLESHEET
  1

  9
$XEDIT
290
     1
  9
$CEPSNTYPE
380
     0
  9
$PSTYLEMODE
290
     1
  9
$FINGERPRINTGUID
  2
{B64EAB59-FE9D-4DE2-87B9-12D9E97232B9}
  9
$VERSIONGUID
  2
{FAEB1C32-E019-11D5-929B-00C0DF256EC4}
  9
$EXTNAMES
290
     1
  9
$PSVPSCALE
 40
0.0
  9
$OLESTARTUP
290
     0
  0
ENDSEC
  0
SECTION
  2
CLASSES
  0
CLASS
  1
ACDBDICTIONARYWDFLT
  2
AcDbDictionaryWithDefault
  3
ObjectDBX Classes
 90
        0
280
     0
281
     0
  0
CLASS
  1
VISUALSTYLE
  2
AcDbVisualStyle
  3
ObjectDBX Classes
 90
     4095
280
     0
281
     0
  0
CLASS
  1
MATERIAL
  2
AcDbMaterial
  3
ObjectDBX Classes
 90
     1153
280
     0
281
     0
  0
CLASS
  1
SCALE
  2
AcDbScale
  3
ObjectDBX Classes
 90
     1153
280
     0
281
     0
  0
CLASS
  1
TABLESTYLE
  2
AcDbTableStyle
  3
ObjectDBX Classes
 90
     4095
280
     0
281
     0
  0
CLASS
  1
MLEADERSTYLE
  2
AcDbMLeaderStyle
  3
ACDB_MLEADERSTYLE_CLASS
 90
     4095
280
     0
281
     0
  0
CLASS
  1
SUN
  2
AcDbSun
  3
SCENEOE
 90
     1153
280
     0
281
     0
  0
CLASS
  1
ACDBPLACEHOLDER
  2
AcDbPlaceHolder
  3
ObjectDBX Classes
 90
        0
280
     0
281
     0
  0
CLASS
  1
LAYOUT
  2
AcDbLayout
  3
ObjectDBX Classes
 90
        0
280
     0
281
     0
  0
ENDSEC
  0
SECTION
  2
TABLES
  0
TABLE
  2
VPORT
  5
8
330
0
100
AcDbSymbolTable
 70
     1
  0
VPORT
  5
29
330
8
100
AcDbSymbolTableRecord
100
AcDbViewportTableRecord
  2
*Active
 70
     0
 10
0.0
 20
0.0
 11
1.0
 21
1.0
 12
297.0
 22
210.0
 13
0.0
 23
0.0
 14
10.0
 24
10.0
 15
10.0
 25
10.0
 16
0.0
 26
0.0
 36
1.0
 17
0.0
 27
0.0
 37
0.0
 40
420.0
 41
1.4142857143
 42
50.0
 43
0.0
 44
0.0
 50
0.0
 51
0.0
 71
     0
 72
  2000
 73
     1
 74
     3
 75
     0
 76
     0
 77
     0
 78
     0
281
     0
 65
     1
110
0.0
120
0.0
130
0.0
111
1.0
121
0.0
131
0.0
112
0.0
122
1.0
132
0.0
 79
     0
146
0.0
  0
ENDTAB
  0
TABLE
  2
LTYPE
  5
5
330
0
100
AcDbSymbolTable
 70
     6
  0
LTYPE
  5
14
330
5
100
AcDbSymbolTableRecord
100
AcDbLinetypeTableRecord
  2
ByBlock
 70
     0
  3

 72
    65
 73
     0
 40
0.0
  0
LTYPE
  5
15
330
5
100
AcDbSymbolTableRecord
100
AcDbLinetypeTableRecord
  2
ByLayer
 70
     0
  3

 72
    65
 73
     0
 40
0.0
  0
LTYPE
  5
16
330
5
100
AcDbSymbolTableRecord
100
AcDbLinetypeTableRecord
  2
Continuous
 70
     0
  3
Solid line
 72
    65
 73
     0
 40
0.0
  0
LTYPE
  5
6E
330
5
100
AcDbSymbolTableRecord
100
AcDbLinetypeTableRecord
  2
HIDDEN
 70
     0
  3
Hidden __ __ __ __ __ __ __ __ __ __ __ __ __ __
 72
    65
 73
     2
 40
1.905
 49
1.27
 74
     0
 49
-0.635
 74
     0
  0
LTYPE
  5
6F
330
5
100
AcDbSymbolTableRecord
100
AcDbLinetypeTableRecord
  2
PHANTOM
 70
     0
  3
Phantom ______  __  __  ______  __  __  ______
 72
    65
 73
     6
 40
12.7
 49
6.35
 74
     0
 49
-1.27
 74
     0
 49
1.27
 74
     0
 49
-1.27
 74
     0
 49
1.27
 74
     0
 49
-1.27
 74
     0
  0
LTYPE
  5
70
330
5
100
AcDbSymbolTableRecord
100
AcDbLinetypeTableRecord
  2
CENTER
 70
     0
  3
Center ____ _ ____ _ ____ _ ____ _ ____ _ ____
 72
    65
 73
     4
 40
10.16
 49
6.35
 74
     0
 49
-1.27
 74
     0
 49
1.27
 74
     0
 49
-1.27
 74
     0
  0
LTYPE
  5
71
330
5
100
AcDbSymbolTableRecord
100
AcDbLinetypeTableRecord
  2
CENTERX2
 70
     0
  3
Center (2x) ________  __  ________  __  _____
 72
    65
 73
     4
 40
20.32
 49
12.7
 74
     0
 49
-2.54
 74
     0
 49
2.54
 74
     0
 49
-2.54
 74
     0
  0
LTYPE
  5
72
330
5
100
AcDbSymbolTableRecord
100
AcDbLinetypeTableRecord
  2
DOT2
 70
     0
  3
Dot (.5x) ........................................
 72
    65
 73
     2
 40
0.635
 49
0.0
 74
     0
 49
-0.635
 74
     0
  0
ENDTAB
  0
TABLE
  2
LAYER
  5
2
330
0
100
AcDbSymbolTable
 70
     1
  0
LAYER
  5
10
330
2
100
AcDbSymbolTableRecord
100
AcDbLayerTableRecord
  2
0
 70
     0
 62
     7
  6
Continuous
370
    -3
390
F
  0
ENDTAB
  0
TABLE
  2
STYLE
  5
3
330
0
100
AcDbSymbolTable
 70
     2
  0
STYLE
  5
11
330
3
100
AcDbSymbolTableRecord
100
AcDbTextStyleTableRecord
  2
Standard
 70
     0
 40
0.0
 41
1.0
 50
0.0
 71
     0
 42
7.0
  3
txt
  4

  0
STYLE
  5
E4
330
3
100
AcDbSymbolTableRecord
100
AcDbTextStyleTableRecord
  2
SLDTEXTSTYLE0
 70
     0
 40
0.0
 41
0.6607142857
 50
0.0
 71
     0
 42
7.0
  3
TXT
  4

  0
ENDTAB
  0
TABLE
  2
VIEW
  5
6
330
0
100
AcDbSymbolTable
 70
     0
  0
ENDTAB
  0
TABLE
  2
UCS
  5
7
330
0
100
AcDbSymbolTable
 70
     0
  0
ENDTAB
  0
TABLE
  2
APPID
  5
9
330
0
100
AcDbSymbolTable
 70
     1
  0
APPID
  5
12
330
9
100
AcDbSymbolTableRecord
100
AcDbRegAppTableRecord
  2
ACAD
 70
     0
  0
ENDTAB
  0
TABLE
  2
DIMSTYLE
  5
A
330
0
100
AcDbSymbolTable
 70
     1
100
AcDbDimStyleTable
  0
DIMSTYLE
105
27
330
A
100
AcDbSymbolTableRecord
100
AcDbDimStyleTableRecord
  2
ISO-25
 70
     0
 41
2.5
 42
0.625
 43
3.75
 44
1.25
 73
     0
 74
     0
 77
     1
 78
     8
140
2.5
141
2.5
143
0.0393700787
147
0.625
171
     3
172
     1
178
     0
271
     2
272
     2
274
     3
278
    44
283
     0
284
     8
340
11
  0
ENDTAB
  0
TABLE
  2
BLOCK_RECORD
  5
1
330
0
100
AcDbSymbolTable
 70
     6
  0
BLOCK_RECORD
  5
1F
330
1
100
AcDbSymbolTableRecord
100
AcDbBlockTableRecord
  2
*Model_Space
340
22
  0
BLOCK_RECORD
  5
1B
330
1
100
AcDbSymbolTableRecord
100
AcDbBlockTableRecord
  2
*Paper_Space
340
1E
  0
BLOCK_RECORD
  5
23
330
1
100
AcDbSymbolTableRecord
100
AcDbBlockTableRecord
  2
*Paper_Space0
340
26
  0
BLOCK_RECORD
  5
E7
330
1
100
AcDbSymbolTableRecord
100
AcDbBlockTableRecord
  2
SW_CENTERMARKSYMBOL_2
340
0
102
{BLKREFS
331
F2
102
}
  0
BLOCK_RECORD
  5
F3
330
1
100
AcDbSymbolTableRecord
100
AcDbBlockTableRecord
  2
SW_CENTERMARKSYMBOL_3
340
0
102
{BLKREFS
331
FE
102
}
  0
BLOCK_RECORD
  5
FF
330
1
100
AcDbSymbolTableRecord
100
AcDbBlockTableRecord
  2
SW_CENTERMARKSYMBOL_4
340
0
102
{BLKREFS
331
10A
102
}
  0
BLOCK_RECORD
  5
10B
330
1
100
AcDbSymbolTableRecord
100
AcDbBlockTableRecord
  2
SW_CENTERMARKSYMBOL_5
340
0
102
{BLKREFS
331
116
102
}
  0
BLOCK_RECORD
  5
117
330
1
100
AcDbSymbolTableRecord
100
AcDbBlockTableRecord
  2
SW_CENTERMARKSYMBOL_6
340
0
102
{BLKREFS
331
122
102
}
  0
ENDTAB
  0
ENDSEC
  0
SECTION
  2
BLOCKS
  0
BLOCK
  5
20
330
1F
100
AcDbEntity
  8
0
100
AcDbBlockBegin
  2
*Model_Space
 70
     0
 10
0.0
 20
0.0
 30
0.0
  3
*Model_Space
  1

  0
ENDBLK
  5
21
330
1F
100
AcDbEntity
  8
0
100
AcDbBlockEnd
  0
BLOCK
  5
1C
330
1B
100
AcDbEntity
 67
     1
  8
0
100
AcDbBlockBegin
  2
*Paper_Space
 70
     0
 10
0.0
 20
0.0
 30
0.0
  3
*Paper_Space
  1

  0
ENDBLK
  5
1D
330
1B
100
AcDbEntity
 67
     1
  8
0
100
AcDbBlockEnd
  0
BLOCK
  5
24
330
23
100
AcDbEntity
  8
0
100
AcDbBlockBegin
  2
*Paper_Space0
 70
     0
 10
0.0
 20
0.0
 30
0.0
  3
*Paper_Space0
  1

  0
ENDBLK
  5
25
330
23
100
AcDbEntity
  8
0
100
AcDbBlockEnd
  0
BLOCK
  5
E8
330
E7
100
AcDbEntity
  8
0
100
AcDbBlockBegin
  2
SW_CENTERMARKSYMBOL_2
 70
     0
 10
0.0
 20
0.0
 30
0.0
  3
SW_CENTERMARKSYMBOL_2
  1

  0
LINE
  5
EA
330
E7
100
AcDbEntity
  8
0
  6
Continuous
 62
     0
370
    18
100
AcDbLine
 10
0.0
 20
0.0
 30
0.0
 11
2.5
 21
0.0
 31
0.0
  0
LINE
  5
EB
330
E7
100
AcDbEntity
  8
0
  6
Continuous
 62
     0
370
    18
100
AcDbLine
 10
0.0
 20
0.0
 30
0.0
 11
0.0
 21
2.5
 31
0.0
  0
LINE
  5
EC
330
E7
100
AcDbEntity
  8
0
  6
Continuous
 62
     0
370
    18
100
AcDbLine
 10
0.0
 20
0.0
 30
0.0
 11
-2.5
 21
0.0
 31
0.0
  0
LINE
  5
ED
330
E7
100
AcDbEntity
  8
0
  6
Continuous
 62
     0
370
    18
100
AcDbLine
 10
0.0
 20
0.0
 30
0.0
 11
0.0
 21
-2.5
 31
0.0
  0
LINE
  5
EE
330
E7
100
AcDbEntity
  8
0
  6
Continuous
 62
     0
370
    18
100
AcDbLine
 10
2.5
 20
0.0
 30
0.0
 11
4.0
 21
0.0
 31
0.0
  0
LINE
  5
EF
330
E7
100
AcDbEntity
  8
0
  6
Continuous
 62
     0
370
    18
100
AcDbLine
 10
0.0
 20
2.5
 30
0.0
 11
0.0
 21
4.0
 31
0.0
  0
LINE
  5
F0
330
E7
100
AcDbEntity
  8
0
  6
Continuous
 62
     0
370
    18
100
AcDbLine
 10
-2.5
 20
0.0
 30
0.0
 11
-4.0
 21
0.0
 31
0.0
  0
LINE
  5
F1
330
E7
100
AcDbEntity
  8
0
  6
Continuous
 62
     0
370
    18
100
AcDbLine
 10
0.0
 20
-2.5
 30
0.0
 11
0.0
 21
-4.0
 31
0.0
  0
ENDBLK
  5
E9
330
E7
100
AcDbEntity
  8
0
100
AcDbBlockEnd
  0
BLOCK
  5
F4
330
F3
100
AcDbEntity
  8
0
100
AcDbBlockBegin
  2
SW_CENTERMARKSYMBOL_3
 70
     0
 10
0.0
 20
0.0
 30
0.0
  3
SW_CENTERMARKSYMBOL_3
  1

  0
LINE
  5
F6
330
F3
100
AcDbEntity
  8
0
  6
Continuous
 62
     0
370
    18
100
AcDbLine
 10
0.0
 20
0.0
 30
0.0
 11
2.5
 21
0.0
 31
0.0
  0
LINE
  5
F7
330
F3
100
AcDbEntity
  8
0
  6
Continuous
 62
     0
370
    18
100
AcDbLine
 10
0.0
 20
0.0
 30
0.0
 11
0.0
 21
2.5
 31
0.0
  0
LINE
  5
F8
330
F3
100
AcDbEntity
  8
0
  6
Continuous
 62
     0
370
    18
100
AcDbLine
 10
0.0
 20
0.0
 30
0.0
 11
-2.5
 21
0.0
 31
0.0
  0
LINE
  5
F9
330
F3
100
AcDbEntity
  8
0
  6
Continuous
 62
     0
370
    18
100
AcDbLine
 10
0.0
 20
0.0
 30
0.0
 11
0.0
 21
-2.5
 31
0.0
  0
LINE
  5
FA
330
F3
100
AcDbEntity
  8
0
  6
Continuous
 62
     0
370
    18
100
AcDbLine
 10
2.5
 20
0.0
 30
0.0
 11
4.0
 21
0.0
 31
0.0
  0
LINE
  5
FB
330
F3
100
AcDbEntity
  8
0
  6
Continuous
 62
     0
370
    18
100
AcDbLine
 10
0.0
 20
2.5
 30
0.0
 11
0.0
 21
4.0
 31
0.0
  0
LINE
  5
FC
330
F3
100
AcDbEntity
  8
0
  6
Continuous
 62
     0
370
    18
100
AcDbLine
 10
-2.5
 20
0.0
 30
0.0
 11
-4.0
 21
0.0
 31
0.0
  0
LINE
  5
FD
330
F3
100
AcDbEntity
  8
0
  6
Continuous
 62
     0
370
    18
100
AcDbLine
 10
0.0
 20
-2.5
 30
0.0
 11
0.0
 21
-4.0
 31
0.0
  0
ENDBLK
  5
F5
330
F3
100
AcDbEntity
  8
0
100
AcDbBlockEnd
  0
BLOCK
  5
100
330
FF
100
AcDbEntity
  8
0
100
AcDbBlockBegin
  2
SW_CENTERMARKSYMBOL_4
 70
     0
 10
0.0
 20
0.0
 30
0.0
  3
SW_CENTERMARKSYMBOL_4
  1

  0
LINE
  5
102
330
FF
100
AcDbEntity
  8
0
  6
Continuous
 62
     0
370
    18
100
AcDbLine
 10
0.0
 20
0.0
 30
0.0
 11
2.5
 21
0.0
 31
0.0
  0
LINE
  5
103
330
FF
100
AcDbEntity
  8
0
  6
Continuous
 62
     0
370
    18
100
AcDbLine
 10
0.0
 20
0.0
 30
0.0
 11
0.0
 21
2.5
 31
0.0
  0
LINE
  5
104
330
FF
100
AcDbEntity
  8
0
  6
Continuous
 62
     0
370
    18
100
AcDbLine
 10
0.0
 20
0.0
 30
0.0
 11
-2.5
 21
0.0
 31
0.0
  0
LINE
  5
105
330
FF
100
AcDbEntity
  8
0
  6
Continuous
 62
     0
370
    18
100
AcDbLine
 10
0.0
 20
0.0
 30
0.0
 11
0.0
 21
-2.5
 31
0.0
  0
LINE
  5
106
330
FF
100
AcDbEntity
  8
0
  6
Continuous
 62
     0
370
    18
100
AcDbLine
 10
2.5
 20
0.0
 30
0.0
 11
4.0
 21
0.0
 31
0.0
  0
LINE
  5
107
330
FF
100
AcDbEntity
  8
0
  6
Continuous
 62
     0
370
    18
100
AcDbLine
 10
0.0
 20
2.5
 30
0.0
 11
0.0
 21
4.0
 31
0.0
  0
LINE
  5
108
330
FF
100
AcDbEntity
  8
0
  6
Continuous
 62
     0
370
    18
100
AcDbLine
 10
-2.5
 20
0.0
 30
0.0
 11
-4.0
 21
0.0
 31
0.0
  0
LINE
  5
109
330
FF
100
AcDbEntity
  8
0
  6
Continuous
 62
     0
370
    18
100
AcDbLine
 10
0.0
 20
-2.5
 30
0.0
 11
0.0
 21
-4.0
 31
0.0
  0
ENDBLK
  5
101
330
FF
100
AcDbEntity
  8
0
100
AcDbBlockEnd
  0
BLOCK
  5
10C
330
10B
100
AcDbEntity
  8
0
100
AcDbBlockBegin
  2
SW_CENTERMARKSYMBOL_5
 70
     0
 10
0.0
 20
0.0
 30
0.0
  3
SW_CENTERMARKSYMBOL_5
  1

  0
LINE
  5
10E
330
10B
100
AcDbEntity
  8
0
  6
Continuous
 62
     0
370
    18
100
AcDbLine
 10
0.0
 20
0.0
 30
0.0
 11
2.5
 21
0.0
 31
0.0
  0
LINE
  5
10F
330
10B
100
AcDbEntity
  8
0
  6
Continuous
 62
     0
370
    18
100
AcDbLine
 10
0.0
 20
0.0
 30
0.0
 11
0.0
 21
2.5
 31
0.0
  0
LINE
  5
110
330
10B
100
AcDbEntity
  8
0
  6
Continuous
 62
     0
370
    18
100
AcDbLine
 10
0.0
 20
0.0
 30
0.0
 11
-2.5
 21
0.0
 31
0.0
  0
LINE
  5
111
330
10B
100
AcDbEntity
  8
0
  6
Continuous
 62
     0
370
    18
100
AcDbLine
 10
0.0
 20
0.0
 30
0.0
 11
0.0
 21
-2.5
 31
0.0
  0
LINE
  5
112
330
10B
100
AcDbEntity
  8
0
  6
Continuous
 62
     0
370
    18
100
AcDbLine
 10
2.5
 20
0.0
 30
0.0
 11
4.0
 21
0.0
 31
0.0
  0
LINE
  5
113
330
10B
100
AcDbEntity
  8
0
  6
Continuous
 62
     0
370
    18
100
AcDbLine
 10
0.0
 20
2.5
 30
0.0
 11
0.0
 21
4.0
 31
0.0
  0
LINE
  5
114
330
10B
100
AcDbEntity
  8
0
  6
Continuous
 62
     0
370
    18
100
AcDbLine
 10
-2.5
 20
0.0
 30
0.0
 11
-4.0
 21
0.0
 31
0.0
  0
LINE
  5
115
330
10B
100
AcDbEntity
  8
0
  6
Continuous
 62
     0
370
    18
100
AcDbLine
 10
0.0
 20
-2.5
 30
0.0
 11
0.0
 21
-4.0
 31
0.0
  0
ENDBLK
  5
10D
330
10B
100
AcDbEntity
  8
0
100
AcDbBlockEnd
  0
BLOCK
  5
118
330
117
100
AcDbEntity
  8
0
100
AcDbBlockBegin
  2
SW_CENTERMARKSYMBOL_6
 70
     0
 10
0.0
 20
0.0
 30
0.0
  3
SW_CENTERMARKSYMBOL_6
  1

  0
LINE
  5
11A
330
117
100
AcDbEntity
  8
0
  6
Continuous
 62
     0
370
    18
100
AcDbLine
 10
0.0
 20
0.0
 30
0.0
 11
2.5
 21
0.0
 31
0.0
  0
LINE
  5
11B
330
117
100
AcDbEntity
  8
0
  6
Continuous
 62
     0
370
    18
100
AcDbLine
 10
0.0
 20
0.0
 30
0.0
 11
0.0
 21
2.5
 31
0.0
  0
LINE
  5
11C
330
117
100
AcDbEntity
  8
0
  6
Continuous
 62
     0
370
    18
100
AcDbLine
 10
0.0
 20
0.0
 30
0.0
 11
-2.5
 21
0.0
 31
0.0
  0
LINE
  5
11D
330
117
100
AcDbEntity
  8
0
  6
Continuous
 62
     0
370
    18
100
AcDbLine
 10
0.0
 20
0.0
 30
0.0
 11
0.0
 21
-2.5
 31
0.0
  0
LINE
  5
11E
330
117
100
AcDbEntity
  8
0
  6
Continuous
 62
     0
370
    18
100
AcDbLine
 10
2.5
 20
0.0
 30
0.0
 11
3.9
 21
0.0
 31
0.0
  0
LINE
  5
11F
330
117
100
AcDbEntity
  8
0
  6
Continuous
 62
     0
370
    18
100
AcDbLine
 10
0.0
 20
2.5
 30
0.0
 11
0.0
 21
3.9
 31
0.0
  0
LINE
  5
120
330
117
100
AcDbEntity
  8
0
  6
Continuous
 62
     0
370
    18
100
AcDbLine
 10
-2.5
 20
0.0
 30
0.0
 11
-3.9
 21
0.0
 31
0.0
  0
LINE
  5
121
330
117
100
AcDbEntity
  8
0
  6
Continuous
 62
     0
370
    18
100
AcDbLine
 10
0.0
 20
-2.5
 30
0.0
 11
0.0
 21
-3.9
 31
0.0
  0
ENDBLK
  5
119
330
117
100
AcDbEntity
  8
0
100
AcDbBlockEnd
  0
ENDSEC
  0
SECTION
  2
ENTITIES
  0
CIRCLE
  5
73
330
1F
100
AcDbEntity
  8
0
  6
CENTERX2
 62
     7
100
AcDbCircle
 10
195.1757401242
 20
190.0419072687
 30
0.0
 40
1.400000000000015
  0
CIRCLE
  5
74
330
1F
100
AcDbEntity
  8
0
  6
CENTERX2
 62
     7
100
AcDbCircle
 10
195.1757401242
 20
266.0419072687
 30
0.0
 40
1.399999999999969
  0
CIRCLE
  5
75
330
1F
100
AcDbEntity
  8
0
  6
CENTERX2
 62
     7
100
AcDbCircle
 10
143.9398944275
 20
190.0419072687
 30
0.0
 40
1.400000000000015
  0
CIRCLE
  5
76
330
1F
100
AcDbEntity
  8
0
  6
CENTERX2
 62
     7
100
AcDbCircle
 10
143.9398944275
 20
266.0419072687
 30
0.0
 40
1.399999999999996
  0
LINE
  5
77
330
1F
100
AcDbEntity
  8
0
  6
CENTERX2
 62
     7
100
AcDbLine
 10
201.8839668325
 20
165.3621814374
 30
0.0
 11
137.2316677192
 21
165.3621814374
 31
0.0
  0
LINE
  5
78
330
1F
100
AcDbEntity
  8
0
  6
CENTERX2
 62
     7
100
AcDbLine
 10
137.152799848
 20
283.0113489333
 30
0.0
 11
201.9628347037
 21
283.0113489333
 31
0.0
  0
ARC
  5
79
330
1F
100
AcDbEntity
  8
0
  6
Continuous
 62
     7
370
    25
100
AcDbCircle
 10
171.8931879714
 20
124.3434213341
 30
0.0
 40
0.2200000000000273
100
AcDbArc
 50
180.0
 51
270.0
  0
LINE
  5
7A
330
1F
100
AcDbEntity
  8
0
  6
Continuous
 62
     7
370
    25
100
AcDbLine
 10
172.8931879714
 20
124.1234213341
 30
0.0
 11
171.8931879714
 21
124.1234213341
 31
0.0
  0
ARC
  5
7B
330
1F
100
AcDbEntity
  8
0
  6
Continuous
 62
     7
370
    25
100
AcDbCircle
 10
172.8931879714
 20
124.3434213341
 30
0.0
 40
0.2199999999999704
100
AcDbArc
 50
269.9999999995
 51
0.0
  0
LINE
  5
7C
330
1F
100
AcDbEntity
  8
0
  6
Continuous
 62
     7
370
    25
100
AcDbLine
 10
173.1131879714
 20
135.8534213341
 30
0.0
 11
173.1131879714
 21
124.3434213341
 31
0.0
  0
ARC
  5
7D
330
1F
100
AcDbEntity
  8
0
  6
Continuous
 62
     7
370
    25
100
AcDbCircle
 10
172.8931879714
 20
135.8534213341
 30
0.0
 40
0.2199999999999989
100
AcDbArc
 50
0.0
 51
90.0
  0
LINE
  5
7E
330
1F
100
AcDbEntity
  8
0
  6
Continuous
 62
     7
370
    25
100
AcDbLine
 10
171.8931879714
 20
136.0734213341
 30
0.0
 11
172.8931879714
 21
136.0734213341
 31
0.0
  0
ARC
  5
7F
330
1F
100
AcDbEntity
  8
0
  6
Continuous
 62
     7
370
    25
100
AcDbCircle
 10
171.8931879714
 20
135.8534213341
 30
0.0
 40
0.2199999999999989
100
AcDbArc
 50
89.9999999995
 51
180.0
  0
LINE
  5
80
330
1F
100
AcDbEntity
  8
0
  6
Continuous
 62
     7
370
    25
100
AcDbLine
 10
171.6731879714
 20
124.3434213341
 30
0.0
 11
171.6731879714
 21
135.8534213341
 31
0.0
  0
CIRCLE
  5
81
330
1F
100
AcDbEntity
  8
0
  6
Continuous
 62
     7
370
    25
100
AcDbCircle
 10
174.6731870535
 20
120.3846379565
 30
0.0
 40
1.600000000000023
  0
CIRCLE
  5
82
330
1F
100
AcDbEntity
  8
0
  6
Continuous
 62
     7
370
    25
100
AcDbCircle
 10
162.8892577055
 20
109.6220085196
 30
0.0
 40
2.540509497513483
  0
ARC
  5
83
330
1F
100
AcDbEntity
  8
0
  6
Continuous
 62
     7
370
    25
100
AcDbCircle
 10
178.5081864853
 20
117.1287328689
 30
0.0
 40
0.6000000000000085
100
AcDbArc
 50
0.0
 51
90.0
  0
LINE
  5
84
330
1F
100
AcDbEntity
  8
0
  6
Continuous
 62
     7
370
    25
100
AcDbLine
 10
173.9881864853
 20
117.7287328689
 30
0.0
 11
178.5081864853
 21
117.7287328689
 31
0.0
  0
ARC
  5
85
330
1F
100
AcDbEntity
  8
0
  6
Continuous
 62
     7
370
    25
100
AcDbCircle
 10
173.9881864853
 20
117.1287328689
 30
0.0
 40
0.5999999999999801
100
AcDbArc
 50
90.0
 51
180.0
  0
LINE
  5
86
330
1F
100
AcDbEntity
  8
0
  6
Continuous
 62
     7
370
    25
100
AcDbLine
 10
173.3881864853
 20
105.2287328689
 30
0.0
 11
173.3881864853
 21
117.1287328689
 31
0.0
  0
ARC
  5
87
330
1F
100
AcDbEntity
  8
0
  6
Continuous
 62
     7
370
    25
100
AcDbCircle
 10
173.9881864853
 20
105.2287328689
 30
0.0
 40
0.6000000000000227
100
AcDbArc
 50
180.0
 51
270.0
  0
LINE
  5
88
330
1F
100
AcDbEntity
  8
0
  6
Continuous
 62
     7
370
    25
100
AcDbLine
 10
178.5081864853
 20
104.6287328689
 30
0.0
 11
173.9881864853
 21
104.6287328689
 31
0.0
  0
ARC
  5
89
330
1F
100
AcDbEntity
  8
0
  6
Continuous
 62
     7
370
    25
100
AcDbCircle
 10
178.5081864853
 20
105.2287328689
 30
0.0
 40
0.5999999999999943
100
AcDbArc
 50
270.0
 51
0.0
  0
LINE
  5
8A
330
1F
100
AcDbEntity
  8
0
  6
Continuous
 62
     7
370
    25
100
AcDbLine
 10
162.5833208922
 20
139.1117031149
 30
0.0
 11
163.0086949232
 21
139.3996955923
 31
0.0
  0
LINE
  5
8B
330
1F
100
AcDbEntity
  8
0
  6
Continuous
 62
     7
370
    25
100
AcDbLine
 10
162.4334783915
 20
138.7370979361
 30
0.0
 11
162.5833208922
 21
139.1117031149
 31
0.0
  0
LINE
  5
8C
330
1F
100
AcDbEntity
  8
0
  6
Continuous
 62
     7
370
    25
100
AcDbLine
 10
161.7683915261
 20
138.3214180044
 30
0.0
 11
162.4334783915
 21
138.7370979361
 31
0.0
  0
LINE
  5
8D
330
1F
100
AcDbEntity
  8
0
  6
Continuous
 62
     7
370
    25
100
AcDbLine
 10
161.53703419
 20
137.9039928488
 30
0.0
 11
161.7683915261
 21
138.3214180044
 31
0.0
  0
LINE
  5
8E
330
1F
100
AcDbEntity
  8
0
  6
Continuous
 62
     7
370
    25
100
AcDbLine
 10
161.53703419
 20
125.8953983359
 30
0.0
 11
161.53703419
 21
137.9039928488
 31
0.0
  0
LINE
  5
8F
330
1F
100
AcDbEntity
  8
0
  6
Continuous
 62
     7
370
    25
100
AcDbLine
 10
161.6999292734
 20
125.6014987997
 30
0.0
 11
161.53703419
 21
125.8953983359
 31
0.0
  0
LINE
  5
90
330
1F
100
AcDbEntity
  8
0
  6
Continuous
 62
     7
370
    25
100
AcDbLine
 10
162.4370341662
 20
125.1408054404
 30
0.0
 11
161.6999292734
 21
125.6014987997
 31
0.0
  0
LINE
  5
91
330
1F
100
AcDbEntity
  8
0
  6
Continuous
 62
     7
370
    25
100
AcDbLine
 10
162.6312654379
 20
124.6552288107
 30
0.0
 11
162.4370341662
 21
125.1408054404
 31
0.0
  0
LINE
  5
92
330
1F
100
AcDbEntity
  8
0
  6
Continuous
 62
     7
370
    25
100
AcDbLine
 10
163.0086949232
 20
124.3996974997
 30
0.0
 11
162.6312654379
 21
124.6552288107
 31
0.0
  0
LINE
  5
93
330
1F
100
AcDbEntity
  8
0
  6
Continuous
 62
     7
370
    25
100
AcDbLine
 10
165.9941408995
 20
124.3996974997
 30
0.0
 11
163.0086949232
 21
124.3996974997
 31
0.0
  0
LINE
  5
94
330
1F
100
AcDbEntity
  8
0
  6
Continuous
 62
     7
370
    25
100
AcDbLine
 10
166.5370343092
 20
124.9425899557
 30
0.0
 11
165.9941408995
 21
124.3996974997
 31
0.0
  0
LINE
  5
95
330
1F
100
AcDbEntity
  8
0
  6
Continuous
 62
     7
370
    25
100
AcDbLine
 10
166.5370343092
 20
138.8568031363
 30
0.0
 11
166.5370343092
 21
124.9425899557
 31
0.0
  0
LINE
  5
96
330
1F
100
AcDbEntity
  8
0
  6
Continuous
 62
     7
370
    25
100
AcDbLine
 10
165.9941408995
 20
139.3996955923
 30
0.0
 11
166.5370343092
 21
138.8568031363
 31
0.0
  0
LINE
  5
97
330
1F
100
AcDbEntity
  8
0
  6
Continuous
 62
     7
370
    25
100
AcDbLine
 10
163.0086949232
 20
139.3996955923
 30
0.0
 11
165.9941408995
 21
139.3996955923
 31
0.0
  0
LINE
  5
98
330
1F
100
AcDbEntity
  8
0
  6
Continuous
 62
     7
370
    25
100
AcDbLine
 10
182.6731894377
 20
149.2426390743
 30
0.0
 11
171.6731894377
 21
149.2426390743
 31
0.0
  0
LINE
  5
99
330
1F
100
AcDbEntity
  8
0
  6
Continuous
 62
     7
370
    25
100
AcDbLine
 10
171.6731894377
 20
149.2426390743
 30
0.0
 11
171.6731894377
 21
140.2426390743
 31
0.0
  0
LINE
  5
9A
330
1F
100
AcDbEntity
  8
0
  6
Continuous
 62
     7
370
    25
100
AcDbLine
 10
171.6731894377
 20
140.2426390743
 30
0.0
 11
182.6731894377
 21
140.2426390743
 31
0.0
  0
LINE
  5
9B
330
1F
100
AcDbEntity
  8
0
  6
Continuous
 62
     7
370
    25
100
AcDbLine
 10
182.6731894377
 20
140.2426390743
 30
0.0
 11
182.6731894377
 21
149.2426390743
 31
0.0
  0
ELLIPSE
  5
9C
330
1F
100
AcDbEntity
  8
0
  6
Continuous
 62
     7
370
    25
100
AcDbEllipse
 10
183.0578172759
 20
335.4379461769
 30
0.0
 11
0.0
 21
11.30980100322028
 31
0.0
210
0.0
220
0.0
230
1.0
 40
0.9187108515
 41
3.141592653589793
 42
6.283185307179586
  0
LINE
  5
9D
330
1F
100
AcDbEntity
  8
0
  6
Continuous
 62
     7
370
    25
100
AcDbLine
 10
183.0578172759
 20
346.7477471801
 30
0.0
 11
156.0578172759
 21
346.7477471801
 31
0.0
  0
ELLIPSE
  5
9E
330
1F
100
AcDbEntity
  8
0
  6
Continuous
 62
     7
370
    25
100
AcDbEllipse
 10
156.0578172759
 20
335.4379461769
 30
0.0
 11
0.0
 21
11.30980100322028
 31
0.0
210
0.0
220
0.0
230
1.0
 40
0.9187108515
 41
0.0
 42
3.141592653589793
  0
LINE
  5
9F
330
1F
100
AcDbEntity
  8
0
  6
Continuous
 62
     7
370
    25
100
AcDbLine
 10
183.0578172759
 20
324.1281451737
 30
0.0
 11
156.0578172759
 21
324.1281451737
 31
0.0
  0
ELLIPSE
  5
A0
330
1F
100
AcDbEntity
  8
0
  6
Continuous
 62
     7
370
    25
100
AcDbEllipse
 10
169.5578172759
 20
333.0613236767
 30
0.0
 11
0.0
 21
-21.81564433575619
 31
0.0
210
0.0
220
0.0
230
1.0
 40
0.9396926208
 41
5.838126347921049
 42
6.728244266438137
  0
ELLIPSE
  5
A1
330
1F
100
AcDbEntity
  8
0
  6
Continuous
 62
     7
370
    25
100
AcDbEllipse
 10
160.0865731461
 20
311.9300773346
 30
0.0
 11
0.0
 21
-1.596266658713887
 31
0.0
210
0.0
220
0.0
230
1.0
 40
0.9396926208
 41
2.696533694331231
 42
5.838126347921037
  0
ELLIPSE
  5
A2
330
1F
100
AcDbEntity
  8
0
  6
Continuous
 62
     7
370
    25
100
AcDbEllipse
 10
169.5578172759
 20
333.0613236767
 30
0.0
 11
0.0
 21
-25.00817765318391
 31
0.0
210
0.0
220
0.0
230
1.0
 40
0.9396926208
 41
5.838126347921049
 42
6.728244266438137
  0
ELLIPSE
  5
A3
330
1F
100
AcDbEntity
  8
0
  6
Continuous
 62
     7
370
    25
100
AcDbEllipse
 10
179.0290614056
 20
311.9300773346
 30
0.0
 11
0.0
 21
-1.596266658713887
 31
0.0
210
0.0
220
0.0
230
1.0
 40
0.9396926208
 41
0.4450589592585393
 42
3.586651612848362
  0
LINE
  5
A4
330
1F
100
AcDbEntity
  8
0
  6
Continuous
 62
     7
370
    25
100
AcDbLine
 10
202.1145610614
 20
171.95952601
 30
0.0
 11
202.1145610614
 21
183.0419072687
 31
0.0
  0
LINE
  5
A5
330
1F
100
AcDbEntity
  8
0
  6
Continuous
 62
     7
370
    25
100
AcDbLine
 10
201.6533726037
 20
158.7648368649
 30
0.0
 11
202.1145610614
 21
171.95952601
 31
0.0
  0
LINE
  5
A6
330
1F
100
AcDbEntity
  8
0
  6
Continuous
 62
     7
370
    25
100
AcDbLine
 10
200.9615899172
 20
145.5648368649
 30
0.0
 11
201.6533726037
 21
158.7648368649
 31
0.0
  0
LINE
  5
A7
330
1F
100
AcDbEntity
  8
0
  6
Continuous
 62
     7
370
    25
100
AcDbLine
 10
200.1618643864
 20
145.5648368649
 30
0.0
 11
200.9615899172
 21
145.5648368649
 31
0.0
  0
LINE
  5
A8
330
1F
100
AcDbEntity
  8
0
  6
Continuous
 62
     7
370
    25
100
AcDbLine
 10
199.2185243593
 20
127.5648368649
 30
0.0
 11
200.1618643864
 21
145.5648368649
 31
0.0
  0
LINE
  5
A9
330
1F
100
AcDbEntity
  8
0
  6
Continuous
 62
     7
370
    25
100
AcDbLine
 10
200.0182498901
 20
127.5648368649
 30
0.0
 11
199.2185243593
 21
127.5648368649
 31
0.0
  0
LINE
  5
AA
330
1F
100
AcDbEntity
  8
0
  6
Continuous
 62
     7
370
    25
100
AcDbLine
 10
199.5167033185
 20
117.9947581776
 30
0.0
 11
200.0182498901
 21
127.5648368649
 31
0.0
  0
ARC
  5
AB
330
1F
100
AcDbEntity
  8
0
  6
Continuous
 62
     7
370
    25
100
AcDbCircle
 10
169.5578172759
 20
119.5648368649
 30
0.0
 40
29.99999999999999
100
AcDbArc
 50
183.0
 51
357.0
  0
LINE
  5
AC
330
1F
100
AcDbEntity
  8
0
  6
Continuous
 62
     7
370
    25
100
AcDbLine
 10
139.5989312332
 20
117.9947581776
 30
0.0
 11
139.0973846617
 21
127.5648368649
 31
0.0
  0
LINE
  5
AD
330
1F
100
AcDbEntity
  8
0
  6
Continuous
 62
     7
370
    25
100
AcDbLine
 10
139.8971101925
 20
127.5648368649
 30
0.0
 11
139.0973846617
 21
127.5648368649
 31
0.0
  0
LINE
  5
AE
330
1F
100
AcDbEntity
  8
0
  6
Continuous
 62
     7
370
    25
100
AcDbLine
 10
138.9537701654
 20
145.5648368649
 30
0.0
 11
139.8971101925
 21
127.5648368649
 31
0.0
  0
LINE
  5
AF
330
1F
100
AcDbEntity
  8
0
  6
Continuous
 62
     7
370
    25
100
AcDbLine
 10
138.1540446346
 20
145.5648368649
 30
0.0
 11
138.9537701654
 21
145.5648368649
 31
0.0
  0
LINE
  5
B0
330
1F
100
AcDbEntity
  8
0
  6
Continuous
 62
     7
370
    25
100
AcDbLine
 10
138.1540446346
 20
145.5648368649
 30
0.0
 11
137.462261948
 21
158.7648368649
 31
0.0
  0
LINE
  5
B1
330
1F
100
AcDbEntity
  8
0
  6
Continuous
 62
     7
370
    25
100
AcDbLine
 10
137.0010734903
 20
171.95952601
 30
0.0
 11
137.462261948
 21
158.7648368649
 31
0.0
  0
LINE
  5
B2
330
1F
100
AcDbEntity
  8
0
  6
Continuous
 62
     7
370
    25
100
AcDbLine
 10
137.0010734903
 20
171.95952601
 30
0.0
 11
137.0010734903
 21
183.0419072687
 31
0.0
  0
ARC
  5
B3
330
1F
100
AcDbEntity
  8
0
  6
Continuous
 62
     7
370
    25
100
AcDbCircle
 10
137.0010734903
 20
184.0419072687
 30
0.0
 40
1.0
100
AcDbArc
 50
270.0
 51
0.0
  0
LINE
  5
B4
330
1F
100
AcDbEntity
  8
0
  6
Continuous
 62
     7
370
    25
100
AcDbLine
 10
138.0010734903
 20
272.0419072687
 30
0.0
 11
138.0010734903
 21
184.0419072687
 31
0.0
  0
ARC
  5
B5
330
1F
100
AcDbEntity
  8
0
  6
Continuous
 62
     7
370
    25
100
AcDbCircle
 10
137.0010734903
 20
272.0419072687
 30
0.0
 40
1.0
100
AcDbArc
 50
0.0
 51
90.0
  0
LINE
  5
B6
330
1F
100
AcDbEntity
  8
0
  6
Continuous
 62
     7
370
    25
100
AcDbLine
 10
137.0010734903
 20
273.0419072687
 30
0.0
 11
137.0010734903
 21
277.8800809324
 31
0.0
  0
LINE
  5
B7
330
1F
100
AcDbEntity
  8
0
  6
Continuous
 62
     7
370
    25
100
AcDbLine
 10
137.3045262056
 20
288.1426169341
 30
0.0
 11
137.0010734903
 21
277.8800809324
 31
0.0
  0
LINE
  5
B8
330
1F
100
AcDbEntity
  8
0
  6
Continuous
 62
     7
370
    25
100
AcDbLine
 10
137.3045262056
 20
288.1426169341
 30
0.0
 11
138.1540446346
 21
305.3927015924
 31
0.0
  0
LINE
  5
B9
330
1F
100
AcDbEntity
  8
0
  6
Continuous
 62
     7
370
    25
100
AcDbLine
 10
138.1540446346
 20
305.3927015924
 30
0.0
 11
138.1540446346
 21
305.101525405
 31
0.0
  0
LINE
  5
BA
330
1F
100
AcDbEntity
  8
0
  6
Continuous
 62
     7
370
    25
100
AcDbLine
 10
138.1540446346
 20
305.101525405
 30
0.0
 11
138.9537701654
 21
305.101525405
 31
0.0
  0
LINE
  5
BB
330
1F
100
AcDbEntity
  8
0
  6
Continuous
 62
     7
370
    25
100
AcDbLine
 10
138.9537701654
 20
305.101525405
 30
0.0
 11
139.8971101925
 21
324.2567253095
 31
0.0
  0
LINE
  5
BC
330
1F
100
AcDbEntity
  8
0
  6
Continuous
 62
     7
370
    25
100
AcDbLine
 10
139.8971101925
 20
324.2567253095
 30
0.0
 11
139.8971101925
 21
324.5479014969
 31
0.0
  0
LINE
  5
BD
330
1F
100
AcDbEntity
  8
0
  6
Continuous
 62
     7
370
    25
100
AcDbLine
 10
139.8971101925
 20
324.5479014969
 30
0.0
 11
139.0973846617
 21
324.5479014969
 31
0.0
  0
LINE
  5
BE
330
1F
100
AcDbEntity
  8
0
  6
Continuous
 62
     7
370
    25
100
AcDbLine
 10
139.0973846617
 20
324.5479014969
 30
0.0
 11
139.5989312332
 21
334.7321665168
 31
0.0
  0
ELLIPSE
  5
BF
330
1F
100
AcDbEntity
  8
0
  6
Continuous
 62
     7
370
    25
100
AcDbEllipse
 10
169.5578172759
 20
333.0613236767
 30
0.0
 11
0.0
 21
31.92533317427734
 31
0.0
210
0.0
220
0.0
230
1.0
 40
0.9396926208
 41
4.764748857944535
 42
7.801621756414651
  0
LINE
  5
C0
330
1F
100
AcDbEntity
  8
0
  6
Continuous
 62
     7
370
    25
100
AcDbLine
 10
200.0182498901
 20
324.5479014969
 30
0.0
 11
199.5167033185
 21
334.7321665168
 31
0.0
  0
LINE
  5
C1
330
1F
100
AcDbEntity
  8
0
  6
Continuous
 62
     7
370
    25
100
AcDbLine
 10
200.0182498901
 20
324.5479014969
 30
0.0
 11
199.2185243593
 21
324.5479014969
 31
0.0
  0
LINE
  5
C2
330
1F
100
AcDbEntity
  8
0
  6
Continuous
 62
     7
370
    25
100
AcDbLine
 10
199.2185243593
 20
324.5479014969
 30
0.0
 11
199.2185243593
 21
324.2567253095
 31
0.0
  0
LINE
  5
C3
330
1F
100
AcDbEntity
  8
0
  6
Continuous
 62
     7
370
    25
100
AcDbLine
 10
199.2185243593
 20
324.2567253095
 30
0.0
 11
200.1618643864
 21
305.101525405
 31
0.0
  0
LINE
  5
C4
330
1F
100
AcDbEntity
  8
0
  6
Continuous
 62
     7
370
    25
100
AcDbLine
 10
200.1618643864
 20
305.101525405
 30
0.0
 11
200.9615899172
 21
305.101525405
 31
0.0
  0
LINE
  5
C5
330
1F
100
AcDbEntity
  8
0
  6
Continuous
 62
     7
370
    25
100
AcDbLine
 10
200.9615899172
 20
305.101525405
 30
0.0
 11
200.9615899172
 21
305.3927015924
 31
0.0
  0
LINE
  5
C6
330
1F
100
AcDbEntity
  8
0
  6
Continuous
 62
     7
370
    25
100
AcDbLine
 10
201.8111083461
 20
288.1426169341
 30
0.0
 11
200.9615899172
 21
305.3927015924
 31
0.0
  0
LINE
  5
C7
330
1F
100
AcDbEntity
  8
0
  6
Continuous
 62
     7
370
    25
100
AcDbLine
 10
202.1145610614
 20
277.8800809324
 30
0.0
 11
201.8111083461
 21
288.1426169341
 31
0.0
  0
LINE
  5
C8
330
1F
100
AcDbEntity
  8
0
  6
Continuous
 62
     7
370
    25
100
AcDbLine
 10
202.1145610614
 20
273.0419072687
 30
0.0
 11
202.1145610614
 21
277.8800809324
 31
0.0
  0
ARC
  5
C9
330
1F
100
AcDbEntity
  8
0
  6
Continuous
 62
     7
370
    25
100
AcDbCircle
 10
202.1145610614
 20
272.0419072687
 30
0.0
 40
1.0
100
AcDbArc
 50
90.0
 51
180.0
  0
LINE
  5
CA
330
1F
100
AcDbEntity
  8
0
  6
Continuous
 62
     7
370
    25
100
AcDbLine
 10
201.1145610614
 20
184.0419072687
 30
0.0
 11
201.1145610614
 21
272.0419072687
 31
0.0
  0
ARC
  5
CB
330
1F
100
AcDbEntity
  8
0
  6
Continuous
 62
     7
370
    25
100
AcDbCircle
 10
202.1145610614
 20
184.0419072687
 30
0.0
 40
1.0
100
AcDbArc
 50
180.0
 51
270.0
  0
CIRCLE
  5
CC
330
1F
100
AcDbEntity
  8
0
  6
Continuous
 62
     7
370
    25
100
AcDbCircle
 10
144.0010734903
 20
266.0419072687
 30
0.0
 40
3.077350269189651
  0
CIRCLE
  5
CD
330
1F
100
AcDbEntity
  8
0
  6
Continuous
 62
     7
370
    25
100
AcDbCircle
 10
195.1145610614
 20
266.0419072687
 30
0.0
 40
3.077350269189651
  0
CIRCLE
  5
CE
330
1F
100
AcDbEntity
  8
0
  6
Continuous
 62
     7
370
    25
100
AcDbCircle
 10
195.1145610614
 20
190.0419072687
 30
0.0
 40
3.077350269189623
  0
CIRCLE
  5
CF
330
1F
100
AcDbEntity
  8
0
  6
Continuous
 62
     7
370
    25
100
AcDbCircle
 10
144.0010734903
 20
190.0419072687
 30
0.0
 40
3.077350269189623
  0
CIRCLE
  5
D0
330
1F
100
AcDbEntity
  8
0
  6
Continuous
 62
     7
370
    25
100
AcDbCircle
 10
185.1145610614
 20
245.8800809324
 30
0.0
 40
2.393398258127888
  0
CIRCLE
  5
D1
330
1F
100
AcDbEntity
  8
0
  6
Continuous
 62
     7
370
    25
100
AcDbCircle
 10
169.5578172759
 20
269.2784614828
 30
0.0
 40
1.399999999998897
  0
LINE
  5
D2
330
1F
100
AcDbEntity
  8
0
  6
Continuous
 62
     7
370
    25
100
AcDbLine
 10
179.1081864853
 20
117.1287328689
 30
0.0
 11
179.1081864853
 21
105.2287328689
 31
0.0
  0
LINE
  5
D3
330
1F
100
AcDbEntity
  8
0
  6
Continuous
 62
     7
370
    25
100
AcDbLine
 10
178.3832947604
 20
313.3708441307
 30
0.0
 11
178.3832947604
 21
313.0796679433
 31
0.0
  0
ELLIPSE
  5
D4
330
1F
100
AcDbEntity
  8
0
  6
Continuous
 62
     7
370
    25
100
AcDbEllipse
 10
169.5578172759
 20
332.7701474893
 30
0.0
 11
0.0
 21
-21.81564433575613
 31
0.0
210
0.0
220
0.0
230
1.0
 40
0.9396926208
 41
5.83812634792105
 42
6.728244266438137
  0
LINE
  5
D5
330
1F
100
AcDbEntity
  8
0
  6
Continuous
 62
     7
370
    25
100
AcDbLine
 10
160.7323397913
 20
313.3708441307
 30
0.0
 11
160.7323397913
 21
313.0796679433
 31
0.0
  0
ELLIPSE
  5
D6
330
1F
100
AcDbEntity
  8
0
  6
Continuous
 62
     7
370
    25
100
AcDbEllipse
 10
160.0865731461
 20
311.6389011472
 30
0.0
 11
0.0
 21
-1.596266658713887
 31
0.0
210
0.0
220
0.0
230
1.0
 40
0.9396926208
 41
2.696533694331229
 42
4.62105668571669
  0
ELLIPSE
  5
D7
330
1F
100
AcDbEntity
  8
0
  6
Continuous
 62
     7
370
    25
100
AcDbEllipse
 10
179.0290614056
 20
311.6389011472
 30
0.0
 11
0.0
 21
-1.596266658713887
 31
0.0
210
0.0
220
0.0
230
1.0
 40
0.9396926208
 41
1.662128621462909
 42
3.586651612848347
  0
CIRCLE
  5
D8
330
1F
100
AcDbEntity
  8
0
  6
Continuous
 62
     7
370
    25
100
AcDbCircle
 10
195.1145610614
 20
266.0419072687
 30
0.0
 40
2.673205080756929
  0
CIRCLE
  5
D9
330
1F
100
AcDbEntity
  8
0
  6
Continuous
 62
     7
370
    25
100
AcDbCircle
 10
144.0010734903
 20
190.0419072687
 30
0.0
 40
2.673205080756873
  0
CIRCLE
  5
DA
330
1F
100
AcDbEntity
  8
0
  6
Continuous
 62
     7
370
    25
100
AcDbCircle
 10
195.1145610614
 20
190.0419072687
 30
0.0
 40
2.673205080756873
  0
CIRCLE
  5
DB
330
1F
100
AcDbEntity
  8
0
  6
Continuous
 62
     7
370
    25
100
AcDbCircle
 10
144.0010734903
 20
266.0419072687
 30
0.0
 40
2.673205080756929
  0
CIRCLE
  5
DC
330
1F
100
AcDbEntity
  8
0
  6
Continuous
 62
     7
370
    25
100
AcDbCircle
 10
144.0010734903
 20
266.0419072687
 30
0.0
 40
2.153589838486255
  0
CIRCLE
  5
DD
330
1F
100
AcDbEntity
  8
0
  6
Continuous
 62
     7
370
    25
100
AcDbCircle
 10
195.1145610614
 20
266.0419072687
 30
0.0
 40
2.153589838486255
  0
CIRCLE
  5
DE
330
1F
100
AcDbEntity
  8
0
  6
Continuous
 62
     7
370
    25
100
AcDbCircle
 10
195.1145610614
 20
190.0419072687
 30
0.0
 40
2.153589838486226
  0
CIRCLE
  5
DF
330
1F
100
AcDbEntity
  8
0
  6
Continuous
 62
     7
370
    25
100
AcDbCircle
 10
144.0010734903
 20
190.0419072687
 30
0.0
 40
2.153589838486226
  0
CIRCLE
  5
E0
330
1F
100
AcDbEntity
  8
0
  6
Continuous
 62
     7
370
    25
100
AcDbCircle
 10
195.1145610614
 20
266.0419072687
 30
0.0
 40
1.5
  0
CIRCLE
  5
E1
330
1F
100
AcDbEntity
  8
0
  6
Continuous
 62
     7
370
    25
100
AcDbCircle
 10
195.1145610614
 20
190.0419072687
 30
0.0
 40
1.5
  0
CIRCLE
  5
E2
330
1F
100
AcDbEntity
  8
0
  6
Continuous
 62
     7
370
    25
100
AcDbCircle
 10
144.0010734903
 20
266.0419072687
 30
0.0
 40
1.5
  0
CIRCLE
  5
E3
330
1F
100
AcDbEntity
  8
0
  6
Continuous
 62
     7
370
    25
100
AcDbCircle
 10
144.0010734903
 20
190.0419072687
 30
0.0
 40
1.5
  0
MTEXT
  5
E5
330
1F
100
AcDbEntity
  8
0
  6
Continuous
 62
     7
370
     0
100
AcDbMText
 10
88.206328464
 20
288.203573646
 30
0.0
 40
7.0
 41
0.0
 71
     2
 72
     1
  1
DOWN  70°  R 8
  7
SLDTEXTSTYLE0
 73
     1
 44
1.0
  0
MTEXT
  5
E6
330
1F
100
AcDbEntity
  8
0
  6
Continuous
 62
     7
370
     0
100
AcDbMText
 10
92.0417444243
 20
170.5544061502
 30
0.0
 40
7.0
 41
0.0
 71
     2
 72
     1
  1
DOWN  90°  R 8
  7
SLDTEXTSTYLE0
 73
     1
 44
1.0
  0
INSERT
  5
F2
330
1F
100
AcDbEntity
  8
0
  6
Continuous
 62
     7
370
    18
100
AcDbBlockReference
  2
SW_CENTERMARKSYMBOL_2
 10
195.332747993
 20
200.0419072687
 30
0.0
  0
INSERT
  5
FE
330
1F
100
AcDbEntity
  8
0
  6
Continuous
 62
     7
370
    18
100
AcDbBlockReference
  2
SW_CENTERMARKSYMBOL_3
 10
143.7828865588
 20
200.0419072687
 30
0.0
  0
INSERT
  5
10A
330
1F
100
AcDbEntity
  8
0
  6
Continuous
 62
     7
370
    18
100
AcDbBlockReference
  2
SW_CENTERMARKSYMBOL_4
 10
143.7828865588
 20
268.0419072687
 30
0.0
  0
INSERT
  5
116
330
1F
100
AcDbEntity
  8
0
  6
Continuous
 62
     7
370
    18
100
AcDbBlockReference
  2
SW_CENTERMARKSYMBOL_5
 10
195.332747993
 20
268.0419072687
 30
0.0
  0
INSERT
  5
122
330
1F
100
AcDbEntity
  8
0
  6
Continuous
 62
     7
370
    18
100
AcDbBlockReference
  2
SW_CENTERMARKSYMBOL_6
 10
169.5578172759
 20
269.2784614828
 30
0.0
  0
CIRCLE
  5
123
330
1F
100
AcDbEntity
  8
0
  6
CENTERX2
 62
     7
100
AcDbCircle
 10
330.269400279
 20
136.0715169367
 30
0.0
 40
1.100000000000007
  0
CIRCLE
  5
124
330
1F
100
AcDbEntity
  8
0
  6
CENTERX2
 62
     7
100
AcDbCircle
 10
351.1019797467
 20
136.0715169367
 30
0.0
 40
1.100000000000007
  0
CIRCLE
  5
125
330
1F
100
AcDbEntity
  8
0
  6
CENTERX2
 62
     7
100
AcDbCircle
 10
351.1019797467
 20
148.6078066706
 30
0.0
 40
1.100000000000024
  0
CIRCLE
  5
126
330
1F
100
AcDbEntity
  8
0
  6
CENTERX2
 62
     7
100
AcDbCircle
 10
330.269400279
 20
148.6078066706
 30
0.0
 40
1.100000000000024
  0
CIRCLE
  5
127
330
1F
100
AcDbEntity
  8
0
  6
Continuous
 62
     7
100
AcDbCircle
 10
330.269400279
 20
148.6078066706
 30
0.0
 40
2.000000000000049
  0
CIRCLE
  5
128
330
1F
100
AcDbEntity
  8
0
  6
Continuous
 62
     7
100
AcDbCircle
 10
351.1019797467
 20
148.6078066706
 30
0.0
 40
1.999999999999995
  0
CIRCLE
  5
129
330
1F
100
AcDbEntity
  8
0
  6
Continuous
 62
     7
100
AcDbCircle
 10
351.1019797467
 20
136.0715169367
 30
0.0
 40
1.999999999999987
  0
CIRCLE
  5
12A
330
1F
100
AcDbEntity
  8
0
  6
Continuous
 62
     7
100
AcDbCircle
 10
330.269400279
 20
136.0715169367
 30
0.0
 40
2.000000000000041
  0
CIRCLE
  5
12B
330
1F
100
AcDbEntity
  8
0
  6
Continuous
 62
     7
100
AcDbCircle
 10
330.269400279
 20
148.6078066706
 30
0.0
 40
0.7499999999999893
  0
CIRCLE
  5
12C
330
1F
100
AcDbEntity
  8
0
  6
Continuous
 62
     7
100
AcDbCircle
 10
351.1019797467
 20
148.6078066706
 30
0.0
 40
0.7499999999999893
  0
CIRCLE
  5
12D
330
1F
100
AcDbEntity
  8
0
  6
Continuous
 62
     7
100
AcDbCircle
 10
351.1019797467
 20
136.0715169367
 30
0.0
 40
0.7499999999999893
  0
CIRCLE
  5
12E
330
1F
100
AcDbEntity
  8
0
  6
Continuous
 62
     7
100
AcDbCircle
 10
330.269400279
 20
136.0715169367
 30
0.0
 40
0.7499999999999893
  0
LINE
  5
12F
330
1F
100
AcDbEntity
  8
0
  6
Continuous
 62
     7
100
AcDbLine
 10
322.4856900128
 20
133.8099587391
 30
0.0
 11
324.9856900128
 21
136.3099587391
 31
0.0
  0
LINE
  5
130
330
1F
100
AcDbEntity
  8
0
  6
Continuous
 62
     7
100
AcDbLine
 10
304.8856900128
 20
133.8099587391
 30
0.0
 11
322.4856900128
 21
133.8099587391
 31
0.0
  0
LINE
  5
131
330
1F
100
AcDbEntity
  8
0
  6
Continuous
 62
     7
100
AcDbLine
 10
302.3856900128
 20
136.3099587391
 30
0.0
 11
304.8856900128
 21
133.8099587391
 31
0.0
  0
LINE
  5
132
330
1F
100
AcDbEntity
  8
0
  6
CENTERX2
 62
     7
100
AcDbLine
 10
302.3856900128
 20
136.3099587391
 30
0.0
 11
324.9856900128
 21
136.3099587391
 31
0.0
  0
LINE
  5
133
330
1F
100
AcDbEntity
  8
0
  6
Continuous
 62
     7
100
AcDbLine
 10
324.9856900128
 20
158.9099587391
 30
0.0
 11
322.4856900128
 21
161.4099587391
 31
0.0
  0
LINE
  5
134
330
1F
100
AcDbEntity
  8
0
  6
Continuous
 62
     7
100
AcDbLine
 10
322.4856900128
 20
161.4099587391
 30
0.0
 11
304.8856900128
 21
161.4099587391
 31
0.0
  0
LINE
  5
135
330
1F
100
AcDbEntity
  8
0
  6
Continuous
 62
     7
100
AcDbLine
 10
304.8856900128
 20
161.4099587391
 30
0.0
 11
302.3856900128
 21
158.9099587391
 31
0.0
  0
LINE
  5
136
330
1F
100
AcDbEntity
  8
0
  6
CENTERX2
 62
     7
100
AcDbLine
 10
302.3856900128
 20
158.9099587391
 30
0.0
 11
324.9856900128
 21
158.9099587391
 31
0.0
  0
ARC
  5
137
330
1F
100
AcDbEntity
  8
0
  6
Continuous
 62
     7
370
    25
100
AcDbCircle
 10
327.1856900128
 20
147.6099587391
 30
0.0
 40
29.99999999999996
100
AcDbArc
 50
3.0
 51
177.0
  0
LINE
  5
138
330
1F
100
AcDbEntity
  8
0
  6
Continuous
 62
     7
370
    25
100
AcDbLine
 10
297.2268039702
 20
149.4536535411
 30
0.0
 11
297.2268039702
 21
149.1800374264
 31
0.0
  0
ARC
  5
139
330
1F
100
AcDbEntity
  8
0
  6
Continuous
 62
     7
370
    25
100
AcDbCircle
 10
327.1856900128
 20
147.8835748538
 30
0.0
 40
30.00000000000002
100
AcDbArc
 50
3.0
 51
177.0
  0
LINE
  5
13A
330
1F
100
AcDbEntity
  8
0
  6
Continuous
 62
     7
370
    25
100
AcDbLine
 10
357.1445760555
 20
149.4536535411
 30
0.0
 11
357.1445760555
 21
149.1800374264
 31
0.0
  0
LINE
  5
13B
330
1F
100
AcDbEntity
  8
0
  6
Continuous
 62
     7
370
    25
100
AcDbLine
 10
294.9323989426
 20
105.4001814779
 30
0.0
 11
359.4389810831
 21
105.4001814779
 31
0.0
  0
LINE
  5
13C
330
1F
100
AcDbEntity
  8
0
  6
Continuous
 62
     7
370
    25
100
AcDbLine
 10
294.9323989426
 20
105.4001814779
 30
0.0
 11
295.7819173715
 21
121.6099587391
 31
0.0
  0
LINE
  5
13D
330
1F
100
AcDbEntity
  8
0
  6
Continuous
 62
     7
370
    25
100
AcDbLine
 10
295.7819173715
 20
121.6099587391
 30
0.0
 11
295.7819173715
 21
121.3363426245
 31
0.0
  0
LINE
  5
13E
330
1F
100
AcDbEntity
  8
0
  6
Continuous
 62
     7
370
    25
100
AcDbLine
 10
295.7819173715
 20
121.3363426245
 30
0.0
 11
296.5816429023
 21
121.3363426245
 31
0.0
  0
LINE
  5
13F
330
1F
100
AcDbEntity
  8
0
  6
Continuous
 62
     7
370
    25
100
AcDbLine
 10
296.5816429023
 20
121.3363426245
 30
0.0
 11
297.5249829294
 21
139.3363426245
 31
0.0
  0
LINE
  5
140
330
1F
100
AcDbEntity
  8
0
  6
Continuous
 62
     7
370
    25
100
AcDbLine
 10
297.5249829294
 20
139.3363426245
 30
0.0
 11
297.5249829294
 21
139.6099587391
 31
0.0
  0
LINE
  5
141
330
1F
100
AcDbEntity
  8
0
  6
Continuous
 62
     7
370
    25
100
AcDbLine
 10
297.5249829294
 20
139.6099587391
 30
0.0
 11
296.7252573986
 21
139.6099587391
 31
0.0
  0
LINE
  5
142
330
1F
100
AcDbEntity
  8
0
  6
Continuous
 62
     7
370
    25
100
AcDbLine
 10
296.7252573986
 20
139.6099587391
 30
0.0
 11
297.2268039702
 21
149.1800374264
 31
0.0
  0
LINE
  5
143
330
1F
100
AcDbEntity
  8
0
  6
Continuous
 62
     7
370
    25
100
AcDbLine
 10
357.646122627
 20
139.6099587391
 30
0.0
 11
357.1445760555
 21
149.1800374264
 31
0.0
  0
LINE
  5
144
330
1F
100
AcDbEntity
  8
0
  6
Continuous
 62
     7
370
    25
100
AcDbLine
 10
357.646122627
 20
139.6099587391
 30
0.0
 11
356.8463970962
 21
139.6099587391
 31
0.0
  0
LINE
  5
145
330
1F
100
AcDbEntity
  8
0
  6
Continuous
 62
     7
370
    25
100
AcDbLine
 10
356.8463970962
 20
139.6099587391
 30
0.0
 11
356.8463970962
 21
139.3363426245
 31
0.0
  0
LINE
  5
146
330
1F
100
AcDbEntity
  8
0
  6
Continuous
 62
     7
370
    25
100
AcDbLine
 10
356.8463970962
 20
139.3363426245
 30
0.0
 11
357.7897371233
 21
121.3363426245
 31
0.0
  0
LINE
  5
147
330
1F
100
AcDbEntity
  8
0
  6
Continuous
 62
     7
370
    25
100
AcDbLine
 10
357.7897371233
 20
121.3363426245
 30
0.0
 11
358.5894626541
 21
121.3363426245
 31
0.0
  0
LINE
  5
148
330
1F
100
AcDbEntity
  8
0
  6
Continuous
 62
     7
370
    25
100
AcDbLine
 10
358.5894626541
 20
121.3363426245
 30
0.0
 11
358.5894626541
 21
121.6099587391
 31
0.0
  0
LINE
  5
149
330
1F
100
AcDbEntity
  8
0
  6
Continuous
 62
     7
370
    25
100
AcDbLine
 10
359.4389810831
 20
105.4001814779
 30
0.0
 11
358.5894626541
 21
121.6099587391
 31
0.0
  0
ELLIPSE
  5
14A
330
1F
100
AcDbEntity
  8
0
  6
Continuous
 62
     7
370
    25
100
AcDbEllipse
 10
340.6856900128
 20
149.8432533649
 30
0.0
 11
0.0
 21
10.62773654528325
 31
0.0
210
0.0
220
0.0
230
1.0
 40
0.9776716675
 41
3.141592653589793
 42
6.283185307179586
  0
LINE
  5
14B
330
1F
100
AcDbEntity
  8
0
  6
Continuous
 62
     7
370
    25
100
AcDbLine
 10
340.6856900128
 20
160.4709899102
 30
0.0
 11
313.6856900128
 21
160.4709899102
 31
0.0
  0
ELLIPSE
  5
14C
330
1F
100
AcDbEntity
  8
0
  6
Continuous
 62
     7
370
    25
100
AcDbEllipse
 10
313.6856900128
 20
149.8432533649
 30
0.0
 11
0.0
 21
10.62773654528325
 31
0.0
210
0.0
220
0.0
230
1.0
 40
0.9776716675
 41
0.0
 42
3.141592653589793
  0
LINE
  5
14D
330
1F
100
AcDbEntity
  8
0
  6
Continuous
 62
     7
370
    25
100
AcDbLine
 10
340.6856900128
 20
139.2155168196
 30
0.0
 11
313.6856900128
 21
139.2155168196
 31
0.0
  0
ARC
  5
14E
330
1F
100
AcDbEntity
  8
0
  6
Continuous
 62
     7
370
    25
100
AcDbCircle
 10
327.1856900128
 20
147.6099587391
 30
0.0
 40
20.49999999999999
100
AcDbArc
 50
244.5
 51
295.5
  0
ARC
  5
14F
330
1F
100
AcDbEntity
  8
0
  6
Continuous
 62
     7
370
    25
100
AcDbCircle
 10
317.7144458831
 20
127.7530824834
 30
0.0
 40
1.500000000000006
100
AcDbArc
 50
64.5
 51
244.5
  0
ARC
  5
150
330
1F
100
AcDbEntity
  8
0
  6
Continuous
 62
     7
370
    25
100
AcDbCircle
 10
327.1856900128
 20
147.6099587391
 30
0.0
 40
23.49999999999999
100
AcDbArc
 50
244.5
 51
295.5
  0
ARC
  5
151
330
1F
100
AcDbEntity
  8
0
  6
Continuous
 62
     7
370
    25
100
AcDbCircle
 10
336.6569341426
 20
127.7530824834
 30
0.0
 40
1.50000000000003
100
AcDbArc
 50
295.5
 51
115.5
  0
LINE
  5
152
330
1F
100
AcDbEntity
  8
0
  6
Continuous
 62
     7
370
    25
100
AcDbLine
 10
340.6856900128
 20
139.4891329343
 30
0.0
 11
340.6856900128
 21
139.2155168196
 31
0.0
  0
ELLIPSE
  5
153
330
1F
100
AcDbEntity
  8
0
  6
Continuous
 62
     7
370
    25
100
AcDbEllipse
 10
340.6856900128
 20
150.1168694796
 30
0.0
 11
0.0
 21
10.62773654528323
 31
0.0
210
0.0
220
0.0
230
1.0
 40
0.9776716675
 41
3.141592653589793
 42
4.699515887837439
  0
LINE
  5
154
330
1F
100
AcDbEntity
  8
0
  6
Continuous
 62
     7
370
    25
100
AcDbLine
 10
313.6856900128
 20
139.4891329343
 30
0.0
 11
313.6856900128
 21
139.2155168196
 31
0.0
  0
ELLIPSE
  5
155
330
1F
100
AcDbEntity
  8
0
  6
Continuous
 62
     7
370
    25
100
AcDbEllipse
 10
313.6856900128
 20
150.1168694796
 30
0.0
 11
0.0
 21
10.62773654528323
 31
0.0
210
0.0
220
0.0
230
1.0
 40
0.9776716675
 41
1.583669419313386
 42
3.141592653589813
  0
LINE
  5
156
330
1F
100
AcDbEntity
  8
0
  6
Continuous
 62
     7
370
    25
100
AcDbLine
 10
357.646122627
 20
139.6099587391
 30
0.0
 11
357.646122627
 21
139.8835748538
 31
0.0
  0
LINE
  5
157
330
1F
100
AcDbEntity
  8
0
  6
Continuous
 62
     7
370
    25
100
AcDbLine
 10
357.646122627
 20
139.8835748538
 30
0.0
 11
357.1445760555
 21
149.4536535411
 31
0.0
  0
LINE
  5
158
330
1F
100
AcDbEntity
  8
0
  6
Continuous
 62
     7
370
    25
100
AcDbLine
 10
296.7252573986
 20
139.6099587391
 30
0.0
 11
296.7252573986
 21
139.8835748538
 31
0.0
  0
LINE
  5
159
330
1F
100
AcDbEntity
  8
0
  6
Continuous
 62
     7
370
    25
100
AcDbLine
 10
296.7252573986
 20
139.8835748538
 30
0.0
 11
297.2268039702
 21
149.4536535411
 31
0.0
  0
LINE
  5
15A
330
1F
100
AcDbEntity
  8
0
  6
Continuous
 62
     7
370
    25
100
AcDbLine
 10
357.7897371233
 20
121.3363426245
 30
0.0
 11
357.7897371233
 21
121.6099587391
 31
0.0
  0
LINE
  5
15B
330
1F
100
AcDbEntity
  8
0
  6
Continuous
 62
     7
370
    25
100
AcDbLine
 10
356.8463970962
 20
139.6099587391
 30
0.0
 11
357.7897371233
 21
121.6099587391
 31
0.0
  0
LINE
  5
15C
330
1F
100
AcDbEntity
  8
0
  6
Continuous
 62
     7
370
    25
100
AcDbLine
 10
296.5816429023
 20
121.3363426245
 30
0.0
 11
296.5816429023
 21
121.6099587391
 31
0.0
  0
LINE
  5
15D
330
1F
100
AcDbEntity
  8
0
  6
Continuous
 62
     7
370
    25
100
AcDbLine
 10
296.5816429023
 20
121.6099587391
 30
0.0
 11
297.5249829294
 21
139.6099587391
 31
0.0
  0
LINE
  5
15E
330
1F
100
AcDbEntity
  8
0
  6
Continuous
 62
     7
370
    25
100
AcDbLine
 10
340.6856900128
 20
139.4891329343
 30
0.0
 11
313.6856900128
 21
139.4891329343
 31
0.0
  0
LINE
  5
15F
330
1F
100
AcDbEntity
  8
0
  6
Continuous
 62
     7
370
    25
100
AcDbLine
 10
359.4389810831
 20
105.6737975925
 30
0.0
 11
359.4389810831
 21
105.4001814779
 31
0.0
  0
LINE
  5
160
330
1F
100
AcDbEntity
  8
0
  6
Continuous
 62
     7
370
    25
100
AcDbLine
 10
358.5894626541
 20
121.6099587391
 30
0.0
 11
358.5894626541
 21
121.8835748538
 31
0.0
  0
LINE
  5
161
330
1F
100
AcDbEntity
  8
0
  6
Continuous
 62
     7
370
    25
100
AcDbLine
 10
359.4389810831
 20
105.6737975925
 30
0.0
 11
358.5894626541
 21
121.8835748538
 31
0.0
  0
LINE
  5
162
330
1F
100
AcDbEntity
  8
0
  6
Continuous
 62
     7
370
    25
100
AcDbLine
 10
294.9323989426
 20
105.6737975925
 30
0.0
 11
294.9323989426
 21
105.4001814779
 31
0.0
  0
LINE
  5
163
330
1F
100
AcDbEntity
  8
0
  6
Continuous
 62
     7
370
    25
100
AcDbLine
 10
295.7819173715
 20
121.6099587391
 30
0.0
 11
295.7819173715
 21
121.8835748538
 31
0.0
  0
LINE
  5
164
330
1F
100
AcDbEntity
  8
0
  6
Continuous
 62
     7
370
    25
100
AcDbLine
 10
294.9323989426
 20
105.6737975925
 30
0.0
 11
295.7819173715
 21
121.8835748538
 31
0.0
  0
LINE
  5
165
330
1F
100
AcDbEntity
  8
0
  6
Continuous
 62
     7
370
    25
100
AcDbLine
 10
295.7819173715
 20
121.6099587391
 30
0.0
 11
296.5816429023
 21
121.6099587391
 31
0.0
  0
LINE
  5
166
330
1F
100
AcDbEntity
  8
0
  6
Continuous
 62
     7
370
    25
100
AcDbLine
 10
357.7897371233
 20
121.6099587391
 30
0.0
 11
358.5894626541
 21
121.6099587391
 31
0.0
  0
LINE
  5
167
330
1F
100
AcDbEntity
  8
0
  6
Continuous
 62
     7
370
    25
100
AcDbLine
 10
359.7424337984
 20
99.6099587391
 30
0.0
 11
359.4389810831
 21
105.4001814779
 31
0.0
  0
LINE
  5
168
330
1F
100
AcDbEntity
  8
0
  6
Continuous
 62
     7
370
    25
100
AcDbLine
 10
359.7424337984
 20
99.6099587391
 30
0.0
 11
294.6289462273
 21
99.6099587391
 31
0.0
  0
LINE
  5
169
330
1F
100
AcDbEntity
  8
0
  6
Continuous
 62
     7
370
    25
100
AcDbLine
 10
294.9323989426
 20
105.4001814779
 30
0.0
 11
294.6289462273
 21
99.6099587391
 31
0.0
  0
LINE
  5
16A
330
1F
100
AcDbEntity
  8
0
  6
Continuous
 62
     7
370
    25
100
AcDbLine
 10
294.6289462273
 20
100.4099587391
 30
0.0
 11
294.6289462273
 21
99.6099587391
 31
0.0
  0
LINE
  5
16B
330
1F
100
AcDbEntity
  8
0
  6
Continuous
 62
     7
370
    25
100
AcDbLine
 10
294.9323989426
 20
105.6737975925
 30
0.0
 11
294.6289462273
 21
100.4099587391
 31
0.0
  0
LINE
  5
16C
330
1F
100
AcDbEntity
  8
0
  6
Continuous
 62
     7
370
    25
100
AcDbLine
 10
359.7424337984
 20
100.4099587391
 30
0.0
 11
359.4389810831
 21
105.6737975925
 31
0.0
  0
LINE
  5
16D
330
1F
100
AcDbEntity
  8
0
  6
Continuous
 62
     7
370
    25
100
AcDbLine
 10
359.7424337984
 20
100.4099587391
 30
0.0
 11
359.7424337984
 21
99.6099587391
 31
0.0
  0
LINE
  5
16E
330
1F
100
AcDbEntity
  8
0
  6
Continuous
 62
     7
370
    25
100
AcDbLine
 10
330.7410607084
 20
142.8313742699
 30
0.0
 11
330.7410607084
 21
139.4891329343
 31
0.0
  0
ARC
  5
16F
330
1F
100
AcDbEntity
  8
0
  6
Continuous
 62
     7
370
    25
100
AcDbCircle
 10
330.5210607084
 20
142.8313742699
 30
0.0
 40
0.2199999999999704
100
AcDbArc
 50
360.0
 51
90.0000000005
  0
LINE
  5
170
330
1F
100
AcDbEntity
  8
0
  6
Continuous
 62
     7
370
    25
100
AcDbLine
 10
329.5210607084
 20
143.0513742699
 30
0.0
 11
330.5210607084
 21
143.0513742699
 31
0.0
  0
ARC
  5
171
330
1F
100
AcDbEntity
  8
0
  6
Continuous
 62
     7
370
    25
100
AcDbCircle
 10
329.5210607084
 20
142.8313742699
 30
0.0
 40
0.2200000000000273
100
AcDbArc
 50
90.0
 51
180.0
  0
LINE
  5
172
330
1F
100
AcDbEntity
  8
0
  6
Continuous
 62
     7
370
    25
100
AcDbLine
 10
329.3010607084
 20
139.4891329343
 30
0.0
 11
329.3010607084
 21
142.8313742699
 31
0.0
  0
LINE
  5
173
330
1F
100
AcDbEntity
  8
0
  6
Continuous
 62
     7
370
    25
100
AcDbLine
 10
324.1649070462
 20
142.2322056483
 30
0.0
 11
324.1649070462
 21
139.4891329343
 31
0.0
  0
LINE
  5
174
330
1F
100
AcDbEntity
  8
0
  6
Continuous
 62
     7
370
    25
100
AcDbLine
 10
323.6220136365
 20
142.7750981043
 30
0.0
 11
324.1649070462
 21
142.2322056483
 31
0.0
  0
LINE
  5
175
330
1F
100
AcDbEntity
  8
0
  6
Continuous
 62
     7
370
    25
100
AcDbLine
 10
320.6365676602
 20
142.7750981043
 30
0.0
 11
323.6220136365
 21
142.7750981043
 31
0.0
  0
LINE
  5
176
330
1F
100
AcDbEntity
  8
0
  6
Continuous
 62
     7
370
    25
100
AcDbLine
 10
320.2591381749
 20
142.5195667933
 30
0.0
 11
320.6365676602
 21
142.7750981043
 31
0.0
  0
LINE
  5
177
330
1F
100
AcDbEntity
  8
0
  6
Continuous
 62
     7
370
    25
100
AcDbLine
 10
320.0649069031
 20
142.0339901637
 30
0.0
 11
320.2591381749
 21
142.5195667933
 31
0.0
  0
LINE
  5
178
330
1F
100
AcDbEntity
  8
0
  6
Continuous
 62
     7
370
    25
100
AcDbLine
 10
319.3278020104
 20
141.5732968043
 30
0.0
 11
320.0649069031
 21
142.0339901637
 31
0.0
  0
LINE
  5
179
330
1F
100
AcDbEntity
  8
0
  6
Continuous
 62
     7
370
    25
100
AcDbLine
 10
319.164906927
 20
141.2793972682
 30
0.0
 11
319.3278020104
 21
141.5732968043
 31
0.0
  0
LINE
  5
17A
330
1F
100
AcDbEntity
  8
0
  6
Continuous
 62
     7
370
    25
100
AcDbLine
 10
319.164906927
 20
139.4891329343
 30
0.0
 11
319.164906927
 21
141.2793972682
 31
0.0
  0
LINE
  5
17B
330
1F
100
AcDbEntity
  8
0
  6
Continuous
 62
     7
370
    25
100
AcDbLine
 10
320.2111936291
 20
128.0630924891
 30
0.0
 11
320.0848060633
 21
128.3790604987
 31
0.0
  0
LINE
  5
17C
330
1F
100
AcDbEntity
  8
0
  6
Continuous
 62
     7
370
    25
100
AcDbLine
 10
320.6365676602
 20
127.7751000117
 30
0.0
 11
320.2111936291
 21
128.0630924891
 31
0.0
  0
LINE
  5
17D
330
1F
100
AcDbEntity
  8
0
  6
Continuous
 62
     7
370
    25
100
AcDbLine
 10
322.0060781295
 20
127.7751000117
 30
0.0
 11
320.6365676602
 21
127.7751000117
 31
0.0
  0
CIRCLE
  5
17E
330
1F
100
AcDbEntity
  8
0
  6
Continuous
 62
     7
370
    25
100
AcDbCircle
 10
332.3010597905
 20
146.7901576476
 30
0.0
 40
1.599999999999994
  0
LINE
  5
17F
330
1F
100
AcDbEntity
  8
0
  6
Continuous
 62
     7
370
    25
100
AcDbLine
 10
331.0160592222
 20
150.0460627351
 30
0.0
 11
331.0160592222
 21
160.4709899102
 31
0.0
  0
ARC
  5
180
330
1F
100
AcDbEntity
  8
0
  6
Continuous
 62
     7
370
    25
100
AcDbCircle
 10
331.6160592222
 20
150.0460627351
 30
0.0
 40
0.6000000000000227
100
AcDbArc
 50
180.0
 51
270.0
  0
LINE
  5
181
330
1F
100
AcDbEntity
  8
0
  6
Continuous
 62
     7
370
    25
100
AcDbLine
 10
336.1360592222
 20
149.4460627351
 30
0.0
 11
331.6160592222
 21
149.4460627351
 31
0.0
  0
ARC
  5
182
330
1F
100
AcDbEntity
  8
0
  6
Continuous
 62
     7
370
    25
100
AcDbCircle
 10
336.1360592222
 20
150.0460627351
 30
0.0
 40
0.6000000000000227
100
AcDbArc
 50
270.0
 51
0.0
  0
LINE
  5
183
330
1F
100
AcDbEntity
  8
0
  6
Continuous
 62
     7
370
    25
100
AcDbLine
 10
336.7360592222
 20
160.4709899102
 30
0.0
 11
336.7360592222
 21
150.0460627351
 31
0.0
  0
CIRCLE
  5
184
330
1F
100
AcDbEntity
  8
0
  6
Continuous
 62
     7
370
    25
100
AcDbCircle
 10
320.5171304425
 20
157.5527870844
 30
0.0
 40
2.540509497513483
  0
LINE
  5
185
330
1F
100
AcDbEntity
  8
0
  6
Continuous
 62
     7
370
    25
100
AcDbLine
 10
329.3010621747
 20
126.9321565297
 30
0.0
 11
329.3010621747
 21
124.2053608871
 31
0.0
  0
LINE
  5
186
330
1F
100
AcDbEntity
  8
0
  6
Continuous
 62
     7
370
    25
100
AcDbLine
 10
337.9123546214
 20
126.9321565297
 30
0.0
 11
329.3010621747
 21
126.9321565297
 31
0.0
  0
CIRCLE
  5
187
330
1F
100
AcDbEntity
  8
0
  6
CENTERX2
 62
     7
100
AcDbCircle
 10
352.8036128612
 20
315.7675256936
 30
0.0
 40
1.400000000000034
  0
CIRCLE
  5
188
330
1F
100
AcDbEntity
  8
0
  6
CENTERX2
 62
     7
100
AcDbCircle
 10
352.8036128612
 20
239.7675256936
 30
0.0
 40
1.400000000000042
  0
CIRCLE
  5
189
330
1F
100
AcDbEntity
  8
0
  6
CENTERX2
 62
     7
100
AcDbCircle
 10
301.5677671645
 20
315.7675256936
 30
0.0
 40
1.399999999999979
  0
CIRCLE
  5
18A
330
1F
100
AcDbEntity
  8
0
  6
CENTERX2
 62
     7
100
AcDbCircle
 10
301.5677671645
 20
239.7675256936
 30
0.0
 40
1.399999999999988
  0
LINE
  5
18B
330
1F
100
AcDbEntity
  8
0
  6
Continuous
 62
     7
370
    25
100
AcDbLine
 10
357.7897371233
 20
214.6115227577
 30
0.0
 11
358.5894626541
 21
214.6115227577
 31
0.0
  0
LINE
  5
18C
330
1F
100
AcDbEntity
  8
0
  6
Continuous
 62
     7
370
    25
100
AcDbLine
 10
356.8463970962
 20
208.0600585409
 30
0.0
 11
357.7897371233
 21
214.6115227577
 31
0.0
  0
LINE
  5
18D
330
1F
100
AcDbEntity
  8
0
  6
Continuous
 62
     7
370
    25
100
AcDbLine
 10
356.8463970962
 20
207.9604704196
 30
0.0
 11
356.8463970962
 21
208.0600585409
 31
0.0
  0
LINE
  5
18E
330
1F
100
AcDbEntity
  8
0
  6
Continuous
 62
     7
370
    25
100
AcDbLine
 10
357.646122627
 20
207.9604704196
 30
0.0
 11
356.8463970962
 21
207.9604704196
 31
0.0
  0
LINE
  5
18F
330
1F
100
AcDbEntity
  8
0
  6
Continuous
 62
     7
370
    25
100
AcDbLine
 10
357.646122627
 20
207.9604704196
 30
0.0
 11
357.1445760555
 21
204.4772466378
 31
0.0
  0
ELLIPSE
  5
190
330
1F
100
AcDbEntity
  8
0
  6
Continuous
 62
     7
370
    25
100
AcDbEllipse
 10
327.1856900128
 20
205.0487085454
 30
0.0
 11
29.99999999999994
 21
0.0
 31
0.0
210
0.0
220
0.0
230
1.0
 40
0.3639702343
 41
3.193952531149664
 42
6.230825429619791
  0
LINE
  5
191
330
1F
100
AcDbEntity
  8
0
  6
Continuous
 62
     7
370
    25
100
AcDbLine
 10
296.7252573986
 20
207.9604704196
 30
0.0
 11
297.2268039702
 21
204.4772466378
 31
0.0
  0
LINE
  5
192
330
1F
100
AcDbEntity
  8
0
  6
Continuous
 62
     7
370
    25
100
AcDbLine
 10
297.5249829294
 20
207.9604704196
 30
0.0
 11
296.7252573986
 21
207.9604704196
 31
0.0
  0
LINE
  5
193
330
1F
100
AcDbEntity
  8
0
  6
Continuous
 62
     7
370
    25
100
AcDbLine
 10
297.5249829294
 20
208.0600585409
 30
0.0
 11
297.5249829294
 21
207.9604704196
 31
0.0
  0
LINE
  5
194
330
1F
100
AcDbEntity
  8
0
  6
Continuous
 62
     7
370
    25
100
AcDbLine
 10
296.5816429023
 20
214.6115227577
 30
0.0
 11
297.5249829294
 21
208.0600585409
 31
0.0
  0
LINE
  5
195
330
1F
100
AcDbEntity
  8
0
  6
Continuous
 62
     7
370
    25
100
AcDbLine
 10
295.7819173715
 20
214.6115227577
 30
0.0
 11
296.5816429023
 21
214.6115227577
 31
0.0
  0
LINE
  5
196
330
1F
100
AcDbEntity
  8
0
  6
Continuous
 62
     7
370
    25
100
AcDbLine
 10
295.7819173715
 20
214.5119346363
 30
0.0
 11
295.7819173715
 21
214.6115227577
 31
0.0
  0
LINE
  5
197
330
1F
100
AcDbEntity
  8
0
  6
Continuous
 62
     7
370
    25
100
AcDbLine
 10
294.9323989426
 20
220.4118110635
 30
0.0
 11
295.7819173715
 21
214.5119346363
 31
0.0
  0
LINE
  5
198
330
1F
100
AcDbEntity
  8
0
  6
Continuous
 62
     7
370
    25
100
AcDbLine
 10
294.9323989426
 20
220.4118110635
 30
0.0
 11
359.4389810831
 21
220.4118110635
 31
0.0
  0
LINE
  5
199
330
1F
100
AcDbEntity
  8
0
  6
Continuous
 62
     7
370
    25
100
AcDbLine
 10
359.4389810831
 20
220.4118110635
 30
0.0
 11
358.5894626541
 21
214.5119346363
 31
0.0
  0
LINE
  5
19A
330
1F
100
AcDbEntity
  8
0
  6
Continuous
 62
     7
370
    25
100
AcDbLine
 10
358.5894626541
 20
214.6115227577
 30
0.0
 11
358.5894626541
 21
214.5119346363
 31
0.0
  0
ELLIPSE
  5
19B
330
1F
100
AcDbEntity
  8
0
  6
Continuous
 62
     7
370
    25
100
AcDbEllipse
 10
313.6856900128
 20
204.2358557773
 30
0.0
 11
10.3904369104697
 21
0.0
 31
0.0
210
0.0
220
0.0
230
1.0
 40
0.3722826858
 41
1.570796326794891
 42
4.7123889803847
  0
LINE
  5
19C
330
1F
100
AcDbEntity
  8
0
  6
Continuous
 62
     7
370
    25
100
AcDbLine
 10
340.6856900128
 20
200.3676760172
 30
0.0
 11
313.6856900128
 21
200.3676760172
 31
0.0
  0
ELLIPSE
  5
19D
330
1F
100
AcDbEntity
  8
0
  6
Continuous
 62
     7
370
    25
100
AcDbEllipse
 10
340.6856900128
 20
204.2358557773
 30
0.0
 11
10.39043691046965
 21
0.0
 31
0.0
210
0.0
220
0.0
230
1.0
 40
0.3722826858
 41
4.712388980384695
 42
7.853981633974483
  0
LINE
  5
19E
330
1F
100
AcDbEntity
  8
0
  6
Continuous
 62
     7
370
    25
100
AcDbLine
 10
340.6856900128
 20
208.1040355374
 30
0.0
 11
313.6856900128
 21
208.1040355374
 31
0.0
  0
ELLIPSE
  5
19F
330
1F
100
AcDbEntity
  8
0
  6
Continuous
 62
     7
370
    25
100
AcDbEllipse
 10
317.7144458831
 20
212.3756085694
 30
0.0
 11
1.5
 21
0.0
 31
0.0
210
0.0
220
0.0
230
1.0
 40
0.3639702343
 41
2.015855286053443
 42
5.157447939643282
  0
ELLIPSE
  5
1A0
330
1F
100
AcDbEntity
  8
0
  6
Continuous
 62
     7
370
    25
100
AcDbEllipse
 10
327.1856900128
 20
205.1482966668
 30
0.0
 11
20.5
 21
0.0
 31
0.0
210
0.0
220
0.0
230
1.0
 40
0.3639702343
 41
1.125737367536346
 42
2.01585528605345
  0
ELLIPSE
  5
1A1
330
1F
100
AcDbEntity
  8
0
  6
Continuous
 62
     7
370
    25
100
AcDbEllipse
 10
336.6569341426
 20
212.3756085694
 30
0.0
 11
1.5
 21
0.0
 31
0.0
210
0.0
220
0.0
230
1.0
 40
0.3639702343
 41
4.267330021126086
 42
7.408922674715936
  0
ELLIPSE
  5
1A2
330
1F
100
AcDbEntity
  8
0
  6
Continuous
 62
     7
370
    25
100
AcDbEllipse
 10
327.1856900128
 20
205.1482966668
 30
0.0
 11
23.5
 21
0.0
 31
0.0
210
0.0
220
0.0
230
1.0
 40
0.3639702343
 41
1.125737367536345
 42
2.015855286053448
  0
ELLIPSE
  5
1A3
330
1F
100
AcDbEntity
  8
0
  6
Continuous
 62
     7
370
    25
100
AcDbEllipse
 10
327.1856900128
 20
204.2969544488
 30
0.0
 11
29.99999999999994
 21
0.0
 31
0.0
210
0.0
220
0.0
230
1.0
 40
0.3639702343
 41
3.193952531149664
 42
6.230825429619791
  0
LINE
  5
1A4
330
1F
100
AcDbEntity
  8
0
  6
Continuous
 62
     7
370
    25
100
AcDbLine
 10
297.2268039702
 20
204.4772466378
 30
0.0
 11
297.2268039702
 21
203.7254925412
 31
0.0
  0
LINE
  5
1A5
330
1F
100
AcDbEntity
  8
0
  6
Continuous
 62
     7
370
    25
100
AcDbLine
 10
357.1445760555
 20
204.4772466378
 30
0.0
 11
357.1445760555
 21
203.7254925412
 31
0.0
  0
LINE
  5
1A6
330
1F
100
AcDbEntity
  8
0
  6
Continuous
 62
     7
370
    25
100
AcDbLine
 10
357.1445760555
 20
341.8499069523
 30
0.0
 11
357.1445760555
 21
342.6499069523
 31
0.0
  0
LINE
  5
1A7
330
1F
100
AcDbEntity
  8
0
  6
Continuous
 62
     7
370
    25
100
AcDbLine
 10
357.1445760555
 20
341.8499069523
 30
0.0
 11
297.2268039702
 21
341.8499069523
 31
0.0
  0
LINE
  5
1A8
330
1F
100
AcDbEntity
  8
0
  6
Continuous
 62
     7
370
    25
100
AcDbLine
 10
297.2268039702
 20
341.8499069523
 30
0.0
 11
297.2268039702
 21
342.6499069523
 31
0.0
  0
LINE
  5
1A9
330
1F
100
AcDbEntity
  8
0
  6
Continuous
 62
     7
370
    25
100
AcDbLine
 10
357.1445760555
 20
342.6499069523
 30
0.0
 11
297.2268039702
 21
342.6499069523
 31
0.0
  0
LINE
  5
1AA
330
1F
100
AcDbEntity
  8
0
  6
Continuous
 62
     7
370
    25
100
AcDbLine
 10
340.6856900128
 20
208.1040355374
 30
0.0
 11
340.6856900128
 21
207.3522814408
 31
0.0
  0
ELLIPSE
  5
1AB
330
1F
100
AcDbEntity
  8
0
  6
Continuous
 62
     7
370
    25
100
AcDbEllipse
 10
340.6856900128
 20
203.4841016807
 30
0.0
 11
10.39043691046965
 21
0.0
 31
0.0
210
0.0
220
0.0
230
1.0
 40
0.3722826858
 41
0.0973251306769062
 42
1.570796326794913
  0
LINE
  5
1AC
330
1F
100
AcDbEntity
  8
0
  6
Continuous
 62
     7
370
    25
100
AcDbLine
 10
313.6856900128
 20
208.1040355374
 30
0.0
 11
313.6856900128
 21
207.3522814408
 31
0.0
  0
ELLIPSE
  5
1AD
330
1F
100
AcDbEntity
  8
0
  6
Continuous
 62
     7
370
    25
100
AcDbEllipse
 10
313.6856900128
 20
203.4841016807
 30
0.0
 11
10.3904369104697
 21
0.0
 31
0.0
210
0.0
220
0.0
230
1.0
 40
0.3722826858
 41
1.570796326794897
 42
3.044267522912725
  0
LINE
  5
1AE
330
1F
100
AcDbEntity
  8
0
  6
Continuous
 62
     7
370
    25
100
AcDbLine
 10
357.646122627
 20
207.2087163229
 30
0.0
 11
357.646122627
 21
207.9604704196
 31
0.0
  0
LINE
  5
1AF
330
1F
100
AcDbEntity
  8
0
  6
Continuous
 62
     7
370
    25
100
AcDbLine
 10
357.646122627
 20
207.2087163229
 30
0.0
 11
357.1445760555
 21
203.7254925412
 31
0.0
  0
LINE
  5
1B0
330
1F
100
AcDbEntity
  8
0
  6
Continuous
 62
     7
370
    25
100
AcDbLine
 10
296.7252573986
 20
207.2087163229
 30
0.0
 11
296.7252573986
 21
207.9604704196
 31
0.0
  0
LINE
  5
1B1
330
1F
100
AcDbEntity
  8
0
  6
Continuous
 62
     7
370
    25
100
AcDbLine
 10
296.7252573986
 20
207.2087163229
 30
0.0
 11
297.2268039702
 21
203.7254925412
 31
0.0
  0
LINE
  5
1B2
330
1F
100
AcDbEntity
  8
0
  6
Continuous
 62
     7
370
    25
100
AcDbLine
 10
357.646122627
 20
341.8499069523
 30
0.0
 11
357.646122627
 21
342.6499069523
 31
0.0
  0
LINE
  5
1B3
330
1F
100
AcDbEntity
  8
0
  6
Continuous
 62
     7
370
    25
100
AcDbLine
 10
357.1445760555
 20
341.8499069523
 30
0.0
 11
357.646122627
 21
341.8499069523
 31
0.0
  0
LINE
  5
1B4
330
1F
100
AcDbEntity
  8
0
  6
Continuous
 62
     7
370
    25
100
AcDbLine
 10
357.1445760555
 20
342.6499069523
 30
0.0
 11
357.646122627
 21
342.6499069523
 31
0.0
  0
LINE
  5
1B5
330
1F
100
AcDbEntity
  8
0
  6
Continuous
 62
     7
370
    25
100
AcDbLine
 10
296.7252573986
 20
341.8499069523
 30
0.0
 11
296.7252573986
 21
342.6499069523
 31
0.0
  0
LINE
  5
1B6
330
1F
100
AcDbEntity
  8
0
  6
Continuous
 62
     7
370
    25
100
AcDbLine
 10
297.2268039702
 20
341.8499069523
 30
0.0
 11
296.7252573986
 21
341.8499069523
 31
0.0
  0
LINE
  5
1B7
330
1F
100
AcDbEntity
  8
0
  6
Continuous
 62
     7
370
    25
100
AcDbLine
 10
297.2268039702
 20
342.6499069523
 30
0.0
 11
296.7252573986
 21
342.6499069523
 31
0.0
  0
LINE
  5
1B8
330
1F
100
AcDbEntity
  8
0
  6
Continuous
 62
     7
370
    25
100
AcDbLine
 10
357.7897371233
 20
341.8499069523
 30
0.0
 11
357.7897371233
 21
342.6499069523
 31
0.0
  0
LINE
  5
1B9
330
1F
100
AcDbEntity
  8
0
  6
Continuous
 62
     7
370
    25
100
AcDbLine
 10
357.646122627
 20
341.8499069523
 30
0.0
 11
357.7897371233
 21
341.8499069523
 31
0.0
  0
LINE
  5
1BA
330
1F
100
AcDbEntity
  8
0
  6
Continuous
 62
     7
370
    25
100
AcDbLine
 10
357.646122627
 20
342.6499069523
 30
0.0
 11
357.7897371233
 21
342.6499069523
 31
0.0
  0
LINE
  5
1BB
330
1F
100
AcDbEntity
  8
0
  6
Continuous
 62
     7
370
    25
100
AcDbLine
 10
296.5816429023
 20
341.8499069523
 30
0.0
 11
296.5816429023
 21
342.6499069523
 31
0.0
  0
LINE
  5
1BC
330
1F
100
AcDbEntity
  8
0
  6
Continuous
 62
     7
370
    25
100
AcDbLine
 10
296.5816429023
 20
341.8499069523
 30
0.0
 11
296.7252573986
 21
341.8499069523
 31
0.0
  0
LINE
  5
1BD
330
1F
100
AcDbEntity
  8
0
  6
Continuous
 62
     7
370
    25
100
AcDbLine
 10
296.5816429023
 20
342.6499069523
 30
0.0
 11
296.7252573986
 21
342.6499069523
 31
0.0
  0
LINE
  5
1BE
330
1F
100
AcDbEntity
  8
0
  6
Continuous
 62
     7
370
    25
100
AcDbLine
 10
357.7897371233
 20
213.8597686611
 30
0.0
 11
357.7897371233
 21
214.6115227577
 31
0.0
  0
LINE
  5
1BF
330
1F
100
AcDbEntity
  8
0
  6
Continuous
 62
     7
370
    25
100
AcDbLine
 10
356.9403019469
 20
207.9604704196
 30
0.0
 11
357.7897371233
 21
213.8597686611
 31
0.0
  0
LINE
  5
1C0
330
1F
100
AcDbEntity
  8
0
  6
Continuous
 62
     7
370
    25
100
AcDbLine
 10
296.5816429023
 20
213.8597686611
 30
0.0
 11
296.5816429023
 21
214.6115227577
 31
0.0
  0
LINE
  5
1C1
330
1F
100
AcDbEntity
  8
0
  6
Continuous
 62
     7
370
    25
100
AcDbLine
 10
296.5816429023
 20
213.8597686611
 30
0.0
 11
297.4310780788
 21
207.9604704196
 31
0.0
  0
LINE
  5
1C2
330
1F
100
AcDbEntity
  8
0
  6
Continuous
 62
     7
370
    25
100
AcDbLine
 10
340.6856900128
 20
207.3522814408
 30
0.0
 11
313.6856900128
 21
207.3522814408
 31
0.0
  0
LINE
  5
1C3
330
1F
100
AcDbEntity
  8
0
  6
Continuous
 62
     7
370
    25
100
AcDbLine
 10
337.3027007878
 20
212.0170376175
 30
0.0
 11
337.3027007878
 21
212.8683798354
 31
0.0
  0
ELLIPSE
  5
1C4
330
1F
100
AcDbEntity
  8
0
  6
Continuous
 62
     7
370
    25
100
AcDbEllipse
 10
336.6569341426
 20
211.5242663514
 30
0.0
 11
1.5
 21
0.0
 31
0.0
210
0.0
220
0.0
230
1.0
 40
0.3639702343
 41
0.8941564917305923
 42
1.125737367536405
  0
LINE
  5
1C5
330
1F
100
AcDbEntity
  8
0
  6
Continuous
 62
     7
370
    25
100
AcDbLine
 10
317.0686792378
 20
212.0170376175
 30
0.0
 11
317.0686792378
 21
212.8683798354
 31
0.0
  0
ELLIPSE
  5
1C6
330
1F
100
AcDbEntity
  8
0
  6
Continuous
 62
     7
370
    25
100
AcDbEllipse
 10
317.7144458831
 20
211.5242663514
 30
0.0
 11
1.5
 21
0.0
 31
0.0
210
0.0
220
0.0
230
1.0
 40
0.3639702343
 41
2.015855286053423
 42
2.247436161859201
  0
ELLIPSE
  5
1C7
330
1F
100
AcDbEntity
  8
0
  6
Continuous
 62
     7
370
    25
100
AcDbEllipse
 10
327.1856900128
 20
204.2969544488
 30
0.0
 11
23.5
 21
0.0
 31
0.0
210
0.0
220
0.0
230
1.0
 40
0.3639702343
 41
1.125737367536346
 42
2.015855286053447
  0
LINE
  5
1C8
330
1F
100
AcDbEntity
  8
0
  6
Continuous
 62
     7
370
    25
100
AcDbLine
 10
359.4389810831
 20
220.4118110635
 30
0.0
 11
359.4389810831
 21
219.6600569669
 31
0.0
  0
LINE
  5
1C9
330
1F
100
AcDbEntity
  8
0
  6
Continuous
 62
     7
370
    25
100
AcDbLine
 10
358.5894626541
 20
213.7601805397
 30
0.0
 11
358.5894626541
 21
214.5119346363
 31
0.0
  0
LINE
  5
1CA
330
1F
100
AcDbEntity
  8
0
  6
Continuous
 62
     7
370
    25
100
AcDbLine
 10
359.4389810831
 20
219.6600569669
 30
0.0
 11
358.5894626541
 21
213.7601805397
 31
0.0
  0
LINE
  5
1CB
330
1F
100
AcDbEntity
  8
0
  6
Continuous
 62
     7
370
    25
100
AcDbLine
 10
294.9323989426
 20
220.4118110635
 30
0.0
 11
294.9323989426
 21
219.6600569669
 31
0.0
  0
LINE
  5
1CC
330
1F
100
AcDbEntity
  8
0
  6
Continuous
 62
     7
370
    25
100
AcDbLine
 10
295.7819173715
 20
213.7601805397
 30
0.0
 11
295.7819173715
 21
214.5119346363
 31
0.0
  0
LINE
  5
1CD
330
1F
100
AcDbEntity
  8
0
  6
Continuous
 62
     7
370
    25
100
AcDbLine
 10
294.9323989426
 20
219.6600569669
 30
0.0
 11
295.7819173715
 21
213.7601805397
 31
0.0
  0
LINE
  5
1CE
330
1F
100
AcDbEntity
  8
0
  6
Continuous
 62
     7
370
    25
100
AcDbLine
 10
358.5894626541
 20
341.8499069523
 30
0.0
 11
358.5894626541
 21
342.6499069523
 31
0.0
  0
LINE
  5
1CF
330
1F
100
AcDbEntity
  8
0
  6
Continuous
 62
     7
370
    25
100
AcDbLine
 10
357.7897371233
 20
341.8499069523
 30
0.0
 11
358.5894626541
 21
341.8499069523
 31
0.0
  0
LINE
  5
1D0
330
1F
100
AcDbEntity
  8
0
  6
Continuous
 62
     7
370
    25
100
AcDbLine
 10
357.7897371233
 20
342.6499069523
 30
0.0
 11
358.5894626541
 21
342.6499069523
 31
0.0
  0
LINE
  5
1D1
330
1F
100
AcDbEntity
  8
0
  6
Continuous
 62
     7
370
    25
100
AcDbLine
 10
295.090134685
 20
341.8499069523
 30
0.0
 11
295.090134685
 21
342.6499069523
 31
0.0
  0
LINE
  5
1D2
330
1F
100
AcDbEntity
  8
0
  6
Continuous
 62
     7
370
    25
100
AcDbLine
 10
295.7819173715
 20
341.8499069523
 30
0.0
 11
295.7819173715
 21
342.6499069523
 31
0.0
  0
LINE
  5
1D3
330
1F
100
AcDbEntity
  8
0
  6
Continuous
 62
     7
370
    25
100
AcDbLine
 10
295.7819173715
 20
341.8499069523
 30
0.0
 11
295.090134685
 21
341.8499069523
 31
0.0
  0
LINE
  5
1D4
330
1F
100
AcDbEntity
  8
0
  6
Continuous
 62
     7
370
    25
100
AcDbLine
 10
295.7819173715
 20
342.6499069523
 30
0.0
 11
295.090134685
 21
342.6499069523
 31
0.0
  0
LINE
  5
1D5
330
1F
100
AcDbEntity
  8
0
  6
Continuous
 62
     7
370
    25
100
AcDbLine
 10
295.7819173715
 20
341.8499069523
 30
0.0
 11
296.5816429023
 21
341.8499069523
 31
0.0
  0
LINE
  5
1D6
330
1F
100
AcDbEntity
  8
0
  6
Continuous
 62
     7
370
    25
100
AcDbLine
 10
295.7819173715
 20
342.6499069523
 30
0.0
 11
296.5816429023
 21
342.6499069523
 31
0.0
  0
LINE
  5
1D7
330
1F
100
AcDbEntity
  8
0
  6
Continuous
 62
     7
370
    25
100
AcDbLine
 10
359.2812453407
 20
341.8499069523
 30
0.0
 11
359.2812453407
 21
342.6499069523
 31
0.0
  0
LINE
  5
1D8
330
1F
100
AcDbEntity
  8
0
  6
Continuous
 62
     7
370
    25
100
AcDbLine
 10
358.5894626541
 20
341.8499069523
 30
0.0
 11
359.2812453407
 21
341.8499069523
 31
0.0
  0
LINE
  5
1D9
330
1F
100
AcDbEntity
  8
0
  6
Continuous
 62
     7
370
    25
100
AcDbLine
 10
358.5894626541
 20
342.6499069523
 30
0.0
 11
359.2812453407
 21
342.6499069523
 31
0.0
  0
LINE
  5
1DA
330
1F
100
AcDbEntity
  8
0
  6
Continuous
 62
     7
370
    25
100
AcDbLine
 10
295.7819173715
 20
213.8597686611
 30
0.0
 11
296.5816429023
 21
213.8597686611
 31
0.0
  0
LINE
  5
1DB
330
1F
100
AcDbEntity
  8
0
  6
Continuous
 62
     7
370
    25
100
AcDbLine
 10
357.7897371233
 20
213.8597686611
 30
0.0
 11
358.5894626541
 21
213.8597686611
 31
0.0
  0
ELLIPSE
  5
1DC
330
1F
100
AcDbEntity
  8
0
  6
Continuous
 62
     7
370
    25
100
AcDbEllipse
 10
359.2812453407
 20
333.8499069523
 30
0.0
 11
0.0
 21
8.799999999999955
 31
0.0
210
0.0
220
0.0
230
1.0
 40
0.0524077793
 41
4.712388980384691
 42
6.283185307179586
  0
ELLIPSE
  5
1DD
330
1F
100
AcDbEntity
  8
0
  6
Continuous
 62
     7
370
    25
100
AcDbEllipse
 10
295.090134685
 20
333.8499069523
 30
0.0
 11
0.0
 21
8.799999999999955
 31
0.0
210
0.0
220
0.0
230
1.0
 40
0.0524077793
 41
0.0
 42
1.570796326794897
  0
ELLIPSE
  5
1DE
330
1F
100
AcDbEntity
  8
0
  6
Continuous
 62
     7
370
    25
100
AcDbEllipse
 10
359.2812453407
 20
333.8499069523
 30
0.0
 11
0.0
 21
8.0
 31
0.0
210
0.0
220
0.0
230
1.0
 40
0.0576485572
 41
4.712388980384691
 42
6.283185307179586
  0
ELLIPSE
  5
1DF
330
1F
100
AcDbEntity
  8
0
  6
Continuous
 62
     7
370
    25
100
AcDbEllipse
 10
295.090134685
 20
333.8499069523
 30
0.0
 11
0.0
 21
8.0
 31
0.0
210
0.0
220
0.0
230
1.0
 40
0.0576485572
 41
0.0
 42
1.570796326794897
  0
LINE
  5
1E0
330
1F
100
AcDbEntity
  8
0
  6
Continuous
 62
     7
370
    25
100
AcDbLine
 10
294.6289462273
 20
333.8499069523
 30
0.0
 11
359.7424337984
 21
333.8499069523
 31
0.0
  0
ELLIPSE
  5
1E1
330
1F
100
AcDbEntity
  8
0
  6
Continuous
 62
     7
370
    25
100
AcDbEllipse
 10
359.2812453407
 20
227.9293520298
 30
0.0
 11
0.0
 21
8.799999999999983
 31
0.0
210
0.0
220
0.0
230
1.0
 40
0.0524077793
 41
3.490658503988923
 42
4.712388980384691
  0
ELLIPSE
  5
1E2
330
1F
100
AcDbEntity
  8
0
  6
Continuous
 62
     7
370
    25
100
AcDbEllipse
 10
359.2812453407
 20
227.9293520298
 30
0.0
 11
0.0
 21
8.0
 31
0.0
210
0.0
220
0.0
230
1.0
 40
0.0576485572
 41
3.490658503988906
 42
4.712388980384691
  0
LINE
  5
1E3
330
1F
100
AcDbEntity
  8
0
  6
Continuous
 62
     7
370
    25
100
AcDbLine
 10
359.7424337984
 20
227.9293520298
 30
0.0
 11
294.6289462273
 21
227.9293520298
 31
0.0
  0
ELLIPSE
  5
1E4
330
1F
100
AcDbEntity
  8
0
  6
Continuous
 62
     7
370
    25
100
AcDbEllipse
 10
295.090134685
 20
227.9293520298
 30
0.0
 11
0.0
 21
8.0
 31
0.0
210
0.0
220
0.0
230
1.0
 40
0.0576485572
 41
1.570796326794897
 42
2.792526803190894
  0
ELLIPSE
  5
1E5
330
1F
100
AcDbEntity
  8
0
  6
Continuous
 62
     7
370
    25
100
AcDbEllipse
 10
295.090134685
 20
227.9293520298
 30
0.0
 11
0.0
 21
8.799999999999983
 31
0.0
210
0.0
220
0.0
230
1.0
 40
0.0524077793
 41
1.570796326794897
 42
2.792526803190898
  0
CIRCLE
  5
1E6
330
1F
100
AcDbEntity
  8
0
  6
Continuous
 62
     7
370
    25
100
AcDbCircle
 10
352.7424337984
 20
315.7675256936
 30
0.0
 40
1.5
  0
CIRCLE
  5
1E7
330
1F
100
AcDbEntity
  8
0
  6
Continuous
 62
     7
370
    25
100
AcDbCircle
 10
352.7424337984
 20
315.7675256936
 30
0.0
 40
2.153589838486198
  0
CIRCLE
  5
1E8
330
1F
100
AcDbEntity
  8
0
  6
Continuous
 62
     7
370
    25
100
AcDbCircle
 10
301.6289462273
 20
315.7675256936
 30
0.0
 40
1.5
  0
CIRCLE
  5
1E9
330
1F
100
AcDbEntity
  8
0
  6
Continuous
 62
     7
370
    25
100
AcDbCircle
 10
301.6289462273
 20
315.7675256936
 30
0.0
 40
2.153589838486198
  0
CIRCLE
  5
1EA
330
1F
100
AcDbEntity
  8
0
  6
Continuous
 62
     7
370
    25
100
AcDbCircle
 10
301.6289462273
 20
315.7675256936
 30
0.0
 40
3.36602540378442
  0
CIRCLE
  5
1EB
330
1F
100
AcDbEntity
  8
0
  6
Continuous
 62
     7
370
    25
100
AcDbCircle
 10
352.7424337984
 20
315.7675256936
 30
0.0
 40
3.36602540378442
  0
CIRCLE
  5
1EC
330
1F
100
AcDbEntity
  8
0
  6
Continuous
 62
     7
370
    25
100
AcDbCircle
 10
352.7424337984
 20
239.7675256936
 30
0.0
 40
2.153589838486226
  0
CIRCLE
  5
1ED
330
1F
100
AcDbEntity
  8
0
  6
Continuous
 62
     7
370
    25
100
AcDbCircle
 10
352.7424337984
 20
239.7675256936
 30
0.0
 40
3.36602540378442
  0
CIRCLE
  5
1EE
330
1F
100
AcDbEntity
  8
0
  6
Continuous
 62
     7
370
    25
100
AcDbCircle
 10
301.6289462273
 20
239.7675256936
 30
0.0
 40
2.153589838486226
  0
CIRCLE
  5
1EF
330
1F
100
AcDbEntity
  8
0
  6
Continuous
 62
     7
370
    25
100
AcDbCircle
 10
301.6289462273
 20
239.7675256936
 30
0.0
 40
3.366025403784448
  0
CIRCLE
  5
1F0
330
1F
100
AcDbEntity
  8
0
  6
Continuous
 62
     7
370
    25
100
AcDbCircle
 10
301.6289462273
 20
239.7675256936
 30
0.0
 40
1.5
  0
CIRCLE
  5
1F1
330
1F
100
AcDbEntity
  8
0
  6
Continuous
 62
     7
370
    25
100
AcDbCircle
 10
352.7424337984
 20
239.7675256936
 30
0.0
 40
1.5
  0
CIRCLE
  5
1F2
330
1F
100
AcDbEntity
  8
0
  6
Continuous
 62
     7
370
    25
100
AcDbCircle
 10
301.6289462273
 20
315.7675256936
 30
0.0
 40
3.539230484573068
  0
CIRCLE
  5
1F3
330
1F
100
AcDbEntity
  8
0
  6
Continuous
 62
     7
370
    25
100
AcDbCircle
 10
352.7424337984
 20
315.7675256936
 30
0.0
 40
3.539230484573068
  0
CIRCLE
  5
1F4
330
1F
100
AcDbEntity
  8
0
  6
Continuous
 62
     7
370
    25
100
AcDbCircle
 10
352.7424337984
 20
239.7675256936
 30
0.0
 40
3.539230484573096
  0
CIRCLE
  5
1F5
330
1F
100
AcDbEntity
  8
0
  6
Continuous
 62
     7
370
    25
100
AcDbCircle
 10
301.6289462273
 20
239.7675256936
 30
0.0
 40
3.539230484573096
  0
ARC
  5
1F6
330
1F
100
AcDbEntity
  8
0
  6
Continuous
 62
     7
370
    25
100
AcDbCircle
 10
294.6289462273
 20
321.7675256936
 30
0.0
 40
1.0
100
AcDbArc
 50
0.0
 51
90.0
  0
ARC
  5
1F7
330
1F
100
AcDbEntity
  8
0
  6
Continuous
 62
     7
370
    25
100
AcDbCircle
 10
359.7424337984
 20
321.7675256936
 30
0.0
 40
1.0
100
AcDbArc
 50
90.0
 51
180.0
  0
LINE
  5
1F8
330
1F
100
AcDbEntity
  8
0
  6
Continuous
 62
     7
370
    25
100
AcDbLine
 10
358.7424337984
 20
321.7675256936
 30
0.0
 11
295.6289462273
 21
321.7675256936
 31
0.0
  0
LINE
  5
1F9
330
1F
100
AcDbEntity
  8
0
  6
Continuous
 62
     7
370
    25
100
AcDbLine
 10
294.6289462273
 20
333.8499069523
 30
0.0
 11
294.6289462273
 21
322.7675256936
 31
0.0
  0
LINE
  5
1FA
330
1F
100
AcDbEntity
  8
0
  6
Continuous
 62
     7
370
    25
100
AcDbLine
 10
359.7424337984
 20
333.8499069523
 30
0.0
 11
359.7424337984
 21
322.7675256936
 31
0.0
  0
LINE
  5
1FB
330
1F
100
AcDbEntity
  8
0
  6
Continuous
 62
     7
370
    25
100
AcDbLine
 10
358.7424337984
 20
233.7675256936
 30
0.0
 11
358.7424337984
 21
321.7675256936
 31
0.0
  0
LINE
  5
1FC
330
1F
100
AcDbEntity
  8
0
  6
Continuous
 62
     7
370
    25
100
AcDbLine
 10
358.7424337984
 20
233.7675256936
 30
0.0
 11
295.6289462273
 21
233.7675256936
 31
0.0
  0
CIRCLE
  5
1FD
330
1F
100
AcDbEntity
  8
0
  6
Continuous
 62
     7
370
    25
100
AcDbCircle
 10
342.7424337984
 20
259.9293520298
 30
0.0
 40
2.393398258127831
  0
CIRCLE
  5
1FE
330
1F
100
AcDbEntity
  8
0
  6
Continuous
 62
     7
370
    25
100
AcDbCircle
 10
327.1856900128
 20
236.5309714794
 30
0.0
 40
1.399999999998897
  0
LINE
  5
1FF
330
1F
100
AcDbEntity
  8
0
  6
Continuous
 62
     7
370
    25
100
AcDbLine
 10
295.6289462273
 20
321.7675256936
 30
0.0
 11
295.6289462273
 21
233.7675256936
 31
0.0
  0
LINE
  5
200
330
1F
100
AcDbEntity
  8
0
  6
Continuous
 62
     7
370
    25
100
AcDbLine
 10
294.6289462273
 20
232.7675256936
 30
0.0
 11
294.6289462273
 21
227.9293520298
 31
0.0
  0
ARC
  5
201
330
1F
100
AcDbEntity
  8
0
  6
Continuous
 62
     7
370
    25
100
AcDbCircle
 10
359.7424337984
 20
233.7675256936
 30
0.0
 40
1.0
100
AcDbArc
 50
180.0
 51
270.0
  0
LINE
  5
202
330
1F
100
AcDbEntity
  8
0
  6
Continuous
 62
     7
370
    25
100
AcDbLine
 10
359.7424337984
 20
232.7675256936
 30
0.0
 11
359.7424337984
 21
227.9293520298
 31
0.0
  0
ARC
  5
203
330
1F
100
AcDbEntity
  8
0
  6
Continuous
 62
     7
370
    25
100
AcDbCircle
 10
294.6289462273
 20
233.7675256936
 30
0.0
 40
1.0
100
AcDbArc
 50
270.0
 51
0.0
  0
LINE
  5
204
330
1F
100
AcDbEntity
  8
0
  6
Continuous
 62
     7
370
    25
100
AcDbLine
 10
528.1744637179
 20
177.6099587391
 30
0.0
 11
527.3744637179
 21
177.6099587391
 31
0.0
  0
LINE
  5
205
330
1F
100
AcDbEntity
  8
0
  6
Continuous
 62
     7
370
    25
100
AcDbLine
 10
379.6541582831
 20
177.8835748538
 30
0.0
 11
378.9024041864
 21
177.6099587391
 31
0.0
  0
LINE
  5
206
330
1F
100
AcDbEntity
  8
0
  6
Continuous
 62
     7
370
    25
100
AcDbLine
 10
504.8313129438
 20
100.4099587391
 30
0.0
 11
504.658107863
 21
100.7099587392
 31
0.0
  0
LINE
  5
207
330
1F
100
AcDbEntity
  8
0
  6
Continuous
 62
     7
370
    25
100
AcDbLine
 10
497.9260570554
 20
100.7099587392
 30
0.0
 11
497.7528519746
 21
100.4099587391
 31
0.0
  0
LINE
  5
208
330
1F
100
AcDbEntity
  8
0
  6
Continuous
 62
     7
370
    25
100
AcDbLine
 10
428.8313129438
 20
100.4099587391
 30
0.0
 11
428.658107863
 21
100.7099587392
 31
0.0
  0
LINE
  5
209
330
1F
100
AcDbEntity
  8
0
  6
Continuous
 62
     7
370
    25
100
AcDbLine
 10
421.9260570554
 20
100.7099587392
 30
0.0
 11
421.7528519746
 21
100.4099587391
 31
0.0
  0
ARC
  5
20A
330
1F
100
AcDbEntity
  8
0
  6
Continuous
 62
     7
370
    25
100
AcDbCircle
 10
499.1384926207
 20
100.0099587392
 30
0.0
 40
1.399999999999991
100
AcDbArc
 50
90.0
 51
150.0
  0
ARC
  5
20B
330
1F
100
AcDbEntity
  8
0
  6
Continuous
 62
     7
370
    25
100
AcDbCircle
 10
503.4456722977
 20
100.0099587392
 30
0.0
 40
1.400000000000057
100
AcDbArc
 50
30.0
 51
90.0
  0
ARC
  5
20C
330
1F
100
AcDbEntity
  8
0
  6
Continuous
 62
     7
370
    25
100
AcDbCircle
 10
423.1384926207
 20
100.0099587392
 30
0.0
 40
1.399999999999991
100
AcDbArc
 50
90.0
 51
150.0
  0
ARC
  5
20D
330
1F
100
AcDbEntity
  8
0
  6
Continuous
 62
     7
370
    25
100
AcDbCircle
 10
427.4456722977
 20
100.0099587392
 30
0.0
 40
1.399999999999991
100
AcDbArc
 50
30.0
 51
90.0
  0
LINE
  5
20E
330
1F
100
AcDbEntity
  8
0
  6
Continuous
 62
     7
370
    25
100
AcDbLine
 10
527.3744637179
 20
108.4099587391
 30
0.0
 11
528.1744637179
 21
108.4099587391
 31
0.0
  0
ARC
  5
20F
330
1F
100
AcDbEntity
  8
0
  6
Continuous
 62
     7
370
    25
100
AcDbCircle
 10
519.3744637179
 20
108.4099587391
 30
0.0
 40
8.800000000000068
100
AcDbArc
 50
270.0
 51
0.0
  0
LINE
  5
210
330
1F
100
AcDbEntity
  8
0
  6
Continuous
 62
     7
370
    25
100
AcDbLine
 10
519.3744637179
 20
100.4099587391
 30
0.0
 11
519.3744637179
 21
99.6099587391
 31
0.0
  0
ARC
  5
211
330
1F
100
AcDbEntity
  8
0
  6
Continuous
 62
     7
370
    25
100
AcDbCircle
 10
519.3744637179
 20
108.4099587391
 30
0.0
 40
8.000000000000014
100
AcDbArc
 50
270.0
 51
0.0
  0
LINE
  5
212
330
1F
100
AcDbEntity
  8
0
  6
Continuous
 62
     7
370
    25
100
AcDbLine
 10
519.3744637179
 20
100.4099587391
 30
0.0
 11
508.2920824592
 21
100.4099587391
 31
0.0
  0
LINE
  5
213
330
1F
100
AcDbEntity
  8
0
  6
Continuous
 62
     7
370
    25
100
AcDbLine
 10
519.3744637179
 20
99.6099587391
 30
0.0
 11
508.2920824592
 21
99.6099587391
 31
0.0
  0
LINE
  5
214
330
1F
100
AcDbEntity
  8
0
  6
Continuous
 62
     7
370
    25
100
AcDbLine
 10
508.2920824592
 20
99.6099587391
 30
0.0
 11
508.2920824592
 21
100.4099587391
 31
0.0
  0
LINE
  5
215
330
1F
100
AcDbEntity
  8
0
  6
Continuous
 62
     7
370
    25
100
AcDbLine
 10
507.2920824592
 20
99.6099587391
 30
0.0
 11
507.2920824592
 21
100.4099587391
 31
0.0
  0
LINE
  5
216
330
1F
100
AcDbEntity
  8
0
  6
Continuous
 62
     7
370
    25
100
AcDbLine
 10
508.2920824592
 20
99.6099587391
 30
0.0
 11
507.2920824592
 21
99.6099587391
 31
0.0
  0
LINE
  5
217
330
1F
100
AcDbEntity
  8
0
  6
Continuous
 62
     7
370
    25
100
AcDbLine
 10
507.2920824592
 20
100.4099587391
 30
0.0
 11
508.2920824592
 21
100.4099587391
 31
0.0
  0
LINE
  5
218
330
1F
100
AcDbEntity
  8
0
  6
Continuous
 62
     7
370
    25
100
AcDbLine
 10
413.4539087954
 20
100.4099587391
 30
0.0
 11
413.4539087954
 21
99.6099587391
 31
0.0
  0
LINE
  5
219
330
1F
100
AcDbEntity
  8
0
  6
Continuous
 62
     7
370
    25
100
AcDbLine
 10
418.2920824592
 20
100.4099587391
 30
0.0
 11
413.4539087954
 21
100.4099587391
 31
0.0
  0
LINE
  5
21A
330
1F
100
AcDbEntity
  8
0
  6
Continuous
 62
     7
370
    25
100
AcDbLine
 10
418.2920824592
 20
100.4099587391
 30
0.0
 11
418.2920824592
 21
99.6099587391
 31
0.0
  0
LINE
  5
21B
330
1F
100
AcDbEntity
  8
0
  6
Continuous
 62
     7
370
    25
100
AcDbLine
 10
418.2920824592
 20
99.6099587391
 30
0.0
 11
413.4539087954
 21
99.6099587391
 31
0.0
  0
LINE
  5
21C
330
1F
100
AcDbEntity
  8
0
  6
Continuous
 62
     7
370
    25
100
AcDbLine
 10
419.2920824592
 20
99.6099587391
 30
0.0
 11
419.2920824592
 21
100.4099587391
 31
0.0
  0
LINE
  5
21D
330
1F
100
AcDbEntity
  8
0
  6
Continuous
 62
     7
370
    25
100
AcDbLine
 10
418.2920824592
 20
100.4099587391
 30
0.0
 11
419.2920824592
 21
100.4099587391
 31
0.0
  0
LINE
  5
21E
330
1F
100
AcDbEntity
  8
0
  6
Continuous
 62
     7
370
    25
100
AcDbLine
 10
419.2920824592
 20
99.6099587391
 30
0.0
 11
418.2920824592
 21
99.6099587391
 31
0.0
  0
ARC
  5
21F
330
1F
100
AcDbEntity
  8
0
  6
Continuous
 62
     7
370
    25
100
AcDbCircle
 10
413.4539087954
 20
108.4099587391
 30
0.0
 40
8.800000000000006
100
AcDbArc
 50
200.0
 51
270.0
  0
LINE
  5
220
330
1F
100
AcDbEntity
  8
0
  6
Continuous
 62
     7
370
    25
100
AcDbLine
 10
405.9363678292
 20
105.6737975925
 30
0.0
 11
405.1846137325
 21
105.4001814779
 31
0.0
  0
ARC
  5
221
330
1F
100
AcDbEntity
  8
0
  6
Continuous
 62
     7
370
    25
100
AcDbCircle
 10
413.4539087954
 20
108.4099587391
 30
0.0
 40
8.000000000000014
100
AcDbArc
 50
200.0
 51
270.0
  0
LINE
  5
222
330
1F
100
AcDbEntity
  8
0
  6
Continuous
 62
     7
370
    25
100
AcDbLine
 10
399.2847373053
 20
121.6099587391
 30
0.0
 11
400.036491402
 21
121.8835748538
 31
0.0
  0
LINE
  5
223
330
1F
100
AcDbEntity
  8
0
  6
Continuous
 62
     7
370
    25
100
AcDbLine
 10
405.9363678292
 20
105.6737975925
 30
0.0
 11
400.036491402
 21
121.8835748538
 31
0.0
  0
LINE
  5
224
330
1F
100
AcDbEntity
  8
0
  6
Continuous
 62
     7
370
    25
100
AcDbLine
 10
405.1846137325
 20
105.4001814779
 30
0.0
 11
399.2847373053
 21
121.6099587391
 31
0.0
  0
LINE
  5
225
330
1F
100
AcDbEntity
  8
0
  6
Continuous
 62
     7
370
    25
100
AcDbLine
 10
527.3744637179
 20
121.6099587391
 30
0.0
 11
527.3744637179
 21
108.4099587391
 31
0.0
  0
LINE
  5
226
330
1F
100
AcDbEntity
  8
0
  6
Continuous
 62
     7
370
    25
100
AcDbLine
 10
527.3744637179
 20
121.6099587391
 30
0.0
 11
528.1744637179
 21
121.6099587391
 31
0.0
  0
LINE
  5
227
330
1F
100
AcDbEntity
  8
0
  6
Continuous
 62
     7
370
    25
100
AcDbLine
 10
528.1744637179
 20
121.6099587391
 30
0.0
 11
528.1744637179
 21
108.4099587391
 31
0.0
  0
LINE
  5
228
330
1F
100
AcDbEntity
  8
0
  6
Continuous
 62
     7
370
    25
100
AcDbLine
 10
419.2920824592
 20
100.4099587391
 30
0.0
 11
507.2920824592
 21
100.4099587391
 31
0.0
  0
LINE
  5
229
330
1F
100
AcDbEntity
  8
0
  6
Continuous
 62
     7
370
    25
100
AcDbLine
 10
507.2920824592
 20
99.6099587391
 30
0.0
 11
419.2920824592
 21
99.6099587391
 31
0.0
  0
LINE
  5
22A
330
1F
100
AcDbEntity
  8
0
  6
Continuous
 62
     7
370
    25
100
AcDbLine
 10
527.3744637179
 20
139.6099587391
 30
0.0
 11
527.3744637179
 21
121.6099587391
 31
0.0
  0
LINE
  5
22B
330
1F
100
AcDbEntity
  8
0
  6
Continuous
 62
     7
370
    25
100
AcDbLine
 10
528.1744637179
 20
139.6099587391
 30
0.0
 11
528.1744637179
 21
121.6099587391
 31
0.0
  0
LINE
  5
22C
330
1F
100
AcDbEntity
  8
0
  6
Continuous
 62
     7
370
    25
100
AcDbLine
 10
392.8328612099
 20
139.3363426245
 30
0.0
 11
393.5846153065
 21
139.6099587391
 31
0.0
  0
LINE
  5
22D
330
1F
100
AcDbEntity
  8
0
  6
Continuous
 62
     7
370
    25
100
AcDbLine
 10
393.5846153065
 20
139.6099587391
 30
0.0
 11
400.036491402
 21
121.8835748538
 31
0.0
  0
LINE
  5
22E
330
1F
100
AcDbEntity
  8
0
  6
Continuous
 62
     7
370
    25
100
AcDbLine
 10
392.8328612099
 20
139.3363426245
 30
0.0
 11
399.2847373053
 21
121.6099587391
 31
0.0
  0
LINE
  5
22F
330
1F
100
AcDbEntity
  8
0
  6
Continuous
 62
     7
370
    25
100
AcDbLine
 10
527.3744637179
 20
149.1800374264
 30
0.0
 11
528.1744637179
 21
149.1800374264
 31
0.0
  0
LINE
  5
230
330
1F
100
AcDbEntity
  8
0
  6
Continuous
 62
     7
370
    25
100
AcDbLine
 10
527.3744637179
 20
139.6099587391
 30
0.0
 11
528.1744637179
 21
139.6099587391
 31
0.0
  0
LINE
  5
231
330
1F
100
AcDbEntity
  8
0
  6
Continuous
 62
     7
370
    25
100
AcDbLine
 10
527.3744637179
 20
149.1800374264
 30
0.0
 11
527.3744637179
 21
139.6099587391
 31
0.0
  0
LINE
  5
232
330
1F
100
AcDbEntity
  8
0
  6
Continuous
 62
     7
370
    25
100
AcDbLine
 10
528.1744637179
 20
149.1800374264
 30
0.0
 11
528.1744637179
 21
139.6099587391
 31
0.0
  0
LINE
  5
233
330
1F
100
AcDbEntity
  8
0
  6
Continuous
 62
     7
370
    25
100
AcDbLine
 10
390.0018034034
 20
149.4536535411
 30
0.0
 11
389.2500493068
 21
149.1800374264
 31
0.0
  0
LINE
  5
234
330
1F
100
AcDbEntity
  8
0
  6
Continuous
 62
     7
370
    25
100
AcDbLine
 10
392.7332730886
 20
139.6099587391
 30
0.0
 11
393.4850271852
 21
139.8835748538
 31
0.0
  0
LINE
  5
235
330
1F
100
AcDbEntity
  8
0
  6
Continuous
 62
     7
370
    25
100
AcDbLine
 10
393.4850271852
 20
139.8835748538
 30
0.0
 11
390.0018034034
 21
149.4536535411
 31
0.0
  0
LINE
  5
236
330
1F
100
AcDbEntity
  8
0
  6
Continuous
 62
     7
370
    25
100
AcDbLine
 10
392.7332730886
 20
139.6099587391
 30
0.0
 11
389.2500493068
 21
149.1800374264
 31
0.0
  0
LINE
  5
237
330
1F
100
AcDbEntity
  8
0
  6
Continuous
 62
     7
370
    25
100
AcDbLine
 10
527.3744637179
 20
149.1800374264
 30
0.0
 11
527.3744637179
 21
177.6099587391
 31
0.0
  0
LINE
  5
238
330
1F
100
AcDbEntity
  8
0
  6
Continuous
 62
     7
370
    25
100
AcDbLine
 10
528.1744637179
 20
149.1800374264
 30
0.0
 11
528.1744637179
 21
177.6099587391
 31
0.0
  0
LINE
  5
239
330
1F
100
AcDbEntity
  8
0
  6
Continuous
 62
     7
370
    25
100
AcDbLine
 10
390.0018034034
 20
149.4536535411
 30
0.0
 11
379.6541582831
 21
177.8835748538
 31
0.0
  0
LINE
  5
23A
330
1F
100
AcDbEntity
  8
0
  6
Continuous
 62
     7
370
    25
100
AcDbLine
 10
389.2500493068
 20
149.1800374264
 30
0.0
 11
378.9024041864
 21
177.6099587391
 31
0.0
  0
LINE
  5
23B
330
1F
100
AcDbEntity
  8
0
  6
Continuous
 62
     7
370
    25
100
AcDbLine
 10
393.4850271852
 20
139.8835748538
 30
0.0
 11
393.5846153065
 21
139.6099587391
 31
0.0
  0
LINE
  5
23C
330
1F
100
AcDbEntity
  8
0
  6
Continuous
 62
     7
370
    25
100
AcDbLine
 10
392.7332730886
 20
139.6099587391
 30
0.0
 11
392.8328612099
 21
139.3363426245
 31
0.0
  0
LINE
  5
23D
330
1F
100
AcDbEntity
  8
0
  6
Continuous
 62
     7
370
    25
100
AcDbLine
 10
504.658107863
 20
100.7099587392
 30
0.0
 11
497.9260570554
 21
100.7099587392
 31
0.0
  0
LINE
  5
23E
330
1F
100
AcDbEntity
  8
0
  6
Continuous
 62
     7
370
    25
100
AcDbLine
 10
421.9260570554
 20
100.7099587392
 30
0.0
 11
428.658107863
 21
100.7099587392
 31
0.0
  0
LINE
  5
23F
330
1F
100
AcDbEntity
  8
0
  6
Continuous
 62
     7
370
    25
100
AcDbLine
 10
499.1384926207
 20
101.4099587392
 30
0.0
 11
503.4456722977
 21
101.4099587392
 31
0.0
  0
LINE
  5
240
330
1F
100
AcDbEntity
  8
0
  6
Continuous
 62
     7
370
    25
100
AcDbLine
 10
427.4456720383
 20
101.4099587392
 30
0.0
 11
423.1384926207
 21
101.4099587392
 31
0.0
  0
LWPOLYLINE
  5
241
330
1F
100
AcDbEntity
  8
0
  6
CENTERX2
 62
     7
100
AcDbPolyline
 90
       17
 70
   128
 43
0.0
 10
507.9140923257
 20
253.5475536662
 10
507.3910161913
 20
253.4566723888
 10
506.8475117511
 20
253.4882662018
 10
506.3663226294
 20
253.6375252339
 10
506.0207055078
 20
253.8817261502
 10
505.86327746
 20
254.1836915751
 10
505.9180054794
 20
254.4974500098
 10
506.176557721
 20
254.775234577
 10
506.5995719499
 20
254.9747550944
 10
507.1226480842
 20
255.0656363719
 10
507.6661525244
 20
255.0340425588
 10
508.1473416461
 20
254.8847835268
 10
508.4929587678
 20
254.6405826104
 10
508.6503868155
 20
254.3386171856
 10
508.5956587961
 20
254.0248587508
 10
508.3371065545
 20
253.7470741836
 10
507.9140923257
 20
253.5475536662
  0
LWPOLYLINE
  5
242
330
1F
100
AcDbEntity
  8
0
  6
CENTERX2
 62
     7
100
AcDbPolyline
 90
       17
 70
   128
 43
0.0
 10
454.1739769555
 20
222.524045417
 10
453.6509008211
 20
222.4331641395
 10
453.107396381
 20
222.4647579526
 10
452.6262072592
 20
222.6140169846
 10
452.2805901376
 20
222.8582179009
 10
452.1231620899
 20
223.1601833258
 10
452.1778901092
 20
223.4739417606
 10
452.4364423508
 20
223.7517263277
 10
452.8594565797
 20
223.9512468451
 10
453.382532714
 20
224.0421281226
 10
453.9260371542
 20
224.0105343095
 10
454.407226276
 20
223.8612752775
 10
454.7528433976
 20
223.6170743612
 10
454.9102714453
 20
223.3151089363
 10
454.8555434259
 20
223.0013505016
 10
454.5969911843
 20
222.7235659344
 10
454.1739769555
 20
222.524045417
  0
LWPOLYLINE
  5
243
330
1F
100
AcDbEntity
  8
0
  6
CENTERX2
 62
     7
100
AcDbPolyline
 90
       17
 70
   128
 43
0.0
 10
471.6848783937
 20
274.4622336877
 10
471.1618022593
 20
274.3713524102
 10
470.6182978192
 20
274.4029462233
 10
470.1371086974
 20
274.5522052553
 10
469.7914915758
 20
274.7964061717
 10
469.6340635281
 20
275.0983715965
 10
469.6887915474
 20
275.4121300313
 10
469.947343789
 20
275.6899145985
 10
470.3703580179
 20
275.8894351159
 10
470.8934341522
 20
275.9803163933
 10
471.4369385924
 20
275.9487225802
 10
471.9181277142
 20
275.7994635482
 10
472.2637448358
 20
275.5552626319
 10
472.4211728835
 20
275.253297207
 10
472.3664448641
 20
274.9395387723
 10
472.1078926225
 20
274.6617542051
 10
471.6848783937
 20
274.4622336877
  0
LWPOLYLINE
  5
244
330
1F
100
AcDbEntity
  8
0
  6
CENTERX2
 62
     7
100
AcDbPolyline
 90
       17
 70
   128
 43
0.0
 10
417.9447630235
 20
243.4387254384
 10
417.4216868891
 20
243.3478441609
 10
416.878182449
 20
243.379437974
 10
416.3969933272
 20
243.528697006
 10
416.0513762056
 20
243.7728979224
 10
415.8939481579
 20
244.0748633472
 10
415.9486761773
 20
244.388621782
 10
416.2072284189
 20
244.6664063492
 10
416.6302426477
 20
244.8659268666
 10
417.1533187821
 20
244.9568081441
 10
417.6968232222
 20
244.925214331
 10
418.178012344
 20
244.775955299
 10
418.5236294656
 20
244.5317543826
 10
418.6810575133
 20
244.2297889578
 10
418.6263294939
 20
243.916030523
 10
418.3677772523
 20
243.6382459558
 10
417.9447630235
 20
243.4387254384
  0
LINE
  5
245
330
1F
100
AcDbEntity
  8
0
  6
Continuous
 62
     7
370
    25
100
AcDbLine
 10
389.5995839384
 20
281.1631541158
 30
0.0
 11
389.0680135188
 21
280.6328663201
 31
0.0
  0
LINE
  5
246
330
1F
100
AcDbEntity
  8
0
  6
Continuous
 62
     7
370
    25
100
AcDbLine
 10
399.7060167181
 20
241.661590687
 30
0.0
 11
445.5572122889
 21
215.1922588996
 31
0.0
  0
SPLINE
  5
247
330
1F
100
AcDbEntity
  8
0
  6
Continuous
 62
     7
370
    25
100
AcDbSpline
210
0.0
220
0.0
230
1.0
 70
     8
 71
     3
 72
    19
 73
    15
 74
     0
 42
0.000000001
 43
0.00000001
 40
0.0
 40
0.0
 40
0.0
 40
0.0
 40
0.0560384550353711
 40
0.1351286879640676
 40
0.2188319538276489
 40
0.3062232062447047
 40
0.3948640527007164
 40
0.4834114601248945
 40
0.5720928019174153
 40
0.6616174019160513
 40
0.7527811424083063
 40
0.8464990511145509
 40
0.9298253320405631
 40
1.0
 40
1.0
 40
1.0
 40
1.0
 10
456.5050169833765
 20
224.9923096561648
 30
0.0
 10
456.4286801052529
 20
225.084112244535
 30
0.0
 10
456.2446046845866
 20
225.3054810047969
 30
0.0
 10
455.8661023992722
 20
225.5907533570939
 30
0.0
 10
455.3852302432888
 20
225.8567625822051
 30
0.0
 10
454.8320754873115
 20
226.0584826978471
 30
0.0
 10
454.2297539462458
 20
226.1894161686283
 30
0.0
 10
453.601091255858
 20
226.2438357108493
 30
0.0
 10
452.9663355264742
 20
226.2205877028221
 30
0.0
 10
452.3414544161055
 20
226.1181486958296
 30
0.0
 10
451.7398649962679
 20
225.9339655332896
 30
0.0
 10
451.2060658956028
 20
225.6718531611403
 30
0.0
 10
450.7657501614264
 20
225.3640177042594
 30
0.0
 10
450.5485114006747
 20
225.1191282143083
 30
0.0
 10
450.4491982823237
 20
225.0071742572229
 30
0.0
  0
LINE
  5
248
330
1F
100
AcDbEntity
  8
0
  6
Continuous
 62
     7
370
    25
100
AcDbLine
 10
456.7044222608
 20
224.7498310036
 30
0.0
 11
456.5463032391
 21
224.9539794756
 31
0.0
  0
LINE
  5
249
330
1F
100
AcDbEntity
  8
0
  6
Continuous
 62
     7
370
    25
100
AcDbLine
 10
450.4006100357
 20
224.9539794756
 30
0.0
 11
450.242491014
 21
224.7498310036
 31
0.0
  0
LINE
  5
24A
330
1F
100
AcDbEntity
  8
0
  6
Continuous
 62
     7
370
    25
100
AcDbLine
 10
493.1521582647
 20
340.8674162953
 30
0.0
 11
492.5864728397
 21
340.5408530506
 31
0.0
  0
LINE
  5
24B
330
1F
100
AcDbEntity
  8
0
  6
Continuous
 62
     7
370
    25
100
AcDbLine
 10
414.1105165385
 20
245.6284035639
 30
0.0
 11
414.0997973424
 21
245.6145639419
 31
0.0
  0
SPLINE
  5
24C
330
1F
100
AcDbEntity
  8
0
  6
Continuous
 62
     7
370
    25
100
AcDbSpline
210
0.0
220
0.0
230
1.0
 70
     8
 71
     3
 72
    10
 73
     6
 74
     0
 42
0.000000001
 43
0.00000001
 40
0.0
 40
0.0
 40
0.0
 40
0.0
 40
0.3593513623192692
 40
0.8173875602825901
 40
1.0
 40
1.0
 40
1.0
 40
1.0
 10
510.2735827181246
 20
255.9833130387353
 30
0.0
 10
510.1894466186866
 20
256.0851521337218
 30
0.0
 10
509.9980690193157
 20
256.3167973092267
 30
0.0
 10
509.7012928299183
 20
256.5441127254975
 30
0.0
 10
509.4951053940543
 20
256.6687809502411
 30
0.0
 10
509.4363330990901
 20
256.7043167608814
 30
0.0
  0
SPLINE
  5
24D
330
1F
100
AcDbEntity
  8
0
  6
Continuous
 62
     7
370
    25
100
AcDbSpline
210
0.0
220
0.0
230
1.0
 70
     8
 71
     3
 72
    17
 73
    13
 74
     0
 42
0.000000001
 43
0.00000001
 40
0.0
 40
0.0
 40
0.0
 40
0.0
 40
0.0637558029026071
 40
0.1699438425741144
 40
0.276452125286923
 40
0.3828574744582685
 40
0.4894313671390372
 40
0.5970267267753965
 40
0.7066049303585539
 40
0.8192607450595097
 40
0.9193373498715186
 40
1.0
 40
1.0
 40
1.0
 40
1.0
 10
509.4363330990901
 20
256.7043167608814
 30
0.0
 10
509.333612105036
 20
256.7595524733651
 30
0.0
 10
509.059804864788
 20
256.9067856474362
 30
0.0
 10
508.5676932307939
 20
257.0827178129122
 30
0.0
 10
507.9634342662037
 20
257.2140606642095
 30
0.0
 10
507.334479747202
 20
257.2674629422104
 30
0.0
 10
506.699790694102
 20
257.2434458592231
 30
0.0
 10
506.0750882890972
 20
257.140137437792
 30
0.0
 10
505.473794089277
 20
256.9550992718013
 30
0.0
 10
504.9407601399678
 20
256.691985698104
 30
0.0
 10
504.5061813930447
 20
256.3875692811841
 30
0.0
 10
504.2936918781423
 20
256.1473318501907
 30
0.0
 10
504.1988593117351
 20
256.0401155852439
 30
0.0
  0
LINE
  5
24E
330
1F
100
AcDbEntity
  8
0
  6
Continuous
 62
     7
370
    25
100
AcDbLine
 10
510.4445376309
 20
255.7733392529
 30
0.0
 11
510.2864186092
 21
255.9774877248
 31
0.0
  0
LINE
  5
24F
330
1F
100
AcDbEntity
  8
0
  6
Continuous
 62
     7
370
    25
100
AcDbLine
 10
504.1407254059
 20
255.9774877248
 30
0.0
 11
503.9826063842
 21
255.7733392529
 31
0.0
  0
SPLINE
  5
250
330
1F
100
AcDbEntity
  8
0
  6
Continuous
 62
     7
370
    25
100
AcDbSpline
210
0.0
220
0.0
230
1.0
 70
     8
 71
     3
 72
    10
 73
     6
 74
     0
 42
0.000000001
 43
0.00000001
 40
0.0
 40
0.0
 40
0.0
 40
0.0
 40
0.3334981708502232
 40
0.8100182878125273
 40
1.0
 40
1.0
 40
1.0
 40
1.0
 10
474.1025751396989
 20
276.8800679898383
 30
0.0
 10
474.0273494229079
 20
276.9707607549001
 30
0.0
 10
473.8446371574731
 20
277.1910402187578
 30
0.0
 10
473.5585227238085
 20
277.4087772351813
 30
0.0
 10
473.3523947680747
 20
277.5334987099639
 30
0.0
 10
473.293639427508
 20
277.5690496991577
 30
0.0
  0
SPLINE
  5
251
330
1F
100
AcDbEntity
  8
0
  6
Continuous
 62
     7
370
    25
100
AcDbSpline
210
0.0
220
0.0
230
1.0
 70
     8
 71
     3
 72
    17
 73
    13
 74
     0
 42
0.000000001
 43
0.00000001
 40
0.0
 40
0.0
 40
0.0
 40
0.0
 40
0.0635892142313486
 40
0.1694997932855151
 40
0.275729778612245
 40
0.3818570993543927
 40
0.4881525232156307
 40
0.5954667450232847
 40
0.7047586297695246
 40
0.8171200840887403
 40
0.9169351969602404
 40
1.0
 40
1.0
 40
1.0
 40
1.0
 10
473.293639427508
 20
277.5690496991577
 30
0.0
 10
473.1909184345278
 20
277.6242854106166
 30
0.0
 10
472.9171111971415
 20
277.7715185819561
 30
0.0
 10
472.4249995305746
 20
277.9474507785221
 30
0.0
 10
471.8207407005326
 20
278.0787935013964
 30
0.0
 10
471.1917856808978
 20
278.1321962572395
 30
0.0
 10
470.557098504165
 20
278.1081773833047
 30
0.0
 10
469.9323889856508
 20
278.004875751548
 30
0.0
 10
469.3311221157934
 20
277.8198114997617
 30
0.0
 10
468.797986957672
 20
277.5567945274542
 30
0.0
 10
468.3598489645336
 20
277.2493533927896
 30
0.0
 10
468.1444180766367
 20
277.005501498845
 30
0.0
 10
468.0465684894762
 20
276.8947429749226
 30
0.0
  0
LINE
  5
252
330
1F
100
AcDbEntity
  8
0
  6
Continuous
 62
     7
370
    25
100
AcDbLine
 10
474.3018439594
 20
276.6380721912
 30
0.0
 11
474.1437249377
 21
276.8422206631
 31
0.0
  0
LINE
  5
253
330
1F
100
AcDbEntity
  8
0
  6
Continuous
 62
     7
370
    25
100
AcDbLine
 10
467.9980317343
 20
276.8422206631
 30
0.0
 11
467.8399127126
 21
276.6380721912
 31
0.0
  0
LINE
  5
254
330
1F
100
AcDbEntity
  8
0
  6
Continuous
 62
     7
370
    25
100
AcDbLine
 10
398.3774614811
 20
243.3809132609
 30
0.0
 11
443.9905031438
 21
217.0490647982
 31
0.0
  0
LINE
  5
255
330
1F
100
AcDbEntity
  8
0
  6
Continuous
 62
     7
370
    25
100
AcDbLine
 10
398.3774614811
 20
243.3809132609
 30
0.0
 11
394.8063190931
 21
253.8617275911
 31
0.0
  0
LINE
  5
256
330
1F
100
AcDbEntity
  8
0
  6
Continuous
 62
     7
370
    25
100
AcDbLine
 10
394.8063190931
 20
253.8617275911
 30
0.0
 11
394.8767385291
 21
253.6789611417
 31
0.0
  0
LINE
  5
257
330
1F
100
AcDbEntity
  8
0
  6
Continuous
 62
     7
370
    25
100
AcDbLine
 10
394.8767385291
 20
253.6789611417
 30
0.0
 11
395.442229875
 21
253.3525099364
 31
0.0
  0
LINE
  5
258
330
1F
100
AcDbEntity
  8
0
  6
Continuous
 62
     7
370
    25
100
AcDbLine
 10
395.442229875
 20
253.3525099364
 30
0.0
 11
391.4766872307
 21
264.9908350598
 31
0.0
  0
LINE
  5
259
330
1F
100
AcDbEntity
  8
0
  6
Continuous
 62
     7
370
    25
100
AcDbLine
 10
391.4766872307
 20
264.9908350598
 30
0.0
 11
391.4062677948
 21
265.1736015091
 31
0.0
  0
LINE
  5
25A
330
1F
100
AcDbEntity
  8
0
  6
Continuous
 62
     7
370
    25
100
AcDbLine
 10
391.4062677948
 20
265.1736015091
 30
0.0
 11
390.8407764489
 21
265.5000527144
 31
0.0
  0
LINE
  5
25B
330
1F
100
AcDbEntity
  8
0
  6
Continuous
 62
     7
370
    25
100
AcDbLine
 10
390.8407764489
 20
265.5000527144
 30
0.0
 11
388.7324122742
 21
271.6878131154
 31
0.0
  0
ELLIPSE
  5
25C
330
1F
100
AcDbEntity
  8
0
  6
Continuous
 62
     7
370
    25
100
AcDbEllipse
 10
410.3206283418
 20
258.4097140647
 30
0.0
 11
-21.18785867054663
 21
22.28621697377008
 31
0.0
210
0.0
220
0.0
230
1.0
 40
0.3495549005
 41
3.895352153432931
 42
6.932225051903026
  0
LINE
  5
25D
330
1F
100
AcDbEntity
  8
0
  6
Continuous
 62
     7
370
    25
100
AcDbLine
 10
433.9183333676
 20
240.6319084385
 30
0.0
 11
431.1006752293
 21
247.229135529
 31
0.0
  0
LINE
  5
25E
330
1F
100
AcDbEntity
  8
0
  6
Continuous
 62
     7
370
    25
100
AcDbLine
 10
433.9183333676
 20
240.6319084385
 30
0.0
 11
433.3528420217
 21
240.9583596438
 31
0.0
  0
LINE
  5
25F
330
1F
100
AcDbEntity
  8
0
  6
Continuous
 62
     7
370
    25
100
AcDbLine
 10
433.3528420217
 20
240.9583596438
 30
0.0
 11
433.4232614576
 21
240.7755931945
 31
0.0
  0
LINE
  5
260
330
1F
100
AcDbEntity
  8
0
  6
Continuous
 62
     7
370
    25
100
AcDbLine
 10
433.4232614576
 20
240.7755931945
 30
0.0
 11
438.7228883622
 21
228.3671176208
 31
0.0
  0
LINE
  5
261
330
1F
100
AcDbEntity
  8
0
  6
Continuous
 62
     7
370
    25
100
AcDbLine
 10
438.7228883622
 20
228.3671176208
 30
0.0
 11
439.2883797081
 21
228.0406664155
 31
0.0
  0
LINE
  5
262
330
1F
100
AcDbEntity
  8
0
  6
Continuous
 62
     7
370
    25
100
AcDbLine
 10
439.2883797081
 20
228.0406664155
 30
0.0
 11
439.2179602721
 21
228.2234328649
 31
0.0
  0
LINE
  5
263
330
1F
100
AcDbEntity
  8
0
  6
Continuous
 62
     7
370
    25
100
AcDbLine
 10
443.9905031438
 20
217.0490647982
 30
0.0
 11
439.2179602721
 21
228.2234328649
 31
0.0
  0
ELLIPSE
  5
264
330
1F
100
AcDbEntity
  8
0
  6
Continuous
 62
     7
370
    25
100
AcDbEllipse
 10
419.2917961834
 20
254.39072572
 30
0.0
 11
-7.33917704393457
 21
7.858618185082605
 31
0.0
210
0.0
220
0.0
230
1.0
 40
0.3507656805
 41
2.286471837590068
 42
5.428064491179867
  0
LINE
  5
265
330
1F
100
AcDbEntity
  8
0
  6
Continuous
 62
     7
370
    25
100
AcDbLine
 10
416.5565800442
 20
261.4896996801
 30
0.0
 11
397.4646969522
 21
272.5112091897
 31
0.0
  0
ELLIPSE
  5
266
330
1F
100
AcDbEntity
  8
0
  6
Continuous
 62
     7
370
    25
100
AcDbEllipse
 10
400.1999130914
 20
265.4122352296
 30
0.0
 11
-7.339177043934625
 21
7.858618185082604
 31
0.0
210
0.0
220
0.0
230
1.0
 40
0.3507656805
 41
5.428064491179865
 42
8.569657144769646
  0
LINE
  5
267
330
1F
100
AcDbEntity
  8
0
  6
Continuous
 62
     7
370
    25
100
AcDbLine
 10
422.0270123226
 20
247.2917517599
 30
0.0
 11
402.9351292306
 21
258.3132612695
 31
0.0
  0
ELLIPSE
  5
268
330
1F
100
AcDbEntity
  8
0
  6
Continuous
 62
     7
370
    25
100
AcDbEllipse
 10
410.3206283418
 20
258.4097140647
 30
0.0
 11
-14.47837009154017
 21
15.22891493207618
 31
0.0
210
0.0
220
0.0
230
1.0
 40
0.3495549005
 41
1.827136989819627
 42
2.717254908336725
  0
ELLIPSE
  5
269
330
1F
100
AcDbEntity
  8
0
  6
Continuous
 62
     7
370
    25
100
AcDbEllipse
 10
408.7339286475
 20
249.0121825056
 30
0.0
 11
-1.059392933527306
 21
1.11431084868849
 31
0.0
210
0.0
220
0.0
230
1.0
 40
0.3495549005
 41
4.968729643409444
 42
8.110322296999225
  0
ELLIPSE
  5
26A
330
1F
100
AcDbEntity
  8
0
  6
Continuous
 62
     7
370
    25
100
AcDbEllipse
 10
410.3206283418
 20
258.4097140647
 30
0.0
 11
-16.59715595859484
 21
17.45753662945322
 31
0.0
210
0.0
220
0.0
230
1.0
 40
0.3495549005
 41
1.827136989819627
 42
2.717254908336731
  0
ELLIPSE
  5
26B
330
1F
100
AcDbEntity
  8
0
  6
Continuous
 62
     7
370
    25
100
AcDbEllipse
 10
422.1282905484
 20
241.279781969
 30
0.0
 11
-1.059392933527363
 21
1.11431084868849
 31
0.0
210
0.0
220
0.0
230
1.0
 40
0.3495549005
 41
2.717254908336729
 42
5.858847561926557
  0
LINE
  5
26C
330
1F
100
AcDbEntity
  8
0
  6
Continuous
 62
     7
370
    25
100
AcDbLine
 10
431.6322456488
 20
247.7594233248
 30
0.0
 11
431.1006752293
 21
247.229135529
 31
0.0
  0
ELLIPSE
  5
26D
330
1F
100
AcDbEntity
  8
0
  6
Continuous
 62
     7
370
    25
100
AcDbEllipse
 10
410.8521987614
 20
258.9400018604
 30
0.0
 11
-21.18785867054663
 21
22.28621697377008
 31
0.0
210
0.0
220
0.0
230
1.0
 40
0.3495549005
 41
3.895352153432933
 42
6.291546880129812
  0
LINE
  5
26E
330
1F
100
AcDbEntity
  8
0
  6
Continuous
 62
     7
370
    25
100
AcDbLine
 10
422.5585827421
 20
247.8220395556
 30
0.0
 11
422.0270123226
 21
247.2917517599
 31
0.0
  0
ELLIPSE
  5
26F
330
1F
100
AcDbEntity
  8
0
  6
Continuous
 62
     7
370
    25
100
AcDbEllipse
 10
419.8233666029
 20
254.9210135157
 30
0.0
 11
-7.339177043934626
 21
7.858618185082519
 31
0.0
210
0.0
220
0.0
230
1.0
 40
0.3507656805
 41
2.286471837590032
 42
3.05350197456064
  0
LINE
  5
270
330
1F
100
AcDbEntity
  8
0
  6
Continuous
 62
     7
370
    25
100
AcDbLine
 10
433.9183333676
 20
240.6319084385
 30
0.0
 11
434.4499037871
 21
241.1621962342
 31
0.0
  0
LINE
  5
271
330
1F
100
AcDbEntity
  8
0
  6
Continuous
 62
     7
370
    25
100
AcDbLine
 10
434.4499037871
 20
241.1621962342
 30
0.0
 11
431.6322456488
 21
247.7594233248
 31
0.0
  0
LINE
  5
272
330
1F
100
AcDbEntity
  8
0
  6
Continuous
 62
     7
370
    25
100
AcDbLine
 10
433.4232614576
 20
240.7755931945
 30
0.0
 11
433.5134998517
 21
240.8656138527
 31
0.0
  0
LINE
  5
273
330
1F
100
AcDbEntity
  8
0
  6
Continuous
 62
     7
370
    25
100
AcDbLine
 10
438.7228883622
 20
228.3671176208
 30
0.0
 11
439.2544587817
 21
228.8974054165
 31
0.0
  0
LINE
  5
274
330
1F
100
AcDbEntity
  8
0
  6
Continuous
 62
     7
370
    25
100
AcDbLine
 10
434.1457774071
 20
240.8588036794
 30
0.0
 11
439.2544587817
 21
228.8974054165
 31
0.0
  0
LINE
  5
275
330
1F
100
AcDbEntity
  8
0
  6
Continuous
 62
     7
370
    25
100
AcDbLine
 10
403.4666996501
 20
258.8435490652
 30
0.0
 11
402.9351292306
 21
258.3132612695
 31
0.0
  0
ELLIPSE
  5
276
330
1F
100
AcDbEntity
  8
0
  6
Continuous
 62
     7
370
    25
100
AcDbEllipse
 10
400.7314835109
 20
265.9425230253
 30
0.0
 11
-7.339177043934625
 21
7.858618185082604
 31
0.0
210
0.0
220
0.0
230
1.0
 40
0.3507656805
 41
0.1112187517409483
 42
2.286471837590056
  0
LINE
  5
277
330
1F
100
AcDbEntity
  8
0
  6
Continuous
 62
     7
370
    25
100
AcDbLine
 10
422.5585827421
 20
247.8220395556
 30
0.0
 11
403.4666996501
 21
258.8435490652
 31
0.0
  0
LINE
  5
278
330
1F
100
AcDbEntity
  8
0
  6
Continuous
 62
     7
370
    25
100
AcDbLine
 10
444.5220735633
 20
217.5793525939
 30
0.0
 11
443.9905031438
 21
217.0490647982
 31
0.0
  0
LINE
  5
279
330
1F
100
AcDbEntity
  8
0
  6
Continuous
 62
     7
370
    25
100
AcDbLine
 10
439.2179602721
 20
228.2234328649
 30
0.0
 11
439.7495306916
 21
228.7537206606
 31
0.0
  0
LINE
  5
27A
330
1F
100
AcDbEntity
  8
0
  6
Continuous
 62
     7
370
    25
100
AcDbLine
 10
444.5220735633
 20
217.5793525939
 30
0.0
 11
439.7495306916
 21
228.7537206606
 31
0.0
  0
LINE
  5
27B
330
1F
100
AcDbEntity
  8
0
  6
Continuous
 62
     7
370
    25
100
AcDbLine
 10
439.2544587817
 20
228.8974054165
 30
0.0
 11
439.6592922976
 21
228.6637000023
 31
0.0
  0
LINE
  5
27C
330
1F
100
AcDbEntity
  8
0
  6
Continuous
 62
     7
370
    25
100
AcDbLine
 10
422.9333584261
 20
240.1118320534
 30
0.0
 11
423.251807476
 21
240.2956687768
 31
0.0
  0
LINE
  5
27D
330
1F
100
AcDbEntity
  8
0
  6
Continuous
 62
     7
370
    25
100
AcDbLine
 10
408.6257445774
 20
248.3714417175
 30
0.0
 11
409.2277344328
 21
248.7189630639
 31
0.0
  0
ELLIPSE
  5
27E
330
1F
100
AcDbEntity
  8
0
  6
Continuous
 62
     7
370
    25
100
AcDbEllipse
 10
410.9226181973
 20
258.757235411
 30
0.0
 11
-16.59715595859484
 21
17.45753662945322
 31
0.0
210
0.0
220
0.0
230
1.0
 40
0.3495549005
 41
1.827136989819627
 42
2.693576469942606
  0
ELLIPSE
  5
27F
330
1F
100
AcDbEntity
  8
0
  6
Continuous
 62
     7
370
    25
100
AcDbEllipse
 10
449.7262417453
 20
222.9466189207
 30
0.0
 11
4.032646596556106
 21
7.828797890599532
 31
0.0
210
0.0
220
0.0
230
1.0
 40
0.6067559047
 41
2.676105040835458
 42
3.897835517231506
  0
ELLIPSE
  5
280
330
1F
100
AcDbEntity
  8
0
  6
Continuous
 62
     7
370
    25
100
AcDbEllipse
 10
449.7262417453
 20
222.9466189207
 30
0.0
 11
3.630414524167293
 21
7.136738958382068
 31
0.0
210
0.0
220
0.0
230
1.0
 40
0.6095855012
 41
2.672868233520753
 42
3.894598709916787
  0
LINE
  5
281
330
1F
100
AcDbEntity
  8
0
  6
Continuous
 62
     7
370
    25
100
AcDbLine
 10
450.0523512312
 20
216.2260334266
 30
0.0
 11
450.0523512312
 21
215.5728007771
 31
0.0
  0
ELLIPSE
  5
282
330
1F
100
AcDbEntity
  8
0
  6
Continuous
 62
     7
370
    25
100
AcDbEllipse
 10
404.3362721088
 20
249.1496906438
 30
0.0
 11
4.727285095867842
 21
7.42926101478713
 31
0.0
210
0.0
220
0.0
230
1.0
 40
0.546413513
 41
2.728759703430135
 42
3.165173280490852
  0
LINE
  5
283
330
1F
100
AcDbEntity
  8
0
  6
Continuous
 62
     7
370
    25
100
AcDbLine
 10
450.0523512312
 20
216.2260334266
 30
0.0
 11
443.4794777332
 21
220.0204725301
 31
0.0
  0
ELLIPSE
  5
284
330
1F
100
AcDbEntity
  8
0
  6
Continuous
 62
     7
370
    25
100
AcDbEllipse
 10
409.3359185029
 20
249.359703852
 30
0.0
 11
-1.059392933527363
 21
1.11431084868849
 31
0.0
210
0.0
220
0.0
230
1.0
 40
0.3495549005
 41
0.5986034025539557
 42
1.827136989819552
  0
LINE
  5
285
330
1F
100
AcDbEntity
  8
0
  6
Continuous
 62
     7
370
    25
100
AcDbLine
 10
453.4734566374
 20
219.0174036512
 30
0.0
 11
440.7776267818
 21
226.3465502216
 31
0.0
  0
ARC
  5
286
330
1F
100
AcDbEntity
  8
0
  6
Continuous
 62
     7
370
    25
100
AcDbCircle
 10
453.6283836642
 20
218.6091995953
 30
0.0
 40
0.4366153168342787
100
AcDbArc
 50
110.7834207995
 51
249.2165792005
  0
LINE
  5
287
330
1F
100
AcDbEntity
  8
0
  6
Continuous
 62
     7
370
    25
100
AcDbLine
 10
453.4734566374
 20
218.2009955394
 30
0.0
 11
450.0523512312
 21
216.2260334266
 31
0.0
  0
LINE
  5
288
330
1F
100
AcDbEntity
  8
0
  6
Continuous
 62
     7
370
    25
100
AcDbLine
 10
453.4734566374
 20
217.5477628899
 30
0.0
 11
450.0523512312
 21
215.5728007771
 31
0.0
  0
LINE
  5
289
330
1F
100
AcDbEntity
  8
0
  6
Continuous
 62
     7
370
    25
100
AcDbLine
 10
453.4734566374
 20
218.2009955394
 30
0.0
 11
453.4734566374
 21
217.5477628899
 31
0.0
  0
LINE
  5
28A
330
1F
100
AcDbEntity
  8
0
  6
Continuous
 62
     7
370
    25
100
AcDbLine
 10
453.4734566374
 20
218.3641710017
 30
0.0
 11
453.4734566374
 21
219.0174036512
 31
0.0
  0
LINE
  5
28B
330
1F
100
AcDbEntity
  8
0
  6
Continuous
 62
     7
370
    25
100
AcDbLine
 10
453.4734566374
 20
218.3641710017
 30
0.0
 11
453.3560053763
 21
218.2825832706
 31
0.0
  0
LINE
  5
28C
330
1F
100
AcDbEntity
  8
0
  6
Continuous
 62
     7
370
    25
100
AcDbLine
 10
471.070878336
 20
280.7025421806
 30
0.0
 11
427.3752513021
 21
255.4775936221
 31
0.0
  0
LINE
  5
28D
330
1F
100
AcDbEntity
  8
0
  6
Continuous
 62
     7
370
    25
100
AcDbLine
 10
424.5769698468
 20
253.862180123
 30
0.0
 11
418.3362942787
 21
250.2595148024
 31
0.0
  0
LINE
  5
28E
330
1F
100
AcDbEntity
  8
0
  6
Continuous
 62
     7
370
    25
100
AcDbLine
 10
412.3783268832
 20
246.820053436
 30
0.0
 11
411.8750974416
 21
246.529545263
 31
0.0
  0
LINE
  5
28F
330
1F
100
AcDbEntity
  8
0
  6
Continuous
 62
     7
370
    25
100
AcDbLine
 10
515.6988533818
 20
254.9393605714
 30
0.0
 11
471.070878336
 21
280.7025421806
 31
0.0
  0
LINE
  5
290
330
1F
100
AcDbEntity
  8
0
  6
Continuous
 62
     7
370
    25
100
AcDbLine
 10
453.4734566374
 20
219.0174036512
 30
0.0
 11
515.6988533818
 21
254.9393605714
 31
0.0
  0
ARC
  5
291
330
1F
100
AcDbEntity
  8
0
  6
Continuous
 62
     7
370
    25
100
AcDbCircle
 10
417.3772388597
 20
248.3140013733
 30
0.0
 40
5.575393286966726
100
AcDbArc
 50
271.6312189181
 51
288.4756380167
  0
LWPOLYLINE
  5
292
330
1F
100
AcDbEntity
  8
0
  6
Continuous
 62
     7
370
    25
100
AcDbPolyline
 90
        3
 70
   128
 43
0.0
 10
413.829550481
 20
245.0792520527
 10
413.9121288356
 20
245.3093924973
 10
414.0997973424
 20
245.6145639419
  0
LWPOLYLINE
  5
293
330
1F
100
AcDbEntity
  8
0
  6
Continuous
 62
     7
370
    25
100
AcDbPolyline
 90
       23
 70
   128
 43
0.0
 10
456.7044222608
 20
224.7498310036
 10
456.7269307271
 20
224.7201404459
 10
456.9318046133
 20
224.3501560009
 10
457.0116847931
 20
223.9644746895
 10
456.9636841886
 20
223.577036039
 10
456.7895376666
 20
223.2018430918
 10
456.4955393363
 20
222.8524562984
 10
456.0923150633
 20
222.5415034081
 10
455.5944384234
 20
222.2802230683
 10
455.0199039756
 20
222.0780586313
 10
454.3894768918
 20
221.9423168467
 10
453.7259424493
 20
221.8779037761
 10
453.0532825117
 20
221.8871474758
 10
452.3958087618
 20
221.9697138544
 10
451.7772840139
 20
222.1226187478
 10
451.2200633639
 20
222.3403357749
 10
450.744286218
 20
222.6149960749
 10
450.3671484018
 20
222.936672709
 10
450.1022806587
 20
223.2937394456
 10
449.959255999
 20
223.6732909625
 10
449.9432437064
 20
224.0616092789
 10
450.0548225071
 20
224.4446595591
 10
450.242491014
 20
224.7498310036
  0
LWPOLYLINE
  5
294
330
1F
100
AcDbEntity
  8
0
  6
Continuous
 62
     7
370
    25
100
AcDbPolyline
 90
       23
 70
   128
 43
0.0
 10
510.4445376309
 20
255.7733392529
 10
510.4670460973
 20
255.7436486951
 10
510.6719199835
 20
255.3736642502
 10
510.7518001633
 20
254.9879829388
 10
510.7037995587
 20
254.6005442883
 10
510.5296530368
 20
254.225351341
 10
510.2356547065
 20
253.8759645477
 10
509.8324304335
 20
253.5650116573
 10
509.3345537936
 20
253.3037313175
 10
508.7600193458
 20
253.1015668806
 10
508.129592262
 20
252.9658250959
 10
507.4660578195
 20
252.9014120253
 10
506.7933978819
 20
252.9106557251
 10
506.135924132
 20
252.9932221037
 10
505.5173993841
 20
253.1461269971
 10
504.9601787341
 20
253.3638440241
 10
504.4844015882
 20
253.6385043241
 10
504.107263772
 20
253.9601809583
 10
503.8423960289
 20
254.3172476949
 10
503.6993713691
 20
254.6967992117
 10
503.6833590766
 20
255.0851175281
 10
503.7949378773
 20
255.4681678083
 10
503.9826063842
 20
255.7733392529
  0
LWPOLYLINE
  5
295
330
1F
100
AcDbEntity
  8
0
  6
Continuous
 62
     7
370
    25
100
AcDbPolyline
 90
       23
 70
   128
 43
0.0
 10
474.3018439594
 20
276.6380721912
 10
474.3243524257
 20
276.6083816334
 10
474.5292263119
 20
276.2383971885
 10
474.6091064917
 20
275.852715877
 10
474.5611058871
 20
275.4652772265
 10
474.3869593652
 20
275.0900842793
 10
474.0929610349
 20
274.740697486
 10
473.6897367619
 20
274.4297445956
 10
473.191860122
 20
274.1684642558
 10
472.6173256742
 20
273.9662998188
 10
471.9868985904
 20
273.8305580342
 10
471.3233641479
 20
273.7661449636
 10
470.6507042103
 20
273.7753886633
 10
469.9932304604
 20
273.8579550419
 10
469.3747057125
 20
274.0108599354
 10
468.8174850625
 20
274.2285769624
 10
468.3417079166
 20
274.5032372624
 10
467.9645701004
 20
274.8249138966
 10
467.6997023573
 20
275.1819806332
 10
467.5566776976
 20
275.56153215
 10
467.540665405
 20
275.9498504664
 10
467.6522442057
 20
276.3329007466
 10
467.8399127126
 20
276.6380721912
  0
LWPOLYLINE
  5
296
330
1F
100
AcDbEntity
  8
0
  6
Continuous
 62
     7
370
    25
100
AcDbPolyline
 90
       28
 70
   128
 43
0.0
 10
462.3513410874
 20
237.2050270427
 10
461.9154309819
 20
237.4040025435
 10
461.4117838205
 20
237.5395811768
 10
460.8675513519
 20
237.6044538636
 10
460.3120732894
 20
237.5951233003
 10
459.7752955991
 20
237.5120925002
 10
459.2861561053
 20
237.3598376751
 10
458.8710244447
 20
237.146566922
 10
458.5522804725
 20
236.8837777226
 10
458.3471077589
 20
236.5856371104
 10
458.2665672178
 20
236.2682179232
 10
458.3150008107
 20
235.9486323114
 10
458.4897974702
 20
235.6441092181
 10
458.7815338629
 20
235.3710655621
 10
459.1744824045
 20
235.1442211975
 10
459.6474591375
 20
234.9758053628
 10
460.1749657636
 20
234.8748973992
 10
460.7285642642
 20
234.8469372811
 10
461.2784100007
 20
234.8934323458
 10
461.7948606472
 20
235.0118760323
 10
462.2500742157
 20
235.1958830107
 10
462.6195100249
 20
235.4355334173
 10
462.8832516947
 20
235.7179076365
 10
463.0270808433
 20
236.0277828012
 10
463.0432436041
 20
236.348453461
 10
462.9308686386
 20
236.6626321777
 10
462.6960141103
 20
236.9533814952
 10
462.3513410874
 20
237.2050270427
  0
LINE
  5
297
330
1F
100
AcDbEntity
  8
0
  6
Continuous
 62
     7
370
    25
100
AcDbLine
 10
515.6988533818
 20
254.2861279219
 30
0.0
 11
515.6988533818
 21
254.9393605714
 31
0.0
  0
LINE
  5
298
330
1F
100
AcDbEntity
  8
0
  6
Continuous
 62
     7
370
    25
100
AcDbLine
 10
515.6988533818
 20
254.2861279219
 30
0.0
 11
453.4734566374
 21
218.3641710017
 31
0.0
  0
LWPOLYLINE
  5
299
330
1F
100
AcDbEntity
  8
0
  6
Continuous
 62
     7
370
    25
100
AcDbPolyline
 90
       27
 70
   128
 43
0.0
 10
451.9506386587
 20
223.8532890272
 10
451.6304547854
 20
224.0892175782
 10
451.4173794807
 20
224.3625251546
 10
451.3237959068
 20
224.6573281136
 10
451.3551428008
 20
224.9564935787
 10
451.5095983953
 20
225.2426351405
 10
451.7781862925
 20
225.4991232916
 10
452.1452971401
 20
225.7110518728
 10
452.58959579
 20
225.8661043655
 10
453.0852612196
 20
225.9552696823
 10
453.6034871559
 20
225.973365859
 10
454.1141561911
 20
225.9193412118
 10
454.5875900971
 20
225.7963354566
 10
454.9962746161
 20
225.6114972409
 10
455.3164584894
 20
225.37556869
 10
455.5295337941
 20
225.1022611136
 10
455.623117368
 20
224.8074581546
 10
455.5917704739
 20
224.5082926895
 10
455.4373148794
 20
224.2221511277
 10
455.1687269822
 20
223.9656629766
 10
454.8016161347
 20
223.7537343953
 10
454.3573174848
 20
223.5986819027
 10
453.8616520552
 20
223.5095165859
 10
453.3434261189
 20
223.4914204092
 10
452.8327570837
 20
223.5454450564
 10
452.3593231777
 20
223.6684508116
 10
451.9506386587
 20
223.8532890272
  0
LWPOLYLINE
  5
29A
330
1F
100
AcDbEntity
  8
0
  6
Continuous
 62
     7
370
    25
100
AcDbPolyline
 90
       16
 70
   128
 43
0.0
 10
451.0933172487
 20
222.7867893436
 10
451.6033931194
 20
222.54513183
 10
452.1853344824
 20
222.3655640977
 10
452.8167776574
 20
222.2549868342
 10
453.4734566374
 20
222.2176494616
 10
454.1301356173
 20
222.2549868342
 10
454.7615787923
 20
222.3655640977
 10
455.3435201553
 20
222.54513183
 10
455.853596026
 20
222.7867893436
 10
456.2722044749
 20
223.081249876
 10
456.5832586138
 20
223.417197474
 10
456.7748048069
 20
223.7817218599
 10
456.8394820412
 20
224.1608145658
 10
456.7748048069
 20
224.5399072717
 10
456.5832586138
 20
224.9044316575
 10
456.5222616741
 20
224.98431804
  0
LWPOLYLINE
  5
29B
330
1F
100
AcDbEntity
  8
0
  6
Continuous
 62
     7
370
    25
100
AcDbPolyline
 90
        8
 70
   128
 43
0.0
 10
450.4314369097
 20
224.9926384833
 10
450.3636546609
 20
224.9044316575
 10
450.1721084679
 20
224.5399072717
 10
450.1074312336
 20
224.1608145658
 10
450.1721084679
 20
223.7817218599
 10
450.3636546609
 20
223.417197474
 10
450.6747087999
 20
223.081249876
 10
451.0933172487
 20
222.7867893436
  0
LWPOLYLINE
  5
29C
330
1F
100
AcDbEntity
  8
0
  6
Continuous
 62
     7
370
    25
100
AcDbPolyline
 90
       22
 70
   128
 43
0.0
 10
454.5341168092
 20
225.344699218
 10
454.1743595798
 20
225.4979765632
 10
453.7523240481
 20
225.583228461
 10
453.3055099232
 20
225.5928799063
 10
452.8736186009
 20
225.5260733256
 10
452.4950255205
 20
225.3887447769
 10
452.2033703385
 20
225.1930965044
 10
452.0245678979
 20
224.9565127157
 10
451.9745055802
 20
224.7000149186
 10
452.0576316419
 20
224.446394068
 10
452.2665599677
 20
224.2181854896
 10
452.582726359
 20
224.0356665169
 10
452.9780380444
 20
223.9150547617
 10
453.417369846
 20
223.8670671078
 10
453.861685205
 20
223.8959674686
 10
454.2715047522
 20
223.9991879205
 10
454.6104142221
 20
224.1675568732
 10
454.8483000212
 20
224.3861140064
 10
454.9640249522
 20
224.6354395597
 10
454.9473063472
 20
224.8933798636
 10
454.7996297276
 20
225.1370157901
 10
454.5341168092
 20
225.344699218
  0
ARC
  5
29D
330
1F
100
AcDbEntity
  8
0
  6
Continuous
 62
     7
370
    25
100
AcDbCircle
 10
453.4734566374
 20
223.052881101
 30
0.0
 40
1.939129382663057
100
AcDbArc
 50
44.2413268683
 51
135.7586731317
  0
LINE
  5
29E
330
1F
100
AcDbEntity
  8
0
  6
Continuous
 62
     7
370
    25
100
AcDbLine
 10
394.8767385291
 20
253.6789611417
 30
0.0
 11
395.2157608763
 21
254.0171654635
 31
0.0
  0
LINE
  5
29F
330
1F
100
AcDbEntity
  8
0
  6
Continuous
 62
     7
370
    25
100
AcDbLine
 10
394.8063190931
 20
253.8617275911
 30
0.0
 11
395.1514203376
 21
254.2059961423
 31
0.0
  0
LINE
  5
2A0
330
1F
100
AcDbEntity
  8
0
  6
Continuous
 62
     7
370
    25
100
AcDbLine
 10
509.9437170659
 20
299.7179423677
 30
0.0
 11
509.2366102847
 21
300.1261464236
 31
0.0
  0
ARC
  5
2A1
330
1F
100
AcDbEntity
  8
0
  6
Continuous
 62
     7
370
    25
100
AcDbCircle
 10
510.0044441969
 20
299.7923924707
 30
0.0
 40
0.0960760234342001
100
AcDbArc
 50
230.7967147642
 51
9.2140369905
  0
LINE
  5
2A2
330
1F
100
AcDbEntity
  8
0
  6
Continuous
 62
     7
370
    25
100
AcDbLine
 10
510.0992805578
 20
309.2061611988
 30
0.0
 11
510.0992805578
 21
299.807776454
 31
0.0
  0
ARC
  5
2A3
330
1F
100
AcDbEntity
  8
0
  6
Continuous
 62
     7
370
    25
100
AcDbCircle
 10
509.7615330155
 20
309.1907918113
 30
0.0
 40
0.3380970576649048
100
AcDbArc
 50
2.6054784856
 51
57.3945216603
  0
LINE
  5
2A4
330
1F
100
AcDbEntity
  8
0
  6
Continuous
 62
     7
370
    25
100
AcDbLine
 10
509.2366102847
 20
309.8838091256
 30
0.0
 11
509.9437170659
 21
309.4756050697
 31
0.0
  0
ARC
  5
2A5
330
1F
100
AcDbEntity
  8
0
  6
Continuous
 62
     7
370
    25
100
AcDbCircle
 10
509.1758831537
 20
309.8093590226
 30
0.0
 40
0.0960760234342825
100
AcDbArc
 50
50.7967147643
 51
189.2140369905
  0
LINE
  5
2A6
330
1F
100
AcDbEntity
  8
0
  6
Continuous
 62
     7
370
    25
100
AcDbLine
 10
509.0810467928
 20
300.3955902945
 30
0.0
 11
509.0810467928
 21
309.7939750393
 31
0.0
  0
ARC
  5
2A7
330
1F
100
AcDbEntity
  8
0
  6
Continuous
 62
     7
370
    25
100
AcDbCircle
 10
509.4187943351
 20
300.410959682
 30
0.0
 40
0.3380970576654001
100
AcDbArc
 50
182.6054784856
 51
237.3945216603
  0
LINE
  5
2A8
330
1F
100
AcDbEntity
  8
0
  6
Continuous
 62
     7
370
    25
100
AcDbLine
 10
505.4492377091
 20
311.4013281633
 30
0.0
 11
505.4492377091
 21
300.0398052361
 31
0.0
  0
LINE
  5
2A9
330
1F
100
AcDbEntity
  8
0
  6
Continuous
 62
     7
370
    25
100
AcDbLine
 10
505.0653540976
 20
312.0662333019
 30
0.0
 11
505.4492377091
 21
311.4013281633
 31
0.0
  0
LINE
  5
2AA
330
1F
100
AcDbEntity
  8
0
  6
Continuous
 62
     7
370
    25
100
AcDbLine
 10
502.9543250029
 20
313.2849044581
 30
0.0
 11
505.0653540976
 21
312.0662333019
 31
0.0
  0
LINE
  5
2AB
330
1F
100
AcDbEntity
  8
0
  6
Continuous
 62
     7
370
    25
100
AcDbLine
 10
502.6874420544
 20
313.2303209606
 30
0.0
 11
502.9543250029
 21
313.2849044581
 31
0.0
  0
LINE
  5
2AC
330
1F
100
AcDbEntity
  8
0
  6
Continuous
 62
     7
370
    25
100
AcDbLine
 10
502.5500998051
 20
312.9131138182
 30
0.0
 11
502.6874420544
 21
313.2303209606
 31
0.0
  0
LINE
  5
2AD
330
1F
100
AcDbEntity
  8
0
  6
Continuous
 62
     7
370
    25
100
AcDbLine
 10
502.028887937
 20
312.8378280953
 30
0.0
 11
502.5500998051
 21
312.9131138182
 31
0.0
  0
LINE
  5
2AE
330
1F
100
AcDbEntity
  8
0
  6
Continuous
 62
     7
370
    25
100
AcDbLine
 10
501.9137037189
 20
312.6643415632
 30
0.0
 11
502.028887937
 21
312.8378280953
 31
0.0
  0
LINE
  5
2AF
330
1F
100
AcDbEntity
  8
0
  6
Continuous
 62
     7
370
    25
100
AcDbLine
 10
501.9137037189
 20
302.85883405
 30
0.0
 11
501.9137037189
 21
312.6643415632
 31
0.0
  0
LINE
  5
2B0
330
1F
100
AcDbEntity
  8
0
  6
Continuous
 62
     7
370
    25
100
AcDbLine
 10
502.0772980601
 20
302.4235483716
 30
0.0
 11
501.9137037189
 21
302.85883405
 31
0.0
  0
LINE
  5
2B1
330
1F
100
AcDbEntity
  8
0
  6
Continuous
 62
     7
370
    25
100
AcDbLine
 10
502.5475854927
 20
301.8126375867
 30
0.0
 11
502.0772980601
 21
302.4235483716
 31
0.0
  0
LINE
  5
2B2
330
1F
100
AcDbEntity
  8
0
  6
Continuous
 62
     7
370
    25
100
AcDbLine
 10
502.653540141
 20
301.4455908533
 30
0.0
 11
502.5475854927
 21
301.8126375867
 31
0.0
  0
LINE
  5
2B3
330
1F
100
AcDbEntity
  8
0
  6
Continuous
 62
     7
370
    25
100
AcDbLine
 10
502.9543250029
 20
301.0367938372
 30
0.0
 11
502.653540141
 21
301.4455908533
 31
0.0
  0
LINE
  5
2B4
330
1F
100
AcDbEntity
  8
0
  6
Continuous
 62
     7
370
    25
100
AcDbLine
 10
505.0653540976
 20
299.818122681
 30
0.0
 11
502.9543250029
 21
301.0367938372
 31
0.0
  0
LINE
  5
2B5
330
1F
100
AcDbEntity
  8
0
  6
Continuous
 62
     7
370
    25
100
AcDbLine
 10
505.4492377091
 20
300.0398052361
 30
0.0
 11
505.0653540976
 21
299.818122681
 31
0.0
  0
LWPOLYLINE
  5
2B6
330
1F
100
AcDbEntity
  8
0
  6
Continuous
 62
     7
370
    25
100
AcDbPolyline
 90
       23
 70
   128
 43
0.0
 10
511.2023664873
 20
313.1083367386
 10
511.5211104896
 20
312.8714087184
 10
511.8140317485
 20
312.5478331487
 10
512.0573995256
 20
312.1638241977
 10
512.231497611
 20
311.7504919869
 10
512.3222216133
 20
311.3413222338
 10
512.3222216133
 20
310.9694634383
 10
512.231497611
 20
310.6650413886
 10
512.0573995256
 20
310.4527185486
 10
511.8140317485
 20
310.3496960521
 10
511.5211104896
 20
310.3643201691
 10
511.2023664873
 20
310.4954061405
 10
510.8836224851
 20
310.7323341607
 10
510.5907012262
 20
311.0559097304
 10
510.3473334491
 20
311.4399186814
 10
510.1732353637
 20
311.8532508922
 10
510.0825113614
 20
312.2624206453
 10
510.0825113614
 20
312.6342794408
 10
510.1732353637
 20
312.9387014906
 10
510.3473334491
 20
313.1510243306
 10
510.5907012262
 20
313.254046827
 10
510.8836224851
 20
313.2394227101
 10
511.2023664873
 20
313.1083367386
  0
LINE
  5
2B7
330
1F
100
AcDbEntity
  8
0
  6
Continuous
 62
     7
370
    25
100
AcDbLine
 10
510.7179979404
 20
324.946830982
 30
0.0
 11
513.9141205914
 21
323.1017486493
 31
0.0
  0
ARC
  5
2B8
330
1F
100
AcDbEntity
  8
0
  6
Continuous
 62
     7
370
    25
100
AcDbCircle
 10
510.5523784922
 20
324.7437852466
 30
0.0
 40
0.2620255184571301
100
AcDbArc
 50
50.7967147643
 51
189.2140369905
  0
LINE
  5
2B9
330
1F
100
AcDbEntity
  8
0
  6
Continuous
 62
     7
370
    25
100
AcDbLine
 10
510.2937338717
 20
314.984993267
 30
0.0
 11
510.2937338717
 21
324.7018289284
 31
0.0
  0
ARC
  5
2BA
330
1F
100
AcDbEntity
  8
0
  6
Continuous
 62
     7
370
    25
100
AcDbCircle
 10
511.2148635325
 20
315.0269097783
 30
0.0
 40
0.9220828845429975
100
AcDbArc
 50
182.6054784856
 51
237.39452166
  0
LINE
  5
2BB
330
1F
100
AcDbEntity
  8
0
  6
Continuous
 62
     7
370
    25
100
AcDbLine
 10
513.9141205914
 20
312.4050640136
 30
0.0
 11
510.7179979404
 21
314.2501463463
 31
0.0
  0
ARC
  5
2BC
330
1F
100
AcDbEntity
  8
0
  6
Continuous
 62
     7
370
    25
100
AcDbCircle
 10
514.0797400396
 20
312.608109749
 30
0.0
 40
0.262025518457166
100
AcDbArc
 50
230.7967147643
 51
9.2140369905
  0
LINE
  5
2BD
330
1F
100
AcDbEntity
  8
0
  6
Continuous
 62
     7
370
    25
100
AcDbLine
 10
514.3383846601
 20
322.3669017286
 30
0.0
 11
514.3383846601
 21
312.6500660672
 31
0.0
  0
ARC
  5
2BE
330
1F
100
AcDbEntity
  8
0
  6
Continuous
 62
     7
370
    25
100
AcDbCircle
 10
513.4172549993
 20
322.3249852172
 30
0.0
 40
0.9220828845438183
100
AcDbArc
 50
2.6054784857
 51
57.39452166
  0
LINE
  5
2BF
330
1F
100
AcDbEntity
  8
0
  6
Continuous
 62
     7
370
    25
100
AcDbLine
 10
529.7910744188
 20
280.5101787071
 30
0.0
 11
530.2802386475
 21
269.4494514917
 31
0.0
  0
LINE
  5
2C0
330
1F
100
AcDbEntity
  8
0
  6
Continuous
 62
     7
370
    25
100
AcDbLine
 10
530.2802386475
 20
269.4494514917
 30
0.0
 11
484.890269011
 21
295.6525232148
 31
0.0
  0
LINE
  5
2C1
330
1F
100
AcDbEntity
  8
0
  6
Continuous
 62
     7
370
    25
100
AcDbLine
 10
485.3794332398
 20
306.1484734333
 30
0.0
 11
484.890269011
 21
295.6525232148
 31
0.0
  0
LINE
  5
2C2
330
1F
100
AcDbEntity
  8
0
  6
Continuous
 62
     7
370
    25
100
AcDbLine
 10
485.3794332398
 20
306.1484734333
 30
0.0
 11
485.9449245857
 21
305.822022228
 31
0.0
  0
LINE
  5
2C3
330
1F
100
AcDbEntity
  8
0
  6
Continuous
 62
     7
370
    25
100
AcDbLine
 10
485.9449245857
 20
305.822022228
 30
0.0
 11
486.6119667158
 21
320.1346816168
 31
0.0
  0
LINE
  5
2C4
330
1F
100
AcDbEntity
  8
0
  6
Continuous
 62
     7
370
    25
100
AcDbLine
 10
486.6119667158
 20
320.1346816168
 30
0.0
 11
486.0464753699
 21
320.461132822
 31
0.0
  0
LINE
  5
2C5
330
1F
100
AcDbEntity
  8
0
  6
Continuous
 62
     7
370
    25
100
AcDbLine
 10
486.4011223517
 20
328.0707592984
 30
0.0
 11
486.0464753699
 21
320.461132822
 31
0.0
  0
LWPOLYLINE
  5
2C6
330
1F
100
AcDbEntity
  8
0
  6
Continuous
 62
     7
370
    25
100
AcDbPolyline
 90
       48
 70
   128
 43
0.0
 10
528.7693853068
 20
303.612081712
 10
528.6534929429
 20
305.2558476202
 10
528.4496710694
 20
306.9384423866
 10
528.1587703487
 20
308.6528436051
 10
527.7820048717
 20
310.3918961235
 10
527.3209470908
 20
312.1483419058
 10
526.7775212573
 20
313.9148503245
 10
526.1539953901
 20
315.6840487548
 10
525.4529718104
 20
317.4485533453
 10
524.6773762805
 20
319.2009998343
 10
523.830445793
 20
320.9340742856
 10
522.915715061
 20
322.640543613
 10
521.9370017661
 20
324.3132857686
 10
520.8983906243
 20
325.9453194665
 10
519.8042163393
 20
327.5298333202
 10
518.6590455105
 20
329.0602142698
 10
517.4676575741
 20
330.5300751822
 10
516.2350248565
 20
331.9332815083
 10
514.9662918212
 20
333.2639768856
 10
513.6667535987
 20
334.5166075803
 10
512.3418338866
 20
335.6859456661
 10
510.9970623136
 20
336.767110843
 10
509.6380513614
 20
337.7555908061
 10
508.2704729405
 20
338.6472600771
 10
506.9000347181
 20
339.4383972231
 10
505.5324562971
 20
340.1257003875
 10
504.1734453449
 20
340.7063010711
 10
502.828673772
 20
341.1777761033
 10
501.5037540599
 20
341.5381577562
 10
500.2042158374
 20
341.7859419559
 10
498.9354828021
 20
341.920094561
 10
497.7028500845
 20
341.9400556777
 10
496.5114621481
 20
341.8457419973
 10
495.3662913192
 20
341.6375471432
 10
494.2721170342
 20
341.3163400287
 10
493.2335058925
 20
340.8834612303
 10
492.2547925975
 20
340.3407173924
 10
491.3400618656
 20
339.6903736879
 10
490.4931313781
 20
338.9351443635
 10
489.7175358481
 20
338.0781814123
 10
489.0165122684
 20
337.1230614187
 10
488.3929864013
 20
336.073770631
 10
487.8495605678
 20
334.9346883245
 10
487.3885027869
 20
333.7105685251
 10
487.0117373099
 20
332.4065201672
 10
486.7208365892
 20
331.0279857717
 10
486.5170147157
 20
329.5807187313
 10
486.4011223517
 20
328.0707592984
  0
LINE
  5
2C7
330
1F
100
AcDbEntity
  8
0
  6
Continuous
 62
     7
370
    25
100
AcDbLine
 10
528.7693853068
 20
303.612081712
 30
0.0
 11
529.1240322887
 21
295.5929885462
 31
0.0
  0
LINE
  5
2C8
330
1F
100
AcDbEntity
  8
0
  6
Continuous
 62
     7
370
    25
100
AcDbLine
 10
529.1240322887
 20
295.5929885462
 30
0.0
 11
528.5585409427
 21
295.9194397515
 31
0.0
  0
LINE
  5
2C9
330
1F
100
AcDbEntity
  8
0
  6
Continuous
 62
     7
370
    25
100
AcDbLine
 10
528.5585409427
 20
295.9194397515
 30
0.0
 11
529.2255830729
 21
280.8366299124
 31
0.0
  0
LINE
  5
2CA
330
1F
100
AcDbEntity
  8
0
  6
Continuous
 62
     7
370
    25
100
AcDbLine
 10
529.2255830729
 20
280.8366299124
 30
0.0
 11
529.7910744188
 21
280.5101787071
 31
0.0
  0
LWPOLYLINE
  5
2CB
330
1F
100
AcDbEntity
  8
0
  6
Continuous
 62
     7
370
    25
100
AcDbPolyline
 90
       29
 70
   128
 43
0.0
 10
502.8698701364
 20
327.4746750601
 10
503.2696092996
 20
327.1919002698
 10
503.6493038721
 20
326.8192844216
 10
503.9899143824
 20
326.3755120302
 10
504.2743611973
 20
325.8828356961
 10
504.4883809658
 20
325.3659602681
 10
504.621241843
 20
324.8508040384
 10
504.6662816297
 20
324.3631990914
 10
504.621241843
 20
323.9275959753
 10
504.4883809658
 20
323.5658376492
 10
504.2743611973
 20
323.2960641862
 10
503.9899143824
 20
323.1318031541
 10
503.6493038721
 20
323.0812912871
 10
503.2696092996
 20
323.147061461
 10
502.8698701364
 20
323.3258156847
 10
502.4701309731
 20
323.608590475
 10
502.0904364006
 20
323.9812063232
 10
501.7498258903
 20
324.4249787146
 10
501.4653790754
 20
324.9176550487
 10
501.2513593069
 20
325.4345304767
 10
501.1184984297
 20
325.9496867064
 10
501.073458643
 20
326.4372916534
 10
501.1184984297
 20
326.8728947695
 10
501.2513593069
 20
327.2346530956
 10
501.4653790754
 20
327.5044265586
 10
501.7498258903
 20
327.6686875907
 10
502.0904364006
 20
327.7191994577
 10
502.4701309731
 20
327.6534292838
 10
502.8698701364
 20
327.4746750601
  0
LINE
  5
2CC
330
1F
100
AcDbEntity
  8
0
  6
Continuous
 62
     7
370
    25
100
AcDbLine
 10
509.0810478297
 20
296.8116142789
 30
0.0
 11
509.0810478297
 21
289.4627469719
 31
0.0
  0
LINE
  5
2CD
330
1F
100
AcDbEntity
  8
0
  6
Continuous
 62
     7
370
    25
100
AcDbLine
 10
509.0810478297
 20
289.4627469719
 30
0.0
 11
516.8592224227
 21
284.9725023569
 31
0.0
  0
LINE
  5
2CE
330
1F
100
AcDbEntity
  8
0
  6
Continuous
 62
     7
370
    25
100
AcDbLine
 10
516.8592224227
 20
284.9725023569
 30
0.0
 11
516.8592224227
 21
292.3213696639
 31
0.0
  0
LINE
  5
2CF
330
1F
100
AcDbEntity
  8
0
  6
Continuous
 62
     7
370
    25
100
AcDbLine
 10
516.8592224227
 20
292.3213696639
 30
0.0
 11
509.0810478297
 21
296.8116142789
 31
0.0
  0
LINE
  5
2D0
330
1F
100
AcDbEntity
  8
0
  6
Continuous
 62
     7
370
    25
100
AcDbLine
 10
528.7693853068
 20
303.612081712
 30
0.0
 11
529.3350707318
 21
303.9386449568
 31
0.0
  0
LWPOLYLINE
  5
2D1
330
1F
100
AcDbEntity
  8
0
  6
Continuous
 62
     7
370
    25
100
AcDbPolyline
 90
       37
 70
   128
 43
0.0
 10
529.3350707318
 20
303.9386449568
 10
529.2191783678
 20
305.5824108649
 10
529.0153564943
 20
307.2650056314
 10
528.7244557736
 20
308.9794068499
 10
528.3476902966
 20
310.7184593682
 10
527.8866325158
 20
312.4749051505
 10
527.3432066822
 20
314.2414135692
 10
526.7196808151
 20
316.0106119995
 10
526.0186572354
 20
317.77511659
 10
525.2430617055
 20
319.5275630791
 10
524.396131218
 20
321.2606375303
 10
523.481400486
 20
322.9671068578
 10
522.502687191
 20
324.6398490133
 10
521.4640760493
 20
326.2718827113
 10
520.3699017643
 20
327.8563965649
 10
519.2247309354
 20
329.3867775145
 10
518.0333429991
 20
330.8566384269
 10
516.8007102814
 20
332.259844753
 10
515.5319772461
 20
333.5905401303
 10
514.2324390236
 20
334.843170825
 10
512.9075193115
 20
336.0125089108
 10
511.5627477386
 20
337.0936740878
 10
510.2037367864
 20
338.0821540508
 10
508.8361583654
 20
338.9738233218
 10
507.465720143
 20
339.7649604678
 10
506.0981417221
 20
340.4522636322
 10
504.7391307699
 20
341.0328643158
 10
503.3943591969
 20
341.5043393481
 10
502.0694394848
 20
341.8647210009
 10
500.7699012623
 20
342.1125052006
 10
499.5011682271
 20
342.2466578057
 10
498.2685355094
 20
342.2666189224
 10
497.0771475731
 20
342.172305242
 10
495.9319767442
 20
341.9641103879
 10
494.8378024592
 20
341.6429032735
 10
493.7991913175
 20
341.210024475
 10
493.1521582647
 20
340.8674162953
  0
ARC
  5
2D2
330
1F
100
AcDbEntity
  8
0
  6
Continuous
 62
     7
370
    25
100
AcDbCircle
 10
461.7314676641
 20
235.3149120673
 30
0.0
 40
1.383517599791412
100
AcDbArc
 50
25.0824589343
 51
63.381896431
  0
ARC
  5
2D3
330
1F
100
AcDbEntity
  8
0
  6
Continuous
 62
     7
370
    25
100
AcDbCircle
 10
460.6979847958
 20
234.0296309022
 30
0.0
 40
3.015774477962467
100
AcDbArc
 50
56.7539173129
 51
141.6353050419
  0
ARC
  5
2D4
330
1F
100
AcDbEntity
  8
0
  6
Continuous
 62
     7
370
    25
100
AcDbCircle
 10
417.3304335163
 20
248.7555489633
 30
0.0
 40
5.673532245617976
100
AcDbArc
 50
265.7008082265
 51
283.0536910134
  0
ARC
  5
2D5
330
1F
100
AcDbEntity
  8
0
  6
Continuous
 62
     7
370
    25
100
AcDbCircle
 10
415.162772826
 20
245.0198959255
 30
0.0
 40
1.19780172005758
100
AcDbArc
 50
150.0030925985
 51
181.7310719026
  0
LINE
  5
2D6
330
1F
100
AcDbEntity
  8
0
  6
Continuous
 62
     7
370
    25
100
AcDbLine
 10
529.1240322887
 20
295.5929885462
 30
0.0
 11
529.6897177136
 21
295.9195517909
 31
0.0
  0
LINE
  5
2D7
330
1F
100
AcDbEntity
  8
0
  6
Continuous
 62
     7
370
    25
100
AcDbLine
 10
529.3350707318
 20
303.9386449568
 30
0.0
 11
529.6897177136
 21
295.9195517909
 31
0.0
  0
LINE
  5
2D8
330
1F
100
AcDbEntity
  8
0
  6
Continuous
 62
     7
370
    25
100
AcDbLine
 10
529.2255830729
 20
280.8366299124
 30
0.0
 11
529.7912684978
 21
281.1631931571
 31
0.0
  0
LINE
  5
2D9
330
1F
100
AcDbEntity
  8
0
  6
Continuous
 62
     7
370
    25
100
AcDbLine
 10
529.1523823446
 20
295.6093546851
 30
0.0
 11
529.7912684978
 21
281.1631931571
 31
0.0
  0
LINE
  5
2DA
330
1F
100
AcDbEntity
  8
0
  6
Continuous
 62
     7
370
    25
100
AcDbLine
 10
510.7180669009
 20
324.946791172
 30
0.0
 11
510.2937338717
 21
324.7018289284
 31
0.0
  0
LINE
  5
2DB
330
1F
100
AcDbEntity
  8
0
  6
Continuous
 62
     7
370
    25
100
AcDbLine
 10
510.8594192967
 20
315.3115565117
 30
0.0
 11
510.2937338717
 21
314.984993267
 31
0.0
  0
LINE
  5
2DC
330
1F
100
AcDbEntity
  8
0
  6
Continuous
 62
     7
370
    25
100
AcDbLine
 10
510.8594192967
 20
324.8651901708
 30
0.0
 11
510.8594192967
 21
315.3115565117
 31
0.0
  0
LWPOLYLINE
  5
2DD
330
1F
100
AcDbEntity
  8
0
  6
Continuous
 62
     7
370
    25
100
AcDbPolyline
 90
       27
 70
   128
 43
0.0
 10
505.6907540289
 20
254.8767972765
 10
506.0994385479
 20
254.6919590608
 10
506.5728724539
 20
254.5689533057
 10
507.083541489
 20
254.5149286584
 10
507.6017674253
 20
254.5330248352
 10
508.097432855
 20
254.6221901519
 10
508.5417315049
 20
254.7772426446
 10
508.9088423524
 20
254.9891712259
 10
509.1774302496
 20
255.2456593769
 10
509.3318858441
 20
255.5318009388
 10
509.3632327382
 20
255.8309664039
 10
509.2696491643
 20
256.1257693628
 10
509.0565738596
 20
256.3990769392
 10
508.7363899862
 20
256.6350054902
 10
508.3277054672
 20
256.8198437059
 10
507.8542715613
 20
256.942849461
 10
507.3436025261
 20
256.9968741083
 10
506.8253765898
 20
256.9787779315
 10
506.3297111601
 20
256.8896126148
 10
505.8854125103
 20
256.7345601221
 10
505.5183016627
 20
256.5226315408
 10
505.2497137655
 20
256.2661433898
 10
505.095258171
 20
255.9800018279
 10
505.063911277
 20
255.6808363628
 10
505.1574948509
 20
255.3860334039
 10
505.3705701556
 20
255.1127258275
 10
505.6907540289
 20
254.8767972765
  0
LWPOLYLINE
  5
2DE
330
1F
100
AcDbEntity
  8
0
  6
Continuous
 62
     7
370
    25
100
AcDbPolyline
 90
       23
 70
   128
 43
0.0
 10
510.2809161534
 20
255.9845541419
 10
510.323373984
 20
255.9279399067
 10
510.5149201771
 20
255.5634155209
 10
510.5795974113
 20
255.184322815
 10
510.5149201771
 20
254.8052301091
 10
510.323373984
 20
254.4407057233
 10
510.012319845
 20
254.1047581253
 10
509.5937113962
 20
253.8102975929
 10
509.0836355255
 20
253.5686400792
 10
508.5016941625
 20
253.389072347
 10
507.8702509875
 20
253.2784950835
 10
507.2135720076
 20
253.2411577109
 10
506.5568930276
 20
253.2784950835
 10
505.9254498526
 20
253.389072347
 10
505.3435084896
 20
253.5686400792
 10
504.8334326189
 20
253.8102975929
 10
504.4148241701
 20
254.1047581253
 10
504.1037700311
 20
254.4407057233
 10
503.9122238381
 20
254.8052301091
 10
503.8475466038
 20
255.184322815
 10
503.9122238381
 20
255.5634155209
 10
504.1037700311
 20
255.9279399067
 10
504.1779387044
 20
256.023886025
  0
LINE
  5
2DF
330
1F
100
AcDbEntity
  8
0
  6
Continuous
 62
     7
370
    25
100
AcDbLine
 10
514.3383846545
 20
312.6499864439
 30
0.0
 11
513.9141205914
 21
312.4050640136
 31
0.0
  0
LINE
  5
2E0
330
1F
100
AcDbEntity
  8
0
  6
Continuous
 62
     7
370
    25
100
AcDbLine
 10
511.2836833654
 20
314.576709591
 30
0.0
 11
510.7179979404
 21
314.2501463463
 31
0.0
  0
LINE
  5
2E1
330
1F
100
AcDbEntity
  8
0
  6
Continuous
 62
     7
370
    25
100
AcDbLine
 10
511.2836833654
 20
314.576709591
 30
0.0
 11
514.3383846601
 21
312.8132680695
 31
0.0
  0
LWPOLYLINE
  5
2E2
330
1F
100
AcDbEntity
  8
0
  6
Continuous
 62
     7
370
    25
100
AcDbPolyline
 90
       22
 70
   128
 43
0.0
 10
506.1529118358
 20
255.1435952995
 10
505.8873989173
 20
255.3512787273
 10
505.7397222977
 20
255.5949146538
 10
505.7230036927
 20
255.8528549577
 10
505.8387286238
 20
256.1021805111
 10
506.0766144228
 20
256.3207376443
 10
506.4155238928
 20
256.489106597
 10
506.8253434399
 20
256.5923270488
 10
507.269658799
 20
256.6212274097
 10
507.7089906005
 20
256.5732397557
 10
508.1043022859
 20
256.4526280005
 10
508.4204686772
 20
256.2701090278
 10
508.629397003
 20
256.0419004494
 10
508.7125230647
 20
255.7882795988
 10
508.662460747
 20
255.5317818018
 10
508.4836583064
 20
255.295198013
 10
508.1920031245
 20
255.0995497405
 10
507.813410044
 20
254.9622211918
 10
507.3815187217
 20
254.8954146112
 10
506.9347045968
 20
254.9050660564
 10
506.5126690651
 20
254.9903179542
 10
506.1529118358
 20
255.1435952995
  0
LWPOLYLINE
  5
2E3
330
1F
100
AcDbEntity
  8
0
  6
Continuous
 62
     7
370
    25
100
AcDbPolyline
 90
        3
 70
   128
 43
0.0
 10
508.2742321793
 20
255.7149748177
 10
508.5397450978
 20
255.5072913899
 10
508.602778963
 20
255.4292850586
  0
ARC
  5
2E4
330
1F
100
AcDbEntity
  8
0
  6
Continuous
 62
     7
370
    25
100
AcDbCircle
 10
507.2421379019
 20
253.9184807853
 30
0.0
 40
2.071861338449417
100
AcDbArc
 50
60.1224297019
 51
133.180510262
  0
LWPOLYLINE
  5
2E5
330
1F
100
AcDbEntity
  8
0
  6
Continuous
 62
     7
370
    25
100
AcDbPolyline
 90
       14
 70
   128
 43
0.0
 10
501.9144435404
 20
327.7085047632
 10
501.8170447318
 20
327.5612163403
 10
501.6841838547
 20
327.1994580142
 10
501.6391440679
 20
326.7638548981
 10
501.6841838547
 20
326.2762499511
 10
501.8170447318
 20
325.7610937214
 10
502.0310645003
 20
325.2442182934
 10
502.3155113153
 20
324.7515419594
 10
502.6561218256
 20
324.3077695679
 10
503.035816398
 20
323.9351537197
 10
503.4355555613
 20
323.6523789294
 10
503.8352947246
 20
323.4736247057
 10
504.214989297
 20
323.4078545318
 10
504.3909821573
 20
323.4185492263
  0
ARC
  5
2E6
330
1F
100
AcDbEntity
  8
0
  6
Continuous
 62
     7
370
    25
100
AcDbCircle
 10
512.7188218756
 20
312.6773025012
 30
0.0
 40
2.066158043286683
100
AcDbArc
 50
163.5801464232
 51
256.414477052
  0
ARC
  5
2E7
330
1F
100
AcDbEntity
  8
0
  6
Continuous
 62
     7
370
    25
100
AcDbCircle
 10
511.7805489575
 20
315.3534730231
 30
0.0
 40
0.9220828845434648
100
AcDbArc
 50
182.6054784857
 51
237.39452166
  0
LINE
  5
2E8
330
1F
100
AcDbEntity
  8
0
  6
Continuous
 62
     7
370
    25
100
AcDbLine
 10
530.2802386475
 20
269.4494514917
 30
0.0
 11
530.8459240725
 21
269.7760147365
 31
0.0
  0
LINE
  5
2E9
330
1F
100
AcDbEntity
  8
0
  6
Continuous
 62
     7
370
    25
100
AcDbLine
 10
529.7910744188
 20
280.5101787071
 30
0.0
 11
530.3567598437
 21
280.8367419518
 31
0.0
  0
LINE
  5
2EA
330
1F
100
AcDbEntity
  8
0
  6
Continuous
 62
     7
370
    25
100
AcDbLine
 10
530.3567598437
 20
280.8367419518
 30
0.0
 11
530.8459240725
 21
269.7760147365
 31
0.0
  0
ARC
  5
2EB
330
1F
100
AcDbEntity
  8
0
  6
Continuous
 62
     7
370
    25
100
AcDbCircle
 10
516.405960163
 20
253.5746494865
 30
0.0
 40
1.537021907911698
100
AcDbArc
 50
62.6096722366
 51
117.3903277634
  0
LINE
  5
2EC
330
1F
100
AcDbEntity
  8
0
  6
Continuous
 62
     7
370
    25
100
AcDbLine
 10
517.1130669442
 20
254.2861279219
 30
0.0
 11
517.1130669442
 21
254.9393605714
 31
0.0
  0
ARC
  5
2ED
330
1F
100
AcDbEntity
  8
0
  6
Continuous
 62
     7
370
    25
100
AcDbCircle
 10
516.405960163
 20
252.921416837
 30
0.0
 40
1.537021907911925
100
AcDbArc
 50
62.6096722366
 51
117.3903277634
  0
ARC
  5
2EE
330
1F
100
AcDbEntity
  8
0
  6
Continuous
 62
     7
370
    25
100
AcDbCircle
 10
470.9159513092
 20
281.1107462365
 30
0.0
 40
0.4366153168342458
100
AcDbArc
 50
290.7834207995
 51
69.2165792005
  0
LINE
  5
2EF
330
1F
100
AcDbEntity
  8
0
  6
Continuous
 62
     7
370
    25
100
AcDbLine
 10
478.9073052757
 20
286.0428232714
 30
0.0
 11
471.070878336
 21
281.5189502925
 31
0.0
  0
LINE
  5
2F0
330
1F
100
AcDbEntity
  8
0
  6
Continuous
 62
     7
370
    25
100
AcDbLine
 10
478.9073052757
 20
286.0428232714
 30
0.0
 11
524.9494938839
 21
259.4632335504
 31
0.0
  0
LINE
  5
2F1
330
1F
100
AcDbEntity
  8
0
  6
Continuous
 62
     7
370
    25
100
AcDbLine
 10
524.9494938839
 20
259.4632335504
 30
0.0
 11
517.1130669442
 21
254.9393605714
 31
0.0
  0
LINE
  5
2F2
330
1F
100
AcDbEntity
  8
0
  6
Continuous
 62
     7
370
    25
100
AcDbLine
 10
529.7912684978
 20
281.1631931571
 30
0.0
 11
530.3567598437
 21
280.8367419518
 31
0.0
  0
LINE
  5
2F3
330
1F
100
AcDbEntity
  8
0
  6
Continuous
 62
     7
370
    25
100
AcDbLine
 10
524.9494938839
 20
259.4632335504
 30
0.0
 11
524.9494938839
 21
258.8100009009
 31
0.0
  0
LINE
  5
2F4
330
1F
100
AcDbEntity
  8
0
  6
Continuous
 62
     7
370
    25
100
AcDbLine
 10
524.9494938839
 20
258.8100009009
 30
0.0
 11
517.1130669442
 21
254.2861279219
 31
0.0
  0
ELLIPSE
  5
2F5
330
1F
100
AcDbEntity
  8
0
  6
Continuous
 62
     7
370
    25
100
AcDbEllipse
 10
524.6233843981
 20
266.1838190444
 30
0.0
 11
4.032646596556106
 21
7.828797890599618
 31
0.0
210
0.0
220
0.0
230
1.0
 40
0.6067559047
 41
3.897835517231527
 42
5.468631844026397
  0
ELLIPSE
  5
2F6
330
1F
100
AcDbEntity
  8
0
  6
Continuous
 62
     7
370
    25
100
AcDbEllipse
 10
524.6233843981
 20
266.1838190444
 30
0.0
 11
3.63041452416735
 21
7.136738958382125
 31
0.0
210
0.0
220
0.0
230
1.0
 40
0.6095855012
 41
3.894598709916808
 42
5.465395036711706
  0
ELLIPSE
  5
2F7
330
1F
100
AcDbEntity
  8
0
  6
Continuous
 62
     7
370
    25
100
AcDbEllipse
 10
479.2334147615
 20
292.3868907675
 30
0.0
 11
4.325630798801002
 21
6.737178717627672
 31
0.0
210
0.0
220
0.0
230
1.0
 40
0.5432473248
 41
3.952573474325353
 42
5.523369801120268
  0
LINE
  5
2F8
330
1F
100
AcDbEntity
  8
0
  6
Continuous
 62
     7
370
    25
100
AcDbLine
 10
509.2366355702
 20
309.8837945286
 30
0.0
 11
509.0810467928
 21
309.7939750393
 31
0.0
  0
LINE
  5
2F9
330
1F
100
AcDbEntity
  8
0
  6
Continuous
 62
     7
370
    25
100
AcDbLine
 10
509.6467322178
 20
300.7221535392
 30
0.0
 11
509.0810467928
 21
300.3955902945
 31
0.0
  0
LINE
  5
2FA
330
1F
100
AcDbEntity
  8
0
  6
Continuous
 62
     7
370
    25
100
AcDbLine
 10
509.6467322178
 20
309.6470507732
 30
0.0
 11
509.6467322178
 21
300.7221535392
 31
0.0
  0
LINE
  5
2FB
330
1F
100
AcDbEntity
  8
0
  6
Continuous
 62
     7
370
    25
100
AcDbLine
 10
503.0742274341
 20
313.2156862579
 30
0.0
 11
502.5500998051
 21
312.9131138182
 31
0.0
  0
LINE
  5
2FC
330
1F
100
AcDbEntity
  8
0
  6
Continuous
 62
     7
370
    25
100
AcDbLine
 10
510.0992805557
 20
299.8077472588
 30
0.0
 11
509.9437170659
 21
299.7179423677
 31
0.0
  0
LINE
  5
2FD
330
1F
100
AcDbEntity
  8
0
  6
Continuous
 62
     7
370
    25
100
AcDbLine
 10
509.8022957097
 20
300.4527096683
 30
0.0
 11
509.2366102847
 21
300.1261464236
 31
0.0
  0
LINE
  5
2FE
330
1F
100
AcDbEntity
  8
0
  6
Continuous
 62
     7
370
    25
100
AcDbLine
 10
509.8022957097
 20
300.4527096683
 30
0.0
 11
510.0992805578
 21
300.2812639648
 31
0.0
  0
LINE
  5
2FF
330
1F
100
AcDbEntity
  8
0
  6
Continuous
 62
     7
370
    25
100
AcDbLine
 10
502.2760718478
 20
312.8735322313
 30
0.0
 11
501.9137037189
 21
312.6643415632
 31
0.0
  0
ARC
  5
300
330
1F
100
AcDbEntity
  8
0
  6
Continuous
 62
     7
370
    25
100
AcDbCircle
 10
509.9844797601
 20
300.7375229267
 30
0.0
 40
0.3380970576655162
100
AcDbArc
 50
182.6054784856
 51
237.3945216603
  0
LINE
  5
301
330
1F
100
AcDbEntity
  8
0
  6
Continuous
 62
     7
370
    25
100
AcDbLine
 10
502.4793891438
 20
303.1853972947
 30
0.0
 11
501.9137037189
 21
302.85883405
 31
0.0
  0
LINE
  5
302
330
1F
100
AcDbEntity
  8
0
  6
Continuous
 62
     7
370
    25
100
AcDbLine
 10
502.4793891438
 20
312.9029001151
 30
0.0
 11
502.4793891438
 21
303.1853972947
 31
0.0
  0
LINE
  5
303
330
1F
100
AcDbEntity
  8
0
  6
Continuous
 62
     7
370
    25
100
AcDbLine
 10
509.6467332546
 20
289.7893102166
 30
0.0
 11
509.0810478297
 21
289.4627469719
 31
0.0
  0
LINE
  5
304
330
1F
100
AcDbEntity
  8
0
  6
Continuous
 62
     7
370
    25
100
AcDbLine
 10
516.8592224227
 20
285.6256288464
 30
0.0
 11
509.6467332546
 21
289.7893102166
 31
0.0
  0
LINE
  5
305
330
1F
100
AcDbEntity
  8
0
  6
Continuous
 62
     7
370
    25
100
AcDbLine
 10
509.6467332546
 20
289.7893102166
 30
0.0
 11
509.6467332546
 21
296.4850510342
 31
0.0
  0
LINE
  5
306
330
1F
100
AcDbEntity
  8
0
  6
Continuous
 62
     7
370
    25
100
AcDbLine
 10
503.5200104279
 20
301.363357082
 30
0.0
 11
502.9543250029
 21
301.0367938372
 31
0.0
  0
LINE
  5
307
330
1F
100
AcDbEntity
  8
0
  6
Continuous
 62
     7
370
    25
100
AcDbLine
 10
503.5200104279
 20
301.363357082
 30
0.0
 11
505.4492377091
 21
300.2496378787
 31
0.0
  0
LINE
  5
308
330
1F
100
AcDbEntity
  8
0
  6
Continuous
 62
     7
370
    25
100
AcDbLine
 10
502.642983485
 20
302.7501116163
 30
0.0
 11
502.0772980601
 21
302.4235483716
 31
0.0
  0
LINE
  5
309
330
1F
100
AcDbEntity
  8
0
  6
Continuous
 62
     7
370
    25
100
AcDbLine
 10
503.1132709176
 20
302.1392008314
 30
0.0
 11
502.5475854927
 21
301.8126375867
 31
0.0
  0
LINE
  5
30A
330
1F
100
AcDbEntity
  8
0
  6
Continuous
 62
     7
370
    25
100
AcDbLine
 10
502.642983485
 20
302.7501116163
 30
0.0
 11
503.1132709176
 21
302.1392008314
 31
0.0
  0
LINE
  5
30B
330
1F
100
AcDbEntity
  8
0
  6
Continuous
 62
     7
370
    25
100
AcDbLine
 10
503.219225566
 20
301.7721540981
 30
0.0
 11
502.653540141
 21
301.4455908533
 31
0.0
  0
LINE
  5
30C
330
1F
100
AcDbEntity
  8
0
  6
Continuous
 62
     7
370
    25
100
AcDbLine
 10
503.219225566
 20
301.7721540981
 30
0.0
 11
503.5200104279
 21
301.363357082
 31
0.0
  0
LINE
  5
30D
330
1F
100
AcDbEntity
  8
0
  6
Continuous
 62
     7
370
    25
100
AcDbLine
 10
502.4793891438
 20
303.1853972947
 30
0.0
 11
502.642983485
 21
302.7501116163
 31
0.0
  0
LINE
  5
30E
330
1F
100
AcDbEntity
  8
0
  6
Continuous
 62
     7
370
    25
100
AcDbLine
 10
503.1132709176
 20
302.1392008314
 30
0.0
 11
503.219225566
 21
301.7721540981
 31
0.0
  0
LWPOLYLINE
  5
30F
330
1F
100
AcDbEntity
  8
0
  6
Continuous
 62
     7
370
    25
100
AcDbPolyline
 90
       27
 70
   128
 43
0.0
 10
469.5480603573
 20
275.7415302148
 10
469.227876484
 20
275.9774587657
 10
469.0148011793
 20
276.2507663421
 10
468.9212176054
 20
276.5455693011
 10
468.9525644994
 20
276.8447347662
 10
469.1070200939
 20
277.130876328
 10
469.3756079911
 20
277.3873644791
 10
469.7427188387
 20
277.5992930604
 10
470.1870174886
 20
277.754345553
 10
470.6826829182
 20
277.8435108698
 10
471.2009088545
 20
277.8616070466
 10
471.7115778897
 20
277.8075823993
 10
472.1850117957
 20
277.6845766441
 10
472.5936963147
 20
277.4997384285
 10
472.913880188
 20
277.2638098775
 10
473.1269554927
 20
276.9905023011
 10
473.2205390666
 20
276.6956993422
 10
473.1891921725
 20
276.3965338771
 10
473.034736578
 20
276.1103923152
 10
472.7661486808
 20
275.8539041641
 10
472.3990378333
 20
275.6419755829
 10
471.9547391834
 20
275.4869230902
 10
471.4590737537
 20
275.3977577735
 10
470.9408478175
 20
275.3796615967
 10
470.4301787823
 20
275.433686244
 10
469.9567448763
 20
275.5566919991
 10
469.5480603573
 20
275.7415302148
  0
LWPOLYLINE
  5
310
330
1F
100
AcDbEntity
  8
0
  6
Continuous
 62
     7
370
    25
100
AcDbPolyline
 90
       16
 70
   128
 43
0.0
 10
468.6907389473
 20
274.6750305312
 10
469.200814818
 20
274.4333730175
 10
469.782756181
 20
274.2538052853
 10
470.414199356
 20
274.1432280217
 10
471.070878336
 20
274.1058906491
 10
471.7275573159
 20
274.1432280217
 10
472.3590004909
 20
274.2538052853
 10
472.9409418539
 20
274.4333730175
 10
473.4510177246
 20
274.6750305312
 10
473.8696261735
 20
274.9694910636
 10
474.1806803124
 20
275.3054386616
 10
474.3722265055
 20
275.6699630474
 10
474.4369037398
 20
276.0490557533
 10
474.3722265055
 20
276.4281484592
 10
474.1806803124
 20
276.792672845
 10
474.1198860892
 20
276.8723090673
  0
LWPOLYLINE
  5
311
330
1F
100
AcDbEntity
  8
0
  6
Continuous
 62
     7
370
    25
100
AcDbPolyline
 90
        8
 70
   128
 43
0.0
 10
468.0285963198
 20
276.880559931
 10
467.9610763595
 20
276.792672845
 10
467.7695301665
 20
276.4281484592
 10
467.7048529322
 20
276.0490557533
 10
467.7695301665
 20
275.6699630474
 10
467.9610763595
 20
275.3054386616
 10
468.2721304985
 20
274.9694910636
 10
468.6907389473
 20
274.6750305312
  0
LWPOLYLINE
  5
312
330
1F
100
AcDbEntity
  8
0
  6
Continuous
 62
     7
370
    25
100
AcDbPolyline
 90
       22
 70
   128
 43
0.0
 10
472.1315385078
 20
277.2329404055
 10
471.7717812784
 20
277.3862177507
 10
471.3497457467
 20
277.4714696486
 10
470.9029316218
 20
277.4811210938
 10
470.4710402995
 20
277.4143145131
 10
470.0924472191
 20
277.2769859644
 10
469.8007920371
 20
277.0813376919
 10
469.6219895965
 20
276.8447539032
 10
469.5719272788
 20
276.5882561061
 10
469.6550533405
 20
276.3346352556
 10
469.8639816663
 20
276.1064266771
 10
470.1801480576
 20
275.9239077045
 10
470.575459743
 20
275.8032959493
 10
471.0147915446
 20
275.7553082953
 10
471.4591069036
 20
275.7842086562
 10
471.8689264507
 20
275.887429108
 10
472.2078359207
 20
276.0557980607
 10
472.4457217198
 20
276.2743551939
 10
472.5614466508
 20
276.5236807473
 10
472.5447280458
 20
276.7816210511
 10
472.3970514262
 20
277.0252569776
 10
472.1315385078
 20
277.2329404055
  0
ARC
  5
313
330
1F
100
AcDbEntity
  8
0
  6
Continuous
 62
     7
370
    25
100
AcDbCircle
 10
471.0878330734
 20
274.8827825416
 30
0.0
 40
1.992203859241593
100
AcDbArc
 50
58.4061220283
 51
134.8968179357
  0
LWPOLYLINE
  5
314
330
1F
100
AcDbEntity
  8
0
  6
Continuous
 62
     7
370
    25
100
AcDbPolyline
 90
        3
 70
   128
 43
0.0
 10
472.4600852914
 20
276.2940179969
 10
472.3970514262
 20
276.3720243281
 10
472.1315385078
 20
276.579707756
  0
LINE
  5
315
330
1F
100
AcDbEntity
  8
0
  6
Continuous
 62
     7
370
    25
100
AcDbLine
 10
485.3794332398
 20
306.1484734333
 30
0.0
 11
485.9451186647
 21
306.475036678
 31
0.0
  0
LINE
  5
316
330
1F
100
AcDbEntity
  8
0
  6
Continuous
 62
     7
370
    25
100
AcDbLine
 10
485.9451186647
 20
306.475036678
 30
0.0
 11
485.9745660846
 21
306.4580370443
 31
0.0
  0
LINE
  5
317
330
1F
100
AcDbEntity
  8
0
  6
Continuous
 62
     7
370
    25
100
AcDbLine
 10
471.070878336
 20
281.5189502925
 30
0.0
 11
471.070878336
 21
280.8657176429
 31
0.0
  0
LINE
  5
318
330
1F
100
AcDbEntity
  8
0
  6
Continuous
 62
     7
370
    25
100
AcDbLine
 10
471.1883295971
 20
280.7841299118
 30
0.0
 11
471.070878336
 21
280.8657176429
 31
0.0
  0
ENDSEC
  0
SECTION
  2
OBJECTS
  0
DICTIONARY
  5
C
330
0
100
AcDbDictionary
281
     1
  3
ACAD_GROUP
350
D
  3
ACAD_LAYOUT
350
1A
  3
ACAD_MLINESTYLE
350
17
  3
ACAD_PLOTSETTINGS
350
19
  3
ACAD_PLOTSTYLENAME
350
E
  3
ACAD_SCALELIST
350
47
  0
DICTIONARY
  5
D
102
{ACAD_REACTORS
330
C
102
}
330
C
100
AcDbDictionary
281
     1
  0
DICTIONARY
  5
1A
102
{ACAD_REACTORS
330
C
102
}
330
C
100
AcDbDictionary
281
     1
  3
Layout1
350
1E
  3
Layout2
350
26
  3
Model
350
22
  0
DICTIONARY
  5
17
102
{ACAD_REACTORS
330
C
102
}
330
C
100
AcDbDictionary
281
     1
  3
Standard
350
18
  0
DICTIONARY
  5
19
102
{ACAD_REACTORS
330
C
102
}
330
C
100
AcDbDictionary
281
     1
  0
ACDBDICTIONARYWDFLT
  5
E
102
{ACAD_REACTORS
330
C
102
}
330
C
100
AcDbDictionary
281
     1
  3
Normal
350
F
100
AcDbDictionaryWithDefault
340
F
  0
DICTIONARY
  5
47
102
{ACAD_REACTORS
330
C
102
}
330
C
100
AcDbDictionary
281
     1
  3
A0
350
48
  3
A1
350
49
  3
A2
350
4A
  3
A3
350
4B
  3
A4
350
4C
  3
A5
350
4D
  3
A6
350
4E
  3
A7
350
4F
  3
A8
350
50
  3
A9
350
51
  3
B0
350
52
  3
B1
350
53
  3
B2
350
54
  3
B3
350
55
  3
B4
350
56
  3
B5
350
57
  3
B6
350
58
  3
B7
350
59
  3
B8
350
5A
  3
B9
350
5B
  3
C0
350
5C
  3
C1
350
5D
  3
C2
350
5E
  3
C3
350
5F
  3
C4
350
60
  3
C5
350
61
  3
C6
350
62
  3
C7
350
63
  3
C8
350
64
  3
C9
350
65
  3
D0
350
66
  3
D1
350
67
  3
D2
350
68
  0
LAYOUT
  5
1E
102
{ACAD_REACTORS
330
1A
102
}
330
1A
100
AcDbPlotSettings
  1

  2
none_device
  4

  6

 40
0.0
 41
0.0
 42
0.0
 43
0.0
 44
0.0
 45
0.0
 46
0.0
 47
0.0
 48
0.0
 49
0.0
140
0.0
141
0.0
142
1.0
143
1.0
 70
   688
 72
     1
 73
     0
 74
     5
  7

 75
    16
147
1.0
148
0.0
149
0.0
100
AcDbLayout
  1
Layout1
 70
     1
 71
     1
 10
0.0
 20
0.0
 11
420.0
 21
297.0
 12
0.0
 22
0.0
 32
0.0
 14
1.0000000000E+20
 24
1.0000000000E+20
 34
1.0000000000E+20
 15
-1.0000000000E+20
 25
-1.0000000000E+20
 35
-1.0000000000E+20
146
0.0
 13
0.0
 23
0.0
 33
0.0
 16
1.0
 26
0.0
 36
0.0
 17
0.0
 27
1.0
 37
0.0
 76
     0
330
1B
  0
LAYOUT
  5
26
102
{ACAD_REACTORS
330
1A
102
}
330
1A
100
AcDbPlotSettings
  1

  2
none_device
  4

  6

 40
0.0
 41
0.0
 42
0.0
 43
0.0
 44
0.0
 45
0.0
 46
0.0
 47
0.0
 48
0.0
 49
0.0
140
0.0
141
0.0
142
1.0
143
1.0
 70
   688
 72
     1
 73
     0
 74
     5
  7

 75
    16
147
1.0
148
0.0
149
0.0
100
AcDbLayout
  1
Layout2
 70
     1
 71
     2
 10
0.0
 20
0.0
 11
0.0
 21
0.0
 12
0.0
 22
0.0
 32
0.0
 14
0.0
 24
0.0
 34
0.0
 15
0.0
 25
0.0
 35
0.0
146
0.0
 13
0.0
 23
0.0
 33
0.0
 16
1.0
 26
0.0
 36
0.0
 17
0.0
 27
1.0
 37
0.0
 76
     0
330
23
  0
LAYOUT
  5
22
102
{ACAD_REACTORS
330
1A
102
}
330
1A
100
AcDbPlotSettings
  1

  2
none_device
  4
Letter_(8.50_x_11.00_Inches)
  6

 40
6.35
 41
6.35
 42
6.35000508
 43
6.35000508
 44
215.9
 45
279.4
 46
0.0
 47
0.0
 48
0.0
 49
0.0
140
0.0
141
0.0
142
1.0
143
1.0
 70
  1712
 72
     1
 73
     0
 74
     0
  7

 75
     0
147
1.0
148
0.0
149
0.0
100
AcDbLayout
  1
Model
 70
     1
 71
     0
 10
0.0
 20
0.0
 11
594.0
 21
420.0
 12
0.0
 22
0.0
 32
0.0
 14
0.0
 24
0.0
 34
0.0
 15
594.0
 25
420.0
 35
0.0
146
0.0
 13
0.0
 23
0.0
 33
0.0
 16
1.0
 26
0.0
 36
0.0
 17
0.0
 27
1.0
 37
0.0
 76
     0
330
1F
331
29
  0
MLINESTYLE
  5
18
102
{ACAD_REACTORS
330
17
102
}
330
17
100
AcDbMlineStyle
  2
Standard
 70
     0
  3

 62
   256
 51
90.0
 52
90.0
 71
     2
 49
0.5
 62
   256
  6
BYLAYER
 49
-0.5
 62
   256
  6
BYLAYER
  0
ACDBPLACEHOLDER
  5
F
102
{ACAD_REACTORS
330
E
102
}
330
E
  0
SCALE
  5
48
102
{ACAD_REACTORS
330
47
102
}
330
47
100
AcDbScale
 70
     0
300
1:1
140
1.0
141
1.0
290
     1
  0
SCALE
  5
49
102
{ACAD_REACTORS
330
47
102
}
330
47
100
AcDbScale
 70
     0
300
1:2
140
1.0
141
2.0
290
     0
  0
SCALE
  5
4A
102
{ACAD_REACTORS
330
47
102
}
330
47
100
AcDbScale
 70
     0
300
1:4
140
1.0
141
4.0
290
     0
  0
SCALE
  5
4B
102
{ACAD_REACTORS
330
47
102
}
330
47
100
AcDbScale
 70
     0
300
1:5
140
1.0
141
5.0
290
     0
  0
SCALE
  5
4C
102
{ACAD_REACTORS
330
47
102
}
330
47
100
AcDbScale
 70
     0
300
1:8
140
1.0
141
8.0
290
     0
  0
SCALE
  5
4D
102
{ACAD_REACTORS
330
47
102
}
330
47
100
AcDbScale
 70
     0
300
1:10
140
1.0
141
10.0
290
     0
  0
SCALE
  5
4E
102
{ACAD_REACTORS
330
47
102
}
330
47
100
AcDbScale
 70
     0
300
1:16
140
1.0
141
16.0
290
     0
  0
SCALE
  5
4F
102
{ACAD_REACTORS
330
47
102
}
330
47
100
AcDbScale
 70
     0
300
1:20
140
1.0
141
20.0
290
     0
  0
SCALE
  5
50
102
{ACAD_REACTORS
330
47
102
}
330
47
100
AcDbScale
 70
     0
300
1:30
140
1.0
141
30.0
290
     0
  0
SCALE
  5
51
102
{ACAD_REACTORS
330
47
102
}
330
47
100
AcDbScale
 70
     0
300
1:40
140
1.0
141
40.0
290
     0
  0
SCALE
  5
52
102
{ACAD_REACTORS
330
47
102
}
330
47
100
AcDbScale
 70
     0
300
1:50
140
1.0
141
50.0
290
     0
  0
SCALE
  5
53
102
{ACAD_REACTORS
330
47
102
}
330
47
100
AcDbScale
 70
     0
300
1:100
140
1.0
141
100.0
290
     0
  0
SCALE
  5
54
102
{ACAD_REACTORS
330
47
102
}
330
47
100
AcDbScale
 70
     0
300
2:1
140
2.0
141
1.0
290
     0
  0
SCALE
  5
55
102
{ACAD_REACTORS
330
47
102
}
330
47
100
AcDbScale
 70
     0
300
4:1
140
4.0
141
1.0
290
     0
  0
SCALE
  5
56
102
{ACAD_REACTORS
330
47
102
}
330
47
100
AcDbScale
 70
     0
300
8:1
140
8.0
141
1.0
290
     0
  0
SCALE
  5
57
102
{ACAD_REACTORS
330
47
102
}
330
47
100
AcDbScale
 70
     0
300
10:1
140
10.0
141
1.0
290
     0
  0
SCALE
  5
58
102
{ACAD_REACTORS
330
47
102
}
330
47
100
AcDbScale
 70
     0
300
100:1
140
100.0
141
1.0
290
     0
  0
SCALE
  5
59
102
{ACAD_REACTORS
330
47
102
}
330
47
100
AcDbScale
 70
     0
300
1/128" = 1'-0"
140
0.0078125
141
12.0
290
     0
  0
SCALE
  5
5A
102
{ACAD_REACTORS
330
47
102
}
330
47
100
AcDbScale
 70
     0
300
1/64" = 1'-0"
140
0.015625
141
12.0
290
     0
  0
SCALE
  5
5B
102
{ACAD_REACTORS
330
47
102
}
330
47
100
AcDbScale
 70
     0
300
1/32" = 1'-0"
140
0.03125
141
12.0
290
     0
  0
SCALE
  5
5C
102
{ACAD_REACTORS
330
47
102
}
330
47
100
AcDbScale
 70
     0
300
1/16" = 1'-0"
140
0.0625
141
12.0
290
     0
  0
SCALE
  5
5D
102
{ACAD_REACTORS
330
47
102
}
330
47
100
AcDbScale
 70
     0
300
3/32" = 1'-0"
140
0.09375
141
12.0
290
     0
  0
SCALE
  5
5E
102
{ACAD_REACTORS
330
47
102
}
330
47
100
AcDbScale
 70
     0
300
1/8" = 1'-0"
140
0.125
141
12.0
290
     0
  0
SCALE
  5
5F
102
{ACAD_REACTORS
330
47
102
}
330
47
100
AcDbScale
 70
     0
300
3/16" = 1'-0"
140
0.1875
141
12.0
290
     0
  0
SCALE
  5
60
102
{ACAD_REACTORS
330
47
102
}
330
47
100
AcDbScale
 70
     0
300
1/4" = 1'-0"
140
0.25
141
12.0
290
     0
  0
SCALE
  5
61
102
{ACAD_REACTORS
330
47
102
}
330
47
100
AcDbScale
 70
     0
300
3/8" = 1'-0"
140
0.375
141
12.0
290
     0
  0
SCALE
  5
62
102
{ACAD_REACTORS
330
47
102
}
330
47
100
AcDbScale
 70
     0
300
1/2" = 1'-0"
140
0.5
141
12.0
290
     0
  0
SCALE
  5
63
102
{ACAD_REACTORS
330
47
102
}
330
47
100
AcDbScale
 70
     0
300
3/4" = 1'-0"
140
0.75
141
12.0
290
     0
  0
SCALE
  5
64
102
{ACAD_REACTORS
330
47
102
}
330
47
100
AcDbScale
 70
     0
300
1" = 1'-0"
140
1.0
141
12.0
290
     0
  0
SCALE
  5
65
102
{ACAD_REACTORS
330
47
102
}
330
47
100
AcDbScale
 70
     0
300
1-1/2" = 1'-0"
140
1.5
141
12.0
290
     0
  0
SCALE
  5
66
102
{ACAD_REACTORS
330
47
102
}
330
47
100
AcDbScale
 70
     0
300
3" = 1'-0"
140
3.0
141
12.0
290
     0
  0
SCALE
  5
67
102
{ACAD_REACTORS
330
47
102
}
330
47
100
AcDbScale
 70
     0
300
6" = 1'-0"
140
6.0
141
12.0
290
     0
  0
SCALE
  5
68
102
{ACAD_REACTORS
330
47
102
}
330
47
100
AcDbScale
 70
     0
300
1'-0" = 1'-0"
140
12.0
141
12.0
290
     0
  0
ENDSEC
  0
EOF
