M48
;Layer_Color=9474304
;FILE_FORMAT=2:4
INCH,LZ
;TYPE=PLATED
T1F00S00C0.0280
T2F00S00C0.0295
T3F00S00C0.0354
T4F00S00C0.0362
T5F00S00C0.0394
T6F00S00C0.0433
T7F00S00C0.0531
T8F00S00C0.0743
T9F00S00C0.0906
T10F00S00C0.1181
;TYPE=NON_PLATED
T11F00S00C0.0866
%
T01
X0033Y00085
X0099Y000681
X012068Y00115
X012812Y00205
X013782Y001294
X014732Y001316
X016602Y001966
X01305Y00465
X0099Y005173
X00925Y002872
X023387Y00055
X0216Y005664
X025237Y00775
X02275Y01695
X018776Y016414
X017845Y015176
X018497Y013617
X01925Y0133
X020075Y013572
X020161Y01422
X020991Y012743
X0209Y012
X02095Y01125
X02097Y010644
X02098Y009913
X019829Y008254
X0194Y0078
X01855Y0076
X017045Y00955
X01735Y010117
X01725Y01095
X017151Y012686
X016425
X0158Y0127
X015686Y0119
X01515Y011572
X015094Y010855
X014479Y01135
X014516Y012579
X0127Y01235
X012136Y01285
X01205Y013707
X012636Y011212
X009326Y01125
X009Y00695
X0082Y0069
X0093Y005761
X01325Y0074
X0137Y008136
X01443Y00834
X014717Y009103
X0149Y007758
X01485Y00655
X015574Y006552
X013972Y015909
X01334Y016861
X012131Y018
X0092Y017619
X00865Y01665
X007Y018764
X005725Y0081
X0051Y007164
X00395Y00733
X000764Y007936
X00375Y011197
X0026Y012966
X005462Y01545
X00495Y018707
X0117Y022201
X0154Y022634
T02
X016369Y00135
X016944
X017519
X018094
X023614Y017006
X024189
X024763
X025338
T03
X02255Y0057
X02355
X02455
X0246Y00715
X0236
X0226
X023Y00855
X022
X024
X025
X024189Y0186
X023189
X0216Y01705
X0206
X020361Y006326
X019361
X018361
T04
X019528Y00455
X020513
X0213
X022284
X021896Y011212
Y012196
Y012983
Y013968
T05
X002822Y016845
T06
X021841Y02025
X022841
X020841
X019841
X018841
X017841
X016841
X015841
X014841
X013841
X012841
X011841
X010841
X009841
X008841
X007841
X006841
X005841
X004841
X003841
Y02125
X004841
X005841
X006841
X007841
X008841
X009841
X010841
X011841
X012841
X013841
X014841
X015841
X016841
X017841
X018841
X019841
X020841
X021841
X022841
T07
X005775Y016845
T08
X0077Y00285
Y005212
X00955Y004031
T09
X01832Y003483
X023493
X022963Y010003
Y015176
T10
X001818Y00135
X024678Y001179
T11
X0077Y001078
M30
