G04*
G04 #@! TF.GenerationSoftware,Altium Limited,Altium Designer,19.0.11 (319)*
G04*
G04 Layer_Physical_Order=1*
G04 Layer_Color=255*
%FSLAX24Y24*%
%MOIN*%
G70*
G01*
G75*
%ADD10C,0.0100*%
%ADD50R,0.1441X0.1024*%
%ADD51R,0.0276X0.0787*%
%ADD52R,0.0374X0.0276*%
%ADD53R,0.0374X0.0354*%
%ADD54R,0.0374X0.0354*%
%ADD55R,0.0394X0.0551*%
%ADD56R,0.1500X0.0819*%
%ADD57R,0.3500X0.4500*%
%ADD58R,0.0472X0.0768*%
%ADD59R,0.0512X0.0591*%
%ADD60R,0.0610X0.0531*%
%ADD61R,0.0472X0.0394*%
%ADD62R,0.0748X0.0531*%
%ADD63R,0.0461X0.0709*%
%ADD64R,0.0295X0.0433*%
%ADD65R,0.0335X0.0433*%
%ADD66R,0.0236X0.0335*%
%ADD67C,0.0591*%
%ADD68R,0.0610X0.0433*%
%ADD69R,0.0335X0.0236*%
%ADD70R,0.4803X0.3839*%
%ADD71R,0.0630X0.1378*%
%ADD72R,0.0768X0.1437*%
%ADD73C,0.0400*%
%ADD74C,0.0200*%
%ADD75C,0.0300*%
%ADD76C,0.0150*%
%ADD77C,0.0170*%
%ADD78C,0.0492*%
%ADD79R,0.0591X0.0591*%
%ADD80C,0.0797*%
%ADD81C,0.1358*%
%ADD82C,0.0563*%
%ADD83R,0.0563X0.0563*%
%ADD84C,0.0433*%
%ADD85C,0.1114*%
%ADD86R,0.0563X0.0563*%
%ADD87R,0.0656X0.0656*%
%ADD88C,0.0656*%
%ADD89C,0.0500*%
%ADD90C,0.1181*%
G36*
X9550Y26019D02*
X17337D01*
Y26019D01*
X17410Y26009D01*
X17478Y25981D01*
X17536Y25936D01*
X17581Y25878D01*
X17609Y25810D01*
X17619Y25738D01*
X17619D01*
Y22650D01*
X17629Y22600D01*
X17657Y22557D01*
X17700Y22529D01*
X17750Y22519D01*
X24179D01*
X24183Y22520D01*
X24393Y22506D01*
X24604Y22464D01*
X24807Y22395D01*
X24999Y22300D01*
X25178Y22181D01*
X25339Y22039D01*
X25481Y21878D01*
X25600Y21699D01*
X25695Y21507D01*
X25764Y21304D01*
X25800Y21122D01*
Y1100D01*
X25765Y954D01*
X25698Y792D01*
X25606Y642D01*
X25492Y508D01*
X25358Y394D01*
X25208Y302D01*
X25046Y235D01*
X24875Y194D01*
X24701Y180D01*
X24700Y181D01*
Y181D01*
X24695Y180D01*
X24650Y180D01*
X23538D01*
X23528Y230D01*
X23563Y244D01*
X23637Y300D01*
X23693Y373D01*
X23728Y459D01*
X23733Y500D01*
X23040D01*
X23046Y459D01*
X23081Y373D01*
X23137Y300D01*
X23210Y244D01*
X23246Y230D01*
X23236Y180D01*
X16001Y180D01*
Y844D01*
X15233D01*
Y180D01*
X14895D01*
Y745D01*
X14417D01*
X14397Y795D01*
X14611Y1010D01*
X14646Y996D01*
X14732Y984D01*
X14817Y996D01*
X14897Y1029D01*
X14966Y1081D01*
X15019Y1150D01*
X15052Y1230D01*
X15063Y1316D01*
X15052Y1402D01*
X15019Y1482D01*
X14966Y1550D01*
X14897Y1603D01*
X14817Y1636D01*
X14732Y1647D01*
X14646Y1636D01*
X14566Y1603D01*
X14497Y1550D01*
X14444Y1482D01*
X14411Y1402D01*
X14400Y1316D01*
X14411Y1230D01*
X14426Y1195D01*
X14143Y912D01*
X14114Y870D01*
X14104Y820D01*
Y745D01*
X13914D01*
Y993D01*
X13948Y1007D01*
X14017Y1060D01*
X14070Y1129D01*
X14103Y1209D01*
X14114Y1294D01*
X14103Y1380D01*
X14070Y1460D01*
X14017Y1529D01*
X13948Y1582D01*
X13868Y1615D01*
X13782Y1626D01*
X13697Y1615D01*
X13617Y1582D01*
X13548Y1529D01*
X13531Y1506D01*
X13481Y1523D01*
Y2366D01*
X13471Y2417D01*
X13469Y2419D01*
X13496Y2469D01*
X14388D01*
X15089Y1767D01*
X15089Y1767D01*
X15148Y1722D01*
X15215Y1694D01*
X15288Y1685D01*
X15288Y1685D01*
X16198D01*
X16208Y1635D01*
X16205Y1634D01*
X16138Y1582D01*
X16086Y1514D01*
X16053Y1435D01*
X16042Y1350D01*
X16053Y1265D01*
X16086Y1186D01*
X16138Y1118D01*
X16205Y1066D01*
X16284Y1034D01*
X16369Y1022D01*
X16454Y1034D01*
X16533Y1066D01*
X16601Y1118D01*
X16625Y1150D01*
X16688D01*
X16712Y1118D01*
X16780Y1066D01*
X16859Y1034D01*
X16944Y1022D01*
X17029Y1034D01*
X17108Y1066D01*
X17176Y1118D01*
X17193Y1141D01*
X17243D01*
X17272Y1103D01*
X17344Y1048D01*
X17428Y1013D01*
X17469Y1008D01*
Y1350D01*
X17569D01*
Y1008D01*
X17609Y1013D01*
X17693Y1048D01*
X17766Y1103D01*
X17795Y1141D01*
X17845D01*
X17862Y1118D01*
X17930Y1066D01*
X18009Y1034D01*
X18094Y1022D01*
X18178Y1034D01*
X18257Y1066D01*
X18325Y1118D01*
X18377Y1186D01*
X18410Y1265D01*
X18421Y1350D01*
X18410Y1435D01*
X18377Y1514D01*
X18325Y1582D01*
X18257Y1634D01*
X18178Y1666D01*
X18160Y1669D01*
X18163Y1719D01*
X20634D01*
X20644Y1669D01*
X20602Y1652D01*
X20596Y1647D01*
X20588Y1644D01*
X20479Y1571D01*
X20473Y1565D01*
X20467Y1561D01*
X20373Y1468D01*
X20369Y1461D01*
X20363Y1455D01*
X20290Y1346D01*
X20287Y1339D01*
X20283Y1332D01*
X20232Y1210D01*
X20231Y1202D01*
X20228Y1195D01*
X20202Y1066D01*
Y1058D01*
X20200Y1050D01*
Y918D01*
X20202Y911D01*
Y903D01*
X20228Y773D01*
X20231Y766D01*
X20232Y758D01*
X20283Y636D01*
X20287Y630D01*
X20290Y623D01*
X20363Y513D01*
X20369Y507D01*
X20373Y501D01*
X20467Y408D01*
X20473Y403D01*
X20479Y398D01*
X20588Y324D01*
X20596Y321D01*
X20602Y317D01*
X20724Y266D01*
X20732Y265D01*
X20739Y262D01*
X20868Y236D01*
X20876D01*
X20884Y235D01*
X21016D01*
X21024Y236D01*
X21032D01*
X21161Y262D01*
X21168Y265D01*
X21176Y266D01*
X21298Y317D01*
X21304Y321D01*
X21312Y324D01*
X21421Y398D01*
X21427Y403D01*
X21433Y408D01*
X21527Y501D01*
X21531Y507D01*
X21537Y513D01*
X21610Y623D01*
X21613Y630D01*
X21617Y636D01*
X21668Y758D01*
X21669Y766D01*
X21672Y773D01*
X21698Y903D01*
Y911D01*
X21700Y918D01*
Y1050D01*
X21698Y1058D01*
Y1066D01*
X21672Y1195D01*
X21669Y1202D01*
X21668Y1210D01*
X21617Y1332D01*
X21613Y1339D01*
X21610Y1346D01*
X21537Y1455D01*
X21531Y1461D01*
X21527Y1468D01*
X21433Y1561D01*
X21427Y1565D01*
X21421Y1571D01*
X21312Y1644D01*
X21304Y1647D01*
X21298Y1652D01*
X21256Y1669D01*
X21266Y1719D01*
X23656D01*
X23656Y1719D01*
X23728Y1728D01*
X23796Y1757D01*
X23854Y1801D01*
X25549Y3496D01*
X25549Y3496D01*
X25593Y3554D01*
X25622Y3622D01*
X25631Y3694D01*
X25631Y3694D01*
Y7637D01*
X25631Y7637D01*
X25622Y7709D01*
X25593Y7777D01*
X25559Y7823D01*
X25557Y7836D01*
X25524Y7916D01*
X25471Y7984D01*
X25403Y8037D01*
X25323Y8070D01*
X25237Y8082D01*
X25151Y8070D01*
X25071Y8037D01*
X25002Y7984D01*
X24950Y7916D01*
X24916Y7836D01*
X24905Y7750D01*
X24916Y7664D01*
X24945Y7595D01*
X24923Y7545D01*
X24650D01*
Y7200D01*
X24995D01*
Y7428D01*
X25045Y7455D01*
X25069Y7439D01*
Y3811D01*
X23539Y2281D01*
X16841D01*
X16769Y2272D01*
X16746Y2262D01*
X16688Y2286D01*
X16602Y2297D01*
X16516Y2286D01*
X16436Y2253D01*
X16428Y2247D01*
X15405D01*
X14703Y2949D01*
X14645Y2993D01*
X14577Y3022D01*
X14504Y3031D01*
X14504Y3031D01*
X11765D01*
X11701Y3057D01*
X11629Y3067D01*
X11556Y3057D01*
X11488Y3029D01*
X11430Y2985D01*
X10517Y2071D01*
X8442D01*
X8423Y2118D01*
X8714Y2409D01*
X8743Y2451D01*
X8753Y2502D01*
Y6008D01*
X8978Y6234D01*
X9299D01*
X9350Y6244D01*
X9392Y6272D01*
X9489Y6369D01*
X9536Y6350D01*
Y6236D01*
X9382Y6082D01*
X9300Y6093D01*
X9214Y6081D01*
X9134Y6048D01*
X9066Y5996D01*
X9013Y5927D01*
X8980Y5847D01*
X8968Y5761D01*
X8980Y5675D01*
X9013Y5595D01*
X9066Y5527D01*
X9134Y5474D01*
X9214Y5441D01*
X9300Y5430D01*
X9386Y5441D01*
X9466Y5474D01*
X9534Y5527D01*
X9587Y5595D01*
X9620Y5675D01*
X9632Y5761D01*
X9620Y5847D01*
X9590Y5919D01*
X9721Y6050D01*
X10067D01*
Y6122D01*
X10125D01*
Y5870D01*
X10656D01*
Y6382D01*
X10276D01*
X10263Y6385D01*
X10067D01*
Y6483D01*
X9668D01*
X9649Y6529D01*
X9721Y6601D01*
X10067D01*
Y6686D01*
X10125D01*
Y6618D01*
X10656D01*
Y7130D01*
X10125D01*
Y6949D01*
X10067D01*
Y7034D01*
X9536D01*
Y6787D01*
X9245Y6496D01*
X8924D01*
X8874Y6486D01*
X8831Y6458D01*
X8799Y6425D01*
X8753Y6444D01*
Y6662D01*
X8803Y6687D01*
X8834Y6663D01*
X8914Y6630D01*
X9000Y6618D01*
X9086Y6630D01*
X9166Y6663D01*
X9234Y6716D01*
X9287Y6784D01*
X9320Y6864D01*
X9332Y6950D01*
X9320Y7036D01*
X9287Y7116D01*
X9238Y7180D01*
X9320Y7263D01*
X9666D01*
Y7348D01*
X9798D01*
Y7220D01*
X10329D01*
Y7732D01*
X9798D01*
Y7611D01*
X9666D01*
Y7696D01*
X9267D01*
X9248Y7742D01*
X9320Y7814D01*
X9666D01*
Y7966D01*
X9936D01*
X9949Y7968D01*
X10329D01*
Y8480D01*
X9798D01*
Y8228D01*
X9666D01*
Y8247D01*
X9134D01*
Y8000D01*
X8528Y7394D01*
X8500Y7351D01*
X8490Y7301D01*
Y7144D01*
X8440Y7127D01*
X8434Y7134D01*
X8366Y7187D01*
X8286Y7220D01*
X8200Y7232D01*
X8176Y7252D01*
Y7553D01*
X8209D01*
Y7684D01*
X8417D01*
X8417Y7684D01*
X8487Y7698D01*
X8546Y7737D01*
X10267Y9458D01*
X11025D01*
X11025Y9458D01*
X11042Y9462D01*
X12045D01*
X12065Y9416D01*
X11721Y9072D01*
X11692Y9029D01*
X11682Y8979D01*
Y8523D01*
X11548D01*
Y8089D01*
X12079D01*
Y8175D01*
X12283D01*
X12942Y7515D01*
X12930Y7486D01*
X12918Y7400D01*
X12930Y7314D01*
X12963Y7234D01*
X13016Y7166D01*
X13084Y7113D01*
X13164Y7080D01*
X13250Y7068D01*
X13336Y7080D01*
X13416Y7113D01*
X13484Y7166D01*
X13525Y7218D01*
X14234D01*
X14571Y6881D01*
X14571Y6881D01*
X14618Y6849D01*
X14628Y6794D01*
X14616Y6784D01*
X14563Y6716D01*
X14549Y6681D01*
X13122D01*
X12079Y7724D01*
Y7971D01*
X11548D01*
Y7886D01*
X11254D01*
Y8106D01*
X10723D01*
Y7594D01*
X11254D01*
Y7624D01*
X11548D01*
Y7538D01*
X11894D01*
X12975Y6457D01*
X13017Y6429D01*
X13068Y6419D01*
X14549D01*
X14563Y6384D01*
X14587Y6353D01*
X14563Y6303D01*
X12864D01*
X12703Y6464D01*
X12660Y6493D01*
X12610Y6503D01*
X12419D01*
Y6614D01*
X11888D01*
Y6529D01*
X11581D01*
Y6756D01*
X11050D01*
Y6244D01*
X11581D01*
Y6267D01*
X11888D01*
Y6181D01*
X12419D01*
Y6240D01*
X12556D01*
X12717Y6078D01*
X12760Y6050D01*
X12810Y6040D01*
X15193D01*
X15244Y6050D01*
X15286Y6078D01*
X15453Y6246D01*
X15488Y6231D01*
X15574Y6220D01*
X15659Y6231D01*
X15739Y6264D01*
X15808Y6317D01*
X15861Y6386D01*
X15894Y6466D01*
X15897Y6488D01*
X15907Y6493D01*
X15949Y6499D01*
X15985Y6451D01*
X16043Y6407D01*
X16066Y6397D01*
X16075Y6375D01*
X16119Y6317D01*
X16249Y6187D01*
X16249Y6187D01*
X16279Y6164D01*
X16437Y6007D01*
X16417Y5961D01*
X12419D01*
Y6063D01*
X11888D01*
Y5630D01*
X12419D01*
Y5698D01*
X16745D01*
X17090Y5353D01*
Y4560D01*
X16518Y3988D01*
X10408D01*
X10335Y3978D01*
X10267Y3950D01*
X10252Y3938D01*
X10204Y3965D01*
X10206Y3981D01*
X9600D01*
Y3376D01*
X9610Y3377D01*
X9632Y3329D01*
X9442Y3138D01*
X9416Y3159D01*
X9336Y3192D01*
X9250Y3203D01*
X9164Y3192D01*
X9084Y3159D01*
X9016Y3106D01*
X8963Y3037D01*
X8930Y2957D01*
X8918Y2872D01*
X8930Y2786D01*
X8963Y2706D01*
X9016Y2637D01*
X9084Y2584D01*
X9164Y2551D01*
X9250Y2540D01*
X9336Y2551D01*
X9416Y2584D01*
X9481Y2635D01*
X9519Y2619D01*
X9592Y2610D01*
X9665Y2619D01*
X9733Y2647D01*
X9791Y2692D01*
X10524Y3425D01*
X16634D01*
X16634Y3425D01*
X16707Y3435D01*
X16775Y3463D01*
X16833Y3508D01*
X17570Y4245D01*
X17570Y4245D01*
X17615Y4303D01*
X17643Y4371D01*
X17653Y4444D01*
X17653Y4444D01*
Y4725D01*
X17699Y4744D01*
X18092Y4351D01*
X18092Y4351D01*
X18150Y4307D01*
X18206Y4284D01*
X18198Y4233D01*
X18171Y4230D01*
X18028Y4187D01*
X17897Y4116D01*
X17781Y4022D01*
X17686Y3906D01*
X17616Y3774D01*
X17573Y3632D01*
X17558Y3483D01*
X17573Y3334D01*
X17616Y3192D01*
X17686Y3060D01*
X17781Y2945D01*
X17897Y2850D01*
X18028Y2779D01*
X18171Y2736D01*
X18320Y2722D01*
X18468Y2736D01*
X18611Y2779D01*
X18743Y2850D01*
X18858Y2945D01*
X18953Y3060D01*
X19023Y3192D01*
X19067Y3334D01*
X19081Y3483D01*
X19067Y3632D01*
X19023Y3774D01*
X18953Y3906D01*
X18858Y4022D01*
X18743Y4116D01*
X18611Y4187D01*
X18505Y4219D01*
X18512Y4269D01*
X19168D01*
Y4190D01*
X19889D01*
Y4653D01*
X20232Y4996D01*
X22028D01*
X22028Y4996D01*
X22098Y5010D01*
X22157Y5050D01*
X22446Y5338D01*
X22452Y5336D01*
X22550Y5323D01*
X22648Y5336D01*
X22739Y5373D01*
X22817Y5433D01*
X22877Y5511D01*
X22914Y5602D01*
X22927Y5700D01*
X22914Y5798D01*
X22877Y5889D01*
X22817Y5967D01*
X22739Y6027D01*
X22648Y6064D01*
X22550Y6077D01*
X22452Y6064D01*
X22446Y6062D01*
X22126Y6382D01*
X22067Y6422D01*
X21997Y6435D01*
X21997Y6435D01*
X21706D01*
Y6450D01*
X21214D01*
Y6283D01*
X21168Y6264D01*
X20916Y6515D01*
Y8747D01*
X20908Y8786D01*
X20950Y8815D01*
X21732Y8033D01*
X21774Y8005D01*
X21824Y7995D01*
X22570D01*
X23259Y7305D01*
X23236Y7248D01*
X23223Y7150D01*
X23236Y7052D01*
X23273Y6961D01*
X23333Y6883D01*
X23411Y6823D01*
X23502Y6786D01*
X23600Y6773D01*
X23698Y6786D01*
X23789Y6823D01*
X23867Y6883D01*
X23927Y6961D01*
X23964Y7052D01*
X23977Y7150D01*
X23964Y7248D01*
X23927Y7339D01*
X23867Y7417D01*
X23789Y7477D01*
X23698Y7514D01*
X23600Y7527D01*
X23502Y7514D01*
X23445Y7491D01*
X22717Y8219D01*
X22674Y8247D01*
X22624Y8257D01*
X22310D01*
X22285Y8307D01*
X22327Y8361D01*
X22364Y8452D01*
X22377Y8550D01*
X22365Y8641D01*
X22378Y8653D01*
X22411Y8667D01*
X22575Y8502D01*
X22618Y8474D01*
X22633Y8471D01*
X22636Y8452D01*
X22673Y8361D01*
X22733Y8283D01*
X22811Y8223D01*
X22902Y8186D01*
X23000Y8173D01*
X23098Y8186D01*
X23189Y8223D01*
X23267Y8283D01*
X23327Y8361D01*
X23364Y8452D01*
X23377Y8550D01*
X23364Y8648D01*
X23327Y8739D01*
X23267Y8817D01*
X23189Y8877D01*
X23098Y8914D01*
X23000Y8927D01*
X22902Y8914D01*
X22811Y8877D01*
X22733Y8817D01*
X22712Y8789D01*
X22662Y8786D01*
X22429Y9019D01*
X22454Y9065D01*
X22461Y9064D01*
X23300D01*
X23659Y8705D01*
X23636Y8648D01*
X23623Y8550D01*
X23636Y8452D01*
X23673Y8361D01*
X23733Y8283D01*
X23811Y8223D01*
X23902Y8186D01*
X24000Y8173D01*
X24098Y8186D01*
X24189Y8223D01*
X24267Y8283D01*
X24327Y8361D01*
X24364Y8452D01*
X24377Y8550D01*
X24364Y8648D01*
X24327Y8739D01*
X24267Y8817D01*
X24189Y8877D01*
X24098Y8914D01*
X24000Y8927D01*
X23902Y8914D01*
X23845Y8891D01*
X23448Y9288D01*
X23405Y9317D01*
X23396Y9318D01*
X23387Y9365D01*
X23387Y9371D01*
X23501Y9465D01*
X23596Y9580D01*
X23667Y9712D01*
X23710Y9855D01*
X23725Y10003D01*
X23710Y10152D01*
X23667Y10295D01*
X23596Y10426D01*
X23501Y10542D01*
X23386Y10636D01*
X23254Y10707D01*
X23112Y10750D01*
X22963Y10765D01*
X22814Y10750D01*
X22672Y10707D01*
X22540Y10636D01*
X22424Y10542D01*
X22330Y10426D01*
X22259Y10295D01*
X22216Y10152D01*
X22201Y10003D01*
X22216Y9855D01*
X22259Y9712D01*
X22330Y9580D01*
X22290Y9551D01*
X21289Y10553D01*
X21291Y10558D01*
X21302Y10644D01*
X21291Y10730D01*
X21258Y10810D01*
X21205Y10878D01*
X21146Y10923D01*
X21140Y10962D01*
X21142Y10983D01*
X21184Y11016D01*
X21237Y11084D01*
X21270Y11164D01*
X21282Y11250D01*
X21270Y11336D01*
X21237Y11416D01*
X21184Y11484D01*
X21116Y11537D01*
X21036Y11570D01*
X20950Y11582D01*
X20864Y11570D01*
X20784Y11537D01*
X20716Y11484D01*
X20663Y11416D01*
X20630Y11336D01*
X20618Y11250D01*
X20630Y11164D01*
X20644Y11130D01*
X20590Y11076D01*
X20544Y11095D01*
Y11459D01*
X20780Y11694D01*
X20814Y11680D01*
X20900Y11668D01*
X20986Y11680D01*
X21066Y11713D01*
X21134Y11766D01*
X21187Y11834D01*
X21220Y11914D01*
X21232Y12000D01*
X21220Y12086D01*
X21187Y12166D01*
X21134Y12234D01*
X21066Y12287D01*
X20986Y12320D01*
X20900Y12332D01*
X20814Y12320D01*
X20734Y12287D01*
X20666Y12234D01*
X20613Y12166D01*
X20580Y12086D01*
X20568Y12000D01*
X20580Y11914D01*
X20594Y11880D01*
X20320Y11606D01*
X20292Y11563D01*
X20282Y11513D01*
Y9119D01*
X20292Y9068D01*
X20320Y9026D01*
X20654Y8693D01*
Y6721D01*
X20411D01*
Y6326D01*
Y5930D01*
X20756D01*
Y6239D01*
X20802Y6258D01*
X21289Y5771D01*
X21280Y5750D01*
X21268Y5664D01*
X21280Y5578D01*
X21313Y5498D01*
X21366Y5430D01*
X21390Y5411D01*
X21373Y5361D01*
X20157D01*
X20157Y5361D01*
X20087Y5347D01*
X20028Y5307D01*
X20028Y5307D01*
X19631Y4910D01*
X19168D01*
Y4831D01*
X18407D01*
X17570Y5668D01*
X17570Y5668D01*
X17108Y6131D01*
X17108Y6131D01*
X16654Y6585D01*
X16623Y6608D01*
X16517Y6714D01*
X16512Y6718D01*
Y7110D01*
X16566D01*
Y7858D01*
X16509D01*
Y7926D01*
X16559D01*
Y8276D01*
X16605Y8322D01*
X17588D01*
X17607Y8276D01*
X17510Y8179D01*
X17465Y8120D01*
X17437Y8053D01*
X17427Y7980D01*
X17427Y7980D01*
Y6800D01*
X17437Y6727D01*
X17465Y6659D01*
X17510Y6601D01*
X17548Y6572D01*
X17557Y6552D01*
X17601Y6493D01*
X18076Y6019D01*
X18134Y5974D01*
X18202Y5946D01*
X18274Y5937D01*
X18347Y5946D01*
X18354Y5949D01*
X18361Y5948D01*
X18458Y5961D01*
X18549Y5999D01*
X18628Y6059D01*
X18687Y6137D01*
X18725Y6228D01*
X18738Y6326D01*
X18725Y6423D01*
X18687Y6514D01*
X18628Y6592D01*
X18549Y6652D01*
X18458Y6690D01*
X18361Y6703D01*
X18263Y6690D01*
X18218Y6671D01*
X17999Y6891D01*
X17990Y6898D01*
Y7863D01*
X18038Y7911D01*
X18334D01*
X18351Y7861D01*
X18316Y7834D01*
X18263Y7766D01*
X18230Y7686D01*
X18218Y7600D01*
X18230Y7514D01*
X18263Y7434D01*
X18316Y7366D01*
X18384Y7313D01*
X18464Y7280D01*
X18550Y7268D01*
X18636Y7280D01*
X18716Y7313D01*
X18784Y7366D01*
X18837Y7434D01*
X18870Y7514D01*
X18882Y7600D01*
X18872Y7673D01*
X19021Y7822D01*
X19066Y7801D01*
X19069Y7799D01*
X19080Y7714D01*
X19113Y7634D01*
X19166Y7566D01*
X19234Y7513D01*
X19314Y7480D01*
X19400Y7468D01*
X19486Y7480D01*
X19566Y7513D01*
X19634Y7566D01*
X19648Y7583D01*
X19698Y7566D01*
Y6849D01*
X19516Y6666D01*
X19458Y6690D01*
X19361Y6703D01*
X19263Y6690D01*
X19172Y6652D01*
X19094Y6592D01*
X19034Y6514D01*
X18996Y6423D01*
X18984Y6326D01*
X18996Y6228D01*
X19034Y6137D01*
X19094Y6059D01*
X19172Y5999D01*
X19263Y5961D01*
X19361Y5948D01*
X19458Y5961D01*
X19549Y5999D01*
X19628Y6059D01*
X19688Y6137D01*
X19725Y6228D01*
X19738Y6326D01*
X19725Y6423D01*
X19701Y6481D01*
X19916Y6695D01*
X19942Y6690D01*
X19966Y6676D01*
Y6376D01*
X20311D01*
Y6721D01*
X19993D01*
X19989Y6723D01*
X19955Y6767D01*
X19961Y6794D01*
Y7953D01*
X19995Y7967D01*
X20064Y8020D01*
X20117Y8089D01*
X20150Y8169D01*
X20161Y8254D01*
X20150Y8340D01*
X20117Y8420D01*
X20064Y8489D01*
X19995Y8542D01*
X19915Y8575D01*
X19829Y8586D01*
X19822Y8585D01*
X19800Y8630D01*
X20168Y8998D01*
X20197Y9041D01*
X20207Y9091D01*
Y13271D01*
X20241Y13285D01*
X20310Y13338D01*
X20363Y13406D01*
X20396Y13486D01*
X20407Y13572D01*
X20396Y13658D01*
X20363Y13738D01*
X20310Y13807D01*
X20275Y13834D01*
X20282Y13891D01*
X20338Y13914D01*
X20411Y13970D01*
X20467Y14043D01*
X20502Y14128D01*
X20508Y14170D01*
X19815D01*
X19820Y14128D01*
X19856Y14043D01*
X19912Y13970D01*
X19959Y13934D01*
X19952Y13877D01*
X19910Y13859D01*
X19841Y13807D01*
X19788Y13738D01*
X19755Y13658D01*
X19744Y13572D01*
X19755Y13486D01*
X19788Y13406D01*
X19841Y13338D01*
X19910Y13285D01*
X19944Y13271D01*
Y9145D01*
X19307Y8508D01*
X19279Y8466D01*
X19269Y8415D01*
Y8101D01*
X19234Y8087D01*
X19166Y8034D01*
X19153Y8018D01*
X19103Y8034D01*
Y8865D01*
X19756Y9519D01*
X19785Y9561D01*
X19795Y9611D01*
Y12693D01*
X19785Y12744D01*
X19756Y12786D01*
X19484Y13059D01*
X19484Y13066D01*
X19537Y13134D01*
X19570Y13214D01*
X19582Y13300D01*
X19570Y13386D01*
X19537Y13466D01*
X19484Y13534D01*
X19416Y13587D01*
X19336Y13620D01*
X19250Y13632D01*
X19164Y13620D01*
X19084Y13587D01*
X19016Y13534D01*
X18963Y13466D01*
X18930Y13386D01*
X18918Y13300D01*
X18930Y13214D01*
X18963Y13134D01*
X19016Y13066D01*
X19084Y13013D01*
X19164Y12980D01*
X19196Y12976D01*
X19532Y12639D01*
Y9666D01*
X19428Y9562D01*
X19382Y9581D01*
Y10219D01*
X19391Y10265D01*
X19391Y10265D01*
Y12200D01*
X19391Y12200D01*
X19377Y12270D01*
X19338Y12329D01*
X19338Y12329D01*
X19248Y12419D01*
Y12845D01*
X18841D01*
Y13374D01*
X18841Y13374D01*
X18827Y13444D01*
X18799Y13487D01*
X18817Y13532D01*
X18828Y13617D01*
X18820Y13683D01*
X20164Y15027D01*
X20915D01*
X20915Y15027D01*
X20984Y15040D01*
X21043Y15080D01*
X22614Y16650D01*
X22664Y16630D01*
X22750Y16618D01*
X22836Y16630D01*
X22916Y16663D01*
X22984Y16716D01*
X23037Y16784D01*
X23070Y16864D01*
X23082Y16950D01*
X23070Y17036D01*
X23037Y17116D01*
X22984Y17184D01*
X22916Y17237D01*
X22836Y17270D01*
X22750Y17282D01*
X22664Y17270D01*
X22584Y17237D01*
X22516Y17184D01*
X22463Y17116D01*
X22430Y17036D01*
X22422Y16973D01*
X20839Y15391D01*
X20088D01*
X20088Y15391D01*
X20018Y15377D01*
X19959Y15338D01*
X18562Y13940D01*
X18497Y13949D01*
X18411Y13938D01*
X18331Y13905D01*
X18262Y13852D01*
X18210Y13783D01*
X18177Y13703D01*
X18165Y13617D01*
X18177Y13532D01*
X18210Y13452D01*
X18262Y13383D01*
X18331Y13330D01*
X18411Y13297D01*
X18477Y13289D01*
Y12667D01*
X18477Y12667D01*
X18480Y12649D01*
Y12255D01*
X18897D01*
X19027Y12125D01*
Y10301D01*
X19018Y10255D01*
X19018Y10255D01*
Y9547D01*
X18946Y9475D01*
X18900Y9494D01*
Y9506D01*
X17975D01*
Y8885D01*
X16618D01*
X16610Y8947D01*
X16582Y9015D01*
X16543Y9066D01*
Y9091D01*
X16579Y9127D01*
X16579Y9127D01*
X16619Y9186D01*
X16632Y9256D01*
Y9462D01*
X16651Y9476D01*
X16702Y9459D01*
X16705Y9455D01*
X16739Y9373D01*
X16795Y9300D01*
X16868Y9244D01*
X16953Y9209D01*
X16995Y9204D01*
Y9550D01*
X17045D01*
Y9600D01*
X17391D01*
X17386Y9641D01*
X17350Y9727D01*
X17340Y9740D01*
X17367Y9787D01*
X17436Y9796D01*
X17516Y9830D01*
X17584Y9882D01*
X17637Y9951D01*
X17670Y10031D01*
X17682Y10117D01*
X17670Y10203D01*
X17637Y10283D01*
X17584Y10351D01*
X17516Y10404D01*
X17436Y10437D01*
X17350Y10448D01*
X17264Y10437D01*
X17184Y10404D01*
X17116Y10351D01*
X17063Y10283D01*
X17046Y10242D01*
X16948D01*
X16948Y10242D01*
X16878Y10228D01*
X16819Y10188D01*
X16321Y9691D01*
X16282Y9632D01*
X16268Y9562D01*
X16229Y9537D01*
X16082D01*
X16067Y9587D01*
X16085Y9600D01*
X17130Y10644D01*
X17164Y10630D01*
X17250Y10618D01*
X17336Y10630D01*
X17416Y10663D01*
X17484Y10716D01*
X17537Y10784D01*
X17570Y10864D01*
X17582Y10950D01*
X17570Y11036D01*
X17537Y11116D01*
X17484Y11184D01*
X17416Y11237D01*
X17336Y11270D01*
X17250Y11282D01*
X17164Y11270D01*
X17084Y11237D01*
X17016Y11184D01*
X16963Y11116D01*
X16930Y11036D01*
X16918Y10950D01*
X16930Y10864D01*
X16944Y10830D01*
X15938Y9824D01*
X14632D01*
X14582Y9814D01*
X14539Y9785D01*
X14246Y9492D01*
X14201Y9518D01*
X14211Y9600D01*
X14199Y9698D01*
X14183Y9734D01*
X14583Y10133D01*
X15039D01*
X15089Y10143D01*
X15132Y10172D01*
X15779Y10819D01*
X15807Y10861D01*
X15817Y10912D01*
Y11599D01*
X15852Y11613D01*
X15920Y11666D01*
X15973Y11734D01*
X16006Y11814D01*
X16017Y11900D01*
X16006Y11986D01*
X15973Y12066D01*
X15920Y12134D01*
X15852Y12187D01*
X15772Y12220D01*
X15686Y12232D01*
X15600Y12220D01*
X15520Y12187D01*
X15451Y12134D01*
X15399Y12066D01*
X15366Y11986D01*
X15354Y11900D01*
X15356Y11884D01*
X15309Y11862D01*
X15236Y11893D01*
X15196Y11898D01*
X15178Y11951D01*
X15639Y12411D01*
X15714Y12380D01*
X15800Y12368D01*
X15886Y12380D01*
X15966Y12413D01*
X16034Y12466D01*
X16081Y12526D01*
X16134Y12529D01*
X16137Y12520D01*
X16190Y12451D01*
X16259Y12399D01*
X16339Y12366D01*
X16425Y12354D01*
X16510Y12366D01*
X16590Y12399D01*
X16659Y12451D01*
X16712Y12520D01*
X16745Y12600D01*
X16752Y12654D01*
X16802D01*
X16810Y12594D01*
X16845Y12509D01*
X16902Y12436D01*
X16975Y12380D01*
X17060Y12345D01*
X17101Y12339D01*
Y12686D01*
X17151D01*
Y12736D01*
X17498D01*
X17492Y12777D01*
X17457Y12862D01*
X17401Y12935D01*
X17372Y12958D01*
X17389Y13008D01*
X17520D01*
Y13452D01*
X17283D01*
Y13502D01*
X17233D01*
Y13995D01*
X17045D01*
Y13984D01*
X16999Y13974D01*
X16995Y13974D01*
X16566D01*
Y13056D01*
X16520Y13026D01*
X16499Y13040D01*
Y13974D01*
X16066D01*
Y13101D01*
X16049Y13089D01*
X15999Y13115D01*
Y13974D01*
X15566D01*
Y13239D01*
X15549Y13226D01*
X15499Y13251D01*
Y13418D01*
X15516Y13502D01*
Y15862D01*
X15526Y15875D01*
X15554Y15943D01*
X15564Y16016D01*
X15554Y16089D01*
X15526Y16157D01*
X15481Y16215D01*
X14473Y17223D01*
X14493Y17269D01*
X18749D01*
X18749Y17269D01*
X18821Y17278D01*
X18889Y17307D01*
X18947Y17351D01*
X19642Y18046D01*
X19802D01*
Y18285D01*
X19807Y18328D01*
X19807Y18328D01*
Y18400D01*
X19802Y18442D01*
Y18754D01*
X19251D01*
Y18450D01*
X18632Y17831D01*
X12670D01*
X12670Y17831D01*
X12598Y17822D01*
X12530Y17793D01*
X12471Y17749D01*
X12471Y17749D01*
X9024Y14301D01*
X4751D01*
X4678Y14292D01*
X4611Y14264D01*
X4552Y14219D01*
X4552Y14219D01*
X4333Y14000D01*
X4289Y13942D01*
X4261Y13874D01*
X4251Y13801D01*
X4251Y13801D01*
Y10519D01*
X3929D01*
Y9928D01*
X4251D01*
Y9239D01*
X3900D01*
Y8450D01*
X3850D01*
Y8400D01*
X3435D01*
Y7661D01*
X3724D01*
X3741Y7611D01*
X3700Y7580D01*
X3644Y7506D01*
X3609Y7421D01*
X3604Y7380D01*
X4296D01*
X4291Y7421D01*
X4256Y7506D01*
X4200Y7580D01*
X4159Y7611D01*
X4176Y7661D01*
X4265D01*
Y7661D01*
X4315Y7663D01*
X4321Y7649D01*
X4331Y7621D01*
X4335Y7615D01*
X4337Y7609D01*
X4356Y7585D01*
X4373Y7561D01*
X4378Y7556D01*
X4382Y7551D01*
X4751Y7181D01*
X4769Y7168D01*
X4768Y7164D01*
X4780Y7078D01*
X4813Y6998D01*
X4834Y6970D01*
X4810Y6920D01*
X1966D01*
X1070Y7816D01*
X1084Y7850D01*
X1096Y7936D01*
X1084Y8022D01*
X1051Y8102D01*
X999Y8170D01*
X930Y8223D01*
X850Y8256D01*
X764Y8268D01*
X678Y8256D01*
X598Y8223D01*
X530Y8170D01*
X477Y8102D01*
X444Y8022D01*
X433Y7936D01*
X444Y7850D01*
X477Y7770D01*
X530Y7701D01*
X598Y7649D01*
X678Y7616D01*
X764Y7604D01*
X850Y7616D01*
X885Y7630D01*
X1818Y6696D01*
X1861Y6668D01*
X1911Y6658D01*
X5209D01*
X5276Y6590D01*
X5335Y6545D01*
X5353Y6538D01*
X5359Y6522D01*
X5404Y6464D01*
X5462Y6419D01*
X5530Y6391D01*
X5603Y6382D01*
X6021D01*
X7073Y5330D01*
X7061Y5212D01*
X7073Y5088D01*
X7110Y4968D01*
X7169Y4857D01*
X7248Y4760D01*
X7345Y4681D01*
X7455Y4622D01*
X7575Y4586D01*
X7700Y4573D01*
X7825Y4586D01*
X7944Y4622D01*
X8055Y4681D01*
X8152Y4760D01*
X8231Y4857D01*
X8290Y4968D01*
X8327Y5088D01*
X8339Y5212D01*
X8327Y5337D01*
X8290Y5457D01*
X8231Y5567D01*
X8152Y5664D01*
X8055Y5743D01*
X7944Y5802D01*
X7825Y5839D01*
X7700Y5851D01*
X7575Y5839D01*
X7455Y5802D01*
X7416Y5781D01*
X6336Y6862D01*
X6278Y6906D01*
X6210Y6934D01*
X6137Y6944D01*
X6137Y6944D01*
X5708D01*
X5674Y6988D01*
X5422Y7240D01*
X5420Y7250D01*
X5387Y7330D01*
X5334Y7399D01*
X5266Y7451D01*
X5213Y7473D01*
X5193Y7521D01*
X5149Y7579D01*
X4838Y7890D01*
X4813Y8004D01*
Y13685D01*
X4868Y13739D01*
X9140D01*
X9140Y13739D01*
X9213Y13749D01*
X9281Y13777D01*
X9339Y13821D01*
X12787Y17269D01*
X13632D01*
X15049Y15852D01*
Y14242D01*
X14999Y14237D01*
X14998Y14244D01*
X14947Y14320D01*
X14402Y14865D01*
X14326Y14915D01*
X14237Y14933D01*
X13043D01*
X12954Y14915D01*
X12878Y14865D01*
X12052Y14038D01*
X12050Y14038D01*
X11964Y14027D01*
X11884Y13994D01*
X11876Y13988D01*
X10555D01*
X10555Y13988D01*
X10482Y13978D01*
X10415Y13950D01*
X10356Y13905D01*
X9609Y13158D01*
X8663D01*
Y13279D01*
X5005D01*
Y8621D01*
X8663D01*
Y12596D01*
X9726D01*
X9726Y12596D01*
X9799Y12606D01*
X9866Y12634D01*
X9925Y12679D01*
X10672Y13426D01*
X11876D01*
X11884Y13420D01*
X11964Y13386D01*
X12050Y13375D01*
X12136Y13386D01*
X12216Y13420D01*
X12284Y13472D01*
X12337Y13541D01*
X12370Y13621D01*
X12382Y13707D01*
X12381Y13708D01*
X12499Y13825D01*
X12545Y13806D01*
Y13552D01*
X12732D01*
Y13998D01*
X12715Y14041D01*
X13140Y14467D01*
X14141D01*
X14549Y14058D01*
Y13502D01*
X14566Y13418D01*
Y13029D01*
X14999D01*
Y13418D01*
X15001Y13428D01*
X15054Y13435D01*
X15066Y13411D01*
Y13029D01*
X15315D01*
X15334Y12983D01*
X15062Y12711D01*
X14817D01*
X14803Y12745D01*
X14750Y12814D01*
X14681Y12866D01*
X14601Y12900D01*
X14516Y12911D01*
X14430Y12900D01*
X14350Y12866D01*
X14281Y12814D01*
X14228Y12745D01*
X14195Y12665D01*
X14184Y12579D01*
X14195Y12493D01*
X14228Y12414D01*
X14281Y12345D01*
X14350Y12292D01*
X14430Y12259D01*
X14516Y12248D01*
X14601Y12259D01*
X14681Y12292D01*
X14750Y12345D01*
X14803Y12414D01*
X14817Y12448D01*
X15116D01*
X15166Y12458D01*
X15209Y12486D01*
X15420Y12697D01*
X15471Y12678D01*
X15479Y12622D01*
X14767Y11910D01*
X12504D01*
X12454Y11900D01*
X12412Y11872D01*
X12230Y11690D01*
X12184Y11709D01*
Y11900D01*
X11384D01*
Y11441D01*
X11865D01*
X11892Y11391D01*
X11886Y11381D01*
X9627D01*
X9613Y11416D01*
X9560Y11484D01*
X9492Y11537D01*
X9412Y11570D01*
X9326Y11582D01*
X9240Y11570D01*
X9160Y11537D01*
X9092Y11484D01*
X9039Y11416D01*
X9006Y11336D01*
X8994Y11250D01*
X9006Y11164D01*
X9039Y11084D01*
X9092Y11016D01*
X9160Y10963D01*
X9240Y10930D01*
X9326Y10918D01*
X9412Y10930D01*
X9492Y10963D01*
X9560Y11016D01*
X9613Y11084D01*
X9627Y11119D01*
X11976D01*
X12026Y11129D01*
X12069Y11157D01*
X12299Y11387D01*
X12341Y11359D01*
X12316Y11298D01*
X12304Y11212D01*
X12316Y11126D01*
X12349Y11046D01*
X12401Y10977D01*
X12470Y10925D01*
X12550Y10892D01*
X12636Y10880D01*
X12722Y10892D01*
X12802Y10925D01*
X12870Y10977D01*
X12923Y11046D01*
X12937Y11081D01*
X14243D01*
X14280Y11088D01*
X14313Y11063D01*
X14338Y11053D01*
X14328Y11003D01*
X14255D01*
X14205Y10993D01*
X14162Y10964D01*
X14005Y10807D01*
X13948Y10831D01*
X13850Y10844D01*
X13752Y10831D01*
X13661Y10793D01*
X13583Y10733D01*
X13523Y10655D01*
X13486Y10564D01*
X13473Y10467D01*
X13486Y10369D01*
X13523Y10278D01*
X13565Y10224D01*
X13540Y10174D01*
X13387D01*
X13336Y10164D01*
X13294Y10135D01*
X13131Y9972D01*
X13073Y9996D01*
X12976Y10009D01*
X12878Y9996D01*
X12787Y9958D01*
X12709Y9898D01*
X12649Y9820D01*
X12611Y9729D01*
X12598Y9632D01*
X12611Y9534D01*
X12649Y9443D01*
X12709Y9365D01*
X12787Y9305D01*
X12878Y9267D01*
X12976Y9254D01*
X13073Y9267D01*
X13164Y9305D01*
X13242Y9365D01*
X13302Y9443D01*
X13340Y9534D01*
X13353Y9632D01*
X13340Y9729D01*
X13316Y9787D01*
X13441Y9911D01*
X13552D01*
X13563Y9861D01*
X13507Y9789D01*
X13470Y9698D01*
X13457Y9600D01*
X13470Y9502D01*
X13507Y9411D01*
X13567Y9333D01*
X13646Y9273D01*
X13736Y9236D01*
X13834Y9223D01*
X13917Y9234D01*
X13942Y9188D01*
X13897Y9144D01*
X13820Y9154D01*
X13722Y9141D01*
X13631Y9103D01*
X13553Y9043D01*
X13493Y8965D01*
X13455Y8874D01*
X13442Y8777D01*
X13455Y8679D01*
X13493Y8588D01*
X13553Y8510D01*
X13569Y8498D01*
Y8437D01*
X13534Y8423D01*
X13466Y8370D01*
X13413Y8302D01*
X13380Y8222D01*
X13368Y8136D01*
X13380Y8050D01*
X13413Y7970D01*
X13466Y7901D01*
X13534Y7849D01*
X13614Y7816D01*
X13700Y7804D01*
X13786Y7816D01*
X13866Y7849D01*
X13934Y7901D01*
X13987Y7970D01*
X14020Y8050D01*
X14032Y8136D01*
X14020Y8222D01*
X13987Y8302D01*
X13937Y8366D01*
X13936Y8375D01*
X13946Y8424D01*
X14008Y8450D01*
X14086Y8510D01*
X14094Y8520D01*
X14138Y8495D01*
X14109Y8426D01*
X14098Y8340D01*
X14109Y8254D01*
X14143Y8174D01*
X14195Y8106D01*
X14264Y8053D01*
X14344Y8020D01*
X14430Y8009D01*
X14516Y8020D01*
X14596Y8053D01*
X14664Y8106D01*
X14717Y8174D01*
X14750Y8254D01*
X14761Y8340D01*
X14750Y8426D01*
X14717Y8506D01*
X14664Y8575D01*
X14596Y8627D01*
X14594Y8628D01*
Y8737D01*
X14639Y8781D01*
X14717Y8771D01*
X14803Y8782D01*
X14883Y8815D01*
X14951Y8868D01*
X15004Y8937D01*
X15037Y9017D01*
X15048Y9103D01*
X15037Y9188D01*
X15004Y9268D01*
X14951Y9337D01*
X14883Y9390D01*
X14803Y9423D01*
X14717Y9434D01*
X14631Y9423D01*
X14610Y9414D01*
X14581Y9456D01*
X14686Y9561D01*
X15053D01*
X15102Y9558D01*
X15102Y9511D01*
Y9213D01*
X15457D01*
X15813D01*
X15813Y9513D01*
X15821Y9518D01*
X15829Y9517D01*
X15871Y9488D01*
Y8789D01*
X16035D01*
X16058Y8759D01*
Y8674D01*
X15889D01*
Y7926D01*
X15946D01*
Y7858D01*
X15896D01*
Y7274D01*
X15846Y7242D01*
X15839Y7246D01*
Y7434D01*
X15483D01*
Y7534D01*
X15839D01*
Y7858D01*
X15839Y7879D01*
X15839Y7879D01*
X15832Y7905D01*
X15832Y7905D01*
Y8250D01*
X15476D01*
X15120D01*
Y8085D01*
X15070Y8066D01*
X14991Y8099D01*
X14950Y8104D01*
Y7758D01*
Y7411D01*
X14991Y7417D01*
X15077Y7452D01*
X15082Y7456D01*
X15127Y7434D01*
Y7192D01*
X14775D01*
X14438Y7529D01*
X14379Y7568D01*
X14309Y7582D01*
X14309Y7582D01*
X13525D01*
X13484Y7634D01*
X13416Y7687D01*
X13336Y7720D01*
X13250Y7732D01*
X13164Y7720D01*
X13125Y7704D01*
X12430Y8399D01*
X12387Y8427D01*
X12337Y8437D01*
X12079D01*
Y8523D01*
X11945D01*
Y8925D01*
X12375Y9355D01*
X12403Y9397D01*
X12413Y9448D01*
Y9728D01*
X12812Y10126D01*
X12869Y10102D01*
X12967Y10089D01*
X13064Y10102D01*
X13155Y10140D01*
X13233Y10200D01*
X13293Y10278D01*
X13331Y10369D01*
X13344Y10467D01*
X13331Y10564D01*
X13293Y10655D01*
X13233Y10733D01*
X13155Y10793D01*
X13064Y10831D01*
X12967Y10844D01*
X12869Y10831D01*
X12778Y10793D01*
X12700Y10733D01*
X12640Y10655D01*
X12602Y10564D01*
X12589Y10467D01*
X12602Y10369D01*
X12626Y10312D01*
X12213Y9898D01*
X12163Y9919D01*
Y10438D01*
X10505D01*
Y9823D01*
X10191D01*
X10191Y9823D01*
X10122Y9809D01*
X10063Y9769D01*
X10063Y9769D01*
X8342Y8049D01*
X8030D01*
X8030Y8049D01*
X8013Y8045D01*
X7815D01*
Y7848D01*
X7812Y7830D01*
X7812Y7830D01*
Y6943D01*
X7812Y6943D01*
X7826Y6873D01*
X7865Y6814D01*
X7890Y6789D01*
X7913Y6734D01*
X7966Y6666D01*
X8034Y6613D01*
X8114Y6580D01*
X8200Y6568D01*
X8286Y6580D01*
X8366Y6613D01*
X8434Y6666D01*
X8440Y6673D01*
X8490Y6656D01*
Y6062D01*
Y2556D01*
X8057Y2123D01*
X8029Y2080D01*
X8027Y2071D01*
X5095D01*
Y2175D01*
X4465D01*
Y1993D01*
X4145D01*
X3778Y2360D01*
X3797Y2407D01*
X5330D01*
Y6403D01*
X377D01*
X377Y16193D01*
X427Y16234D01*
X1170D01*
Y16845D01*
Y17457D01*
X427D01*
X399Y17457D01*
X377Y17498D01*
X377Y19499D01*
X394Y19796D01*
X451Y20129D01*
X544Y20454D01*
X673Y20766D01*
X837Y21062D01*
X1032Y21337D01*
X1257Y21589D01*
X1509Y21814D01*
X1784Y22009D01*
X2080Y22173D01*
X2392Y22302D01*
X2717Y22395D01*
X3050Y22452D01*
X3337Y22468D01*
X3387Y22469D01*
X3387Y22469D01*
X3387Y22469D01*
X8750Y22469D01*
X8800Y22479D01*
X8843Y22507D01*
X8871Y22550D01*
X8881Y22600D01*
Y25350D01*
X8881Y25353D01*
X8893Y25481D01*
X8931Y25606D01*
X8993Y25722D01*
X9077Y25823D01*
X9178Y25907D01*
X9294Y25969D01*
X9419Y26007D01*
X9547Y26019D01*
X9550Y26019D01*
D02*
G37*
G36*
X13218Y2312D02*
Y745D01*
X13035D01*
Y1060D01*
X13025Y1110D01*
X12997Y1153D01*
X12943Y1207D01*
Y1749D01*
X12977Y1763D01*
X13046Y1816D01*
X13099Y1884D01*
X13132Y1964D01*
X13143Y2050D01*
X13132Y2136D01*
X13099Y2216D01*
X13046Y2284D01*
X12977Y2337D01*
X12897Y2370D01*
X12812Y2382D01*
X12726Y2370D01*
X12646Y2337D01*
X12577Y2284D01*
X12524Y2216D01*
X12491Y2136D01*
X12480Y2050D01*
X12491Y1964D01*
X12524Y1884D01*
X12577Y1816D01*
X12646Y1763D01*
X12680Y1749D01*
Y1152D01*
X12690Y1102D01*
X12719Y1060D01*
X12773Y1006D01*
Y807D01*
X12750Y767D01*
X12533D01*
Y450D01*
X12433D01*
Y767D01*
X12216D01*
X12199Y810D01*
Y849D01*
X12234Y863D01*
X12302Y916D01*
X12355Y984D01*
X12388Y1064D01*
X12399Y1150D01*
X12388Y1236D01*
X12355Y1316D01*
X12302Y1384D01*
X12234Y1437D01*
X12154Y1470D01*
X12068Y1482D01*
X11982Y1470D01*
X11902Y1437D01*
X11833Y1384D01*
X11781Y1316D01*
X11748Y1236D01*
X11736Y1150D01*
X11748Y1064D01*
X11781Y984D01*
X11833Y916D01*
X11902Y863D01*
X11937Y849D01*
Y745D01*
X11469D01*
Y1021D01*
X10851D01*
Y180D01*
X1955Y180D01*
X1947Y191D01*
X1904Y220D01*
X1854Y230D01*
Y230D01*
X1852Y228D01*
X1623Y246D01*
X1397Y300D01*
X1183Y389D01*
X985Y510D01*
X808Y661D01*
X658Y837D01*
X536Y1035D01*
X448Y1250D01*
X393Y1475D01*
X376Y1699D01*
X377Y1707D01*
Y2407D01*
X2954D01*
X2957Y2400D01*
X3001Y2342D01*
X3830Y1513D01*
X3830Y1513D01*
X3888Y1469D01*
X3956Y1441D01*
X4028Y1431D01*
X4028Y1431D01*
X4465D01*
X4465Y1273D01*
X4444Y1232D01*
X4444Y1208D01*
Y798D01*
X5116D01*
Y1208D01*
X5116Y1232D01*
X5095Y1273D01*
X5095Y1509D01*
X7343D01*
X7359Y1462D01*
X7335Y1443D01*
X7253Y1336D01*
X7201Y1212D01*
X7184Y1078D01*
X7201Y945D01*
X7253Y820D01*
X7335Y713D01*
X7442Y631D01*
X7566Y580D01*
X7700Y562D01*
X7834Y580D01*
X7958Y631D01*
X8065Y713D01*
X8147Y820D01*
X8199Y945D01*
X8216Y1078D01*
X8199Y1212D01*
X8147Y1336D01*
X8065Y1443D01*
X8041Y1462D01*
X8057Y1509D01*
X10633D01*
X10633Y1509D01*
X10706Y1519D01*
X10774Y1547D01*
X10832Y1591D01*
X11709Y2469D01*
X13061D01*
X13218Y2312D01*
D02*
G37*
G36*
X21062Y1151D02*
X21117Y1096D01*
X21147Y1023D01*
Y984D01*
Y945D01*
X21117Y873D01*
X21062Y817D01*
X20989Y787D01*
X20911D01*
X20838Y817D01*
X20783Y873D01*
X20753Y945D01*
Y984D01*
Y1023D01*
X20783Y1096D01*
X20838Y1151D01*
X20911Y1181D01*
X20989D01*
X21062Y1151D01*
D02*
G37*
%LPC*%
G36*
X15400Y22966D02*
X15314Y22955D01*
X15234Y22922D01*
X15166Y22869D01*
X15113Y22800D01*
X15080Y22720D01*
X15068Y22634D01*
X15080Y22549D01*
X15113Y22469D01*
X15166Y22400D01*
X15234Y22347D01*
X15314Y22314D01*
X15400Y22303D01*
X15486Y22314D01*
X15520Y22328D01*
X15741Y22108D01*
X15783Y22080D01*
X15833Y22070D01*
X17745D01*
X18219Y21596D01*
Y21542D01*
X18169Y21525D01*
X18146Y21555D01*
X18057Y21624D01*
X17953Y21667D01*
X17891Y21675D01*
Y21250D01*
Y20825D01*
X17953Y20833D01*
X18057Y20876D01*
X18146Y20945D01*
X18169Y20975D01*
X18219Y20958D01*
Y20741D01*
X18229Y20691D01*
X18257Y20648D01*
X18475Y20430D01*
X18445Y20356D01*
X18431Y20250D01*
X18445Y20144D01*
X18486Y20045D01*
X18551Y19960D01*
X18636Y19895D01*
X18735Y19854D01*
X18841Y19840D01*
X18947Y19854D01*
X19046Y19895D01*
X19131Y19960D01*
X19196Y20045D01*
X19237Y20144D01*
X19251Y20250D01*
X19237Y20356D01*
X19196Y20455D01*
X19131Y20540D01*
X19046Y20605D01*
X18947Y20646D01*
X18841Y20660D01*
X18735Y20646D01*
X18661Y20615D01*
X18481Y20795D01*
Y20969D01*
X18531Y20986D01*
X18551Y20960D01*
X18636Y20895D01*
X18735Y20854D01*
X18841Y20840D01*
X18947Y20854D01*
X19046Y20895D01*
X19131Y20960D01*
X19196Y21045D01*
X19237Y21144D01*
X19251Y21250D01*
X19237Y21356D01*
X19196Y21455D01*
X19131Y21540D01*
X19046Y21605D01*
X18947Y21646D01*
X18841Y21660D01*
X18735Y21646D01*
X18636Y21605D01*
X18551Y21540D01*
X18531Y21514D01*
X18481Y21531D01*
Y21650D01*
X18471Y21700D01*
X18443Y21743D01*
X17892Y22294D01*
X17849Y22322D01*
X17799Y22332D01*
X15888D01*
X15706Y22514D01*
X15720Y22549D01*
X15732Y22634D01*
X15720Y22720D01*
X15687Y22800D01*
X15634Y22869D01*
X15566Y22922D01*
X15486Y22955D01*
X15400Y22966D01*
D02*
G37*
G36*
X19891Y21675D02*
Y21300D01*
X20266D01*
X20258Y21362D01*
X20215Y21466D01*
X20146Y21555D01*
X20057Y21624D01*
X19953Y21667D01*
X19891Y21675D01*
D02*
G37*
G36*
X9891D02*
Y21300D01*
X10266D01*
X10258Y21362D01*
X10215Y21466D01*
X10146Y21555D01*
X10057Y21624D01*
X9953Y21667D01*
X9891Y21675D01*
D02*
G37*
G36*
X5891D02*
Y21300D01*
X6266D01*
X6258Y21362D01*
X6215Y21466D01*
X6146Y21555D01*
X6057Y21624D01*
X5953Y21667D01*
X5891Y21675D01*
D02*
G37*
G36*
X12891D02*
Y21300D01*
X13266D01*
X13258Y21362D01*
X13215Y21466D01*
X13146Y21555D01*
X13057Y21624D01*
X12953Y21667D01*
X12891Y21675D01*
D02*
G37*
G36*
X19791D02*
X19729Y21667D01*
X19625Y21624D01*
X19536Y21555D01*
X19467Y21466D01*
X19424Y21362D01*
X19416Y21300D01*
X19791D01*
Y21675D01*
D02*
G37*
G36*
X9791D02*
X9729Y21667D01*
X9625Y21624D01*
X9536Y21555D01*
X9467Y21466D01*
X9424Y21362D01*
X9416Y21300D01*
X9791D01*
Y21675D01*
D02*
G37*
G36*
X17791D02*
X17729Y21667D01*
X17625Y21624D01*
X17536Y21555D01*
X17467Y21466D01*
X17424Y21362D01*
X17416Y21300D01*
X17791D01*
Y21675D01*
D02*
G37*
G36*
X12791D02*
X12729Y21667D01*
X12625Y21624D01*
X12536Y21555D01*
X12467Y21466D01*
X12424Y21362D01*
X12416Y21300D01*
X12791D01*
Y21675D01*
D02*
G37*
G36*
X5791D02*
X5729Y21667D01*
X5625Y21624D01*
X5536Y21555D01*
X5467Y21466D01*
X5424Y21362D01*
X5416Y21300D01*
X5791D01*
Y21675D01*
D02*
G37*
G36*
X22841Y21660D02*
X22735Y21646D01*
X22636Y21605D01*
X22551Y21540D01*
X22486Y21455D01*
X22445Y21356D01*
X22431Y21250D01*
X22445Y21144D01*
X22486Y21045D01*
X22551Y20960D01*
X22636Y20895D01*
X22735Y20854D01*
X22841Y20840D01*
X22947Y20854D01*
X23046Y20895D01*
X23131Y20960D01*
X23196Y21045D01*
X23237Y21144D01*
X23251Y21250D01*
X23237Y21356D01*
X23196Y21455D01*
X23131Y21540D01*
X23046Y21605D01*
X22947Y21646D01*
X22841Y21660D01*
D02*
G37*
G36*
X21841D02*
X21735Y21646D01*
X21636Y21605D01*
X21551Y21540D01*
X21486Y21455D01*
X21445Y21356D01*
X21431Y21250D01*
X21445Y21144D01*
X21486Y21045D01*
X21551Y20960D01*
X21636Y20895D01*
X21735Y20854D01*
X21841Y20840D01*
X21947Y20854D01*
X22046Y20895D01*
X22131Y20960D01*
X22196Y21045D01*
X22237Y21144D01*
X22251Y21250D01*
X22237Y21356D01*
X22196Y21455D01*
X22131Y21540D01*
X22046Y21605D01*
X21947Y21646D01*
X21841Y21660D01*
D02*
G37*
G36*
X20841D02*
X20735Y21646D01*
X20636Y21605D01*
X20551Y21540D01*
X20486Y21455D01*
X20445Y21356D01*
X20431Y21250D01*
X20445Y21144D01*
X20486Y21045D01*
X20551Y20960D01*
X20636Y20895D01*
X20735Y20854D01*
X20841Y20840D01*
X20947Y20854D01*
X21046Y20895D01*
X21131Y20960D01*
X21196Y21045D01*
X21237Y21144D01*
X21251Y21250D01*
X21237Y21356D01*
X21196Y21455D01*
X21131Y21540D01*
X21046Y21605D01*
X20947Y21646D01*
X20841Y21660D01*
D02*
G37*
G36*
X16841D02*
X16735Y21646D01*
X16636Y21605D01*
X16551Y21540D01*
X16486Y21455D01*
X16445Y21356D01*
X16431Y21250D01*
X16445Y21144D01*
X16486Y21045D01*
X16551Y20960D01*
X16636Y20895D01*
X16735Y20854D01*
X16841Y20840D01*
X16947Y20854D01*
X17046Y20895D01*
X17131Y20960D01*
X17196Y21045D01*
X17237Y21144D01*
X17251Y21250D01*
X17237Y21356D01*
X17196Y21455D01*
X17131Y21540D01*
X17046Y21605D01*
X16947Y21646D01*
X16841Y21660D01*
D02*
G37*
G36*
X15841D02*
X15735Y21646D01*
X15636Y21605D01*
X15551Y21540D01*
X15486Y21455D01*
X15445Y21356D01*
X15431Y21250D01*
X15445Y21144D01*
X15486Y21045D01*
X15551Y20960D01*
X15636Y20895D01*
X15735Y20854D01*
X15841Y20840D01*
X15947Y20854D01*
X16046Y20895D01*
X16131Y20960D01*
X16196Y21045D01*
X16237Y21144D01*
X16251Y21250D01*
X16237Y21356D01*
X16196Y21455D01*
X16131Y21540D01*
X16046Y21605D01*
X15947Y21646D01*
X15841Y21660D01*
D02*
G37*
G36*
X11700Y22532D02*
X11614Y22521D01*
X11534Y22488D01*
X11466Y22435D01*
X11413Y22366D01*
X11380Y22286D01*
X11368Y22201D01*
X11380Y22115D01*
X11413Y22035D01*
X11466Y21966D01*
X11534Y21914D01*
X11614Y21880D01*
X11700Y21869D01*
X11786Y21880D01*
X11866Y21914D01*
X11934Y21966D01*
X11987Y22035D01*
X12001Y22069D01*
X13836D01*
X14475Y21430D01*
X14445Y21356D01*
X14431Y21250D01*
X14445Y21144D01*
X14486Y21045D01*
X14551Y20960D01*
X14636Y20895D01*
X14735Y20854D01*
X14841Y20840D01*
X14947Y20854D01*
X15046Y20895D01*
X15131Y20960D01*
X15196Y21045D01*
X15237Y21144D01*
X15251Y21250D01*
X15237Y21356D01*
X15196Y21455D01*
X15131Y21540D01*
X15046Y21605D01*
X14947Y21646D01*
X14841Y21660D01*
X14735Y21646D01*
X14661Y21615D01*
X13983Y22293D01*
X13940Y22322D01*
X13890Y22332D01*
X12001D01*
X11987Y22366D01*
X11934Y22435D01*
X11866Y22488D01*
X11786Y22521D01*
X11700Y22532D01*
D02*
G37*
G36*
X13841Y21660D02*
X13735Y21646D01*
X13636Y21605D01*
X13551Y21540D01*
X13486Y21455D01*
X13445Y21356D01*
X13431Y21250D01*
X13445Y21144D01*
X13486Y21045D01*
X13551Y20960D01*
X13636Y20895D01*
X13735Y20854D01*
X13841Y20840D01*
X13947Y20854D01*
X14046Y20895D01*
X14131Y20960D01*
X14196Y21045D01*
X14237Y21144D01*
X14251Y21250D01*
X14237Y21356D01*
X14196Y21455D01*
X14131Y21540D01*
X14046Y21605D01*
X13947Y21646D01*
X13841Y21660D01*
D02*
G37*
G36*
X11841D02*
X11735Y21646D01*
X11636Y21605D01*
X11551Y21540D01*
X11486Y21455D01*
X11445Y21356D01*
X11431Y21250D01*
X11445Y21144D01*
X11486Y21045D01*
X11551Y20960D01*
X11636Y20895D01*
X11735Y20854D01*
X11841Y20840D01*
X11947Y20854D01*
X12046Y20895D01*
X12131Y20960D01*
X12196Y21045D01*
X12237Y21144D01*
X12251Y21250D01*
X12237Y21356D01*
X12196Y21455D01*
X12131Y21540D01*
X12046Y21605D01*
X11947Y21646D01*
X11841Y21660D01*
D02*
G37*
G36*
X10841D02*
X10735Y21646D01*
X10636Y21605D01*
X10551Y21540D01*
X10486Y21455D01*
X10445Y21356D01*
X10431Y21250D01*
X10445Y21144D01*
X10486Y21045D01*
X10551Y20960D01*
X10636Y20895D01*
X10735Y20854D01*
X10841Y20840D01*
X10947Y20854D01*
X11046Y20895D01*
X11131Y20960D01*
X11196Y21045D01*
X11237Y21144D01*
X11251Y21250D01*
X11237Y21356D01*
X11196Y21455D01*
X11131Y21540D01*
X11046Y21605D01*
X10947Y21646D01*
X10841Y21660D01*
D02*
G37*
G36*
X8841D02*
X8735Y21646D01*
X8636Y21605D01*
X8551Y21540D01*
X8486Y21455D01*
X8445Y21356D01*
X8431Y21250D01*
X8445Y21144D01*
X8486Y21045D01*
X8551Y20960D01*
X8636Y20895D01*
X8735Y20854D01*
X8841Y20840D01*
X8947Y20854D01*
X9046Y20895D01*
X9131Y20960D01*
X9196Y21045D01*
X9237Y21144D01*
X9251Y21250D01*
X9237Y21356D01*
X9196Y21455D01*
X9131Y21540D01*
X9046Y21605D01*
X8947Y21646D01*
X8841Y21660D01*
D02*
G37*
G36*
X1884Y21750D02*
X1752D01*
X1744Y21748D01*
X1736D01*
X1607Y21722D01*
X1600Y21719D01*
X1592Y21718D01*
X1470Y21667D01*
X1463Y21663D01*
X1456Y21660D01*
X1346Y21587D01*
X1341Y21581D01*
X1334Y21577D01*
X1241Y21483D01*
X1237Y21477D01*
X1231Y21471D01*
X1158Y21362D01*
X1155Y21354D01*
X1150Y21348D01*
X1100Y21226D01*
X1098Y21218D01*
X1095Y21211D01*
X1070Y21082D01*
Y21074D01*
X1068Y21066D01*
Y20934D01*
X1070Y20926D01*
Y20918D01*
X1095Y20789D01*
X1098Y20782D01*
X1100Y20774D01*
X1150Y20652D01*
X1155Y20646D01*
X1158Y20638D01*
X1231Y20529D01*
X1237Y20523D01*
X1241Y20517D01*
X1334Y20423D01*
X1341Y20419D01*
X1346Y20413D01*
X1456Y20340D01*
X1463Y20337D01*
X1470Y20333D01*
X1592Y20282D01*
X1600Y20281D01*
X1607Y20278D01*
X1736Y20252D01*
X1744D01*
X1752Y20250D01*
X1884D01*
X1891Y20252D01*
X1899D01*
X2029Y20278D01*
X2036Y20281D01*
X2044Y20282D01*
X2165Y20333D01*
X2172Y20337D01*
X2179Y20340D01*
X2289Y20413D01*
X2295Y20419D01*
X2301Y20423D01*
X2394Y20517D01*
X2399Y20523D01*
X2404Y20529D01*
X2443Y20587D01*
X2493Y20572D01*
Y18976D01*
X2493Y18976D01*
X2503Y18903D01*
X2531Y18835D01*
X2576Y18777D01*
X3355Y17998D01*
Y14415D01*
X2401Y13461D01*
X2357Y13403D01*
X2328Y13335D01*
X2319Y13263D01*
X2319Y13263D01*
Y13139D01*
X2313Y13132D01*
X2280Y13052D01*
X2268Y12966D01*
X2280Y12880D01*
X2313Y12800D01*
X2319Y12792D01*
Y11249D01*
X1932Y10863D01*
X1886Y10882D01*
Y11047D01*
X1550D01*
X1214D01*
Y10613D01*
X1214D01*
X1235Y10572D01*
Y9670D01*
X1454D01*
Y8565D01*
X1454Y8565D01*
X1456Y8547D01*
Y7682D01*
X2244D01*
Y9218D01*
X2016D01*
Y9800D01*
X2007Y9873D01*
X1979Y9941D01*
X1934Y9999D01*
X1934Y9999D01*
X1914Y10019D01*
X1924Y10070D01*
X1928Y10076D01*
X1982Y10118D01*
X2799Y10934D01*
X2799Y10934D01*
X2843Y10992D01*
X2872Y11060D01*
X2881Y11133D01*
X2881Y11133D01*
Y12792D01*
X2887Y12800D01*
X2920Y12880D01*
X2932Y12966D01*
X2920Y13052D01*
X2887Y13132D01*
X2881Y13139D01*
Y13146D01*
X3835Y14100D01*
X3835Y14100D01*
X3879Y14158D01*
X3907Y14226D01*
X3917Y14298D01*
X3917Y14298D01*
Y14409D01*
X4201Y14693D01*
X7763D01*
X7823Y14705D01*
X7874Y14739D01*
X12528Y19393D01*
X16418D01*
X16590Y19221D01*
X16569Y19171D01*
X16566D01*
Y18226D01*
X16995D01*
X16999Y18226D01*
X17045Y18216D01*
Y18205D01*
X17233D01*
Y18698D01*
Y19192D01*
X17045D01*
Y19181D01*
X16999Y19171D01*
X16995Y19171D01*
X16939D01*
Y19250D01*
X16927Y19310D01*
X16893Y19361D01*
X16593Y19661D01*
X16542Y19695D01*
X16482Y19707D01*
X12463D01*
X12403Y19695D01*
X12352Y19661D01*
X7698Y15007D01*
X4136D01*
X4076Y14995D01*
X4025Y14961D01*
X3963Y14899D01*
X3917Y14918D01*
Y18114D01*
X3917Y18114D01*
X3907Y18187D01*
X3879Y18255D01*
X3835Y18313D01*
X3835Y18313D01*
X3056Y19092D01*
Y20680D01*
X3295Y20920D01*
X3603D01*
X3636Y20895D01*
X3735Y20854D01*
X3841Y20840D01*
X3947Y20854D01*
X4046Y20895D01*
X4131Y20960D01*
X4138Y20969D01*
X4544D01*
X4551Y20960D01*
X4636Y20895D01*
X4735Y20854D01*
X4841Y20840D01*
X4947Y20854D01*
X5046Y20895D01*
X5131Y20960D01*
X5196Y21045D01*
X5237Y21144D01*
X5251Y21250D01*
X5237Y21356D01*
X5196Y21455D01*
X5131Y21540D01*
X5046Y21605D01*
X4947Y21646D01*
X4841Y21660D01*
X4735Y21646D01*
X4636Y21605D01*
X4551Y21540D01*
X4544Y21531D01*
X4138D01*
X4131Y21540D01*
X4046Y21605D01*
X3947Y21646D01*
X3841Y21660D01*
X3735Y21646D01*
X3636Y21605D01*
X3551Y21540D01*
X3507Y21482D01*
X3179D01*
X3106Y21473D01*
X3038Y21445D01*
X2980Y21400D01*
X2980Y21400D01*
X2617Y21037D01*
X2567Y21058D01*
Y21066D01*
X2566Y21074D01*
Y21082D01*
X2540Y21211D01*
X2537Y21218D01*
X2535Y21226D01*
X2485Y21348D01*
X2481Y21354D01*
X2478Y21362D01*
X2404Y21471D01*
X2399Y21477D01*
X2394Y21483D01*
X2301Y21577D01*
X2295Y21581D01*
X2289Y21587D01*
X2179Y21660D01*
X2172Y21663D01*
X2165Y21667D01*
X2044Y21718D01*
X2036Y21719D01*
X2029Y21722D01*
X1899Y21748D01*
X1891D01*
X1884Y21750D01*
D02*
G37*
G36*
X20266Y21200D02*
X19891D01*
Y20825D01*
X19953Y20833D01*
X20057Y20876D01*
X20146Y20945D01*
X20215Y21034D01*
X20258Y21138D01*
X20266Y21200D01*
D02*
G37*
G36*
X13266D02*
X12891D01*
Y20825D01*
X12953Y20833D01*
X13057Y20876D01*
X13146Y20945D01*
X13215Y21034D01*
X13258Y21138D01*
X13266Y21200D01*
D02*
G37*
G36*
X10266D02*
X9891D01*
Y20825D01*
X9953Y20833D01*
X10057Y20876D01*
X10146Y20945D01*
X10215Y21034D01*
X10258Y21138D01*
X10266Y21200D01*
D02*
G37*
G36*
X6266D02*
X5891D01*
Y20825D01*
X5953Y20833D01*
X6057Y20876D01*
X6146Y20945D01*
X6215Y21034D01*
X6258Y21138D01*
X6266Y21200D01*
D02*
G37*
G36*
X19791D02*
X19416D01*
X19424Y21138D01*
X19467Y21034D01*
X19536Y20945D01*
X19625Y20876D01*
X19729Y20833D01*
X19791Y20825D01*
Y21200D01*
D02*
G37*
G36*
X17791D02*
X17416D01*
X17424Y21138D01*
X17467Y21034D01*
X17536Y20945D01*
X17625Y20876D01*
X17729Y20833D01*
X17791Y20825D01*
Y21200D01*
D02*
G37*
G36*
X12791D02*
X12416D01*
X12424Y21138D01*
X12467Y21034D01*
X12536Y20945D01*
X12625Y20876D01*
X12729Y20833D01*
X12791Y20825D01*
Y21200D01*
D02*
G37*
G36*
X9791D02*
X9416D01*
X9424Y21138D01*
X9467Y21034D01*
X9536Y20945D01*
X9625Y20876D01*
X9729Y20833D01*
X9791Y20825D01*
Y21200D01*
D02*
G37*
G36*
X5791D02*
X5416D01*
X5424Y21138D01*
X5467Y21034D01*
X5536Y20945D01*
X5625Y20876D01*
X5729Y20833D01*
X5791Y20825D01*
Y21200D01*
D02*
G37*
G36*
X7841Y21660D02*
X7735Y21646D01*
X7636Y21605D01*
X7551Y21540D01*
X7486Y21455D01*
X7445Y21356D01*
X7431Y21250D01*
X7445Y21144D01*
X7486Y21045D01*
X7551Y20960D01*
X7636Y20895D01*
X7735Y20854D01*
X7841Y20840D01*
X7947Y20854D01*
X8021Y20885D01*
X8193Y20712D01*
Y20571D01*
X8162Y20560D01*
X8143Y20557D01*
X8057Y20624D01*
X7953Y20667D01*
X7891Y20675D01*
Y20250D01*
Y19825D01*
X7953Y19833D01*
X8057Y19876D01*
X8143Y19943D01*
X8162Y19940D01*
X8193Y19929D01*
Y19332D01*
X8203Y19282D01*
X8232Y19239D01*
X9069Y18402D01*
Y17920D01*
X9034Y17906D01*
X8966Y17853D01*
X8913Y17784D01*
X8880Y17704D01*
X8868Y17619D01*
X8880Y17533D01*
X8913Y17453D01*
X8966Y17384D01*
X9034Y17331D01*
X9114Y17298D01*
X9200Y17287D01*
X9286Y17298D01*
X9366Y17331D01*
X9434Y17384D01*
X9487Y17453D01*
X9520Y17533D01*
X9532Y17619D01*
X9520Y17704D01*
X9487Y17784D01*
X9434Y17853D01*
X9366Y17906D01*
X9331Y17920D01*
Y18456D01*
X9321Y18506D01*
X9293Y18549D01*
X8456Y19386D01*
Y20002D01*
X8506Y20019D01*
X8551Y19960D01*
X8636Y19895D01*
X8735Y19854D01*
X8841Y19840D01*
X8947Y19854D01*
X9046Y19895D01*
X9131Y19960D01*
X9196Y20045D01*
X9237Y20144D01*
X9251Y20250D01*
X9237Y20356D01*
X9196Y20455D01*
X9131Y20540D01*
X9046Y20605D01*
X8947Y20646D01*
X8841Y20660D01*
X8735Y20646D01*
X8636Y20605D01*
X8551Y20540D01*
X8506Y20481D01*
X8456Y20498D01*
Y20767D01*
X8446Y20817D01*
X8417Y20859D01*
X8206Y21070D01*
X8237Y21144D01*
X8251Y21250D01*
X8237Y21356D01*
X8196Y21455D01*
X8131Y21540D01*
X8046Y21605D01*
X7947Y21646D01*
X7841Y21660D01*
D02*
G37*
G36*
X6841D02*
X6735Y21646D01*
X6636Y21605D01*
X6551Y21540D01*
X6486Y21455D01*
X6445Y21356D01*
X6431Y21250D01*
X6445Y21144D01*
X6486Y21045D01*
X6551Y20960D01*
X6636Y20895D01*
X6735Y20854D01*
X6841Y20840D01*
X6947Y20854D01*
X7021Y20885D01*
X7253Y20652D01*
Y20448D01*
X7203Y20438D01*
X7196Y20455D01*
X7131Y20540D01*
X7046Y20605D01*
X6947Y20646D01*
X6841Y20660D01*
X6735Y20646D01*
X6636Y20605D01*
X6551Y20540D01*
X6486Y20455D01*
X6445Y20356D01*
X6431Y20250D01*
X6445Y20144D01*
X6486Y20045D01*
X6551Y19960D01*
X6636Y19895D01*
X6735Y19854D01*
X6841Y19840D01*
X6947Y19854D01*
X7046Y19895D01*
X7131Y19960D01*
X7196Y20045D01*
X7203Y20062D01*
X7253Y20052D01*
Y19190D01*
X7263Y19140D01*
X7292Y19097D01*
X8519Y17870D01*
Y16951D01*
X8484Y16937D01*
X8416Y16884D01*
X8363Y16816D01*
X8330Y16736D01*
X8318Y16650D01*
X8330Y16564D01*
X8363Y16484D01*
X8416Y16416D01*
X8484Y16363D01*
X8564Y16330D01*
X8650Y16318D01*
X8736Y16330D01*
X8816Y16363D01*
X8884Y16416D01*
X8937Y16484D01*
X8970Y16564D01*
X8982Y16650D01*
X8970Y16736D01*
X8937Y16816D01*
X8884Y16884D01*
X8816Y16937D01*
X8781Y16951D01*
Y17924D01*
X8771Y17975D01*
X8743Y18017D01*
X7516Y19244D01*
Y19897D01*
X7566Y19922D01*
X7625Y19876D01*
X7729Y19833D01*
X7791Y19825D01*
Y20250D01*
Y20675D01*
X7729Y20667D01*
X7625Y20624D01*
X7566Y20578D01*
X7516Y20603D01*
Y20707D01*
X7506Y20757D01*
X7477Y20799D01*
X7206Y21070D01*
X7237Y21144D01*
X7251Y21250D01*
X7237Y21356D01*
X7196Y21455D01*
X7131Y21540D01*
X7046Y21605D01*
X6947Y21646D01*
X6841Y21660D01*
D02*
G37*
G36*
X15891Y20675D02*
Y20300D01*
X16266D01*
X16258Y20362D01*
X16215Y20466D01*
X16146Y20555D01*
X16057Y20624D01*
X15953Y20667D01*
X15891Y20675D01*
D02*
G37*
G36*
X22891D02*
Y20300D01*
X23266D01*
X23258Y20362D01*
X23215Y20466D01*
X23146Y20555D01*
X23057Y20624D01*
X22953Y20667D01*
X22891Y20675D01*
D02*
G37*
G36*
X22791D02*
X22729Y20667D01*
X22625Y20624D01*
X22536Y20555D01*
X22467Y20466D01*
X22424Y20362D01*
X22416Y20300D01*
X22791D01*
Y20675D01*
D02*
G37*
G36*
X15791D02*
X15729Y20667D01*
X15625Y20624D01*
X15536Y20555D01*
X15467Y20466D01*
X15424Y20362D01*
X15416Y20300D01*
X15791D01*
Y20675D01*
D02*
G37*
G36*
X24600Y21400D02*
X24468D01*
X24460Y21398D01*
X24453D01*
X24323Y21372D01*
X24316Y21369D01*
X24308Y21368D01*
X24186Y21317D01*
X24180Y21313D01*
X24172Y21310D01*
X24063Y21237D01*
X24057Y21231D01*
X24051Y21227D01*
X23957Y21133D01*
X23953Y21127D01*
X23947Y21121D01*
X23874Y21012D01*
X23871Y21004D01*
X23867Y20998D01*
X23816Y20876D01*
X23815Y20868D01*
X23812Y20861D01*
X23786Y20732D01*
Y20724D01*
X23785Y20716D01*
Y20584D01*
X23786Y20576D01*
Y20568D01*
X23812Y20439D01*
X23815Y20432D01*
X23816Y20424D01*
X23867Y20302D01*
X23871Y20296D01*
X23874Y20288D01*
X23947Y20179D01*
X23953Y20173D01*
X23957Y20167D01*
X24051Y20073D01*
X24057Y20069D01*
X24063Y20063D01*
X24172Y19990D01*
X24180Y19987D01*
X24186Y19983D01*
X24308Y19932D01*
X24316Y19931D01*
X24323Y19928D01*
X24453Y19902D01*
X24460D01*
X24468Y19900D01*
X24600D01*
X24608Y19902D01*
X24616D01*
X24745Y19928D01*
X24752Y19931D01*
X24760Y19932D01*
X24882Y19983D01*
X24888Y19987D01*
X24896Y19990D01*
X25005Y20063D01*
X25011Y20069D01*
X25017Y20073D01*
X25111Y20167D01*
X25115Y20173D01*
X25121Y20179D01*
X25194Y20288D01*
X25197Y20296D01*
X25201Y20302D01*
X25252Y20424D01*
X25253Y20432D01*
X25256Y20439D01*
X25282Y20568D01*
Y20576D01*
X25284Y20584D01*
Y20716D01*
X25282Y20724D01*
Y20732D01*
X25256Y20861D01*
X25253Y20868D01*
X25252Y20876D01*
X25201Y20998D01*
X25197Y21004D01*
X25194Y21012D01*
X25121Y21121D01*
X25115Y21127D01*
X25111Y21133D01*
X25017Y21227D01*
X25011Y21231D01*
X25005Y21237D01*
X24896Y21310D01*
X24888Y21313D01*
X24882Y21317D01*
X24760Y21368D01*
X24752Y21369D01*
X24745Y21372D01*
X24616Y21398D01*
X24608D01*
X24600Y21400D01*
D02*
G37*
G36*
X21841Y20660D02*
X21735Y20646D01*
X21636Y20605D01*
X21551Y20540D01*
X21486Y20455D01*
X21445Y20356D01*
X21431Y20250D01*
X21445Y20144D01*
X21486Y20045D01*
X21551Y19960D01*
X21636Y19895D01*
X21735Y19854D01*
X21841Y19840D01*
X21947Y19854D01*
X22046Y19895D01*
X22131Y19960D01*
X22196Y20045D01*
X22237Y20144D01*
X22251Y20250D01*
X22237Y20356D01*
X22196Y20455D01*
X22131Y20540D01*
X22046Y20605D01*
X21947Y20646D01*
X21841Y20660D01*
D02*
G37*
G36*
X20841D02*
X20735Y20646D01*
X20636Y20605D01*
X20551Y20540D01*
X20486Y20455D01*
X20445Y20356D01*
X20431Y20250D01*
X20445Y20144D01*
X20486Y20045D01*
X20551Y19960D01*
X20636Y19895D01*
X20735Y19854D01*
X20841Y19840D01*
X20947Y19854D01*
X21046Y19895D01*
X21131Y19960D01*
X21196Y20045D01*
X21237Y20144D01*
X21251Y20250D01*
X21237Y20356D01*
X21196Y20455D01*
X21131Y20540D01*
X21046Y20605D01*
X20947Y20646D01*
X20841Y20660D01*
D02*
G37*
G36*
X19841D02*
X19735Y20646D01*
X19636Y20605D01*
X19551Y20540D01*
X19486Y20455D01*
X19445Y20356D01*
X19431Y20250D01*
X19445Y20144D01*
X19486Y20045D01*
X19551Y19960D01*
X19636Y19895D01*
X19735Y19854D01*
X19841Y19840D01*
X19947Y19854D01*
X20046Y19895D01*
X20131Y19960D01*
X20196Y20045D01*
X20237Y20144D01*
X20251Y20250D01*
X20237Y20356D01*
X20196Y20455D01*
X20131Y20540D01*
X20046Y20605D01*
X19947Y20646D01*
X19841Y20660D01*
D02*
G37*
G36*
X17841D02*
X17735Y20646D01*
X17636Y20605D01*
X17551Y20540D01*
X17486Y20455D01*
X17445Y20356D01*
X17431Y20250D01*
X17445Y20144D01*
X17486Y20045D01*
X17551Y19960D01*
X17636Y19895D01*
X17735Y19854D01*
X17841Y19840D01*
X17947Y19854D01*
X18046Y19895D01*
X18131Y19960D01*
X18196Y20045D01*
X18237Y20144D01*
X18251Y20250D01*
X18237Y20356D01*
X18196Y20455D01*
X18131Y20540D01*
X18046Y20605D01*
X17947Y20646D01*
X17841Y20660D01*
D02*
G37*
G36*
X16841D02*
X16735Y20646D01*
X16636Y20605D01*
X16551Y20540D01*
X16486Y20455D01*
X16445Y20356D01*
X16431Y20250D01*
X16445Y20144D01*
X16486Y20045D01*
X16551Y19960D01*
X16636Y19895D01*
X16735Y19854D01*
X16841Y19840D01*
X16947Y19854D01*
X17046Y19895D01*
X17131Y19960D01*
X17196Y20045D01*
X17237Y20144D01*
X17251Y20250D01*
X17237Y20356D01*
X17196Y20455D01*
X17131Y20540D01*
X17046Y20605D01*
X16947Y20646D01*
X16841Y20660D01*
D02*
G37*
G36*
X14841D02*
X14735Y20646D01*
X14636Y20605D01*
X14551Y20540D01*
X14486Y20455D01*
X14445Y20356D01*
X14431Y20250D01*
X14445Y20144D01*
X14486Y20045D01*
X14551Y19960D01*
X14636Y19895D01*
X14735Y19854D01*
X14841Y19840D01*
X14947Y19854D01*
X15046Y19895D01*
X15131Y19960D01*
X15196Y20045D01*
X15237Y20144D01*
X15251Y20250D01*
X15237Y20356D01*
X15196Y20455D01*
X15131Y20540D01*
X15046Y20605D01*
X14947Y20646D01*
X14841Y20660D01*
D02*
G37*
G36*
X13841D02*
X13735Y20646D01*
X13636Y20605D01*
X13551Y20540D01*
X13486Y20455D01*
X13445Y20356D01*
X13431Y20250D01*
X13445Y20144D01*
X13486Y20045D01*
X13551Y19960D01*
X13636Y19895D01*
X13735Y19854D01*
X13841Y19840D01*
X13947Y19854D01*
X14046Y19895D01*
X14131Y19960D01*
X14196Y20045D01*
X14237Y20144D01*
X14251Y20250D01*
X14237Y20356D01*
X14196Y20455D01*
X14131Y20540D01*
X14046Y20605D01*
X13947Y20646D01*
X13841Y20660D01*
D02*
G37*
G36*
X12841D02*
X12735Y20646D01*
X12636Y20605D01*
X12551Y20540D01*
X12486Y20455D01*
X12445Y20356D01*
X12431Y20250D01*
X12445Y20144D01*
X12486Y20045D01*
X12551Y19960D01*
X12636Y19895D01*
X12735Y19854D01*
X12841Y19840D01*
X12947Y19854D01*
X13046Y19895D01*
X13131Y19960D01*
X13196Y20045D01*
X13237Y20144D01*
X13251Y20250D01*
X13237Y20356D01*
X13196Y20455D01*
X13131Y20540D01*
X13046Y20605D01*
X12947Y20646D01*
X12841Y20660D01*
D02*
G37*
G36*
X11841D02*
X11735Y20646D01*
X11636Y20605D01*
X11551Y20540D01*
X11486Y20455D01*
X11445Y20356D01*
X11431Y20250D01*
X11445Y20144D01*
X11486Y20045D01*
X11551Y19960D01*
X11636Y19895D01*
X11735Y19854D01*
X11841Y19840D01*
X11947Y19854D01*
X12046Y19895D01*
X12131Y19960D01*
X12196Y20045D01*
X12237Y20144D01*
X12251Y20250D01*
X12237Y20356D01*
X12196Y20455D01*
X12131Y20540D01*
X12046Y20605D01*
X11947Y20646D01*
X11841Y20660D01*
D02*
G37*
G36*
X10841D02*
X10735Y20646D01*
X10636Y20605D01*
X10551Y20540D01*
X10486Y20455D01*
X10445Y20356D01*
X10431Y20250D01*
X10445Y20144D01*
X10486Y20045D01*
X10551Y19960D01*
X10636Y19895D01*
X10735Y19854D01*
X10841Y19840D01*
X10947Y19854D01*
X11046Y19895D01*
X11131Y19960D01*
X11196Y20045D01*
X11237Y20144D01*
X11251Y20250D01*
X11237Y20356D01*
X11196Y20455D01*
X11131Y20540D01*
X11046Y20605D01*
X10947Y20646D01*
X10841Y20660D01*
D02*
G37*
G36*
X9841D02*
X9735Y20646D01*
X9636Y20605D01*
X9551Y20540D01*
X9486Y20455D01*
X9445Y20356D01*
X9431Y20250D01*
X9445Y20144D01*
X9486Y20045D01*
X9551Y19960D01*
X9636Y19895D01*
X9735Y19854D01*
X9841Y19840D01*
X9947Y19854D01*
X10046Y19895D01*
X10131Y19960D01*
X10196Y20045D01*
X10237Y20144D01*
X10251Y20250D01*
X10237Y20356D01*
X10196Y20455D01*
X10131Y20540D01*
X10046Y20605D01*
X9947Y20646D01*
X9841Y20660D01*
D02*
G37*
G36*
X5841D02*
X5735Y20646D01*
X5636Y20605D01*
X5551Y20540D01*
X5486Y20455D01*
X5445Y20356D01*
X5431Y20250D01*
X5445Y20144D01*
X5486Y20045D01*
X5551Y19960D01*
X5636Y19895D01*
X5735Y19854D01*
X5841Y19840D01*
X5947Y19854D01*
X6046Y19895D01*
X6131Y19960D01*
X6196Y20045D01*
X6237Y20144D01*
X6251Y20250D01*
X6237Y20356D01*
X6196Y20455D01*
X6131Y20540D01*
X6046Y20605D01*
X5947Y20646D01*
X5841Y20660D01*
D02*
G37*
G36*
X4841D02*
X4735Y20646D01*
X4636Y20605D01*
X4551Y20540D01*
X4486Y20455D01*
X4445Y20356D01*
X4431Y20250D01*
X4445Y20144D01*
X4486Y20045D01*
X4551Y19960D01*
X4636Y19895D01*
X4735Y19854D01*
X4841Y19840D01*
X4947Y19854D01*
X5046Y19895D01*
X5131Y19960D01*
X5196Y20045D01*
X5237Y20144D01*
X5251Y20250D01*
X5237Y20356D01*
X5196Y20455D01*
X5131Y20540D01*
X5046Y20605D01*
X4947Y20646D01*
X4841Y20660D01*
D02*
G37*
G36*
X23266Y20200D02*
X22891D01*
Y19825D01*
X22953Y19833D01*
X23057Y19876D01*
X23146Y19945D01*
X23215Y20034D01*
X23258Y20138D01*
X23266Y20200D01*
D02*
G37*
G36*
X16266D02*
X15891D01*
Y19825D01*
X15953Y19833D01*
X16057Y19876D01*
X16146Y19945D01*
X16215Y20034D01*
X16258Y20138D01*
X16266Y20200D01*
D02*
G37*
G36*
X22791D02*
X22416D01*
X22424Y20138D01*
X22467Y20034D01*
X22536Y19945D01*
X22625Y19876D01*
X22729Y19833D01*
X22791Y19825D01*
Y20200D01*
D02*
G37*
G36*
X15791D02*
X15416D01*
X15424Y20138D01*
X15467Y20034D01*
X15536Y19945D01*
X15625Y19876D01*
X15729Y19833D01*
X15791Y19825D01*
Y20200D01*
D02*
G37*
G36*
X17520Y19192D02*
X17333D01*
Y18748D01*
X17520D01*
Y19192D01*
D02*
G37*
G36*
X12732D02*
X12545D01*
Y18748D01*
X12732D01*
Y19192D01*
D02*
G37*
G36*
X4247Y20656D02*
X3434D01*
Y19843D01*
X3659D01*
Y19293D01*
X3659Y19293D01*
X3673Y19224D01*
X3712Y19164D01*
X4271Y18605D01*
X4271Y18605D01*
X4330Y18566D01*
X4400Y18552D01*
X4400Y18552D01*
X4658D01*
X4663Y18541D01*
X4716Y18472D01*
X4784Y18420D01*
X4864Y18386D01*
X4950Y18375D01*
X5036Y18386D01*
X5116Y18420D01*
X5184Y18472D01*
X5237Y18541D01*
X5242Y18553D01*
X6747D01*
X6766Y18529D01*
X6834Y18477D01*
X6914Y18444D01*
X7000Y18432D01*
X7086Y18444D01*
X7166Y18477D01*
X7234Y18529D01*
X7287Y18598D01*
X7320Y18678D01*
X7332Y18764D01*
X7320Y18850D01*
X7287Y18930D01*
X7234Y18998D01*
X7166Y19051D01*
X7086Y19084D01*
X7000Y19096D01*
X6914Y19084D01*
X6834Y19051D01*
X6766Y18998D01*
X6713Y18930D01*
X6708Y18918D01*
X5203D01*
X5184Y18941D01*
X5116Y18994D01*
X5036Y19027D01*
X4950Y19038D01*
X4864Y19027D01*
X4784Y18994D01*
X4716Y18941D01*
X4697Y18916D01*
X4475D01*
X4023Y19369D01*
Y19843D01*
X4247D01*
Y20656D01*
D02*
G37*
G36*
X24563Y18974D02*
X23815D01*
Y18226D01*
X24563D01*
Y18974D01*
D02*
G37*
G36*
X16499Y19171D02*
X16066D01*
Y18226D01*
X16499D01*
Y19171D01*
D02*
G37*
G36*
X15999D02*
X15566D01*
Y18226D01*
X15999D01*
Y19171D01*
D02*
G37*
G36*
X15499D02*
X15066D01*
Y18226D01*
X15499D01*
Y19171D01*
D02*
G37*
G36*
X14999D02*
X14566D01*
Y18226D01*
X14999D01*
Y19171D01*
D02*
G37*
G36*
X14499D02*
X14066D01*
Y18226D01*
X14499D01*
Y19171D01*
D02*
G37*
G36*
X13999D02*
X13566D01*
Y18226D01*
X13999D01*
Y19171D01*
D02*
G37*
G36*
X23189Y18977D02*
X23091Y18964D01*
X23000Y18927D01*
X22922Y18867D01*
X22862Y18789D01*
X22824Y18698D01*
X22811Y18600D01*
X22824Y18502D01*
X22862Y18411D01*
X22922Y18333D01*
X23000Y18273D01*
X23091Y18236D01*
X23189Y18223D01*
X23286Y18236D01*
X23377Y18273D01*
X23455Y18333D01*
X23515Y18411D01*
X23553Y18502D01*
X23566Y18600D01*
X23553Y18698D01*
X23515Y18789D01*
X23455Y18867D01*
X23377Y18927D01*
X23286Y18964D01*
X23189Y18977D01*
D02*
G37*
G36*
X17520Y18648D02*
X17333D01*
Y18205D01*
X17520D01*
Y18648D01*
D02*
G37*
G36*
X13020Y19192D02*
X12832D01*
Y18698D01*
Y18205D01*
X13020D01*
Y18216D01*
X13066Y18226D01*
X13070Y18226D01*
X13499D01*
Y19171D01*
X13070D01*
X13066Y19171D01*
X13020Y19181D01*
Y19192D01*
D02*
G37*
G36*
X12732Y18648D02*
X12545D01*
Y18205D01*
X12732D01*
Y18648D01*
D02*
G37*
G36*
X12181Y18346D02*
Y18050D01*
X12477D01*
X12472Y18091D01*
X12437Y18177D01*
X12380Y18250D01*
X12307Y18306D01*
X12222Y18341D01*
X12181Y18346D01*
D02*
G37*
G36*
X12081D02*
X12039Y18341D01*
X11954Y18306D01*
X11881Y18250D01*
X11825Y18177D01*
X11790Y18091D01*
X11784Y18050D01*
X12081D01*
Y18346D01*
D02*
G37*
G36*
X12477Y17950D02*
X12181D01*
Y17654D01*
X12222Y17659D01*
X12307Y17694D01*
X12380Y17750D01*
X12437Y17823D01*
X12472Y17909D01*
X12477Y17950D01*
D02*
G37*
G36*
X12081D02*
X11784D01*
X11790Y17909D01*
X11825Y17823D01*
X11881Y17750D01*
X11954Y17694D01*
X12039Y17659D01*
X12081Y17654D01*
Y17950D01*
D02*
G37*
G36*
X24713Y17348D02*
X24673Y17343D01*
X24589Y17308D01*
X24517Y17253D01*
X24488Y17215D01*
X24438D01*
X24420Y17237D01*
X24352Y17290D01*
X24273Y17322D01*
X24189Y17333D01*
X24104Y17322D01*
X24025Y17290D01*
X23957Y17237D01*
X23933Y17206D01*
X23870D01*
X23845Y17237D01*
X23778Y17290D01*
X23699Y17322D01*
X23614Y17333D01*
X23529Y17322D01*
X23450Y17290D01*
X23382Y17237D01*
X23330Y17170D01*
X23297Y17091D01*
X23286Y17006D01*
X23297Y16921D01*
X23311Y16888D01*
X20898Y14475D01*
X20869Y14433D01*
X20859Y14382D01*
Y13044D01*
X20825Y13030D01*
X20756Y12977D01*
X20703Y12908D01*
X20670Y12828D01*
X20659Y12743D01*
X20670Y12657D01*
X20703Y12577D01*
X20756Y12508D01*
X20825Y12455D01*
X20905Y12422D01*
X20991Y12411D01*
X21076Y12422D01*
X21156Y12455D01*
X21225Y12508D01*
X21278Y12577D01*
X21311Y12657D01*
X21322Y12743D01*
X21311Y12828D01*
X21278Y12908D01*
X21225Y12977D01*
X21156Y13030D01*
X21122Y13044D01*
Y14328D01*
X22186Y15392D01*
X22229Y15366D01*
X22216Y15325D01*
X22201Y15176D01*
X22216Y15028D01*
X22259Y14885D01*
X22330Y14753D01*
X22424Y14638D01*
X22540Y14543D01*
X22672Y14473D01*
X22814Y14429D01*
X22963Y14415D01*
X23112Y14429D01*
X23254Y14473D01*
X23386Y14543D01*
X23501Y14638D01*
X23596Y14753D01*
X23667Y14885D01*
X23710Y15028D01*
X23725Y15176D01*
X23710Y15325D01*
X23667Y15468D01*
X23596Y15599D01*
X23501Y15715D01*
X23386Y15810D01*
X23254Y15880D01*
X23112Y15923D01*
X22963Y15938D01*
X22814Y15923D01*
X22773Y15911D01*
X22747Y15954D01*
X23496Y16703D01*
X23529Y16689D01*
X23614Y16678D01*
X23699Y16689D01*
X23778Y16722D01*
X23845Y16774D01*
X23870Y16806D01*
X23933D01*
X23957Y16774D01*
X24025Y16722D01*
X24104Y16689D01*
X24189Y16678D01*
X24273Y16689D01*
X24352Y16722D01*
X24420Y16774D01*
X24438Y16797D01*
X24488D01*
X24517Y16759D01*
X24589Y16704D01*
X24673Y16669D01*
X24713Y16663D01*
Y17006D01*
Y17348D01*
D02*
G37*
G36*
X13390Y17208D02*
Y16911D01*
X13686D01*
X13681Y16953D01*
X13646Y17038D01*
X13590Y17111D01*
X13516Y17167D01*
X13431Y17202D01*
X13390Y17208D01*
D02*
G37*
G36*
X13290D02*
X13249Y17202D01*
X13163Y17167D01*
X13090Y17111D01*
X13034Y17038D01*
X12999Y16953D01*
X12994Y16911D01*
X13290D01*
Y17208D01*
D02*
G37*
G36*
X1270Y17457D02*
Y16895D01*
X2040D01*
Y17457D01*
X1270D01*
D02*
G37*
G36*
X24813Y17348D02*
Y17006D01*
Y16663D01*
X24854Y16669D01*
X24938Y16704D01*
X25010Y16759D01*
X25039Y16797D01*
X25089D01*
X25107Y16774D01*
X25174Y16722D01*
X25253Y16689D01*
X25338Y16678D01*
X25423Y16689D01*
X25502Y16722D01*
X25570Y16774D01*
X25622Y16842D01*
X25655Y16921D01*
X25666Y17006D01*
X25655Y17091D01*
X25622Y17170D01*
X25570Y17237D01*
X25502Y17290D01*
X25423Y17322D01*
X25338Y17333D01*
X25253Y17322D01*
X25174Y17290D01*
X25107Y17237D01*
X25089Y17215D01*
X25039D01*
X25010Y17253D01*
X24938Y17308D01*
X24854Y17343D01*
X24813Y17348D01*
D02*
G37*
G36*
X20786Y18754D02*
X20235D01*
Y18442D01*
X20229Y18400D01*
Y18328D01*
X20229Y18328D01*
X20235Y18285D01*
Y18046D01*
X20319D01*
Y17298D01*
X20273Y17239D01*
X20236Y17148D01*
X20223Y17050D01*
X20236Y16952D01*
X20273Y16861D01*
X20333Y16783D01*
X20411Y16723D01*
X20502Y16686D01*
X20600Y16673D01*
X20698Y16686D01*
X20789Y16723D01*
X20867Y16783D01*
X20927Y16861D01*
X20964Y16952D01*
X20977Y17050D01*
X20964Y17148D01*
X20927Y17239D01*
X20881Y17298D01*
Y18238D01*
X20872Y18311D01*
X20843Y18379D01*
X20799Y18437D01*
X20799Y18437D01*
X20786Y18450D01*
Y18754D01*
D02*
G37*
G36*
X13686Y16811D02*
X13390D01*
Y16515D01*
X13431Y16520D01*
X13516Y16556D01*
X13590Y16612D01*
X13646Y16685D01*
X13681Y16770D01*
X13686Y16811D01*
D02*
G37*
G36*
X13290D02*
X12994D01*
X12999Y16770D01*
X13034Y16685D01*
X13090Y16612D01*
X13163Y16556D01*
X13249Y16520D01*
X13290Y16515D01*
Y16811D01*
D02*
G37*
G36*
X2822Y17223D02*
X2724Y17210D01*
X2633Y17172D01*
X2555Y17112D01*
X2495Y17034D01*
X2458Y16943D01*
X2445Y16845D01*
X2458Y16748D01*
X2495Y16657D01*
X2555Y16579D01*
X2633Y16519D01*
X2724Y16481D01*
X2822Y16468D01*
X2920Y16481D01*
X3011Y16519D01*
X3089Y16579D01*
X3149Y16657D01*
X3186Y16748D01*
X3199Y16845D01*
X3186Y16943D01*
X3149Y17034D01*
X3089Y17112D01*
X3011Y17172D01*
X2920Y17210D01*
X2822Y17223D01*
D02*
G37*
G36*
X21974Y17424D02*
X21226D01*
Y17006D01*
X20653Y16433D01*
X19105D01*
X19096Y16500D01*
X19063Y16580D01*
X19010Y16649D01*
X18942Y16701D01*
X18862Y16734D01*
X18776Y16746D01*
X18690Y16734D01*
X18610Y16701D01*
X18542Y16649D01*
X18489Y16580D01*
X18456Y16500D01*
X18444Y16414D01*
X18456Y16328D01*
X18489Y16248D01*
X18542Y16180D01*
X18610Y16127D01*
X18690Y16094D01*
X18776Y16083D01*
X18778Y16083D01*
X18825Y16035D01*
X18901Y15985D01*
X18990Y15967D01*
X20750D01*
X20839Y15985D01*
X20915Y16035D01*
X21556Y16676D01*
X21974D01*
Y17424D01*
D02*
G37*
G36*
X5775Y17327D02*
X5650Y17311D01*
X5534Y17262D01*
X5434Y17186D01*
X5358Y17086D01*
X5310Y16970D01*
X5293Y16845D01*
X5310Y16721D01*
X5358Y16605D01*
X5434Y16505D01*
X5534Y16428D01*
X5650Y16380D01*
X5775Y16364D01*
X5899Y16380D01*
X6016Y16428D01*
X6115Y16505D01*
X6192Y16605D01*
X6240Y16721D01*
X6256Y16845D01*
X6240Y16970D01*
X6192Y17086D01*
X6115Y17186D01*
X6016Y17262D01*
X5899Y17311D01*
X5775Y17327D01*
D02*
G37*
G36*
X2040Y16795D02*
X1270D01*
Y16234D01*
X2040D01*
Y16795D01*
D02*
G37*
G36*
X14022Y16255D02*
Y15959D01*
X14319D01*
X14313Y16000D01*
X14278Y16086D01*
X14222Y16159D01*
X14149Y16215D01*
X14064Y16250D01*
X14022Y16255D01*
D02*
G37*
G36*
X13922D02*
X13881Y16250D01*
X13796Y16215D01*
X13723Y16159D01*
X13666Y16086D01*
X13631Y16000D01*
X13626Y15959D01*
X13922D01*
Y16255D01*
D02*
G37*
G36*
X8263Y17436D02*
X6665D01*
Y16477D01*
X5799Y15611D01*
X5771Y15614D01*
X5749Y15616D01*
X5697Y15684D01*
X5628Y15737D01*
X5548Y15770D01*
X5462Y15782D01*
X5376Y15770D01*
X5296Y15737D01*
X5228Y15684D01*
X5175Y15616D01*
X5142Y15536D01*
X5131Y15450D01*
X5142Y15364D01*
X5175Y15284D01*
X5228Y15216D01*
X5296Y15163D01*
X5376Y15130D01*
X5462Y15118D01*
X5548Y15130D01*
X5628Y15163D01*
X5697Y15216D01*
X5749Y15284D01*
X5753Y15293D01*
X5860D01*
X5920Y15305D01*
X5971Y15339D01*
X6886Y16255D01*
X8263D01*
Y17436D01*
D02*
G37*
G36*
X14319Y15859D02*
X14022D01*
Y15563D01*
X14064Y15568D01*
X14149Y15603D01*
X14222Y15659D01*
X14278Y15733D01*
X14313Y15818D01*
X14319Y15859D01*
D02*
G37*
G36*
X13922D02*
X13626D01*
X13631Y15818D01*
X13666Y15733D01*
X13723Y15659D01*
X13796Y15603D01*
X13881Y15568D01*
X13922Y15563D01*
Y15859D01*
D02*
G37*
G36*
X17895Y15523D02*
Y15226D01*
X18192D01*
X18186Y15268D01*
X18151Y15353D01*
X18095Y15426D01*
X18022Y15482D01*
X17937Y15517D01*
X17895Y15523D01*
D02*
G37*
G36*
X17795D02*
X17754Y15517D01*
X17669Y15482D01*
X17596Y15426D01*
X17540Y15353D01*
X17504Y15268D01*
X17499Y15226D01*
X17795D01*
Y15523D01*
D02*
G37*
G36*
X18192Y15126D02*
X17895D01*
Y14830D01*
X17937Y14835D01*
X18022Y14871D01*
X18095Y14927D01*
X18151Y15000D01*
X18186Y15085D01*
X18192Y15126D01*
D02*
G37*
G36*
X17795D02*
X17499D01*
X17504Y15085D01*
X17540Y15000D01*
X17596Y14927D01*
X17669Y14871D01*
X17754Y14835D01*
X17795Y14830D01*
Y15126D01*
D02*
G37*
G36*
X20211Y14566D02*
Y14270D01*
X20508D01*
X20502Y14311D01*
X20467Y14396D01*
X20411Y14469D01*
X20338Y14525D01*
X20253Y14561D01*
X20211Y14566D01*
D02*
G37*
G36*
X20111D02*
X20070Y14561D01*
X19985Y14525D01*
X19912Y14469D01*
X19856Y14396D01*
X19820Y14311D01*
X19815Y14270D01*
X20111D01*
Y14566D01*
D02*
G37*
G36*
X21946Y14346D02*
Y14018D01*
X22274D01*
X22268Y14067D01*
X22229Y14160D01*
X22168Y14240D01*
X22089Y14301D01*
X21996Y14340D01*
X21946Y14346D01*
D02*
G37*
G36*
X21846D02*
X21796Y14340D01*
X21704Y14301D01*
X21624Y14240D01*
X21563Y14160D01*
X21524Y14067D01*
X21518Y14018D01*
X21846D01*
Y14346D01*
D02*
G37*
G36*
X22274Y13918D02*
X21946D01*
Y13589D01*
X21996Y13596D01*
X22089Y13634D01*
X22168Y13695D01*
X22229Y13775D01*
X22268Y13868D01*
X22274Y13918D01*
D02*
G37*
G36*
X21846D02*
X21518D01*
X21524Y13868D01*
X21563Y13775D01*
X21624Y13695D01*
X21704Y13634D01*
X21796Y13596D01*
X21846Y13589D01*
Y13918D01*
D02*
G37*
G36*
X17520Y13995D02*
X17333D01*
Y13552D01*
X17520D01*
Y13995D01*
D02*
G37*
G36*
X12732Y13452D02*
X12545D01*
Y13008D01*
X12732D01*
Y13452D01*
D02*
G37*
G36*
X13045Y13995D02*
X12995Y13995D01*
X12832D01*
Y13502D01*
Y13008D01*
X12995D01*
X13020Y13008D01*
X13070Y13008D01*
X13233D01*
Y13502D01*
Y13995D01*
X13070D01*
X13045Y13995D01*
D02*
G37*
G36*
X12186Y13196D02*
Y12900D01*
X12482D01*
X12477Y12941D01*
X12442Y13027D01*
X12385Y13100D01*
X12312Y13156D01*
X12227Y13191D01*
X12186Y13196D01*
D02*
G37*
G36*
X12086D02*
X12044Y13191D01*
X11959Y13156D01*
X11886Y13100D01*
X11830Y13027D01*
X11795Y12941D01*
X11789Y12900D01*
X12086D01*
Y13196D01*
D02*
G37*
G36*
X21896Y13347D02*
X21802Y13335D01*
X21714Y13298D01*
X21639Y13241D01*
X21581Y13165D01*
X21545Y13078D01*
X21533Y12983D01*
X21545Y12889D01*
X21581Y12802D01*
X21639Y12726D01*
X21714Y12669D01*
X21802Y12632D01*
X21896Y12620D01*
X21990Y12632D01*
X22078Y12669D01*
X22153Y12726D01*
X22211Y12802D01*
X22247Y12889D01*
X22260Y12983D01*
X22247Y13078D01*
X22211Y13165D01*
X22153Y13241D01*
X22078Y13298D01*
X21990Y13335D01*
X21896Y13347D01*
D02*
G37*
G36*
X18403Y12867D02*
X18048D01*
Y12600D01*
X18403D01*
Y12867D01*
D02*
G37*
G36*
X17948D02*
X17593D01*
Y12600D01*
X17948D01*
Y12867D01*
D02*
G37*
G36*
X13333Y13995D02*
Y13502D01*
Y13008D01*
X13520D01*
Y13019D01*
X13566Y13029D01*
X13570Y13029D01*
X13772D01*
X13791Y12983D01*
X13325Y12517D01*
X12986D01*
X12934Y12584D01*
X12866Y12637D01*
X12786Y12670D01*
X12700Y12682D01*
X12614Y12670D01*
X12534Y12637D01*
X12466Y12584D01*
X12413Y12516D01*
X12380Y12436D01*
X12368Y12350D01*
X12380Y12264D01*
X12413Y12184D01*
X12466Y12116D01*
X12534Y12063D01*
X12614Y12030D01*
X12700Y12018D01*
X12786Y12030D01*
X12866Y12063D01*
X12934Y12116D01*
X12986Y12183D01*
X13394D01*
X13458Y12196D01*
X13512Y12232D01*
X14202Y12922D01*
X14216Y12944D01*
X14302Y13029D01*
X14499D01*
Y13974D01*
X14066D01*
Y13289D01*
X14049Y13276D01*
X13999Y13301D01*
Y13974D01*
X13570D01*
X13566Y13974D01*
X13520Y13984D01*
Y13995D01*
X13333D01*
D02*
G37*
G36*
X17498Y12636D02*
X17201D01*
Y12339D01*
X17243Y12345D01*
X17328Y12380D01*
X17401Y12436D01*
X17457Y12509D01*
X17492Y12594D01*
X17498Y12636D01*
D02*
G37*
G36*
X18403Y12500D02*
X18048D01*
Y12233D01*
X18403D01*
Y12500D01*
D02*
G37*
G36*
X17948D02*
X17593D01*
Y12233D01*
X17948D01*
Y12500D01*
D02*
G37*
G36*
X12482Y12800D02*
X11789D01*
X11795Y12759D01*
X11830Y12673D01*
X11886Y12600D01*
X11959Y12544D01*
X12044Y12509D01*
X12038Y12459D01*
X11384D01*
Y12000D01*
X12184D01*
Y12453D01*
X12184Y12459D01*
X12195Y12505D01*
X12227Y12509D01*
X12312Y12544D01*
X12385Y12600D01*
X12442Y12673D01*
X12477Y12759D01*
X12482Y12800D01*
D02*
G37*
G36*
X11284Y12459D02*
X10484D01*
Y12000D01*
X11284D01*
Y12459D01*
D02*
G37*
G36*
X21896Y12560D02*
X21802Y12547D01*
X21714Y12511D01*
X21639Y12453D01*
X21581Y12378D01*
X21545Y12290D01*
X21533Y12196D01*
X21545Y12102D01*
X21581Y12014D01*
X21639Y11939D01*
X21714Y11881D01*
X21802Y11845D01*
X21896Y11833D01*
X21990Y11845D01*
X22078Y11881D01*
X22153Y11939D01*
X22211Y12014D01*
X22247Y12102D01*
X22260Y12196D01*
X22247Y12290D01*
X22211Y12378D01*
X22153Y12453D01*
X22078Y12511D01*
X21990Y12547D01*
X21896Y12560D01*
D02*
G37*
G36*
X11284Y11900D02*
X10484D01*
Y11441D01*
X11284D01*
Y11900D01*
D02*
G37*
G36*
X18921Y12067D02*
X18487D01*
Y11298D01*
X18921D01*
Y12067D01*
D02*
G37*
G36*
X18387D02*
X17954D01*
Y11298D01*
X18387D01*
Y12067D01*
D02*
G37*
G36*
X3800Y11543D02*
Y11247D01*
X4096D01*
X4091Y11288D01*
X4056Y11373D01*
X4000Y11446D01*
X3927Y11503D01*
X3841Y11538D01*
X3800Y11543D01*
D02*
G37*
G36*
X3700D02*
X3659Y11538D01*
X3573Y11503D01*
X3500Y11446D01*
X3444Y11373D01*
X3409Y11288D01*
X3404Y11247D01*
X3700D01*
Y11543D01*
D02*
G37*
G36*
X1886Y11581D02*
X1600D01*
Y11147D01*
X1886D01*
Y11581D01*
D02*
G37*
G36*
X1500D02*
X1214D01*
Y11147D01*
X1500D01*
Y11581D01*
D02*
G37*
G36*
X22257Y11572D02*
X21536D01*
Y10851D01*
X22257D01*
Y11572D01*
D02*
G37*
G36*
X4096Y11147D02*
X3800D01*
Y10850D01*
X3841Y10856D01*
X3927Y10891D01*
X4000Y10947D01*
X4056Y11020D01*
X4091Y11105D01*
X4096Y11147D01*
D02*
G37*
G36*
X3700D02*
X3404D01*
X3409Y11105D01*
X3444Y11020D01*
X3500Y10947D01*
X3573Y10891D01*
X3659Y10856D01*
X3700Y10850D01*
Y11147D01*
D02*
G37*
G36*
X18921Y11198D02*
X18487D01*
Y10430D01*
X18921D01*
Y11198D01*
D02*
G37*
G36*
X18387D02*
X17954D01*
Y10430D01*
X18387D01*
Y11198D01*
D02*
G37*
G36*
X3851Y10540D02*
X3496D01*
Y10274D01*
X3851D01*
Y10540D01*
D02*
G37*
G36*
X3396D02*
X3041D01*
Y10274D01*
X3396D01*
Y10540D01*
D02*
G37*
G36*
X3851Y10174D02*
X3496D01*
Y9907D01*
X3851D01*
Y10174D01*
D02*
G37*
G36*
X3396D02*
X3041D01*
Y9907D01*
X3396D01*
Y10174D01*
D02*
G37*
G36*
X17391Y9500D02*
X17095D01*
Y9204D01*
X17136Y9209D01*
X17221Y9244D01*
X17294Y9300D01*
X17350Y9373D01*
X17386Y9459D01*
X17391Y9500D01*
D02*
G37*
G36*
X12967Y9186D02*
Y8844D01*
X13309D01*
X13302Y8897D01*
X13262Y8993D01*
X13199Y9076D01*
X13116Y9139D01*
X13020Y9179D01*
X12967Y9186D01*
D02*
G37*
G36*
X12867D02*
X12813Y9179D01*
X12717Y9139D01*
X12635Y9076D01*
X12571Y8993D01*
X12532Y8897D01*
X12525Y8844D01*
X12867D01*
Y9186D01*
D02*
G37*
G36*
X15813Y9113D02*
X15507D01*
Y8768D01*
X15813D01*
Y9113D01*
D02*
G37*
G36*
X15407D02*
X15102D01*
Y8768D01*
X15407D01*
Y9113D01*
D02*
G37*
G36*
X25395Y8945D02*
X25050D01*
Y8600D01*
X25395D01*
Y8945D01*
D02*
G37*
G36*
X24950D02*
X24605D01*
Y8600D01*
X24950D01*
Y8945D01*
D02*
G37*
G36*
X3800Y9239D02*
X3435D01*
Y8500D01*
X3800D01*
Y9239D01*
D02*
G37*
G36*
X13309Y8744D02*
X12967D01*
Y8402D01*
X13020Y8409D01*
X13116Y8449D01*
X13199Y8512D01*
X13262Y8595D01*
X13302Y8691D01*
X13309Y8744D01*
D02*
G37*
G36*
X12867D02*
X12525D01*
X12532Y8691D01*
X12571Y8595D01*
X12635Y8512D01*
X12717Y8449D01*
X12813Y8409D01*
X12867Y8402D01*
Y8744D01*
D02*
G37*
G36*
X15832Y8695D02*
X15526D01*
Y8350D01*
X15832D01*
Y8695D01*
D02*
G37*
G36*
X15426D02*
X15120D01*
Y8350D01*
X15426D01*
Y8695D01*
D02*
G37*
G36*
X25395Y8500D02*
X25050D01*
Y8155D01*
X25395D01*
Y8500D01*
D02*
G37*
G36*
X24950D02*
X24605D01*
Y8155D01*
X24950D01*
Y8500D01*
D02*
G37*
G36*
X5775Y8446D02*
Y8150D01*
X6071D01*
X6066Y8191D01*
X6031Y8277D01*
X5974Y8350D01*
X5901Y8406D01*
X5816Y8441D01*
X5775Y8446D01*
D02*
G37*
G36*
X5675D02*
X5633Y8441D01*
X5548Y8406D01*
X5475Y8350D01*
X5419Y8277D01*
X5384Y8191D01*
X5378Y8150D01*
X5675D01*
Y8446D01*
D02*
G37*
G36*
X7718Y8066D02*
X7550D01*
Y7849D01*
X7718D01*
Y8066D01*
D02*
G37*
G36*
X7450D02*
X7282D01*
Y7849D01*
X7450D01*
Y8066D01*
D02*
G37*
G36*
X14850Y8104D02*
X14809Y8099D01*
X14723Y8064D01*
X14650Y8007D01*
X14594Y7934D01*
X14559Y7849D01*
X14554Y7808D01*
X14850D01*
Y8104D01*
D02*
G37*
G36*
X6071Y8050D02*
X5775D01*
Y7754D01*
X5816Y7759D01*
X5901Y7794D01*
X5974Y7850D01*
X6031Y7923D01*
X6066Y8009D01*
X6071Y8050D01*
D02*
G37*
G36*
X5675D02*
X5378D01*
X5384Y8009D01*
X5419Y7923D01*
X5475Y7850D01*
X5548Y7794D01*
X5633Y7759D01*
X5675Y7754D01*
Y8050D01*
D02*
G37*
G36*
X7718Y7749D02*
X7550D01*
Y7532D01*
X7718D01*
Y7749D01*
D02*
G37*
G36*
X7450D02*
X7282D01*
Y7532D01*
X7450D01*
Y7749D01*
D02*
G37*
G36*
X14850Y7708D02*
X14554D01*
X14559Y7666D01*
X14594Y7581D01*
X14650Y7508D01*
X14723Y7452D01*
X14809Y7417D01*
X14850Y7411D01*
Y7708D01*
D02*
G37*
G36*
X24550Y7545D02*
X24205D01*
Y7200D01*
X24550D01*
Y7545D01*
D02*
G37*
G36*
X4296Y7280D02*
X4000D01*
Y6984D01*
X4041Y6989D01*
X4127Y7024D01*
X4200Y7080D01*
X4256Y7153D01*
X4291Y7239D01*
X4296Y7280D01*
D02*
G37*
G36*
X3900D02*
X3604D01*
X3609Y7239D01*
X3644Y7153D01*
X3700Y7080D01*
X3773Y7024D01*
X3859Y6989D01*
X3900Y6984D01*
Y7280D01*
D02*
G37*
G36*
X22600Y7527D02*
X22502Y7514D01*
X22411Y7477D01*
X22333Y7417D01*
X22273Y7339D01*
X22236Y7248D01*
X22223Y7150D01*
X22224Y7138D01*
X22034Y6947D01*
X21706D01*
Y6962D01*
X21214D01*
Y6568D01*
X21706D01*
Y6583D01*
X22109D01*
X22109Y6583D01*
X22179Y6597D01*
X22238Y6636D01*
X22421Y6819D01*
X22502Y6786D01*
X22600Y6773D01*
X22698Y6786D01*
X22789Y6823D01*
X22867Y6883D01*
X22927Y6961D01*
X22964Y7052D01*
X22977Y7150D01*
X22964Y7248D01*
X22927Y7339D01*
X22867Y7417D01*
X22789Y7477D01*
X22698Y7514D01*
X22600Y7527D01*
D02*
G37*
G36*
X24995Y7100D02*
X24650D01*
Y6755D01*
X24995D01*
Y7100D01*
D02*
G37*
G36*
X24550D02*
X24205D01*
Y6755D01*
X24550D01*
Y7100D01*
D02*
G37*
G36*
X20311Y6276D02*
X19966D01*
Y5930D01*
X20311D01*
Y6276D01*
D02*
G37*
G36*
X24945Y6095D02*
X24600D01*
Y5750D01*
X24945D01*
Y6095D01*
D02*
G37*
G36*
X24500D02*
X24155D01*
Y5750D01*
X24500D01*
Y6095D01*
D02*
G37*
G36*
X23550Y6077D02*
X23452Y6064D01*
X23361Y6027D01*
X23283Y5967D01*
X23223Y5889D01*
X23186Y5798D01*
X23173Y5700D01*
X23186Y5602D01*
X23223Y5511D01*
X23283Y5433D01*
X23361Y5373D01*
X23452Y5336D01*
X23550Y5323D01*
X23648Y5336D01*
X23739Y5373D01*
X23817Y5433D01*
X23877Y5511D01*
X23914Y5602D01*
X23927Y5700D01*
X23914Y5798D01*
X23877Y5889D01*
X23817Y5967D01*
X23739Y6027D01*
X23648Y6064D01*
X23550Y6077D01*
D02*
G37*
G36*
X24945Y5650D02*
X24600D01*
Y5305D01*
X24945D01*
Y5650D01*
D02*
G37*
G36*
X24500D02*
X24155D01*
Y5305D01*
X24500D01*
Y5650D01*
D02*
G37*
G36*
X22334Y4928D02*
Y4600D01*
X22663D01*
X22656Y4650D01*
X22618Y4742D01*
X22556Y4822D01*
X22477Y4883D01*
X22384Y4922D01*
X22334Y4928D01*
D02*
G37*
G36*
X22234D02*
X22185Y4922D01*
X22092Y4883D01*
X22012Y4822D01*
X21951Y4742D01*
X21912Y4650D01*
X21906Y4600D01*
X22234D01*
Y4928D01*
D02*
G37*
G36*
X14761Y5056D02*
X13855D01*
Y4367D01*
X14761D01*
Y5056D01*
D02*
G37*
G36*
X12410D02*
X11505D01*
Y4367D01*
X12410D01*
Y5056D01*
D02*
G37*
G36*
X9900Y5505D02*
X9814Y5493D01*
X9734Y5460D01*
X9666Y5407D01*
X9613Y5339D01*
X9580Y5259D01*
X9568Y5173D01*
X9580Y5087D01*
X9613Y5007D01*
X9666Y4938D01*
X9734Y4886D01*
X9814Y4853D01*
X9900Y4841D01*
X9986Y4853D01*
X10066Y4886D01*
X10134Y4938D01*
X10187Y5007D01*
X10220Y5087D01*
X10231Y5169D01*
X12731D01*
X12904Y4996D01*
Y4945D01*
X12884Y4937D01*
X12816Y4884D01*
X12763Y4816D01*
X12730Y4736D01*
X12718Y4650D01*
X12730Y4564D01*
X12763Y4484D01*
X12816Y4416D01*
X12884Y4363D01*
X12964Y4330D01*
X13050Y4318D01*
X13136Y4330D01*
X13216Y4363D01*
X13284Y4416D01*
X13337Y4484D01*
X13370Y4564D01*
X13382Y4650D01*
X13370Y4736D01*
X13337Y4816D01*
X13284Y4884D01*
X13216Y4937D01*
X13167Y4957D01*
Y5050D01*
X13157Y5100D01*
X13128Y5143D01*
X12878Y5393D01*
X12836Y5421D01*
X12786Y5431D01*
X10103D01*
X10066Y5460D01*
X9986Y5493D01*
X9900Y5505D01*
D02*
G37*
G36*
X21300Y4914D02*
X21206Y4901D01*
X21118Y4865D01*
X21043Y4807D01*
X20985Y4732D01*
X20949Y4644D01*
X20936Y4550D01*
X20949Y4456D01*
X20985Y4368D01*
X21043Y4293D01*
X21118Y4235D01*
X21206Y4199D01*
X21300Y4186D01*
X21394Y4199D01*
X21482Y4235D01*
X21557Y4293D01*
X21615Y4368D01*
X21651Y4456D01*
X21664Y4550D01*
X21651Y4644D01*
X21615Y4732D01*
X21557Y4807D01*
X21482Y4865D01*
X21394Y4901D01*
X21300Y4914D01*
D02*
G37*
G36*
X20513D02*
X20419Y4901D01*
X20331Y4865D01*
X20256Y4807D01*
X20198Y4732D01*
X20161Y4644D01*
X20149Y4550D01*
X20161Y4456D01*
X20198Y4368D01*
X20256Y4293D01*
X20331Y4235D01*
X20419Y4199D01*
X20513Y4186D01*
X20607Y4199D01*
X20694Y4235D01*
X20770Y4293D01*
X20827Y4368D01*
X20864Y4456D01*
X20876Y4550D01*
X20864Y4644D01*
X20827Y4732D01*
X20770Y4807D01*
X20694Y4865D01*
X20607Y4901D01*
X20513Y4914D01*
D02*
G37*
G36*
X22663Y4500D02*
X22334D01*
Y4172D01*
X22384Y4178D01*
X22477Y4217D01*
X22556Y4278D01*
X22618Y4358D01*
X22656Y4450D01*
X22663Y4500D01*
D02*
G37*
G36*
X22234D02*
X21906D01*
X21912Y4450D01*
X21951Y4358D01*
X22012Y4278D01*
X22092Y4217D01*
X22185Y4178D01*
X22234Y4172D01*
Y4500D01*
D02*
G37*
G36*
X9600Y4686D02*
Y4081D01*
X10206D01*
X10198Y4160D01*
X10160Y4284D01*
X10099Y4398D01*
X10017Y4498D01*
X9917Y4580D01*
X9803Y4641D01*
X9679Y4679D01*
X9600Y4686D01*
D02*
G37*
G36*
X9500D02*
X9422Y4679D01*
X9298Y4641D01*
X9184Y4580D01*
X9084Y4498D01*
X9001Y4398D01*
X8940Y4284D01*
X8903Y4160D01*
X8895Y4081D01*
X9500D01*
Y4686D01*
D02*
G37*
G36*
X16001Y4604D02*
X15371D01*
Y4052D01*
X16001D01*
Y4604D01*
D02*
G37*
G36*
X9500Y3981D02*
X8895D01*
X8903Y3902D01*
X8940Y3778D01*
X9001Y3664D01*
X9084Y3564D01*
X9184Y3482D01*
X9298Y3421D01*
X9422Y3384D01*
X9500Y3376D01*
Y3981D01*
D02*
G37*
G36*
X7750Y3505D02*
Y2900D01*
X8355D01*
X8348Y2979D01*
X8310Y3103D01*
X8249Y3217D01*
X8167Y3317D01*
X8067Y3399D01*
X7953Y3460D01*
X7829Y3498D01*
X7750Y3505D01*
D02*
G37*
G36*
X7650D02*
X7571Y3498D01*
X7447Y3460D01*
X7333Y3399D01*
X7233Y3317D01*
X7151Y3217D01*
X7090Y3103D01*
X7052Y2979D01*
X7045Y2900D01*
X7650D01*
Y3505D01*
D02*
G37*
G36*
X23493Y4245D02*
X23344Y4230D01*
X23201Y4187D01*
X23070Y4116D01*
X22954Y4022D01*
X22860Y3906D01*
X22789Y3774D01*
X22746Y3632D01*
X22731Y3483D01*
X22746Y3334D01*
X22789Y3192D01*
X22860Y3060D01*
X22954Y2945D01*
X23070Y2850D01*
X23201Y2779D01*
X23344Y2736D01*
X23493Y2722D01*
X23641Y2736D01*
X23784Y2779D01*
X23916Y2850D01*
X24031Y2945D01*
X24126Y3060D01*
X24196Y3192D01*
X24240Y3334D01*
X24254Y3483D01*
X24240Y3632D01*
X24196Y3774D01*
X24126Y3906D01*
X24031Y4022D01*
X23916Y4116D01*
X23784Y4187D01*
X23641Y4230D01*
X23493Y4245D01*
D02*
G37*
G36*
X16001Y3147D02*
X15371D01*
Y2596D01*
X16001D01*
Y3147D01*
D02*
G37*
G36*
X8355Y2800D02*
X7750D01*
Y2195D01*
X7829Y2202D01*
X7953Y2240D01*
X8067Y2301D01*
X8167Y2383D01*
X8249Y2483D01*
X8310Y2597D01*
X8348Y2721D01*
X8355Y2800D01*
D02*
G37*
G36*
X7650D02*
X7045D01*
X7052Y2721D01*
X7090Y2597D01*
X7151Y2483D01*
X7233Y2383D01*
X7333Y2301D01*
X7447Y2240D01*
X7571Y2202D01*
X7650Y2195D01*
Y2800D01*
D02*
G37*
G36*
X23437Y896D02*
Y600D01*
X23733D01*
X23728Y641D01*
X23693Y727D01*
X23637Y800D01*
X23563Y856D01*
X23478Y891D01*
X23437Y896D01*
D02*
G37*
G36*
X23337D02*
X23296Y891D01*
X23210Y856D01*
X23137Y800D01*
X23081Y727D01*
X23046Y641D01*
X23040Y600D01*
X23337D01*
Y896D01*
D02*
G37*
G36*
X24678Y1852D02*
X24546Y1839D01*
X24420Y1800D01*
X24304Y1738D01*
X24202Y1655D01*
X24118Y1553D01*
X24056Y1436D01*
X24018Y1310D01*
X24005Y1179D01*
X24018Y1048D01*
X24056Y922D01*
X24118Y806D01*
X24202Y704D01*
X24304Y620D01*
X24420Y558D01*
X24546Y520D01*
X24678Y507D01*
X24809Y520D01*
X24935Y558D01*
X25051Y620D01*
X25153Y704D01*
X25237Y806D01*
X25299Y922D01*
X25337Y1048D01*
X25350Y1179D01*
X25337Y1310D01*
X25299Y1436D01*
X25237Y1553D01*
X25153Y1655D01*
X25051Y1738D01*
X24935Y1800D01*
X24809Y1839D01*
X24678Y1852D01*
D02*
G37*
%LPD*%
G36*
X1929Y21167D02*
X1985Y21112D01*
X2015Y21039D01*
Y21000D01*
Y20961D01*
X1985Y20888D01*
X1929Y20833D01*
X1857Y20803D01*
X1779D01*
X1706Y20833D01*
X1651Y20888D01*
X1621Y20961D01*
Y21000D01*
Y21039D01*
X1651Y21112D01*
X1706Y21167D01*
X1779Y21197D01*
X1857D01*
X1929Y21167D01*
D02*
G37*
G36*
X24646Y20817D02*
X24701Y20762D01*
X24731Y20689D01*
Y20650D01*
Y20611D01*
X24701Y20538D01*
X24646Y20483D01*
X24573Y20453D01*
X24495D01*
X24423Y20483D01*
X24367Y20538D01*
X24337Y20611D01*
Y20650D01*
Y20689D01*
X24367Y20762D01*
X24423Y20817D01*
X24495Y20847D01*
X24573D01*
X24646Y20817D01*
D02*
G37*
%LPC*%
G36*
X1868Y2039D02*
Y1400D01*
X2507D01*
X2498Y1485D01*
X2459Y1616D01*
X2395Y1736D01*
X2308Y1841D01*
X2203Y1927D01*
X2083Y1991D01*
X1953Y2031D01*
X1868Y2039D01*
D02*
G37*
G36*
X1768D02*
X1682Y2031D01*
X1552Y1991D01*
X1432Y1927D01*
X1327Y1841D01*
X1241Y1736D01*
X1177Y1616D01*
X1137Y1485D01*
X1129Y1400D01*
X1768D01*
Y2039D01*
D02*
G37*
G36*
X3350Y1196D02*
Y900D01*
X3646D01*
X3641Y941D01*
X3606Y1027D01*
X3550Y1100D01*
X3477Y1156D01*
X3391Y1191D01*
X3350Y1196D01*
D02*
G37*
G36*
X3250D02*
X3209Y1191D01*
X3123Y1156D01*
X3050Y1100D01*
X2994Y1027D01*
X2959Y941D01*
X2954Y900D01*
X3250D01*
Y1196D01*
D02*
G37*
G36*
X9950Y1027D02*
Y731D01*
X10246D01*
X10241Y772D01*
X10206Y857D01*
X10150Y930D01*
X10077Y986D01*
X9991Y1022D01*
X9950Y1027D01*
D02*
G37*
G36*
X9850D02*
X9809Y1022D01*
X9723Y986D01*
X9650Y930D01*
X9594Y857D01*
X9559Y772D01*
X9554Y731D01*
X9850D01*
Y1027D01*
D02*
G37*
G36*
X2507Y1300D02*
X1868D01*
Y661D01*
X1953Y669D01*
X2083Y709D01*
X2203Y773D01*
X2308Y859D01*
X2395Y964D01*
X2459Y1084D01*
X2498Y1215D01*
X2507Y1300D01*
D02*
G37*
G36*
X1768D02*
X1129D01*
X1137Y1215D01*
X1177Y1084D01*
X1241Y964D01*
X1327Y859D01*
X1432Y773D01*
X1552Y709D01*
X1682Y669D01*
X1768Y661D01*
Y1300D01*
D02*
G37*
G36*
X3646Y800D02*
X3350D01*
Y504D01*
X3391Y509D01*
X3477Y544D01*
X3550Y600D01*
X3606Y673D01*
X3641Y759D01*
X3646Y800D01*
D02*
G37*
G36*
X3250D02*
X2954D01*
X2959Y759D01*
X2994Y673D01*
X3050Y600D01*
X3123Y544D01*
X3209Y509D01*
X3250Y504D01*
Y800D01*
D02*
G37*
G36*
X10246Y631D02*
X9950D01*
Y334D01*
X9991Y340D01*
X10077Y375D01*
X10150Y431D01*
X10206Y504D01*
X10241Y589D01*
X10246Y631D01*
D02*
G37*
G36*
X9850D02*
X9554D01*
X9559Y589D01*
X9594Y504D01*
X9650Y431D01*
X9723Y375D01*
X9809Y340D01*
X9850Y334D01*
Y631D01*
D02*
G37*
G36*
X5116Y698D02*
X4830D01*
Y264D01*
X5116D01*
Y698D01*
D02*
G37*
G36*
X4730D02*
X4444D01*
Y264D01*
X4730D01*
Y698D01*
D02*
G37*
%LPD*%
D10*
X18274Y6218D02*
Y6326D01*
X14381Y11350D02*
X14479D01*
X14243Y11212D02*
X14381Y11350D01*
X12636Y11212D02*
X14243D01*
X12504Y11779D02*
X14821D01*
X11976Y11250D02*
X12504Y11779D01*
X9326Y11250D02*
X11976D01*
X9765Y6253D02*
X10263D01*
X19664Y9611D02*
Y12693D01*
X18613Y7600D02*
X18971Y7958D01*
X19250Y13107D02*
X19664Y12693D01*
X18971Y7958D02*
Y8919D01*
X19664Y9611D01*
X19250Y13107D02*
Y13300D01*
X13036Y4664D02*
X13050Y4650D01*
X14821Y11779D02*
X15742Y12700D01*
X20075Y9091D02*
Y13572D01*
X19400Y8415D02*
X20075Y9091D01*
X19400Y7800D02*
Y8415D01*
X7384Y19190D02*
X8650Y17924D01*
Y16650D02*
Y17924D01*
X20991Y14382D02*
X23614Y17006D01*
X20991Y12743D02*
Y14382D01*
X8621Y2502D02*
Y6062D01*
X8150Y2030D02*
X8621Y2502D01*
X8150Y1790D02*
Y2030D01*
X12810Y6171D02*
X15193D01*
X12610Y6371D02*
X12810Y6171D01*
X12180Y6371D02*
X12610D01*
X15193Y6171D02*
X15574Y6552D01*
X12154Y6398D02*
X12180Y6371D01*
X11418Y6398D02*
X12154D01*
X11316Y6500D02*
X11418Y6398D01*
X16807Y5829D02*
X16909Y5932D01*
X12171Y5829D02*
X16807D01*
X12154Y5847D02*
X12171Y5829D01*
X13068Y6550D02*
X14850D01*
X11863Y7755D02*
X13068Y6550D01*
X11838Y7755D02*
X11863D01*
X20592Y9359D02*
Y10892D01*
Y9359D02*
X21824Y8126D01*
X22624D01*
X23600Y7150D01*
X20413Y11513D02*
X20900Y12000D01*
X20413Y9119D02*
Y11513D01*
Y9119D02*
X20785Y8747D01*
Y6461D02*
Y8747D01*
Y6461D02*
X21582Y5664D01*
X13100Y2616D02*
X13349Y2366D01*
Y450D02*
Y2366D01*
X20592Y10892D02*
X20950Y11250D01*
X18338Y8473D02*
X18437Y8374D01*
X18202Y8473D02*
X18338D01*
X13100Y2616D02*
Y2750D01*
X12904Y502D02*
X12936Y470D01*
X12904Y502D02*
Y1060D01*
X12812Y1152D02*
X12904Y1060D01*
X12812Y1152D02*
Y2050D01*
X13782Y490D02*
X13802Y470D01*
X13782Y490D02*
Y1294D01*
X14235Y820D02*
X14732Y1316D01*
X14235Y470D02*
Y820D01*
X12068Y472D02*
X12070Y470D01*
X12068Y472D02*
Y1150D01*
X5475Y6789D02*
X5602Y6662D01*
X1911Y6789D02*
X5475D01*
X764Y7936D02*
X1911Y6789D01*
X9351Y8030D02*
X9400D01*
X8621Y6062D02*
X8924Y6365D01*
X8621Y6062D02*
Y7301D01*
X9351Y8030D01*
X10027Y5300D02*
X12786D01*
X9900Y5173D02*
X10027Y5300D01*
X14682Y10443D02*
X15094Y10855D01*
X14454Y10443D02*
X14682D01*
X14054Y10042D02*
X14454Y10443D01*
X15686Y10912D02*
Y11900D01*
X15039Y10264D02*
X15686Y10912D01*
X14528Y10264D02*
X15039D01*
X13864Y9600D02*
X14528Y10264D01*
X16782Y13044D02*
Y13502D01*
X16425Y12686D02*
X16782Y13044D01*
X16283Y13102D02*
Y13502D01*
X15881Y12700D02*
X16283Y13102D01*
X15800Y12700D02*
X15881D01*
X14547Y10871D02*
X15150Y11474D01*
X14255Y10871D02*
X14547D01*
X13850Y10467D02*
X14255Y10871D01*
X14516Y12579D02*
X15116D01*
X15783Y13246D01*
X15742Y12700D02*
X15800D01*
X15150Y11474D02*
Y11572D01*
X14632Y9693D02*
X15993D01*
X13820Y8880D02*
X14632Y9693D01*
X14717Y9045D02*
Y9103D01*
X14463Y8791D02*
X14717Y9045D01*
X14463Y8373D02*
Y8791D01*
X14430Y8340D02*
X14463Y8373D01*
X13387Y10042D02*
X14054D01*
X12976Y9632D02*
X13387Y10042D01*
X13834Y9600D02*
X13864D01*
X9200Y17619D02*
Y18456D01*
X8324Y19332D02*
X9200Y18456D01*
X8324Y19332D02*
Y20767D01*
X12337Y8306D02*
X13243Y7400D01*
X13250D01*
X12282Y9448D02*
Y9782D01*
X11813Y8979D02*
X12282Y9448D01*
X11813Y8306D02*
Y8979D01*
Y8306D02*
X12337D01*
X11084Y7755D02*
X11813D01*
X10988Y7850D02*
X11084Y7755D01*
X12282Y9782D02*
X12967Y10467D01*
X12786Y5300D02*
X13036Y5050D01*
Y4664D02*
Y5050D01*
X9801Y6818D02*
X10334D01*
X9752D02*
X9801D01*
X10060Y7479D02*
X10063Y7476D01*
X9400Y7479D02*
X10060D01*
X9936Y8097D02*
X10063Y8224D01*
X9516Y8097D02*
X9936D01*
X9449Y8030D02*
X9516Y8097D01*
X9000Y6950D02*
X9077Y7027D01*
Y7205D01*
X9351Y7479D01*
X10334Y6818D02*
X10391Y6874D01*
X10263Y6253D02*
X10391Y6126D01*
X9752Y6267D02*
X9765Y6253D01*
X9300Y5761D02*
Y5814D01*
X9752Y6267D01*
X8924Y6365D02*
X9299D01*
X9752Y6818D01*
X7841Y21250D02*
X8324Y20767D01*
X7384Y19190D02*
Y20707D01*
X15783Y13246D02*
Y13502D01*
X15209Y7758D02*
X15483Y7484D01*
X14900Y7758D02*
X15209D01*
X13700Y8136D02*
Y8657D01*
X13820Y8777D01*
X19361Y6326D02*
X19829Y6794D01*
Y8254D01*
X18309Y6326D02*
X18361D01*
X11700Y22201D02*
X13890D01*
X14841Y21250D01*
X20980Y9913D02*
X21350D01*
X22668Y8595D01*
X20970Y10644D02*
X21012D01*
X22461Y9195D01*
X23355D01*
X21582Y5664D02*
X21600D01*
X15993Y9693D02*
X17250Y10950D01*
X13820Y8777D02*
Y8880D01*
X15400Y22634D02*
X15833Y22201D01*
X17799D01*
X18350Y21650D01*
Y20741D02*
Y21650D01*
Y20741D02*
X18841Y20250D01*
X18437Y8650D02*
Y8709D01*
Y8374D02*
Y8650D01*
X18550Y7600D02*
X18613D01*
X22668Y8595D02*
X22955D01*
X22461Y7151D02*
X22530Y7220D01*
X22600Y7150D01*
X6841Y21250D02*
X7384Y20707D01*
X23355Y9195D02*
X24000Y8550D01*
X22955Y8595D02*
X23000Y8550D01*
D50*
X7464Y16845D02*
D03*
X1220D02*
D03*
D51*
X12782Y18698D02*
D03*
X13283D02*
D03*
X13783D02*
D03*
X14282D02*
D03*
X14783D02*
D03*
X15282D02*
D03*
X15783D02*
D03*
X16283D02*
D03*
X16782D02*
D03*
X17283D02*
D03*
Y13502D02*
D03*
X16782D02*
D03*
X16283D02*
D03*
X15783D02*
D03*
X15282D02*
D03*
X14783D02*
D03*
X14282D02*
D03*
X13783D02*
D03*
X13283D02*
D03*
X12782D02*
D03*
D52*
X9400Y8030D02*
D03*
Y7479D02*
D03*
X9801Y6818D02*
D03*
Y6267D02*
D03*
X12154Y5847D02*
D03*
Y6398D02*
D03*
X11813Y8306D02*
D03*
Y7755D02*
D03*
D53*
X10063Y8224D02*
D03*
X10988Y7850D02*
D03*
X10391Y6874D02*
D03*
X11316Y6500D02*
D03*
D54*
X10063Y7476D02*
D03*
X10391Y6126D02*
D03*
D55*
X19526Y18400D02*
D03*
X20511D02*
D03*
D56*
X11334Y11950D02*
D03*
Y9950D02*
D03*
D57*
X6834Y10950D02*
D03*
D58*
X4780Y1712D02*
D03*
Y748D02*
D03*
X1550Y10133D02*
D03*
Y11097D02*
D03*
D59*
X15457Y9163D02*
D03*
X16206D02*
D03*
X15476Y8300D02*
D03*
X16224D02*
D03*
X15483Y7484D02*
D03*
X16231D02*
D03*
D60*
X15617Y499D02*
D03*
D61*
X15686Y2871D02*
D03*
Y4328D02*
D03*
D62*
X14308Y4712D02*
D03*
X11958D02*
D03*
D63*
X11160Y588D02*
D03*
D64*
X11637Y450D02*
D03*
D65*
X12050D02*
D03*
X12483D02*
D03*
X12916D02*
D03*
X13349D02*
D03*
X13782D02*
D03*
X14215D02*
D03*
X14649D02*
D03*
D66*
X7500Y7799D02*
D03*
X8012D02*
D03*
D67*
X13820Y8777D02*
D03*
X12917Y8794D02*
D03*
X13834Y9600D02*
D03*
X12976Y9632D02*
D03*
X12967Y10467D02*
D03*
X13850D02*
D03*
X19361Y6326D02*
D03*
X18361D02*
D03*
X2822Y16845D02*
D03*
X20600Y17050D02*
D03*
X23189Y18600D02*
D03*
X22000Y8550D02*
D03*
X23000D02*
D03*
X24000D02*
D03*
X23600Y7150D02*
D03*
X22600D02*
D03*
X23550Y5700D02*
D03*
X22550D02*
D03*
D68*
X18864Y12550D02*
D03*
X17998D02*
D03*
X4312Y10224D02*
D03*
X3446D02*
D03*
D69*
X21460Y6765D02*
D03*
Y6253D02*
D03*
D70*
X2850Y4405D02*
D03*
D71*
X1850Y8450D02*
D03*
X3850D02*
D03*
D72*
X18437Y11248D02*
D03*
Y8709D02*
D03*
D73*
X17800Y6692D02*
X18274Y6218D01*
X3636Y14350D02*
Y18114D01*
X2774Y18976D02*
X3636Y18114D01*
X2774Y18976D02*
Y20797D01*
X3179Y21201D01*
X4780Y1790D02*
X8150D01*
X10555Y13707D02*
X12050D01*
X9726Y12877D02*
X10555Y13707D01*
X8384Y12877D02*
X9726D01*
X4532Y7974D02*
Y13801D01*
X9140Y14020D02*
X12670Y17550D01*
X4751Y14020D02*
X9140D01*
X4532Y13801D02*
X4751Y14020D01*
X12670Y17550D02*
X18749D01*
X2600Y11133D02*
Y12966D01*
Y13263D01*
X20511Y18328D02*
Y18400D01*
Y18328D02*
X20600Y18238D01*
Y17050D02*
Y18238D01*
X18749Y17550D02*
X19526Y18328D01*
Y18400D01*
X1784Y10317D02*
X2600Y11133D01*
Y13263D02*
X3636Y14298D01*
X4028Y1712D02*
X4780D01*
X3200Y2541D02*
X4028Y1712D01*
X3200Y2541D02*
Y4265D01*
X3060Y4405D02*
X3200Y4265D01*
X2850Y4405D02*
X3060D01*
X16909Y5932D02*
X17372Y5469D01*
Y4444D02*
Y5469D01*
X16634Y3706D02*
X17372Y4444D01*
X10408Y3706D02*
X16634D01*
X17372Y5469D02*
X18291Y4550D01*
X14504Y2750D02*
X15288Y1966D01*
X16602D01*
X17919Y8190D02*
X18202Y8473D01*
X17919Y8190D02*
Y8190D01*
X6834Y11327D02*
X8384Y12877D01*
X6834Y10950D02*
Y11327D01*
X25350Y3694D02*
Y7637D01*
X23656Y2000D02*
X25350Y3694D01*
X16841Y2000D02*
X23656D01*
X25237Y7750D02*
X25350Y7637D01*
X3636Y14298D02*
Y14350D01*
X5100Y7164D02*
X5475Y6789D01*
X1586Y9949D02*
X1735Y9800D01*
Y8565D02*
Y9800D01*
X1586Y10317D02*
X1784D01*
X1550Y10280D02*
X1586Y10317D01*
X1550Y10133D02*
Y10280D01*
X4532Y7974D02*
X4581Y7749D01*
X4950Y7380D01*
X1735Y8565D02*
X1850Y8450D01*
X5603Y6663D02*
X6137D01*
X13100Y2750D02*
X14504D01*
X6137Y6663D02*
X7588Y5212D01*
X13787Y17511D02*
X15282Y16016D01*
X11629Y2750D02*
X13100D01*
X10633Y1790D02*
X11629Y2786D01*
X8150Y1790D02*
X10633D01*
X17709Y6800D02*
Y7980D01*
X9592Y2891D02*
X10408Y3706D01*
X16455Y6386D02*
X16909Y5932D01*
X18291Y4550D02*
X19528D01*
X17709Y7980D02*
X17919Y8190D01*
X7588Y5212D02*
X7700D01*
X16339Y8604D02*
Y8874D01*
X16261Y8951D02*
X16339Y8874D01*
X16261Y8951D02*
Y9107D01*
X16206Y9163D02*
X16261Y9107D01*
X18391Y8604D02*
X18437Y8650D01*
X16488Y8604D02*
X18391D01*
X3841Y21250D02*
X4841D01*
X16224Y8300D02*
X16227Y8297D01*
Y7543D02*
Y8297D01*
X16224Y8300D02*
Y8339D01*
X16488Y8604D01*
X16318Y6516D02*
X16448Y6386D01*
X16231Y6697D02*
Y7484D01*
X16184Y6650D02*
X16231Y6697D01*
X16448Y6386D02*
X16455D01*
X3179Y21201D02*
X3792D01*
X3841Y21250D01*
D74*
X7994Y6943D02*
Y7830D01*
X20915Y15209D02*
X22656Y16950D01*
X22750D01*
X8417Y7866D02*
X10191Y9641D01*
X8030Y7866D02*
X8417D01*
X7994Y7830D02*
X8030Y7866D01*
X20088Y15209D02*
X20915D01*
X14700Y7010D02*
X15824D01*
X14309Y7400D02*
X14700Y7010D01*
X13250Y7400D02*
X14309D01*
X10191Y9641D02*
X11025D01*
X11334Y9950D01*
X8037Y6900D02*
X8200D01*
X7994Y6943D02*
X8037Y6900D01*
X15824Y7010D02*
X16184Y6650D01*
X6971Y18735D02*
X7000Y18764D01*
X4979Y18735D02*
X6971D01*
X4950Y18707D02*
X4979Y18735D01*
X18497Y13536D02*
Y13617D01*
X20088Y15209D01*
X19528Y4550D02*
X20157Y5178D01*
X22028D01*
X22550Y5700D01*
X18497Y13536D02*
X18659Y13374D01*
Y12667D02*
Y13374D01*
Y12667D02*
X18775Y12550D01*
X19200Y9471D02*
Y10255D01*
X18437Y8709D02*
X19200Y9471D01*
X18898Y12511D02*
X19209Y12200D01*
Y10265D02*
Y12200D01*
X19200Y10255D02*
X19209Y10265D01*
X18775Y12550D02*
X18864D01*
X17293Y10059D02*
X17350Y10117D01*
X16948Y10059D02*
X17293D01*
X16450Y9562D02*
X16948Y10059D01*
X16450Y9256D02*
Y9562D01*
X16294Y9100D02*
X16450Y9256D01*
X21460Y6253D02*
X21997D01*
X22550Y5700D01*
X21460Y6765D02*
X22109D01*
X22461Y7116D01*
Y7151D01*
X3841Y19293D02*
X4400Y18734D01*
X3841Y19293D02*
Y20250D01*
X4400Y18734D02*
X4922D01*
X4950Y18707D01*
D75*
X14783Y13502D02*
Y14155D01*
X14237Y14700D02*
X14783Y14155D01*
X13043Y14700D02*
X14237D01*
X12050Y13707D02*
X13043Y14700D01*
X18776Y16414D02*
X18990Y16200D01*
X20750D01*
X21600Y17050D01*
X15282Y13502D02*
Y16016D01*
D76*
X16782Y18698D02*
Y19250D01*
X16482Y19550D02*
X16782Y19250D01*
X12463Y19550D02*
X16482D01*
X7763Y14850D02*
X12463Y19550D01*
X5860Y15450D02*
X7255Y16845D01*
X5462Y15450D02*
X5860D01*
X7255Y16845D02*
X7464D01*
X4136Y14850D02*
X7763D01*
X3636Y14350D02*
X4136Y14850D01*
D77*
X12700Y12350D02*
X13394D01*
X14084Y13040D01*
Y13047D01*
X14282Y13246D01*
Y13502D01*
D78*
X25338Y17006D02*
D03*
X24763D02*
D03*
X24189D02*
D03*
X23614D02*
D03*
X18094Y1350D02*
D03*
X17519D02*
D03*
X16944D02*
D03*
X16369D02*
D03*
D79*
X20361Y6326D02*
D03*
X21600Y17050D02*
D03*
X24189Y18600D02*
D03*
X25000Y8550D02*
D03*
X24600Y7150D02*
D03*
X24550Y5700D02*
D03*
D80*
X5775Y16845D02*
D03*
D81*
X22963Y15176D02*
D03*
Y10003D02*
D03*
X18320Y3483D02*
D03*
X23493D02*
D03*
D82*
X21896Y13968D02*
D03*
Y12983D02*
D03*
Y12196D02*
D03*
X20513Y4550D02*
D03*
X21300D02*
D03*
X22284D02*
D03*
D83*
X21896Y11212D02*
D03*
D84*
X7700Y1078D02*
D03*
D85*
X9550Y4031D02*
D03*
X7700Y2850D02*
D03*
Y5212D02*
D03*
D86*
X19528Y4550D02*
D03*
D87*
X3841Y20250D02*
D03*
D88*
Y21250D02*
D03*
X4841Y20250D02*
D03*
Y21250D02*
D03*
X5841Y20250D02*
D03*
Y21250D02*
D03*
X6841Y20250D02*
D03*
Y21250D02*
D03*
X7841Y20250D02*
D03*
Y21250D02*
D03*
X8841Y20250D02*
D03*
Y21250D02*
D03*
X9841Y20250D02*
D03*
Y21250D02*
D03*
X10841Y20250D02*
D03*
Y21250D02*
D03*
X11841Y20250D02*
D03*
Y21250D02*
D03*
X12841Y20250D02*
D03*
Y21250D02*
D03*
X13841Y20250D02*
D03*
Y21250D02*
D03*
X14841Y20250D02*
D03*
Y21250D02*
D03*
X15841Y20250D02*
D03*
Y21250D02*
D03*
X16841Y20250D02*
D03*
Y21250D02*
D03*
X17841Y20250D02*
D03*
Y21250D02*
D03*
X18841Y20250D02*
D03*
Y21250D02*
D03*
X19841Y20250D02*
D03*
Y21250D02*
D03*
X20841Y20250D02*
D03*
Y21250D02*
D03*
X21841Y20250D02*
D03*
Y21250D02*
D03*
X22841Y20250D02*
D03*
Y21250D02*
D03*
D89*
X14479Y11350D02*
D03*
X13050Y4650D02*
D03*
X12636Y11212D02*
D03*
X19400Y7800D02*
D03*
X8650Y16650D02*
D03*
X5462Y15450D02*
D03*
X12700Y12350D02*
D03*
X12136Y12850D02*
D03*
X12131Y18000D02*
D03*
X12050Y13707D02*
D03*
X18776Y16414D02*
D03*
X13340Y16861D02*
D03*
X9326Y11250D02*
D03*
X22750Y16950D02*
D03*
X2600Y12966D02*
D03*
X14850Y6550D02*
D03*
X16602Y1966D02*
D03*
X20950Y11250D02*
D03*
X20991Y12743D02*
D03*
X20900Y12000D02*
D03*
X19250Y13300D02*
D03*
X25237Y7750D02*
D03*
X3950Y7330D02*
D03*
X5725Y8100D02*
D03*
X764Y7936D02*
D03*
X3300Y850D02*
D03*
X5100Y7164D02*
D03*
X8200Y6900D02*
D03*
X14732Y1316D02*
D03*
X13782Y1294D02*
D03*
X12812Y2050D02*
D03*
X12068Y1150D02*
D03*
X3750Y11197D02*
D03*
X15686Y11900D02*
D03*
X15094Y10855D02*
D03*
X15150Y11572D02*
D03*
X15800Y12700D02*
D03*
X14516Y12579D02*
D03*
X14717Y9103D02*
D03*
X13250Y7400D02*
D03*
X15574Y6552D02*
D03*
X9000Y6950D02*
D03*
X9300Y5761D02*
D03*
X9900Y5173D02*
D03*
X9200Y17619D02*
D03*
X16425Y12686D02*
D03*
X14900Y7758D02*
D03*
X13700Y8136D02*
D03*
X7000Y18764D02*
D03*
X17845Y15176D02*
D03*
X18497Y13617D02*
D03*
X20075Y13572D02*
D03*
X9900Y681D02*
D03*
X9250Y2872D02*
D03*
X11700Y22201D02*
D03*
X20980Y9913D02*
D03*
X20970Y10644D02*
D03*
X21600Y5664D02*
D03*
X20161Y14220D02*
D03*
X14430Y8340D02*
D03*
X15400Y22634D02*
D03*
X17350Y10117D02*
D03*
X23387Y550D02*
D03*
X17250Y10950D02*
D03*
X18550Y7600D02*
D03*
X19829Y8254D02*
D03*
X17151Y12686D02*
D03*
X17045Y9550D02*
D03*
X4950Y18707D02*
D03*
X13972Y15909D02*
D03*
D90*
X24678Y1179D02*
D03*
X1818Y1350D02*
D03*
M02*
