G04*
G04 #@! TF.GenerationSoftware,Altium Limited,Altium Designer,19.0.11 (319)*
G04*
G04 Layer_Color=8388736*
%FSLAX24Y24*%
%MOIN*%
G70*
G01*
G75*
%ADD15R,0.1521X0.1104*%
%ADD16R,0.0356X0.0867*%
%ADD17R,0.0454X0.0356*%
%ADD18R,0.0454X0.0434*%
%ADD19R,0.0454X0.0434*%
%ADD20R,0.0474X0.0631*%
%ADD21R,0.1580X0.0899*%
%ADD22R,0.3580X0.4580*%
%ADD23R,0.0552X0.0848*%
%ADD24R,0.0592X0.0671*%
%ADD25R,0.0690X0.0611*%
%ADD26R,0.0552X0.0474*%
%ADD27R,0.0828X0.0611*%
%ADD28R,0.0541X0.0789*%
%ADD29R,0.0375X0.0513*%
%ADD30R,0.0415X0.0513*%
%ADD31R,0.0316X0.0415*%
%ADD32C,0.0671*%
%ADD33R,0.0690X0.0513*%
%ADD34R,0.0415X0.0316*%
%ADD35R,0.4883X0.3919*%
%ADD36R,0.0710X0.1458*%
%ADD37R,0.0848X0.1517*%
%ADD38C,0.0572*%
%ADD39R,0.0671X0.0671*%
%ADD40C,0.0877*%
%ADD41C,0.1438*%
%ADD42C,0.0643*%
%ADD43R,0.0643X0.0643*%
%ADD44C,0.0513*%
%ADD45C,0.1194*%
%ADD46R,0.0643X0.0643*%
%ADD47R,0.0736X0.0736*%
%ADD48C,0.0736*%
%ADD49C,0.0205*%
G36*
X1818Y20409D02*
X1760D01*
X1645Y20432D01*
X1538Y20477D01*
X1441Y20541D01*
X1359Y20624D01*
X1294Y20720D01*
X1250Y20828D01*
X1227Y20942D01*
Y21000D01*
Y21058D01*
X1250Y21172D01*
X1294Y21280D01*
X1359Y21376D01*
X1441Y21459D01*
X1538Y21523D01*
X1645Y21568D01*
X1760Y21591D01*
X1818D01*
X1876D01*
X1990Y21568D01*
X2097Y21523D01*
X2194Y21459D01*
X2276Y21376D01*
X2341Y21280D01*
X2386Y21172D01*
X2408Y21058D01*
Y21000D01*
Y20942D01*
X2386Y20828D01*
X2341Y20720D01*
X2276Y20624D01*
X2194Y20541D01*
X2097Y20477D01*
X1990Y20432D01*
X1876Y20409D01*
X1818D01*
D01*
D02*
G37*
G36*
X21541Y984D02*
Y926D01*
X21518Y812D01*
X21473Y704D01*
X21409Y608D01*
X21326Y525D01*
X21230Y461D01*
X21122Y416D01*
X21008Y394D01*
X20950D01*
X20892D01*
X20778Y416D01*
X20670Y461D01*
X20574Y525D01*
X20491Y608D01*
X20427Y704D01*
X20382Y812D01*
X20359Y926D01*
Y984D01*
Y1042D01*
X20382Y1156D01*
X20427Y1264D01*
X20491Y1361D01*
X20574Y1443D01*
X20670Y1508D01*
X20778Y1552D01*
X20892Y1575D01*
X20950D01*
X21008D01*
X21122Y1552D01*
X21230Y1508D01*
X21326Y1443D01*
X21409Y1361D01*
X21473Y1264D01*
X21518Y1156D01*
X21541Y1042D01*
Y984D01*
D01*
D02*
G37*
G36*
X24534Y20059D02*
X24476D01*
X24362Y20082D01*
X24254Y20127D01*
X24158Y20191D01*
X24075Y20274D01*
X24011Y20370D01*
X23966Y20478D01*
X23944Y20592D01*
Y20650D01*
Y20708D01*
X23966Y20822D01*
X24011Y20930D01*
X24075Y21026D01*
X24158Y21109D01*
X24254Y21173D01*
X24362Y21218D01*
X24476Y21241D01*
X24534D01*
X24592D01*
X24706Y21218D01*
X24814Y21173D01*
X24911Y21109D01*
X24993Y21026D01*
X25057Y20930D01*
X25102Y20822D01*
X25125Y20708D01*
Y20650D01*
Y20592D01*
X25102Y20478D01*
X25057Y20370D01*
X24993Y20274D01*
X24911Y20191D01*
X24814Y20127D01*
X24706Y20082D01*
X24592Y20059D01*
X24534D01*
D01*
D02*
G37*
D15*
X7464Y16845D02*
D03*
X1220D02*
D03*
D16*
X12782Y18698D02*
D03*
X13283D02*
D03*
X13783D02*
D03*
X14282D02*
D03*
X14783D02*
D03*
X15282D02*
D03*
X15783D02*
D03*
X16283D02*
D03*
X16782D02*
D03*
X17283D02*
D03*
Y13502D02*
D03*
X16782D02*
D03*
X16283D02*
D03*
X15783D02*
D03*
X15282D02*
D03*
X14783D02*
D03*
X14282D02*
D03*
X13783D02*
D03*
X13283D02*
D03*
X12782D02*
D03*
D17*
X9400Y8030D02*
D03*
Y7479D02*
D03*
X9801Y6818D02*
D03*
Y6267D02*
D03*
X12154Y5847D02*
D03*
Y6398D02*
D03*
X11813Y8306D02*
D03*
Y7755D02*
D03*
D18*
X10063Y8224D02*
D03*
X10988Y7850D02*
D03*
X10391Y6874D02*
D03*
X11316Y6500D02*
D03*
D19*
X10063Y7476D02*
D03*
X10391Y6126D02*
D03*
D20*
X19526Y18400D02*
D03*
X20511D02*
D03*
D21*
X11334Y11950D02*
D03*
Y9950D02*
D03*
D22*
X6834Y10950D02*
D03*
D23*
X4780Y1712D02*
D03*
Y748D02*
D03*
X1550Y10133D02*
D03*
Y11097D02*
D03*
D24*
X15457Y9163D02*
D03*
X16206D02*
D03*
X15476Y8300D02*
D03*
X16224D02*
D03*
X15483Y7484D02*
D03*
X16231D02*
D03*
D25*
X15617Y499D02*
D03*
D26*
X15686Y2871D02*
D03*
Y4328D02*
D03*
D27*
X14308Y4712D02*
D03*
X11958D02*
D03*
D28*
X11160Y588D02*
D03*
D29*
X11637Y450D02*
D03*
D30*
X12050D02*
D03*
X12483D02*
D03*
X12916D02*
D03*
X13349D02*
D03*
X13782D02*
D03*
X14215D02*
D03*
X14649D02*
D03*
D31*
X7500Y7799D02*
D03*
X8012D02*
D03*
D32*
X13820Y8777D02*
D03*
X12917Y8794D02*
D03*
X13834Y9600D02*
D03*
X12976Y9632D02*
D03*
X12967Y10467D02*
D03*
X13850D02*
D03*
X19361Y6326D02*
D03*
X18361D02*
D03*
X2822Y16845D02*
D03*
X20600Y17050D02*
D03*
X23189Y18600D02*
D03*
X22000Y8550D02*
D03*
X23000D02*
D03*
X24000D02*
D03*
X23600Y7150D02*
D03*
X22600D02*
D03*
X23550Y5700D02*
D03*
X22550D02*
D03*
D33*
X18864Y12550D02*
D03*
X17998D02*
D03*
X4312Y10224D02*
D03*
X3446D02*
D03*
D34*
X21460Y6765D02*
D03*
Y6253D02*
D03*
D35*
X2850Y4405D02*
D03*
D36*
X1850Y8450D02*
D03*
X3850D02*
D03*
D37*
X18437Y11248D02*
D03*
Y8709D02*
D03*
D38*
X25338Y17006D02*
D03*
X24763D02*
D03*
X24189D02*
D03*
X23614D02*
D03*
X18094Y1350D02*
D03*
X17519D02*
D03*
X16944D02*
D03*
X16369D02*
D03*
D39*
X20361Y6326D02*
D03*
X21600Y17050D02*
D03*
X24189Y18600D02*
D03*
X25000Y8550D02*
D03*
X24600Y7150D02*
D03*
X24550Y5700D02*
D03*
D40*
X5775Y16845D02*
D03*
D41*
X22963Y15176D02*
D03*
Y10003D02*
D03*
X18320Y3483D02*
D03*
X23493D02*
D03*
D42*
X21896Y13968D02*
D03*
Y12983D02*
D03*
Y12196D02*
D03*
X20513Y4550D02*
D03*
X21300D02*
D03*
X22284D02*
D03*
D43*
X21896Y11212D02*
D03*
D44*
X7700Y1078D02*
D03*
D45*
X9550Y4031D02*
D03*
X7700Y2850D02*
D03*
Y5212D02*
D03*
D46*
X19528Y4550D02*
D03*
D47*
X3841Y20250D02*
D03*
D48*
Y21250D02*
D03*
X4841Y20250D02*
D03*
Y21250D02*
D03*
X5841Y20250D02*
D03*
Y21250D02*
D03*
X6841Y20250D02*
D03*
Y21250D02*
D03*
X7841Y20250D02*
D03*
Y21250D02*
D03*
X8841Y20250D02*
D03*
Y21250D02*
D03*
X9841Y20250D02*
D03*
Y21250D02*
D03*
X10841Y20250D02*
D03*
Y21250D02*
D03*
X11841Y20250D02*
D03*
Y21250D02*
D03*
X12841Y20250D02*
D03*
Y21250D02*
D03*
X13841Y20250D02*
D03*
Y21250D02*
D03*
X14841Y20250D02*
D03*
Y21250D02*
D03*
X15841Y20250D02*
D03*
Y21250D02*
D03*
X16841Y20250D02*
D03*
Y21250D02*
D03*
X17841Y20250D02*
D03*
Y21250D02*
D03*
X18841Y20250D02*
D03*
Y21250D02*
D03*
X19841Y20250D02*
D03*
Y21250D02*
D03*
X20841Y20250D02*
D03*
Y21250D02*
D03*
X21841Y20250D02*
D03*
Y21250D02*
D03*
X22841Y20250D02*
D03*
Y21250D02*
D03*
D49*
X24678Y1179D02*
D03*
X1818Y1350D02*
D03*
M02*
