  0
SECTION
  2
HEADER
  9
$ACADVER
  1
AC1015
  9
$ACADMAINTVER
 70
     6
  9
$DWGCODEPAGE
  3
ANSI_1252
  9
$INSBASE
 10
0.0
 20
0.0
 30
0.0
  9
$EXTMIN
 10
0.0
 20
0.0
 30
0.0
  9
$EXTMAX
 10
594.0
 20
420.0
 30
0.0
  9
$LIMMIN
 10
0.0
 20
0.0
  9
$LIMMAX
 10
594.0
 20
420.0
  9
$ORTHOMODE
 70
     0
  9
$REGENMODE
 70
     1
  9
$FILLMODE
 70
     1
  9
$QTEXTMODE
 70
     0
  9
$MIRRTEXT
 70
     1
  9
$LTSCALE
 40
2.0
  9
$ATTMODE
 70
     1
  9
$TEXTSIZE
 40
7.0
  9
$TRACEWID
 40
1.0
  9
$TEXTSTYLE
  7
Standard
  9
$CLAYER
  8
0
  9
$CELTYPE
  6
ByLayer
  9
$CECOLOR
 62
   256
  9
$CELTSCALE
 40
1.0
  9
$DISPSILH
 70
     0
  9
$DIMSCALE
 40
1.0
  9
$DIMASZ
 40
6.604
  9
$DIMEXO
 40
2.0
  9
$DIMDLI
 40
3.75
  9
$DIMRND
 40
0.0
  9
$DIMDLE
 40
0.0
  9
$DIMEXE
 40
2.0
  9
$DIMTP
 40
0.0
  9
$DIMTM
 40
0.0
  9
$DIMTXT
 40
7.0
  9
$DIMCEN
 40
2.5
  9
$DIMTSZ
 40
0.0
  9
$DIMTOL
 70
     0
  9
$DIMLIM
 70
     0
  9
$DIMTIH
 70
     1
  9
$DIMTOH
 70
     1
  9
$DIMSE1
 70
     0
  9
$DIMSE2
 70
     0
  9
$DIMTAD
 70
     1
  9
$DIMZIN
 70
     1
  9
$DIMBLK
  1

  9
$DIMASO
 70
     1
  9
$DIMSHO
 70
     1
  9
$DIMPOST
  1

  9
$DIMAPOST
  1

  9
$DIMALT
 70
     0
  9
$DIMALTD
 70
     3
  9
$DIMALTF
 40
0.0393700787
  9
$DIMLFAC
 40
1.0
  9
$DIMTOFL
 70
     1
  9
$DIMTVP
 40
0.0
  9
$DIMTIX
 70
     0
  9
$DIMSOXD
 70
     0
  9
$DIMSAH
 70
     0
  9
$DIMBLK1
  1

  9
$DIMBLK2
  1

  9
$DIMSTYLE
  2
ISO-25
  9
$DIMCLRD
 70
     0
  9
$DIMCLRE
 70
     0
  9
$DIMCLRT
 70
     0
  9
$DIMTFAC
 40
1.0
  9
$DIMGAP
 40
3.048
  9
$DIMJUST
 70
     0
  9
$DIMSD1
 70
     0
  9
$DIMSD2
 70
     0
  9
$DIMTOLJ
 70
     0
  9
$DIMTZIN
 70
     1
  9
$DIMALTZ
 70
     0
  9
$DIMALTTZ
 70
     0
  9
$DIMUPT
 70
     0
  9
$DIMDEC
 70
     2
  9
$DIMTDEC
 70
     2
  9
$DIMALTU
 70
     2
  9
$DIMALTTD
 70
     3
  9
$DIMTXSTY
  7
Standard
  9
$DIMAUNIT
 70
     0
  9
$DIMADEC
 70
     2
  9
$DIMALTRND
 40
0.0
  9
$DIMAZIN
 70
     0
  9
$DIMDSEP
 70
    44
  9
$DIMATFIT
 70
     3
  9
$DIMFRAC
 70
     0
  9
$DIMLDRBLK
  1

  9
$DIMLUNIT
 70
     2
  9
$DIMLWD
 70
    -2
  9
$DIMLWE
 70
    -2
  9
$DIMTMOVE
 70
     0
  9
$LUNITS
 70
     2
  9
$LUPREC
 70
     2
  9
$SKETCHINC
 40
1.0
  9
$FILLETRAD
 40
10.0
  9
$AUNITS
 70
     0
  9
$AUPREC
 70
     2
  9
$MENU
  1
.
  9
$ELEVATION
 40
0.0
  9
$PELEVATION
 40
0.0
  9
$THICKNESS
 40
0.0
  9
$LIMCHECK
 70
     0
  9
$CHAMFERA
 40
0.0
  9
$CHAMFERB
 40
0.0
  9
$CHAMFERC
 40
0.0
  9
$CHAMFERD
 40
0.0
  9
$SKPOLY
 70
     0
  9
$TDCREATE
 40
2459021.629429143
  9
$TDUCREATE
 40
2459021.837762477
  9
$TDUPDATE
 40
2459021.629431227
  9
$TDUUPDATE
 40
2459021.83776456
  9
$TDINDWG
 40
0.0000000116
  9
$TDUSRTIMER
 40
0.0000000116
  9
$USRTIMER
 70
     1
  9
$ANGBASE
 50
0.0
  9
$ANGDIR
 70
     0
  9
$PDMODE
 70
     0
  9
$PDSIZE
 40
-1.0
  9
$PLINEWID
 40
0.0
  9
$SPLFRAME
 70
     0
  9
$SPLINETYPE
 70
     6
  9
$SPLINESEGS
 70
     8
  9
$HANDSEED
  5
234
  9
$SURFTAB1
 70
     6
  9
$SURFTAB2
 70
     6
  9
$SURFTYPE
 70
     6
  9
$SURFU
 70
     6
  9
$SURFV
 70
     6
  9
$UCSBASE
  2

  9
$UCSNAME
  2

  9
$UCSORG
 10
0.0
 20
0.0
 30
0.0
  9
$UCSXDIR
 10
1.0
 20
0.0
 30
0.0
  9
$UCSYDIR
 10
0.0
 20
1.0
 30
0.0
  9
$UCSORTHOREF
  2

  9
$UCSORTHOVIEW
 70
     0
  9
$UCSORGTOP
 10
0.0
 20
0.0
 30
0.0
  9
$UCSORGBOTTOM
 10
0.0
 20
0.0
 30
0.0
  9
$UCSORGLEFT
 10
0.0
 20
0.0
 30
0.0
  9
$UCSORGRIGHT
 10
0.0
 20
0.0
 30
0.0
  9
$UCSORGFRONT
 10
0.0
 20
0.0
 30
0.0
  9
$UCSORGBACK
 10
0.0
 20
0.0
 30
0.0
  9
$PUCSBASE
  2

  9
$PUCSNAME
  2

  9
$PUCSORG
 10
0.0
 20
0.0
 30
0.0
  9
$PUCSXDIR
 10
1.0
 20
0.0
 30
0.0
  9
$PUCSYDIR
 10
0.0
 20
1.0
 30
0.0
  9
$PUCSORTHOREF
  2

  9
$PUCSORTHOVIEW
 70
     0
  9
$PUCSORGTOP
 10
0.0
 20
0.0
 30
0.0
  9
$PUCSORGBOTTOM
 10
0.0
 20
0.0
 30
0.0
  9
$PUCSORGLEFT
 10
0.0
 20
0.0
 30
0.0
  9
$PUCSORGRIGHT
 10
0.0
 20
0.0
 30
0.0
  9
$PUCSORGFRONT
 10
0.0
 20
0.0
 30
0.0
  9
$PUCSORGBACK
 10
0.0
 20
0.0
 30
0.0
  9
$USERI1
 70
     0
  9
$USERI2
 70
     0
  9
$USERI3
 70
     0
  9
$USERI4
 70
     0
  9
$USERI5
 70
     0
  9
$USERR1
 40
0.0
  9
$USERR2
 40
0.0
  9
$USERR3
 40
0.0
  9
$USERR4
 40
0.0
  9
$USERR5
 40
0.0
  9
$WORLDVIEW
 70
     1
  9
$SHADEDGE
 70
     3
  9
$SHADEDIF
 70
    70
  9
$TILEMODE
 70
     1
  9
$MAXACTVP
 70
    64
  9
$PINSBASE
 10
0.0
 20
0.0
 30
0.0
  9
$PLIMCHECK
 70
     0
  9
$PEXTMIN
 10
1.0000000000E+20
 20
1.0000000000E+20
 30
1.0000000000E+20
  9
$PEXTMAX
 10
-1.0000000000E+20
 20
-1.0000000000E+20
 30
-1.0000000000E+20
  9
$PLIMMIN
 10
0.0
 20
0.0
  9
$PLIMMAX
 10
420.0
 20
297.0
  9
$UNITMODE
 70
     0
  9
$VISRETAIN
 70
     1
  9
$PLINEGEN
 70
     0
  9
$PSLTSCALE
 70
     1
  9
$TREEDEPTH
 70
  3020
  9
$CMLSTYLE
  2
Standard
  9
$CMLJUST
 70
     0
  9
$CMLSCALE
 40
20.0
  9
$PROXYGRAPHICS
 70
     1
  9
$MEASUREMENT
 70
     1
  9
$CELWEIGHT
370
    -1
  9
$ENDCAPS
280
     0
  9
$JOINSTYLE
280
     0
  9
$LWDISPLAY
290
     1
  9
$INSUNITS
 70
     4
  9
$HYPERLINKBASE
  1

  9
$STYLESHEET
  1

  9
$XEDIT
290
     1
  9
$CEPSNTYPE
380
     0
  9
$PSTYLEMODE
290
     1
  9
$FINGERPRINTGUID
  2
{BAA8F3E2-9B4A-474E-AD33-84B2A345938E}
  9
$VERSIONGUID
  2
{FAEB1C32-E019-11D5-929B-00C0DF256EC4}
  9
$EXTNAMES
290
     1
  9
$PSVPSCALE
 40
0.0
  9
$OLESTARTUP
290
     0
  0
ENDSEC
  0
SECTION
  2
CLASSES
  0
CLASS
  1
ACDBDICTIONARYWDFLT
  2
AcDbDictionaryWithDefault
  3
ObjectDBX Classes
 90
        0
280
     0
281
     0
  0
CLASS
  1
VISUALSTYLE
  2
AcDbVisualStyle
  3
ObjectDBX Classes
 90
     4095
280
     0
281
     0
  0
CLASS
  1
MATERIAL
  2
AcDbMaterial
  3
ObjectDBX Classes
 90
     1153
280
     0
281
     0
  0
CLASS
  1
SCALE
  2
AcDbScale
  3
ObjectDBX Classes
 90
     1153
280
     0
281
     0
  0
CLASS
  1
TABLESTYLE
  2
AcDbTableStyle
  3
ObjectDBX Classes
 90
     4095
280
     0
281
     0
  0
CLASS
  1
MLEADERSTYLE
  2
AcDbMLeaderStyle
  3
ACDB_MLEADERSTYLE_CLASS
 90
     4095
280
     0
281
     0
  0
CLASS
  1
SUN
  2
AcDbSun
  3
SCENEOE
 90
     1153
280
     0
281
     0
  0
CLASS
  1
ACDBPLACEHOLDER
  2
AcDbPlaceHolder
  3
ObjectDBX Classes
 90
        0
280
     0
281
     0
  0
CLASS
  1
LAYOUT
  2
AcDbLayout
  3
ObjectDBX Classes
 90
        0
280
     0
281
     0
  0
ENDSEC
  0
SECTION
  2
TABLES
  0
TABLE
  2
VPORT
  5
8
330
0
100
AcDbSymbolTable
 70
     1
  0
VPORT
  5
29
330
8
100
AcDbSymbolTableRecord
100
AcDbViewportTableRecord
  2
*Active
 70
     0
 10
0.0
 20
0.0
 11
1.0
 21
1.0
 12
297.0
 22
210.0
 13
0.0
 23
0.0
 14
10.0
 24
10.0
 15
10.0
 25
10.0
 16
0.0
 26
0.0
 36
1.0
 17
0.0
 27
0.0
 37
0.0
 40
420.0
 41
1.4142857143
 42
50.0
 43
0.0
 44
0.0
 50
0.0
 51
0.0
 71
     0
 72
  2000
 73
     1
 74
     3
 75
     0
 76
     0
 77
     0
 78
     0
281
     0
 65
     1
110
0.0
120
0.0
130
0.0
111
1.0
121
0.0
131
0.0
112
0.0
122
1.0
132
0.0
 79
     0
146
0.0
  0
ENDTAB
  0
TABLE
  2
LTYPE
  5
5
330
0
100
AcDbSymbolTable
 70
     6
  0
LTYPE
  5
14
330
5
100
AcDbSymbolTableRecord
100
AcDbLinetypeTableRecord
  2
ByBlock
 70
     0
  3

 72
    65
 73
     0
 40
0.0
  0
LTYPE
  5
15
330
5
100
AcDbSymbolTableRecord
100
AcDbLinetypeTableRecord
  2
ByLayer
 70
     0
  3

 72
    65
 73
     0
 40
0.0
  0
LTYPE
  5
16
330
5
100
AcDbSymbolTableRecord
100
AcDbLinetypeTableRecord
  2
Continuous
 70
     0
  3
Solid line
 72
    65
 73
     0
 40
0.0
  0
LTYPE
  5
6E
330
5
100
AcDbSymbolTableRecord
100
AcDbLinetypeTableRecord
  2
HIDDEN
 70
     0
  3
Hidden __ __ __ __ __ __ __ __ __ __ __ __ __ __
 72
    65
 73
     2
 40
1.905
 49
1.27
 74
     0
 49
-0.635
 74
     0
  0
LTYPE
  5
6F
330
5
100
AcDbSymbolTableRecord
100
AcDbLinetypeTableRecord
  2
PHANTOM
 70
     0
  3
Phantom ______  __  __  ______  __  __  ______
 72
    65
 73
     6
 40
12.7
 49
6.35
 74
     0
 49
-1.27
 74
     0
 49
1.27
 74
     0
 49
-1.27
 74
     0
 49
1.27
 74
     0
 49
-1.27
 74
     0
  0
LTYPE
  5
70
330
5
100
AcDbSymbolTableRecord
100
AcDbLinetypeTableRecord
  2
CENTER
 70
     0
  3
Center ____ _ ____ _ ____ _ ____ _ ____ _ ____
 72
    65
 73
     4
 40
10.16
 49
6.35
 74
     0
 49
-1.27
 74
     0
 49
1.27
 74
     0
 49
-1.27
 74
     0
  0
LTYPE
  5
71
330
5
100
AcDbSymbolTableRecord
100
AcDbLinetypeTableRecord
  2
CENTERX2
 70
     0
  3
Center (2x) ________  __  ________  __  _____
 72
    65
 73
     4
 40
20.32
 49
12.7
 74
     0
 49
-2.54
 74
     0
 49
2.54
 74
     0
 49
-2.54
 74
     0
  0
LTYPE
  5
72
330
5
100
AcDbSymbolTableRecord
100
AcDbLinetypeTableRecord
  2
DOT2
 70
     0
  3
Dot (.5x) ........................................
 72
    65
 73
     2
 40
0.635
 49
0.0
 74
     0
 49
-0.635
 74
     0
  0
ENDTAB
  0
TABLE
  2
LAYER
  5
2
330
0
100
AcDbSymbolTable
 70
     1
  0
LAYER
  5
10
330
2
100
AcDbSymbolTableRecord
100
AcDbLayerTableRecord
  2
0
 70
     0
 62
     7
  6
Continuous
370
    -3
390
F
  0
ENDTAB
  0
TABLE
  2
STYLE
  5
3
330
0
100
AcDbSymbolTable
 70
     4
  0
STYLE
  5
11
330
3
100
AcDbSymbolTableRecord
100
AcDbTextStyleTableRecord
  2
Standard
 70
     0
 40
0.0
 41
1.0
 50
0.0
 71
     0
 42
7.0
  3
txt
  4

  0
STYLE
  5
98
330
3
100
AcDbSymbolTableRecord
100
AcDbTextStyleTableRecord
  2
SLDTEXTSTYLE0
 70
     0
 40
0.0
 41
0.75
 50
0.0
 71
     0
 42
7.0
  3
TXT
  4

  0
STYLE
  5
F0
330
3
100
AcDbSymbolTableRecord
100
AcDbTextStyleTableRecord
  2
SLDTEXTSTYLE1
 70
     0
 40
0.0
 41
0.6607142857
 50
0.0
 71
     0
 42
7.0
  3
TXT
  4

  0
STYLE
  5
F3
330
3
100
AcDbSymbolTableRecord
100
AcDbTextStyleTableRecord
  2
SLDTEXTSTYLE2
 70
     0
 40
0.0
 41
0.6805555556
 50
0.0
 71
     0
 42
7.0
  3
TXT
  4

  0
ENDTAB
  0
TABLE
  2
VIEW
  5
6
330
0
100
AcDbSymbolTable
 70
     0
  0
ENDTAB
  0
TABLE
  2
UCS
  5
7
330
0
100
AcDbSymbolTable
 70
     0
  0
ENDTAB
  0
TABLE
  2
APPID
  5
9
330
0
100
AcDbSymbolTable
 70
     1
  0
APPID
  5
12
330
9
100
AcDbSymbolTableRecord
100
AcDbRegAppTableRecord
  2
ACAD
 70
     0
  0
ENDTAB
  0
TABLE
  2
DIMSTYLE
  5
A
330
0
100
AcDbSymbolTable
 70
     7
100
AcDbDimStyleTable
  0
DIMSTYLE
105
27
330
A
100
AcDbSymbolTableRecord
100
AcDbDimStyleTableRecord
  2
ISO-25
 70
     0
 41
2.5
 42
0.625
 43
3.75
 44
1.25
 73
     0
 74
     0
 77
     1
 78
     8
140
2.5
141
2.5
143
0.0393700787
147
0.625
171
     3
172
     1
178
     0
271
     2
272
     2
274
     3
278
    44
283
     0
284
     8
340
11
  0
DIMSTYLE
105
99
102
{ACAD_REACTORS
330
97
330
A3
330
BA
330
C4
330
CE
102
}
330
A
100
AcDbSymbolTableRecord
100
AcDbDimStyleTableRecord
  2
SLDDIMSTYLE0
 70
     0
 41
6.604
 44
0.0
 45
0.000000001
 73
     0
 74
     0
 77
     1
 78
    12
 79
     3
140
7.0
147
1.75
173
     1
178
     0
271
     2
272
     2
276
     2
284
    12
340
98
  0
DIMSTYLE
105
AE
102
{ACAD_REACTORS
330
AD
102
}
330
A
100
AcDbSymbolTableRecord
100
AcDbDimStyleTableRecord
  2
SLDDIMSTYLE1
 70
     0
 41
6.604
 44
0.0
 45
0.000000001
 73
     0
 74
     0
 77
     1
 78
     4
 79
     1
140
7.0
147
1.75
172
     1
173
     1
178
     0
271
     2
272
     2
276
     2
284
    12
289
     0
340
98
  0
DIMSTYLE
105
D9
102
{ACAD_REACTORS
330
D8
102
}
330
A
100
AcDbSymbolTableRecord
100
AcDbDimStyleTableRecord
  2
SLDDIMSTYLE2
 70
     0
 41
6.604
 44
0.0
 45
0.000000001
 73
     0
 74
     0
 77
     1
 78
    12
 79
     3
140
7.0
147
1.75
172
     1
173
     1
178
     0
271
     2
272
     2
276
     2
284
    12
289
     0
340
98
  0
DIMSTYLE
105
E6
102
{ACAD_REACTORS
330
E5
102
}
330
A
100
AcDbSymbolTableRecord
100
AcDbDimStyleTableRecord
  2
SLDDIMSTYLE3
 70
     0
 41
6.604
 44
0.0
 45
0.000000001
 73
     0
 74
     0
 77
     1
 78
     4
 79
     1
140
7.0
147
1.75
173
     1
178
     0
271
     2
272
     2
276
     2
284
    12
340
98
  0
DIMSTYLE
105
215
102
{ACAD_REACTORS
330
214
102
}
330
A
100
AcDbSymbolTableRecord
100
AcDbDimStyleTableRecord
  2
SLDDIMSTYLE4
 70
     0
 41
6.604
 44
0.0
 45
0.000000001
 73
     0
 74
     0
 77
     1
 78
     4
 79
     1
140
7.0
141
0.0
147
1.75
173
     1
178
     0
271
     2
272
     2
276
     2
284
    12
340
98
  0
DIMSTYLE
105
21E
102
{ACAD_REACTORS
330
21D
330
228
102
}
330
A
100
AcDbSymbolTableRecord
100
AcDbDimStyleTableRecord
  2
SLDDIMSTYLE5
 70
     0
 41
6.604
 44
0.0
 73
     0
 74
     0
 77
     1
 78
    12
 79
     3
140
7.0
144
2.0
147
1.75
173
     1
178
     0
179
     2
272
     2
276
     2
284
    12
340
98
  0
ENDTAB
  0
TABLE
  2
BLOCK_RECORD
  5
1
330
0
100
AcDbSymbolTable
 70
    12
  0
BLOCK_RECORD
  5
1F
330
1
100
AcDbSymbolTableRecord
100
AcDbBlockTableRecord
  2
*Model_Space
340
22
  0
BLOCK_RECORD
  5
1B
330
1
100
AcDbSymbolTableRecord
100
AcDbBlockTableRecord
  2
*Paper_Space
340
1E
  0
BLOCK_RECORD
  5
23
330
1
100
AcDbSymbolTableRecord
100
AcDbBlockTableRecord
  2
*Paper_Space0
340
26
  0
BLOCK_RECORD
  5
9A
330
1
100
AcDbSymbolTableRecord
100
AcDbBlockTableRecord
  2
_D
340
0
  0
BLOCK_RECORD
  5
A4
330
1
100
AcDbSymbolTableRecord
100
AcDbBlockTableRecord
  2
_D_1
340
0
  0
BLOCK_RECORD
  5
AF
330
1
100
AcDbSymbolTableRecord
100
AcDbBlockTableRecord
  2
_D_2
340
0
  0
BLOCK_RECORD
  5
BB
330
1
100
AcDbSymbolTableRecord
100
AcDbBlockTableRecord
  2
_D_3
340
0
  0
BLOCK_RECORD
  5
C5
330
1
100
AcDbSymbolTableRecord
100
AcDbBlockTableRecord
  2
_D_4
340
0
  0
BLOCK_RECORD
  5
CF
330
1
100
AcDbSymbolTableRecord
100
AcDbBlockTableRecord
  2
_D_5
340
0
  0
BLOCK_RECORD
  5
DA
330
1
100
AcDbSymbolTableRecord
100
AcDbBlockTableRecord
  2
_D_6
340
0
  0
BLOCK_RECORD
  5
E7
330
1
100
AcDbSymbolTableRecord
100
AcDbBlockTableRecord
  2
_D_7
340
0
  0
BLOCK_RECORD
  5
216
330
1
100
AcDbSymbolTableRecord
100
AcDbBlockTableRecord
  2
_D_8
340
0
  0
BLOCK_RECORD
  5
21F
330
1
100
AcDbSymbolTableRecord
100
AcDbBlockTableRecord
  2
_D_9
340
0
  0
BLOCK_RECORD
  5
229
330
1
100
AcDbSymbolTableRecord
100
AcDbBlockTableRecord
  2
_D_10
340
0
  0
ENDTAB
  0
ENDSEC
  0
SECTION
  2
BLOCKS
  0
BLOCK
  5
20
330
1F
100
AcDbEntity
  8
0
100
AcDbBlockBegin
  2
*Model_Space
 70
     0
 10
0.0
 20
0.0
 30
0.0
  3
*Model_Space
  1

  0
ENDBLK
  5
21
330
1F
100
AcDbEntity
  8
0
100
AcDbBlockEnd
  0
BLOCK
  5
1C
330
1B
100
AcDbEntity
 67
     1
  8
0
100
AcDbBlockBegin
  2
*Paper_Space
 70
     0
 10
0.0
 20
0.0
 30
0.0
  3
*Paper_Space
  1

  0
ENDBLK
  5
1D
330
1B
100
AcDbEntity
 67
     1
  8
0
100
AcDbBlockEnd
  0
BLOCK
  5
24
330
23
100
AcDbEntity
  8
0
100
AcDbBlockBegin
  2
*Paper_Space0
 70
     0
 10
0.0
 20
0.0
 30
0.0
  3
*Paper_Space0
  1

  0
ENDBLK
  5
25
330
23
100
AcDbEntity
  8
0
100
AcDbBlockEnd
  0
BLOCK
  5
9B
330
9A
100
AcDbEntity
  8
0
100
AcDbBlockBegin
  2
_D
 70
     0
 10
0.0
 20
0.0
 30
0.0
  3
_D
  1

  0
SOLID
  5
9D
330
9A
100
AcDbEntity
  8
0
  6
Continuous
 62
     7
370
    18
100
AcDbTrace
 10
38.1236063231
 20
279.7472551285
 30
0.0
 11
37.1076063231
 21
273.1432551285
 31
0.0
 12
39.1396063231
 22
273.1432551285
 32
0.0
 13
39.1396063231
 23
273.1432551285
 33
0.0
  0
SOLID
  5
9E
330
9A
100
AcDbEntity
  8
0
  6
Continuous
 62
     7
370
    18
100
AcDbTrace
 10
38.1236063231
 20
136.2676037526
 30
0.0
 11
39.1396063231
 21
142.8716037526
 31
0.0
 12
37.1076063231
 22
142.8716037526
 32
0.0
 13
37.1076063231
 23
142.8716037526
 33
0.0
  0
LINE
  5
9F
330
9A
100
AcDbEntity
  8
0
  6
Continuous
 62
     7
370
    18
100
AcDbLine
 10
127.3614571092
 20
279.7472551285
 30
0.0
 11
36.1236063231
 21
279.7472551285
 31
0.0
  0
LINE
  5
A0
330
9A
100
AcDbEntity
  8
0
  6
Continuous
 62
     7
370
    18
100
AcDbLine
 10
127.3614571092
 20
136.2676037526
 30
0.0
 11
36.1236063231
 21
136.2676037526
 31
0.0
  0
LINE
  5
A1
330
9A
100
AcDbEntity
  8
0
  6
Continuous
 62
     7
370
    18
100
AcDbLine
 10
38.1236063231
 20
279.7472551285
 30
0.0
 11
38.1236063231
 21
136.2676037526
 31
0.0
  0
MTEXT
  5
A2
330
9A
100
AcDbEntity
  8
0
  6
Continuous
 62
     7
370
    18
100
AcDbMText
 10
29.1001324939
 20
190.1042737497
 30
0.0
 40
7.0
 41
0.0
 71
     1
 72
     1
  1
143.48
  7
SLDTEXTSTYLE0
 11
-7.044195017643634E-15
 21
1.0
 31
0.0
 73
     1
 44
1.0
  0
ENDBLK
  5
9C
330
9A
100
AcDbEntity
  8
0
100
AcDbBlockEnd
  0
BLOCK
  5
A5
330
A4
100
AcDbEntity
  8
0
100
AcDbBlockBegin
  2
_D_1
 70
     0
 10
0.0
 20
0.0
 30
0.0
  3
_D_1
  1

  0
SOLID
  5
A7
330
A4
100
AcDbEntity
  8
0
  6
Continuous
 62
     7
370
    18
100
AcDbTrace
 10
85.9936240952
 20
314.2016752054
 30
0.0
 11
92.5976240952
 21
313.1856752054
 31
0.0
 12
92.5976240952
 22
315.2176752054
 32
0.0
 13
92.5976240952
 23
315.2176752054
 33
0.0
  0
SOLID
  5
A8
330
A4
100
AcDbEntity
  8
0
  6
Continuous
 62
     7
370
    18
100
AcDbTrace
 10
248.9699842393
 20
314.2016752054
 30
0.0
 11
242.3659842393
 21
315.2176752054
 31
0.0
 12
242.3659842393
 22
313.1856752054
 32
0.0
 13
242.3659842393
 23
313.1856752054
 33
0.0
  0
LINE
  5
A9
330
A4
100
AcDbEntity
  8
0
  6
Continuous
 62
     7
370
    18
100
AcDbLine
 10
85.9936240952
 20
254.7809664216
 30
0.0
 11
85.9936240952
 21
316.2016752054
 31
0.0
  0
LINE
  5
AA
330
A4
100
AcDbEntity
  8
0
  6
Continuous
 62
     7
370
    18
100
AcDbLine
 10
248.9699842393
 20
254.7809664216
 30
0.0
 11
248.9699842393
 21
316.2016752054
 31
0.0
  0
LINE
  5
AB
330
A4
100
AcDbEntity
  8
0
  6
Continuous
 62
     7
370
    18
100
AcDbLine
 10
85.9936240952
 20
314.2016752054
 30
0.0
 11
248.9699842393
 21
314.2016752054
 31
0.0
  0
MTEXT
  5
AC
330
A4
100
AcDbEntity
  8
0
  6
Continuous
 62
     7
370
    18
100
AcDbMText
 10
151.3932701215
 20
323.2251490345
 30
0.0
 40
7.0
 41
0.0
 71
     1
 72
     1
  1
162.98
  7
SLDTEXTSTYLE0
 73
     1
 44
1.0
  0
ENDBLK
  5
A6
330
A4
100
AcDbEntity
  8
0
100
AcDbBlockEnd
  0
BLOCK
  5
B0
330
AF
100
AcDbEntity
  8
0
100
AcDbBlockBegin
  2
_D_2
 70
     0
 10
0.0
 20
0.0
 30
0.0
  3
_D_2
  1

  0
SOLID
  5
B2
330
AF
100
AcDbEntity
  8
0
  6
Continuous
 62
     7
370
    18
100
AcDbTrace
 10
61.8782302355
 20
158.1681084386
 30
0.0
 11
60.8622302355
 21
151.5641084386
 31
0.0
 12
62.8942302355
 22
151.5641084386
 32
0.0
 13
62.8942302355
 23
151.5641084386
 33
0.0
  0
SOLID
  5
B3
330
AF
100
AcDbEntity
  8
0
  6
Continuous
 62
     7
370
    18
100
AcDbTrace
 10
61.8782302355
 20
170.1644564953
 30
0.0
 11
62.8942302355
 21
176.7684564953
 31
0.0
 12
60.8622302355
 22
176.7684564953
 32
0.0
 13
60.8622302355
 23
176.7684564953
 33
0.0
  0
LINE
  5
B4
330
AF
100
AcDbEntity
  8
0
  6
Continuous
 62
     7
370
    18
100
AcDbLine
 10
70.8183210394
 20
158.1681084386
 30
0.0
 11
59.8782302355
 21
158.1681084386
 31
0.0
  0
LINE
  5
B5
330
AF
100
AcDbEntity
  8
0
  6
Continuous
 62
     7
370
    18
100
AcDbLine
 10
70.6090126948
 20
170.1644564953
 30
0.0
 11
59.8782302355
 21
170.1644564953
 31
0.0
  0
LINE
  5
B6
330
AF
100
AcDbEntity
  8
0
  6
Continuous
 62
     7
370
    18
100
AcDbLine
 10
61.8782302355
 20
158.1681084386
 30
0.0
 11
61.8782302355
 21
145.4681084386
 31
0.0
  0
LINE
  5
B7
330
AF
100
AcDbEntity
  8
0
  6
Continuous
 62
     7
370
    18
100
AcDbLine
 10
61.8782302355
 20
158.1681084386
 30
0.0
 11
61.8782302355
 21
170.1644564953
 31
0.0
  0
LINE
  5
B8
330
AF
100
AcDbEntity
  8
0
  6
Continuous
 62
     7
370
    18
100
AcDbLine
 10
61.8782302355
 20
170.1644564953
 30
0.0
 11
61.8782302355
 21
182.8644564953
 31
0.0
  0
MTEXT
  5
B9
330
AF
100
AcDbEntity
  8
0
  6
Continuous
 62
     7
370
    18
100
AcDbMText
 10
52.8547564064
 20
152.1520264001
 30
0.0
 40
7.0
 41
0.0
 71
     1
 72
     1
  1
12.00
  7
SLDTEXTSTYLE0
 11
6.123233995736766E-17
 21
1.0
 31
0.0
 73
     1
 44
1.0
  0
ENDBLK
  5
B1
330
AF
100
AcDbEntity
  8
0
100
AcDbBlockEnd
  0
BLOCK
  5
BC
330
BB
100
AcDbEntity
  8
0
100
AcDbBlockBegin
  2
_D_3
 70
     0
 10
0.0
 20
0.0
 30
0.0
  3
_D_3
  1

  0
SOLID
  5
BE
330
BB
100
AcDbEntity
  8
0
  6
Continuous
 62
     7
370
    18
100
AcDbTrace
 10
301.5412692994
 20
170.1644564953
 30
0.0
 11
302.5572692994
 21
176.7684564953
 31
0.0
 12
300.5252692994
 22
176.7684564953
 32
0.0
 13
300.5252692994
 23
176.7684564953
 33
0.0
  0
SOLID
  5
BF
330
BB
100
AcDbEntity
  8
0
  6
Continuous
 62
     7
370
    18
100
AcDbTrace
 10
301.5412692994
 20
226.1717603819
 30
0.0
 11
300.5252692994
 21
219.5677603819
 31
0.0
 12
302.5572692994
 22
219.5677603819
 32
0.0
 13
302.5572692994
 23
219.5677603819
 33
0.0
  0
LINE
  5
C0
330
BB
100
AcDbEntity
  8
0
  6
Continuous
 62
     7
370
    18
100
AcDbLine
 10
264.3545956397
 20
170.1644564953
 30
0.0
 11
303.5412692994
 21
170.1644564953
 31
0.0
  0
LINE
  5
C1
330
BB
100
AcDbEntity
  8
0
  6
Continuous
 62
     7
370
    18
100
AcDbLine
 10
264.3545956397
 20
226.1717603819
 30
0.0
 11
303.5412692994
 21
226.1717603819
 31
0.0
  0
LINE
  5
C2
330
BB
100
AcDbEntity
  8
0
  6
Continuous
 62
     7
370
    18
100
AcDbLine
 10
301.5412692994
 20
170.1644564953
 30
0.0
 11
301.5412692994
 21
226.1717603819
 31
0.0
  0
MTEXT
  5
C3
330
BB
100
AcDbEntity
  8
0
  6
Continuous
 62
     7
370
    18
100
AcDbMText
 10
292.5177954703
 20
186.2810087268
 30
0.0
 40
7.0
 41
0.0
 71
     1
 72
     1
  1
56.01
  7
SLDTEXTSTYLE0
 11
6.123233995736766E-17
 21
1.0
 31
0.0
 73
     1
 44
1.0
  0
ENDBLK
  5
BD
330
BB
100
AcDbEntity
  8
0
100
AcDbBlockEnd
  0
BLOCK
  5
C6
330
C5
100
AcDbEntity
  8
0
100
AcDbBlockBegin
  2
_D_4
 70
     0
 10
0.0
 20
0.0
 30
0.0
  3
_D_4
  1

  0
SOLID
  5
C8
330
C5
100
AcDbEntity
  8
0
  6
Continuous
 62
     7
370
    18
100
AcDbTrace
 10
129.3614571092
 20
117.072458568
 30
0.0
 11
135.9654571092
 21
116.056458568
 31
0.0
 12
135.9654571092
 22
118.088458568
 32
0.0
 13
135.9654571092
 23
118.088458568
 33
0.0
  0
SOLID
  5
C9
330
C5
100
AcDbEntity
  8
0
  6
Continuous
 62
     7
370
    18
100
AcDbTrace
 10
205.6021512253
 20
117.072458568
 30
0.0
 11
198.9981512253
 21
118.088458568
 31
0.0
 12
198.9981512253
 22
116.056458568
 32
0.0
 13
198.9981512253
 23
116.056458568
 33
0.0
  0
LINE
  5
CA
330
C5
100
AcDbEntity
  8
0
  6
Continuous
 62
     7
370
    18
100
AcDbLine
 10
129.3614571092
 20
134.2676037526
 30
0.0
 11
129.3614571092
 21
115.072458568
 31
0.0
  0
LINE
  5
CB
330
C5
100
AcDbEntity
  8
0
  6
Continuous
 62
     7
370
    18
100
AcDbLine
 10
205.6021512253
 20
134.2676037526
 30
0.0
 11
205.6021512253
 21
115.072458568
 31
0.0
  0
LINE
  5
CC
330
C5
100
AcDbEntity
  8
0
  6
Continuous
 62
     7
370
    18
100
AcDbLine
 10
129.3614571092
 20
117.072458568
 30
0.0
 11
205.6021512253
 21
117.072458568
 31
0.0
  0
MTEXT
  5
CD
330
C5
100
AcDbEntity
  8
0
  6
Continuous
 62
     7
370
    18
100
AcDbMText
 10
155.2527455765
 20
126.0959323971
 30
0.0
 40
7.0
 41
0.0
 71
     1
 72
     1
  1
76.24
  7
SLDTEXTSTYLE0
 73
     1
 44
1.0
  0
ENDBLK
  5
C7
330
C5
100
AcDbEntity
  8
0
100
AcDbBlockEnd
  0
BLOCK
  5
D0
330
CF
100
AcDbEntity
  8
0
100
AcDbBlockBegin
  2
_D_5
 70
     0
 10
0.0
 20
0.0
 30
0.0
  3
_D_5
  1

  0
SOLID
  5
D2
330
CF
100
AcDbEntity
  8
0
  6
Continuous
 62
     7
370
    18
100
AcDbTrace
 10
205.6021512253
 20
293.63198179
 30
0.0
 11
198.9981512253
 21
294.64798179
 31
0.0
 12
198.9981512253
 22
292.61598179
 32
0.0
 13
198.9981512253
 23
292.61598179
 33
0.0
  0
SOLID
  5
D3
330
CF
100
AcDbEntity
  8
0
  6
Continuous
 62
     7
370
    18
100
AcDbTrace
 10
129.3614571092
 20
293.63198179
 30
0.0
 11
135.9654571092
 21
292.61598179
 31
0.0
 12
135.9654571092
 22
294.64798179
 32
0.0
 13
135.9654571092
 23
294.64798179
 33
0.0
  0
LINE
  5
D4
330
CF
100
AcDbEntity
  8
0
  6
Continuous
 62
     7
370
    18
100
AcDbLine
 10
205.6021512253
 20
281.7472551285
 30
0.0
 11
205.6021512253
 21
295.63198179
 31
0.0
  0
LINE
  5
D5
330
CF
100
AcDbEntity
  8
0
  6
Continuous
 62
     7
370
    18
100
AcDbLine
 10
129.3614571092
 20
281.7472551285
 30
0.0
 11
129.3614571092
 21
295.63198179
 31
0.0
  0
LINE
  5
D6
330
CF
100
AcDbEntity
  8
0
  6
Continuous
 62
     7
370
    18
100
AcDbLine
 10
205.6021512253
 20
293.63198179
 30
0.0
 11
129.3614571092
 21
293.63198179
 31
0.0
  0
MTEXT
  5
D7
330
CF
100
AcDbEntity
  8
0
  6
Continuous
 62
     7
370
    18
100
AcDbMText
 10
152.3059941458
 20
302.6554556192
 30
0.0
 40
7.0
 41
0.0
 71
     1
 72
     1
  1
76.24
  7
SLDTEXTSTYLE0
 73
     1
 44
1.0
  0
ENDBLK
  5
D1
330
CF
100
AcDbEntity
  8
0
100
AcDbBlockEnd
  0
BLOCK
  5
DB
330
DA
100
AcDbEntity
  8
0
100
AcDbBlockBegin
  2
_D_6
 70
     0
 10
0.0
 20
0.0
 30
0.0
  3
_D_6
  1

  0
SOLID
  5
DD
330
DA
100
AcDbEntity
  8
0
  6
Continuous
 62
     7
370
    18
100
AcDbTrace
 10
72.8183210394
 20
121.8455760294
 30
0.0
 11
66.2143210394
 21
122.8615760294
 31
0.0
 12
66.2143210394
 22
120.8295760294
 32
0.0
 13
66.2143210394
 23
120.8295760294
 33
0.0
  0
SOLID
  5
DE
330
DA
100
AcDbEntity
  8
0
  6
Continuous
 62
     7
370
    18
100
AcDbTrace
 10
85.9936240952
 20
121.8455760294
 30
0.0
 11
92.5976240952
 21
120.8295760294
 31
0.0
 12
92.5976240952
 22
122.8615760294
 32
0.0
 13
92.5976240952
 23
122.8615760294
 33
0.0
  0
LINE
  5
DF
330
DA
100
AcDbEntity
  8
0
  6
Continuous
 62
     7
370
    18
100
AcDbLine
 10
72.8183210394
 20
156.1681084386
 30
0.0
 11
72.8183210394
 21
119.8455760294
 31
0.0
  0
LINE
  5
E0
330
DA
100
AcDbEntity
  8
0
  6
Continuous
 62
     7
370
    18
100
AcDbLine
 10
85.9936240952
 20
156.1681084386
 30
0.0
 11
85.9936240952
 21
119.8455760294
 31
0.0
  0
LINE
  5
E1
330
DA
100
AcDbEntity
  8
0
  6
Continuous
 62
     7
370
    18
100
AcDbLine
 10
72.8183210394
 20
121.8455760294
 30
0.0
 11
46.3474688289
 21
121.8455760294
 31
0.0
  0
LINE
  5
E2
330
DA
100
AcDbEntity
  8
0
  6
Continuous
 62
     7
370
    18
100
AcDbLine
 10
72.8183210394
 20
121.8455760294
 30
0.0
 11
85.9936240952
 21
121.8455760294
 31
0.0
  0
LINE
  5
E3
330
DA
100
AcDbEntity
  8
0
  6
Continuous
 62
     7
370
    18
100
AcDbLine
 10
85.9936240952
 20
121.8455760294
 30
0.0
 11
98.6936240952
 21
121.8455760294
 31
0.0
  0
MTEXT
  5
E4
330
DA
100
AcDbEntity
  8
0
  6
Continuous
 62
     7
370
    18
100
AcDbMText
 10
46.3474688289
 20
130.8690498585
 30
0.0
 40
7.0
 41
0.0
 71
     1
 72
     1
  1
13.18
  7
SLDTEXTSTYLE0
 73
     1
 44
1.0
  0
ENDBLK
  5
DC
330
DA
100
AcDbEntity
  8
0
100
AcDbBlockEnd
  0
BLOCK
  5
E8
330
E7
100
AcDbEntity
  8
0
100
AcDbBlockBegin
  2
_D_7
 70
     0
 10
0.0
 20
0.0
 30
0.0
  3
_D_7
  1

  0
SOLID
  5
EA
330
E7
100
AcDbEntity
  8
0
  6
Continuous
 62
     7
370
    18
100
AcDbTrace
 10
316.0189678792
 20
238.1681084386
 30
0.0
 11
315.0029678792
 21
231.5641084386
 31
0.0
 12
317.0349678792
 22
231.5641084386
 32
0.0
 13
317.0349678792
 23
231.5641084386
 33
0.0
  0
SOLID
  5
EB
330
E7
100
AcDbEntity
  8
0
  6
Continuous
 62
     7
370
    18
100
AcDbTrace
 10
316.0189678792
 20
158.1681084386
 30
0.0
 11
317.0349678792
 21
164.7721084386
 31
0.0
 12
315.0029678792
 22
164.7721084386
 32
0.0
 13
315.0029678792
 23
164.7721084386
 33
0.0
  0
LINE
  5
EC
330
E7
100
AcDbEntity
  8
0
  6
Continuous
 62
     7
370
    18
100
AcDbLine
 10
264.1452872951
 20
238.1681084386
 30
0.0
 11
318.0189678792
 21
238.1681084386
 31
0.0
  0
LINE
  5
ED
330
E7
100
AcDbEntity
  8
0
  6
Continuous
 62
     7
370
    18
100
AcDbLine
 10
264.1452872951
 20
158.1681084386
 30
0.0
 11
318.0189678792
 21
158.1681084386
 31
0.0
  0
LINE
  5
EE
330
E7
100
AcDbEntity
  8
0
  6
Continuous
 62
     7
370
    18
100
AcDbLine
 10
316.0189678792
 20
238.1681084386
 30
0.0
 11
316.0189678792
 21
158.1681084386
 31
0.0
  0
MTEXT
  5
EF
330
E7
100
AcDbEntity
  8
0
  6
Continuous
 62
     7
370
    18
100
AcDbMText
 10
306.9954940501
 20
190.6263832907
 30
0.0
 40
7.0
 41
0.0
 71
     1
 72
     1
  1
80.00
  7
SLDTEXTSTYLE0
 11
-7.044195017643634E-15
 21
1.0
 31
0.0
 73
     1
 44
1.0
  0
ENDBLK
  5
E9
330
E7
100
AcDbEntity
  8
0
100
AcDbBlockEnd
  0
BLOCK
  5
217
330
216
100
AcDbEntity
  8
0
100
AcDbBlockBegin
  2
_D_8
 70
     0
 10
0.0
 20
0.0
 30
0.0
  3
_D_8
  1

  0
SOLID
  5
219
330
216
100
AcDbEntity
  8
0
  6
Continuous
 62
     7
370
    18
100
AcDbTrace
 10
437.0551689183
 20
181.331276576
 30
0.0
 11
443.2824006849
 21
183.7533947658
 31
0.0
 12
442.2664006849
 22
185.5131583862
 32
0.0
 13
442.2664006849
 23
185.5131583862
 33
0.0
  0
LINE
  5
21A
330
216
100
AcDbEntity
  8
0
  6
Continuous
 62
     7
370
    18
100
AcDbLine
 10
437.0551689183
 20
181.331276576
 30
0.0
 11
470.8681335983
 21
200.8532008361
 31
0.0
  0
LINE
  5
21B
330
216
100
AcDbEntity
  8
0
  6
Continuous
 62
     7
370
    18
100
AcDbLine
 10
437.0551689183
 20
181.331276576
 30
0.0
 11
415.4045338237
 21
168.831276576
 31
0.0
  0
MTEXT
  5
21C
330
216
100
AcDbEntity
  8
0
  6
Continuous
 62
     7
370
    18
100
AcDbMText
 10
441.3080509047
 20
194.1666497307
 30
0.0
 40
7.0
 41
0.0
 71
     1
 72
     1
  1
R25.00
  7
SLDTEXTSTYLE0
 11
0.8660254037844382
 21
0.5000000000000009
 31
0.0
 73
     1
 44
1.0
  0
ENDBLK
  5
218
330
216
100
AcDbEntity
  8
0
100
AcDbBlockEnd
  0
BLOCK
  5
220
330
21F
100
AcDbEntity
  8
0
100
AcDbBlockBegin
  2
_D_9
 70
     0
 10
0.0
 20
0.0
 30
0.0
  3
_D_9
  1

  0
ARC
  5
222
330
21F
100
AcDbEntity
  8
0
  6
Continuous
 62
     7
370
    18
100
AcDbCircle
 10
415.50967792
 20
648.5206106824
 30
0.0
 40
545.944056817216
100
AcDbArc
 50
267.0
 51
273.0
  0
SOLID
  5
223
330
21F
100
AcDbEntity
  8
0
  6
Continuous
 62
     7
370
    18
100
AcDbTrace
 10
386.9371736513
 20
103.324751221
 30
0.0
 11
393.4870566965
 21
102.0041058886
 31
0.0
 12
393.5811289099
 22
104.0339271661
 32
0.0
 13
393.5811289099
 23
104.0339271661
 33
0.0
  0
SOLID
  5
224
330
21F
100
AcDbEntity
  8
0
  6
Continuous
 62
     7
370
    18
100
AcDbTrace
 10
444.0821821887
 20
103.324751221
 30
0.0
 11
437.43822693
 21
104.0339271661
 31
0.0
 12
437.5322991435
 22
102.0041058886
 32
0.0
 13
437.5322991435
 23
102.0041058886
 33
0.0
  0
LINE
  5
225
330
21F
100
AcDbEntity
  8
0
  6
Continuous
 62
     7
370
    18
100
AcDbLine
 10
388.616158741
 20
135.3616952133
 30
0.0
 11
386.8325017388
 21
101.3274921515
 31
0.0
  0
LINE
  5
226
330
21F
100
AcDbEntity
  8
0
  6
Continuous
 62
     7
370
    18
100
AcDbLine
 10
442.4026211087
 20
135.3726857641
 30
0.0
 11
444.1868541012
 21
101.3274921515
 31
0.0
  0
MTEXT
  5
227
330
21F
100
AcDbEntity
  8
0
  6
Continuous
 62
     7
370
    18
100
AcDbMText
 10
412.8102088379
 20
111.5883500246
 30
0.0
 40
7.0
 41
0.0
 71
     1
 72
     1
  1
6°
  7
SLDTEXTSTYLE0
 11
0.999994668416791
 21
0.003265446063300256
 31
0.0
 73
     1
 44
1.0
  0
ENDBLK
  5
221
330
21F
100
AcDbEntity
  8
0
100
AcDbBlockEnd
  0
BLOCK
  5
22A
330
229
100
AcDbEntity
  8
0
100
AcDbBlockBegin
  2
_D_10
 70
     0
 10
0.0
 20
0.0
 30
0.0
  3
_D_10
  1

  0
ARC
  5
22C
330
229
100
AcDbEntity
  8
0
  6
Continuous
 62
     7
370
    18
100
AcDbCircle
 10
388.8659596758
 20
134.2049109867
 30
0.0
 40
14.19055987798547
100
AcDbArc
 50
267.0
 51
0.0
  0
ARC
  5
22D
330
229
100
AcDbEntity
  8
0
  6
Continuous
 62
     7
370
    18
100
AcDbCircle
 10
388.8659596758
 20
134.2049109867
 30
0.0
 40
14.19055987798547
100
AcDbArc
 50
219.7102478861
 51
267.0
  0
ARC
  5
22E
330
229
100
AcDbEntity
  8
0
  6
Continuous
 62
     7
370
    18
100
AcDbCircle
 10
388.8659596758
 20
134.2049109867
 30
0.0
 40
14.19055987798546
100
AcDbArc
 50
0.0
 51
47.2897521139
  0
SOLID
  5
22F
330
229
100
AcDbEntity
  8
0
  6
Continuous
 62
     7
370
    18
100
AcDbTrace
 10
388.123283155
 20
120.0337987779
 30
0.0
 11
382.0299362995
 21
122.7753669603
 31
0.0
 12
381.4876543882
 22
120.8170630184
 32
0.0
 13
381.4876543882
 23
120.8170630184
 33
0.0
  0
SOLID
  5
230
330
229
100
AcDbEntity
  8
0
  6
Continuous
 62
     7
370
    18
100
AcDbTrace
 10
403.0565195538
 20
134.2049109867
 30
0.0
 11
402.6216107264
 21
140.8724387379
 31
0.0
 12
400.6376097297
 22
140.4333897146
 32
0.0
 13
400.6376097297
 23
140.4333897146
 33
0.0
  0
LINE
  5
231
330
229
100
AcDbEntity
  8
0
  6
Continuous
 62
     7
370
    18
100
AcDbLine
 10
388.3876090357
 20
125.0774370391
 30
0.0
 11
388.0186112425
 21
118.0365397084
 31
0.0
  0
LINE
  5
232
330
229
100
AcDbEntity
  8
0
  6
Continuous
 62
     7
370
    18
100
AcDbLine
 10
402.6666771168
 20
134.2049109867
 30
0.0
 11
405.0565195538
 21
134.2049109867
 31
0.0
  0
MTEXT
  5
233
330
229
100
AcDbEntity
  8
0
  6
Continuous
 62
     7
370
    18
100
AcDbMText
 10
388.3469771403
 20
125.4885244913
 30
0.0
 40
7.0
 41
0.0
 71
     1
 72
     1
  1
93°
  7
SLDTEXTSTYLE0
 11
0.6386195533386333
 21
0.7695226222103964
 31
0.0
 73
     1
 44
1.0
  0
ENDBLK
  5
22B
330
229
100
AcDbEntity
  8
0
100
AcDbBlockEnd
  0
ENDSEC
  0
SECTION
  2
ENTITIES
  0
LINE
  5
73
330
1F
100
AcDbEntity
  8
0
  6
CENTERX2
 62
     7
100
AcDbLine
 10
78.6228578571
 20
158.1681084386
 30
0.0
 11
78.6228578571
 21
238.1681084386
 31
0.0
  0
LINE
  5
74
330
1F
100
AcDbEntity
  8
0
  6
CENTERX2
 62
     7
100
AcDbLine
 10
256.3407504773
 20
238.1681084386
 30
0.0
 11
256.3407504773
 21
158.1681084386
 31
0.0
  0
LINE
  5
75
330
1F
100
AcDbEntity
  8
0
  6
CENTERX2
 62
     7
100
AcDbLine
 10
86.0101506645
 20
238.1681084386
 30
0.0
 11
86.0101506645
 21
158.1681084386
 31
0.0
  0
LINE
  5
76
330
1F
100
AcDbEntity
  8
0
  6
CENTERX2
 62
     7
100
AcDbLine
 10
248.9534576699
 20
158.1681084386
 30
0.0
 11
248.9534576699
 21
238.1681084386
 31
0.0
  0
CIRCLE
  5
77
330
1F
100
AcDbEntity
  8
0
  6
Continuous
 62
     7
370
    25
100
AcDbCircle
 10
72.5288868466
 20
164.1681084386
 30
0.0
 40
1.400000000000006
  0
CIRCLE
  5
78
330
1F
100
AcDbEntity
  8
0
  6
Continuous
 62
     7
370
    25
100
AcDbCircle
 10
72.5288868466
 20
232.1681084386
 30
0.0
 40
1.399999999999977
  0
CIRCLE
  5
79
330
1F
100
AcDbEntity
  8
0
  6
Continuous
 62
     7
370
    25
100
AcDbCircle
 10
262.4347214879
 20
164.1681084386
 30
0.0
 40
1.400000000000006
  0
CIRCLE
  5
7A
330
1F
100
AcDbEntity
  8
0
  6
Continuous
 62
     7
370
    25
100
AcDbCircle
 10
262.4347214879
 20
232.1681084386
 30
0.0
 40
1.399999999999977
  0
ARC
  5
7B
330
1F
100
AcDbEntity
  8
0
  6
Continuous
 62
     7
370
    25
100
AcDbCircle
 10
72.8183210394
 20
164.1681084386
 30
0.0
 40
6.000000000000028
100
AcDbArc
 50
91.9991530766
 51
270.0
  0
ARC
  5
7C
330
1F
100
AcDbEntity
  8
0
  6
Continuous
 62
     7
370
    25
100
AcDbCircle
 10
72.5043585225
 20
173.1626305236
 30
0.0
 40
3.0
100
AcDbArc
 50
271.9991530766
 51
0.0
  0
LINE
  5
7D
330
1F
100
AcDbEntity
  8
0
  6
Continuous
 62
     7
370
    25
100
AcDbLine
 10
75.504358088
 20
173.1626292816
 30
0.0
 11
75.504358088
 21
223.1735861054
 31
0.0
  0
ARC
  5
7E
330
1F
100
AcDbEntity
  8
0
  6
Continuous
 62
     7
370
    25
100
AcDbCircle
 10
72.5043585225
 20
223.1735863536
 30
0.0
 40
3.0
100
AcDbArc
 50
0.0
 51
88.0008469234
  0
ARC
  5
7F
330
1F
100
AcDbEntity
  8
0
  6
Continuous
 62
     7
370
    25
100
AcDbCircle
 10
72.8183210394
 20
232.1681084386
 30
0.0
 40
6.0
100
AcDbArc
 50
90.0
 51
268.0008469234
  0
LINE
  5
80
330
1F
100
AcDbEntity
  8
0
  6
Continuous
 62
     7
370
    25
100
AcDbLine
 10
72.8183225994
 20
238.1681086621
 30
0.0
 11
85.9936237577
 21
238.1681086621
 31
0.0
  0
LINE
  5
81
330
1F
100
AcDbEntity
  8
0
  6
Continuous
 62
     7
370
    25
100
AcDbLine
 10
85.9936237577
 20
238.1681086621
 30
0.0
 11
85.9936237577
 21
252.7809663801
 31
0.0
  0
ELLIPSE
  5
82
330
1F
100
AcDbEntity
  8
0
  6
Continuous
 62
     7
370
    25
100
AcDbEllipse
 10
102.0155816312
 20
252.7809664216
 30
0.0
 11
-16.02195753596673
 21
0.0
 31
0.0
210
0.0
220
0.0
230
1.0
 40
0.9986295348
 41
5.061454830783568
 42
6.283185307179586
  0
LINE
  5
83
330
1F
100
AcDbEntity
  8
0
  6
Continuous
 62
     7
370
    25
100
AcDbLine
 10
96.5357492104
 20
267.8160475693
 30
0.0
 11
129.3614571039
 21
279.7472564629
 31
0.0
  0
LINE
  5
84
330
1F
100
AcDbEntity
  8
0
  6
Continuous
 62
     7
370
    25
100
AcDbLine
 10
205.6021479724
 20
279.7472564629
 30
0.0
 11
129.3614571039
 21
279.7472564629
 31
0.0
  0
LINE
  5
85
330
1F
100
AcDbEntity
  8
0
  6
Continuous
 62
     7
370
    25
100
AcDbLine
 10
238.4278563122
 20
267.8160475693
 30
0.0
 11
205.6021479724
 21
279.7472564629
 31
0.0
  0
ELLIPSE
  5
86
330
1F
100
AcDbEntity
  8
0
  6
Continuous
 62
     7
370
    25
100
AcDbEllipse
 10
232.9480267033
 20
252.7809664216
 30
0.0
 11
-16.02195753596675
 21
0.0
 31
7.105427357601002E-15
210
4.434806010220940E-16
220
0.0
230
1.0
 40
0.9986295348
 41
3.141592653589792
 42
4.363323129985837
  0
LINE
  5
87
330
1F
100
AcDbEntity
  8
0
  6
Continuous
 62
     7
370
    25
100
AcDbLine
 10
248.9699817649
 20
238.1681086621
 30
0.0
 11
248.9699817649
 21
252.7809663801
 31
0.0
  0
LINE
  5
88
330
1F
100
AcDbEntity
  8
0
  6
Continuous
 62
     7
370
    25
100
AcDbLine
 10
262.1452939863
 20
238.1681086621
 30
0.0
 11
248.9699817649
 21
238.1681086621
 31
0.0
  0
ARC
  5
89
330
1F
100
AcDbEntity
  8
0
  6
Continuous
 62
     7
370
    25
100
AcDbCircle
 10
262.1452872951
 20
232.1681084386
 30
0.0
 40
6.000000000000002
100
AcDbArc
 50
271.9991530766
 51
90.0
  0
ARC
  5
8A
330
1F
100
AcDbEntity
  8
0
  6
Continuous
 62
     7
370
    25
100
AcDbCircle
 10
262.459249812
 20
223.1735863536
 30
0.0
 40
3.000000000000057
100
AcDbArc
 50
91.9991530766
 51
180.0
  0
LINE
  5
8B
330
1F
100
AcDbEntity
  8
0
  6
Continuous
 62
     7
370
    25
100
AcDbLine
 10
259.4592547775
 20
223.1735861054
 30
0.0
 11
259.4592547775
 21
173.1626292816
 31
0.0
  0
ARC
  5
8C
330
1F
100
AcDbEntity
  8
0
  6
Continuous
 62
     7
370
    25
100
AcDbCircle
 10
262.459249812
 20
173.1626305236
 30
0.0
 40
3.000000000000057
100
AcDbArc
 50
180.0
 51
268.0008469234
  0
ARC
  5
8D
330
1F
100
AcDbEntity
  8
0
  6
Continuous
 62
     7
370
    25
100
AcDbCircle
 10
262.1452872951
 20
164.1681084386
 30
0.0
 40
6.00000000000003
100
AcDbArc
 50
270.0
 51
88.0008469234
  0
LINE
  5
8E
330
1F
100
AcDbEntity
  8
0
  6
Continuous
 62
     7
370
    25
100
AcDbLine
 10
248.9699817649
 20
158.1681048623
 30
0.0
 11
262.1452939863
 21
158.1681048623
 31
0.0
  0
LINE
  5
8F
330
1F
100
AcDbEntity
  8
0
  6
Continuous
 62
     7
370
    25
100
AcDbLine
 10
248.9699817649
 20
155.2259674421
 30
0.0
 11
248.9699817649
 21
158.1681048623
 31
0.0
  0
ELLIPSE
  5
90
330
1F
100
AcDbEntity
  8
0
  6
Continuous
 62
     7
370
    25
100
AcDbEllipse
 10
232.9480267033
 20
155.225964609
 30
0.0
 11
-16.02195753596675
 21
0.0
 31
7.105427357601002E-15
210
4.434806010220940E-16
220
0.0
230
1.0
 40
0.9986295348
 41
1.675516081914551
 42
3.141592653589792
  0
LINE
  5
91
330
1F
100
AcDbEntity
  8
0
  6
Continuous
 62
     7
370
    25
100
AcDbLine
 10
205.6021479724
 20
136.2676000348
 30
0.0
 11
234.6227784018
 21
139.3136134497
 31
0.0
  0
LINE
  5
92
330
1F
100
AcDbEntity
  8
0
  6
Continuous
 62
     7
370
    25
100
AcDbLine
 10
129.3614571039
 20
136.2676000348
 30
0.0
 11
205.6021479724
 21
136.2676000348
 31
0.0
  0
LINE
  5
93
330
1F
100
AcDbEntity
  8
0
  6
Continuous
 62
     7
370
    25
100
AcDbLine
 10
129.3614571039
 20
136.2676000348
 30
0.0
 11
100.3408307435
 21
139.3136134497
 31
0.0
  0
ELLIPSE
  5
94
330
1F
100
AcDbEntity
  8
0
  6
Continuous
 62
     7
370
    25
100
AcDbEllipse
 10
102.0155816312
 20
155.225964609
 30
0.0
 11
-16.02195753596673
 21
0.0
 31
0.0
210
0.0
220
0.0
230
1.0
 40
0.9986295348
 41
0.0
 42
1.46607657167524
  0
LINE
  5
95
330
1F
100
AcDbEntity
  8
0
  6
Continuous
 62
     7
370
    25
100
AcDbLine
 10
85.9936237577
 20
155.2259674421
 30
0.0
 11
85.9936237577
 21
158.1681048623
 31
0.0
  0
LINE
  5
96
330
1F
100
AcDbEntity
  8
0
  6
Continuous
 62
     7
370
    25
100
AcDbLine
 10
85.9936237577
 20
158.1681048623
 30
0.0
 11
72.8183225994
 21
158.1681048623
 31
0.0
  0
DIMENSION
  5
97
330
1F
100
AcDbEntity
  8
0
  6
Continuous
 62
     7
370
    18
100
AcDbDimension
  2
_D
 10
38.1236063231
 20
136.2676037526
 30
0.0
 11
38.1236063231
 21
204.3278856633
 31
0.0
 70
   160
  1
<>
 71
     2
 42
-1.0
  3
SLDDIMSTYLE0
100
AcDbAlignedDimension
 13
129.3614571092
 23
279.7472551285
 33
0.0
 14
129.3614571092
 24
136.2676037526
 34
0.0
 50
90.0
100
AcDbRotatedDimension
  0
DIMENSION
  5
A3
330
1F
100
AcDbEntity
  8
0
  6
Continuous
 62
     7
370
    18
100
AcDbDimension
  2
_D_1
 10
248.9699842393
 20
314.2016752054
 30
0.0
 11
165.6168820351
 21
314.2016752054
 31
0.0
 70
   160
  1
<>
 71
     2
 42
-1.0
  3
SLDDIMSTYLE0
100
AcDbAlignedDimension
 13
85.9936240952
 23
252.7809664216
 33
0.0
 14
248.9699842393
 24
252.7809664216
 34
0.0
 50
0.0
100
AcDbRotatedDimension
  0
DIMENSION
  5
AD
330
1F
100
AcDbEntity
  8
0
  6
Continuous
 62
     7
370
    18
100
AcDbDimension
  2
_D_2
 10
61.8782302355
 20
170.1644564953
 30
0.0
 11
61.8782302355
 21
163.7895268874
 31
0.0
 70
   160
  1
<>
 71
     2
 42
-1.0
  3
SLDDIMSTYLE1
100
AcDbAlignedDimension
 13
72.8183210394
 23
158.1681084386
 33
0.0
 14
72.6090126948
 24
170.1644564953
 34
0.0
 50
90.0
100
AcDbRotatedDimension
  0
DIMENSION
  5
BA
330
1F
100
AcDbEntity
  8
0
  6
Continuous
 62
     7
370
    18
100
AcDbDimension
  2
_D_3
 10
301.5412692994
 20
226.1717603819
 30
0.0
 11
301.5412692994
 21
197.918509214
 31
0.0
 70
   160
  1
<>
 71
     2
 42
-1.0
  3
SLDDIMSTYLE0
100
AcDbAlignedDimension
 13
262.3545956397
 23
170.1644564953
 33
0.0
 14
262.3545956397
 24
226.1717603819
 34
0.0
 50
90.0
100
AcDbRotatedDimension
  0
DIMENSION
  5
C4
330
1F
100
AcDbEntity
  8
0
  6
Continuous
 62
     7
370
    18
100
AcDbDimension
  2
_D_4
 10
205.6021512253
 20
117.072458568
 30
0.0
 11
166.8902460638
 21
117.072458568
 31
0.0
 70
   160
  1
<>
 71
     2
 42
-1.0
  3
SLDDIMSTYLE0
100
AcDbAlignedDimension
 13
129.3614571092
 23
136.2676037526
 33
0.0
 14
205.6021512253
 24
136.2676037526
 34
0.0
100
AcDbRotatedDimension
  0
DIMENSION
  5
CE
330
1F
100
AcDbEntity
  8
0
  6
Continuous
 62
     7
370
    18
100
AcDbDimension
  2
_D_5
 10
129.3614571092
 20
293.63198179
 30
0.0
 11
163.9434946331
 21
293.63198179
 31
0.0
 70
   160
  1
<>
 71
     2
 42
-1.0
  3
SLDDIMSTYLE0
100
AcDbAlignedDimension
 13
205.6021512253
 23
279.7472551285
 33
0.0
 14
129.3614571092
 24
279.7472551285
 34
0.0
100
AcDbRotatedDimension
  0
DIMENSION
  5
D8
330
1F
100
AcDbEntity
  8
0
  6
Continuous
 62
     7
370
    18
100
AcDbDimension
  2
_D_6
 10
85.9936240952
 20
121.8455760294
 30
0.0
 11
57.9849693162
 21
121.8455760294
 31
0.0
 70
   160
  1
<>
 71
     2
 42
-1.0
  3
SLDDIMSTYLE2
100
AcDbAlignedDimension
 13
72.8183210394
 23
158.1681084386
 33
0.0
 14
85.9936240952
 24
158.1681084386
 34
0.0
100
AcDbRotatedDimension
  0
DIMENSION
  5
E5
330
1F
100
AcDbEntity
  8
0
  6
Continuous
 62
     7
370
    18
100
AcDbDimension
  2
_D_7
 10
316.0189678792
 20
158.1681084386
 30
0.0
 11
316.0189678792
 21
202.2638837779
 31
0.0
 70
   160
  1
<>
 71
     2
 42
-1.0
  3
SLDDIMSTYLE3
100
AcDbAlignedDimension
 13
262.1452872951
 23
238.1681084386
 33
0.0
 14
262.1452872951
 24
158.1681084386
 34
0.0
 50
90.0
100
AcDbRotatedDimension
  0
MTEXT
  5
F1
330
1F
100
AcDbEntity
  8
0
  6
Continuous
 62
     7
370
     0
100
AcDbMText
 10
74.5767340704
 20
197.3925519205
 30
0.0
 40
3.2
 41
0.0
 71
     2
 72
     1
  1
UP  87°  R 0.4
  7
SLDTEXTSTYLE1
 11
-3.491481338843133E-15
 21
1.0
 31
0.0
 73
     1
 44
1.0
  0
MTEXT
  5
F2
330
1F
100
AcDbEntity
  8
0
  6
Continuous
 62
     7
370
     0
100
AcDbMText
 10
252.2946266906
 20
197.3925519205
 30
0.0
 40
3.2
 41
0.0
 71
     2
 72
     1
  1
UP  87°  R 0.4
  7
SLDTEXTSTYLE1
 11
-3.491481338843133E-15
 21
1.0
 31
0.0
 73
     1
 44
1.0
  0
MTEXT
  5
F4
330
1F
100
AcDbEntity
  8
0
  6
Continuous
 62
     7
370
     0
100
AcDbMText
 10
81.9640268778
 20
197.2714391283
 30
0.0
 40
3.2
 41
0.0
 71
     2
 72
     1
  1
DOWN  180°  R 0.05
  7
SLDTEXTSTYLE2
 11
-3.491481338843133E-15
 21
1.0
 31
0.0
 73
     1
 44
1.0
  0
MTEXT
  5
F5
330
1F
100
AcDbEntity
  8
0
  6
Continuous
 62
     7
370
     0
100
AcDbMText
 10
244.9073338832
 20
197.2714391283
 30
0.0
 40
3.2
 41
0.0
 71
     2
 72
     1
  1
DOWN  180°  R 0.05
  7
SLDTEXTSTYLE2
 11
-3.491481338843133E-15
 21
1.0
 31
0.0
 73
     1
 44
1.0
  0
LINE
  5
F6
330
1F
100
AcDbEntity
  8
0
  6
Continuous
 62
     7
370
    25
100
AcDbLine
 10
424.6724862944
 20
336.0504806902
 30
0.0
 11
354.640477922
 21
267.6970935883
 31
0.0
  0
LINE
  5
F7
330
1F
100
AcDbEntity
  8
0
  6
Continuous
 62
     7
370
    25
100
AcDbLine
 10
407.1152862755
 20
219.9937212845
 30
0.0
 11
407.3007605668
 21
219.9527332776
 31
0.0
  0
LINE
  5
F8
330
1F
100
AcDbEntity
  8
0
  6
Continuous
 62
     7
370
    25
100
AcDbLine
 10
358.7763620588
 20
233.1396774883
 30
0.0
 11
358.9618347027
 21
233.0798468734
 31
0.0
  0
LINE
  5
F9
330
1F
100
AcDbEntity
  8
0
  6
Continuous
 62
     7
370
    25
100
AcDbLine
 10
418.3020107213
 20
228.4745397157
 30
0.0
 11
455.5851342733
 21
264.8640112694
 31
0.0
  0
LINE
  5
FA
330
1F
100
AcDbEntity
  8
0
  6
Continuous
 62
     7
370
    25
100
AcDbLine
 10
384.4958150556
 20
248.9584015893
 30
0.0
 11
384.4958150556
 21
249.1384052991
 31
0.0
  0
LINE
  5
FB
330
1F
100
AcDbEntity
  8
0
  6
Continuous
 62
     7
370
    25
100
AcDbLine
 10
385.2364711236
 20
262.0296947076
 30
0.0
 11
370.4750245799
 21
247.6220703478
 31
0.0
  0
LINE
  5
FC
330
1F
100
AcDbEntity
  8
0
  6
Continuous
 62
     7
370
    25
100
AcDbLine
 10
370.186865577
 20
241.4856835493
 30
0.0
 11
375.185091073
 21
246.364104861
 31
0.0
  0
LINE
  5
FD
330
1F
100
AcDbEntity
  8
0
  6
Continuous
 62
     7
370
    25
100
AcDbLine
 10
377.5646554369
 20
248.6866326291
 30
0.0
 11
378.4983766971
 21
249.5979732036
 31
0.0
  0
LINE
  5
FE
330
1F
100
AcDbEntity
  8
0
  6
Continuous
 62
     7
370
    25
100
AcDbLine
 10
380.9689989688
 20
252.0093762812
 30
0.0
 11
388.4403163833
 21
259.3016111216
 31
0.0
  0
ELLIPSE
  5
FF
330
1F
100
AcDbEntity
  8
0
  6
Continuous
 62
     7
370
    25
100
AcDbEllipse
 10
374.8540317648
 20
252.1985071847
 30
0.0
 11
21.28010555567142
 21
-14.21691300197958
 31
0.0
210
0.0
220
0.0
230
1.0
 40
0.5552318774
 41
0.5957760966606145
 42
3.632648995130761
  0
LINE
  5
100
330
1F
100
AcDbEntity
  8
0
  6
Continuous
 62
     7
370
    25
100
AcDbLine
 10
396.7119341621
 20
247.1021894664
 30
0.0
 11
396.897406806
 21
247.0612027055
 31
0.0
  0
ELLIPSE
  5
101
330
1F
100
AcDbEntity
  8
0
  6
Continuous
 62
     7
370
    25
100
AcDbEllipse
 10
374.8540317648
 20
252.1985071847
 30
0.0
 11
21.12338122917276
 21
-14.0772608603827
 31
0.0
210
0.0
220
0.0
230
1.0
 40
0.5534852431
 41
0.5954875786761036
 42
3.632360477146247
  0
LINE
  5
102
330
1F
100
AcDbEntity
  8
0
  6
Continuous
 62
     7
370
    25
100
AcDbLine
 10
352.5516303932
 20
259.1040137899
 30
0.0
 11
352.3661577493
 21
259.1638420099
 31
0.0
  0
ELLIPSE
  5
103
330
1F
100
AcDbEntity
  8
0
  6
Continuous
 62
     7
370
    25
100
AcDbEllipse
 10
441.528895462
 20
317.2752181657
 30
0.0
 11
-15.35077872138675
 21
20.07751230923225
 31
0.0
210
0.0
220
0.0
230
1.0
 40
0.8076980518
 41
3.951825829659787
 42
6.380680115687262
  0
LINE
  5
104
330
1F
100
AcDbEntity
  8
0
  6
Continuous
 62
     7
370
    25
100
AcDbLine
 10
463.8587008663
 20
312.4174785017
 30
0.0
 11
396.897406806
 21
247.0612027055
 31
0.0
  0
LINE
  5
105
330
1F
100
AcDbEntity
  8
0
  6
Continuous
 62
     7
370
    25
100
AcDbLine
 10
364.2153949235
 20
270.4882055407
 30
0.0
 11
352.5516303932
 21
259.1040137899
 31
0.0
  0
LINE
  5
106
330
1F
100
AcDbEntity
  8
0
  6
Continuous
 62
     7
370
    25
100
AcDbLine
 10
418.3095640263
 20
228.3327777089
 30
0.0
 11
418.2975300825
 21
228.5586077235
 31
0.0
  0
LINE
  5
107
330
1F
100
AcDbEntity
  8
0
  6
Continuous
 62
     7
370
    25
100
AcDbLine
 10
418.3095640263
 20
228.3327777089
 30
0.0
 11
411.4898107102
 21
221.6764894032
 31
0.0
  0
ELLIPSE
  5
108
330
1F
100
AcDbEntity
  8
0
  6
Continuous
 62
     7
370
    25
100
AcDbEllipse
 10
410.7482051348
 20
235.5927190191
 30
0.0
 11
3.445589921071189
 21
15.64039348949851
 31
0.0
210
0.0
220
0.0
230
1.0
 40
0.4262055876
 41
2.495920560915023
 42
3.717651037311074
  0
LINE
  5
109
330
1F
100
AcDbEntity
  8
0
  6
Continuous
 62
     7
370
    25
100
AcDbLine
 10
403.9850456407
 20
223.9844733127
 30
0.0
 11
396.897406806
 21
247.0612027055
 31
0.0
  0
LINE
  5
10A
330
1F
100
AcDbEntity
  8
0
  6
Continuous
 62
     7
370
    25
100
AcDbLine
 10
463.8587008663
 20
312.4174785017
 30
0.0
 11
463.7804152183
 21
285.8234777913
 31
0.0
  0
ELLIPSE
  5
10B
330
1F
100
AcDbEntity
  8
0
  6
Continuous
 62
     7
370
    25
100
AcDbEllipse
 10
456.2766746478
 20
280.0299010036
 30
0.0
 11
3.445589921071189
 21
15.64039348949854
 31
0.0
210
0.0
220
0.0
230
1.0
 40
0.4262055876
 41
3.717651037311078
 42
5.183727608986295
  0
LINE
  5
10C
330
1F
100
AcDbEntity
  8
0
  6
Continuous
 62
     7
370
    25
100
AcDbLine
 10
457.0182788817
 20
266.1136700782
 30
0.0
 11
455.6451969141
 21
264.7734999841
 31
0.0
  0
LINE
  5
10D
330
1F
100
AcDbEntity
  8
0
  6
Continuous
 62
     7
370
    25
100
AcDbLine
 10
455.6331629703
 20
264.9993299987
 30
0.0
 11
455.6451969141
 21
264.7734999841
 31
0.0
  0
LINE
  5
10E
330
1F
100
AcDbEntity
  8
0
  6
Continuous
 62
     7
370
    25
100
AcDbLine
 10
418.2975300825
 20
228.5586077235
 30
0.0
 11
455.6331629703
 21
264.9993299987
 31
0.0
  0
LINE
  5
10F
330
1F
100
AcDbEntity
  8
0
  6
Continuous
 62
     7
370
    25
100
AcDbLine
 10
403.7995729968
 20
224.0254608719
 30
0.0
 11
403.9850456407
 21
223.9844733127
 31
0.0
  0
LINE
  5
110
330
1F
100
AcDbEntity
  8
0
  6
Continuous
 62
     7
370
    25
100
AcDbLine
 10
403.7995729968
 20
224.0254608719
 30
0.0
 11
396.7119341621
 21
247.1021894664
 31
0.0
  0
LINE
  5
111
330
1F
100
AcDbEntity
  8
0
  6
Continuous
 62
     7
370
    25
100
AcDbLine
 10
356.4149992647
 20
236.9129926149
 30
0.0
 11
352.3661577493
 21
259.1638420099
 31
0.0
  0
LINE
  5
112
330
1F
100
AcDbEntity
  8
0
  6
Continuous
 62
     7
370
    25
100
AcDbLine
 10
356.6004719086
 20
236.8531651933
 30
0.0
 11
352.5516303932
 21
259.1040137899
 31
0.0
  0
LINE
  5
113
330
1F
100
AcDbEntity
  8
0
  6
Continuous
 62
     7
370
    25
100
AcDbLine
 10
356.6004719086
 20
236.8531651933
 30
0.0
 11
356.4149992647
 21
236.9129926149
 31
0.0
  0
ELLIPSE
  5
114
330
1F
100
AcDbEntity
  8
0
  6
Continuous
 62
     7
370
    25
100
AcDbEllipse
 10
363.8709191302
 20
248.3235401557
 30
0.0
 11
4.907903287852093
 21
15.24407297701555
 31
0.0
210
0.0
220
0.0
230
1.0
 40
0.3723614463
 41
2.533797067132477
 42
3.755527543528542
  0
LINE
  5
115
330
1F
100
AcDbEntity
  8
0
  6
Continuous
 62
     7
370
    25
100
AcDbLine
 10
369.9611002252
 20
241.6859905099
 30
0.0
 11
371.4730231782
 21
269.2353796228
 31
0.0
  0
LINE
  5
116
330
1F
100
AcDbEntity
  8
0
  6
Continuous
 62
     7
370
    25
100
AcDbLine
 10
369.949290322
 20
241.4707982845
 30
0.0
 11
369.9611002252
 21
241.6859905099
 31
0.0
  0
LINE
  5
117
330
1F
100
AcDbEntity
  8
0
  6
Continuous
 62
     7
370
    25
100
AcDbLine
 10
369.9490662815
 20
241.4667048246
 30
0.0
 11
369.949290322
 21
241.4707982845
 31
0.0
  0
LINE
  5
118
330
1F
100
AcDbEntity
  8
0
  6
Continuous
 62
     7
370
    25
100
AcDbLine
 10
369.9490662815
 20
241.4667048246
 30
0.0
 11
363.1293129654
 21
234.8104165189
 31
0.0
  0
ELLIPSE
  5
119
330
1F
100
AcDbEntity
  8
0
  6
Continuous
 62
     7
370
    25
100
AcDbEllipse
 10
410.5627318627
 20
235.6337059395
 30
0.0
 11
3.445589921071189
 21
15.64039348949854
 31
0.0
210
0.0
220
0.0
230
1.0
 40
0.4262055876
 41
2.495920560915024
 42
3.14135350134593
  0
ELLIPSE
  5
11A
330
1F
100
AcDbEntity
  8
0
  6
Continuous
 62
     7
370
    25
100
AcDbEllipse
 10
363.6854458582
 20
248.3833685576
 30
0.0
 11
4.907903287852093
 21
15.24407297701555
 31
0.0
210
0.0
220
0.0
230
1.0
 40
0.3723614463
 41
2.533797067132483
 42
3.141382388155833
  0
LINE
  5
11B
330
1F
100
AcDbEntity
  8
0
  6
Continuous
 62
     7
370
    25
100
AcDbLine
 10
370.0560716672
 20
241.7786855487
 30
0.0
 11
369.9611002252
 21
241.6859905099
 31
0.0
  0
ARC
  5
11C
330
1F
100
AcDbEntity
  8
0
  6
Continuous
 62
     7
370
    25
100
AcDbCircle
 10
455.4639940069
 20
264.9831903834
 30
0.0
 40
0.1699371217684351
100
AcDbArc
 50
315.4675580671
 51
5.4498257629
  0
ARC
  5
11D
330
1F
100
AcDbEntity
  8
0
  6
Continuous
 62
     7
370
    25
100
AcDbCircle
 10
378.4770287017
 20
255.0387410255
 30
0.0
 40
9.070365781975775
100
AcDbArc
 50
252.1428165959
 51
305.9521378051
  0
LINE
  5
11E
330
1F
100
AcDbEntity
  8
0
  6
Continuous
 62
     7
370
    25
100
AcDbLine
 10
383.8023241955
 20
247.6962099004
 30
0.0
 11
383.8023241955
 21
247.5162061906
 31
0.0
  0
ARC
  5
11F
330
1F
100
AcDbEntity
  8
0
  6
Continuous
 62
     7
370
    25
100
AcDbCircle
 10
378.4277591185
 20
255.1681535948
 30
0.0
 40
9.350842146128445
100
AcDbArc
 50
253.0115659039
 51
305.0833884971
  0
LINE
  5
120
330
1F
100
AcDbEntity
  8
0
  6
Continuous
 62
     7
370
    25
100
AcDbLine
 10
375.6956426267
 20
246.2253470825
 30
0.0
 11
375.6956426267
 21
246.4053507922
 31
0.0
  0
LWPOLYLINE
  5
121
330
1F
100
AcDbEntity
  8
0
  6
Continuous
 62
     7
370
    25
100
AcDbPolyline
 90
        9
 70
   128
 43
0.0
 10
381.4793994837
 20
251.819484324
 10
381.010166482
 20
251.9907200063
 10
380.612993193
 20
252.2049241975
 10
380.3024765211
 20
252.4542237475
 10
380.0900249809
 20
252.7294589018
 10
379.9834454091
 20
253.0205158195
 10
379.9866530344
 20
253.3166993255
 10
380.0995348806
 20
253.607125818
 10
380.3179375853
 20
253.8811224962
  0
LWPOLYLINE
  5
122
330
1F
100
AcDbEntity
  8
0
  6
Continuous
 62
     7
370
    25
100
AcDbPolyline
 90
       11
 70
   128
 43
0.0
 10
383.8023241955
 20
247.6962099004
 10
384.1682467073
 20
248.1313093649
 10
384.4006200902
 20
248.5901198682
 10
384.4939732094
 20
249.0618397194
 10
384.4461072325
 20
249.5353614571
 10
384.2581485807
 20
249.9995373131
 10
383.9345233137
 20
250.4434389099
 10
383.4828514843
 20
250.8566159309
 10
382.9137666796
 20
251.2293393269
 10
382.2406659661
 20
251.5528341513
 10
381.4793994837
 20
251.819484324
  0
LINE
  5
123
330
1F
100
AcDbEntity
  8
0
  6
Continuous
 62
     7
370
    25
100
AcDbLine
 10
370.9010953792
 20
247.7084059994
 30
0.0
 11
375.6956426267
 21
246.4053507922
 31
0.0
  0
LINE
  5
124
330
1F
100
AcDbEntity
  8
0
  6
Continuous
 62
     7
370
    25
100
AcDbLine
 10
370.9010953792
 20
247.7084059994
 30
0.0
 11
385.4244665679
 21
261.8836615141
 31
0.0
  0
LINE
  5
125
330
1F
100
AcDbEntity
  8
0
  6
Continuous
 62
     7
370
    25
100
AcDbLine
 10
380.3179375853
 20
253.8811224962
 30
0.0
 11
387.1040822752
 21
260.5046077524
 31
0.0
  0
LWPOLYLINE
  5
126
330
1F
100
AcDbEntity
  8
0
  6
Continuous
 62
     7
370
    25
100
AcDbPolyline
 90
       22
 70
   128
 43
0.0
 10
379.4051698993
 20
249.706547457
 10
379.7411030771
 20
249.5790275325
 10
379.9891334618
 20
249.4061739701
 10
380.1272196704
 20
249.2033468313
 10
380.1430936258
 20
248.9885672286
 10
380.035344928
 20
248.7809198853
 10
379.8135477938
 20
248.5988557831
 10
379.4974088555
 20
248.458550485
 10
379.1150194195
 20
248.3724716798
 10
378.7003548666
 20
248.3482684855
 10
378.290262416
 20
248.3880905043
 10
377.9211786417
 20
248.4883995656
 10
377.6258974821
 20
248.6402829797
 10
377.4306593595
 20
248.8302446527
 10
377.3528085148
 20
249.0414069043
 10
377.3992652078
 20
249.2550060582
 10
377.5658989413
 20
249.4520623907
 10
377.837905618
 20
249.6150679349
 10
378.1911154368
 20
249.7295384763
 10
378.5941448596
 20
249.7853019812
 10
379.011180551
 20
249.7774048348
 10
379.4051698993
 20
249.706547457
  0
LINE
  5
127
330
1F
100
AcDbEntity
  8
0
  6
Continuous
 62
     7
370
    25
100
AcDbLine
 10
370.9010953792
 20
247.5284022896
 30
0.0
 11
370.9010953792
 21
247.7084059994
 31
0.0
  0
LINE
  5
128
330
1F
100
AcDbEntity
  8
0
  6
Continuous
 62
     7
370
    25
100
AcDbLine
 10
370.9010953792
 20
247.5284022896
 30
0.0
 11
375.6956426267
 21
246.2253470825
 31
0.0
  0
ARC
  5
129
330
1F
100
AcDbEntity
  8
0
  6
Continuous
 62
     7
370
    25
100
AcDbCircle
 10
382.509928675
 20
249.0254975486
 30
0.0
 40
1.987019522931836
100
AcDbArc
 50
310.573210357
 51
358.0649177425
  0
ARC
  5
12A
330
1F
100
AcDbEntity
  8
0
  6
Continuous
 62
     7
370
    25
100
AcDbCircle
 10
370.7580702942
 20
247.3388594947
 30
0.0
 40
0.3962584939906442
100
AcDbArc
 50
68.8421348048
 51
177.0401856011
  0
LINE
  5
12B
330
1F
100
AcDbEntity
  8
0
  6
Continuous
 62
     7
370
    25
100
AcDbLine
 10
370.5478130545
 20
247.2994930918
 30
0.0
 11
370.3623404106
 21
247.3593205135
 31
0.0
  0
ARC
  5
12C
330
1F
100
AcDbEntity
  8
0
  6
Continuous
 62
     7
370
    25
100
AcDbCircle
 10
370.8073088284
 20
247.286075722
 30
0.0
 40
0.2598424185785736
100
AcDbArc
 50
68.8422938996
 51
177.0401264489
  0
LINE
  5
12D
330
1F
100
AcDbEntity
  8
0
  6
Continuous
 62
     7
370
    25
100
AcDbLine
 10
370.5478130545
 20
247.2994930918
 30
0.0
 11
370.7957396146
 21
247.541477015
 31
0.0
  0
LINE
  5
12E
330
1F
100
AcDbEntity
  8
0
  6
Continuous
 62
     7
370
    25
100
AcDbLine
 10
370.0494216301
 20
241.6575033959
 30
0.0
 11
370.234894274
 21
241.5976727811
 31
0.0
  0
LINE
  5
12F
330
1F
100
AcDbEntity
  8
0
  6
Continuous
 62
     7
370
    25
100
AcDbLine
 10
370.0494216301
 20
241.6575033959
 30
0.0
 11
370.3623404106
 21
247.3593205135
 31
0.0
  0
LINE
  5
130
330
1F
100
AcDbEntity
  8
0
  6
Continuous
 62
     7
370
    25
100
AcDbLine
 10
370.234894274
 20
241.5976727811
 30
0.0
 11
370.5478130545
 21
247.2994930918
 31
0.0
  0
LINE
  5
131
330
1F
100
AcDbEntity
  8
0
  6
Continuous
 62
     7
370
    25
100
AcDbLine
 10
388.4063034266
 20
259.3335251843
 30
0.0
 11
380.9240051673
 21
252.0305727027
 31
0.0
  0
LINE
  5
132
330
1F
100
AcDbEntity
  8
0
  6
Continuous
 62
     7
370
    25
100
AcDbLine
 10
378.4232351219
 20
249.5897444738
 30
0.0
 11
377.5294046142
 21
248.7173384966
 31
0.0
  0
LINE
  5
133
330
1F
100
AcDbEntity
  8
0
  6
Continuous
 62
     7
370
    25
100
AcDbLine
 10
375.1329082606
 20
246.3782845875
 30
0.0
 11
370.234894274
 21
241.5976727811
 31
0.0
  0
ARC
  5
134
330
1F
100
AcDbEntity
  8
0
  6
Continuous
 62
     7
370
    25
100
AcDbCircle
 10
379.3160371766
 20
248.6388912087
 30
0.0
 40
0.8921164001967816
100
AcDbArc
 50
22.3988712351
 51
84.2659234627
  0
LWPOLYLINE
  5
135
330
1F
100
AcDbEntity
  8
0
  6
Continuous
 62
     7
370
    25
100
AcDbPolyline
 90
        8
 70
   128
 43
0.0
 10
377.3627441631
 20
248.9788340288
 10
377.3992652078
 20
249.0750023484
 10
377.5658989413
 20
249.272058681
 10
377.837905618
 20
249.4350642252
 10
378.1911154368
 20
249.5495347666
 10
378.5941448596
 20
249.6052982715
 10
379.011180551
 20
249.597401125
 10
379.4051698993
 20
249.5265437473
  0
LWPOLYLINE
  5
136
330
1F
100
AcDbEntity
  8
0
  6
Continuous
 62
     7
370
    25
100
AcDbPolyline
 90
        9
 70
   128
 43
0.0
 10
369.949290322
 20
241.4707982845
 10
369.9994358729
 20
241.450537528
 10
370.0498631218
 20
241.440993218
 10
370.0981306856
 20
241.4426276987
 10
370.141899317
 20
241.4553614512
 10
370.1790488675
 20
241.4785732376
 10
370.2077787757
 20
241.5111462338
 10
370.2267003197
 20
241.5514972417
 10
370.234894274
 20
241.5976727811
  0
LWPOLYLINE
  5
137
330
1F
100
AcDbEntity
  8
0
  6
Continuous
 62
     7
370
    25
100
AcDbPolyline
 90
        9
 70
   128
 43
0.0
 10
369.9611002252
 20
241.6859905099
 10
369.963576203
 20
241.6687704452
 10
369.9723978004
 20
241.6520003442
 10
369.9862240687
 20
241.6382383744
 10
370.0029463909
 20
241.6295775746
 10
370.0200228949
 20
241.6273346377
 10
370.0348507563
 20
241.6318561243
 10
370.0451747434
 20
241.6424489406
 10
370.0494216301
 20
241.6575033959
  0
LINE
  5
138
330
1F
100
AcDbEntity
  8
0
  6
Continuous
 62
     7
370
    25
100
AcDbLine
 10
380.3179375853
 20
253.8811224962
 30
0.0
 11
380.3179375853
 21
253.7011187865
 31
0.0
  0
ARC
  5
139
330
1F
100
AcDbEntity
  8
0
  6
Continuous
 62
     7
370
    25
100
AcDbCircle
 10
380.9912955669
 20
252.9285612027
 30
0.0
 40
1.024820077631709
100
AcDbArc
 50
131.0752714575
 51
172.0657624423
  0
LINE
  5
13A
330
1F
100
AcDbEntity
  8
0
  6
Continuous
 62
     7
370
    25
100
AcDbLine
 10
380.3179375853
 20
253.7011187865
 30
0.0
 11
387.2018163141
 21
260.4199954608
 31
0.0
  0
LINE
  5
13B
330
1F
100
AcDbEntity
  8
0
  6
Continuous
 62
     7
370
    25
100
AcDbLine
 10
455.5206089421
 20
264.8010314087
 30
0.0
 11
455.6451969141
 21
264.7734999841
 31
0.0
  0
ELLIPSE
  5
13C
330
1F
100
AcDbEntity
  8
0
  6
HIDDEN
 62
     7
370
    18
100
AcDbEllipse
 10
441.528895462
 20
317.2752181657
 30
0.0
 11
-15.35077872138675
 21
20.07751230923225
 31
0.0
210
0.0
220
0.0
230
1.0
 40
0.8076980518
 41
0.0974948085076765
 42
0.7055134209503207
  0
LINE
  5
13D
330
1F
100
AcDbEntity
  8
0
  6
HIDDEN
 62
     7
370
    18
100
AcDbLine
 10
419.3274518096
 20
324.5201178061
 30
0.0
 11
352.3661577493
 21
259.1638420099
 31
0.0
  0
LINE
  5
13E
330
1F
100
AcDbEntity
  8
0
  6
HIDDEN
 62
     7
370
    18
100
AcDbLine
 10
416.1167307164
 20
266.0418657849
 30
0.0
 11
396.7119341621
 21
247.1021894664
 31
0.0
  0
LWPOLYLINE
  5
13F
330
1F
100
AcDbEntity
  8
0
  6
HIDDEN
 62
     7
370
    18
100
AcDbPolyline
 90
       44
 70
   128
 43
0.0
 10
371.9564269475
 20
278.0436901084
 10
372.0931279364
 20
279.5138465514
 10
372.3392348539
 20
280.9411620306
 10
372.6935204191
 20
282.318520466
 10
373.1542186651
 20
283.6390540635
 10
373.7190331761
 20
284.8961786965
 10
374.385145324
 20
286.0836281897
 10
375.1492373316
 20
287.1954795835
 10
376.0074972145
 20
288.2261917059
 10
376.9556467862
 20
289.1706247037
 10
377.9889597791
 20
290.024068646
 10
379.1022816129
 20
290.7822716804
 10
380.2900639887
 20
291.441450588
 10
381.546383834
 20
291.9983183655
 10
382.8649770732
 20
292.4501021886
 10
384.2392699279
 20
292.7945460822
 10
385.662410216
 20
293.0299343451
 10
387.1273023586
 20
293.1550916162
 10
388.6266427979
 20
293.1693971972
 10
390.1529566509
 20
293.0727766877
 10
391.6986331277
 20
292.865713115
 10
393.255966252
 20
292.5492374637
 10
394.8171914119
 20
292.1249299182
 10
396.3745245362
 20
291.5949060224
 10
397.920201013
 20
290.961806102
 10
399.446514866
 20
290.2287878109
 10
400.9458553052
 20
289.3995050211
 10
402.4107474478
 20
288.478095159
 10
403.833887736
 20
287.4691488238
 10
405.2081805906
 20
286.3776982295
 10
406.5267738299
 20
285.2091836296
 10
407.7830936752
 20
283.9694342236
 10
408.970876051
 20
282.6646277187
 10
410.0841978847
 20
281.3012706467
 10
411.1175108777
 20
279.8861620438
 10
412.0656604494
 20
278.4263555716
 10
412.9239203323
 20
276.9291301574
 10
413.6880123399
 20
275.4019510934
 10
414.3541244878
 20
273.8524315827
 10
414.9189389987
 20
272.2882979865
 10
415.3796372447
 20
270.7173485656
 10
415.7339228099
 20
269.1474156799
 10
415.9800297275
 20
267.5863270271
 10
416.1167307164
 20
266.0418657849
  0
LINE
  5
140
330
1F
100
AcDbEntity
  8
0
  6
HIDDEN
 62
     7
370
    18
100
AcDbLine
 10
371.9564269475
 20
278.0436901084
 30
0.0
 11
364.2153949235
 21
270.4882055407
 31
0.0
  0
LINE
  5
141
330
1F
100
AcDbEntity
  8
0
  6
HIDDEN
 62
     7
370
    18
100
AcDbLine
 10
453.4523636042
 20
302.4825880601
 30
0.0
 11
416.1167307164
 21
266.0418657849
 31
0.0
  0
LWPOLYLINE
  5
142
330
1F
100
AcDbEntity
  8
0
  6
HIDDEN
 62
     7
370
    18
100
AcDbPolyline
 90
       44
 70
   128
 43
0.0
 10
409.2920598352
 20
314.4844123836
 10
409.4287608241
 20
315.9545688266
 10
409.6748677417
 20
317.3818843058
 10
410.0291533069
 20
318.7592427412
 10
410.4898515529
 20
320.0797763387
 10
411.0546660639
 20
321.3369009717
 10
411.7207782118
 20
322.5243504649
 10
412.4848702193
 20
323.6362018587
 10
413.3431301022
 20
324.6669139811
 10
414.2912796739
 20
325.6113469789
 10
415.3245926669
 20
326.4647909212
 10
416.4379145007
 20
327.2229939556
 10
417.6256968764
 20
327.8821728632
 10
418.8820167217
 20
328.4390406407
 10
420.200609961
 20
328.8908244638
 10
421.5749028157
 20
329.2352683574
 10
422.9980431038
 20
329.4706566203
 10
424.4629352464
 20
329.5958138914
 10
425.9622756856
 20
329.6101194724
 10
427.4885895386
 20
329.5134989629
 10
429.0342660154
 20
329.3064353902
 10
430.5915991397
 20
328.9899597389
 10
432.1528242997
 20
328.5656521934
 10
433.710157424
 20
328.0356282975
 10
435.2558339007
 20
327.4025283772
 10
436.7821477537
 20
326.6695100861
 10
438.281488193
 20
325.8402272963
 10
439.7463803356
 20
324.9188174341
 10
441.1695206237
 20
323.909871099
 10
442.5438134784
 20
322.8184205047
 10
443.8624067177
 20
321.6499059048
 10
445.1187265629
 20
320.4101564988
 10
446.3065089387
 20
319.1053499939
 10
447.4198307725
 20
317.7419929219
 10
448.4531437655
 20
316.326884319
 10
449.4012933372
 20
314.8670778468
 10
450.25955322
 20
313.3698524326
 10
451.0236452276
 20
311.8426733686
 10
451.6897573755
 20
310.2931538579
 10
452.2545718865
 20
308.7290202617
 10
452.7152701325
 20
307.1580708408
 10
453.0695556977
 20
305.5881379551
 10
453.3156626153
 20
304.0270493023
 10
453.4523636042
 20
302.4825880601
  0
LINE
  5
143
330
1F
100
AcDbEntity
  8
0
  6
HIDDEN
 62
     7
370
    18
100
AcDbLine
 10
409.2920598352
 20
314.4844123836
 30
0.0
 11
371.9564269475
 21
278.0436901084
 31
0.0
  0
LINE
  5
144
330
1F
100
AcDbEntity
  8
0
  6
HIDDEN
 62
     7
370
    18
100
AcDbLine
 10
371.4730231782
 20
269.2353796228
 30
0.0
 11
371.9564269475
 21
278.0436901084
 31
0.0
  0
LINE
  5
145
330
1F
100
AcDbEntity
  8
0
  6
HIDDEN
 62
     7
370
    18
100
AcDbLine
 10
411.3043380663
 20
221.7174769624
 30
0.0
 11
411.4898107102
 21
221.6764894032
 31
0.0
  0
ELLIPSE
  5
146
330
1F
100
AcDbEntity
  8
0
  6
HIDDEN
 62
     7
370
    18
100
AcDbEllipse
 10
410.5627318627
 20
235.6337059395
 30
0.0
 11
3.445589921071189
 21
15.64039348949854
 31
0.0
210
0.0
220
0.0
230
1.0
 40
0.4262055876
 41
3.14135350134593
 42
3.717651037311075
  0
LINE
  5
147
330
1F
100
AcDbEntity
  8
0
  6
HIDDEN
 62
     7
370
    18
100
AcDbLine
 10
418.1120574386
 20
228.5995920895
 30
0.0
 11
416.1167307164
 21
266.0418657849
 31
0.0
  0
LINE
  5
148
330
1F
100
AcDbEntity
  8
0
  6
HIDDEN
 62
     7
370
    18
100
AcDbLine
 10
418.1240913824
 20
228.3737652681
 30
0.0
 11
411.3043380663
 21
221.7174769624
 31
0.0
  0
LINE
  5
149
330
1F
100
AcDbEntity
  8
0
  6
HIDDEN
 62
     7
370
    18
100
AcDbLine
 10
363.1293129654
 20
234.8104165189
 30
0.0
 11
362.9438403215
 21
234.8702439405
 31
0.0
  0
ELLIPSE
  5
14A
330
1F
100
AcDbEntity
  8
0
  6
HIDDEN
 62
     7
370
    18
100
AcDbEllipse
 10
363.6854458582
 20
248.3833685576
 30
0.0
 11
4.907903287852093
 21
15.24407297701555
 31
0.0
210
0.0
220
0.0
230
1.0
 40
0.3723614463
 41
3.141382388155833
 42
3.755527543528542
  0
ARC
  5
14B
330
1F
100
AcDbEntity
  8
0
  6
HIDDEN
 62
     7
370
    18
100
AcDbCircle
 10
416.9680029599
 20
234.4146405493
 30
0.0
 40
0.7467307090123136
100
AcDbArc
 50
5.8707016188
 51
74.1410381854
  0
LINE
  5
14C
330
1F
100
AcDbEntity
  8
0
  6
HIDDEN
 62
     7
370
    18
100
AcDbLine
 10
454.5076951724
 20
271.5736709365
 30
0.0
 11
417.1720622847
 21
235.1329486613
 31
0.0
  0
ARC
  5
14D
330
1F
100
AcDbEntity
  8
0
  6
HIDDEN
 62
     7
370
    18
100
AcDbCircle
 10
454.3036358477
 20
270.8553628245
 30
0.0
 40
0.746730709012547
100
AcDbArc
 50
5.8707016188
 51
74.1410381854
  0
LINE
  5
14E
330
1F
100
AcDbEntity
  8
0
  6
HIDDEN
 62
     7
370
    18
100
AcDbLine
 10
455.0464501411
 20
270.9317413379
 30
0.0
 11
417.7108172533
 21
234.4910190627
 31
0.0
  0
LINE
  5
14F
330
1F
100
AcDbEntity
  8
0
  6
HIDDEN
 62
     7
370
    18
100
AcDbLine
 10
417.5253446094
 20
234.5320066219
 30
0.0
 11
417.7108172533
 21
234.4910190627
 31
0.0
  0
ARC
  5
150
330
1F
100
AcDbEntity
  8
0
  6
HIDDEN
 62
     7
370
    18
100
AcDbCircle
 10
417.0382513671
 20
234.4819216277
 30
0.0
 40
0.4896614476445192
100
AcDbArc
 50
5.8707630234
 51
74.140918136
  0
LINE
  5
151
330
1F
100
AcDbEntity
  8
0
  6
HIDDEN
 62
     7
370
    18
100
AcDbLine
 10
417.1720622847
 20
234.9529449516
 30
0.0
 11
417.1720622847
 21
235.1329486613
 31
0.0
  0
LINE
  5
152
330
1F
100
AcDbEntity
  8
0
  6
HIDDEN
 62
     7
370
    18
100
AcDbLine
 10
417.7108172533
 20
234.4910190627
 30
0.0
 11
418.0237360338
 21
228.6191127062
 31
0.0
  0
LINE
  5
153
330
1F
100
AcDbEntity
  8
0
  6
HIDDEN
 62
     7
370
    18
100
AcDbLine
 10
418.0237360338
 20
228.6191127062
 30
0.0
 11
417.8382633899
 21
228.6600970722
 31
0.0
  0
LINE
  5
154
330
1F
100
AcDbEntity
  8
0
  6
HIDDEN
 62
     7
370
    18
100
AcDbLine
 10
417.5253446094
 20
234.5320066219
 30
0.0
 11
417.8382633899
 21
228.6600970722
 31
0.0
  0
LINE
  5
155
330
1F
100
AcDbEntity
  8
0
  6
HIDDEN
 62
     7
370
    18
100
AcDbLine
 10
455.3593689215
 20
265.0598349814
 30
0.0
 11
455.0464501411
 21
270.9317413379
 31
0.0
  0
LINE
  5
156
330
1F
100
AcDbEntity
  8
0
  6
HIDDEN
 62
     7
370
    18
100
AcDbLine
 10
418.0237360338
 20
228.6191127062
 30
0.0
 11
455.3593689215
 21
265.0598349814
 31
0.0
  0
LINE
  5
157
330
1F
100
AcDbEntity
  8
0
  6
HIDDEN
 62
     7
370
    18
100
AcDbLine
 10
412.3775150372
 20
236.2560001587
 30
0.0
 11
417.1720622847
 21
234.9529449516
 31
0.0
  0
LINE
  5
158
330
1F
100
AcDbEntity
  8
0
  6
HIDDEN
 62
     7
370
    18
100
AcDbLine
 10
412.3775150372
 20
236.4360038685
 30
0.0
 11
412.3775150372
 21
236.2560001587
 31
0.0
  0
LINE
  5
159
330
1F
100
AcDbEntity
  8
0
  6
HIDDEN
 62
     7
370
    18
100
AcDbLine
 10
412.3775150372
 20
236.4360038685
 30
0.0
 11
417.1720622847
 21
235.1329486613
 31
0.0
  0
LWPOLYLINE
  5
15A
330
1F
100
AcDbEntity
  8
0
  6
HIDDEN
 62
     7
370
    18
100
AcDbPolyline
 90
       12
 70
   128
 43
0.0
 10
409.8711790535
 20
240.6112537379
 10
409.5266854261
 20
240.207619824
 10
409.2972302606
 20
239.7828439348
 10
409.1874839936
 20
239.3455731233
 10
409.1996812035
 20
238.9047091493
 10
409.3335724748
 20
238.4692268575
 10
409.5864345136
 20
238.0479908249
 10
409.9531175318
 20
237.6495765226
 10
410.4261585694
 20
237.2820941666
 10
410.9959257691
 20
236.9530253088
 10
411.6508221825
 20
236.6690681958
 10
412.3775150372
 20
236.4360038685
  0
ARC
  5
15B
330
1F
100
AcDbEntity
  8
0
  6
HIDDEN
 62
     7
370
    18
100
AcDbCircle
 10
415.1983114798
 20
233.1973844209
 30
0.0
 40
9.129282454691264
100
AcDbArc
 50
73.5008477729
 51
125.6986080162
  0
ARC
  5
15C
330
1F
100
AcDbEntity
  8
0
  6
HIDDEN
 62
     7
370
    18
100
AcDbCircle
 10
419.0815918758
 20
246.3617977148
 30
0.0
 40
4.595953813040619
100
AcDbArc
 50
253.6919159599
 51
305.507554454
  0
LINE
  5
15D
330
1F
100
AcDbEntity
  8
0
  6
HIDDEN
 62
     7
370
    18
100
AcDbLine
 10
445.090852097
 20
265.4009535912
 30
0.0
 11
421.7509691514
 21
242.6205123191
 31
0.0
  0
LWPOLYLINE
  5
15E
330
1F
100
AcDbEntity
  8
0
  6
HIDDEN
 62
     7
370
    18
100
AcDbPolyline
 90
        9
 70
   128
 43
0.0
 10
443.9293893293
 20
267.462590915
 10
444.3986214618
 20
267.2913543843
 10
444.7957973587
 20
267.0771527384
 10
445.106312292
 20
266.8278514914
 10
445.3187629629
 20
266.5526154887
 10
445.4253425347
 20
266.261558571
 10
445.422136648
 20
265.9653767619
 10
445.3092530632
 20
265.6749485726
 10
445.090852097
 20
265.4009535912
  0
LWPOLYLINE
  5
15F
330
1F
100
AcDbEntity
  8
0
  6
HIDDEN
 62
     7
370
    18
100
AcDbPolyline
 90
       11
 70
   128
 43
0.0
 10
441.6064646176
 20
271.5858653386
 10
441.2405438443
 20
271.150767571
 10
441.0081669843
 20
270.6919536738
 10
440.9148147344
 20
270.2202346712
 10
440.9626833191
 20
269.7467154788
 10
441.1506402324
 20
269.2825379259
 10
441.4742646301
 20
268.8386354806
 10
441.9259390673
 20
268.4254610049
 10
442.4950221335
 20
268.0527359121
 10
443.1681228469
 20
267.7292410877
 10
443.9293893293
 20
267.462590915
  0
ARC
  5
160
330
1F
100
AcDbEntity
  8
0
  6
HIDDEN
 62
     7
370
    18
100
AcDbCircle
 10
446.9317625972
 20
264.2433336971
 30
0.0
 40
9.070367659511536
100
AcDbArc
 50
72.1428253764
 51
125.9521486015
  0
LINE
  5
161
330
1F
100
AcDbEntity
  8
0
  6
HIDDEN
 62
     7
370
    18
100
AcDbLine
 10
454.5076951724
 20
271.5736709365
 30
0.0
 11
449.7131479249
 21
272.8767261437
 31
0.0
  0
LWPOLYLINE
  5
162
330
1F
100
AcDbEntity
  8
0
  6
HIDDEN
 62
     7
370
    18
100
AcDbPolyline
 90
       22
 70
   128
 43
0.0
 10
447.3103663908
 20
270.8509533798
 10
447.6463012159
 20
270.7234330076
 10
447.8943282147
 20
270.550578196
 10
448.0324178092
 20
270.3477523063
 10
448.0482900261
 20
270.1329710067
 10
447.9405421975
 20
269.9253245119
 10
447.7187441941
 20
269.7432595612
 10
447.4026078636
 20
269.6029568084
 10
447.0202154763
 20
269.5168771783
 10
446.6055538747
 20
269.4926748089
 10
446.1954584728
 20
269.5324960028
 10
445.8263746985
 20
269.6328050642
 10
445.5310964902
 20
269.7846893032
 10
445.3358554163
 20
269.9746501512
 10
445.2580075229
 20
270.1858132278
 10
445.304461608
 20
270.3994098363
 10
445.4710962108
 20
270.5964670173
 10
445.7431020182
 20
270.759471713
 10
446.0963135756
 20
270.8739439513
 10
446.4993396125
 20
270.9297062071
 10
446.9163786898
 20
270.9218103098
 10
447.3103663908
 20
270.8509533798
  0
LWPOLYLINE
  5
163
330
1F
100
AcDbEntity
  8
0
  6
HIDDEN
 62
     7
370
    18
100
AcDbPolyline
 90
       22
 70
   128
 43
0.0
 10
415.5750799574
 20
239.8763409306
 10
415.9110147825
 20
239.7488205584
 10
416.1590435199
 20
239.5759674438
 10
416.2971313759
 20
239.3731398572
 10
416.3130053313
 20
239.1583602545
 10
416.2052566335
 20
238.9507129113
 10
415.9834594993
 20
238.768648809
 10
415.667320561
 20
238.6283435109
 10
415.2849294776
 20
238.5422651535
 10
414.870266572
 20
238.5180615114
 10
414.4601724741
 20
238.5578839779
 10
414.0910886998
 20
238.6581930393
 10
413.7958091875
 20
238.8100760056
 10
413.6005694176
 20
239.0000381263
 10
413.5227202203
 20
239.2111999302
 10
413.5691769132
 20
239.4247990841
 10
413.7358106468
 20
239.6218554166
 10
414.0078173234
 20
239.7848609608
 10
414.3610271422
 20
239.8993315022
 10
414.7640549177
 20
239.9550954549
 10
415.1810922564
 20
239.9471978607
 10
415.5750799574
 20
239.8763409306
  0
LINE
  5
164
330
1F
100
AcDbEntity
  8
0
  6
HIDDEN
 62
     7
370
    18
100
AcDbLine
 10
454.8609774972
 20
270.9727288971
 30
0.0
 11
417.5253446094
 21
234.5320066219
 31
0.0
  0
LINE
  5
165
330
1F
100
AcDbEntity
  8
0
  6
HIDDEN
 62
     7
370
    18
100
AcDbLine
 10
417.1720622847
 20
234.9529449516
 30
0.0
 11
454.5076951724
 21
271.3936672268
 31
0.0
  0
LINE
  5
166
330
1F
100
AcDbEntity
  8
0
  6
HIDDEN
 62
     7
370
    18
100
AcDbLine
 10
407.296733113
 20
278.1267127851
 30
0.0
 11
409.2920598352
 21
314.4844123836
 31
0.0
  0
LINE
  5
167
330
1F
100
AcDbEntity
  8
0
  6
HIDDEN
 62
     7
370
    18
100
AcDbLine
 10
407.296733113
 20
278.1267127851
 30
0.0
 11
370.0560716672
 21
241.7786855487
 31
0.0
  0
LINE
  5
168
330
1F
100
AcDbEntity
  8
0
  6
HIDDEN
 62
     7
370
    18
100
AcDbLine
 10
409.8711790535
 20
240.4312500282
 30
0.0
 11
409.8711790535
 21
240.6112537379
 31
0.0
  0
LWPOLYLINE
  5
169
330
1F
100
AcDbEntity
  8
0
  6
HIDDEN
 62
     7
370
    18
100
AcDbPolyline
 90
       12
 70
   128
 43
0.0
 10
412.3775150372
 20
236.2560001587
 10
411.6508221825
 20
236.489064486
 10
410.9959257691
 20
236.7730215991
 10
410.4261585694
 20
237.1020904569
 10
409.9531175318
 20
237.4695728128
 10
409.5864345136
 20
237.8679871152
 10
409.3335724748
 20
238.2892231478
 10
409.1996812035
 20
238.7247054395
 10
409.1874839936
 20
239.1655694135
 10
409.2972302606
 20
239.6028402251
 10
409.5266854261
 20
240.0276161142
 10
409.8711790535
 20
240.4312500282
  0
LINE
  5
16A
330
1F
100
AcDbEntity
  8
0
  6
HIDDEN
 62
     7
370
    18
100
AcDbLine
 10
418.1240913824
 20
228.3737652681
 30
0.0
 11
418.3095640263
 21
228.3327777089
 31
0.0
  0
LINE
  5
16B
330
1F
100
AcDbEntity
  8
0
  6
HIDDEN
 62
     7
370
    18
100
AcDbLine
 10
418.1240913824
 20
228.3737652681
 30
0.0
 11
418.1238673419
 21
228.3779805068
 31
0.0
  0
ARC
  5
16C
330
1F
100
AcDbEntity
  8
0
  6
HIDDEN
 62
     7
370
    18
100
AcDbCircle
 10
455.4694593031
 20
264.9879246597
 30
0.0
 40
0.1695146808462541
100
AcDbArc
 50
266.6319044293
 51
313.0306188974
  0
ARC
  5
16D
330
1F
100
AcDbEntity
  8
0
  6
HIDDEN
 62
     7
370
    18
100
AcDbCircle
 10
455.4851966265
 20
265.1303423318
 30
0.0
 40
0.3126971598702078
100
AcDbArc
 50
185.4175919238
 51
265.2863108447
  0
ARC
  5
16E
330
1F
100
AcDbEntity
  8
0
  6
HIDDEN
 62
     7
370
    18
100
AcDbCircle
 10
418.1495637387
 20
228.6896200566
 30
0.0
 40
0.3126971598702618
100
AcDbArc
 50
185.4175919238
 51
265.2863108447
  0
ARC
  5
16F
330
1F
100
AcDbEntity
  8
0
  6
HIDDEN
 62
     7
370
    18
100
AcDbCircle
 10
418.1349964103
 20
228.5410775498
 30
0.0
 40
0.1634763028813173
100
AcDbArc
 50
266.0964237259
 51
6.1558766118
  0
LINE
  5
170
330
1F
100
AcDbEntity
  8
0
  6
HIDDEN
 62
     7
370
    18
100
AcDbLine
 10
417.8382633899
 20
228.6600970722
 30
0.0
 11
455.1738962776
 21
265.1008193474
 31
0.0
  0
LWPOLYLINE
  5
171
330
1F
100
AcDbEntity
  8
0
  6
HIDDEN
 62
     7
370
    18
100
AcDbPolyline
 90
        9
 70
   128
 43
0.0
 10
418.0237360338
 20
228.6191127062
 10
418.0279829204
 20
228.6017498253
 10
418.0383069075
 20
228.5855453321
 10
418.053134769
 20
228.5729640554
 10
418.070211273
 20
228.5659249366
 10
418.0869335951
 20
228.5654961987
 10
418.1007598635
 20
228.5717428015
 10
418.1095814609
 20
228.5837178602
 10
418.1120574386
 20
228.5995920895
  0
LINE
  5
172
330
1F
100
AcDbEntity
  8
0
  6
HIDDEN
 62
     7
370
    18
100
AcDbLine
 10
418.1238673419
 20
228.3779805068
 30
0.0
 11
418.1120574386
 21
228.5995920895
 31
0.0
  0
LWPOLYLINE
  5
173
330
1F
100
AcDbEntity
  8
0
  6
HIDDEN
 62
     7
370
    18
100
AcDbPolyline
 90
        9
 70
   128
 43
0.0
 10
455.4476903264
 20
265.0403143647
 10
455.4452143486
 20
265.0244401354
 10
455.4363927512
 20
265.0124650767
 10
455.4225664829
 20
265.0062184739
 10
455.4058441607
 20
265.0066472117
 10
455.3887676568
 20
265.0136863306
 10
455.3739397953
 20
265.0262676073
 10
455.3636158082
 20
265.0424721005
 10
455.3593689215
 20
265.0598349814
  0
LINE
  5
174
330
1F
100
AcDbEntity
  8
0
  6
HIDDEN
 62
     7
370
    18
100
AcDbLine
 10
418.1120574386
 20
228.5995920895
 30
0.0
 11
455.4476903264
 21
265.0403143647
 31
0.0
  0
LWPOLYLINE
  5
175
330
1F
100
AcDbEntity
  8
0
  6
HIDDEN
 62
     7
370
    18
100
AcDbPolyline
 90
       22
 70
   128
 43
0.0
 10
415.5750799574
 20
239.6963372209
 10
415.9110147825
 20
239.5688168487
 10
416.1590435199
 20
239.395963734
 10
416.2971313759
 20
239.1931361475
 10
416.3130053313
 20
238.9783565447
 10
416.2052566335
 20
238.7707092015
 10
415.9834594993
 20
238.5886450993
 10
415.667320561
 20
238.4483398011
 10
415.2849294776
 20
238.3622614437
 10
414.870266572
 20
238.3380578016
 10
414.4601724741
 20
238.3778802682
 10
414.0910886998
 20
238.4781893295
 10
413.7958091875
 20
238.6300722959
 10
413.6005694176
 20
238.8200344165
 10
413.5227202203
 20
239.0311962205
 10
413.5691769132
 20
239.2447953743
 10
413.7358106468
 20
239.4418517069
 10
414.0078173234
 20
239.6048572511
 10
414.3610271422
 20
239.7193277925
 10
414.7640549177
 20
239.7750917451
 10
415.1810922564
 20
239.7671941509
 10
415.5750799574
 20
239.6963372209
  0
ARC
  5
176
330
1F
100
AcDbEntity
  8
0
  6
HIDDEN
 62
     7
370
    18
100
AcDbCircle
 10
415.1983114798
 20
233.0173807111
 30
0.0
 40
9.129282454691337
100
AcDbArc
 50
73.5008477729
 51
125.6986080162
  0
LINE
  5
177
330
1F
100
AcDbEntity
  8
0
  6
HIDDEN
 62
     7
370
    18
100
AcDbLine
 10
417.7910382647
 20
241.9507589677
 30
0.0
 11
417.7910382647
 21
241.7707552579
 31
0.0
  0
ARC
  5
178
330
1F
100
AcDbEntity
  8
0
  6
HIDDEN
 62
     7
370
    18
100
AcDbCircle
 10
419.0815918758
 20
246.181794005
 30
0.0
 40
4.595953813040592
100
AcDbArc
 50
253.6919159599
 51
305.507554454
  0
LINE
  5
179
330
1F
100
AcDbEntity
  8
0
  6
HIDDEN
 62
     7
370
    18
100
AcDbLine
 10
421.7509691514
 20
242.4405086093
 30
0.0
 11
421.7509691514
 21
242.6205123191
 31
0.0
  0
LINE
  5
17A
330
1F
100
AcDbEntity
  8
0
  6
HIDDEN
 62
     7
370
    18
100
AcDbLine
 10
445.090852097
 20
265.2209498815
 30
0.0
 11
421.7509691514
 21
242.4405086093
 31
0.0
  0
LINE
  5
17B
330
1F
100
AcDbEntity
  8
0
  6
HIDDEN
 62
     7
370
    18
100
AcDbLine
 10
369.7635936375
 20
241.5265322462
 30
0.0
 11
362.9438403215
 21
234.8702439405
 31
0.0
  0
LINE
  5
17C
330
1F
100
AcDbEntity
  8
0
  6
HIDDEN
 62
     7
370
    18
100
AcDbLine
 10
385.4244665679
 20
261.8836615141
 30
0.0
 11
408.2367282669
 21
284.1491282745
 31
0.0
  0
LINE
  5
17D
330
1F
100
AcDbEntity
  8
0
  6
HIDDEN
 62
     7
370
    18
100
AcDbLine
 10
413.0312755145
 20
282.8460730674
 30
0.0
 11
408.2367282669
 21
284.1491282745
 31
0.0
  0
LWPOLYLINE
  5
17E
330
1F
100
AcDbEntity
  8
0
  6
HIDDEN
 62
     7
370
    18
100
AcDbPolyline
 90
       12
 70
   128
 43
0.0
 10
415.5376097595
 20
278.670821501
 10
415.8821029523
 20
279.0744549908
 10
416.1115581178
 20
279.4992308799
 10
416.221306558
 20
279.9365038126
 10
416.2091089135
 20
280.3773673624
 10
416.0752176422
 20
280.8128496542
 10
415.8223542995
 20
281.2340844141
 10
415.4556717158
 20
281.6324991407
 10
414.9826319822
 20
281.9999827693
 10
414.4128634786
 20
282.3290503544
 10
413.7579679345
 20
282.6130083159
 10
413.0312755145
 20
282.8460730674
  0
ARC
  5
17F
330
1F
100
AcDbEntity
  8
0
  6
HIDDEN
 62
     7
370
    18
100
AcDbCircle
 10
410.2104778096
 20
286.0846880016
 30
0.0
 40
9.129279889400616
100
AcDbArc
 50
253.5008398861
 51
305.698615903
  0
ARC
  5
180
330
1F
100
AcDbEntity
  8
0
  6
HIDDEN
 62
     7
370
    18
100
AcDbCircle
 10
406.3271955884
 20
272.9202842249
 30
0.0
 40
4.595947760772899
100
AcDbArc
 50
73.6918763635
 51
125.5075743171
  0
LINE
  5
181
330
1F
100
AcDbEntity
  8
0
  6
HIDDEN
 62
     7
370
    18
100
AcDbLine
 10
387.1040822752
 20
260.5046077524
 30
0.0
 11
403.657820531
 21
276.6615637684
 31
0.0
  0
LWPOLYLINE
  5
182
330
1F
100
AcDbEntity
  8
0
  6
HIDDEN
 62
     7
370
    18
100
AcDbPolyline
 90
       22
 70
   128
 43
0.0
 10
411.1404563327
 20
280.6811599061
 10
411.4763895104
 20
280.5536399816
 10
411.7244181566
 20
280.3807847223
 10
411.8625061037
 20
280.1779592804
 10
411.8783783206
 20
279.9631779808
 10
411.7706304921
 20
279.755531486
 10
411.5488324886
 20
279.5734665353
 10
411.2326961581
 20
279.4331637825
 10
410.8503054182
 20
279.3470837047
 10
410.4356421692
 20
279.322881783
 10
410.0255484147
 20
279.3627025292
 10
409.6564646404
 20
279.4630115905
 10
409.3611847847
 20
279.6148962773
 10
409.1659453582
 20
279.8048566775
 10
409.0880958175
 20
280.0160202019
 10
409.1345499025
 20
280.2296168104
 10
409.3011845053
 20
280.4266739914
 10
409.5731903127
 20
280.5896786871
 10
409.9264018701
 20
280.7041509254
 10
410.3294295543
 20
280.7599127334
 10
410.7464669843
 20
280.7520172839
 10
411.1404563327
 20
280.6811599061
  0
LINE
  5
183
330
1F
100
AcDbEntity
  8
0
  6
HIDDEN
 62
     7
370
    18
100
AcDbLine
 10
381.4793994837
 20
251.6394806143
 30
0.0
 11
381.4793994837
 21
251.819484324
 31
0.0
  0
LWPOLYLINE
  5
184
330
1F
100
AcDbEntity
  8
0
  6
HIDDEN
 62
     7
370
    18
100
AcDbPolyline
 90
        8
 70
   128
 43
0.0
 10
381.4793994837
 20
251.6394806143
 10
382.2406659661
 20
251.3728304416
 10
382.9137666796
 20
251.0493356172
 10
383.4828514843
 20
250.6766122212
 10
383.9345233137
 20
250.2634352002
 10
384.2581485807
 20
249.8195336033
 10
384.4461072325
 20
249.3553577473
 10
384.4958150556
 20
248.9584015893
  0
ARC
  5
185
330
1F
100
AcDbEntity
  8
0
  6
HIDDEN
 62
     7
370
    18
100
AcDbCircle
 10
408.0937031819
 20
283.7795817699
 30
0.0
 40
0.3962584939905323
100
AcDbArc
 50
68.8421348048
 51
177.0401856011
  0
LINE
  5
186
330
1F
100
AcDbEntity
  8
0
  6
HIDDEN
 62
     7
370
    18
100
AcDbLine
 10
370.3623404106
 20
247.3593205135
 30
0.0
 11
407.6979732983
 21
283.8000427887
 31
0.0
  0
ARC
  5
187
330
1F
100
AcDbEntity
  8
0
  6
HIDDEN
 62
     7
370
    18
100
AcDbCircle
 10
408.1429417161
 20
283.7267979972
 30
0.0
 40
0.2598424185785395
100
AcDbArc
 50
68.8422938995
 51
177.0401264489
  0
LINE
  5
188
330
1F
100
AcDbEntity
  8
0
  6
HIDDEN
 62
     7
370
    18
100
AcDbLine
 10
370.7957396146
 20
247.541477015
 30
0.0
 11
407.8834459422
 21
283.740215367
 31
0.0
  0
LINE
  5
189
330
1F
100
AcDbEntity
  8
0
  6
HIDDEN
 62
     7
370
    18
100
AcDbLine
 10
408.2367282669
 20
283.9691245648
 30
0.0
 11
370.9010953792
 21
247.5284022896
 31
0.0
  0
LINE
  5
18A
330
1F
100
AcDbEntity
  8
0
  6
HIDDEN
 62
     7
370
    18
100
AcDbLine
 10
407.5705271618
 20
278.0383950562
 30
0.0
 11
388.4063034266
 21
259.3335251843
 31
0.0
  0
LINE
  5
18B
330
1F
100
AcDbEntity
  8
0
  6
HIDDEN
 62
     7
370
    18
100
AcDbLine
 10
380.9240051673
 20
252.0305727027
 30
0.0
 11
378.4232351219
 21
249.5897444738
 31
0.0
  0
LINE
  5
18C
330
1F
100
AcDbEntity
  8
0
  6
HIDDEN
 62
     7
370
    18
100
AcDbLine
 10
377.5294046142
 20
248.7173384966
 30
0.0
 11
375.1329082606
 21
246.3782845875
 31
0.0
  0
LINE
  5
18D
330
1F
100
AcDbEntity
  8
0
  6
HIDDEN
 62
     7
370
    18
100
AcDbLine
 10
407.8834459422
 20
283.740215367
 30
0.0
 11
407.5705271618
 21
278.0383950562
 31
0.0
  0
LWPOLYLINE
  5
18E
330
1F
100
AcDbEntity
  8
0
  6
HIDDEN
 62
     7
370
    18
100
AcDbPolyline
 90
       13
 70
   128
 43
0.0
 10
380.1408465532
 20
248.9788340918
 10
380.1430936258
 20
248.8085635188
 10
380.035344928
 20
248.6009161756
 10
379.8135477938
 20
248.4188520734
 10
379.4974088555
 20
248.2785467752
 10
379.1150194195
 20
248.1924679701
 10
378.7003548666
 20
248.1682647757
 10
378.290262416
 20
248.2080867946
 10
377.9211786417
 20
248.3083958559
 10
377.6258974821
 20
248.46027927
 10
377.4306593595
 20
248.6502409429
 10
377.3528085148
 20
248.8614031946
 10
377.3627441631
 20
248.9788340288
  0
ARC
  5
18F
330
1F
100
AcDbEntity
  8
0
  6
HIDDEN
 62
     7
370
    18
100
AcDbCircle
 10
370.0857483459
 20
241.749305442
 30
0.0
 40
0.3101403377181089
100
AcDbArc
 50
180.6437114147
 51
243.8968851304
  0
LWPOLYLINE
  5
190
330
1F
100
AcDbEntity
  8
0
  6
HIDDEN
 62
     7
370
    18
100
AcDbPolyline
 90
        9
 70
   128
 43
0.0
 10
407.5705271618
 20
278.0383950562
 10
407.5623332074
 20
277.9922195169
 10
407.5434116635
 20
277.951868509
 10
407.5146817552
 20
277.9192955128
 10
407.4775322047
 20
277.8960837264
 10
407.4337635733
 20
277.8833499739
 10
407.3854960096
 20
277.8817154932
 10
407.3350687606
 20
277.8912598032
 10
407.2849232098
 20
277.9115205597
  0
ARC
  5
191
330
1F
100
AcDbEntity
  8
0
  6
HIDDEN
 62
     7
370
    18
100
AcDbCircle
 10
407.4213812337
 20
278.1900277172
 30
0.0
 40
0.3101403377180412
100
AcDbArc
 50
180.6437114147
 51
243.8968851304
  0
LINE
  5
192
330
1F
100
AcDbEntity
  8
0
  6
HIDDEN
 62
     7
370
    18
100
AcDbLine
 10
407.1112604691
 20
278.1865433999
 30
0.0
 11
369.7756275813
 21
241.7458211247
 31
0.0
  0
LWPOLYLINE
  5
193
330
1F
100
AcDbEntity
  8
0
  6
HIDDEN
 62
     7
370
    18
100
AcDbPolyline
 90
        9
 70
   128
 43
0.0
 10
407.3850545179
 20
278.0982256711
 10
407.3808076312
 20
278.0831712158
 10
407.3704836441
 20
278.0725783995
 10
407.3556557826
 20
278.0680569129
 10
407.3385792787
 20
278.0702998498
 10
407.3218569565
 20
278.0789606496
 10
407.3080306882
 20
278.0927226194
 10
407.2992090908
 20
278.1094927204
 10
407.296733113
 20
278.1267127851
  0
LINE
  5
194
330
1F
100
AcDbEntity
  8
0
  6
HIDDEN
 62
     7
370
    18
100
AcDbLine
 10
407.3850545179
 20
278.0982256711
 30
0.0
 11
370.0494216301
 21
241.6575033959
 31
0.0
  0
LINE
  5
195
330
1F
100
AcDbEntity
  8
0
  6
HIDDEN
 62
     7
370
    18
100
AcDbLine
 10
369.9490662815
 20
241.4667048246
 30
0.0
 11
369.7635936375
 21
241.5265322462
 31
0.0
  0
LINE
  5
196
330
1F
100
AcDbEntity
  8
0
  6
HIDDEN
 62
     7
370
    18
100
AcDbLine
 10
369.7635936375
 20
241.5265322462
 30
0.0
 11
369.7756275813
 21
241.7458211247
 31
0.0
  0
LWPOLYLINE
  5
197
330
1F
100
AcDbEntity
  8
0
  6
HIDDEN
 62
     7
370
    18
100
AcDbPolyline
 90
        7
 70
   128
 43
0.0
 10
379.9762859327
 20
253.0700236855
 10
379.9834454091
 20
252.8405121098
 10
380.0900249809
 20
252.5494551921
 10
380.3024765211
 20
252.2742200378
 10
380.612993193
 20
252.0249204878
 10
381.010166482
 20
251.8107162965
 10
381.4793994837
 20
251.6394806143
  0
LINE
  5
198
330
1F
100
AcDbEntity
  8
0
  6
HIDDEN
 62
     7
370
    18
100
AcDbLine
 10
463.6732282224
 20
312.4584652626
 30
0.0
 11
453.4523636042
 21
302.4825880601
 31
0.0
  0
ELLIPSE
  5
199
330
1F
100
AcDbEntity
  8
0
  6
HIDDEN
 62
     7
370
    18
100
AcDbEllipse
 10
441.528895462
 20
317.2752181657
 30
0.0
 11
-15.19901141254149
 21
19.93000459407449
 31
0.0
210
0.0
220
0.0
230
1.0
 40
0.8080702237
 41
3.952874064001972
 42
6.98974696247208
  0
LINE
  5
19A
330
1F
100
AcDbEntity
  8
0
  6
HIDDEN
 62
     7
370
    18
100
AcDbLine
 10
419.5129244535
 20
324.4602895861
 30
0.0
 11
409.2920598352
 21
314.4844123836
 31
0.0
  0
LINE
  5
19B
330
1F
100
AcDbEntity
  8
0
  6
HIDDEN
 62
     7
370
    18
100
AcDbLine
 10
403.657820531
 20
276.4815600586
 30
0.0
 11
403.657820531
 21
276.6615637684
 31
0.0
  0
LINE
  5
19C
330
1F
100
AcDbEntity
  8
0
  6
HIDDEN
 62
     7
370
    18
100
AcDbLine
 10
387.2018163141
 20
260.4199954608
 30
0.0
 11
403.657820531
 21
276.4815600586
 31
0.0
  0
LINE
  5
19D
330
1F
100
AcDbEntity
  8
0
  6
HIDDEN
 62
     7
370
    18
100
AcDbLine
 10
455.4476903264
 20
265.0403143647
 30
0.0
 11
453.4523636042
 21
302.4825880601
 31
0.0
  0
LINE
  5
19E
330
1F
100
AcDbEntity
  8
0
  6
HIDDEN
 62
     7
370
    18
100
AcDbLine
 10
443.9293893293
 20
267.2825872052
 30
0.0
 11
443.9293893293
 21
267.462590915
 31
0.0
  0
LINE
  5
19F
330
1F
100
AcDbEntity
  8
0
  6
HIDDEN
 62
     7
370
    18
100
AcDbLine
 10
445.090852097
 20
265.4009535912
 30
0.0
 11
445.090852097
 21
265.2209498815
 31
0.0
  0
LWPOLYLINE
  5
1A0
330
1F
100
AcDbEntity
  8
0
  6
HIDDEN
 62
     7
370
    18
100
AcDbPolyline
 90
        9
 70
   128
 43
0.0
 10
445.090852097
 20
265.2209498815
 10
445.3092530632
 20
265.4949448628
 10
445.422136648
 20
265.7853730521
 10
445.4253425347
 20
266.0815548613
 10
445.3187629629
 20
266.372611779
 10
445.106312292
 20
266.6478477817
 10
444.7957973587
 20
266.8971490286
 10
444.3986214618
 20
267.1113506745
 10
443.9293893293
 20
267.2825872052
  0
LINE
  5
1A1
330
1F
100
AcDbEntity
  8
0
  6
HIDDEN
 62
     7
370
    18
100
AcDbLine
 10
441.6064646176
 20
271.4058616289
 30
0.0
 11
441.6064646176
 21
271.5858653386
 31
0.0
  0
LWPOLYLINE
  5
1A2
330
1F
100
AcDbEntity
  8
0
  6
HIDDEN
 62
     7
370
    18
100
AcDbPolyline
 90
       11
 70
   128
 43
0.0
 10
443.9293893293
 20
267.2825872052
 10
443.1681228469
 20
267.5492373779
 10
442.4950221335
 20
267.8727322023
 10
441.9259390673
 20
268.2454572952
 10
441.4742646301
 20
268.6586317708
 10
441.1506402324
 20
269.1025342162
 10
440.9626833191
 20
269.5667117691
 10
440.9148147344
 20
270.0402309614
 10
441.0081669843
 20
270.5119499641
 10
441.2405438443
 20
270.9707638612
 10
441.6064646176
 20
271.4058616289
  0
LINE
  5
1A3
330
1F
100
AcDbEntity
  8
0
  6
HIDDEN
 62
     7
370
    18
100
AcDbLine
 10
463.6732282224
 20
312.4584652626
 30
0.0
 11
463.8587008663
 21
312.4174785017
 31
0.0
  0
LINE
  5
1A4
330
1F
100
AcDbEntity
  8
0
  6
HIDDEN
 62
     7
370
    18
100
AcDbLine
 10
463.6732282224
 20
312.4584652626
 30
0.0
 11
463.5949409271
 21
285.8644657982
 31
0.0
  0
LWPOLYLINE
  5
1A5
330
1F
100
AcDbEntity
  8
0
  6
HIDDEN
 62
     7
370
    18
100
AcDbPolyline
 90
       22
 70
   128
 43
0.0
 10
447.3103663908
 20
270.67094967
 10
447.6463012159
 20
270.5434292978
 10
447.8943282147
 20
270.3705744862
 10
448.0324178092
 20
270.1677485966
 10
448.0482900261
 20
269.9529672969
 10
447.9405421975
 20
269.7453208022
 10
447.7187441941
 20
269.5632558515
 10
447.4026078636
 20
269.4229530987
 10
447.0202154763
 20
269.3368734686
 10
446.6055538747
 20
269.3126710992
 10
446.1954584728
 20
269.3524922931
 10
445.8263746985
 20
269.4528013544
 10
445.5310964902
 20
269.6046855935
 10
445.3358554163
 20
269.7946464414
 10
445.2580075229
 20
270.0058095181
 10
445.304461608
 20
270.2194061265
 10
445.4710962108
 20
270.4164633075
 10
445.7431020182
 20
270.5794680033
 10
446.0963135756
 20
270.6939402416
 10
446.4993396125
 20
270.7497024973
 10
446.9163786898
 20
270.7418066001
 10
447.3103663908
 20
270.67094967
  0
ARC
  5
1A6
330
1F
100
AcDbEntity
  8
0
  6
HIDDEN
 62
     7
370
    18
100
AcDbCircle
 10
446.9810336586
 20
263.7539047655
 30
0.0
 40
9.350852165160417
100
AcDbArc
 50
73.0115989178
 51
125.0833750601
  0
LINE
  5
1A7
330
1F
100
AcDbEntity
  8
0
  6
HIDDEN
 62
     7
370
    18
100
AcDbLine
 10
463.5949409271
 20
285.8644657982
 30
0.0
 11
463.7804152183
 21
285.8234777913
 31
0.0
  0
ELLIPSE
  5
1A8
330
1F
100
AcDbEntity
  8
0
  6
HIDDEN
 62
     7
370
    18
100
AcDbEllipse
 10
456.0912013758
 20
280.070887924
 30
0.0
 11
3.445589921071132
 21
15.64039348949854
 31
0.0
210
0.0
220
0.0
230
1.0
 40
0.4262055876
 41
3.717651037311071
 42
5.183727608986299
  0
ARC
  5
1A9
330
1F
100
AcDbEntity
  8
0
  6
HIDDEN
 62
     7
370
    18
100
AcDbCircle
 10
454.3738842549
 20
270.9226439029
 30
0.0
 40
0.4896614476446586
100
AcDbArc
 50
5.8707630234
 51
74.140918136
  0
LINE
  5
1AA
330
1F
100
AcDbEntity
  8
0
  6
HIDDEN
 62
     7
370
    18
100
AcDbLine
 10
454.8609774972
 20
270.9727288971
 30
0.0
 11
455.0464501411
 21
270.9317413379
 31
0.0
  0
LINE
  5
1AB
330
1F
100
AcDbEntity
  8
0
  6
HIDDEN
 62
     7
370
    18
100
AcDbLine
 10
455.1738962776
 20
265.1008193474
 30
0.0
 11
454.8609774972
 21
270.9727288971
 31
0.0
  0
LINE
  5
1AC
330
1F
100
AcDbEntity
  8
0
  6
HIDDEN
 62
     7
370
    18
100
AcDbLine
 10
454.5076951724
 20
271.3936672268
 30
0.0
 11
454.5076951724
 21
271.5736709365
 31
0.0
  0
LINE
  5
1AD
330
1F
100
AcDbEntity
  8
0
  6
HIDDEN
 62
     7
370
    18
100
AcDbLine
 10
449.7131479249
 20
272.6967224339
 30
0.0
 11
449.7131479249
 21
272.8767261437
 31
0.0
  0
LINE
  5
1AE
330
1F
100
AcDbEntity
  8
0
  6
HIDDEN
 62
     7
370
    18
100
AcDbLine
 10
454.5076951724
 20
271.3936672268
 30
0.0
 11
449.7131479249
 21
272.6967224339
 31
0.0
  0
LINE
  5
1AF
330
1F
100
AcDbEntity
  8
0
  6
HIDDEN
 62
     7
370
    18
100
AcDbLine
 10
407.2849232098
 20
277.9115205597
 30
0.0
 11
407.296733113
 21
278.1267127851
 31
0.0
  0
LINE
  5
1B0
330
1F
100
AcDbEntity
  8
0
  6
HIDDEN
 62
     7
370
    18
100
AcDbLine
 10
419.5129244535
 20
324.4602895861
 30
0.0
 11
416.7480909181
 21
298.5964358241
 31
0.0
  0
ELLIPSE
  5
1B1
330
1F
100
AcDbEntity
  8
0
  6
HIDDEN
 62
     7
370
    18
100
AcDbEllipse
 10
409.3993886432
 20
292.7607221401
 30
0.0
 11
4.907903287852151
 21
15.24407297701555
 31
0.0
210
0.0
220
0.0
230
1.0
 40
0.3723614463
 41
3.755527543528549
 42
5.221604115203767
  0
LINE
  5
1B2
330
1F
100
AcDbEntity
  8
0
  6
HIDDEN
 62
     7
370
    18
100
AcDbLine
 10
408.6577811368
 20
279.2475971939
 30
0.0
 11
407.2846991692
 21
277.9074270998
 31
0.0
  0
LINE
  5
1B3
330
1F
100
AcDbEntity
  8
0
  6
HIDDEN
 62
     7
370
    18
100
AcDbLine
 10
407.2846991692
 20
277.9074270998
 30
0.0
 11
407.2849232098
 21
277.9115205597
 31
0.0
  0
LINE
  5
1B4
330
1F
100
AcDbEntity
  8
0
  6
HIDDEN
 62
     7
370
    18
100
AcDbLine
 10
455.4597242702
 20
264.8144875432
 30
0.0
 11
455.5206089421
 21
264.8010314087
 31
0.0
  0
LINE
  5
1B5
330
1F
100
AcDbEntity
  8
0
  6
HIDDEN
 62
     7
370
    18
100
AcDbLine
 10
455.4597242702
 20
264.8144875432
 30
0.0
 11
455.4595002296
 21
264.818702782
 31
0.0
  0
LINE
  5
1B6
330
1F
100
AcDbEntity
  8
0
  6
HIDDEN
 62
     7
370
    18
100
AcDbLine
 10
455.3593689215
 20
265.0598349814
 30
0.0
 11
455.1738962776
 21
265.1008193474
 31
0.0
  0
LINE
  5
1B7
330
1F
100
AcDbEntity
  8
0
  6
HIDDEN
 62
     7
370
    18
100
AcDbLine
 10
455.4595002296
 20
264.818702782
 30
0.0
 11
455.4476903264
 21
265.0403143647
 31
0.0
  0
LINE
  5
1B8
330
1F
100
AcDbEntity
  8
0
  6
HIDDEN
 62
     7
370
    18
100
AcDbLine
 10
456.8328062378
 20
266.1546576374
 30
0.0
 11
457.0182788817
 21
266.1136700782
 31
0.0
  0
LINE
  5
1B9
330
1F
100
AcDbEntity
  8
0
  6
HIDDEN
 62
     7
370
    18
100
AcDbLine
 10
456.8328062378
 20
266.1546576374
 30
0.0
 11
455.4597242702
 21
264.8144875432
 31
0.0
  0
LINE
  5
1BA
330
1F
100
AcDbEntity
  8
0
  6
HIDDEN
 62
     7
370
    18
100
AcDbLine
 10
415.5376097595
 20
278.670821501
 30
0.0
 11
415.5376097595
 21
278.4908177913
 31
0.0
  0
LINE
  5
1BB
330
1F
100
AcDbEntity
  8
0
  6
HIDDEN
 62
     7
370
    18
100
AcDbLine
 10
407.6177505484
 20
277.3313162713
 30
0.0
 11
407.6177505484
 21
277.1513125616
 31
0.0
  0
ARC
  5
1BC
330
1F
100
AcDbEntity
  8
0
  6
HIDDEN
 62
     7
370
    18
100
AcDbCircle
 10
410.2104778096
 20
285.9046842918
 30
0.0
 40
9.129279889400804
100
AcDbArc
 50
253.5008398861
 51
305.698615903
  0
ARC
  5
1BD
330
1F
100
AcDbEntity
  8
0
  6
HIDDEN
 62
     7
370
    18
100
AcDbCircle
 10
406.3271955884
 20
272.7402805151
 30
0.0
 40
4.595947760772912
100
AcDbArc
 50
73.6918763635
 51
125.5075743171
  0
LINE
  5
1BE
330
1F
100
AcDbEntity
  8
0
  6
HIDDEN
 62
     7
370
    18
100
AcDbLine
 10
413.0312755145
 20
282.8460730674
 30
0.0
 11
413.0312755145
 21
282.6660693576
 31
0.0
  0
LWPOLYLINE
  5
1BF
330
1F
100
AcDbEntity
  8
0
  6
HIDDEN
 62
     7
370
    18
100
AcDbPolyline
 90
       12
 70
   128
 43
0.0
 10
413.0312755145
 20
282.6660693576
 10
413.7579679345
 20
282.4330046062
 10
414.4128634786
 20
282.1490466446
 10
414.9826319822
 20
281.8199790595
 10
415.4556717158
 20
281.4524954309
 10
415.8223542995
 20
281.0540807043
 10
416.0752176422
 20
280.6328459444
 10
416.2091089135
 20
280.1973636527
 10
416.221306558
 20
279.7565001029
 10
416.1115581178
 20
279.3192271702
 10
415.8821029523
 20
278.894451281
 10
415.5376097595
 20
278.4908177913
  0
LWPOLYLINE
  5
1C0
330
1F
100
AcDbEntity
  8
0
  6
HIDDEN
 62
     7
370
    18
100
AcDbPolyline
 90
       22
 70
   128
 43
0.0
 10
411.1404563327
 20
280.5011561964
 10
411.4763895104
 20
280.3736362719
 10
411.7244181566
 20
280.2007810126
 10
411.8625061037
 20
279.9979555707
 10
411.8783783206
 20
279.783174271
 10
411.7706304921
 20
279.5755277763
 10
411.5488324886
 20
279.3934628256
 10
411.2326961581
 20
279.2531600728
 10
410.8503054182
 20
279.167079995
 10
410.4356421692
 20
279.1428780733
 10
410.0255484147
 20
279.1826988195
 10
409.6564646404
 20
279.2830078808
 10
409.3611847847
 20
279.4348925675
 10
409.1659453582
 20
279.6248529678
 10
409.0880958175
 20
279.8360164921
 10
409.1345499025
 20
280.0496131006
 10
409.3011845053
 20
280.2466702816
 10
409.5731903127
 20
280.4096749774
 10
409.9264018701
 20
280.5241472157
 10
410.3294295543
 20
280.5799090237
 10
410.7464669843
 20
280.5720135741
 10
411.1404563327
 20
280.5011561964
  0
LINE
  5
1C1
330
1F
100
AcDbEntity
  8
0
  6
HIDDEN
 62
     7
370
    18
100
AcDbLine
 10
419.5129244535
 20
324.4602895861
 30
0.0
 11
419.3274518096
 21
324.5201178061
 31
0.0
  0
LINE
  5
1C2
330
1F
100
AcDbEntity
  8
0
  6
HIDDEN
 62
     7
370
    18
100
AcDbLine
 10
419.3274518096
 20
324.5201178061
 30
0.0
 11
416.5626166268
 21
298.6562636934
 31
0.0
  0
LINE
  5
1C3
330
1F
100
AcDbEntity
  8
0
  6
HIDDEN
 62
     7
370
    18
100
AcDbLine
 10
413.0312755145
 20
282.6660693576
 30
0.0
 11
408.2367282669
 21
283.9691245648
 31
0.0
  0
LINE
  5
1C4
330
1F
100
AcDbEntity
  8
0
  6
HIDDEN
 62
     7
370
    18
100
AcDbLine
 10
416.7480909181
 20
298.5964358241
 30
0.0
 11
416.5626166268
 21
298.6562636934
 31
0.0
  0
ELLIPSE
  5
1C5
330
1F
100
AcDbEntity
  8
0
  6
HIDDEN
 62
     7
370
    18
100
AcDbEllipse
 10
409.2139153712
 20
292.820550542
 30
0.0
 11
4.907903287852093
 21
15.24407297701561
 31
0.0
210
0.0
220
0.0
230
1.0
 40
0.3723614463
 41
3.755527543528544
 42
5.221604115203771
  0
LINE
  5
1C6
330
1F
100
AcDbEntity
  8
0
  6
HIDDEN
 62
     7
370
    18
100
AcDbLine
 10
408.2367282669
 20
283.9691245648
 30
0.0
 11
408.2367282669
 21
284.1491282745
 31
0.0
  0
LINE
  5
1C7
330
1F
100
AcDbEntity
  8
0
  6
HIDDEN
 62
     7
370
    18
100
AcDbLine
 10
407.8834459422
 20
283.740215367
 30
0.0
 11
407.6979732983
 21
283.8000427887
 31
0.0
  0
LINE
  5
1C8
330
1F
100
AcDbEntity
  8
0
  6
HIDDEN
 62
     7
370
    18
100
AcDbLine
 10
407.6979732983
 20
283.8000427887
 30
0.0
 11
407.3850545179
 21
278.0982256711
 31
0.0
  0
LINE
  5
1C9
330
1F
100
AcDbEntity
  8
0
  6
HIDDEN
 62
     7
370
    18
100
AcDbLine
 10
407.3850545179
 20
278.0982256711
 30
0.0
 11
407.5705271618
 21
278.0383950562
 31
0.0
  0
LINE
  5
1CA
330
1F
100
AcDbEntity
  8
0
  6
HIDDEN
 62
     7
370
    18
100
AcDbLine
 10
407.2846991692
 20
277.9074270998
 30
0.0
 11
407.0992265253
 21
277.9672545214
 31
0.0
  0
LINE
  5
1CB
330
1F
100
AcDbEntity
  8
0
  6
HIDDEN
 62
     7
370
    18
100
AcDbLine
 10
407.1112604691
 20
278.1865433999
 30
0.0
 11
407.0992265253
 21
277.9672545214
 31
0.0
  0
LINE
  5
1CC
330
1F
100
AcDbEntity
  8
0
  6
HIDDEN
 62
     7
370
    18
100
AcDbLine
 10
408.6577811368
 20
279.2475971939
 30
0.0
 11
408.4723084929
 21
279.3074246156
 31
0.0
  0
LINE
  5
1CD
330
1F
100
AcDbEntity
  8
0
  6
HIDDEN
 62
     7
370
    18
100
AcDbLine
 10
408.4723084929
 20
279.3074246156
 30
0.0
 11
407.0992265253
 21
277.9672545214
 31
0.0
  0
LINE
  5
1CE
330
1F
100
AcDbEntity
  8
0
  6
HIDDEN
 62
     7
370
    18
100
AcDbLine
 10
376.5746246148
 20
288.8120453203
 30
0.0
 11
354.7871586003
 21
267.5468105645
 31
0.0
  0
LINE
  5
1CF
330
1F
100
AcDbEntity
  8
0
  6
HIDDEN
 62
     7
370
    18
100
AcDbLine
 10
413.9102575026
 20
325.2527675955
 30
0.0
 11
376.5746246148
 21
288.8120453203
 31
0.0
  0
LINE
  5
1D0
330
1F
100
AcDbEntity
  8
0
  6
HIDDEN
 62
     7
370
    18
100
AcDbLine
 10
409.1776877587
 20
239.169057915
 30
0.0
 11
409.1776877587
 21
238.9890542053
 31
0.0
  0
LINE
  5
1D1
330
1F
100
AcDbEntity
  8
0
  6
HIDDEN
 62
     7
370
    18
100
AcDbLine
 10
418.2495013856
 20
228.4232889942
 30
0.0
 11
418.3020107213
 21
228.4745397157
 31
0.0
  0
LINE
  5
1D2
330
1F
100
AcDbEntity
  8
0
  6
HIDDEN
 62
     7
370
    18
100
AcDbLine
 10
418.1028207072
 20
228.5735712197
 30
0.0
 11
455.438453595
 21
265.0142934949
 31
0.0
  0
LINE
  5
1D3
330
1F
100
AcDbEntity
  8
0
  6
HIDDEN
 62
     7
370
    18
100
AcDbLine
 10
413.5217076048
 20
239.238628027
 30
0.0
 11
413.5217076048
 21
239.0586243173
 31
0.0
  0
LINE
  5
1D4
330
1F
100
AcDbEntity
  8
0
  6
HIDDEN
 62
     7
370
    18
100
AcDbLine
 10
416.321706915
 20
239.0586245032
 30
0.0
 11
416.321706915
 21
239.238628213
 31
0.0
  0
LINE
  5
1D5
330
1F
100
AcDbEntity
  8
0
  6
HIDDEN
 62
     7
370
    18
100
AcDbLine
 10
407.8106574677
 20
284.062792623
 30
0.0
 11
385.2364711236
 21
262.0296947076
 31
0.0
  0
LINE
  5
1D6
330
1F
100
AcDbEntity
  8
0
  6
HIDDEN
 62
     7
370
    18
100
AcDbLine
 10
407.9573364987
 20
283.9125108453
 30
0.0
 11
370.6217036109
 21
247.4717885701
 31
0.0
  0
LINE
  5
1D7
330
1F
100
AcDbEntity
  8
0
  6
HIDDEN
 62
     7
370
    18
100
AcDbLine
 10
377.3517958994
 20
249.0688350011
 30
0.0
 11
377.3517958994
 21
248.8888312914
 31
0.0
  0
LINE
  5
1D8
330
1F
100
AcDbEntity
  8
0
  6
HIDDEN
 62
     7
370
    18
100
AcDbLine
 10
380.1517952095
 20
248.8888314773
 30
0.0
 11
380.1517952095
 21
249.0688351871
 31
0.0
  0
LINE
  5
1D9
330
1F
100
AcDbEntity
  8
0
  6
HIDDEN
 62
     7
370
    18
100
AcDbLine
 10
375.185091073
 20
246.364104861
 30
0.0
 11
377.5646554369
 21
248.6866326291
 31
0.0
  0
LINE
  5
1DA
330
1F
100
AcDbEntity
  8
0
  6
HIDDEN
 62
     7
370
    18
100
AcDbLine
 10
378.4983766971
 20
249.5979732036
 30
0.0
 11
380.9689989688
 21
252.0093762812
 31
0.0
  0
LINE
  5
1DB
330
1F
100
AcDbEntity
  8
0
  6
HIDDEN
 62
     7
370
    18
100
AcDbLine
 10
388.4403163833
 20
259.3016111216
 30
0.0
 11
407.5224984648
 21
277.9264058245
 31
0.0
  0
LINE
  5
1DC
330
1F
100
AcDbEntity
  8
0
  6
HIDDEN
 62
     7
370
    18
100
AcDbLine
 10
370.0401848987
 20
241.6359657748
 30
0.0
 11
407.3758177865
 21
278.0766880499
 31
0.0
  0
LINE
  5
1DD
330
1F
100
AcDbEntity
  8
0
  6
HIDDEN
 62
     7
370
    18
100
AcDbLine
 10
379.9711904851
 20
253.1600247085
 30
0.0
 11
379.9711904851
 21
252.9800209987
 31
0.0
  0
LINE
  5
1DE
330
1F
100
AcDbEntity
  8
0
  6
HIDDEN
 62
     7
370
    18
100
AcDbLine
 10
424.8191669727
 20
335.9001976664
 30
0.0
 11
413.9102575026
 21
325.2527675955
 31
0.0
  0
LINE
  5
1DF
330
1F
100
AcDbEntity
  8
0
  6
HIDDEN
 62
     7
370
    18
100
AcDbLine
 10
445.4375974587
 20
265.9420459723
 30
0.0
 11
445.4375974587
 21
266.1220496821
 31
0.0
  0
LINE
  5
1E0
330
1F
100
AcDbEntity
  8
0
  6
HIDDEN
 62
     7
370
    18
100
AcDbLine
 10
440.9129728882
 20
270.1436690915
 30
0.0
 11
440.9129728882
 21
269.9636653817
 31
0.0
  0
LINE
  5
1E1
330
1F
100
AcDbEntity
  8
0
  6
HIDDEN
 62
     7
370
    18
100
AcDbLine
 10
445.2569944728
 20
270.2132409004
 30
0.0
 11
445.2569944728
 21
270.0332371906
 31
0.0
  0
LINE
  5
1E2
330
1F
100
AcDbEntity
  8
0
  6
HIDDEN
 62
     7
370
    18
100
AcDbLine
 10
448.0569916097
 20
270.0332352554
 30
0.0
 11
448.0569916097
 21
270.2132389652
 31
0.0
  0
LINE
  5
1E3
330
1F
100
AcDbEntity
  8
0
  6
HIDDEN
 62
     7
370
    18
100
AcDbLine
 10
416.2311014889
 20
279.9330140384
 30
0.0
 11
416.2311014889
 21
280.1130177482
 31
0.0
  0
LINE
  5
1E4
330
1F
100
AcDbEntity
  8
0
  6
HIDDEN
 62
     7
370
    18
100
AcDbLine
 10
409.0870827673
 20
280.0434478745
 30
0.0
 11
409.0870827673
 21
279.8634441647
 31
0.0
  0
LINE
  5
1E5
330
1F
100
AcDbEntity
  8
0
  6
HIDDEN
 62
     7
370
    18
100
AcDbLine
 10
411.8870799043
 20
279.8634422295
 30
0.0
 11
411.8870799043
 21
280.0434459393
 31
0.0
  0
LINE
  5
1E6
330
1F
100
AcDbEntity
  8
0
  6
Continuous
 62
     7
370
    25
100
AcDbLine
 10
440.3702727013
 20
170.1396754793
 30
0.0
 11
440.5799841934
 21
170.150666017
 31
0.0
  0
LINE
  5
1E7
330
1F
100
AcDbEntity
  8
0
  6
Continuous
 62
     7
370
    25
100
AcDbLine
 10
390.438794946
 20
170.1396754793
 30
0.0
 11
390.2290834539
 21
170.150666017
 31
0.0
  0
ARC
  5
1E8
330
1F
100
AcDbEntity
  8
0
  6
Continuous
 62
     7
370
    25
100
AcDbCircle
 10
415.4045338237
 20
168.831276576
 30
0.0
 40
25.20999999999999
100
AcDbArc
 50
3.0
 51
177.0
  0
ARC
  5
1E9
330
1F
100
AcDbEntity
  8
0
  6
Continuous
 62
     7
370
    25
100
AcDbCircle
 10
415.4045338237
 20
168.831276576
 30
0.0
 40
25.00000000000004
100
AcDbArc
 50
3.0
 51
177.0
  0
LINE
  5
1EA
330
1F
100
AcDbEntity
  8
0
  6
Continuous
 62
     7
370
    25
100
AcDbLine
 10
388.5111192667
 20
137.3699445827
 30
0.0
 11
390.2290834539
 21
170.150666017
 31
0.0
  0
LINE
  5
1EB
330
1F
100
AcDbEntity
  8
0
  6
Continuous
 62
     7
370
    25
100
AcDbLine
 10
388.7208307587
 20
137.3589549763
 30
0.0
 11
390.438794946
 21
170.1396754793
 31
0.0
  0
LINE
  5
1EC
330
1F
100
AcDbEntity
  8
0
  6
Continuous
 62
     7
370
    25
100
AcDbLine
 10
388.7208307587
 20
137.3589549763
 30
0.0
 11
388.5111192667
 21
137.3699445827
 31
0.0
  0
LINE
  5
1ED
330
1F
100
AcDbEntity
  8
0
  6
Continuous
 62
     7
370
    25
100
AcDbLine
 10
442.2979483806
 20
137.3699445827
 30
0.0
 11
440.5799841934
 21
170.150666017
 31
0.0
  0
LINE
  5
1EE
330
1F
100
AcDbEntity
  8
0
  6
Continuous
 62
     7
370
    25
100
AcDbLine
 10
442.0882368886
 20
137.3589549763
 30
0.0
 11
442.2979483806
 21
137.3699445827
 31
0.0
  0
LINE
  5
1EF
330
1F
100
AcDbEntity
  8
0
  6
Continuous
 62
     7
370
    25
100
AcDbLine
 10
442.0882368886
 20
137.3589549763
 30
0.0
 11
440.3702727013
 21
170.1396754793
 31
0.0
  0
LINE
  5
1F0
330
1F
100
AcDbEntity
  8
0
  6
Continuous
 62
     7
370
    25
100
AcDbLine
 10
442.6399691456
 20
126.8312771422
 30
0.0
 11
442.8496806376
 21
126.8422667486
 31
0.0
  0
LWPOLYLINE
  5
1F1
330
1F
100
AcDbEntity
  8
0
  6
Continuous
 62
     7
370
    25
100
AcDbPolyline
 90
       15
 70
   128
 43
0.0
 10
442.8496806376
 20
126.8422667486
 10
442.8464899265
 20
126.9031528933
 10
442.8369420075
 20
127.0853419406
 10
442.8211095237
 20
127.3874555332
 10
442.7991116845
 20
127.8071839911
 10
442.7711179905
 20
128.3413421912
 10
442.7373407834
 20
128.9858621163
 10
442.6980352455
 20
129.7358338339
 10
442.6535031252
 20
130.5855576498
 10
442.6040834241
 20
131.5285590095
 10
442.5501505338
 20
132.5576667292
 10
442.4921142363
 20
133.665042798
 10
442.4304197036
 20
134.8422680599
 10
442.3655325972
 20
136.0803757412
 10
442.2979483806
 20
137.3699445827
  0
LWPOLYLINE
  5
1F2
330
1F
100
AcDbEntity
  8
0
  6
Continuous
 62
     7
370
    25
100
AcDbPolyline
 90
       15
 70
   128
 43
0.0
 10
442.6399691456
 20
126.8312771422
 10
442.6367784344
 20
126.8921595616
 10
442.6272305154
 20
127.0743523342
 10
442.6113980316
 20
127.3764622015
 10
442.5894001924
 20
127.7961943848
 10
442.5614064985
 20
128.3303525848
 10
442.5276274287
 20
128.9748687846
 10
442.4883237534
 20
129.7248442275
 10
442.4437916332
 20
130.5745643181
 10
442.3943719321
 20
131.5175694031
 10
442.3404371791
 20
132.5466733975
 10
442.2824027442
 20
133.6540531916
 10
442.2207063489
 20
134.8312747283
 10
442.1558211052
 20
136.0693861348
 10
442.0882368886
 20
137.3589549763
  0
LINE
  5
1F3
330
1F
100
AcDbEntity
  8
0
  6
Continuous
 62
     7
370
    25
100
AcDbLine
 10
388.1690985017
 20
126.8312771422
 30
0.0
 11
387.9593870097
 21
126.8422667486
 31
0.0
  0
LWPOLYLINE
  5
1F4
330
1F
100
AcDbEntity
  8
0
  6
Continuous
 62
     7
370
    25
100
AcDbPolyline
 90
       15
 70
   128
 43
0.0
 10
387.9593870097
 20
126.8422667486
 10
387.9625777208
 20
126.9031528933
 10
387.9721256398
 20
127.0853419406
 10
387.9879581236
 20
127.3874555332
 10
388.0099559628
 20
127.8071839911
 10
388.0379496568
 20
128.3413421912
 10
388.0717268639
 20
128.9858621163
 10
388.1110324018
 20
129.7358338339
 10
388.1555645221
 20
130.5855576498
 10
388.2049842232
 20
131.5285590095
 10
388.2589171135
 20
132.5576667292
 10
388.316953411
 20
133.665042798
 10
388.3786479437
 20
134.8422680599
 10
388.4435350501
 20
136.0803757412
 10
388.5111192667
 20
137.3699445827
  0
LWPOLYLINE
  5
1F5
330
1F
100
AcDbEntity
  8
0
  6
Continuous
 62
     7
370
    25
100
AcDbPolyline
 90
       15
 70
   128
 43
0.0
 10
388.1690985017
 20
126.8312771422
 10
388.1722892129
 20
126.8921595616
 10
388.1818371319
 20
127.0743523342
 10
388.1976696157
 20
127.3764622015
 10
388.2196674549
 20
127.7961943848
 10
388.2476611488
 20
128.3303525848
 10
388.2814402186
 20
128.9748687846
 10
388.3207438939
 20
129.7248442275
 10
388.3652760141
 20
130.5745643181
 10
388.4146957152
 20
131.5175694031
 10
388.4686304682
 20
132.5466733975
 10
388.5266649031
 20
133.6540531916
 10
388.5883612984
 20
134.8312747283
 10
388.6532465421
 20
136.0693861348
 10
388.7208307587
 20
137.3589549763
  0
LINE
  5
1F6
330
1F
100
AcDbEntity
  8
0
  6
Continuous
 62
     7
370
    25
100
AcDbLine
 10
388.2825689816
 20
127.0856883926
 30
0.0
 11
388.4922804736
 21
127.0746950609
 31
0.0
  0
LINE
  5
1F7
330
1F
100
AcDbEntity
  8
0
  6
Continuous
 62
     7
370
    25
100
AcDbLine
 10
388.2825689816
 20
127.0856883926
 30
0.0
 11
388.636382153
 21
133.8368345601
 31
0.0
  0
LINE
  5
1F8
330
1F
100
AcDbEntity
  8
0
  6
Continuous
 62
     7
370
    25
100
AcDbLine
 10
388.846093645
 20
133.8258449537
 30
0.0
 11
388.636382153
 21
133.8368345601
 31
0.0
  0
LINE
  5
1F9
330
1F
100
AcDbEntity
  8
0
  6
Continuous
 62
     7
370
    25
100
AcDbLine
 10
388.4922804736
 20
127.0746950609
 30
0.0
 11
388.846093645
 21
133.8258449537
 31
0.0
  0
ARC
  5
1FA
330
1F
100
AcDbEntity
  8
0
  6
Continuous
 62
     7
370
    25
100
AcDbCircle
 10
388.2326372692
 20
127.0883034572
 30
0.0
 40
0.0500000000000817
100
AcDbArc
 50
177.0
 51
357.0
  0
ARC
  5
1FB
330
1F
100
AcDbEntity
  8
0
  6
Continuous
 62
     7
370
    25
100
AcDbCircle
 10
388.2326372692
 20
127.0883034572
 30
0.0
 40
0.2600000000000192
100
AcDbArc
 50
255.912510789
 51
357.0
  0
LINE
  5
1FC
330
1F
100
AcDbEntity
  8
0
  6
Continuous
 62
     7
370
    25
100
AcDbLine
 10
430.142390398
 20
134.204911868
 30
0.0
 11
430.142390398
 21
134.4149102075
 31
0.0
  0
LINE
  5
1FD
330
1F
100
AcDbEntity
  8
0
  6
Continuous
 62
     7
370
    25
100
AcDbLine
 10
436.1423904502
 20
134.4149102075
 30
0.0
 11
436.1423904502
 21
134.204911868
 31
0.0
  0
LINE
  5
1FE
330
1F
100
AcDbEntity
  8
0
  6
Continuous
 62
     7
370
    25
100
AcDbLine
 10
430.142390398
 20
134.4149102075
 30
0.0
 11
436.1423904502
 21
134.4149102075
 31
0.0
  0
LINE
  5
1FF
330
1F
100
AcDbEntity
  8
0
  6
Continuous
 62
     7
370
    25
100
AcDbLine
 10
436.1423904502
 20
134.204911868
 30
0.0
 11
430.142390398
 21
134.204911868
 31
0.0
  0
LINE
  5
200
330
1F
100
AcDbEntity
  8
0
  6
Continuous
 62
     7
370
    25
100
AcDbLine
 10
441.5635222995
 20
134.204911868
 30
0.0
 11
441.5635222995
 21
134.4149102075
 31
0.0
  0
LINE
  5
201
330
1F
100
AcDbEntity
  8
0
  6
Continuous
 62
     7
370
    25
100
AcDbLine
 10
436.1423904502
 20
134.4149102075
 30
0.0
 11
441.5635222995
 21
134.4149102075
 31
0.0
  0
LINE
  5
202
330
1F
100
AcDbEntity
  8
0
  6
Continuous
 62
     7
370
    25
100
AcDbLine
 10
436.1423904502
 20
134.204911868
 30
0.0
 11
441.5635222995
 21
134.204911868
 31
0.0
  0
LINE
  5
203
330
1F
100
AcDbEntity
  8
0
  6
Continuous
 62
     7
370
    25
100
AcDbLine
 10
389.2455453479
 20
134.204911868
 30
0.0
 11
389.2455453479
 21
134.4149102075
 31
0.0
  0
LINE
  5
204
330
1F
100
AcDbEntity
  8
0
  6
Continuous
 62
     7
370
    25
100
AcDbLine
 10
389.2455453479
 20
134.4149102075
 30
0.0
 11
394.6666771971
 21
134.4149102075
 31
0.0
  0
LINE
  5
205
330
1F
100
AcDbEntity
  8
0
  6
Continuous
 62
     7
370
    25
100
AcDbLine
 10
394.6666771971
 20
134.204911868
 30
0.0
 11
394.6666771971
 21
134.4149102075
 31
0.0
  0
LINE
  5
206
330
1F
100
AcDbEntity
  8
0
  6
Continuous
 62
     7
370
    25
100
AcDbLine
 10
389.2455453479
 20
134.204911868
 30
0.0
 11
394.6666771971
 21
134.204911868
 31
0.0
  0
LINE
  5
207
330
1F
100
AcDbEntity
  8
0
  6
Continuous
 62
     7
370
    25
100
AcDbLine
 10
442.5264986657
 20
127.0856883926
 30
0.0
 11
442.3167871737
 21
127.0746950609
 31
0.0
  0
LINE
  5
208
330
1F
100
AcDbEntity
  8
0
  6
Continuous
 62
     7
370
    25
100
AcDbLine
 10
441.9629740023
 20
133.8258449537
 30
0.0
 11
442.1726854943
 21
133.8368345601
 31
0.0
  0
LINE
  5
209
330
1F
100
AcDbEntity
  8
0
  6
Continuous
 62
     7
370
    25
100
AcDbLine
 10
442.1726854943
 20
133.8368345601
 30
0.0
 11
442.5264986657
 21
127.0856883926
 31
0.0
  0
LINE
  5
20A
330
1F
100
AcDbEntity
  8
0
  6
Continuous
 62
     7
370
    25
100
AcDbLine
 10
441.9629740023
 20
133.8258449537
 30
0.0
 11
442.3167871737
 21
127.0746950609
 31
0.0
  0
ARC
  5
20B
330
1F
100
AcDbEntity
  8
0
  6
Continuous
 62
     7
370
    25
100
AcDbCircle
 10
442.5764303781
 20
127.0883034572
 30
0.0
 40
0.2600000000000192
100
AcDbArc
 50
183.0
 51
284.087489211
  0
ARC
  5
20C
330
1F
100
AcDbEntity
  8
0
  6
Continuous
 62
     7
370
    25
100
AcDbCircle
 10
442.5764303781
 20
127.0883034572
 30
0.0
 40
0.0500000000000249
100
AcDbArc
 50
183.0
 51
3.0
  0
ARC
  5
20D
330
1F
100
AcDbEntity
  8
0
  6
Continuous
 62
     7
370
    25
100
AcDbCircle
 10
441.5635221448
 20
133.8049109867
 30
0.0
 40
0.4000000000000057
100
AcDbArc
 50
3.0
 51
90.0
  0
ARC
  5
20E
330
1F
100
AcDbEntity
  8
0
  6
Continuous
 62
     7
370
    25
100
AcDbCircle
 10
441.5635221448
 20
133.8049109867
 30
0.0
 40
0.6099999999999852
100
AcDbArc
 50
3.0
 51
90.0
  0
ARC
  5
20F
330
1F
100
AcDbEntity
  8
0
  6
Continuous
 62
     7
370
    25
100
AcDbCircle
 10
389.2455455025
 20
133.8049109867
 30
0.0
 40
0.6100000000000475
100
AcDbArc
 50
90.0
 51
177.0
  0
ARC
  5
210
330
1F
100
AcDbEntity
  8
0
  6
Continuous
 62
     7
370
    25
100
AcDbCircle
 10
389.2455455025
 20
133.8049109867
 30
0.0
 40
0.4000000000000318
100
AcDbArc
 50
90.0
 51
177.0
  0
LINE
  5
211
330
1F
100
AcDbEntity
  8
0
  6
Continuous
 62
     7
370
    25
100
AcDbLine
 10
400.6666772493
 20
134.4149102075
 30
0.0
 11
400.6666772493
 21
134.204911868
 31
0.0
  0
LINE
  5
212
330
1F
100
AcDbEntity
  8
0
  6
Continuous
 62
     7
370
    25
100
AcDbLine
 10
394.6666771971
 20
134.4149102075
 30
0.0
 11
400.6666772493
 21
134.4149102075
 31
0.0
  0
LINE
  5
213
330
1F
100
AcDbEntity
  8
0
  6
Continuous
 62
     7
370
    25
100
AcDbLine
 10
400.6666772493
 20
134.204911868
 30
0.0
 11
394.6666771971
 21
134.204911868
 31
0.0
  0
DIMENSION
  5
214
330
1F
100
AcDbEntity
  8
0
  6
Continuous
 62
     7
370
    18
100
AcDbDimension
  2
_D_8
 10
415.4045338237
 20
168.831276576
 30
0.0
 11
458.6009806196
 21
193.7707652147
 31
0.0
 70
   164
  1
<>
 71
     1
 42
-1.0
  3
SLDDIMSTYLE4
100
AcDbRadialDimension
 15
437.0551689183
 25
181.331276576
 35
0.0
 40
0.0
  0
DIMENSION
  5
21D
330
1F
100
AcDbEntity
  8
0
  6
Continuous
 62
     7
370
    18
100
AcDbDimension
  2
_D_9
 10
440.5799843948
 20
170.1506660329
 30
0.0
 11
417.2924287911
 21
102.5794646113
 31
0.0
 70
   162
  1
<>
 71
     1
 42
-1.0
  3
SLDDIMSTYLE5
100
AcDb2LineAngularDimension
 13
388.7208306534
 23
137.3589542828
 33
0.0
 14
390.4387954548
 24
170.1396754821
 34
0.0
 15
442.2979491962
 25
137.3699448336
 35
0.0
 16
415.50967792
 26
102.5765538652
 36
0.0
  0
DIMENSION
  5
228
330
1F
100
AcDbEntity
  8
0
  6
Continuous
 62
     7
370
    18
100
AcDbDimension
  2
_D_10
 10
389.2455455025
 20
134.2049109867
 30
0.0
 11
399.7859165237
 21
125.1425419758
 31
0.0
 70
   162
  1
<>
 71
     1
 42
-1.0
  3
SLDDIMSTYLE5
100
AcDb2LineAngularDimension
 13
388.4922809482
 23
127.0746961086
 33
0.0
 14
388.8460936886
 24
133.8258453692
 34
0.0
 15
400.6666771168
 25
134.2049109867
 35
0.0
 16
398.6340964995
 26
123.9114425409
 36
0.0
  0
ENDSEC
  0
SECTION
  2
OBJECTS
  0
DICTIONARY
  5
C
330
0
100
AcDbDictionary
281
     1
  3
ACAD_GROUP
350
D
  3
ACAD_LAYOUT
350
1A
  3
ACAD_MLINESTYLE
350
17
  3
ACAD_PLOTSETTINGS
350
19
  3
ACAD_PLOTSTYLENAME
350
E
  3
ACAD_SCALELIST
350
47
  0
DICTIONARY
  5
D
102
{ACAD_REACTORS
330
C
102
}
330
C
100
AcDbDictionary
281
     1
  0
DICTIONARY
  5
1A
102
{ACAD_REACTORS
330
C
102
}
330
C
100
AcDbDictionary
281
     1
  3
Layout1
350
1E
  3
Layout2
350
26
  3
Model
350
22
  0
DICTIONARY
  5
17
102
{ACAD_REACTORS
330
C
102
}
330
C
100
AcDbDictionary
281
     1
  3
Standard
350
18
  0
DICTIONARY
  5
19
102
{ACAD_REACTORS
330
C
102
}
330
C
100
AcDbDictionary
281
     1
  0
ACDBDICTIONARYWDFLT
  5
E
102
{ACAD_REACTORS
330
C
102
}
330
C
100
AcDbDictionary
281
     1
  3
Normal
350
F
100
AcDbDictionaryWithDefault
340
F
  0
DICTIONARY
  5
47
102
{ACAD_REACTORS
330
C
102
}
330
C
100
AcDbDictionary
281
     1
  3
A0
350
48
  3
A1
350
49
  3
A2
350
4A
  3
A3
350
4B
  3
A4
350
4C
  3
A5
350
4D
  3
A6
350
4E
  3
A7
350
4F
  3
A8
350
50
  3
A9
350
51
  3
B0
350
52
  3
B1
350
53
  3
B2
350
54
  3
B3
350
55
  3
B4
350
56
  3
B5
350
57
  3
B6
350
58
  3
B7
350
59
  3
B8
350
5A
  3
B9
350
5B
  3
C0
350
5C
  3
C1
350
5D
  3
C2
350
5E
  3
C3
350
5F
  3
C4
350
60
  3
C5
350
61
  3
C6
350
62
  3
C7
350
63
  3
C8
350
64
  3
C9
350
65
  3
D0
350
66
  3
D1
350
67
  3
D2
350
68
  0
LAYOUT
  5
1E
102
{ACAD_REACTORS
330
1A
102
}
330
1A
100
AcDbPlotSettings
  1

  2
none_device
  4

  6

 40
0.0
 41
0.0
 42
0.0
 43
0.0
 44
0.0
 45
0.0
 46
0.0
 47
0.0
 48
0.0
 49
0.0
140
0.0
141
0.0
142
1.0
143
1.0
 70
   688
 72
     1
 73
     0
 74
     5
  7

 75
    16
147
1.0
148
0.0
149
0.0
100
AcDbLayout
  1
Layout1
 70
     1
 71
     1
 10
0.0
 20
0.0
 11
420.0
 21
297.0
 12
0.0
 22
0.0
 32
0.0
 14
1.0000000000E+20
 24
1.0000000000E+20
 34
1.0000000000E+20
 15
-1.0000000000E+20
 25
-1.0000000000E+20
 35
-1.0000000000E+20
146
0.0
 13
0.0
 23
0.0
 33
0.0
 16
1.0
 26
0.0
 36
0.0
 17
0.0
 27
1.0
 37
0.0
 76
     0
330
1B
  0
LAYOUT
  5
26
102
{ACAD_REACTORS
330
1A
102
}
330
1A
100
AcDbPlotSettings
  1

  2
none_device
  4

  6

 40
0.0
 41
0.0
 42
0.0
 43
0.0
 44
0.0
 45
0.0
 46
0.0
 47
0.0
 48
0.0
 49
0.0
140
0.0
141
0.0
142
1.0
143
1.0
 70
   688
 72
     1
 73
     0
 74
     5
  7

 75
    16
147
1.0
148
0.0
149
0.0
100
AcDbLayout
  1
Layout2
 70
     1
 71
     2
 10
0.0
 20
0.0
 11
0.0
 21
0.0
 12
0.0
 22
0.0
 32
0.0
 14
0.0
 24
0.0
 34
0.0
 15
0.0
 25
0.0
 35
0.0
146
0.0
 13
0.0
 23
0.0
 33
0.0
 16
1.0
 26
0.0
 36
0.0
 17
0.0
 27
1.0
 37
0.0
 76
     0
330
23
  0
LAYOUT
  5
22
102
{ACAD_REACTORS
330
1A
102
}
330
1A
100
AcDbPlotSettings
  1

  2
none_device
  4
Letter_(8.50_x_11.00_Inches)
  6

 40
6.35
 41
6.35
 42
6.35000508
 43
6.35000508
 44
215.9
 45
279.4
 46
0.0
 47
0.0
 48
0.0
 49
0.0
140
0.0
141
0.0
142
1.0
143
1.0
 70
  1712
 72
     1
 73
     0
 74
     0
  7

 75
     0
147
1.0
148
0.0
149
0.0
100
AcDbLayout
  1
Model
 70
     1
 71
     0
 10
0.0
 20
0.0
 11
594.0
 21
420.0
 12
0.0
 22
0.0
 32
0.0
 14
0.0
 24
0.0
 34
0.0
 15
594.0
 25
420.0
 35
0.0
146
0.0
 13
0.0
 23
0.0
 33
0.0
 16
1.0
 26
0.0
 36
0.0
 17
0.0
 27
1.0
 37
0.0
 76
     0
330
1F
331
29
  0
MLINESTYLE
  5
18
102
{ACAD_REACTORS
330
17
102
}
330
17
100
AcDbMlineStyle
  2
Standard
 70
     0
  3

 62
   256
 51
90.0
 52
90.0
 71
     2
 49
0.5
 62
   256
  6
BYLAYER
 49
-0.5
 62
   256
  6
BYLAYER
  0
ACDBPLACEHOLDER
  5
F
102
{ACAD_REACTORS
330
E
102
}
330
E
  0
SCALE
  5
48
102
{ACAD_REACTORS
330
47
102
}
330
47
100
AcDbScale
 70
     0
300
1:1
140
1.0
141
1.0
290
     1
  0
SCALE
  5
49
102
{ACAD_REACTORS
330
47
102
}
330
47
100
AcDbScale
 70
     0
300
1:2
140
1.0
141
2.0
290
     0
  0
SCALE
  5
4A
102
{ACAD_REACTORS
330
47
102
}
330
47
100
AcDbScale
 70
     0
300
1:4
140
1.0
141
4.0
290
     0
  0
SCALE
  5
4B
102
{ACAD_REACTORS
330
47
102
}
330
47
100
AcDbScale
 70
     0
300
1:5
140
1.0
141
5.0
290
     0
  0
SCALE
  5
4C
102
{ACAD_REACTORS
330
47
102
}
330
47
100
AcDbScale
 70
     0
300
1:8
140
1.0
141
8.0
290
     0
  0
SCALE
  5
4D
102
{ACAD_REACTORS
330
47
102
}
330
47
100
AcDbScale
 70
     0
300
1:10
140
1.0
141
10.0
290
     0
  0
SCALE
  5
4E
102
{ACAD_REACTORS
330
47
102
}
330
47
100
AcDbScale
 70
     0
300
1:16
140
1.0
141
16.0
290
     0
  0
SCALE
  5
4F
102
{ACAD_REACTORS
330
47
102
}
330
47
100
AcDbScale
 70
     0
300
1:20
140
1.0
141
20.0
290
     0
  0
SCALE
  5
50
102
{ACAD_REACTORS
330
47
102
}
330
47
100
AcDbScale
 70
     0
300
1:30
140
1.0
141
30.0
290
     0
  0
SCALE
  5
51
102
{ACAD_REACTORS
330
47
102
}
330
47
100
AcDbScale
 70
     0
300
1:40
140
1.0
141
40.0
290
     0
  0
SCALE
  5
52
102
{ACAD_REACTORS
330
47
102
}
330
47
100
AcDbScale
 70
     0
300
1:50
140
1.0
141
50.0
290
     0
  0
SCALE
  5
53
102
{ACAD_REACTORS
330
47
102
}
330
47
100
AcDbScale
 70
     0
300
1:100
140
1.0
141
100.0
290
     0
  0
SCALE
  5
54
102
{ACAD_REACTORS
330
47
102
}
330
47
100
AcDbScale
 70
     0
300
2:1
140
2.0
141
1.0
290
     0
  0
SCALE
  5
55
102
{ACAD_REACTORS
330
47
102
}
330
47
100
AcDbScale
 70
     0
300
4:1
140
4.0
141
1.0
290
     0
  0
SCALE
  5
56
102
{ACAD_REACTORS
330
47
102
}
330
47
100
AcDbScale
 70
     0
300
8:1
140
8.0
141
1.0
290
     0
  0
SCALE
  5
57
102
{ACAD_REACTORS
330
47
102
}
330
47
100
AcDbScale
 70
     0
300
10:1
140
10.0
141
1.0
290
     0
  0
SCALE
  5
58
102
{ACAD_REACTORS
330
47
102
}
330
47
100
AcDbScale
 70
     0
300
100:1
140
100.0
141
1.0
290
     0
  0
SCALE
  5
59
102
{ACAD_REACTORS
330
47
102
}
330
47
100
AcDbScale
 70
     0
300
1/128" = 1'-0"
140
0.0078125
141
12.0
290
     0
  0
SCALE
  5
5A
102
{ACAD_REACTORS
330
47
102
}
330
47
100
AcDbScale
 70
     0
300
1/64" = 1'-0"
140
0.015625
141
12.0
290
     0
  0
SCALE
  5
5B
102
{ACAD_REACTORS
330
47
102
}
330
47
100
AcDbScale
 70
     0
300
1/32" = 1'-0"
140
0.03125
141
12.0
290
     0
  0
SCALE
  5
5C
102
{ACAD_REACTORS
330
47
102
}
330
47
100
AcDbScale
 70
     0
300
1/16" = 1'-0"
140
0.0625
141
12.0
290
     0
  0
SCALE
  5
5D
102
{ACAD_REACTORS
330
47
102
}
330
47
100
AcDbScale
 70
     0
300
3/32" = 1'-0"
140
0.09375
141
12.0
290
     0
  0
SCALE
  5
5E
102
{ACAD_REACTORS
330
47
102
}
330
47
100
AcDbScale
 70
     0
300
1/8" = 1'-0"
140
0.125
141
12.0
290
     0
  0
SCALE
  5
5F
102
{ACAD_REACTORS
330
47
102
}
330
47
100
AcDbScale
 70
     0
300
3/16" = 1'-0"
140
0.1875
141
12.0
290
     0
  0
SCALE
  5
60
102
{ACAD_REACTORS
330
47
102
}
330
47
100
AcDbScale
 70
     0
300
1/4" = 1'-0"
140
0.25
141
12.0
290
     0
  0
SCALE
  5
61
102
{ACAD_REACTORS
330
47
102
}
330
47
100
AcDbScale
 70
     0
300
3/8" = 1'-0"
140
0.375
141
12.0
290
     0
  0
SCALE
  5
62
102
{ACAD_REACTORS
330
47
102
}
330
47
100
AcDbScale
 70
     0
300
1/2" = 1'-0"
140
0.5
141
12.0
290
     0
  0
SCALE
  5
63
102
{ACAD_REACTORS
330
47
102
}
330
47
100
AcDbScale
 70
     0
300
3/4" = 1'-0"
140
0.75
141
12.0
290
     0
  0
SCALE
  5
64
102
{ACAD_REACTORS
330
47
102
}
330
47
100
AcDbScale
 70
     0
300
1" = 1'-0"
140
1.0
141
12.0
290
     0
  0
SCALE
  5
65
102
{ACAD_REACTORS
330
47
102
}
330
47
100
AcDbScale
 70
     0
300
1-1/2" = 1'-0"
140
1.5
141
12.0
290
     0
  0
SCALE
  5
66
102
{ACAD_REACTORS
330
47
102
}
330
47
100
AcDbScale
 70
     0
300
3" = 1'-0"
140
3.0
141
12.0
290
     0
  0
SCALE
  5
67
102
{ACAD_REACTORS
330
47
102
}
330
47
100
AcDbScale
 70
     0
300
6" = 1'-0"
140
6.0
141
12.0
290
     0
  0
SCALE
  5
68
102
{ACAD_REACTORS
330
47
102
}
330
47
100
AcDbScale
 70
     0
300
1'-0" = 1'-0"
140
12.0
141
12.0
290
     0
  0
ENDSEC
  0
EOF
