  0
SECTION
  2
HEADER
  9
$ACADVER
  1
AC1015
  9
$ACADMAINTVER
 70
     6
  9
$DWGCODEPAGE
  3
ANSI_1252
  9
$INSBASE
 10
0.0
 20
0.0
 30
0.0
  9
$EXTMIN
 10
0.0
 20
0.0
 30
0.0
  9
$EXTMAX
 10
594.0
 20
420.0
 30
0.0
  9
$LIMMIN
 10
0.0
 20
0.0
  9
$LIMMAX
 10
594.0
 20
420.0
  9
$ORTHOMODE
 70
     0
  9
$REGENMODE
 70
     1
  9
$FILLMODE
 70
     1
  9
$QTEXTMODE
 70
     0
  9
$MIRRTEXT
 70
     1
  9
$LTSCALE
 40
2.0
  9
$ATTMODE
 70
     1
  9
$TEXTSIZE
 40
7.0
  9
$TRACEWID
 40
1.0
  9
$TEXTSTYLE
  7
Standard
  9
$CLAYER
  8
0
  9
$CELTYPE
  6
ByLayer
  9
$CECOLOR
 62
   256
  9
$CELTSCALE
 40
1.0
  9
$DISPSILH
 70
     0
  9
$DIMSCALE
 40
1.0
  9
$DIMASZ
 40
6.604
  9
$DIMEXO
 40
2.0
  9
$DIMDLI
 40
3.75
  9
$DIMRND
 40
0.0
  9
$DIMDLE
 40
0.0
  9
$DIMEXE
 40
2.0
  9
$DIMTP
 40
0.0
  9
$DIMTM
 40
0.0
  9
$DIMTXT
 40
7.0
  9
$DIMCEN
 40
2.5
  9
$DIMTSZ
 40
0.0
  9
$DIMTOL
 70
     0
  9
$DIMLIM
 70
     0
  9
$DIMTIH
 70
     1
  9
$DIMTOH
 70
     1
  9
$DIMSE1
 70
     0
  9
$DIMSE2
 70
     0
  9
$DIMTAD
 70
     1
  9
$DIMZIN
 70
     1
  9
$DIMBLK
  1

  9
$DIMASO
 70
     1
  9
$DIMSHO
 70
     1
  9
$DIMPOST
  1

  9
$DIMAPOST
  1

  9
$DIMALT
 70
     0
  9
$DIMALTD
 70
     3
  9
$DIMALTF
 40
0.0393700787
  9
$DIMLFAC
 40
1.0
  9
$DIMTOFL
 70
     1
  9
$DIMTVP
 40
0.0
  9
$DIMTIX
 70
     0
  9
$DIMSOXD
 70
     0
  9
$DIMSAH
 70
     0
  9
$DIMBLK1
  1

  9
$DIMBLK2
  1

  9
$DIMSTYLE
  2
ISO-25
  9
$DIMCLRD
 70
     0
  9
$DIMCLRE
 70
     0
  9
$DIMCLRT
 70
     0
  9
$DIMTFAC
 40
1.0
  9
$DIMGAP
 40
3.048
  9
$DIMJUST
 70
     0
  9
$DIMSD1
 70
     0
  9
$DIMSD2
 70
     0
  9
$DIMTOLJ
 70
     0
  9
$DIMTZIN
 70
     1
  9
$DIMALTZ
 70
     0
  9
$DIMALTTZ
 70
     0
  9
$DIMUPT
 70
     0
  9
$DIMDEC
 70
     2
  9
$DIMTDEC
 70
     2
  9
$DIMALTU
 70
     2
  9
$DIMALTTD
 70
     3
  9
$DIMTXSTY
  7
Standard
  9
$DIMAUNIT
 70
     0
  9
$DIMADEC
 70
     2
  9
$DIMALTRND
 40
0.0
  9
$DIMAZIN
 70
     0
  9
$DIMDSEP
 70
    44
  9
$DIMATFIT
 70
     3
  9
$DIMFRAC
 70
     0
  9
$DIMLDRBLK
  1

  9
$DIMLUNIT
 70
     2
  9
$DIMLWD
 70
    -2
  9
$DIMLWE
 70
    -2
  9
$DIMTMOVE
 70
     0
  9
$LUNITS
 70
     2
  9
$LUPREC
 70
     2
  9
$SKETCHINC
 40
1.0
  9
$FILLETRAD
 40
10.0
  9
$AUNITS
 70
     0
  9
$AUPREC
 70
     2
  9
$MENU
  1
.
  9
$ELEVATION
 40
0.0
  9
$PELEVATION
 40
0.0
  9
$THICKNESS
 40
0.0
  9
$LIMCHECK
 70
     0
  9
$CHAMFERA
 40
0.0
  9
$CHAMFERB
 40
0.0
  9
$CHAMFERC
 40
0.0
  9
$CHAMFERD
 40
0.0
  9
$SKPOLY
 70
     0
  9
$TDCREATE
 40
2459021.629436123
  9
$TDUCREATE
 40
2459021.837769456
  9
$TDUPDATE
 40
2459021.629437396
  9
$TDUUPDATE
 40
2459021.837770729
  9
$TDINDWG
 40
0.0000000116
  9
$TDUSRTIMER
 40
0.0000000116
  9
$USRTIMER
 70
     1
  9
$ANGBASE
 50
0.0
  9
$ANGDIR
 70
     0
  9
$PDMODE
 70
     0
  9
$PDSIZE
 40
-1.0
  9
$PLINEWID
 40
0.0
  9
$SPLFRAME
 70
     0
  9
$SPLINETYPE
 70
     6
  9
$SPLINESEGS
 70
     8
  9
$HANDSEED
  5
194
  9
$SURFTAB1
 70
     6
  9
$SURFTAB2
 70
     6
  9
$SURFTYPE
 70
     6
  9
$SURFU
 70
     6
  9
$SURFV
 70
     6
  9
$UCSBASE
  2

  9
$UCSNAME
  2

  9
$UCSORG
 10
0.0
 20
0.0
 30
0.0
  9
$UCSXDIR
 10
1.0
 20
0.0
 30
0.0
  9
$UCSYDIR
 10
0.0
 20
1.0
 30
0.0
  9
$UCSORTHOREF
  2

  9
$UCSORTHOVIEW
 70
     0
  9
$UCSORGTOP
 10
0.0
 20
0.0
 30
0.0
  9
$UCSORGBOTTOM
 10
0.0
 20
0.0
 30
0.0
  9
$UCSORGLEFT
 10
0.0
 20
0.0
 30
0.0
  9
$UCSORGRIGHT
 10
0.0
 20
0.0
 30
0.0
  9
$UCSORGFRONT
 10
0.0
 20
0.0
 30
0.0
  9
$UCSORGBACK
 10
0.0
 20
0.0
 30
0.0
  9
$PUCSBASE
  2

  9
$PUCSNAME
  2

  9
$PUCSORG
 10
0.0
 20
0.0
 30
0.0
  9
$PUCSXDIR
 10
1.0
 20
0.0
 30
0.0
  9
$PUCSYDIR
 10
0.0
 20
1.0
 30
0.0
  9
$PUCSORTHOREF
  2

  9
$PUCSORTHOVIEW
 70
     0
  9
$PUCSORGTOP
 10
0.0
 20
0.0
 30
0.0
  9
$PUCSORGBOTTOM
 10
0.0
 20
0.0
 30
0.0
  9
$PUCSORGLEFT
 10
0.0
 20
0.0
 30
0.0
  9
$PUCSORGRIGHT
 10
0.0
 20
0.0
 30
0.0
  9
$PUCSORGFRONT
 10
0.0
 20
0.0
 30
0.0
  9
$PUCSORGBACK
 10
0.0
 20
0.0
 30
0.0
  9
$USERI1
 70
     0
  9
$USERI2
 70
     0
  9
$USERI3
 70
     0
  9
$USERI4
 70
     0
  9
$USERI5
 70
     0
  9
$USERR1
 40
0.0
  9
$USERR2
 40
0.0
  9
$USERR3
 40
0.0
  9
$USERR4
 40
0.0
  9
$USERR5
 40
0.0
  9
$WORLDVIEW
 70
     1
  9
$SHADEDGE
 70
     3
  9
$SHADEDIF
 70
    70
  9
$TILEMODE
 70
     1
  9
$MAXACTVP
 70
    64
  9
$PINSBASE
 10
0.0
 20
0.0
 30
0.0
  9
$PLIMCHECK
 70
     0
  9
$PEXTMIN
 10
1.0000000000E+20
 20
1.0000000000E+20
 30
1.0000000000E+20
  9
$PEXTMAX
 10
-1.0000000000E+20
 20
-1.0000000000E+20
 30
-1.0000000000E+20
  9
$PLIMMIN
 10
0.0
 20
0.0
  9
$PLIMMAX
 10
420.0
 20
297.0
  9
$UNITMODE
 70
     0
  9
$VISRETAIN
 70
     1
  9
$PLINEGEN
 70
     0
  9
$PSLTSCALE
 70
     1
  9
$TREEDEPTH
 70
  3020
  9
$CMLSTYLE
  2
Standard
  9
$CMLJUST
 70
     0
  9
$CMLSCALE
 40
20.0
  9
$PROXYGRAPHICS
 70
     1
  9
$MEASUREMENT
 70
     1
  9
$CELWEIGHT
370
    -1
  9
$ENDCAPS
280
     0
  9
$JOINSTYLE
280
     0
  9
$LWDISPLAY
290
     1
  9
$INSUNITS
 70
     4
  9
$HYPERLINKBASE
  1

  9
$STYLESHEET
  1

  9
$XEDIT
290
     1
  9
$CEPSNTYPE
380
     0
  9
$PSTYLEMODE
290
     1
  9
$FINGERPRINTGUID
  2
{E2B095DA-BC33-40FA-887A-4458A6C1BABE}
  9
$VERSIONGUID
  2
{FAEB1C32-E019-11D5-929B-00C0DF256EC4}
  9
$EXTNAMES
290
     1
  9
$PSVPSCALE
 40
0.0
  9
$OLESTARTUP
290
     0
  0
ENDSEC
  0
SECTION
  2
CLASSES
  0
CLASS
  1
ACDBDICTIONARYWDFLT
  2
AcDbDictionaryWithDefault
  3
ObjectDBX Classes
 90
        0
280
     0
281
     0
  0
CLASS
  1
VISUALSTYLE
  2
AcDbVisualStyle
  3
ObjectDBX Classes
 90
     4095
280
     0
281
     0
  0
CLASS
  1
MATERIAL
  2
AcDbMaterial
  3
ObjectDBX Classes
 90
     1153
280
     0
281
     0
  0
CLASS
  1
SCALE
  2
AcDbScale
  3
ObjectDBX Classes
 90
     1153
280
     0
281
     0
  0
CLASS
  1
TABLESTYLE
  2
AcDbTableStyle
  3
ObjectDBX Classes
 90
     4095
280
     0
281
     0
  0
CLASS
  1
MLEADERSTYLE
  2
AcDbMLeaderStyle
  3
ACDB_MLEADERSTYLE_CLASS
 90
     4095
280
     0
281
     0
  0
CLASS
  1
SUN
  2
AcDbSun
  3
SCENEOE
 90
     1153
280
     0
281
     0
  0
CLASS
  1
ACDBPLACEHOLDER
  2
AcDbPlaceHolder
  3
ObjectDBX Classes
 90
        0
280
     0
281
     0
  0
CLASS
  1
LAYOUT
  2
AcDbLayout
  3
ObjectDBX Classes
 90
        0
280
     0
281
     0
  0
ENDSEC
  0
SECTION
  2
TABLES
  0
TABLE
  2
VPORT
  5
8
330
0
100
AcDbSymbolTable
 70
     1
  0
VPORT
  5
29
330
8
100
AcDbSymbolTableRecord
100
AcDbViewportTableRecord
  2
*Active
 70
     0
 10
0.0
 20
0.0
 11
1.0
 21
1.0
 12
297.0
 22
210.0
 13
0.0
 23
0.0
 14
10.0
 24
10.0
 15
10.0
 25
10.0
 16
0.0
 26
0.0
 36
1.0
 17
0.0
 27
0.0
 37
0.0
 40
420.0
 41
1.4142857143
 42
50.0
 43
0.0
 44
0.0
 50
0.0
 51
0.0
 71
     0
 72
  2000
 73
     1
 74
     3
 75
     0
 76
     0
 77
     0
 78
     0
281
     0
 65
     1
110
0.0
120
0.0
130
0.0
111
1.0
121
0.0
131
0.0
112
0.0
122
1.0
132
0.0
 79
     0
146
0.0
  0
ENDTAB
  0
TABLE
  2
LTYPE
  5
5
330
0
100
AcDbSymbolTable
 70
     6
  0
LTYPE
  5
14
330
5
100
AcDbSymbolTableRecord
100
AcDbLinetypeTableRecord
  2
ByBlock
 70
     0
  3

 72
    65
 73
     0
 40
0.0
  0
LTYPE
  5
15
330
5
100
AcDbSymbolTableRecord
100
AcDbLinetypeTableRecord
  2
ByLayer
 70
     0
  3

 72
    65
 73
     0
 40
0.0
  0
LTYPE
  5
16
330
5
100
AcDbSymbolTableRecord
100
AcDbLinetypeTableRecord
  2
Continuous
 70
     0
  3
Solid line
 72
    65
 73
     0
 40
0.0
  0
LTYPE
  5
6E
330
5
100
AcDbSymbolTableRecord
100
AcDbLinetypeTableRecord
  2
HIDDEN
 70
     0
  3
Hidden __ __ __ __ __ __ __ __ __ __ __ __ __ __
 72
    65
 73
     2
 40
1.905
 49
1.27
 74
     0
 49
-0.635
 74
     0
  0
LTYPE
  5
6F
330
5
100
AcDbSymbolTableRecord
100
AcDbLinetypeTableRecord
  2
PHANTOM
 70
     0
  3
Phantom ______  __  __  ______  __  __  ______
 72
    65
 73
     6
 40
12.7
 49
6.35
 74
     0
 49
-1.27
 74
     0
 49
1.27
 74
     0
 49
-1.27
 74
     0
 49
1.27
 74
     0
 49
-1.27
 74
     0
  0
LTYPE
  5
70
330
5
100
AcDbSymbolTableRecord
100
AcDbLinetypeTableRecord
  2
CENTER
 70
     0
  3
Center ____ _ ____ _ ____ _ ____ _ ____ _ ____
 72
    65
 73
     4
 40
10.16
 49
6.35
 74
     0
 49
-1.27
 74
     0
 49
1.27
 74
     0
 49
-1.27
 74
     0
  0
LTYPE
  5
71
330
5
100
AcDbSymbolTableRecord
100
AcDbLinetypeTableRecord
  2
CENTERX2
 70
     0
  3
Center (2x) ________  __  ________  __  _____
 72
    65
 73
     4
 40
20.32
 49
12.7
 74
     0
 49
-2.54
 74
     0
 49
2.54
 74
     0
 49
-2.54
 74
     0
  0
LTYPE
  5
72
330
5
100
AcDbSymbolTableRecord
100
AcDbLinetypeTableRecord
  2
DOT2
 70
     0
  3
Dot (.5x) ........................................
 72
    65
 73
     2
 40
0.635
 49
0.0
 74
     0
 49
-0.635
 74
     0
  0
ENDTAB
  0
TABLE
  2
LAYER
  5
2
330
0
100
AcDbSymbolTable
 70
     1
  0
LAYER
  5
10
330
2
100
AcDbSymbolTableRecord
100
AcDbLayerTableRecord
  2
0
 70
     0
 62
     7
  6
Continuous
370
    -3
390
F
  0
ENDTAB
  0
TABLE
  2
STYLE
  5
3
330
0
100
AcDbSymbolTable
 70
     4
  0
STYLE
  5
11
330
3
100
AcDbSymbolTableRecord
100
AcDbTextStyleTableRecord
  2
Standard
 70
     0
 40
0.0
 41
1.0
 50
0.0
 71
     0
 42
7.0
  3
txt
  4

  0
STYLE
  5
9F
330
3
100
AcDbSymbolTableRecord
100
AcDbTextStyleTableRecord
  2
SLDTEXTSTYLE0
 70
     0
 40
0.0
 41
0.75
 50
0.0
 71
     0
 42
7.0
  3
TXT
  4

  0
STYLE
  5
DA
330
3
100
AcDbSymbolTableRecord
100
AcDbTextStyleTableRecord
  2
SLDTEXTSTYLE1
 70
     0
 40
0.0
 41
0.671875
 50
0.0
 71
     0
 42
7.0
  3
TXT
  4

  0
STYLE
  5
DF
330
3
100
AcDbSymbolTableRecord
100
AcDbTextStyleTableRecord
  2
SLDTEXTSTYLE2
 70
     0
 40
0.0
 41
0.6458333333
 50
0.0
 71
     0
 42
7.0
  3
TXT
  4

  0
ENDTAB
  0
TABLE
  2
VIEW
  5
6
330
0
100
AcDbSymbolTable
 70
     0
  0
ENDTAB
  0
TABLE
  2
UCS
  5
7
330
0
100
AcDbSymbolTable
 70
     0
  0
ENDTAB
  0
TABLE
  2
APPID
  5
9
330
0
100
AcDbSymbolTable
 70
     1
  0
APPID
  5
12
330
9
100
AcDbSymbolTableRecord
100
AcDbRegAppTableRecord
  2
ACAD
 70
     0
  0
ENDTAB
  0
TABLE
  2
DIMSTYLE
  5
A
330
0
100
AcDbSymbolTable
 70
     4
100
AcDbDimStyleTable
  0
DIMSTYLE
105
27
330
A
100
AcDbSymbolTableRecord
100
AcDbDimStyleTableRecord
  2
ISO-25
 70
     0
 41
2.5
 42
0.625
 43
3.75
 44
1.25
 73
     0
 74
     0
 77
     1
 78
     8
140
2.5
141
2.5
143
0.0393700787
147
0.625
171
     3
172
     1
178
     0
271
     2
272
     2
274
     3
278
    44
283
     0
284
     8
340
11
  0
DIMSTYLE
105
A0
102
{ACAD_REACTORS
330
9E
330
B9
330
CE
102
}
330
A
100
AcDbSymbolTableRecord
100
AcDbDimStyleTableRecord
  2
SLDDIMSTYLE0
 70
     0
 41
6.604
 44
0.0
 45
0.000000001
 73
     0
 74
     0
 77
     1
 78
    12
 79
     3
140
7.0
147
1.75
172
     1
173
     1
178
     0
271
     2
272
     2
276
     2
284
    12
289
     0
340
9F
  0
DIMSTYLE
105
AD
102
{ACAD_REACTORS
330
AC
102
}
330
A
100
AcDbSymbolTableRecord
100
AcDbDimStyleTableRecord
  2
SLDDIMSTYLE1
 70
     0
 41
6.604
 44
0.0
 45
0.000000001
 73
     0
 74
     0
 77
     1
 78
     4
 79
     1
140
7.0
147
1.75
172
     1
173
     1
178
     0
271
     2
272
     2
276
     2
284
    12
289
     0
340
9F
  0
DIMSTYLE
105
C4
102
{ACAD_REACTORS
330
C3
102
}
330
A
100
AcDbSymbolTableRecord
100
AcDbDimStyleTableRecord
  2
SLDDIMSTYLE2
 70
     0
 41
6.604
 44
0.0
 45
0.000000001
 73
     0
 74
     0
 77
     1
 78
    12
 79
     3
140
7.0
147
1.75
173
     1
178
     0
271
     2
272
     2
276
     2
284
    12
340
9F
  0
ENDTAB
  0
TABLE
  2
BLOCK_RECORD
  5
1
330
0
100
AcDbSymbolTable
 70
     6
  0
BLOCK_RECORD
  5
1F
330
1
100
AcDbSymbolTableRecord
100
AcDbBlockTableRecord
  2
*Model_Space
340
22
  0
BLOCK_RECORD
  5
1B
330
1
100
AcDbSymbolTableRecord
100
AcDbBlockTableRecord
  2
*Paper_Space
340
1E
  0
BLOCK_RECORD
  5
23
330
1
100
AcDbSymbolTableRecord
100
AcDbBlockTableRecord
  2
*Paper_Space0
340
26
  0
BLOCK_RECORD
  5
A1
330
1
100
AcDbSymbolTableRecord
100
AcDbBlockTableRecord
  2
_D
340
0
  0
BLOCK_RECORD
  5
AE
330
1
100
AcDbSymbolTableRecord
100
AcDbBlockTableRecord
  2
_D_1
340
0
  0
BLOCK_RECORD
  5
BA
330
1
100
AcDbSymbolTableRecord
100
AcDbBlockTableRecord
  2
_D_2
340
0
  0
BLOCK_RECORD
  5
C5
330
1
100
AcDbSymbolTableRecord
100
AcDbBlockTableRecord
  2
_D_3
340
0
  0
BLOCK_RECORD
  5
CF
330
1
100
AcDbSymbolTableRecord
100
AcDbBlockTableRecord
  2
_D_4
340
0
  0
ENDTAB
  0
ENDSEC
  0
SECTION
  2
BLOCKS
  0
BLOCK
  5
20
330
1F
100
AcDbEntity
  8
0
100
AcDbBlockBegin
  2
*Model_Space
 70
     0
 10
0.0
 20
0.0
 30
0.0
  3
*Model_Space
  1

  0
ENDBLK
  5
21
330
1F
100
AcDbEntity
  8
0
100
AcDbBlockEnd
  0
BLOCK
  5
1C
330
1B
100
AcDbEntity
 67
     1
  8
0
100
AcDbBlockBegin
  2
*Paper_Space
 70
     0
 10
0.0
 20
0.0
 30
0.0
  3
*Paper_Space
  1

  0
ENDBLK
  5
1D
330
1B
100
AcDbEntity
 67
     1
  8
0
100
AcDbBlockEnd
  0
BLOCK
  5
24
330
23
100
AcDbEntity
  8
0
100
AcDbBlockBegin
  2
*Paper_Space0
 70
     0
 10
0.0
 20
0.0
 30
0.0
  3
*Paper_Space0
  1

  0
ENDBLK
  5
25
330
23
100
AcDbEntity
  8
0
100
AcDbBlockEnd
  0
BLOCK
  5
A2
330
A1
100
AcDbEntity
  8
0
100
AcDbBlockBegin
  2
_D
 70
     0
 10
0.0
 20
0.0
 30
0.0
  3
_D
  1

  0
SOLID
  5
A4
330
A1
100
AcDbEntity
  8
0
  6
Continuous
 62
     7
370
    18
100
AcDbTrace
 10
216.0596890078
 20
312.1563737493
 30
0.0
 11
209.4556890078
 21
313.1723737493
 31
0.0
 12
209.4556890078
 22
311.1403737493
 32
0.0
 13
209.4556890078
 23
311.1403737493
 33
0.0
  0
SOLID
  5
A5
330
A1
100
AcDbEntity
  8
0
  6
Continuous
 62
     7
370
    18
100
AcDbTrace
 10
262.4796890078
 20
312.1563737493
 30
0.0
 11
269.0836890078
 21
311.1403737493
 31
0.0
 12
269.0836890078
 22
313.1723737493
 32
0.0
 13
269.0836890078
 23
313.1723737493
 33
0.0
  0
LINE
  5
A6
330
A1
100
AcDbEntity
  8
0
  6
Continuous
 62
     7
370
    18
100
AcDbLine
 10
216.0596890078
 20
290.4267936085
 30
0.0
 11
216.0596890078
 21
314.1563737493
 31
0.0
  0
LINE
  5
A7
330
A1
100
AcDbEntity
  8
0
  6
Continuous
 62
     7
370
    18
100
AcDbLine
 10
262.4796890078
 20
290.4267936085
 30
0.0
 11
262.4796890078
 21
314.1563737493
 31
0.0
  0
LINE
  5
A8
330
A1
100
AcDbEntity
  8
0
  6
Continuous
 62
     7
370
    18
100
AcDbLine
 10
216.0596890078
 20
312.1563737493
 30
0.0
 11
203.3596890078
 21
312.1563737493
 31
0.0
  0
LINE
  5
A9
330
A1
100
AcDbEntity
  8
0
  6
Continuous
 62
     7
370
    18
100
AcDbLine
 10
216.0596890078
 20
312.1563737493
 30
0.0
 11
262.4796890078
 21
312.1563737493
 31
0.0
  0
LINE
  5
AA
330
A1
100
AcDbEntity
  8
0
  6
Continuous
 62
     7
370
    18
100
AcDbLine
 10
262.4796890078
 20
312.1563737493
 30
0.0
 11
275.1796890078
 21
312.1563737493
 31
0.0
  0
MTEXT
  5
AB
330
A1
100
AcDbEntity
  8
0
  6
Continuous
 62
     7
370
    18
100
AcDbMText
 10
228.5953440549
 20
321.1798475784
 30
0.0
 40
7.0
 41
0.0
 71
     1
 72
     1
  1
46.42
  7
SLDTEXTSTYLE0
 73
     1
 44
1.0
  0
ENDBLK
  5
A3
330
A1
100
AcDbEntity
  8
0
100
AcDbBlockEnd
  0
BLOCK
  5
AF
330
AE
100
AcDbEntity
  8
0
100
AcDbBlockBegin
  2
_D_1
 70
     0
 10
0.0
 20
0.0
 30
0.0
  3
_D_1
  1

  0
SOLID
  5
B1
330
AE
100
AcDbEntity
  8
0
  6
Continuous
 62
     7
370
    18
100
AcDbTrace
 10
190.5585534623
 20
284.1477007288
 30
0.0
 11
191.5745534623
 21
290.7517007288
 31
0.0
 12
189.5425534623
 22
290.7517007288
 32
0.0
 13
189.5425534623
 23
290.7517007288
 33
0.0
  0
SOLID
  5
B2
330
AE
100
AcDbEntity
  8
0
  6
Continuous
 62
     7
370
    18
100
AcDbTrace
 10
190.5585534623
 20
238.5477007288
 30
0.0
 11
189.5425534623
 21
231.9437007288
 31
0.0
 12
191.5745534623
 22
231.9437007288
 32
0.0
 13
191.5745534623
 23
231.9437007288
 33
0.0
  0
LINE
  5
B3
330
AE
100
AcDbEntity
  8
0
  6
Continuous
 62
     7
370
    18
100
AcDbLine
 10
210.1905961281
 20
284.1477007288
 30
0.0
 11
188.5585534623
 21
284.1477007288
 31
0.0
  0
LINE
  5
B4
330
AE
100
AcDbEntity
  8
0
  6
Continuous
 62
     7
370
    18
100
AcDbLine
 10
210.1905961281
 20
238.5477007288
 30
0.0
 11
188.5585534623
 21
238.5477007288
 31
0.0
  0
LINE
  5
B5
330
AE
100
AcDbEntity
  8
0
  6
Continuous
 62
     7
370
    18
100
AcDbLine
 10
190.5585534623
 20
284.1477007288
 30
0.0
 11
190.5585534623
 21
296.8477007288
 31
0.0
  0
LINE
  5
B6
330
AE
100
AcDbEntity
  8
0
  6
Continuous
 62
     7
370
    18
100
AcDbLine
 10
190.5585534623
 20
284.1477007288
 30
0.0
 11
190.5585534623
 21
238.5477007288
 31
0.0
  0
LINE
  5
B7
330
AE
100
AcDbEntity
  8
0
  6
Continuous
 62
     7
370
    18
100
AcDbLine
 10
190.5585534623
 20
238.5477007288
 30
0.0
 11
190.5585534623
 21
225.8477007288
 31
0.0
  0
MTEXT
  5
B8
330
AE
100
AcDbEntity
  8
0
  6
Continuous
 62
     7
370
    18
100
AcDbMText
 10
181.5350796332
 20
250.5566152774
 30
0.0
 40
7.0
 41
0.0
 71
     1
 72
     1
  1
45.60
  7
SLDTEXTSTYLE0
 11
-3.491481338843133E-15
 21
1.0
 31
0.0
 73
     1
 44
1.0
  0
ENDBLK
  5
B0
330
AE
100
AcDbEntity
  8
0
100
AcDbBlockEnd
  0
BLOCK
  5
BB
330
BA
100
AcDbEntity
  8
0
100
AcDbBlockBegin
  2
_D_2
 70
     0
 10
0.0
 20
0.0
 30
0.0
  3
_D_2
  1

  0
SOLID
  5
BD
330
BA
100
AcDbEntity
  8
0
  6
Continuous
 62
     7
370
    18
100
AcDbTrace
 10
216.2301425679
 20
262.1941157647
 30
0.0
 11
209.6261425679
 21
263.2101157647
 31
0.0
 12
209.6261425679
 22
261.1781157647
 32
0.0
 13
209.6261425679
 23
261.1781157647
 33
0.0
  0
SOLID
  5
BE
330
BA
100
AcDbEntity
  8
0
  6
Continuous
 62
     7
370
    18
100
AcDbTrace
 10
262.3092354476
 20
262.1941157647
 30
0.0
 11
268.9132354476
 21
261.1781157647
 31
0.0
 12
268.9132354476
 22
263.2101157647
 32
0.0
 13
268.9132354476
 23
263.2101157647
 33
0.0
  0
LINE
  5
BF
330
BA
100
AcDbEntity
  8
0
  6
Continuous
 62
     7
370
    18
100
AcDbLine
 10
216.2301425679
 20
262.1941157647
 30
0.0
 11
203.5301425679
 21
262.1941157647
 31
0.0
  0
LINE
  5
C0
330
BA
100
AcDbEntity
  8
0
  6
Continuous
 62
     7
370
    18
100
AcDbLine
 10
216.2301425679
 20
262.1941157647
 30
0.0
 11
262.3092354476
 21
262.1941157647
 31
0.0
  0
LINE
  5
C1
330
BA
100
AcDbEntity
  8
0
  6
Continuous
 62
     7
370
    18
100
AcDbLine
 10
262.3092354476
 20
262.1941157647
 30
0.0
 11
275.0092354476
 21
262.1941157647
 31
0.0
  0
MTEXT
  5
C2
330
BA
100
AcDbEntity
  8
0
  6
Continuous
 62
     7
370
    18
100
AcDbMText
 10
226.0788604086
 20
271.2175895938
 30
0.0
 40
7.0
 41
0.0
 71
     1
 72
     1
  1
46.08
  7
SLDTEXTSTYLE0
 73
     1
 44
1.0
  0
ENDBLK
  5
BC
330
BA
100
AcDbEntity
  8
0
100
AcDbBlockEnd
  0
BLOCK
  5
C6
330
C5
100
AcDbEntity
  8
0
100
AcDbBlockBegin
  2
_D_3
 70
     0
 10
0.0
 20
0.0
 30
0.0
  3
_D_3
  1

  0
SOLID
  5
C8
330
C5
100
AcDbEntity
  8
0
  6
Continuous
 62
     7
370
    18
100
AcDbTrace
 10
205.6258521619
 20
234.2686078492
 30
0.0
 11
204.6098521619
 21
227.6646078492
 31
0.0
 12
206.6418521619
 22
227.6646078492
 32
0.0
 13
206.6418521619
 23
227.6646078492
 33
0.0
  0
SOLID
  5
C9
330
C5
100
AcDbEntity
  8
0
  6
Continuous
 62
     7
370
    18
100
AcDbTrace
 10
205.6258521619
 20
166.0383193105
 30
0.0
 11
206.6418521619
 21
172.6423193105
 31
0.0
 12
204.6098521619
 22
172.6423193105
 32
0.0
 13
204.6098521619
 23
172.6423193105
 33
0.0
  0
LINE
  5
CA
330
C5
100
AcDbEntity
  8
0
  6
Continuous
 62
     7
370
    18
100
AcDbLine
 10
214.0596890078
 20
234.2686078492
 30
0.0
 11
203.6258521619
 21
234.2686078492
 31
0.0
  0
LINE
  5
CB
330
C5
100
AcDbEntity
  8
0
  6
Continuous
 62
     7
370
    18
100
AcDbLine
 10
234.2696890078
 20
166.0383193105
 30
0.0
 11
203.6258521619
 21
166.0383193105
 31
0.0
  0
LINE
  5
CC
330
C5
100
AcDbEntity
  8
0
  6
Continuous
 62
     7
370
    18
100
AcDbLine
 10
205.6258521619
 20
234.2686078492
 30
0.0
 11
205.6258521619
 21
166.0383193105
 31
0.0
  0
MTEXT
  5
CD
330
C5
100
AcDbEntity
  8
0
  6
Continuous
 62
     7
370
    18
100
AcDbMText
 10
196.6023783328
 20
175.5095820941
 30
0.0
 40
7.0
 41
0.0
 71
     1
 72
     1
  1
68.23
  7
SLDTEXTSTYLE0
 11
-4.379659758543259E-15
 21
1.0
 31
0.0
 73
     1
 44
1.0
  0
ENDBLK
  5
C7
330
C5
100
AcDbEntity
  8
0
100
AcDbBlockEnd
  0
BLOCK
  5
D0
330
CF
100
AcDbEntity
  8
0
100
AcDbBlockBegin
  2
_D_4
 70
     0
 10
0.0
 20
0.0
 30
0.0
  3
_D_4
  1

  0
SOLID
  5
D2
330
CF
100
AcDbEntity
  8
0
  6
Continuous
 62
     7
370
    18
100
AcDbTrace
 10
269.0355844095
 20
198.0052641577
 30
0.0
 11
270.0515844095
 21
204.6092641577
 31
0.0
 12
268.0195844095
 22
204.6092641577
 32
0.0
 13
268.0195844095
 23
204.6092641577
 33
0.0
  0
SOLID
  5
D3
330
CF
100
AcDbEntity
  8
0
  6
Continuous
 62
     7
370
    18
100
AcDbTrace
 10
269.0355844095
 20
166.0383193105
 30
0.0
 11
268.0195844095
 21
159.4343193105
 31
0.0
 12
270.0515844095
 22
159.4343193105
 32
0.0
 13
270.0515844095
 23
159.4343193105
 33
0.0
  0
LINE
  5
D4
330
CF
100
AcDbEntity
  8
0
  6
Continuous
 62
     7
370
    18
100
AcDbLine
 10
250.2696890078
 20
198.0052641577
 30
0.0
 11
271.0355844095
 21
198.0052641577
 31
0.0
  0
LINE
  5
D5
330
CF
100
AcDbEntity
  8
0
  6
Continuous
 62
     7
370
    18
100
AcDbLine
 10
244.2696890078
 20
166.0383193105
 30
0.0
 11
271.0355844095
 21
166.0383193105
 31
0.0
  0
LINE
  5
D6
330
CF
100
AcDbEntity
  8
0
  6
Continuous
 62
     7
370
    18
100
AcDbLine
 10
269.0355844095
 20
198.0052641577
 30
0.0
 11
269.0355844095
 21
210.7052641577
 31
0.0
  0
LINE
  5
D7
330
CF
100
AcDbEntity
  8
0
  6
Continuous
 62
     7
370
    18
100
AcDbLine
 10
269.0355844095
 20
198.0052641577
 30
0.0
 11
269.0355844095
 21
166.0383193105
 31
0.0
  0
LINE
  5
D8
330
CF
100
AcDbEntity
  8
0
  6
Continuous
 62
     7
370
    18
100
AcDbLine
 10
269.0355844095
 20
166.0383193105
 30
0.0
 11
269.0355844095
 21
153.3383193105
 31
0.0
  0
MTEXT
  5
D9
330
CF
100
AcDbEntity
  8
0
  6
Continuous
 62
     7
370
    18
100
AcDbMText
 10
260.0121105804
 20
171.0158991324
 30
0.0
 40
7.0
 41
0.0
 71
     1
 72
     1
  1
31.97
  7
SLDTEXTSTYLE0
 11
-3.491481338843133E-15
 21
1.0
 31
0.0
 73
     1
 44
1.0
  0
ENDBLK
  5
D1
330
CF
100
AcDbEntity
  8
0
100
AcDbBlockEnd
  0
ENDSEC
  0
SECTION
  2
ENTITIES
  0
LINE
  5
73
330
1F
100
AcDbEntity
  8
0
  6
CENTERX2
 62
     7
100
AcDbLine
 10
267.1005926892
 20
192.1923630438
 30
0.0
 11
267.1005926892
 21
219.5539745099
 31
0.0
  0
LINE
  5
74
330
1F
100
AcDbEntity
  8
0
  6
CENTERX2
 62
     7
100
AcDbLine
 10
257.7995568375
 20
386.3252988272
 30
0.0
 11
257.7995568375
 21
358.9636873612
 31
0.0
  0
LINE
  5
75
330
1F
100
AcDbEntity
  8
0
  6
CENTERX2
 62
     7
100
AcDbLine
 10
266.7139716561
 20
226.4862455741
 30
0.0
 11
266.7139716561
 21
199.1246341081
 31
0.0
  0
LINE
  5
76
330
1F
100
AcDbEntity
  8
0
  6
CENTERX2
 62
     7
100
AcDbLine
 10
258.1861778706
 20
352.0314162969
 30
0.0
 11
258.1861778706
 21
379.393027763
 31
0.0
  0
LINE
  5
77
330
1F
100
AcDbEntity
  8
0
  6
CENTERX2
 62
     7
100
AcDbLine
 10
265.9980313975
 20
201.820140013
 30
0.0
 11
212.5413466181
 21
201.820140013
 31
0.0
  0
LINE
  5
78
330
1F
100
AcDbEntity
  8
0
  6
CENTERX2
 62
     7
100
AcDbLine
 10
212.4902540987
 20
235.2459570459
 30
0.0
 11
266.0491239169
 21
235.2459570459
 31
0.0
  0
LINE
  5
79
330
1F
100
AcDbEntity
  8
0
  6
CENTERX2
 62
     7
100
AcDbLine
 10
262.0696890078
 20
238.308154289
 30
0.0
 11
216.4696890078
 21
238.308154289
 31
0.0
  0
LINE
  5
7A
330
1F
100
AcDbEntity
  8
0
  6
CENTERX2
 62
     7
100
AcDbLine
 10
216.2301425679
 20
238.5477007288
 30
0.0
 11
216.2301425679
 21
284.1477007288
 31
0.0
  0
LINE
  5
7B
330
1F
100
AcDbEntity
  8
0
  6
CENTERX2
 62
     7
100
AcDbLine
 10
216.4696890078
 20
284.3872471687
 30
0.0
 11
262.0696890078
 21
284.3872471687
 31
0.0
  0
LINE
  5
7C
330
1F
100
AcDbEntity
  8
0
  6
CENTERX2
 62
     7
100
AcDbLine
 10
262.3092354476
 20
284.1477007288
 30
0.0
 11
262.3092354476
 21
238.5477007288
 31
0.0
  0
LINE
  5
7D
330
1F
100
AcDbEntity
  8
0
  6
CENTERX2
 62
     7
100
AcDbLine
 10
248.2696890078
 20
198.0052641577
 30
0.0
 11
230.2696890078
 21
198.0052641577
 31
0.0
  0
LINE
  5
7E
330
1F
100
AcDbEntity
  8
0
  6
Continuous
 62
     7
370
    25
100
AcDbLine
 10
240.8696889674
 20
188.7144969774
 30
0.0
 11
240.8696889674
 21
173.9145000182
 31
0.0
  0
ARC
  5
7F
330
1F
100
AcDbEntity
  8
0
  6
Continuous
 62
     7
370
    25
100
AcDbCircle
 10
239.2696890078
 20
188.7144970547
 30
0.0
 40
1.600000000000023
100
AcDbArc
 50
0.0
 51
180.0
  0
LINE
  5
80
330
1F
100
AcDbEntity
  8
0
  6
Continuous
 62
     7
370
    25
100
AcDbLine
 10
237.6696890482
 20
188.7144969774
 30
0.0
 11
237.6696890482
 21
173.9145000182
 31
0.0
  0
ARC
  5
81
330
1F
100
AcDbEntity
  8
0
  6
Continuous
 62
     7
370
    25
100
AcDbCircle
 10
239.2696890078
 20
173.9144970547
 30
0.0
 40
1.600000000000023
100
AcDbArc
 50
180.0
 51
0.0
  0
LINE
  5
82
330
1F
100
AcDbEntity
  8
0
  6
Continuous
 62
     7
370
    25
100
AcDbLine
 10
262.0696893922
 20
237.9735888215
 30
0.0
 11
262.4796892545
 21
237.9735888215
 31
0.0
  0
LINE
  5
83
330
1F
100
AcDbEntity
  8
0
  6
Continuous
 62
     7
370
    25
100
AcDbLine
 10
262.4796892545
 20
234.2686060621
 30
0.0
 11
262.4796892545
 21
237.9735888215
 31
0.0
  0
LINE
  5
84
330
1F
100
AcDbEntity
  8
0
  6
Continuous
 62
     7
370
    25
100
AcDbLine
 10
254.2696886725
 20
234.2686060621
 30
0.0
 11
262.4796892545
 21
234.2686060621
 31
0.0
  0
ARC
  5
85
330
1F
100
AcDbEntity
  8
0
  6
Continuous
 62
     7
370
    25
100
AcDbCircle
 10
254.2696890078
 20
228.2686078492
 30
0.0
 40
6.000000000000028
100
AcDbArc
 50
90.0
 51
180.0
  0
LINE
  5
86
330
1F
100
AcDbEntity
  8
0
  6
Continuous
 62
     7
370
    25
100
AcDbLine
 10
248.2696886204
 20
228.2686092215
 30
0.0
 11
248.2696886204
 21
172.038321804
 31
0.0
  0
ARC
  5
87
330
1F
100
AcDbEntity
  8
0
  6
Continuous
 62
     7
370
    25
100
AcDbCircle
 10
242.2696890078
 20
172.0383193105
 30
0.0
 40
6.0
100
AcDbArc
 50
270.0
 51
0.0
  0
LINE
  5
88
330
1F
100
AcDbEntity
  8
0
  6
Continuous
 62
     7
370
    25
100
AcDbLine
 10
236.2696889817
 20
166.0383179622
 30
0.0
 11
242.2696890339
 21
166.0383179622
 31
0.0
  0
ARC
  5
89
330
1F
100
AcDbEntity
  8
0
  6
Continuous
 62
     7
370
    25
100
AcDbCircle
 10
236.2696890078
 20
172.0383193105
 30
0.0
 40
6.0
100
AcDbArc
 50
180.0
 51
270.0
  0
LINE
  5
8A
330
1F
100
AcDbEntity
  8
0
  6
Continuous
 62
     7
370
    25
100
AcDbLine
 10
230.2696893952
 20
228.2686092215
 30
0.0
 11
230.2696893952
 21
172.038321804
 31
0.0
  0
ARC
  5
8B
330
1F
100
AcDbEntity
  8
0
  6
Continuous
 62
     7
370
    25
100
AcDbCircle
 10
224.2696890078
 20
228.2686078492
 30
0.0
 40
6.0
100
AcDbArc
 50
0.0
 51
90.0
  0
LINE
  5
8C
330
1F
100
AcDbEntity
  8
0
  6
Continuous
 62
     7
370
    25
100
AcDbLine
 10
216.059688761
 20
234.2686060621
 30
0.0
 11
224.2696893431
 21
234.2686060621
 31
0.0
  0
LINE
  5
8D
330
1F
100
AcDbEntity
  8
0
  6
Continuous
 62
     7
370
    25
100
AcDbLine
 10
216.059688761
 20
237.9735888215
 30
0.0
 11
216.059688761
 21
234.2686060621
 31
0.0
  0
LINE
  5
8E
330
1F
100
AcDbEntity
  8
0
  6
Continuous
 62
     7
370
    25
100
AcDbLine
 10
216.4696886233
 20
237.9735888215
 30
0.0
 11
216.059688761
 21
237.9735888215
 31
0.0
  0
LINE
  5
8F
330
1F
100
AcDbEntity
  8
0
  6
Continuous
 62
     7
370
    25
100
AcDbLine
 10
216.4696886233
 20
237.9735888215
 30
0.0
 11
216.4696886233
 21
238.5477005576
 31
0.0
  0
LINE
  5
90
330
1F
100
AcDbEntity
  8
0
  6
Continuous
 62
     7
370
    25
100
AcDbLine
 10
212.1905966691
 20
238.5477005576
 30
0.0
 11
216.4696886233
 21
238.5477005576
 31
0.0
  0
LINE
  5
91
330
1F
100
AcDbEntity
  8
0
  6
Continuous
 62
     7
370
    25
100
AcDbLine
 10
212.1905966691
 20
284.147700358
 30
0.0
 11
212.1905966691
 21
238.5477005576
 31
0.0
  0
LINE
  5
92
330
1F
100
AcDbEntity
  8
0
  6
Continuous
 62
     7
370
    25
100
AcDbLine
 10
216.4696886233
 20
284.147700358
 30
0.0
 11
212.1905966691
 21
284.147700358
 31
0.0
  0
LINE
  5
93
330
1F
100
AcDbEntity
  8
0
  6
Continuous
 62
     7
370
    25
100
AcDbLine
 10
216.4696886233
 20
284.7218129308
 30
0.0
 11
216.4696886233
 21
284.147700358
 31
0.0
  0
LINE
  5
94
330
1F
100
AcDbEntity
  8
0
  6
Continuous
 62
     7
370
    25
100
AcDbLine
 10
216.4696886233
 20
284.7218129308
 30
0.0
 11
216.059688761
 21
284.7218129308
 31
0.0
  0
LINE
  5
95
330
1F
100
AcDbEntity
  8
0
  6
Continuous
 62
     7
370
    25
100
AcDbLine
 10
216.059688761
 20
288.4267943774
 30
0.0
 11
216.059688761
 21
284.7218129308
 31
0.0
  0
LINE
  5
96
330
1F
100
AcDbEntity
  8
0
  6
Continuous
 62
     7
370
    25
100
AcDbLine
 10
216.059688761
 20
288.4267943774
 30
0.0
 11
262.4796892545
 21
288.4267943774
 31
0.0
  0
LINE
  5
97
330
1F
100
AcDbEntity
  8
0
  6
Continuous
 62
     7
370
    25
100
AcDbLine
 10
262.4796892545
 20
284.7218129308
 30
0.0
 11
262.4796892545
 21
288.4267943774
 31
0.0
  0
LINE
  5
98
330
1F
100
AcDbEntity
  8
0
  6
Continuous
 62
     7
370
    25
100
AcDbLine
 10
262.4796892545
 20
284.7218129308
 30
0.0
 11
262.0696893922
 21
284.7218129308
 31
0.0
  0
LINE
  5
99
330
1F
100
AcDbEntity
  8
0
  6
Continuous
 62
     7
370
    25
100
AcDbLine
 10
262.0696893922
 20
284.147700358
 30
0.0
 11
262.0696893922
 21
284.7218129308
 31
0.0
  0
LINE
  5
9A
330
1F
100
AcDbEntity
  8
0
  6
Continuous
 62
     7
370
    25
100
AcDbLine
 10
266.3487813465
 20
284.147700358
 30
0.0
 11
262.0696893922
 21
284.147700358
 31
0.0
  0
LINE
  5
9B
330
1F
100
AcDbEntity
  8
0
  6
Continuous
 62
     7
370
    25
100
AcDbLine
 10
266.3487813465
 20
284.147700358
 30
0.0
 11
266.3487813465
 21
238.5477005576
 31
0.0
  0
LINE
  5
9C
330
1F
100
AcDbEntity
  8
0
  6
Continuous
 62
     7
370
    25
100
AcDbLine
 10
262.0696893922
 20
238.5477005576
 30
0.0
 11
266.3487813465
 21
238.5477005576
 31
0.0
  0
LINE
  5
9D
330
1F
100
AcDbEntity
  8
0
  6
Continuous
 62
     7
370
    25
100
AcDbLine
 10
262.0696893922
 20
237.9735888215
 30
0.0
 11
262.0696893922
 21
238.5477005576
 31
0.0
  0
DIMENSION
  5
9E
330
1F
100
AcDbEntity
  8
0
  6
Continuous
 62
     7
370
    18
100
AcDbDimension
  2
_D
 10
262.4796890078
 20
312.1563737493
 30
0.0
 11
240.2328445422
 21
312.1563737493
 31
0.0
 70
   160
  1
<>
 71
     2
 42
-1.0
  3
SLDDIMSTYLE0
100
AcDbAlignedDimension
 13
216.0596890078
 23
288.4267936085
 33
0.0
 14
262.4796890078
 24
288.4267936085
 34
0.0
 50
0.0
100
AcDbRotatedDimension
  0
DIMENSION
  5
AC
330
1F
100
AcDbEntity
  8
0
  6
Continuous
 62
     7
370
    18
100
AcDbDimension
  2
_D_1
 10
190.5585534623
 20
238.5477007288
 30
0.0
 11
190.5585534623
 21
262.1941157647
 31
0.0
 70
   160
  1
<>
 71
     2
 42
-1.0
  3
SLDDIMSTYLE1
100
AcDbAlignedDimension
 13
212.1905961281
 23
284.1477007288
 33
0.0
 14
212.1905961281
 24
238.5477007288
 34
0.0
 50
90.0
100
AcDbRotatedDimension
  0
DIMENSION
  5
B9
330
1F
100
AcDbEntity
  8
0
  6
Continuous
 62
     7
370
    18
100
AcDbDimension
  2
_D_2
 10
262.3092354476
 20
262.1941157647
 30
0.0
 11
237.7163608959
 21
262.1941157647
 31
0.0
 70
   160
  1
<>
 71
     2
 42
-1.0
  3
SLDDIMSTYLE0
100
AcDbAlignedDimension
 13
216.2301425679
 23
284.1477007288
 33
0.0
 14
262.3092354476
 24
284.1477007288
 34
0.0
 50
0.0
100
AcDbRotatedDimension
  0
DIMENSION
  5
C3
330
1F
100
AcDbEntity
  8
0
  6
Continuous
 62
     7
370
    18
100
AcDbDimension
  2
_D_3
 10
205.6258521619
 20
166.0383193105
 30
0.0
 11
205.6258521619
 21
187.1470825814
 31
0.0
 70
   160
  1
<>
 71
     2
 42
-1.0
  3
SLDDIMSTYLE2
100
AcDbAlignedDimension
 13
216.0596890078
 23
234.2686078492
 33
0.0
 14
236.2696890078
 24
166.0383193105
 34
0.0
 50
90.0
100
AcDbRotatedDimension
  0
DIMENSION
  5
CE
330
1F
100
AcDbEntity
  8
0
  6
Continuous
 62
     7
370
    18
100
AcDbDimension
  2
_D_4
 10
269.0355844095
 20
166.0383193105
 30
0.0
 11
269.0355844095
 21
182.6533996196
 31
0.0
 70
   160
  1
<>
 71
     2
 42
-1.0
  3
SLDDIMSTYLE0
100
AcDbAlignedDimension
 13
248.2696890078
 23
198.0052641577
 33
0.0
 14
242.2696890078
 24
166.0383193105
 34
0.0
 50
90.0
100
AcDbRotatedDimension
  0
MTEXT
  5
DB
330
1F
100
AcDbEntity
  8
0
  6
Continuous
 62
     7
370
     0
100
AcDbMText
 10
238.6973002858
 20
239.7053044361
 30
0.0
 40
3.175
 41
0.0
 71
     2
 72
     1
  1
DOWN  90°  R 0.2
  7
SLDTEXTSTYLE1
 73
     1
 44
1.0
  0
MTEXT
  5
DC
330
1F
100
AcDbEntity
  8
0
  6
Continuous
 62
     7
370
     0
100
AcDbMText
 10
214.7971997409
 20
260.5598451074
 30
0.0
 40
3.175
 41
0.0
 71
     2
 72
     1
  1
DOWN  90°  R 0.2
  7
SLDTEXTSTYLE1
 11
-3.491481338843133E-15
 21
1.0
 31
0.0
 73
     1
 44
1.0
  0
MTEXT
  5
DD
330
1F
100
AcDbEntity
  8
0
  6
Continuous
 62
     7
370
     0
100
AcDbMText
 10
238.8488227613
 20
286.2202766016
 30
0.0
 40
3.175
 41
0.0
 71
     2
 72
     1
  1
DOWN  90°  R 0.2
  7
SLDTEXTSTYLE1
 73
     1
 44
1.0
  0
MTEXT
  5
DE
330
1F
100
AcDbEntity
  8
0
  6
Continuous
 62
     7
370
     0
100
AcDbMText
 10
260.5241434916
 20
261.6362890881
 30
0.0
 40
3.175
 41
0.0
 71
     2
 72
     1
  1
DOWN  90°  R 0.2
  7
SLDTEXTSTYLE1
 11
-3.491481338843133E-15
 21
1.0
 31
0.0
 73
     1
 44
1.0
  0
MTEXT
  5
E0
330
1F
100
AcDbEntity
  8
0
  6
Continuous
 62
     7
370
     0
100
AcDbMText
 10
237.7335773698
 20
206.835480763
 30
0.0
 40
7.0
 41
0.0
 71
     2
 72
     1
  1
UP  20°  R 8
  7
SLDTEXTSTYLE2
 73
     1
 44
1.0
  0
LINE
  5
E1
330
1F
100
AcDbEntity
  8
0
  6
Continuous
 62
     7
370
    25
100
AcDbLine
 10
309.4587270216
 20
208.497609604
 30
0.0
 11
316.7373632954
 21
178.8721782032
 31
0.0
  0
LINE
  5
E2
330
1F
100
AcDbEntity
  8
0
  6
Continuous
 62
     7
370
    25
100
AcDbLine
 10
317.0279926955
 20
178.5743527678
 30
0.0
 11
357.357459724
 21
167.6136677854
 31
0.0
  0
LINE
  5
E3
330
1F
100
AcDbEntity
  8
0
  6
Continuous
 62
     7
370
    25
100
AcDbLine
 10
375.7037981922
 20
213.2196544055
 30
0.0
 11
375.7037981922
 21
213.3996613085
 31
0.0
  0
LINE
  5
E4
330
1F
100
AcDbEntity
  8
0
  6
Continuous
 62
     7
370
    25
100
AcDbLine
 10
309.833112311
 20
208.9303310466
 30
0.0
 11
309.4705010029
 21
209.0288810303
 31
0.0
  0
LINE
  5
E5
330
1F
100
AcDbEntity
  8
0
  6
Continuous
 62
     7
370
    25
100
AcDbLine
 10
311.0953200542
 20
211.7009377676
 30
0.0
 11
309.4705010029
 21
209.0288810303
 31
0.0
  0
LINE
  5
E6
330
1F
100
AcDbEntity
  8
0
  6
Continuous
 62
     7
370
    25
100
AcDbLine
 10
311.0953200542
 20
211.7009377676
 30
0.0
 11
352.1500096989
 21
200.5431528177
 31
0.0
  0
LINE
  5
E7
330
1F
100
AcDbEntity
  8
0
  6
Continuous
 62
     7
370
    25
100
AcDbLine
 10
350.5251906477
 20
197.8710960804
 30
0.0
 11
352.1500096989
 21
200.5431528177
 31
0.0
  0
LINE
  5
E8
330
1F
100
AcDbEntity
  8
0
  6
Continuous
 62
     7
370
    25
100
AcDbLine
 10
350.5251906477
 20
197.8710960804
 30
0.0
 11
350.1625793396
 21
197.9696460642
 31
0.0
  0
LINE
  5
E9
330
1F
100
AcDbEntity
  8
0
  6
Continuous
 62
     7
370
    25
100
AcDbLine
 10
350.1209091547
 20
197.9011180337
 30
0.0
 11
350.1625793396
 21
197.9696460642
 31
0.0
  0
LINE
  5
EA
330
1F
100
AcDbEntity
  8
0
  6
Continuous
 62
     7
370
    25
100
AcDbLine
 10
309.7914421261
 20
208.8618030161
 30
0.0
 11
350.1209091547
 21
197.9011180337
 31
0.0
  0
LINE
  5
EB
330
1F
100
AcDbEntity
  8
0
  6
Continuous
 62
     7
370
    25
100
AcDbLine
 10
309.833112311
 20
208.9303310466
 30
0.0
 11
309.7914421261
 21
208.8618030161
 31
0.0
  0
LINE
  5
EC
330
1F
100
AcDbEntity
  8
0
  6
Continuous
 62
     7
370
    25
100
AcDbLine
 10
350.5251906477
 20
197.8710960804
 30
0.0
 11
350.5587103892
 21
197.7346627419
 31
0.0
  0
LINE
  5
ED
330
1F
100
AcDbEntity
  8
0
  6
Continuous
 62
     7
370
    25
100
AcDbLine
 10
352.1500096989
 20
200.5431528177
 30
0.0
 11
352.183531179
 21
200.4067215752
 31
0.0
  0
LINE
  5
EE
330
1F
100
AcDbEntity
  8
0
  6
Continuous
 62
     7
370
    25
100
AcDbLine
 10
350.5587103892
 20
197.7346627419
 30
0.0
 11
352.183531179
 21
200.4067215752
 31
0.0
  0
LINE
  5
EF
330
1F
100
AcDbEntity
  8
0
  6
Continuous
 62
     7
370
    25
100
AcDbLine
 10
359.4940911817
 20
170.6513511241
 30
0.0
 11
357.827600207
 21
167.9107654577
 31
0.0
  0
LINE
  5
F0
330
1F
100
AcDbEntity
  8
0
  6
Continuous
 62
     7
370
    25
100
AcDbLine
 10
350.5489639332
 20
197.5361988542
 30
0.0
 11
357.827600207
 21
167.9107654577
 31
0.0
  0
LINE
  5
F1
330
1F
100
AcDbEntity
  8
0
  6
Continuous
 62
     7
370
    25
100
AcDbLine
 10
352.2154549079
 20
200.2767853189
 30
0.0
 11
350.5489639332
 21
197.5361988542
 31
0.0
  0
LINE
  5
F2
330
1F
100
AcDbEntity
  8
0
  6
Continuous
 62
     7
370
    25
100
AcDbLine
 10
352.2154549079
 20
200.2767853189
 30
0.0
 11
359.4940911817
 21
170.6513511241
 31
0.0
  0
LINE
  5
F3
330
1F
100
AcDbEntity
  8
0
  6
Continuous
 62
     7
370
    25
100
AcDbLine
 10
350.363235949
 20
197.5866757407
 30
0.0
 11
350.5489639332
 21
197.5361988542
 31
0.0
  0
LINE
  5
F4
330
1F
100
AcDbEntity
  8
0
  6
Continuous
 62
     7
370
    25
100
AcDbLine
 10
350.4681850774
 20
197.7592666402
 30
0.0
 11
350.363235949
 21
197.5866757407
 31
0.0
  0
LINE
  5
F5
330
1F
100
AcDbEntity
  8
0
  6
Continuous
 62
     7
370
    25
100
AcDbLine
 10
352.1202524924
 20
200.3026592955
 30
0.0
 11
352.2154549079
 21
200.2767853189
 31
0.0
  0
ARC
  5
F6
330
1F
100
AcDbEntity
  8
0
  6
Continuous
 62
     7
370
    25
100
AcDbCircle
 10
350.8470551218
 20
197.4607045013
 30
0.0
 40
0.8492655915988508
100
AcDbArc
 50
148.7628421423
 51
188.235471227
  0
LINE
  5
F7
330
1F
100
AcDbEntity
  8
0
  6
Continuous
 62
     7
370
    25
100
AcDbLine
 10
350.0065473768
 20
197.3390542825
 30
0.0
 11
309.6770803483
 21
208.2997392649
 31
0.0
  0
ARC
  5
F8
330
1F
100
AcDbEntity
  8
0
  6
Continuous
 62
     7
370
    25
100
AcDbCircle
 10
310.5175880933
 20
208.4213894837
 30
0.0
 40
0.8492655915985928
100
AcDbArc
 50
148.7628421423
 51
188.235471227
  0
LINE
  5
F9
330
1F
100
AcDbEntity
  8
0
  6
Continuous
 62
     7
370
    25
100
AcDbLine
 10
350.1544288962
 20
197.7646850942
 30
0.0
 11
350.1209091547
 21
197.9011180337
 31
0.0
  0
ARC
  5
FA
330
1F
100
AcDbEntity
  8
0
  6
Continuous
 62
     7
370
    25
100
AcDbCircle
 10
350.5086628312
 20
197.5498437961
 30
0.0
 40
0.4142927275093837
100
AcDbArc
 50
148.7633756855
 51
188.2345812458
  0
LINE
  5
FB
330
1F
100
AcDbEntity
  8
0
  6
Continuous
 62
     7
370
    25
100
AcDbLine
 10
350.0986414758
 20
197.4905061843
 30
0.0
 11
350.0065473768
 21
197.3390542825
 31
0.0
  0
ARC
  5
FC
330
1F
100
AcDbEntity
  8
0
  6
Continuous
 62
     7
370
    25
100
AcDbCircle
 10
357.4152599504
 20
168.2005006446
 30
0.0
 40
0.5039553212322668
100
AcDbArc
 50
255.0420081551
 51
324.9058041953
  0
LINE
  5
FD
330
1F
100
AcDbEntity
  8
0
  6
Continuous
 62
     7
370
    25
100
AcDbLine
 10
357.2851836506
 20
167.7136216843
 30
0.0
 11
350.0065473768
 21
197.3390542825
 31
0.0
  0
ARC
  5
FE
330
1F
100
AcDbEntity
  8
0
  6
Continuous
 62
     7
370
    25
100
AcDbCircle
 10
350.1366226427
 20
197.8259349143
 30
0.0
 40
0.5039566691105286
100
AcDbArc
 50
255.0421707628
 51
324.9057905583
  0
ARC
  5
FF
330
1F
100
AcDbEntity
  8
0
  6
Continuous
 62
     7
370
    25
100
AcDbCircle
 10
350.1620908481
 20
197.7280143626
 30
0.0
 40
0.2458372584309843
100
AcDbArc
 50
255.0429425954
 51
324.9054387313
  0
LINE
  5
100
330
1F
100
AcDbEntity
  8
0
  6
Continuous
 62
     7
370
    25
100
AcDbLine
 10
350.1960990811
 20
197.8332127256
 30
0.0
 11
350.1625793396
 21
197.9696460642
 31
0.0
  0
LINE
  5
101
330
1F
100
AcDbEntity
  8
0
  6
Continuous
 62
     7
370
    25
100
AcDbLine
 10
350.5587103892
 20
197.7346627419
 30
0.0
 11
350.1960990811
 21
197.8332127256
 31
0.0
  0
LINE
  5
102
330
1F
100
AcDbEntity
  8
0
  6
Continuous
 62
     7
370
    25
100
AcDbLine
 10
350.1544288962
 20
197.7646850942
 30
0.0
 11
350.1960990811
 21
197.8332127256
 31
0.0
  0
LINE
  5
103
330
1F
100
AcDbEntity
  8
0
  6
Continuous
 62
     7
370
    25
100
AcDbLine
 10
309.6770803483
 20
208.2997392649
 30
0.0
 11
316.9557166221
 21
178.6743066667
 31
0.0
  0
LINE
  5
104
330
1F
100
AcDbEntity
  8
0
  6
Continuous
 62
     7
370
    25
100
AcDbLine
 10
316.9557166221
 20
178.6743066667
 30
0.0
 11
357.2851836506
 21
167.7136216843
 31
0.0
  0
LINE
  5
105
330
1F
100
AcDbEntity
  8
0
  6
Continuous
 62
     7
370
    25
100
AcDbLine
 10
309.6800022727
 20
208.6435069176
 30
0.0
 11
309.4942742885
 21
208.6939838041
 31
0.0
  0
LINE
  5
106
330
1F
100
AcDbEntity
  8
0
  6
Continuous
 62
     7
370
    25
100
AcDbLine
 10
309.5992234169
 20
208.8665747036
 30
0.0
 11
309.4942742885
 21
208.6939838041
 31
0.0
  0
LINE
  5
107
330
1F
100
AcDbEntity
  8
0
  6
Continuous
 62
     7
370
    25
100
AcDbLine
 10
309.7215924831
 20
208.7119034045
 30
0.0
 11
309.6800022727
 21
208.6435069176
 31
0.0
  0
LINE
  5
108
330
1F
100
AcDbEntity
  8
0
  6
Continuous
 62
     7
370
    25
100
AcDbLine
 10
309.689800886
 20
208.6036236094
 30
0.0
 11
309.6800022727
 21
208.6435069176
 31
0.0
  0
ARC
  5
109
330
1F
100
AcDbEntity
  8
0
  6
Continuous
 62
     7
370
    25
100
AcDbCircle
 10
309.7151670052
 20
208.5569042164
 30
0.0
 40
0.2599700091706265
100
AcDbArc
 50
148.1774663405
 51
261.5756154117
  0
ARC
  5
10A
330
1F
100
AcDbEntity
  8
0
  6
Continuous
 62
     7
370
    25
100
AcDbCircle
 10
309.7803598018
 20
208.5763747276
 30
0.0
 40
0.1207408985095945
100
AcDbArc
 50
146.2202370753
 51
208.1306428045
  0
ARC
  5
10B
330
1F
100
AcDbEntity
  8
0
  6
Continuous
 62
     7
370
    25
100
AcDbCircle
 10
317.0143756208
 20
178.9584508575
 30
0.0
 40
0.2901358290260725
100
AcDbArc
 50
197.298665627
 51
258.3356652065
  0
LINE
  5
10C
330
1F
100
AcDbEntity
  8
0
  6
Continuous
 62
     7
370
    25
100
AcDbLine
 10
309.4705010029
 20
209.0288810303
 30
0.0
 11
309.5040207444
 21
208.8924476917
 31
0.0
  0
LINE
  5
10D
330
1F
100
AcDbEntity
  8
0
  6
Continuous
 62
     7
370
    25
100
AcDbLine
 10
309.7683655527
 20
208.820604437
 30
0.0
 11
309.5040207444
 21
208.8924476917
 31
0.0
  0
LINE
  5
10E
330
1F
100
AcDbEntity
  8
0
  6
Continuous
 62
     7
370
    25
100
AcDbLine
 10
345.6592906198
 20
202.3071918512
 30
0.0
 11
346.3218357804
 21
203.3967654399
 31
0.0
  0
LINE
  5
10F
330
1F
100
AcDbEntity
  8
0
  6
Continuous
 62
     7
370
    25
100
AcDbLine
 10
346.3218357804
 20
203.3967654399
 30
0.0
 11
362.2413612853
 21
199.0701795219
 31
0.0
  0
LINE
  5
110
330
1F
100
AcDbEntity
  8
0
  6
Continuous
 62
     7
370
    25
100
AcDbLine
 10
355.3117523625
 20
187.6742627204
 30
0.0
 11
362.2413612853
 21
199.0701795219
 31
0.0
  0
LINE
  5
111
330
1F
100
AcDbEntity
  8
0
  6
Continuous
 62
     7
370
    25
100
AcDbLine
 10
359.4308124951
 20
170.5472900418
 30
0.0
 11
359.5260149107
 21
170.5214160652
 31
0.0
  0
LINE
  5
112
330
1F
100
AcDbEntity
  8
0
  6
Continuous
 62
     7
370
    25
100
AcDbLine
 10
359.5260149107
 20
170.5214160652
 30
0.0
 11
357.9011941209
 21
167.8493592276
 31
0.0
  0
LINE
  5
113
330
1F
100
AcDbEntity
  8
0
  6
Continuous
 62
     7
370
    25
100
AcDbLine
 10
357.8033641707
 20
167.8759473119
 30
0.0
 11
357.9011941209
 21
167.8493592276
 31
0.0
  0
LINE
  5
114
330
1F
100
AcDbEntity
  8
0
  6
Continuous
 62
     7
370
    25
100
AcDbLine
 10
359.5595346522
 20
170.3849823275
 30
0.0
 11
359.5260149107
 21
170.5214160652
 31
0.0
  0
LINE
  5
115
330
1F
100
AcDbEntity
  8
0
  6
Continuous
 62
     7
370
    25
100
AcDbLine
 10
357.9347138624
 20
167.7129254899
 30
0.0
 11
357.9011941209
 21
167.8493592276
 31
0.0
  0
LINE
  5
116
330
1F
100
AcDbEntity
  8
0
  6
Continuous
 62
     7
370
    25
100
AcDbLine
 10
359.5595346522
 20
170.3849823275
 30
0.0
 11
357.9347138624
 21
167.7129254899
 31
0.0
  0
LWPOLYLINE
  5
117
330
1F
100
AcDbEntity
  8
0
  6
Continuous
 62
     7
370
    25
100
AcDbPolyline
 90
        9
 70
   128
 43
0.0
 10
357.5064191604
 20
167.7066500122
 10
357.494096135
 20
167.6903786029
 10
357.4566419965
 20
167.6500638226
 10
357.4195094945
 20
167.6235606132
 10
357.3841225225
 20
167.6118755549
 10
357.3518441241
 20
167.615467277
 10
357.3239139038
 20
167.6341949494
 10
357.3014063015
 20
167.667338227
 10
357.2851836506
 20
167.7136216843
  0
ARC
  5
118
330
1F
100
AcDbEntity
  8
0
  6
Continuous
 62
     7
370
    25
100
AcDbCircle
 10
317.0720423018
 20
178.6823129279
 30
0.0
 40
0.1166008746862655
100
AcDbArc
 50
183.9372449233
 51
247.8036937425
  0
LINE
  5
119
330
1F
100
AcDbEntity
  8
0
  6
Continuous
 62
     7
370
    25
100
AcDbLine
 10
357.6930976403
 20
167.7785916019
 30
0.0
 11
357.9347138624
 21
167.7129254899
 31
0.0
  0
LINE
  5
11A
330
1F
100
AcDbEntity
  8
0
  6
Continuous
 62
     7
370
    25
100
AcDbLine
 10
362.2413612853
 20
199.0701795219
 30
0.0
 11
362.2748814614
 21
198.9337462084
 31
0.0
  0
LINE
  5
11B
330
1F
100
AcDbEntity
  8
0
  6
Continuous
 62
     7
370
    25
100
AcDbLine
 10
355.345272104
 20
187.5378289827
 30
0.0
 11
362.2748814614
 21
198.9337462084
 31
0.0
  0
ARC
  5
11C
330
1F
100
AcDbEntity
  8
0
  6
Continuous
 62
     7
370
    25
100
AcDbCircle
 10
369.5966936897
 20
194.6222133529
 30
0.0
 40
8.496955329401452
100
AcDbArc
 50
135.3501320638
 51
149.5078095682
  0
ARC
  5
11D
330
1F
100
AcDbEntity
  8
0
  6
Continuous
 62
     7
370
    25
100
AcDbCircle
 10
369.7554387558
 20
194.6454213169
 30
0.0
 40
8.720082878402492
100
AcDbArc
 50
135.3502148891
 51
149.5077656152
  0
LINE
  5
11E
330
1F
100
AcDbEntity
  8
0
  6
Continuous
 62
     7
370
    25
100
AcDbLine
 10
363.5518351822
 20
200.7736468437
 30
0.0
 11
363.5518351822
 21
200.5936399408
 31
0.0
  0
LINE
  5
11F
330
1F
100
AcDbEntity
  8
0
  6
Continuous
 62
     7
370
    25
100
AcDbLine
 10
363.5518351822
 20
200.7736468437
 30
0.0
 11
347.6323096774
 21
205.1002327618
 31
0.0
  0
ARC
  5
120
330
1F
100
AcDbEntity
  8
0
  6
Continuous
 62
     7
370
    25
100
AcDbCircle
 10
353.835913251
 20
198.972007235
 30
0.0
 40
8.720082878411622
100
AcDbArc
 50
135.3502148891
 51
149.5077656152
  0
LINE
  5
121
330
1F
100
AcDbEntity
  8
0
  6
Continuous
 62
     7
370
    25
100
AcDbLine
 10
363.5518351822
 20
200.7736468437
 30
0.0
 11
375.0103065083
 21
211.9574661337
 31
0.0
  0
LINE
  5
122
330
1F
100
AcDbEntity
  8
0
  6
Continuous
 62
     7
370
    25
100
AcDbLine
 10
375.0103065083
 20
211.7774592307
 30
0.0
 11
375.0103065083
 21
211.9574661337
 31
0.0
  0
LINE
  5
123
330
1F
100
AcDbEntity
  8
0
  6
Continuous
 62
     7
370
    25
100
AcDbLine
 10
363.5518351822
 20
200.5936399408
 30
0.0
 11
375.0103065083
 21
211.7774592307
 31
0.0
  0
LWPOLYLINE
  5
124
330
1F
100
AcDbEntity
  8
0
  6
Continuous
 62
     7
370
    25
100
AcDbPolyline
 90
       15
 70
   128
 43
0.0
 10
375.0103065083
 20
211.9574661337
 10
375.2904609199
 20
212.2725392955
 10
375.5003587041
 20
212.6017864793
 10
375.6373616523
 20
212.9410673824
 10
375.6997460506
 20
213.2861157341
 10
375.6867290755
 20
213.6325917801
 10
375.5984724463
 20
213.9761387797
 10
375.4360867651
 20
214.3124360612
 10
375.2016147156
 20
214.6372545696
 10
374.8980041501
 20
214.9465097384
 10
374.529074038
 20
215.2363130475
 10
374.0994627072
 20
215.5030186314
 10
373.6145728815
 20
215.7432729275
 10
373.0805038607
 20
215.9540558868
 10
372.5039700672
 20
216.1327150427
  0
LINE
  5
125
330
1F
100
AcDbEntity
  8
0
  6
Continuous
 62
     7
370
    25
100
AcDbLine
 10
347.6323096774
 20
205.1002327618
 30
0.0
 11
359.0907810034
 21
216.2840520517
 31
0.0
  0
ARC
  5
126
330
1F
100
AcDbEntity
  8
0
  6
Continuous
 62
     7
370
    25
100
AcDbCircle
 10
364.4388917868
 20
208.7982316357
 30
0.0
 40
9.199988926757758
100
AcDbArc
 50
72.5517139682
 51
125.5432330916
  0
LINE
  5
127
330
1F
100
AcDbEntity
  8
0
  6
Continuous
 62
     7
370
    25
100
AcDbLine
 10
367.1974612911
 20
217.5749104234
 30
0.0
 11
372.5039700672
 21
216.1327150427
 31
0.0
  0
LWPOLYLINE
  5
128
330
1F
100
AcDbEntity
  8
0
  6
Continuous
 62
     7
370
    25
100
AcDbPolyline
 90
       15
 70
   128
 43
0.0
 10
360.6829172973
 20
206.1400243538
 10
360.4812793848
 20
205.9874902422
 10
360.2187949987
 20
205.8618895459
 10
359.9086261085
 20
205.76952042
 10
359.566326022
 20
205.715014609
 10
359.2090589088
 20
205.7011053127
 10
358.8547398256
 20
205.7284899361
 10
358.5211357078
 20
205.7957953566
 10
358.2249748623
 20
205.8996465589
 10
357.9811080976
 20
206.0348360313
 10
357.8017637627
 20
206.194584821
 10
357.695935144
 20
206.370882412
 10
357.6689287437
 20
206.554888557
 10
357.722098904
 20
206.7373763748
 10
357.8527793794
 20
206.9091951974
  0
LINE
  5
129
330
1F
100
AcDbEntity
  8
0
  6
Continuous
 62
     7
370
    25
100
AcDbLine
 10
360.6829172973
 20
206.1400243538
 30
0.0
 11
367.5900094358
 21
212.8815580278
 31
0.0
  0
LWPOLYLINE
  5
12A
330
1F
100
AcDbEntity
  8
0
  6
Continuous
 62
     7
370
    25
100
AcDbPolyline
 90
       15
 70
   128
 43
0.0
 10
364.759871518
 20
213.6507288713
 10
364.9615094033
 20
213.8032629565
 10
365.2239935585
 20
213.9288634274
 10
365.5341621244
 20
214.0212322368
 10
365.876462671
 20
214.0757384969
 10
366.2337295804
 20
214.0896475944
 10
366.5880483648
 20
214.0622626792
 10
366.9216527
 20
213.9949574708
 10
367.2178133281
 20
213.8911060564
 10
367.4616803916
 20
213.7559168757
 10
367.6410249303
 20
213.5961682848
 10
367.7468530889
 20
213.4198702448
 10
367.7738598135
 20
213.2358644163
 10
367.7206898841
 20
213.0533768239
 10
367.5900094358
 20
212.8815580278
  0
LINE
  5
12B
330
1F
100
AcDbEntity
  8
0
  6
Continuous
 62
     7
370
    25
100
AcDbLine
 10
357.8527793794
 20
206.9091951974
 30
0.0
 11
364.759871518
 21
213.6507288713
 31
0.0
  0
LINE
  5
12C
330
1F
100
AcDbEntity
  8
0
  6
Continuous
 62
     7
370
    25
100
AcDbLine
 10
357.8527793794
 20
206.7291882945
 30
0.0
 11
357.8527793794
 21
206.9091951974
 31
0.0
  0
LWPOLYLINE
  5
12D
330
1F
100
AcDbEntity
  8
0
  6
Continuous
 62
     7
370
    25
100
AcDbPolyline
 90
        3
 70
   128
 43
0.0
 10
357.6774198646
 20
206.4346054415
 10
357.722098904
 20
206.5573694718
 10
357.8527793794
 20
206.7291882945
  0
LINE
  5
12E
330
1F
100
AcDbEntity
  8
0
  6
Continuous
 62
     7
370
    25
100
AcDbLine
 10
364.759871518
 20
213.4707219684
 30
0.0
 11
364.759871518
 21
213.6507288713
 31
0.0
  0
LINE
  5
12F
330
1F
100
AcDbEntity
  8
0
  6
Continuous
 62
     7
370
    25
100
AcDbLine
 10
357.8527793794
 20
206.7291882945
 30
0.0
 11
364.759871518
 21
213.4707219684
 31
0.0
  0
ARC
  5
130
330
1F
100
AcDbEntity
  8
0
  6
Continuous
 62
     7
370
    25
100
AcDbCircle
 10
373.6727135084
 20
213.3084853215
 30
0.0
 40
2.033026296952121
100
AcDbArc
 50
311.1423432568
 51
357.4957247404
  0
LWPOLYLINE
  5
131
330
1F
100
AcDbEntity
  8
0
  6
Continuous
 62
     7
370
    25
100
AcDbPolyline
 90
       13
 70
   128
 43
0.0
 10
364.759871518
 20
213.4707219684
 10
364.9615094033
 20
213.6232560536
 10
365.2239935585
 20
213.7488565245
 10
365.5341621244
 20
213.8412253338
 10
365.876462671
 20
213.895731594
 10
366.2337295804
 20
213.9096406914
 10
366.5880483648
 20
213.8822557763
 10
366.9216527
 20
213.8149505679
 10
367.2178133281
 20
213.7110991535
 10
367.4616803916
 20
213.5759099727
 10
367.6410249303
 20
213.4161613819
 10
367.7468530889
 20
213.2398633419
 10
367.7653687334
 20
213.1761388583
  0
LINE
  5
132
330
1F
100
AcDbEntity
  8
0
  6
HIDDEN
 62
     7
370
    18
100
AcDbLine
 10
352.0297269237
 20
200.3272622054
 30
0.0
 11
350.4681850774
 21
197.7592666402
 31
0.0
  0
LINE
  5
133
330
1F
100
AcDbEntity
  8
0
  6
HIDDEN
 62
     7
370
    18
100
AcDbLine
 10
352.0297269237
 20
200.3272622054
 30
0.0
 11
352.1202524924
 21
200.3026592955
 31
0.0
  0
LINE
  5
134
330
1F
100
AcDbEntity
  8
0
  6
HIDDEN
 62
     7
370
    18
100
AcDbLine
 10
309.8249618677
 20
208.7253700766
 30
0.0
 11
350.1544288962
 21
197.7646850942
 31
0.0
  0
LINE
  5
135
330
1F
100
AcDbEntity
  8
0
  6
HIDDEN
 62
     7
370
    18
100
AcDbLine
 10
350.363235949
 20
197.5866757407
 30
0.0
 11
357.6418722228
 21
167.9612423441
 31
0.0
  0
LINE
  5
136
330
1F
100
AcDbEntity
  8
0
  6
HIDDEN
 62
     7
370
    18
100
AcDbLine
 10
357.3772794882
 20
167.8650748838
 30
0.0
 11
350.0986414758
 21
197.4905061843
 31
0.0
  0
LINE
  5
137
330
1F
100
AcDbEntity
  8
0
  6
HIDDEN
 62
     7
370
    18
100
AcDbLine
 10
350.0986414758
 20
197.4905061843
 30
0.0
 11
309.7691744472
 21
208.4511911667
 31
0.0
  0
LINE
  5
138
330
1F
100
AcDbEntity
  8
0
  6
HIDDEN
 62
     7
370
    18
100
AcDbLine
 10
311.1288415343
 20
211.5645065251
 30
0.0
 11
352.183531179
 21
200.4067215752
 31
0.0
  0
LINE
  5
139
330
1F
100
AcDbEntity
  8
0
  6
HIDDEN
 62
     7
370
    18
100
AcDbLine
 10
352.0297269237
 20
200.3272622054
 30
0.0
 11
359.3083631975
 21
170.7018280105
 31
0.0
  0
LINE
  5
13A
330
1F
100
AcDbEntity
  8
0
  6
HIDDEN
 62
     7
370
    18
100
AcDbLine
 10
311.0953200542
 20
211.7009377676
 30
0.0
 11
311.1288415343
 21
211.5645065251
 31
0.0
  0
LINE
  5
13B
330
1F
100
AcDbEntity
  8
0
  6
HIDDEN
 62
     7
370
    18
100
AcDbLine
 10
311.1288415343
 20
211.5645065251
 30
0.0
 11
309.5040207444
 21
208.8924476917
 31
0.0
  0
LINE
  5
13C
330
1F
100
AcDbEntity
  8
0
  6
HIDDEN
 62
     7
370
    18
100
AcDbLine
 10
311.1607652632
 20
211.4345702688
 30
0.0
 11
309.5992234169
 21
208.8665747036
 31
0.0
  0
LINE
  5
13D
330
1F
100
AcDbEntity
  8
0
  6
HIDDEN
 62
     7
370
    18
100
AcDbLine
 10
311.3464932474
 20
211.3840933823
 30
0.0
 11
311.1607652632
 21
211.4345702688
 31
0.0
  0
LINE
  5
13E
330
1F
100
AcDbEntity
  8
0
  6
HIDDEN
 62
     7
370
    18
100
AcDbLine
 10
311.3464932474
 20
211.3840933823
 30
0.0
 11
309.7215924831
 21
208.7119034045
 31
0.0
  0
LINE
  5
13F
330
1F
100
AcDbEntity
  8
0
  6
HIDDEN
 62
     7
370
    18
100
AcDbLine
 10
316.9586385466
 20
179.0180735211
 30
0.0
 11
318.6251295213
 21
181.7586591875
 31
0.0
  0
LINE
  5
140
330
1F
100
AcDbEntity
  8
0
  6
HIDDEN
 62
     7
370
    18
100
AcDbLine
 10
316.9586385466
 20
179.0180735211
 30
0.0
 11
309.689800886
 21
208.6036236094
 31
0.0
  0
LINE
  5
141
330
1F
100
AcDbEntity
  8
0
  6
HIDDEN
 62
     7
370
    18
100
AcDbLine
 10
311.3464932474
 20
211.3840933823
 30
0.0
 11
318.6251295213
 21
181.7586591875
 31
0.0
  0
ARC
  5
142
330
1F
100
AcDbEntity
  8
0
  6
HIDDEN
 62
     7
370
    18
100
AcDbCircle
 10
310.1791958026
 20
208.5105287785
 30
0.0
 40
0.414292727510143
100
AcDbArc
 50
148.7633756856
 51
188.2345812458
  0
LINE
  5
143
330
1F
100
AcDbEntity
  8
0
  6
HIDDEN
 62
     7
370
    18
100
AcDbLine
 10
309.8249618677
 20
208.7253700766
 30
0.0
 11
309.7914421261
 21
208.8618030161
 31
0.0
  0
LINE
  5
144
330
1F
100
AcDbEntity
  8
0
  6
HIDDEN
 62
     7
370
    18
100
AcDbLine
 10
309.8666320526
 20
208.793897708
 30
0.0
 11
309.8249618677
 21
208.7253700766
 31
0.0
  0
ARC
  5
145
330
1F
100
AcDbEntity
  8
0
  6
HIDDEN
 62
     7
370
    18
100
AcDbCircle
 10
309.8025475588
 20
208.5984313628
 30
0.0
 40
0.1509749645889226
100
AcDbArc
 50
211.5444244073
 51
257.2292507563
  0
LINE
  5
146
330
1F
100
AcDbEntity
  8
0
  6
HIDDEN
 62
     7
370
    18
100
AcDbLine
 10
309.7691744472
 20
208.4511911667
 30
0.0
 11
309.6770803483
 21
208.2997392649
 31
0.0
  0
ARC
  5
147
330
1F
100
AcDbEntity
  8
0
  6
HIDDEN
 62
     7
370
    18
100
AcDbCircle
 10
316.9860120458
 20
178.9285713265
 30
0.0
 40
0.2549634981597916
100
AcDbArc
 50
146.7004563148
 51
192.7784178885
  0
LINE
  5
148
330
1F
100
AcDbEntity
  8
0
  6
HIDDEN
 62
     7
370
    18
100
AcDbLine
 10
316.7729105623
 20
179.0685504075
 30
0.0
 11
309.4942742885
 21
208.6939838041
 31
0.0
  0
LINE
  5
149
330
1F
100
AcDbEntity
  8
0
  6
HIDDEN
 62
     7
370
    18
100
AcDbLine
 10
309.8666320526
 20
208.793897708
 30
0.0
 11
309.833112311
 21
208.9303310466
 31
0.0
  0
LINE
  5
14A
330
1F
100
AcDbEntity
  8
0
  6
HIDDEN
 62
     7
370
    18
100
AcDbLine
 10
309.8666320526
 20
208.793897708
 30
0.0
 11
309.7683655527
 21
208.820604437
 31
0.0
  0
ARC
  5
14B
330
1F
100
AcDbEntity
  8
0
  6
HIDDEN
 62
     7
370
    18
100
AcDbCircle
 10
317.066391014
 20
178.9512059076
 30
0.0
 40
0.126814320874683
100
AcDbArc
 50
148.177631447
 51
261.5757323879
  0
LINE
  5
14C
330
1F
100
AcDbEntity
  8
0
  6
HIDDEN
 62
     7
370
    18
100
AcDbLine
 10
309.7691744472
 20
208.4511911667
 30
0.0
 11
317.0478124596
 21
178.8257598662
 31
0.0
  0
LINE
  5
14D
330
1F
100
AcDbEntity
  8
0
  6
HIDDEN
 62
     7
370
    18
100
AcDbLine
 10
311.1607652632
 20
211.4345702688
 30
0.0
 11
318.439401537
 21
181.8091360739
 31
0.0
  0
LINE
  5
14E
330
1F
100
AcDbEntity
  8
0
  6
HIDDEN
 62
     7
370
    18
100
AcDbLine
 10
357.4969126279
 20
167.8793803826
 30
0.0
 11
317.1674455993
 21
178.840065365
 31
0.0
  0
LINE
  5
14F
330
1F
100
AcDbEntity
  8
0
  6
HIDDEN
 62
     7
370
    18
100
AcDbLine
 10
317.2091157842
 20
178.9085941938
 30
0.0
 11
317.1674455993
 21
178.840065365
 31
0.0
  0
LINE
  5
150
330
1F
100
AcDbEntity
  8
0
  6
HIDDEN
 62
     7
370
    18
100
AcDbLine
 10
317.2091157842
 20
178.9085941938
 30
0.0
 11
316.8465044761
 21
179.0071441775
 31
0.0
  0
LINE
  5
151
330
1F
100
AcDbEntity
  8
0
  6
HIDDEN
 62
     7
370
    18
100
AcDbLine
 10
316.8465044761
 20
179.0071441775
 30
0.0
 11
318.4713252659
 21
181.6792010151
 31
0.0
  0
LINE
  5
152
330
1F
100
AcDbEntity
  8
0
  6
HIDDEN
 62
     7
370
    18
100
AcDbLine
 10
318.4713252659
 20
181.6792010151
 30
0.0
 11
325.7323985597
 21
179.7057968798
 31
0.0
  0
ARC
  5
153
330
1F
100
AcDbEntity
  8
0
  6
HIDDEN
 62
     7
370
    18
100
AcDbCircle
 10
327.6449224912
 20
186.8061713903
 30
0.0
 40
7.353439057878625
100
AcDbArc
 50
254.9248559959
 51
325.0231226508
  0
LINE
  5
154
330
1F
100
AcDbEntity
  8
0
  6
HIDDEN
 62
     7
370
    18
100
AcDbLine
 10
333.6702087834
 20
182.5908432803
 30
0.0
 11
345.6592906198
 21
202.3071918512
 31
0.0
  0
LINE
  5
155
330
1F
100
AcDbEntity
  8
0
  6
HIDDEN
 62
     7
370
    18
100
AcDbLine
 10
349.5897342882
 20
178.2642573622
 30
0.0
 11
355.3117523625
 21
187.6742627204
 31
0.0
  0
ARC
  5
156
330
1F
100
AcDbEntity
  8
0
  6
HIDDEN
 62
     7
370
    18
100
AcDbCircle
 10
352.8403106544
 20
176.266557471
 30
0.0
 40
3.815370436434598
100
AcDbArc
 50
148.4264510888
 51
261.3265396696
  0
LINE
  5
157
330
1F
100
AcDbEntity
  8
0
  6
HIDDEN
 62
     7
370
    18
100
AcDbLine
 10
352.2649416169
 20
172.4948202005
 30
0.0
 11
359.4308124951
 21
170.5472900418
 31
0.0
  0
LINE
  5
158
330
1F
100
AcDbEntity
  8
0
  6
HIDDEN
 62
     7
370
    18
100
AcDbLine
 10
357.5385828127
 20
167.9479092114
 30
0.0
 11
357.8033641707
 21
167.8759473119
 31
0.0
  0
LINE
  5
159
330
1F
100
AcDbEntity
  8
0
  6
HIDDEN
 62
     7
370
    18
100
AcDbLine
 10
357.5385828127
 20
167.9479092114
 30
0.0
 11
357.4969126279
 21
167.8793803826
 31
0.0
  0
LINE
  5
15A
330
1F
100
AcDbEntity
  8
0
  6
HIDDEN
 62
     7
370
    18
100
AcDbLine
 10
359.4940911817
 20
170.6513511241
 30
0.0
 11
359.3083631975
 21
170.7018280105
 31
0.0
  0
LINE
  5
15B
330
1F
100
AcDbEntity
  8
0
  6
HIDDEN
 62
     7
370
    18
100
AcDbLine
 10
359.3083631975
 20
170.7018280105
 30
0.0
 11
357.6418722228
 21
167.9612423441
 31
0.0
  0
LINE
  5
15C
330
1F
100
AcDbEntity
  8
0
  6
HIDDEN
 62
     7
370
    18
100
AcDbLine
 10
357.6418722228
 20
167.9612423441
 30
0.0
 11
357.827600207
 21
167.9107654577
 31
0.0
  0
ARC
  5
15D
330
1F
100
AcDbEntity
  8
0
  6
HIDDEN
 62
     7
370
    18
100
AcDbCircle
 10
357.4407312432
 20
168.1025759509
 30
0.0
 40
0.2458310030717339
100
AcDbArc
 50
255.0419783209
 51
324.9058428937
  0
LINE
  5
15E
330
1F
100
AcDbEntity
  8
0
  6
HIDDEN
 62
     7
370
    18
100
AcDbLine
 10
357.5304323694
 20
167.7429466448
 30
0.0
 11
357.5064191604
 21
167.7066500122
 31
0.0
  0
LWPOLYLINE
  5
15F
330
1F
100
AcDbEntity
  8
0
  6
HIDDEN
 62
     7
370
    18
100
AcDbPolyline
 90
        9
 70
   128
 43
0.0
 10
357.4969126279
 20
167.8793803826
 10
357.4791878475
 20
167.8537366298
 10
357.4609171544
 20
167.834070978
 10
357.4428029331
 20
167.8211424199
 10
357.4255423525
 20
167.8154430149
 10
357.4097960714
 20
167.8171960844
 10
357.3961725914
 20
167.8263313594
 10
357.3851917466
 20
167.842497244
 10
357.3772794882
 20
167.8650748838
  0
LINE
  5
160
330
1F
100
AcDbEntity
  8
0
  6
HIDDEN
 62
     7
370
    18
100
AcDbLine
 10
357.4969126279
 20
167.8793803826
 30
0.0
 11
357.5304323694
 21
167.7429466448
 31
0.0
  0
LINE
  5
161
330
1F
100
AcDbEntity
  8
0
  6
HIDDEN
 62
     7
370
    18
100
AcDbLine
 10
357.3772794882
 20
167.8650748838
 30
0.0
 11
357.2851836506
 21
167.7136216843
 31
0.0
  0
ARC
  5
162
330
1F
100
AcDbEntity
  8
0
  6
HIDDEN
 62
     7
370
    18
100
AcDbCircle
 10
317.0140254685
 20
178.7733971289
 30
0.0
 40
0.1995338093949104
100
AcDbArc
 50
274.0139470058
 51
339.5345491024
  0
LINE
  5
163
330
1F
100
AcDbEntity
  8
0
  6
HIDDEN
 62
     7
370
    18
100
AcDbLine
 10
357.5304323694
 20
167.7429466448
 30
0.0
 11
317.2009653408
 21
178.7036316272
 31
0.0
  0
LWPOLYLINE
  5
164
330
1F
100
AcDbEntity
  8
0
  6
HIDDEN
 62
     7
370
    18
100
AcDbPolyline
 90
        9
 70
   128
 43
0.0
 10
317.0478124596
 20
178.8257598662
 10
317.0557247181
 20
178.8031822264
 10
317.0667055629
 20
178.7870163418
 10
317.0803290429
 20
178.7778810668
 10
317.096075324
 20
178.7761279973
 10
317.1133359046
 20
178.7818274023
 10
317.1314501259
 20
178.7947559604
 10
317.149720819
 20
178.8144216122
 10
317.1674455993
 20
178.840065365
  0
LINE
  5
165
330
1F
100
AcDbEntity
  8
0
  6
HIDDEN
 62
     7
370
    18
100
AcDbLine
 10
317.0478124596
 20
178.8257598662
 30
0.0
 11
357.3772794882
 21
167.8650748838
 31
0.0
  0
LINE
  5
166
330
1F
100
AcDbEntity
  8
0
  6
HIDDEN
 62
     7
370
    18
100
AcDbLine
 10
357.5385828127
 20
167.9479092114
 30
0.0
 11
357.5721025543
 21
167.8114754736
 31
0.0
  0
LINE
  5
167
330
1F
100
AcDbEntity
  8
0
  6
HIDDEN
 62
     7
370
    18
100
AcDbLine
 10
357.5721025543
 20
167.8114754736
 30
0.0
 11
357.6930976403
 21
167.7785916019
 31
0.0
  0
LINE
  5
168
330
1F
100
AcDbEntity
  8
0
  6
HIDDEN
 62
     7
370
    18
100
AcDbLine
 10
357.5721025543
 20
167.8114754736
 30
0.0
 11
357.5304323694
 21
167.7429466448
 31
0.0
  0
LINE
  5
169
330
1F
100
AcDbEntity
  8
0
  6
HIDDEN
 62
     7
370
    18
100
AcDbLine
 10
352.2984613584
 20
172.3583864628
 30
0.0
 11
359.5595346522
 21
170.3849823275
 31
0.0
  0
LINE
  5
16A
330
1F
100
AcDbEntity
  8
0
  6
HIDDEN
 62
     7
370
    18
100
AcDbLine
 10
349.5897342882
 20
178.2642573622
 30
0.0
 11
349.6232540298
 21
178.1278236245
 31
0.0
  0
LINE
  5
16B
330
1F
100
AcDbEntity
  8
0
  6
HIDDEN
 62
     7
370
    18
100
AcDbLine
 10
352.2984613584
 20
172.3583864628
 30
0.0
 11
352.2649416169
 21
172.4948202005
 31
0.0
  0
ARC
  5
16C
330
1F
100
AcDbEntity
  8
0
  6
HIDDEN
 62
     7
370
    18
100
AcDbCircle
 10
352.8738328738
 20
176.1301248823
 30
0.0
 40
3.815371945972171
100
AcDbArc
 50
148.4264852729
 51
261.3265054855
  0
LINE
  5
16D
330
1F
100
AcDbEntity
  8
0
  6
HIDDEN
 62
     7
370
    18
100
AcDbLine
 10
349.6232540298
 20
178.1278236245
 30
0.0
 11
355.345272104
 21
187.5378289827
 31
0.0
  0
LINE
  5
16E
330
1F
100
AcDbEntity
  8
0
  6
HIDDEN
 62
     7
370
    18
100
AcDbLine
 10
333.7037285249
 20
182.4544095425
 30
0.0
 11
346.3553559565
 21
203.2603321264
 31
0.0
  0
LINE
  5
16F
330
1F
100
AcDbEntity
  8
0
  6
HIDDEN
 62
     7
370
    18
100
AcDbLine
 10
333.7037285249
 20
182.4544095425
 30
0.0
 11
333.6702087834
 21
182.5908432803
 31
0.0
  0
ARC
  5
170
330
1F
100
AcDbEntity
  8
0
  6
HIDDEN
 62
     7
370
    18
100
AcDbCircle
 10
327.6784405768
 20
186.6697422087
 30
0.0
 40
7.353443026459918
100
AcDbArc
 50
254.9248776873
 51
325.0231009594
  0
LINE
  5
171
330
1F
100
AcDbEntity
  8
0
  6
HIDDEN
 62
     7
370
    18
100
AcDbLine
 10
325.7323985597
 20
179.7057968798
 30
0.0
 11
325.7659183012
 21
179.5693631421
 31
0.0
  0
LINE
  5
172
330
1F
100
AcDbEntity
  8
0
  6
HIDDEN
 62
     7
370
    18
100
AcDbLine
 10
318.5048450074
 20
181.5427672774
 30
0.0
 11
325.7659183012
 21
179.5693631421
 31
0.0
  0
LINE
  5
173
330
1F
100
AcDbEntity
  8
0
  6
HIDDEN
 62
     7
370
    18
100
AcDbLine
 10
318.439401537
 20
181.8091360739
 30
0.0
 11
318.6251295213
 21
181.7586591875
 31
0.0
  0
LINE
  5
174
330
1F
100
AcDbEntity
  8
0
  6
HIDDEN
 62
     7
370
    18
100
AcDbLine
 10
316.7729105623
 20
179.0685504075
 30
0.0
 11
318.439401537
 21
181.8091360739
 31
0.0
  0
LINE
  5
175
330
1F
100
AcDbEntity
  8
0
  6
HIDDEN
 62
     7
370
    18
100
AcDbLine
 10
316.9586385466
 20
179.0180735211
 30
0.0
 11
316.7729105623
 21
179.0685504075
 31
0.0
  0
LINE
  5
176
330
1F
100
AcDbEntity
  8
0
  6
HIDDEN
 62
     7
370
    18
100
AcDbLine
 10
318.5048450074
 20
181.5427672774
 30
0.0
 11
318.4713252659
 21
181.6792010151
 31
0.0
  0
LINE
  5
177
330
1F
100
AcDbEntity
  8
0
  6
HIDDEN
 62
     7
370
    18
100
AcDbLine
 10
316.8800242176
 20
178.8707104398
 30
0.0
 11
318.5048450074
 21
181.5427672774
 31
0.0
  0
LINE
  5
178
330
1F
100
AcDbEntity
  8
0
  6
HIDDEN
 62
     7
370
    18
100
AcDbLine
 10
317.0478124596
 20
178.8257598662
 30
0.0
 11
316.9557166221
 21
178.6743066667
 31
0.0
  0
LINE
  5
179
330
1F
100
AcDbEntity
  8
0
  6
HIDDEN
 62
     7
370
    18
100
AcDbLine
 10
317.1674455993
 20
178.840065365
 30
0.0
 11
317.2009653408
 21
178.7036316272
 31
0.0
  0
LINE
  5
17A
330
1F
100
AcDbEntity
  8
0
  6
HIDDEN
 62
     7
370
    18
100
AcDbLine
 10
317.2426355257
 20
178.772160456
 30
0.0
 11
317.2009653408
 21
178.7036316272
 31
0.0
  0
LINE
  5
17B
330
1F
100
AcDbEntity
  8
0
  6
HIDDEN
 62
     7
370
    18
100
AcDbLine
 10
317.2091157842
 20
178.9085941938
 30
0.0
 11
317.2426355257
 21
178.772160456
 31
0.0
  0
LINE
  5
17C
330
1F
100
AcDbEntity
  8
0
  6
HIDDEN
 62
     7
370
    18
100
AcDbLine
 10
316.8800242176
 20
178.8707104398
 30
0.0
 11
316.8465044761
 21
179.0071441775
 31
0.0
  0
LINE
  5
17D
330
1F
100
AcDbEntity
  8
0
  6
HIDDEN
 62
     7
370
    18
100
AcDbLine
 10
317.2426355257
 20
178.772160456
 30
0.0
 11
316.8800242176
 21
178.8707104398
 31
0.0
  0
LINE
  5
17E
330
1F
100
AcDbEntity
  8
0
  6
HIDDEN
 62
     7
370
    18
100
AcDbLine
 10
346.3553559565
 20
203.2603321264
 30
0.0
 11
362.2748814614
 21
198.9337462084
 31
0.0
  0
LINE
  5
17F
330
1F
100
AcDbEntity
  8
0
  6
HIDDEN
 62
     7
370
    18
100
AcDbLine
 10
363.5518351822
 20
200.5936399408
 30
0.0
 11
347.6323096774
 21
204.9202258589
 31
0.0
  0
ARC
  5
180
330
1F
100
AcDbEntity
  8
0
  6
HIDDEN
 62
     7
370
    18
100
AcDbCircle
 10
353.6771681848
 20
198.948799271
 30
0.0
 40
8.496955329400166
100
AcDbArc
 50
135.3501320638
 51
149.5078095682
  0
LINE
  5
181
330
1F
100
AcDbEntity
  8
0
  6
HIDDEN
 62
     7
370
    18
100
AcDbLine
 10
346.3218357804
 20
203.3967654399
 30
0.0
 11
346.3553559565
 21
203.2603321264
 31
0.0
  0
LINE
  5
182
330
1F
100
AcDbEntity
  8
0
  6
HIDDEN
 62
     7
370
    18
100
AcDbLine
 10
347.6323096774
 20
205.1002327618
 30
0.0
 11
347.6323096774
 21
204.9202258589
 31
0.0
  0
LINE
  5
183
330
1F
100
AcDbEntity
  8
0
  6
HIDDEN
 62
     7
370
    18
100
AcDbLine
 10
347.6323096774
 20
204.9202258589
 30
0.0
 11
359.0907810034
 21
216.1040451488
 31
0.0
  0
LINE
  5
184
330
1F
100
AcDbEntity
  8
0
  6
HIDDEN
 62
     7
370
    18
100
AcDbLine
 10
360.6829172973
 20
205.9600174509
 30
0.0
 11
360.6829172973
 21
206.1400243538
 31
0.0
  0
LWPOLYLINE
  5
185
330
1F
100
AcDbEntity
  8
0
  6
HIDDEN
 62
     7
370
    18
100
AcDbPolyline
 90
       14
 70
   128
 43
0.0
 10
360.6829172973
 20
205.9600174509
 10
360.4812793848
 20
205.8074833392
 10
360.2187949987
 20
205.6818826429
 10
359.9086261085
 20
205.5895135171
 10
359.566326022
 20
205.535007706
 10
359.2090589088
 20
205.5210984097
 10
358.8547398256
 20
205.5484830332
 10
358.5211357078
 20
205.6157884537
 10
358.2249748623
 20
205.719639656
 10
357.9811080976
 20
205.8548291284
 10
357.8017637627
 20
206.0145779181
 10
357.695935144
 20
206.190875509
 10
357.6689287437
 20
206.374881654
 10
357.6774198646
 20
206.4346054415
  0
LINE
  5
186
330
1F
100
AcDbEntity
  8
0
  6
HIDDEN
 62
     7
370
    18
100
AcDbLine
 10
360.6829172973
 20
205.9600174509
 30
0.0
 11
367.5900094358
 21
212.7015511248
 31
0.0
  0
LINE
  5
187
330
1F
100
AcDbEntity
  8
0
  6
HIDDEN
 62
     7
370
    18
100
AcDbLine
 10
372.5039700672
 20
216.1327150427
 30
0.0
 11
372.5039700672
 21
215.9527081398
 31
0.0
  0
LWPOLYLINE
  5
188
330
1F
100
AcDbEntity
  8
0
  6
HIDDEN
 62
     7
370
    18
100
AcDbPolyline
 90
       11
 70
   128
 43
0.0
 10
372.5039700672
 20
215.9527081398
 10
373.0805038607
 20
215.7740489838
 10
373.6145728815
 20
215.5632660246
 10
374.0994627072
 20
215.3230117284
 10
374.529074038
 20
215.0563061445
 10
374.8980041501
 20
214.7665028355
 10
375.2016147156
 20
214.4572476667
 10
375.4360867651
 20
214.1324291583
 10
375.5984724463
 20
213.7961318767
 10
375.6867290755
 20
213.4525848771
 10
375.7037981922
 20
213.2196544055
  0
LINE
  5
189
330
1F
100
AcDbEntity
  8
0
  6
HIDDEN
 62
     7
370
    18
100
AcDbLine
 10
367.5900094358
 20
212.7015511248
 30
0.0
 11
367.5900094358
 21
212.8815580278
 31
0.0
  0
ARC
  5
18A
330
1F
100
AcDbEntity
  8
0
  6
HIDDEN
 62
     7
370
    18
100
AcDbCircle
 10
367.2685199825
 20
213.0900322247
 30
0.0
 40
0.5042549292013648
100
AcDbArc
 50
309.609624983
 51
9.8320171271
  0
LINE
  5
18B
330
1F
100
AcDbEntity
  8
0
  6
HIDDEN
 62
     7
370
    18
100
AcDbLine
 10
359.0907810034
 20
216.2840520517
 30
0.0
 11
359.0907810034
 21
216.1040451488
 31
0.0
  0
ARC
  5
18C
330
1F
100
AcDbEntity
  8
0
  6
HIDDEN
 62
     7
370
    18
100
AcDbCircle
 10
364.4388917868
 20
208.6182247327
 30
0.0
 40
9.199988926757504
100
AcDbArc
 50
72.5517139682
 51
125.5432330916
  0
LINE
  5
18D
330
1F
100
AcDbEntity
  8
0
  6
HIDDEN
 62
     7
370
    18
100
AcDbLine
 10
367.1974612911
 20
217.3949035204
 30
0.0
 11
367.1974612911
 21
217.5749104234
 31
0.0
  0
LINE
  5
18E
330
1F
100
AcDbEntity
  8
0
  6
HIDDEN
 62
     7
370
    18
100
AcDbLine
 10
367.1974612911
 20
217.3949035204
 30
0.0
 11
372.5039700672
 21
215.9527081398
 31
0.0
  0
LINE
  5
18F
330
1F
100
AcDbEntity
  8
0
  6
HIDDEN
 62
     7
370
    18
100
AcDbLine
 10
309.6626614841
 20
208.5477142485
 30
0.0
 11
316.9412977579
 21
178.9222804528
 31
0.0
  0
LINE
  5
190
330
1F
100
AcDbEntity
  8
0
  6
HIDDEN
 62
     7
370
    18
100
AcDbLine
 10
317.0830690384
 20
178.7770013581
 30
0.0
 11
357.4125360669
 21
167.8163163756
 31
0.0
  0
LINE
  5
191
330
1F
100
AcDbEntity
  8
0
  6
HIDDEN
 62
     7
370
    18
100
AcDbLine
 10
349.069525453
 20
175.3905031627
 30
0.0
 11
349.1030451945
 21
175.254069425
 31
0.0
  0
LINE
  5
192
330
1F
100
AcDbEntity
  8
0
  6
HIDDEN
 62
     7
370
    18
100
AcDbLine
 10
357.6678483404
 20
206.5246097638
 30
0.0
 11
357.6678483404
 21
206.3446028609
 31
0.0
  0
LINE
  5
193
330
1F
100
AcDbEntity
  8
0
  6
HIDDEN
 62
     7
370
    18
100
AcDbLine
 10
367.7749402168
 20
213.0861363065
 30
0.0
 11
367.7749402168
 21
213.2661432095
 31
0.0
  0
ENDSEC
  0
SECTION
  2
OBJECTS
  0
DICTIONARY
  5
C
330
0
100
AcDbDictionary
281
     1
  3
ACAD_GROUP
350
D
  3
ACAD_LAYOUT
350
1A
  3
ACAD_MLINESTYLE
350
17
  3
ACAD_PLOTSETTINGS
350
19
  3
ACAD_PLOTSTYLENAME
350
E
  3
ACAD_SCALELIST
350
47
  0
DICTIONARY
  5
D
102
{ACAD_REACTORS
330
C
102
}
330
C
100
AcDbDictionary
281
     1
  0
DICTIONARY
  5
1A
102
{ACAD_REACTORS
330
C
102
}
330
C
100
AcDbDictionary
281
     1
  3
Layout1
350
1E
  3
Layout2
350
26
  3
Model
350
22
  0
DICTIONARY
  5
17
102
{ACAD_REACTORS
330
C
102
}
330
C
100
AcDbDictionary
281
     1
  3
Standard
350
18
  0
DICTIONARY
  5
19
102
{ACAD_REACTORS
330
C
102
}
330
C
100
AcDbDictionary
281
     1
  0
ACDBDICTIONARYWDFLT
  5
E
102
{ACAD_REACTORS
330
C
102
}
330
C
100
AcDbDictionary
281
     1
  3
Normal
350
F
100
AcDbDictionaryWithDefault
340
F
  0
DICTIONARY
  5
47
102
{ACAD_REACTORS
330
C
102
}
330
C
100
AcDbDictionary
281
     1
  3
A0
350
48
  3
A1
350
49
  3
A2
350
4A
  3
A3
350
4B
  3
A4
350
4C
  3
A5
350
4D
  3
A6
350
4E
  3
A7
350
4F
  3
A8
350
50
  3
A9
350
51
  3
B0
350
52
  3
B1
350
53
  3
B2
350
54
  3
B3
350
55
  3
B4
350
56
  3
B5
350
57
  3
B6
350
58
  3
B7
350
59
  3
B8
350
5A
  3
B9
350
5B
  3
C0
350
5C
  3
C1
350
5D
  3
C2
350
5E
  3
C3
350
5F
  3
C4
350
60
  3
C5
350
61
  3
C6
350
62
  3
C7
350
63
  3
C8
350
64
  3
C9
350
65
  3
D0
350
66
  3
D1
350
67
  3
D2
350
68
  0
LAYOUT
  5
1E
102
{ACAD_REACTORS
330
1A
102
}
330
1A
100
AcDbPlotSettings
  1

  2
none_device
  4

  6

 40
0.0
 41
0.0
 42
0.0
 43
0.0
 44
0.0
 45
0.0
 46
0.0
 47
0.0
 48
0.0
 49
0.0
140
0.0
141
0.0
142
1.0
143
1.0
 70
   688
 72
     1
 73
     0
 74
     5
  7

 75
    16
147
1.0
148
0.0
149
0.0
100
AcDbLayout
  1
Layout1
 70
     1
 71
     1
 10
0.0
 20
0.0
 11
420.0
 21
297.0
 12
0.0
 22
0.0
 32
0.0
 14
1.0000000000E+20
 24
1.0000000000E+20
 34
1.0000000000E+20
 15
-1.0000000000E+20
 25
-1.0000000000E+20
 35
-1.0000000000E+20
146
0.0
 13
0.0
 23
0.0
 33
0.0
 16
1.0
 26
0.0
 36
0.0
 17
0.0
 27
1.0
 37
0.0
 76
     0
330
1B
  0
LAYOUT
  5
26
102
{ACAD_REACTORS
330
1A
102
}
330
1A
100
AcDbPlotSettings
  1

  2
none_device
  4

  6

 40
0.0
 41
0.0
 42
0.0
 43
0.0
 44
0.0
 45
0.0
 46
0.0
 47
0.0
 48
0.0
 49
0.0
140
0.0
141
0.0
142
1.0
143
1.0
 70
   688
 72
     1
 73
     0
 74
     5
  7

 75
    16
147
1.0
148
0.0
149
0.0
100
AcDbLayout
  1
Layout2
 70
     1
 71
     2
 10
0.0
 20
0.0
 11
0.0
 21
0.0
 12
0.0
 22
0.0
 32
0.0
 14
0.0
 24
0.0
 34
0.0
 15
0.0
 25
0.0
 35
0.0
146
0.0
 13
0.0
 23
0.0
 33
0.0
 16
1.0
 26
0.0
 36
0.0
 17
0.0
 27
1.0
 37
0.0
 76
     0
330
23
  0
LAYOUT
  5
22
102
{ACAD_REACTORS
330
1A
102
}
330
1A
100
AcDbPlotSettings
  1

  2
none_device
  4
Letter_(8.50_x_11.00_Inches)
  6

 40
6.35
 41
6.35
 42
6.35000508
 43
6.35000508
 44
215.9
 45
279.4
 46
0.0
 47
0.0
 48
0.0
 49
0.0
140
0.0
141
0.0
142
1.0
143
1.0
 70
  1712
 72
     1
 73
     0
 74
     0
  7

 75
     0
147
1.0
148
0.0
149
0.0
100
AcDbLayout
  1
Model
 70
     1
 71
     0
 10
0.0
 20
0.0
 11
594.0
 21
420.0
 12
0.0
 22
0.0
 32
0.0
 14
0.0
 24
0.0
 34
0.0
 15
594.0
 25
420.0
 35
0.0
146
0.0
 13
0.0
 23
0.0
 33
0.0
 16
1.0
 26
0.0
 36
0.0
 17
0.0
 27
1.0
 37
0.0
 76
     0
330
1F
331
29
  0
MLINESTYLE
  5
18
102
{ACAD_REACTORS
330
17
102
}
330
17
100
AcDbMlineStyle
  2
Standard
 70
     0
  3

 62
   256
 51
90.0
 52
90.0
 71
     2
 49
0.5
 62
   256
  6
BYLAYER
 49
-0.5
 62
   256
  6
BYLAYER
  0
ACDBPLACEHOLDER
  5
F
102
{ACAD_REACTORS
330
E
102
}
330
E
  0
SCALE
  5
48
102
{ACAD_REACTORS
330
47
102
}
330
47
100
AcDbScale
 70
     0
300
1:1
140
1.0
141
1.0
290
     1
  0
SCALE
  5
49
102
{ACAD_REACTORS
330
47
102
}
330
47
100
AcDbScale
 70
     0
300
1:2
140
1.0
141
2.0
290
     0
  0
SCALE
  5
4A
102
{ACAD_REACTORS
330
47
102
}
330
47
100
AcDbScale
 70
     0
300
1:4
140
1.0
141
4.0
290
     0
  0
SCALE
  5
4B
102
{ACAD_REACTORS
330
47
102
}
330
47
100
AcDbScale
 70
     0
300
1:5
140
1.0
141
5.0
290
     0
  0
SCALE
  5
4C
102
{ACAD_REACTORS
330
47
102
}
330
47
100
AcDbScale
 70
     0
300
1:8
140
1.0
141
8.0
290
     0
  0
SCALE
  5
4D
102
{ACAD_REACTORS
330
47
102
}
330
47
100
AcDbScale
 70
     0
300
1:10
140
1.0
141
10.0
290
     0
  0
SCALE
  5
4E
102
{ACAD_REACTORS
330
47
102
}
330
47
100
AcDbScale
 70
     0
300
1:16
140
1.0
141
16.0
290
     0
  0
SCALE
  5
4F
102
{ACAD_REACTORS
330
47
102
}
330
47
100
AcDbScale
 70
     0
300
1:20
140
1.0
141
20.0
290
     0
  0
SCALE
  5
50
102
{ACAD_REACTORS
330
47
102
}
330
47
100
AcDbScale
 70
     0
300
1:30
140
1.0
141
30.0
290
     0
  0
SCALE
  5
51
102
{ACAD_REACTORS
330
47
102
}
330
47
100
AcDbScale
 70
     0
300
1:40
140
1.0
141
40.0
290
     0
  0
SCALE
  5
52
102
{ACAD_REACTORS
330
47
102
}
330
47
100
AcDbScale
 70
     0
300
1:50
140
1.0
141
50.0
290
     0
  0
SCALE
  5
53
102
{ACAD_REACTORS
330
47
102
}
330
47
100
AcDbScale
 70
     0
300
1:100
140
1.0
141
100.0
290
     0
  0
SCALE
  5
54
102
{ACAD_REACTORS
330
47
102
}
330
47
100
AcDbScale
 70
     0
300
2:1
140
2.0
141
1.0
290
     0
  0
SCALE
  5
55
102
{ACAD_REACTORS
330
47
102
}
330
47
100
AcDbScale
 70
     0
300
4:1
140
4.0
141
1.0
290
     0
  0
SCALE
  5
56
102
{ACAD_REACTORS
330
47
102
}
330
47
100
AcDbScale
 70
     0
300
8:1
140
8.0
141
1.0
290
     0
  0
SCALE
  5
57
102
{ACAD_REACTORS
330
47
102
}
330
47
100
AcDbScale
 70
     0
300
10:1
140
10.0
141
1.0
290
     0
  0
SCALE
  5
58
102
{ACAD_REACTORS
330
47
102
}
330
47
100
AcDbScale
 70
     0
300
100:1
140
100.0
141
1.0
290
     0
  0
SCALE
  5
59
102
{ACAD_REACTORS
330
47
102
}
330
47
100
AcDbScale
 70
     0
300
1/128" = 1'-0"
140
0.0078125
141
12.0
290
     0
  0
SCALE
  5
5A
102
{ACAD_REACTORS
330
47
102
}
330
47
100
AcDbScale
 70
     0
300
1/64" = 1'-0"
140
0.015625
141
12.0
290
     0
  0
SCALE
  5
5B
102
{ACAD_REACTORS
330
47
102
}
330
47
100
AcDbScale
 70
     0
300
1/32" = 1'-0"
140
0.03125
141
12.0
290
     0
  0
SCALE
  5
5C
102
{ACAD_REACTORS
330
47
102
}
330
47
100
AcDbScale
 70
     0
300
1/16" = 1'-0"
140
0.0625
141
12.0
290
     0
  0
SCALE
  5
5D
102
{ACAD_REACTORS
330
47
102
}
330
47
100
AcDbScale
 70
     0
300
3/32" = 1'-0"
140
0.09375
141
12.0
290
     0
  0
SCALE
  5
5E
102
{ACAD_REACTORS
330
47
102
}
330
47
100
AcDbScale
 70
     0
300
1/8" = 1'-0"
140
0.125
141
12.0
290
     0
  0
SCALE
  5
5F
102
{ACAD_REACTORS
330
47
102
}
330
47
100
AcDbScale
 70
     0
300
3/16" = 1'-0"
140
0.1875
141
12.0
290
     0
  0
SCALE
  5
60
102
{ACAD_REACTORS
330
47
102
}
330
47
100
AcDbScale
 70
     0
300
1/4" = 1'-0"
140
0.25
141
12.0
290
     0
  0
SCALE
  5
61
102
{ACAD_REACTORS
330
47
102
}
330
47
100
AcDbScale
 70
     0
300
3/8" = 1'-0"
140
0.375
141
12.0
290
     0
  0
SCALE
  5
62
102
{ACAD_REACTORS
330
47
102
}
330
47
100
AcDbScale
 70
     0
300
1/2" = 1'-0"
140
0.5
141
12.0
290
     0
  0
SCALE
  5
63
102
{ACAD_REACTORS
330
47
102
}
330
47
100
AcDbScale
 70
     0
300
3/4" = 1'-0"
140
0.75
141
12.0
290
     0
  0
SCALE
  5
64
102
{ACAD_REACTORS
330
47
102
}
330
47
100
AcDbScale
 70
     0
300
1" = 1'-0"
140
1.0
141
12.0
290
     0
  0
SCALE
  5
65
102
{ACAD_REACTORS
330
47
102
}
330
47
100
AcDbScale
 70
     0
300
1-1/2" = 1'-0"
140
1.5
141
12.0
290
     0
  0
SCALE
  5
66
102
{ACAD_REACTORS
330
47
102
}
330
47
100
AcDbScale
 70
     0
300
3" = 1'-0"
140
3.0
141
12.0
290
     0
  0
SCALE
  5
67
102
{ACAD_REACTORS
330
47
102
}
330
47
100
AcDbScale
 70
     0
300
6" = 1'-0"
140
6.0
141
12.0
290
     0
  0
SCALE
  5
68
102
{ACAD_REACTORS
330
47
102
}
330
47
100
AcDbScale
 70
     0
300
1'-0" = 1'-0"
140
12.0
141
12.0
290
     0
  0
ENDSEC
  0
EOF
