  0
SECTION
  2
HEADER
  9
$ACADVER
  1
AC1015
  9
$ACADMAINTVER
 70
     6
  9
$DWGCODEPAGE
  3
ANSI_1252
  9
$INSBASE
 10
0.0
 20
0.0
 30
0.0
  9
$EXTMIN
 10
0.0
 20
0.0
 30
0.0
  9
$EXTMAX
 10
594.0
 20
420.0
 30
0.0
  9
$LIMMIN
 10
0.0
 20
0.0
  9
$LIMMAX
 10
594.0
 20
420.0
  9
$ORTHOMODE
 70
     0
  9
$REGENMODE
 70
     1
  9
$FILLMODE
 70
     1
  9
$QTEXTMODE
 70
     0
  9
$MIRRTEXT
 70
     1
  9
$LTSCALE
 40
2.0
  9
$ATTMODE
 70
     1
  9
$TEXTSIZE
 40
7.0
  9
$TRACEWID
 40
1.0
  9
$TEXTSTYLE
  7
Standard
  9
$CLAYER
  8
0
  9
$CELTYPE
  6
ByLayer
  9
$CECOLOR
 62
   256
  9
$CELTSCALE
 40
1.0
  9
$DISPSILH
 70
     0
  9
$DIMSCALE
 40
1.0
  9
$DIMASZ
 40
6.604
  9
$DIMEXO
 40
2.0
  9
$DIMDLI
 40
3.75
  9
$DIMRND
 40
0.0
  9
$DIMDLE
 40
0.0
  9
$DIMEXE
 40
2.0
  9
$DIMTP
 40
0.0
  9
$DIMTM
 40
0.0
  9
$DIMTXT
 40
7.0
  9
$DIMCEN
 40
2.5
  9
$DIMTSZ
 40
0.0
  9
$DIMTOL
 70
     0
  9
$DIMLIM
 70
     0
  9
$DIMTIH
 70
     1
  9
$DIMTOH
 70
     1
  9
$DIMSE1
 70
     0
  9
$DIMSE2
 70
     0
  9
$DIMTAD
 70
     1
  9
$DIMZIN
 70
     1
  9
$DIMBLK
  1

  9
$DIMASO
 70
     1
  9
$DIMSHO
 70
     1
  9
$DIMPOST
  1

  9
$DIMAPOST
  1

  9
$DIMALT
 70
     0
  9
$DIMALTD
 70
     3
  9
$DIMALTF
 40
0.0393700787
  9
$DIMLFAC
 40
1.0
  9
$DIMTOFL
 70
     1
  9
$DIMTVP
 40
0.0
  9
$DIMTIX
 70
     0
  9
$DIMSOXD
 70
     0
  9
$DIMSAH
 70
     0
  9
$DIMBLK1
  1

  9
$DIMBLK2
  1

  9
$DIMSTYLE
  2
ISO-25
  9
$DIMCLRD
 70
     0
  9
$DIMCLRE
 70
     0
  9
$DIMCLRT
 70
     0
  9
$DIMTFAC
 40
1.0
  9
$DIMGAP
 40
3.048
  9
$DIMJUST
 70
     0
  9
$DIMSD1
 70
     0
  9
$DIMSD2
 70
     0
  9
$DIMTOLJ
 70
     0
  9
$DIMTZIN
 70
     1
  9
$DIMALTZ
 70
     0
  9
$DIMALTTZ
 70
     0
  9
$DIMUPT
 70
     0
  9
$DIMDEC
 70
     2
  9
$DIMTDEC
 70
     2
  9
$DIMALTU
 70
     2
  9
$DIMALTTD
 70
     3
  9
$DIMTXSTY
  7
Standard
  9
$DIMAUNIT
 70
     0
  9
$DIMADEC
 70
     2
  9
$DIMALTRND
 40
0.0
  9
$DIMAZIN
 70
     0
  9
$DIMDSEP
 70
    44
  9
$DIMATFIT
 70
     3
  9
$DIMFRAC
 70
     0
  9
$DIMLDRBLK
  1

  9
$DIMLUNIT
 70
     2
  9
$DIMLWD
 70
    -2
  9
$DIMLWE
 70
    -2
  9
$DIMTMOVE
 70
     0
  9
$LUNITS
 70
     2
  9
$LUPREC
 70
     2
  9
$SKETCHINC
 40
1.0
  9
$FILLETRAD
 40
10.0
  9
$AUNITS
 70
     0
  9
$AUPREC
 70
     2
  9
$MENU
  1
.
  9
$ELEVATION
 40
0.0
  9
$PELEVATION
 40
0.0
  9
$THICKNESS
 40
0.0
  9
$LIMCHECK
 70
     0
  9
$CHAMFERA
 40
0.0
  9
$CHAMFERB
 40
0.0
  9
$CHAMFERC
 40
0.0
  9
$CHAMFERD
 40
0.0
  9
$SKPOLY
 70
     0
  9
$TDCREATE
 40
2459021.629439028
  9
$TDUCREATE
 40
2459021.837772361
  9
$TDUPDATE
 40
2459021.629440393
  9
$TDUUPDATE
 40
2459021.837773727
  9
$TDINDWG
 40
0.0000000116
  9
$TDUSRTIMER
 40
0.0000000116
  9
$USRTIMER
 70
     1
  9
$ANGBASE
 50
0.0
  9
$ANGDIR
 70
     0
  9
$PDMODE
 70
     0
  9
$PDSIZE
 40
-1.0
  9
$PLINEWID
 40
0.0
  9
$SPLFRAME
 70
     0
  9
$SPLINETYPE
 70
     6
  9
$SPLINESEGS
 70
     8
  9
$HANDSEED
  5
226
  9
$SURFTAB1
 70
     6
  9
$SURFTAB2
 70
     6
  9
$SURFTYPE
 70
     6
  9
$SURFU
 70
     6
  9
$SURFV
 70
     6
  9
$UCSBASE
  2

  9
$UCSNAME
  2

  9
$UCSORG
 10
0.0
 20
0.0
 30
0.0
  9
$UCSXDIR
 10
1.0
 20
0.0
 30
0.0
  9
$UCSYDIR
 10
0.0
 20
1.0
 30
0.0
  9
$UCSORTHOREF
  2

  9
$UCSORTHOVIEW
 70
     0
  9
$UCSORGTOP
 10
0.0
 20
0.0
 30
0.0
  9
$UCSORGBOTTOM
 10
0.0
 20
0.0
 30
0.0
  9
$UCSORGLEFT
 10
0.0
 20
0.0
 30
0.0
  9
$UCSORGRIGHT
 10
0.0
 20
0.0
 30
0.0
  9
$UCSORGFRONT
 10
0.0
 20
0.0
 30
0.0
  9
$UCSORGBACK
 10
0.0
 20
0.0
 30
0.0
  9
$PUCSBASE
  2

  9
$PUCSNAME
  2

  9
$PUCSORG
 10
0.0
 20
0.0
 30
0.0
  9
$PUCSXDIR
 10
1.0
 20
0.0
 30
0.0
  9
$PUCSYDIR
 10
0.0
 20
1.0
 30
0.0
  9
$PUCSORTHOREF
  2

  9
$PUCSORTHOVIEW
 70
     0
  9
$PUCSORGTOP
 10
0.0
 20
0.0
 30
0.0
  9
$PUCSORGBOTTOM
 10
0.0
 20
0.0
 30
0.0
  9
$PUCSORGLEFT
 10
0.0
 20
0.0
 30
0.0
  9
$PUCSORGRIGHT
 10
0.0
 20
0.0
 30
0.0
  9
$PUCSORGFRONT
 10
0.0
 20
0.0
 30
0.0
  9
$PUCSORGBACK
 10
0.0
 20
0.0
 30
0.0
  9
$USERI1
 70
     0
  9
$USERI2
 70
     0
  9
$USERI3
 70
     0
  9
$USERI4
 70
     0
  9
$USERI5
 70
     0
  9
$USERR1
 40
0.0
  9
$USERR2
 40
0.0
  9
$USERR3
 40
0.0
  9
$USERR4
 40
0.0
  9
$USERR5
 40
0.0
  9
$WORLDVIEW
 70
     1
  9
$SHADEDGE
 70
     3
  9
$SHADEDIF
 70
    70
  9
$TILEMODE
 70
     1
  9
$MAXACTVP
 70
    64
  9
$PINSBASE
 10
0.0
 20
0.0
 30
0.0
  9
$PLIMCHECK
 70
     0
  9
$PEXTMIN
 10
1.0000000000E+20
 20
1.0000000000E+20
 30
1.0000000000E+20
  9
$PEXTMAX
 10
-1.0000000000E+20
 20
-1.0000000000E+20
 30
-1.0000000000E+20
  9
$PLIMMIN
 10
0.0
 20
0.0
  9
$PLIMMAX
 10
420.0
 20
297.0
  9
$UNITMODE
 70
     0
  9
$VISRETAIN
 70
     1
  9
$PLINEGEN
 70
     0
  9
$PSLTSCALE
 70
     1
  9
$TREEDEPTH
 70
  3020
  9
$CMLSTYLE
  2
Standard
  9
$CMLJUST
 70
     0
  9
$CMLSCALE
 40
20.0
  9
$PROXYGRAPHICS
 70
     1
  9
$MEASUREMENT
 70
     1
  9
$CELWEIGHT
370
    -1
  9
$ENDCAPS
280
     0
  9
$JOINSTYLE
280
     0
  9
$LWDISPLAY
290
     1
  9
$INSUNITS
 70
     4
  9
$HYPERLINKBASE
  1

  9
$STYLESHEET
  1

  9
$XEDIT
290
     1
  9
$CEPSNTYPE
380
     0
  9
$PSTYLEMODE
290
     1
  9
$FINGERPRINTGUID
  2
{8FF906C3-311F-4EE3-9971-2B4F275E16A2}
  9
$VERSIONGUID
  2
{FAEB1C32-E019-11D5-929B-00C0DF256EC4}
  9
$EXTNAMES
290
     1
  9
$PSVPSCALE
 40
0.0
  9
$OLESTARTUP
290
     0
  0
ENDSEC
  0
SECTION
  2
CLASSES
  0
CLASS
  1
ACDBDICTIONARYWDFLT
  2
AcDbDictionaryWithDefault
  3
ObjectDBX Classes
 90
        0
280
     0
281
     0
  0
CLASS
  1
VISUALSTYLE
  2
AcDbVisualStyle
  3
ObjectDBX Classes
 90
     4095
280
     0
281
     0
  0
CLASS
  1
MATERIAL
  2
AcDbMaterial
  3
ObjectDBX Classes
 90
     1153
280
     0
281
     0
  0
CLASS
  1
SCALE
  2
AcDbScale
  3
ObjectDBX Classes
 90
     1153
280
     0
281
     0
  0
CLASS
  1
TABLESTYLE
  2
AcDbTableStyle
  3
ObjectDBX Classes
 90
     4095
280
     0
281
     0
  0
CLASS
  1
MLEADERSTYLE
  2
AcDbMLeaderStyle
  3
ACDB_MLEADERSTYLE_CLASS
 90
     4095
280
     0
281
     0
  0
CLASS
  1
SUN
  2
AcDbSun
  3
SCENEOE
 90
     1153
280
     0
281
     0
  0
CLASS
  1
ACDBPLACEHOLDER
  2
AcDbPlaceHolder
  3
ObjectDBX Classes
 90
        0
280
     0
281
     0
  0
CLASS
  1
LAYOUT
  2
AcDbLayout
  3
ObjectDBX Classes
 90
        0
280
     0
281
     0
  0
ENDSEC
  0
SECTION
  2
TABLES
  0
TABLE
  2
VPORT
  5
8
330
0
100
AcDbSymbolTable
 70
     1
  0
VPORT
  5
29
330
8
100
AcDbSymbolTableRecord
100
AcDbViewportTableRecord
  2
*Active
 70
     0
 10
0.0
 20
0.0
 11
1.0
 21
1.0
 12
297.0
 22
210.0
 13
0.0
 23
0.0
 14
10.0
 24
10.0
 15
10.0
 25
10.0
 16
0.0
 26
0.0
 36
1.0
 17
0.0
 27
0.0
 37
0.0
 40
420.0
 41
1.4142857143
 42
50.0
 43
0.0
 44
0.0
 50
0.0
 51
0.0
 71
     0
 72
  2000
 73
     1
 74
     3
 75
     0
 76
     0
 77
     0
 78
     0
281
     0
 65
     1
110
0.0
120
0.0
130
0.0
111
1.0
121
0.0
131
0.0
112
0.0
122
1.0
132
0.0
 79
     0
146
0.0
  0
ENDTAB
  0
TABLE
  2
LTYPE
  5
5
330
0
100
AcDbSymbolTable
 70
     6
  0
LTYPE
  5
14
330
5
100
AcDbSymbolTableRecord
100
AcDbLinetypeTableRecord
  2
ByBlock
 70
     0
  3

 72
    65
 73
     0
 40
0.0
  0
LTYPE
  5
15
330
5
100
AcDbSymbolTableRecord
100
AcDbLinetypeTableRecord
  2
ByLayer
 70
     0
  3

 72
    65
 73
     0
 40
0.0
  0
LTYPE
  5
16
330
5
100
AcDbSymbolTableRecord
100
AcDbLinetypeTableRecord
  2
Continuous
 70
     0
  3
Solid line
 72
    65
 73
     0
 40
0.0
  0
LTYPE
  5
6E
330
5
100
AcDbSymbolTableRecord
100
AcDbLinetypeTableRecord
  2
HIDDEN
 70
     0
  3
Hidden __ __ __ __ __ __ __ __ __ __ __ __ __ __
 72
    65
 73
     2
 40
1.905
 49
1.27
 74
     0
 49
-0.635
 74
     0
  0
LTYPE
  5
6F
330
5
100
AcDbSymbolTableRecord
100
AcDbLinetypeTableRecord
  2
PHANTOM
 70
     0
  3
Phantom ______  __  __  ______  __  __  ______
 72
    65
 73
     6
 40
12.7
 49
6.35
 74
     0
 49
-1.27
 74
     0
 49
1.27
 74
     0
 49
-1.27
 74
     0
 49
1.27
 74
     0
 49
-1.27
 74
     0
  0
LTYPE
  5
70
330
5
100
AcDbSymbolTableRecord
100
AcDbLinetypeTableRecord
  2
CENTER
 70
     0
  3
Center ____ _ ____ _ ____ _ ____ _ ____ _ ____
 72
    65
 73
     4
 40
10.16
 49
6.35
 74
     0
 49
-1.27
 74
     0
 49
1.27
 74
     0
 49
-1.27
 74
     0
  0
LTYPE
  5
71
330
5
100
AcDbSymbolTableRecord
100
AcDbLinetypeTableRecord
  2
CENTERX2
 70
     0
  3
Center (2x) ________  __  ________  __  _____
 72
    65
 73
     4
 40
20.32
 49
12.7
 74
     0
 49
-2.54
 74
     0
 49
2.54
 74
     0
 49
-2.54
 74
     0
  0
LTYPE
  5
72
330
5
100
AcDbSymbolTableRecord
100
AcDbLinetypeTableRecord
  2
DOT2
 70
     0
  3
Dot (.5x) ........................................
 72
    65
 73
     2
 40
0.635
 49
0.0
 74
     0
 49
-0.635
 74
     0
  0
ENDTAB
  0
TABLE
  2
LAYER
  5
2
330
0
100
AcDbSymbolTable
 70
     1
  0
LAYER
  5
10
330
2
100
AcDbSymbolTableRecord
100
AcDbLayerTableRecord
  2
0
 70
     0
 62
     7
  6
Continuous
370
    -3
390
F
  0
ENDTAB
  0
TABLE
  2
STYLE
  5
3
330
0
100
AcDbSymbolTable
 70
     2
  0
STYLE
  5
11
330
3
100
AcDbSymbolTableRecord
100
AcDbTextStyleTableRecord
  2
Standard
 70
     0
 40
0.0
 41
1.0
 50
0.0
 71
     0
 42
7.0
  3
txt
  4

  0
STYLE
  5
AA
330
3
100
AcDbSymbolTableRecord
100
AcDbTextStyleTableRecord
  2
SLDTEXTSTYLE0
 70
     0
 40
0.0
 41
0.75
 50
0.0
 71
     0
 42
7.0
  3
TXT
  4

  0
ENDTAB
  0
TABLE
  2
VIEW
  5
6
330
0
100
AcDbSymbolTable
 70
     0
  0
ENDTAB
  0
TABLE
  2
UCS
  5
7
330
0
100
AcDbSymbolTable
 70
     0
  0
ENDTAB
  0
TABLE
  2
APPID
  5
9
330
0
100
AcDbSymbolTable
 70
     1
  0
APPID
  5
12
330
9
100
AcDbSymbolTableRecord
100
AcDbRegAppTableRecord
  2
ACAD
 70
     0
  0
ENDTAB
  0
TABLE
  2
DIMSTYLE
  5
A
330
0
100
AcDbSymbolTable
 70
     6
100
AcDbDimStyleTable
  0
DIMSTYLE
105
27
330
A
100
AcDbSymbolTableRecord
100
AcDbDimStyleTableRecord
  2
ISO-25
 70
     0
 41
2.5
 42
0.625
 43
3.75
 44
1.25
 73
     0
 74
     0
 77
     1
 78
     8
140
2.5
141
2.5
143
0.0393700787
147
0.625
171
     3
172
     1
178
     0
271
     2
272
     2
274
     3
278
    44
283
     0
284
     8
340
11
  0
DIMSTYLE
105
AB
102
{ACAD_REACTORS
330
A9
102
}
330
A
100
AcDbSymbolTableRecord
100
AcDbDimStyleTableRecord
  2
SLDDIMSTYLE0
 70
     0
 41
6.604
 44
0.0
 45
0.000000001
 73
     0
 74
     0
 77
     1
 78
    12
 79
     3
140
7.0
147
1.75
172
     1
173
     1
178
     0
271
     2
272
     2
276
     2
284
    12
289
     0
340
AA
  0
DIMSTYLE
105
B6
102
{ACAD_REACTORS
330
B5
102
}
330
A
100
AcDbSymbolTableRecord
100
AcDbDimStyleTableRecord
  2
SLDDIMSTYLE1
 70
     0
 41
6.604
 44
0.0
 45
0.000000001
 78
     4
 79
     1
140
7.0
141
0.0
147
1.75
173
     1
178
     0
271
     2
272
     2
276
     2
284
    12
340
AA
  0
DIMSTYLE
105
C0
102
{ACAD_REACTORS
330
BF
102
}
330
A
100
AcDbSymbolTableRecord
100
AcDbDimStyleTableRecord
  2
SLDDIMSTYLE2
 70
     0
 41
6.604
 44
0.0
 45
0.000000001
 78
     4
 79
     1
140
7.0
141
0.0
147
1.75
172
     1
173
     1
178
     0
271
     2
272
     2
276
     2
284
    12
340
AA
341
C1
343
C1
  0
DIMSTYLE
105
CE
102
{ACAD_REACTORS
330
CD
102
}
330
A
100
AcDbSymbolTableRecord
100
AcDbDimStyleTableRecord
  2
SLDDIMSTYLE3
 70
     0
 41
6.604
 44
0.0
 45
0.000000001
 78
     4
 79
     1
140
7.0
147
1.75
172
     1
173
     1
178
     0
271
     2
272
     2
276
     2
284
    12
289
     0
340
AA
  0
DIMSTYLE
105
17A
102
{ACAD_REACTORS
330
179
330
184
330
190
102
}
330
A
100
AcDbSymbolTableRecord
100
AcDbDimStyleTableRecord
  2
SLDDIMSTYLE4
 70
     0
 41
6.604
 44
0.0
 45
0.000000001
 73
     0
 74
     0
 77
     1
 78
     4
 79
     1
140
7.0
147
1.75
172
     1
173
     1
178
     0
271
     2
272
     2
276
     2
284
    12
289
     0
340
AA
  0
ENDTAB
  0
TABLE
  2
BLOCK_RECORD
  5
1
330
0
100
AcDbSymbolTable
 70
     9
  0
BLOCK_RECORD
  5
1F
330
1
100
AcDbSymbolTableRecord
100
AcDbBlockTableRecord
  2
*Model_Space
340
22
  0
BLOCK_RECORD
  5
1B
330
1
100
AcDbSymbolTableRecord
100
AcDbBlockTableRecord
  2
*Paper_Space
340
1E
  0
BLOCK_RECORD
  5
23
330
1
100
AcDbSymbolTableRecord
100
AcDbBlockTableRecord
  2
*Paper_Space0
340
26
  0
BLOCK_RECORD
  5
AC
330
1
100
AcDbSymbolTableRecord
100
AcDbBlockTableRecord
  2
_D
340
0
  0
BLOCK_RECORD
  5
B7
330
1
100
AcDbSymbolTableRecord
100
AcDbBlockTableRecord
  2
_D_1
340
0
  0
BLOCK_RECORD
  5
C1
330
1
100
AcDbSymbolTableRecord
100
AcDbBlockTableRecord
  2
_NONE
340
0
  0
BLOCK_RECORD
  5
C4
330
1
100
AcDbSymbolTableRecord
100
AcDbBlockTableRecord
  2
_D_2
340
0
  0
BLOCK_RECORD
  5
CF
330
1
100
AcDbSymbolTableRecord
100
AcDbBlockTableRecord
  2
_D_3
340
0
  0
BLOCK_RECORD
  5
17B
330
1
100
AcDbSymbolTableRecord
100
AcDbBlockTableRecord
  2
_D_4
340
0
  0
BLOCK_RECORD
  5
185
330
1
100
AcDbSymbolTableRecord
100
AcDbBlockTableRecord
  2
_D_5
340
0
  0
BLOCK_RECORD
  5
191
330
1
100
AcDbSymbolTableRecord
100
AcDbBlockTableRecord
  2
_D_6
340
0
  0
ENDTAB
  0
ENDSEC
  0
SECTION
  2
BLOCKS
  0
BLOCK
  5
20
330
1F
100
AcDbEntity
  8
0
100
AcDbBlockBegin
  2
*Model_Space
 70
     0
 10
0.0
 20
0.0
 30
0.0
  3
*Model_Space
  1

  0
ENDBLK
  5
21
330
1F
100
AcDbEntity
  8
0
100
AcDbBlockEnd
  0
BLOCK
  5
1C
330
1B
100
AcDbEntity
 67
     1
  8
0
100
AcDbBlockBegin
  2
*Paper_Space
 70
     0
 10
0.0
 20
0.0
 30
0.0
  3
*Paper_Space
  1

  0
ENDBLK
  5
1D
330
1B
100
AcDbEntity
 67
     1
  8
0
100
AcDbBlockEnd
  0
BLOCK
  5
24
330
23
100
AcDbEntity
  8
0
100
AcDbBlockBegin
  2
*Paper_Space0
 70
     0
 10
0.0
 20
0.0
 30
0.0
  3
*Paper_Space0
  1

  0
ENDBLK
  5
25
330
23
100
AcDbEntity
  8
0
100
AcDbBlockEnd
  0
BLOCK
  5
AD
330
AC
100
AcDbEntity
  8
0
100
AcDbBlockBegin
  2
_D
 70
     0
 10
0.0
 20
0.0
 30
0.0
  3
_D
  1

  0
SOLID
  5
AF
330
AC
100
AcDbEntity
  8
0
  6
Continuous
 62
     7
370
    18
100
AcDbTrace
 10
209.6209114139
 20
69.2510086702
 30
0.0
 11
216.2249114139
 21
68.2350086702
 31
0.0
 12
216.2249114139
 22
70.2670086702
 32
0.0
 13
216.2249114139
 23
70.2670086702
 33
0.0
  0
SOLID
  5
B0
330
AC
100
AcDbEntity
  8
0
  6
Continuous
 62
     7
370
    18
100
AcDbTrace
 10
262.3099176779
 20
69.2510086702
 30
0.0
 11
255.7059176779
 21
70.2670086702
 31
0.0
 12
255.7059176779
 22
68.2350086702
 32
0.0
 13
255.7059176779
 23
68.2350086702
 33
0.0
  0
LINE
  5
B1
330
AC
100
AcDbEntity
  8
0
  6
Continuous
 62
     7
370
    18
100
AcDbLine
 10
209.6209114139
 20
97.4235671737
 30
0.0
 11
209.6209114139
 21
67.2510086702
 31
0.0
  0
LINE
  5
B2
330
AC
100
AcDbEntity
  8
0
  6
Continuous
 62
     7
370
    18
100
AcDbLine
 10
262.3099176779
 20
97.4235671737
 30
0.0
 11
262.3099176779
 21
67.2510086702
 31
0.0
  0
LINE
  5
B3
330
AC
100
AcDbEntity
  8
0
  6
Continuous
 62
     7
370
    18
100
AcDbLine
 10
209.6209114139
 20
69.2510086702
 30
0.0
 11
262.3099176779
 21
69.2510086702
 31
0.0
  0
MTEXT
  5
B4
330
AC
100
AcDbEntity
  8
0
  6
Continuous
 62
     7
370
    18
100
AcDbMText
 10
228.3954141512
 20
78.2744824994
 30
0.0
 40
7.0
 41
0.0
 71
     1
 72
     1
  1
52.69
  7
SLDTEXTSTYLE0
 73
     1
 44
1.0
  0
ENDBLK
  5
AE
330
AC
100
AcDbEntity
  8
0
100
AcDbBlockEnd
  0
BLOCK
  5
B8
330
B7
100
AcDbEntity
  8
0
100
AcDbBlockBegin
  2
_D_1
 70
     0
 10
0.0
 20
0.0
 30
0.0
  3
_D_1
  1

  0
SOLID
  5
BA
330
B7
100
AcDbEntity
  8
0
  6
Continuous
 62
     7
370
    18
100
AcDbTrace
 10
221.1019250617
 20
144.5252258205
 30
0.0
 11
217.992517087
 21
150.4393321813
 31
0.0
 12
216.3586542722
 22
149.2312277561
 32
0.0
 13
216.3586542722
 23
149.2312277561
 33
0.0
  0
LINE
  5
BB
330
B7
100
AcDbEntity
  8
0
  6
Continuous
 62
     7
370
    18
100
AcDbLine
 10
221.1019250617
 20
144.5252258205
 30
0.0
 11
201.6588218993
 21
170.8204388809
 31
0.0
  0
LINE
  5
BC
330
B7
100
AcDbEntity
  8
0
  6
Continuous
 62
     7
370
    18
100
AcDbLine
 10
235.9654145459
 20
124.4235671737
 30
0.0
 11
221.1019250617
 21
144.5252258205
 31
0.0
  0
LINE
  5
BD
330
B7
100
AcDbEntity
  8
0
  6
Continuous
 62
     7
370
    18
100
AcDbLine
 10
201.6588218993
 20
170.8204388809
 30
0.0
 11
169.540763796
 21
170.8204388809
 31
0.0
  0
MTEXT
  5
BE
330
B7
100
AcDbEntity
  8
0
  6
Continuous
 62
     7
370
    18
100
AcDbMText
 10
169.540763796
 20
179.84391271
 30
0.0
 40
7.0
 41
0.0
 71
     1
 72
     1
  1
R25.00
  7
SLDTEXTSTYLE0
 73
     1
 44
1.0
  0
ENDBLK
  5
B9
330
B7
100
AcDbEntity
  8
0
100
AcDbBlockEnd
  0
BLOCK
  5
C2
330
C1
100
AcDbEntity
  8
0
100
AcDbBlockBegin
  2
_NONE
 70
     0
 10
0.0
 20
0.0
 30
0.0
  3
_NONE
  1

  0
ENDBLK
  5
C3
330
C1
100
AcDbEntity
  8
0
100
AcDbBlockEnd
  0
BLOCK
  5
C5
330
C4
100
AcDbEntity
  8
0
100
AcDbBlockBegin
  2
_D_2
 70
     0
 10
0.0
 20
0.0
 30
0.0
  3
_D_2
  1

  0
SOLID
  5
C7
330
C4
100
AcDbEntity
  8
0
  6
Continuous
 62
     7
370
    18
100
AcDbTrace
 10
229.9660790472
 20
126.9251613802
 30
0.0
 11
224.2617725981
 21
130.4045233813
 31
0.0
 12
223.479735763
 22
128.5290388069
 32
0.0
 13
223.479735763
 23
128.5290388069
 33
0.0
  0
LINE
  5
C8
330
C4
100
AcDbEntity
  8
0
  6
Continuous
 62
     7
370
    18
100
AcDbLine
 10
229.9660790472
 20
126.9251613802
 30
0.0
 11
193.7960838042
 21
142.0072734859
 31
0.0
  0
LINE
  5
C9
330
C4
100
AcDbEntity
  8
0
  6
Continuous
 62
     7
370
    18
100
AcDbLine
 10
241.9647500446
 20
121.9219729672
 30
0.0
 11
229.9660790472
 21
126.9251613802
 31
0.0
  0
LINE
  5
CA
330
C4
100
AcDbEntity
  8
0
  6
Continuous
 62
     7
370
    18
100
AcDbLine
 10
193.7960838042
 20
142.0072734859
 30
0.0
 11
156.7892080329
 21
142.0072734859
 31
0.0
  0
MTEXT
  5
CB
330
C4
100
AcDbEntity
  8
0
  6
Continuous
 62
     7
370
    18
100
AcDbMText
 10
156.7892080329
 20
151.0307476643
 30
0.0
 40
7.0
 41
0.0
 71
     1
 72
     1
  1
%%c
  7
SLDTEXTSTYLE0
 73
     1
 44
1.0
  0
MTEXT
  5
CC
330
C4
100
AcDbEntity
  8
0
  6
Continuous
 62
     7
370
    18
100
AcDbMText
 10
167.3460828297
 20
151.1376920176
 30
0.0
 40
7.0
 41
0.0
 71
     1
 72
     1
  1
13.00
  7
SLDTEXTSTYLE0
 73
     1
 44
1.0
  0
ENDBLK
  5
C6
330
C4
100
AcDbEntity
  8
0
100
AcDbBlockEnd
  0
BLOCK
  5
D0
330
CF
100
AcDbEntity
  8
0
100
AcDbBlockBegin
  2
_D_3
 70
     0
 10
0.0
 20
0.0
 30
0.0
  3
_D_3
  1

  0
SOLID
  5
D2
330
CF
100
AcDbEntity
  8
0
  6
Continuous
 62
     7
370
    18
100
AcDbTrace
 10
224.3253040202
 20
112.7292169587
 30
0.0
 11
229.7042585493
 21
116.6930434148
 31
0.0
 12
228.2640816016
 22
118.1265406626
 32
0.0
 13
228.2640816016
 23
118.1265406626
 33
0.0
  0
SOLID
  5
D3
330
CF
100
AcDbEntity
  8
0
  6
Continuous
 62
     7
370
    18
100
AcDbTrace
 10
222.2089202883
 20
110.6029714651
 30
0.0
 11
216.8299657592
 21
106.639145009
 31
0.0
 12
218.2701427069
 22
105.2056477612
 32
0.0
 13
218.2701427069
 23
105.2056477612
 33
0.0
  0
LINE
  5
D4
330
CF
100
AcDbEntity
  8
0
  6
Continuous
 62
     7
370
    18
100
AcDbLine
 10
224.3253040202
 20
112.7292169587
 30
0.0
 11
233.2846618188
 21
121.7303228818
 31
0.0
  0
LINE
  5
D5
330
CF
100
AcDbEntity
  8
0
  6
Continuous
 62
     7
370
    18
100
AcDbLine
 10
222.2089202883
 20
110.6029714651
 30
0.0
 11
163.8360943336
 21
51.9581443179
 31
0.0
  0
LINE
  5
D6
330
CF
100
AcDbEntity
  8
0
  6
Continuous
 62
     7
370
    18
100
AcDbLine
 10
224.3253040202
 20
112.7292169587
 30
0.0
 11
222.2089202883
 21
110.6029714651
 31
0.0
  0
MTEXT
  5
D7
330
CF
100
AcDbEntity
  8
0
  6
Continuous
 62
     7
370
    18
100
AcDbMText
 10
149.2542257834
 20
49.8691181649
 30
0.0
 40
7.0
 41
0.0
 71
     1
 72
     1
  1
3.00
  7
SLDTEXTSTYLE0
 73
     1
 44
1.0
  0
ENDBLK
  5
D1
330
CF
100
AcDbEntity
  8
0
100
AcDbBlockEnd
  0
BLOCK
  5
17C
330
17B
100
AcDbEntity
  8
0
100
AcDbBlockBegin
  2
_D_4
 70
     0
 10
0.0
 20
0.0
 30
0.0
  3
_D_4
  1

  0
SOLID
  5
17E
330
17B
100
AcDbEntity
  8
0
  6
Continuous
 62
     7
370
    18
100
AcDbTrace
 10
359.4694720554
 20
99.4235671737
 30
0.0
 11
360.4854720554
 21
106.0275671737
 31
0.0
 12
358.4534720554
 22
106.0275671737
 32
0.0
 13
358.4534720554
 23
106.0275671737
 33
0.0
  0
SOLID
  5
17F
330
17B
100
AcDbEntity
  8
0
  6
Continuous
 62
     7
370
    18
100
AcDbTrace
 10
359.4694720554
 20
149.4235671737
 30
0.0
 11
358.4534720554
 21
142.8195671737
 31
0.0
 12
360.4854720554
 22
142.8195671737
 32
0.0
 13
360.4854720554
 23
142.8195671737
 33
0.0
  0
LINE
  5
180
330
17B
100
AcDbEntity
  8
0
  6
Continuous
 62
     7
370
    18
100
AcDbLine
 10
308.1143752905
 20
99.4235671737
 30
0.0
 11
361.4694720554
 21
99.4235671737
 31
0.0
  0
LINE
  5
181
330
17B
100
AcDbEntity
  8
0
  6
Continuous
 62
     7
370
    18
100
AcDbLine
 10
288.2640238775
 20
149.4235671737
 30
0.0
 11
361.4694720554
 21
149.4235671737
 31
0.0
  0
LINE
  5
182
330
17B
100
AcDbEntity
  8
0
  6
Continuous
 62
     7
370
    18
100
AcDbLine
 10
359.4694720554
 20
99.4235671737
 30
0.0
 11
359.4694720554
 21
149.4235671737
 31
0.0
  0
MTEXT
  5
183
330
17B
100
AcDbEntity
  8
0
  6
Continuous
 62
     7
370
    18
100
AcDbMText
 10
350.4459982263
 20
114.2536318745
 30
0.0
 40
7.0
 41
0.0
 71
     1
 72
     1
  1
50.00
  7
SLDTEXTSTYLE0
 11
6.123233995736766E-17
 21
1.0
 31
0.0
 73
     1
 44
1.0
  0
ENDBLK
  5
17D
330
17B
100
AcDbEntity
  8
0
100
AcDbBlockEnd
  0
BLOCK
  5
186
330
185
100
AcDbEntity
  8
0
100
AcDbBlockBegin
  2
_D_5
 70
     0
 10
0.0
 20
0.0
 30
0.0
  3
_D_5
  1

  0
SOLID
  5
188
330
185
100
AcDbEntity
  8
0
  6
Continuous
 62
     7
370
    18
100
AcDbTrace
 10
342.8340112203
 20
121.4235671737
 30
0.0
 11
343.8500112203
 21
128.0275671737
 31
0.0
 12
341.8180112203
 22
128.0275671737
 32
0.0
 13
341.8180112203
 23
128.0275671737
 33
0.0
  0
SOLID
  5
189
330
185
100
AcDbEntity
  8
0
  6
Continuous
 62
     7
370
    18
100
AcDbTrace
 10
342.8340112203
 20
103.4235671737
 30
0.0
 11
341.8180112203
 21
96.8195671737
 31
0.0
 12
343.8500112203
 22
96.8195671737
 32
0.0
 13
343.8500112203
 23
96.8195671737
 33
0.0
  0
LINE
  5
18A
330
185
100
AcDbEntity
  8
0
  6
Continuous
 62
     7
370
    18
100
AcDbLine
 10
296.326834892
 20
121.4235671737
 30
0.0
 11
344.8340112203
 21
121.4235671737
 31
0.0
  0
LINE
  5
18B
330
185
100
AcDbEntity
  8
0
  6
Continuous
 62
     7
370
    18
100
AcDbLine
 10
302.8782991088
 20
103.4235671737
 30
0.0
 11
344.8340112203
 21
103.4235671737
 31
0.0
  0
LINE
  5
18C
330
185
100
AcDbEntity
  8
0
  6
Continuous
 62
     7
370
    18
100
AcDbLine
 10
342.8340112203
 20
121.4235671737
 30
0.0
 11
342.8340112203
 21
134.1235671737
 31
0.0
  0
LINE
  5
18D
330
185
100
AcDbEntity
  8
0
  6
Continuous
 62
     7
370
    18
100
AcDbLine
 10
342.8340112203
 20
121.4235671737
 30
0.0
 11
342.8340112203
 21
103.4235671737
 31
0.0
  0
LINE
  5
18E
330
185
100
AcDbEntity
  8
0
  6
Continuous
 62
     7
370
    18
100
AcDbLine
 10
342.8340112203
 20
103.4235671737
 30
0.0
 11
342.8340112203
 21
90.7235671737
 31
0.0
  0
MTEXT
  5
18F
330
185
100
AcDbEntity
  8
0
  6
Continuous
 62
     7
370
    18
100
AcDbMText
 10
333.8105373912
 20
100.2853406259
 30
0.0
 40
7.0
 41
0.0
 71
     1
 72
     1
  1
18.00
  7
SLDTEXTSTYLE0
 11
-6.156016597943509E-15
 21
1.0
 31
0.0
 73
     1
 44
1.0
  0
ENDBLK
  5
187
330
185
100
AcDbEntity
  8
0
100
AcDbBlockEnd
  0
BLOCK
  5
192
330
191
100
AcDbEntity
  8
0
100
AcDbBlockBegin
  2
_D_6
 70
     0
 10
0.0
 20
0.0
 30
0.0
  3
_D_6
  1

  0
SOLID
  5
194
330
191
100
AcDbEntity
  8
0
  6
Continuous
 62
     7
370
    18
100
AcDbTrace
 10
327.347148565
 20
132.9235671737
 30
0.0
 11
328.363148565
 21
139.5275671737
 31
0.0
 12
326.331148565
 22
139.5275671737
 32
0.0
 13
326.331148565
 23
139.5275671737
 33
0.0
  0
SOLID
  5
195
330
191
100
AcDbEntity
  8
0
  6
Continuous
 62
     7
370
    18
100
AcDbTrace
 10
327.347148565
 20
115.9235671737
 30
0.0
 11
326.331148565
 21
109.3195671737
 31
0.0
 12
328.363148565
 22
109.3195671737
 32
0.0
 13
328.363148565
 23
109.3195671737
 33
0.0
  0
LINE
  5
196
330
191
100
AcDbEntity
  8
0
  6
Continuous
 62
     7
370
    18
100
AcDbLine
 10
308.1143752905
 20
132.9235671737
 30
0.0
 11
329.347148565
 21
132.9235671737
 31
0.0
  0
LINE
  5
197
330
191
100
AcDbEntity
  8
0
  6
Continuous
 62
     7
370
    18
100
AcDbLine
 10
308.1143752905
 20
115.9235671737
 30
0.0
 11
329.347148565
 21
115.9235671737
 31
0.0
  0
LINE
  5
198
330
191
100
AcDbEntity
  8
0
  6
Continuous
 62
     7
370
    18
100
AcDbLine
 10
327.347148565
 20
132.9235671737
 30
0.0
 11
327.347148565
 21
145.6235671737
 31
0.0
  0
LINE
  5
199
330
191
100
AcDbEntity
  8
0
  6
Continuous
 62
     7
370
    18
100
AcDbLine
 10
327.347148565
 20
132.9235671737
 30
0.0
 11
327.347148565
 21
115.9235671737
 31
0.0
  0
LINE
  5
19A
330
191
100
AcDbEntity
  8
0
  6
Continuous
 62
     7
370
    18
100
AcDbLine
 10
327.347148565
 20
115.9235671737
 30
0.0
 11
327.347148565
 21
103.2235671737
 31
0.0
  0
MTEXT
  5
19B
330
191
100
AcDbEntity
  8
0
  6
Continuous
 62
     7
370
    18
100
AcDbMText
 10
318.3236743866
 20
108.9751944761
 30
0.0
 40
7.0
 41
0.0
 71
     1
 72
     1
  1
%%c
  7
SLDTEXTSTYLE0
 11
-7.044195017643634E-15
 21
1.0
 31
0.0
 73
     1
 44
1.0
  0
MTEXT
  5
19C
330
191
100
AcDbEntity
  8
0
  6
Continuous
 62
     7
370
    18
100
AcDbMText
 10
318.2167300333
 20
119.5320692729
 30
0.0
 40
7.0
 41
0.0
 71
     1
 72
     1
  1
17.00
  7
SLDTEXTSTYLE0
 11
-7.044195017643634E-15
 21
1.0
 31
0.0
 73
     1
 44
1.0
  0
ENDBLK
  5
193
330
191
100
AcDbEntity
  8
0
100
AcDbBlockEnd
  0
ENDSEC
  0
SECTION
  2
ENTITIES
  0
LWPOLYLINE
  5
73
330
1F
100
AcDbEntity
  8
0
  6
Continuous
 62
     7
370
    25
100
AcDbPolyline
 90
       40
 70
   128
 43
0.0
 10
220.4654147992
 20
103.9335392096
 10
220.7862367997
 20
103.9578765311
 10
221.0987504715
 20
104.0302589216
 10
221.3948607588
 20
104.1488125601
 10
221.6668991516
 20
104.310464082
 10
221.9078192631
 20
104.5110299864
 10
222.1113821635
 20
104.7453116306
 10
222.2723156357
 20
105.0072461047
 10
222.3864510799
 20
105.2900477924
 10
222.4508324782
 20
105.5863909104
 10
222.4637927631
 20
105.8885994979
 10
222.4249957273
 20
106.1888504454
 10
222.3354471991
 20
106.479363484
 10
222.1974652404
 20
106.7526172527
 10
222.0146242673
 20
107.0015336998
 10
221.791660055
 20
107.219664348
 10
221.5343458722
 20
107.4013635196
 10
221.2493481258
 20
107.5419205852
 10
220.9440456847
 20
107.6376996615
 10
220.6263473401
 20
107.6862159797
 10
220.3044822583
 20
107.6862159797
 10
219.9867839137
 20
107.6376996615
 10
219.6814814726
 20
107.5419205852
 10
219.3964837263
 20
107.4013635196
 10
219.1391686121
 20
107.219664348
 10
218.9162043998
 20
107.0015336998
 10
218.7333634267
 20
106.7526172527
 10
218.5953823993
 20
106.479363484
 10
218.5058338711
 20
106.1888504454
 10
218.4670368353
 20
105.8885994979
 10
218.4799971203
 20
105.5863909104
 10
218.5443775872
 20
105.2900477924
 10
218.6585130314
 20
105.0072461047
 10
218.8194474349
 20
104.7453116306
 10
219.0230103353
 20
104.5110299864
 10
219.2639304469
 20
104.310464082
 10
219.5359679083
 20
104.1488125601
 10
219.8320781956
 20
104.0302589216
 10
220.1445927987
 20
103.9578765311
 10
220.4654147992
 20
103.9335392096
  0
LINE
  5
74
330
1F
100
AcDbEntity
  8
0
  6
Continuous
 62
     7
370
    25
100
AcDbLine
 10
262.100287355
 20
103.4235674568
 30
0.0
 11
262.3099168906
 21
99.4235668012
 31
0.0
  0
LINE
  5
75
330
1F
100
AcDbEntity
  8
0
  6
Continuous
 62
     7
370
    25
100
AcDbLine
 10
209.6209122012
 20
99.4235668012
 30
0.0
 11
262.3099168906
 21
99.4235668012
 31
0.0
  0
LINE
  5
76
330
1F
100
AcDbEntity
  8
0
  6
Continuous
 62
     7
370
    25
100
AcDbLine
 10
209.8305417368
 20
103.4235674568
 30
0.0
 11
209.6209122012
 21
99.4235668012
 31
0.0
  0
LINE
  5
77
330
1F
100
AcDbEntity
  8
0
  6
Continuous
 62
     7
370
    25
100
AcDbLine
 10
210.9996756682
 20
125.731966077
 30
0.0
 11
210.773882098
 21
121.4235671476
 31
0.0
  0
ARC
  5
78
330
1F
100
AcDbEntity
  8
0
  6
Continuous
 62
     7
370
    25
100
AcDbCircle
 10
235.9654145459
 20
124.4235671737
 30
0.0
 40
25.00000000000001
100
AcDbArc
 50
3.0
 51
177.0
  0
LINE
  5
79
330
1F
100
AcDbEntity
  8
0
  6
Continuous
 62
     7
370
    25
100
AcDbLine
 10
260.9311534236
 20
125.731966077
 30
0.0
 11
261.1569469938
 21
121.4235671476
 31
0.0
  0
ELLIPSE
  5
7A
330
1F
100
AcDbEntity
  8
0
  6
Continuous
 62
     7
370
    25
100
AcDbEllipse
 10
235.9654145459
 20
130.0369134159
 30
0.0
 11
0.0
 21
15.4225420481738
 31
0.0
210
0.0
220
0.0
230
1.0
 40
0.93141058
 41
0.0
 42
6.283185307179586
  0
CIRCLE
  5
7B
330
1F
100
AcDbEntity
  8
0
  6
Continuous
 62
     7
370
    25
100
AcDbCircle
 10
235.9654145459
 20
124.4235671737
 30
0.0
 40
7.5
  0
LINE
  5
7C
330
1F
100
AcDbEntity
  8
0
  6
Continuous
 62
     7
370
    25
100
AcDbLine
 10
260.087254099
 20
121.4235671476
 30
0.0
 11
261.1569469938
 21
121.4235671476
 31
0.0
  0
LWPOLYLINE
  5
7D
330
1F
100
AcDbEntity
  8
0
  6
Continuous
 62
     7
370
    25
100
AcDbPolyline
 90
       15
 70
   128
 43
0.0
 10
261.1569469938
 20
121.4235671476
 10
261.1584222088
 20
121.3954032545
 10
261.1628236393
 20
121.3114398678
 10
261.1700656036
 20
121.1732539494
 10
261.1800121287
 20
120.9834399313
 10
261.1924788127
 20
120.7455615193
 10
261.2072309623
 20
120.4640855693
 10
261.2239910433
 20
120.1442964055
 10
261.2424424062
 20
119.792199196
 10
261.2622423241
 20
119.4144044683
 10
261.2830164055
 20
119.0180056409
 10
261.3043753574
 20
118.6104458437
 10
261.3259187112
 20
118.1993768231
 10
261.3472422729
 20
117.7925173805
 10
261.367943711
 20
117.3975066893
  0
LINE
  5
7E
330
1F
100
AcDbEntity
  8
0
  6
Continuous
 62
     7
370
    25
100
AcDbLine
 10
261.367943711
 20
117.3975066893
 30
0.0
 11
260.5670230607
 21
117.3975066893
 31
0.0
  0
ELLIPSE
  5
7F
330
1F
100
AcDbEntity
  8
0
  6
Continuous
 62
     7
370
    25
100
AcDbEllipse
 10
260.3129757326
 20
118.4235671737
 30
0.0
 11
-0.2266054609046933
 21
2.999966699582586
 31
0.0
210
0.0
220
0.0
230
1.0
 40
0.0623776325
 41
4.358611408501703
 42
6.27847358569552
  0
LINE
  5
80
330
1F
100
AcDbEntity
  8
0
  6
Continuous
 62
     7
370
    25
100
AcDbLine
 10
211.3638060311
 20
117.3975066893
 30
0.0
 11
210.5628853807
 21
117.3975066893
 31
0.0
  0
LINE
  5
81
330
1F
100
AcDbEntity
  8
0
  6
Continuous
 62
     7
370
    25
100
AcDbLine
 10
210.773882098
 20
121.4235671476
 30
0.0
 11
211.8435749928
 21
121.4235671476
 31
0.0
  0
ELLIPSE
  5
82
330
1F
100
AcDbEntity
  8
0
  6
Continuous
 62
     7
370
    25
100
AcDbEllipse
 10
211.6178533592
 20
118.4235671737
 30
0.0
 11
0.2266054609046648
 21
2.999966699582586
 31
0.0
210
0.0
220
0.0
230
1.0
 40
0.0623776324
 41
0.0047117214839878
 42
1.924573898677895
  0
LWPOLYLINE
  5
83
330
1F
100
AcDbEntity
  8
0
  6
Continuous
 62
     7
370
    25
100
AcDbPolyline
 90
       15
 70
   128
 43
0.0
 10
210.5628853807
 20
117.3975066893
 10
210.5835868189
 20
117.7925173805
 10
210.6049103806
 20
118.1993768231
 10
210.6264537344
 20
118.6104458437
 10
210.6478126863
 20
119.0180056409
 10
210.6685867677
 20
119.4144044683
 10
210.6883866856
 20
119.792199196
 10
210.7068380485
 20
120.1442964055
 10
210.7235981295
 20
120.4640855693
 10
210.7383502791
 20
120.7455615193
 10
210.7508169631
 20
120.9834399313
 10
210.7607634882
 20
121.1732539494
 10
210.7680054525
 20
121.3114398678
 10
210.772406883
 20
121.3954032545
 10
210.773882098
 20
121.4235671476
  0
LINE
  5
84
330
1F
100
AcDbEntity
  8
0
  6
Continuous
 62
     7
370
    25
100
AcDbLine
 10
260.8986390898
 20
103.4235674568
 30
0.0
 11
260.8973464141
 21
103.4482363292
 31
0.0
  0
LINE
  5
85
330
1F
100
AcDbEntity
  8
0
  6
Continuous
 62
     7
370
    25
100
AcDbLine
 10
260.8973464141
 20
103.4482363292
 30
0.0
 11
260.6973467538
 21
103.4482363292
 31
0.0
  0
LINE
  5
86
330
1F
100
AcDbEntity
  8
0
  6
Continuous
 62
     7
370
    25
100
AcDbLine
 10
260.6973467538
 20
103.4482363292
 30
0.0
 11
259.7552990685
 21
121.4235671476
 31
0.0
  0
LINE
  5
87
330
1F
100
AcDbEntity
  8
0
  6
Continuous
 62
     7
370
    25
100
AcDbLine
 10
259.7552990685
 20
121.4235671476
 30
0.0
 11
260.087254099
 21
121.4235671476
 31
0.0
  0
LINE
  5
88
330
1F
100
AcDbEntity
  8
0
  6
Continuous
 62
     7
370
    25
100
AcDbLine
 10
260.5670230607
 20
117.3975066893
 30
0.0
 11
261.1959172556
 21
105.3975075164
 31
0.0
  0
ELLIPSE
  5
89
330
1F
100
AcDbEntity
  8
0
  6
Continuous
 62
     7
370
    25
100
AcDbEllipse
 10
260.941869084
 20
106.4235671737
 30
0.0
 11
-0.2266054609046364
 21
2.999966699582586
 31
0.0
210
0.0
220
0.0
230
1.0
 40
0.0623776325
 41
3.136880932105808
 42
4.358611408501747
  0
LINE
  5
8A
330
1F
100
AcDbEntity
  8
0
  6
Continuous
 62
     7
370
    25
100
AcDbLine
 10
261.1675901482
 20
103.4235674568
 30
0.0
 11
260.8986390898
 21
103.4235674568
 31
0.0
  0
LINE
  5
8B
330
1F
100
AcDbEntity
  8
0
  6
Continuous
 62
     7
370
    25
100
AcDbLine
 10
211.8435749928
 20
121.4235671476
 30
0.0
 11
212.1755300233
 21
121.4235671476
 31
0.0
  0
LINE
  5
8C
330
1F
100
AcDbEntity
  8
0
  6
Continuous
 62
     7
370
    25
100
AcDbLine
 10
212.1755300233
 20
121.4235671476
 30
0.0
 11
211.233482338
 21
103.4482363292
 31
0.0
  0
LINE
  5
8D
330
1F
100
AcDbEntity
  8
0
  6
Continuous
 62
     7
370
    25
100
AcDbLine
 10
211.233482338
 20
103.4482363292
 30
0.0
 11
211.0334826777
 21
103.4482363292
 31
0.0
  0
LINE
  5
8E
330
1F
100
AcDbEntity
  8
0
  6
Continuous
 62
     7
370
    25
100
AcDbLine
 10
211.0334826777
 20
103.4482363292
 30
0.0
 11
211.032190002
 21
103.4235674568
 31
0.0
  0
LINE
  5
8F
330
1F
100
AcDbEntity
  8
0
  6
Continuous
 62
     7
370
    25
100
AcDbLine
 10
211.032190002
 20
103.4235674568
 30
0.0
 11
210.7632389436
 21
103.4235674568
 31
0.0
  0
ELLIPSE
  5
90
330
1F
100
AcDbEntity
  8
0
  6
Continuous
 62
     7
370
    25
100
AcDbEllipse
 10
210.9889600078
 20
106.4235671737
 30
0.0
 11
0.2266054609046364
 21
2.999966699582586
 31
0.0
210
0.0
220
0.0
230
1.0
 40
0.0623776324
 41
1.924573898677767
 42
3.146304375073854
  0
LINE
  5
91
330
1F
100
AcDbEntity
  8
0
  6
Continuous
 62
     7
370
    25
100
AcDbLine
 10
210.7349118362
 20
105.3975075164
 30
0.0
 11
211.3638060311
 21
117.3975066893
 31
0.0
  0
LINE
  5
92
330
1F
100
AcDbEntity
  8
0
  6
Continuous
 62
     7
370
    25
100
AcDbLine
 10
261.1959172556
 20
105.3975075164
 30
0.0
 11
261.9968360434
 21
105.3975075164
 31
0.0
  0
LINE
  5
93
330
1F
100
AcDbEntity
  8
0
  6
Continuous
 62
     7
370
    25
100
AcDbLine
 10
261.9968360434
 20
105.3975075164
 30
0.0
 11
261.367943711
 21
117.3975066893
 31
0.0
  0
LINE
  5
94
330
1F
100
AcDbEntity
  8
0
  6
Continuous
 62
     7
370
    25
100
AcDbLine
 10
209.9339930484
 20
105.3975075164
 30
0.0
 11
210.7349118362
 21
105.3975075164
 31
0.0
  0
LINE
  5
95
330
1F
100
AcDbEntity
  8
0
  6
Continuous
 62
     7
370
    25
100
AcDbLine
 10
209.9339930484
 20
105.3975075164
 30
0.0
 11
210.5628853807
 21
117.3975066893
 31
0.0
  0
LINE
  5
96
330
1F
100
AcDbEntity
  8
0
  6
Continuous
 62
     7
370
    25
100
AcDbLine
 10
262.100287355
 20
103.4235674568
 30
0.0
 11
261.1675901482
 21
103.4235674568
 31
0.0
  0
LWPOLYLINE
  5
97
330
1F
100
AcDbEntity
  8
0
  6
Continuous
 62
     7
370
    25
100
AcDbPolyline
 90
       10
 70
   128
 43
0.0
 10
261.9968360434
 20
105.3975075164
 10
262.0163360754
 20
105.0254366972
 10
262.0344875524
 20
104.6790908702
 10
262.0509570608
 20
104.3648421445
 10
262.0654409895
 20
104.0884721704
 10
262.0776729802
 20
103.8550659694
 10
262.0874276528
 20
103.6689188012
 10
262.0945280561
 20
103.5334542074
 10
262.0988400797
 20
103.45116627
 10
262.100287355
 20
103.4235674568
  0
LINE
  5
98
330
1F
100
AcDbEntity
  8
0
  6
Continuous
 62
     7
370
    25
100
AcDbLine
 10
210.7632389436
 20
103.4235674568
 30
0.0
 11
209.8305417368
 21
103.4235674568
 31
0.0
  0
LWPOLYLINE
  5
99
330
1F
100
AcDbEntity
  8
0
  6
Continuous
 62
     7
370
    25
100
AcDbPolyline
 90
       10
 70
   128
 43
0.0
 10
209.8305417368
 20
103.4235674568
 10
209.8319890121
 20
103.45116627
 10
209.8363010356
 20
103.5334542074
 10
209.843401439
 20
103.6689188012
 10
209.8531561116
 20
103.8550659694
 10
209.8653881023
 20
104.0884721704
 10
209.879872031
 20
104.3648421445
 10
209.8963415394
 20
104.6790908702
 10
209.9144930164
 20
105.0254366972
 10
209.9339930484
 20
105.3975075164
  0
SPLINE
  5
9A
330
1F
100
AcDbEntity
  8
0
  6
Continuous
 62
     7
370
    25
100
AcDbSpline
210
0.0
220
0.0
230
1.0
 70
     8
 71
     3
 72
    22
 73
    18
 74
     0
 42
0.000000001
 43
0.00000001
 40
0.0
 40
0.0
 40
0.0
 40
0.0
 40
0.1250000000000001
 40
0.1250000000000001
 40
0.25
 40
0.25
 40
0.375
 40
0.375
 40
0.5
 40
0.5
 40
0.625
 40
0.625
 40
0.7500000000000001
 40
0.7500000000000001
 40
0.875
 40
0.875
 40
1.0
 40
1.0
 40
1.0
 40
1.0
 10
222.1768323127685
 20
110.6349849405487
 30
0.0
 10
222.9893323127684
 20
109.8224849405496
 30
0.0
 10
223.904446321746
 20
109.051829695784
 30
0.0
 10
225.927633927825
 20
107.6605057630439
 30
0.0
 10
227.035810844097
 20
107.0402875501463
 30
0.0
 10
229.4051016952472
 20
106.0149135552662
 30
0.0
 10
230.6660301363218
 20
105.6102603578518
 30
0.0
 10
233.2733294517221
 20
105.0644177524722
 30
0.0
 10
234.6192204681868
 20
104.9235671736942
 30
0.0
 10
237.3116086236098
 20
104.9235671736942
 30
0.0
 10
238.6574996400745
 20
105.0644177524722
 30
0.0
 10
241.2647989554748
 20
105.6102603578518
 30
0.0
 10
242.5257273965494
 20
106.0149135552662
 30
0.0
 10
244.8950182476996
 20
107.0402875501463
 30
0.0
 10
246.0031951639716
 20
107.6605057630439
 30
0.0
 10
248.0263827700506
 20
109.051829695784
 30
0.0
 10
248.9414967790282
 20
109.8224849405496
 30
0.0
 10
249.7539967790282
 20
110.6349849405487
 30
0.0
  0
SPLINE
  5
9B
330
1F
100
AcDbEntity
  8
0
  6
Continuous
 62
     7
370
    25
100
AcDbSpline
210
0.0
220
0.0
230
1.0
 70
     8
 71
     3
 72
    22
 73
    18
 74
     0
 42
0.000000001
 43
0.00000001
 40
0.0
 40
0.0
 40
0.0
 40
0.0
 40
0.125
 40
0.125
 40
0.25
 40
0.25
 40
0.375
 40
0.375
 40
0.5
 40
0.5
 40
0.625
 40
0.625
 40
0.75
 40
0.75
 40
0.875
 40
0.875
 40
1.0
 40
1.0
 40
1.0
 40
1.0
 10
224.2981526563734
 20
112.756305284063
 30
0.0
 10
224.1731526563774
 20
112.8813052840716
 30
0.0
 10
224.0155116482442
 20
112.9933830066174
 30
0.0
 10
223.6510053634497
 20
113.1511328520029
 30
0.0
 10
223.44459926578
 20
113.1956451123297
 30
0.0
 10
223.0303857033962
 20
113.1956451123429
 30
0.0
 10
222.8239796057238
 20
113.1511328520291
 30
0.0
 10
222.4594733209191
 20
112.9933830066668
 30
0.0
 10
222.3018323127789
 20
112.881305284131
 30
0.0
 10
222.051832312771
 20
112.6313052841298
 30
0.0
 10
221.9397545902309
 20
112.4736642759926
 30
0.0
 10
221.7820047448588
 20
112.1091579911922
 30
0.0
 10
221.7374924845395
 20
111.902751893521
 30
0.0
 10
221.7374924845415
 20
111.4885383311372
 30
0.0
 10
221.7820047448627
 20
111.2821322334663
 30
0.0
 10
221.9397545902384
 20
110.9176259486675
 30
0.0
 10
222.05183231278
 20
110.7599849405314
 30
0.0
 10
222.1768323127852
 20
110.634984940532
 30
0.0
  0
SPLINE
  5
9C
330
1F
100
AcDbEntity
  8
0
  6
Continuous
 62
     7
370
    25
100
AcDbSpline
210
0.0
220
0.0
230
1.0
 70
     8
 71
     3
 72
    22
 73
    18
 74
     0
 42
0.000000001
 43
0.00000001
 40
0.0
 40
0.0
 40
0.0
 40
0.0
 40
0.125
 40
0.125
 40
0.25
 40
0.25
 40
0.375
 40
0.375
 40
0.5
 40
0.5
 40
0.625
 40
0.625
 40
0.75
 40
0.75
 40
0.875
 40
0.875
 40
1.0
 40
1.0
 40
1.0
 40
1.0
 10
224.2981526562819
 20
112.7563052841545
 30
0.0
 10
224.9856526562819
 20
112.06880528415
 30
0.0
 10
225.7599798946485
 20
111.4167123847274
 30
0.0
 10
227.4719078690271
 20
110.2394382877829
 30
0.0
 10
228.4095960289527
 20
109.7146382614798
 30
0.0
 10
230.4143805953187
 20
108.8470141119573
 30
0.0
 10
231.4813200454638
 20
108.504615252603
 30
0.0
 10
233.6874963892753
 20
108.0427484326615
 30
0.0
 10
234.826327249367
 20
107.9235671736942
 30
0.0
 10
237.1045018424296
 20
107.9235671736942
 30
0.0
 10
238.2433327025213
 20
108.0427484326615
 30
0.0
 10
240.4495090463328
 20
108.504615252603
 30
0.0
 10
241.5164484964779
 20
108.8470141119573
 30
0.0
 10
243.5212330628439
 20
109.7146382614798
 30
0.0
 10
244.4589212227695
 20
110.2394382877829
 30
0.0
 10
246.1708491971481
 20
111.4167123847274
 30
0.0
 10
246.9451764355147
 20
112.06880528415
 30
0.0
 10
247.6326764355147
 20
112.7563052841545
 30
0.0
  0
SPLINE
  5
9D
330
1F
100
AcDbEntity
  8
0
  6
Continuous
 62
     7
370
    25
100
AcDbSpline
210
0.0
220
0.0
230
1.0
 70
     8
 71
     3
 72
    22
 73
    18
 74
     0
 42
0.000000001
 43
0.00000001
 40
0.0
 40
0.0
 40
0.0
 40
0.0
 40
0.125
 40
0.125
 40
0.25
 40
0.25
 40
0.375
 40
0.375
 40
0.5
 40
0.5
 40
0.625
 40
0.625
 40
0.75
 40
0.75
 40
0.875
 40
0.875
 40
1.0
 40
1.0
 40
1.0
 40
1.0
 10
249.7539967790115
 20
110.634984940532
 30
0.0
 10
249.8789967790166
 20
110.7599849405314
 30
0.0
 10
249.9910745015582
 20
110.9176259486675
 30
0.0
 10
250.1488243469338
 20
111.2821322334663
 30
0.0
 10
250.1933366072551
 20
111.4885383311372
 30
0.0
 10
250.1933366072571
 20
111.902751893521
 30
0.0
 10
250.1488243469379
 20
112.1091579911922
 30
0.0
 10
249.9910745015657
 20
112.4736642759926
 30
0.0
 10
249.8789967790256
 20
112.6313052841298
 30
0.0
 10
249.6289967790177
 20
112.881305284131
 30
0.0
 10
249.4713557708775
 20
112.9933830066668
 30
0.0
 10
249.1068494860729
 20
113.1511328520291
 30
0.0
 10
248.9004433884004
 20
113.1956451123429
 30
0.0
 10
248.4862298260166
 20
113.1956451123297
 30
0.0
 10
248.2798237283469
 20
113.1511328520029
 30
0.0
 10
247.9153174435524
 20
112.9933830066174
 30
0.0
 10
247.7576764354193
 20
112.8813052840716
 30
0.0
 10
247.6326764354232
 20
112.756305284063
 30
0.0
  0
CIRCLE
  5
9E
330
1F
100
AcDbEntity
  8
0
  6
Continuous
 62
     7
370
    25
100
AcDbCircle
 10
235.9654145459
 20
124.4235671737
 30
0.0
 40
6.5
  0
ARC
  5
9F
330
1F
100
AcDbEntity
  8
0
  6
Continuous
 62
     7
370
    25
100
AcDbCircle
 10
220.5142052998
 20
106.5816924174
 30
0.0
 40
1.964717586895769
100
AcDbArc
 50
268.5770081205
 51
347.4550415665
  0
ARC
  5
A0
330
1F
100
AcDbEntity
  8
0
  6
Continuous
 62
     7
370
    25
100
AcDbCircle
 10
220.4205900395
 20
106.5867665733
 30
0.0
 40
1.96969594281476
100
AcDbArc
 50
192.6639726995
 51
271.3040039447
  0
ELLIPSE
  5
A1
330
1F
100
AcDbEntity
  8
0
  6
HIDDEN
 62
     7
370
    18
100
AcDbEllipse
 10
235.9654145459
 20
130.3306283181
 30
0.0
 11
0.0
 21
16.22951710972993
 31
0.0
210
0.0
220
0.0
230
1.0
 40
0.93141058
 41
0.0
 42
6.283185307179586
  0
LINE
  5
A2
330
1F
100
AcDbEntity
  8
0
  6
HIDDEN
 62
     7
370
    18
100
AcDbLine
 10
211.0334826777
 20
103.4482363292
 30
0.0
 11
211.9755285004
 21
121.4235671476
 31
0.0
  0
LINE
  5
A3
330
1F
100
AcDbEntity
  8
0
  6
HIDDEN
 62
     7
370
    18
100
AcDbLine
 10
260.8973464141
 20
103.4482363292
 30
0.0
 11
259.9553005914
 21
121.4235671476
 31
0.0
  0
ARC
  5
A4
330
1F
100
AcDbEntity
  8
0
  6
HIDDEN
 62
     7
370
    18
100
AcDbCircle
 10
220.4654143336
 20
106.4312681508
 30
0.0
 40
1.98592058333641
100
AcDbArc
 50
352.0018439435
 51
187.9981560565
  0
CIRCLE
  5
A5
330
1F
100
AcDbEntity
  8
0
  6
HIDDEN
 62
     7
370
    18
100
AcDbCircle
 10
235.9654145459
 20
124.4235671737
 30
0.0
 40
8.5
  0
LINE
  5
A6
330
1F
100
AcDbEntity
  8
0
  6
HIDDEN
 62
     7
370
    18
100
AcDbLine
 10
209.725726969
 20
101.423567129
 30
0.0
 11
262.2051021228
 21
101.423567129
 31
0.0
  0
LINE
  5
A7
330
1F
100
AcDbEntity
  8
0
  6
HIDDEN
 62
     7
370
    18
100
AcDbLine
 10
222.4654141957
 20
105.8129258134
 30
0.0
 11
222.4654141957
 21
106.4969654807
 31
0.0
  0
LINE
  5
A8
330
1F
100
AcDbEntity
  8
0
  6
HIDDEN
 62
     7
370
    18
100
AcDbLine
 10
218.4654144714
 20
106.4969654807
 30
0.0
 11
218.4654144714
 21
105.8129258134
 31
0.0
  0
DIMENSION
  5
A9
330
1F
100
AcDbEntity
  8
0
  6
Continuous
 62
     7
370
    18
100
AcDbDimension
  2
_D
 10
262.3099176779
 20
69.2510086702
 30
0.0
 11
240.0329146384
 21
69.2510086702
 31
0.0
 70
   160
  1
<>
 71
     2
 42
-1.0
  3
SLDDIMSTYLE0
100
AcDbAlignedDimension
 13
209.6209114139
 23
99.4235671737
 33
0.0
 14
262.3099176779
 24
99.4235671737
 34
0.0
100
AcDbRotatedDimension
  0
DIMENSION
  5
B5
330
1F
100
AcDbEntity
  8
0
  6
Continuous
 62
     7
370
    18
100
AcDbDimension
  2
_D_1
 10
235.9654145459
 20
124.4235671737
 30
0.0
 11
184.0122928477
 21
176.3766888719
 31
0.0
 70
   164
  1
<>
 71
     1
 42
-1.0
  3
SLDDIMSTYLE1
100
AcDbRadialDimension
 15
221.1019250617
 25
144.5252258205
 35
0.0
 40
0.0
  0
DIMENSION
  5
BF
330
1F
100
AcDbEntity
  8
0
  6
Continuous
 62
     7
370
    18
100
AcDbDimension
  2
_D_2
 10
241.9647500446
 20
121.9219729672
 30
0.0
 11
173.7051459186
 21
147.6169958282
 31
0.0
 70
   163
  1
<>
 71
     1
 42
-1.0
  3
SLDDIMSTYLE2
100
AcDbDiametricDimension
 15
229.9660790472
 25
126.9251613802
 35
0.0
 40
0.0
  0
DIMENSION
  5
CD
330
1F
100
AcDbEntity
  8
0
  6
Continuous
 62
     7
370
    18
100
AcDbDimension
  2
_D_3
 10
222.2089202883
 20
110.6029714651
 30
0.0
 11
158.3056148443
 21
46.4018943268
 31
0.0
 70
   160
  1
<>
 71
     2
 42
-1.0
  3
SLDDIMSTYLE3
100
AcDbAlignedDimension
 13
224.3253040202
 23
112.7292169587
 33
0.0
 14
222.2089202883
 24
110.6029714651
 34
0.0
 50
45.1331806943
100
AcDbRotatedDimension
  0
LINE
  5
D8
330
1F
100
AcDbEntity
  8
0
  6
Continuous
 62
     7
370
    25
100
AcDbLine
 10
250.0449368874
 20
191.8698804012
 30
0.0
 11
244.4654150078
 21
197.4494032121
 31
0.0
  0
LINE
  5
D9
330
1F
100
AcDbEntity
  8
0
  6
Continuous
 62
     7
370
    25
100
AcDbLine
 10
227.465414084
 20
197.4494032121
 30
0.0
 11
221.8858922044
 21
191.8698804012
 31
0.0
  0
LINE
  5
DA
330
1F
100
AcDbEntity
  8
0
  6
Continuous
 62
     7
370
    25
100
AcDbLine
 10
227.465414084
 20
202.6209760016
 30
0.0
 11
227.465414084
 21
197.4494032121
 31
0.0
  0
LINE
  5
DB
330
1F
100
AcDbEntity
  8
0
  6
Continuous
 62
     7
370
    25
100
AcDbLine
 10
244.4654150078
 20
197.4494032121
 30
0.0
 11
244.4654150078
 21
202.6209760016
 31
0.0
  0
LINE
  5
DC
330
1F
100
AcDbEntity
  8
0
  6
Continuous
 62
     7
370
    25
100
AcDbLine
 10
260.5011729667
 20
182.1178797191
 30
0.0
 11
261.3141691456
 21
182.1178797191
 31
0.0
  0
LINE
  5
DD
330
1F
100
AcDbEntity
  8
0
  6
Continuous
 62
     7
370
    25
100
AcDbLine
 10
210.6166599462
 20
182.1178797191
 30
0.0
 11
211.4296561251
 21
182.1178797191
 31
0.0
  0
ELLIPSE
  5
DE
330
1F
100
AcDbEntity
  8
0
  6
Continuous
 62
     7
370
    25
100
AcDbEllipse
 10
235.9654145459
 20
191.8698804452
 30
0.0
 11
24.99999999999997
 21
0.0
 31
0.0
210
0.0
220
0.0
230
1.0
 40
0.3639702343
 41
3.193952531149664
 42
6.230825429619791
  0
LINE
  5
DF
330
1F
100
AcDbEntity
  8
0
  6
Continuous
 62
     7
370
    25
100
AcDbLine
 10
210.9996756682
 20
191.3936625725
 30
0.0
 11
209.725726969
 21
200.241195832
 31
0.0
  0
LINE
  5
E0
330
1F
100
AcDbEntity
  8
0
  6
Continuous
 62
     7
370
    25
100
AcDbLine
 10
209.725726969
 20
200.241195832
 30
0.0
 11
227.465414084
 21
200.241195832
 31
0.0
  0
LINE
  5
E1
330
1F
100
AcDbEntity
  8
0
  6
Continuous
 62
     7
370
    25
100
AcDbLine
 10
244.4654150078
 20
200.241195832
 30
0.0
 11
262.2051021228
 21
200.241195832
 31
0.0
  0
LINE
  5
E2
330
1F
100
AcDbEntity
  8
0
  6
Continuous
 62
     7
370
    25
100
AcDbLine
 10
260.9311534236
 20
191.3936625725
 30
0.0
 11
262.2051021228
 21
200.241195832
 31
0.0
  0
ELLIPSE
  5
E3
330
1F
100
AcDbEntity
  8
0
  6
Continuous
 62
     7
370
    25
100
AcDbEllipse
 10
235.9654145459
 20
189.7198860166
 30
0.0
 11
15.11634394457462
 21
0.0
 31
0.0
210
0.0
220
0.0
230
1.0
 40
0.3907731371
 41
4.712388980384695
 42
6.655712273032251
  0
ELLIPSE
  5
E4
330
1F
100
AcDbEntity
  8
0
  6
Continuous
 62
     7
370
    25
100
AcDbEllipse
 10
235.9654145459
 20
189.7198860166
 30
0.0
 11
15.11634394457462
 21
0.0
 31
0.0
210
0.0
220
0.0
230
1.0
 40
0.3907731371
 41
2.769065687737129
 42
4.712388980384722
  0
LWPOLYLINE
  5
E5
330
1F
100
AcDbEntity
  8
0
  6
Continuous
 62
     7
370
    25
100
AcDbPolyline
 90
       40
 70
   128
 43
0.0
 10
220.4654147992
 20
199.0786701
 10
220.7862367997
 20
199.0698120581
 10
221.0987504715
 20
199.043467038
 10
221.3948607588
 20
199.0003174661
 10
221.6668991516
 20
198.9414809296
 10
221.9078192631
 20
198.8684813051
 10
222.1113821635
 20
198.7832091773
 10
222.2723156357
 20
198.6878727122
 10
222.3864510799
 20
198.5849420099
 10
222.4508324782
 20
198.4770818172
 10
222.4637927631
 20
198.3670865676
 10
222.4249957273
 20
198.2578042453
 10
222.3354471991
 20
198.1520660712
 10
222.1974652404
 20
198.0526096678
 10
222.0146242673
 20
197.9620120047
 10
221.791660055
 20
197.8826186179
 10
221.5343458722
 20
197.8164858675
 10
221.2493481258
 20
197.7653269215
 10
220.9440456847
 20
197.7304665862
 10
220.6263473401
 20
197.7128077789
 10
220.3044822583
 20
197.7128077789
 10
219.9867839137
 20
197.7304665862
 10
219.6814814726
 20
197.7653269215
 10
219.3964837263
 20
197.8164858675
 10
219.1391686121
 20
197.8826186179
 10
218.9162043998
 20
197.9620120047
 10
218.7333634267
 20
198.0526096678
 10
218.5953823993
 20
198.1520660712
 10
218.5058338711
 20
198.2578042453
 10
218.4670368353
 20
198.3670865676
 10
218.4799971203
 20
198.4770818172
 10
218.5443775872
 20
198.5849420099
 10
218.6585130314
 20
198.6878727122
 10
218.8194474349
 20
198.7832091773
 10
219.0230103353
 20
198.8684813051
 10
219.2639304469
 20
198.9414809296
 10
219.5359679083
 20
199.0003174661
 10
219.8320781956
 20
199.043467038
 10
220.1445927987
 20
199.0698120581
 10
220.4654147992
 20
199.0786701
  0
LINE
  5
E6
330
1F
100
AcDbEntity
  8
0
  6
Continuous
 62
     7
370
    25
100
AcDbLine
 10
210.9996756682
 20
189.2653064361
 30
0.0
 11
210.9996756682
 21
191.3936625725
 31
0.0
  0
LINE
  5
E7
330
1F
100
AcDbEntity
  8
0
  6
Continuous
 62
     7
370
    25
100
AcDbLine
 10
260.9311534236
 20
189.2653064361
 30
0.0
 11
260.9311534236
 21
191.3936625725
 31
0.0
  0
ELLIPSE
  5
E8
330
1F
100
AcDbEntity
  8
0
  6
Continuous
 62
     7
370
    25
100
AcDbEllipse
 10
235.9654145459
 20
189.7415249003
 30
0.0
 11
24.99999999999997
 21
0.0
 31
0.0
210
0.0
220
0.0
230
1.0
 40
0.3639702343
 41
3.193952531149666
 42
6.230825429619791
  0
LINE
  5
E9
330
1F
100
AcDbEntity
  8
0
  6
Continuous
 62
     7
370
    25
100
AcDbLine
 10
244.4654150078
 20
197.4494032121
 30
0.0
 11
227.465414084
 21
197.4494032121
 31
0.0
  0
LINE
  5
EA
330
1F
100
AcDbEntity
  8
0
  6
Continuous
 62
     7
370
    25
100
AcDbLine
 10
244.4654150078
 20
202.6209760016
 30
0.0
 11
227.465414084
 21
202.6209760016
 31
0.0
  0
LINE
  5
EB
330
1F
100
AcDbEntity
  8
0
  6
Continuous
 62
     7
370
    25
100
AcDbLine
 10
209.6209122012
 20
198.8407807449
 30
0.0
 11
209.6209122012
 21
202.6209760016
 31
0.0
  0
LINE
  5
EC
330
1F
100
AcDbEntity
  8
0
  6
Continuous
 62
     7
370
    25
100
AcDbLine
 10
209.725726969
 20
202.6209760016
 30
0.0
 11
209.6209122012
 21
202.6209760016
 31
0.0
  0
LINE
  5
ED
330
1F
100
AcDbEntity
  8
0
  6
Continuous
 62
     7
370
    25
100
AcDbLine
 10
209.725726969
 20
200.241195832
 30
0.0
 11
209.725726969
 21
202.6209760016
 31
0.0
  0
LINE
  5
EE
330
1F
100
AcDbEntity
  8
0
  6
Continuous
 62
     7
370
    25
100
AcDbLine
 10
210.773882098
 20
185.1178802109
 30
0.0
 11
210.773882098
 21
190.8334357223
 31
0.0
  0
ELLIPSE
  5
EF
330
1F
100
AcDbEntity
  8
0
  6
Continuous
 62
     7
370
    25
100
AcDbEllipse
 10
210.6166592203
 20
185.1178796233
 30
0.0
 11
0.0
 21
3.000000000000028
 31
0.0
210
0.0
220
0.0
230
1.0
 40
0.0524077793
 41
2.792526803190873
 42
4.712388980384691
  0
LINE
  5
F0
330
1F
100
AcDbEntity
  8
0
  6
Continuous
 62
     7
370
    25
100
AcDbLine
 10
209.9339930484
 20
186.6664442724
 30
0.0
 11
210.5628853807
 21
182.2988021678
 31
0.0
  0
ELLIPSE
  5
F1
330
1F
100
AcDbEntity
  8
0
  6
Continuous
 62
     7
370
    25
100
AcDbEllipse
 10
209.9877658689
 20
189.4855224345
 30
0.0
 11
0.0
 21
3.0
 31
0.0
210
0.0
220
0.0
230
1.0
 40
0.0524077793
 41
1.570796326794897
 42
2.792526803190935
  0
LINE
  5
F2
330
1F
100
AcDbEntity
  8
0
  6
Continuous
 62
     7
370
    25
100
AcDbLine
 10
209.8305417368
 20
189.4855223155
 30
0.0
 11
209.8305417368
 21
197.3848998105
 31
0.0
  0
LINE
  5
F3
330
1F
100
AcDbEntity
  8
0
  6
Continuous
 62
     7
370
    25
100
AcDbLine
 10
209.8305417368
 20
197.3848998105
 30
0.0
 11
209.6209122012
 21
198.8407807449
 31
0.0
  0
LINE
  5
F4
330
1F
100
AcDbEntity
  8
0
  6
Continuous
 62
     7
370
    25
100
AcDbLine
 10
210.9996756682
 20
189.2653064361
 30
0.0
 11
210.773882098
 21
190.8334357223
 31
0.0
  0
ELLIPSE
  5
F5
330
1F
100
AcDbEntity
  8
0
  6
Continuous
 62
     7
370
    25
100
AcDbEllipse
 10
261.3141698715
 20
185.1178796233
 30
0.0
 11
0.0
 21
3.000000000000028
 31
0.0
210
0.0
220
0.0
230
1.0
 40
0.0524077793
 41
1.570796326794897
 42
3.490658503988776
  0
LINE
  5
F6
330
1F
100
AcDbEntity
  8
0
  6
Continuous
 62
     7
370
    25
100
AcDbLine
 10
261.1569469938
 20
185.1178802109
 30
0.0
 11
261.1569469938
 21
190.8334357223
 31
0.0
  0
LINE
  5
F7
330
1F
100
AcDbEntity
  8
0
  6
Continuous
 62
     7
370
    25
100
AcDbLine
 10
262.2051021228
 20
200.241195832
 30
0.0
 11
262.2051021228
 21
202.6209760016
 31
0.0
  0
LINE
  5
F8
330
1F
100
AcDbEntity
  8
0
  6
Continuous
 62
     7
370
    25
100
AcDbLine
 10
262.2051021228
 20
202.6209760016
 30
0.0
 11
262.3099168906
 21
202.6209760016
 31
0.0
  0
LINE
  5
F9
330
1F
100
AcDbEntity
  8
0
  6
Continuous
 62
     7
370
    25
100
AcDbLine
 10
262.3099168906
 20
198.8407807449
 30
0.0
 11
262.3099168906
 21
202.6209760016
 31
0.0
  0
LINE
  5
FA
330
1F
100
AcDbEntity
  8
0
  6
Continuous
 62
     7
370
    25
100
AcDbLine
 10
262.100287355
 20
189.4855223155
 30
0.0
 11
262.100287355
 21
197.3848998105
 31
0.0
  0
ELLIPSE
  5
FB
330
1F
100
AcDbEntity
  8
0
  6
Continuous
 62
     7
370
    25
100
AcDbEllipse
 10
261.9430632229
 20
189.4855224345
 30
0.0
 11
0.0
 21
3.0
 31
0.0
210
0.0
220
0.0
230
1.0
 40
0.0524077793
 41
3.490658503988773
 42
4.712388980384691
  0
LINE
  5
FC
330
1F
100
AcDbEntity
  8
0
  6
Continuous
 62
     7
370
    25
100
AcDbLine
 10
261.9968360434
 20
186.6664442724
 30
0.0
 11
261.367943711
 21
182.2988021678
 31
0.0
  0
LINE
  5
FD
330
1F
100
AcDbEntity
  8
0
  6
Continuous
 62
     7
370
    25
100
AcDbLine
 10
262.100287355
 20
197.3848998105
 30
0.0
 11
262.3099168906
 21
198.8407807449
 31
0.0
  0
LINE
  5
FE
330
1F
100
AcDbEntity
  8
0
  6
Continuous
 62
     7
370
    25
100
AcDbLine
 10
260.9311534236
 20
189.2653064361
 30
0.0
 11
261.1569469938
 21
190.8334357223
 31
0.0
  0
LINE
  5
FF
330
1F
100
AcDbEntity
  8
0
  6
Continuous
 62
     7
370
    25
100
AcDbLine
 10
260.087254099
 20
185.1178802109
 30
0.0
 11
261.1569469938
 21
185.1178802109
 31
0.0
  0
LINE
  5
100
330
1F
100
AcDbEntity
  8
0
  6
Continuous
 62
     7
370
    25
100
AcDbLine
 10
259.9576400737
 20
187.1840500763
 30
0.0
 11
260.087254099
 21
185.1178802109
 31
0.0
  0
LINE
  5
101
330
1F
100
AcDbEntity
  8
0
  6
Continuous
 62
     7
370
    25
100
AcDbLine
 10
210.773882098
 20
185.1178802109
 30
0.0
 11
211.8435749928
 21
185.1178802109
 31
0.0
  0
LINE
  5
102
330
1F
100
AcDbEntity
  8
0
  6
Continuous
 62
     7
370
    25
100
AcDbLine
 10
211.8435749928
 20
185.1178802109
 30
0.0
 11
211.9731890181
 21
187.1840500763
 31
0.0
  0
ELLIPSE
  5
103
330
1F
100
AcDbEntity
  8
0
  6
Continuous
 62
     7
370
    25
100
AcDbEllipse
 10
260.3129757326
 20
185.1178796233
 30
0.0
 11
-0.1892615460261027
 21
2.999966468922168
 31
0.0
210
0.0
220
0.0
230
1.0
 40
0.074943813
 41
1.566068315210236
 42
3.136864642005207
  0
ELLIPSE
  5
104
330
1F
100
AcDbEntity
  8
0
  6
Continuous
 62
     7
370
    25
100
AcDbEllipse
 10
211.6178533592
 20
185.1178796233
 30
0.0
 11
0.1892615460261311
 21
2.999966468922167
 31
0.0
210
0.0
220
0.0
230
1.0
 40
0.074943813
 41
3.146320665174945
 42
4.717116991969352
  0
LINE
  5
105
330
1F
100
AcDbEntity
  8
0
  6
Continuous
 62
     7
370
    25
100
AcDbLine
 10
209.725726969
 20
202.6209760016
 30
0.0
 11
227.465414084
 21
202.6209760016
 31
0.0
  0
LINE
  5
106
330
1F
100
AcDbEntity
  8
0
  6
Continuous
 62
     7
370
    25
100
AcDbLine
 10
244.4654150078
 20
202.6209760016
 30
0.0
 11
262.2051021228
 21
202.6209760016
 31
0.0
  0
LINE
  5
107
330
1F
100
AcDbEntity
  8
0
  6
HIDDEN
 62
     7
370
    18
100
AcDbLine
 10
227.465414084
 20
200.241195832
 30
0.0
 11
244.4654150078
 21
200.241195832
 31
0.0
  0
ELLIPSE
  5
108
330
1F
100
AcDbEntity
  8
0
  6
HIDDEN
 62
     7
370
    18
100
AcDbEllipse
 10
235.9654145459
 20
189.7198860166
 30
0.0
 11
15.11634394457462
 21
0.0
 31
0.0
210
0.0
220
0.0
230
1.0
 40
0.3907731371
 41
0.3725269658526648
 42
2.769065687737129
  0
LINE
  5
109
330
1F
100
AcDbEntity
  8
0
  6
HIDDEN
 62
     7
370
    18
100
AcDbLine
 10
243.4654143783
 20
195.6209757856
 30
0.0
 11
228.4654147135
 21
195.6209757856
 31
0.0
  0
ELLIPSE
  5
10A
330
1F
100
AcDbEntity
  8
0
  6
HIDDEN
 62
     7
370
    18
100
AcDbEllipse
 10
235.9654145459
 20
187.6984339534
 30
0.0
 11
14.36471883443113
 21
0.0
 31
0.0
210
0.0
220
0.0
230
1.0
 40
0.3907731371
 41
0.0
 42
6.283185307179586
  0
LINE
  5
10B
330
1F
100
AcDbEntity
  8
0
  6
HIDDEN
 62
     7
370
    18
100
AcDbLine
 10
212.1755300233
 20
190.4095014116
 30
0.0
 11
211.233482338
 21
196.9519866189
 31
0.0
  0
LINE
  5
10C
330
1F
100
AcDbEntity
  8
0
  6
HIDDEN
 62
     7
370
    18
100
AcDbLine
 10
260.6973467538
 20
196.9519866189
 30
0.0
 11
259.7552990685
 21
190.4095014116
 31
0.0
  0
LINE
  5
10D
330
1F
100
AcDbEntity
  8
0
  6
HIDDEN
 62
     7
370
    18
100
AcDbLine
 10
260.8986390898
 20
193.7728071144
 30
0.0
 11
260.8973464141
 21
193.7638282335
 31
0.0
  0
LINE
  5
10E
330
1F
100
AcDbEntity
  8
0
  6
HIDDEN
 62
     7
370
    18
100
AcDbLine
 10
260.8986390898
 20
197.3848998105
 30
0.0
 11
259.9553005914
 21
190.8334357223
 31
0.0
  0
LINE
  5
10F
330
1F
100
AcDbEntity
  8
0
  6
HIDDEN
 62
     7
370
    18
100
AcDbLine
 10
211.0334826777
 20
193.7638282335
 30
0.0
 11
211.032190002
 21
193.7728071144
 31
0.0
  0
LINE
  5
110
330
1F
100
AcDbEntity
  8
0
  6
HIDDEN
 62
     7
370
    18
100
AcDbLine
 10
211.032190002
 20
197.3848998105
 30
0.0
 11
211.9755285004
 21
190.8334357223
 31
0.0
  0
LINE
  5
111
330
1F
100
AcDbEntity
  8
0
  6
HIDDEN
 62
     7
370
    18
100
AcDbLine
 10
212.1755300233
 20
190.5334353006
 30
0.0
 11
211.9755285004
 21
190.5334353006
 31
0.0
  0
LINE
  5
112
330
1F
100
AcDbEntity
  8
0
  6
HIDDEN
 62
     7
370
    18
100
AcDbLine
 10
211.233482338
 20
197.0759214392
 30
0.0
 11
211.0334826777
 21
197.0759214392
 31
0.0
  0
LINE
  5
113
330
1F
100
AcDbEntity
  8
0
  6
HIDDEN
 62
     7
370
    18
100
AcDbLine
 10
211.0334826777
 20
197.0759214392
 30
0.0
 11
211.9755285004
 21
190.5334353006
 31
0.0
  0
LINE
  5
114
330
1F
100
AcDbEntity
  8
0
  6
HIDDEN
 62
     7
370
    18
100
AcDbLine
 10
211.233482338
 20
197.0759214392
 30
0.0
 11
212.1755300233
 21
190.5334353006
 31
0.0
  0
LINE
  5
115
330
1F
100
AcDbEntity
  8
0
  6
HIDDEN
 62
     7
370
    18
100
AcDbLine
 10
259.7552990685
 20
190.5334353006
 30
0.0
 11
259.9553005914
 21
190.5334353006
 31
0.0
  0
LINE
  5
116
330
1F
100
AcDbEntity
  8
0
  6
HIDDEN
 62
     7
370
    18
100
AcDbLine
 10
260.6973467538
 20
197.0759214392
 30
0.0
 11
260.8973464141
 21
197.0759214392
 31
0.0
  0
LINE
  5
117
330
1F
100
AcDbEntity
  8
0
  6
HIDDEN
 62
     7
370
    18
100
AcDbLine
 10
260.8973464141
 20
197.0759214392
 30
0.0
 11
259.9553005914
 21
190.5334353006
 31
0.0
  0
LINE
  5
118
330
1F
100
AcDbEntity
  8
0
  6
HIDDEN
 62
     7
370
    18
100
AcDbLine
 10
260.6973467538
 20
197.0759214392
 30
0.0
 11
259.7552990685
 21
190.5334353006
 31
0.0
  0
LINE
  5
119
330
1F
100
AcDbEntity
  8
0
  6
HIDDEN
 62
     7
370
    18
100
AcDbLine
 10
259.9553005914
 20
190.5334353006
 30
0.0
 11
259.9553005914
 21
190.8334357223
 31
0.0
  0
LINE
  5
11A
330
1F
100
AcDbEntity
  8
0
  6
HIDDEN
 62
     7
370
    18
100
AcDbLine
 10
259.7552990685
 20
190.4095014116
 30
0.0
 11
259.7552990685
 21
190.5334353006
 31
0.0
  0
LINE
  5
11B
330
1F
100
AcDbEntity
  8
0
  6
HIDDEN
 62
     7
370
    18
100
AcDbLine
 10
259.7552990685
 20
190.4095014116
 30
0.0
 11
259.9576400737
 21
187.1840500763
 31
0.0
  0
LINE
  5
11C
330
1F
100
AcDbEntity
  8
0
  6
HIDDEN
 62
     7
370
    18
100
AcDbLine
 10
259.9553005914
 20
190.8334357223
 30
0.0
 11
261.1569469938
 21
190.8334357223
 31
0.0
  0
LINE
  5
11D
330
1F
100
AcDbEntity
  8
0
  6
HIDDEN
 62
     7
370
    18
100
AcDbLine
 10
211.9755285004
 20
190.5334353006
 30
0.0
 11
211.9755285004
 21
190.8334357223
 31
0.0
  0
LINE
  5
11E
330
1F
100
AcDbEntity
  8
0
  6
HIDDEN
 62
     7
370
    18
100
AcDbLine
 10
212.1755300233
 20
190.4095014116
 30
0.0
 11
212.1755300233
 21
190.5334353006
 31
0.0
  0
LINE
  5
11F
330
1F
100
AcDbEntity
  8
0
  6
HIDDEN
 62
     7
370
    18
100
AcDbLine
 10
211.9731890181
 20
187.1840500763
 30
0.0
 11
212.1755300233
 21
190.4095014116
 31
0.0
  0
LINE
  5
120
330
1F
100
AcDbEntity
  8
0
  6
HIDDEN
 62
     7
370
    18
100
AcDbLine
 10
211.9755285004
 20
190.8334357223
 30
0.0
 11
210.773882098
 21
190.8334357223
 31
0.0
  0
LINE
  5
121
330
1F
100
AcDbEntity
  8
0
  6
HIDDEN
 62
     7
370
    18
100
AcDbLine
 10
261.367943711
 20
182.2988021678
 30
0.0
 11
260.5670230607
 21
182.2988021678
 31
0.0
  0
ELLIPSE
  5
122
330
1F
100
AcDbEntity
  8
0
  6
HIDDEN
 62
     7
370
    18
100
AcDbEllipse
 10
260.3129757326
 20
185.1178796233
 30
0.0
 11
-0.1892615460261027
 21
2.999966468922168
 31
0.0
210
0.0
220
0.0
230
1.0
 40
0.074943813
 41
3.136864642005207
 42
3.485930492404148
  0
LINE
  5
123
330
1F
100
AcDbEntity
  8
0
  6
HIDDEN
 62
     7
370
    18
100
AcDbLine
 10
211.3638060311
 20
182.2988021678
 30
0.0
 11
210.5628853807
 21
182.2988021678
 31
0.0
  0
ELLIPSE
  5
124
330
1F
100
AcDbEntity
  8
0
  6
HIDDEN
 62
     7
370
    18
100
AcDbEllipse
 10
211.6178533592
 20
185.1178796233
 30
0.0
 11
0.1892615460261311
 21
2.999966468922167
 31
0.0
210
0.0
220
0.0
230
1.0
 40
0.074943813
 41
2.797254814775832
 42
3.146320665174945
  0
LINE
  5
125
330
1F
100
AcDbEntity
  8
0
  6
HIDDEN
 62
     7
370
    18
100
AcDbLine
 10
260.5670230607
 20
182.2988021678
 30
0.0
 11
261.1959172556
 21
186.6664442724
 31
0.0
  0
LINE
  5
126
330
1F
100
AcDbEntity
  8
0
  6
HIDDEN
 62
     7
370
    18
100
AcDbLine
 10
210.7349118362
 20
186.6664442724
 30
0.0
 11
211.3638060311
 21
182.2988021678
 31
0.0
  0
LINE
  5
127
330
1F
100
AcDbEntity
  8
0
  6
HIDDEN
 62
     7
370
    18
100
AcDbLine
 10
249.7539963717
 20
194.4601585647
 30
0.0
 11
249.7539963717
 21
194.7601580551
 31
0.0
  0
LINE
  5
128
330
1F
100
AcDbEntity
  8
0
  6
HIDDEN
 62
     7
370
    18
100
AcDbLine
 10
247.6326763774
 20
193.6880604854
 30
0.0
 11
247.6326763774
 21
193.9880609071
 31
0.0
  0
SPLINE
  5
129
330
1F
100
AcDbEntity
  8
0
  6
HIDDEN
 62
     7
370
    18
100
AcDbSpline
210
0.0
220
0.0
230
1.0
 70
     8
 71
     3
 72
    22
 73
    18
 74
     0
 42
0.000000001
 43
0.00000001
 40
0.0
 40
0.0
 40
0.0
 40
0.0
 40
0.125
 40
0.125
 40
0.25
 40
0.25
 40
0.375
 40
0.375
 40
0.5
 40
0.5
 40
0.625
 40
0.625
 40
0.75
 40
0.75
 40
0.875
 40
0.875
 40
1.0
 40
1.0
 40
1.0
 40
1.0
 10
249.7539967790115
 20
194.460158406054
 30
0.0
 10
249.8789967790166
 20
194.4146621267709
 30
0.0
 10
249.9910745015582
 20
194.3572854921097
 30
0.0
 10
250.1488243469338
 20
194.2246160542399
 30
0.0
 10
250.1933366072551
 20
194.1494903785167
 30
0.0
 10
250.1933366072571
 20
193.9987289711796
 30
0.0
 10
250.1488243469379
 20
193.9236032954562
 30
0.0
 10
249.9910745015657
 20
193.790933857586
 30
0.0
 10
249.8789967790256
 20
193.7335572229243
 30
0.0
 10
249.6289967790177
 20
193.6425646643573
 30
0.0
 10
249.4713557708775
 20
193.6017717094299
 30
0.0
 10
249.1068494860729
 20
193.5443554612579
 30
0.0
 10
248.9004433884004
 20
193.5281543234438
 30
0.0
 10
248.4862298260166
 20
193.5281543234486
 30
0.0
 10
248.2798237283469
 20
193.5443554612675
 30
0.0
 10
247.9153174435524
 20
193.6017717094479
 30
0.0
 10
247.7576764354193
 20
193.642564664379
 30
0.0
 10
247.6326764354232
 20
193.6880609436653
 30
0.0
  0
SPLINE
  5
12A
330
1F
100
AcDbEntity
  8
0
  6
HIDDEN
 62
     7
370
    18
100
AcDbSpline
210
0.0
220
0.0
230
1.0
 70
     8
 71
     3
 72
    22
 73
    18
 74
     0
 42
0.000000001
 43
0.00000001
 40
0.0
 40
0.0
 40
0.0
 40
0.0
 40
0.125
 40
0.125
 40
0.25
 40
0.25
 40
0.375
 40
0.375
 40
0.5
 40
0.5
 40
0.625
 40
0.625
 40
0.75
 40
0.75
 40
0.875
 40
0.875
 40
1.0
 40
1.0
 40
1.0
 40
1.0
 10
249.7539967790115
 20
194.760158406054
 30
0.0
 10
249.8789967790166
 20
194.7146621267709
 30
0.0
 10
249.9910745015582
 20
194.6572854921097
 30
0.0
 10
250.1488243469338
 20
194.5246160542399
 30
0.0
 10
250.1933366072551
 20
194.4494903785167
 30
0.0
 10
250.1933366072571
 20
194.2987289711796
 30
0.0
 10
250.1488243469379
 20
194.2236032954562
 30
0.0
 10
249.9910745015657
 20
194.090933857586
 30
0.0
 10
249.8789967790256
 20
194.0335572229243
 30
0.0
 10
249.6289967790177
 20
193.9425646643573
 30
0.0
 10
249.4713557708775
 20
193.9017717094299
 30
0.0
 10
249.1068494860729
 20
193.8443554612579
 30
0.0
 10
248.9004433884004
 20
193.8281543234439
 30
0.0
 10
248.4862298260166
 20
193.8281543234486
 30
0.0
 10
248.2798237283469
 20
193.8443554612675
 30
0.0
 10
247.9153174435524
 20
193.9017717094479
 30
0.0
 10
247.7576764354193
 20
193.9425646643789
 30
0.0
 10
247.6326764354232
 20
193.9880609436653
 30
0.0
  0
LINE
  5
12B
330
1F
100
AcDbEntity
  8
0
  6
HIDDEN
 62
     7
370
    18
100
AcDbLine
 10
224.2981527144
 20
193.6880604854
 30
0.0
 11
224.2981527144
 21
193.9880609071
 31
0.0
  0
LINE
  5
12C
330
1F
100
AcDbEntity
  8
0
  6
HIDDEN
 62
     7
370
    18
100
AcDbLine
 10
222.1768327201
 20
194.4601585647
 30
0.0
 11
222.1768327201
 21
194.7601580551
 31
0.0
  0
SPLINE
  5
12D
330
1F
100
AcDbEntity
  8
0
  6
HIDDEN
 62
     7
370
    18
100
AcDbSpline
210
0.0
220
0.0
230
1.0
 70
     8
 71
     3
 72
    22
 73
    18
 74
     0
 42
0.000000001
 43
0.00000001
 40
0.0
 40
0.0
 40
0.0
 40
0.0
 40
0.125
 40
0.125
 40
0.25
 40
0.25
 40
0.375
 40
0.375
 40
0.5
 40
0.5
 40
0.625
 40
0.625
 40
0.75
 40
0.75
 40
0.875
 40
0.875
 40
1.0
 40
1.0
 40
1.0
 40
1.0
 10
224.2981526563734
 20
193.6880609436653
 30
0.0
 10
224.1731526563774
 20
193.642564664379
 30
0.0
 10
224.0155116482442
 20
193.6017717094479
 30
0.0
 10
223.6510053634497
 20
193.5443554612675
 30
0.0
 10
223.44459926578
 20
193.5281543234486
 30
0.0
 10
223.0303857033962
 20
193.5281543234438
 30
0.0
 10
222.8239796057238
 20
193.5443554612579
 30
0.0
 10
222.4594733209191
 20
193.6017717094299
 30
0.0
 10
222.3018323127789
 20
193.6425646643573
 30
0.0
 10
222.051832312771
 20
193.7335572229243
 30
0.0
 10
221.9397545902309
 20
193.790933857586
 30
0.0
 10
221.7820047448588
 20
193.9236032954562
 30
0.0
 10
221.7374924845395
 20
193.9987289711796
 30
0.0
 10
221.7374924845415
 20
194.1494903785167
 30
0.0
 10
221.7820047448627
 20
194.2246160542399
 30
0.0
 10
221.9397545902384
 20
194.3572854921097
 30
0.0
 10
222.05183231278
 20
194.4146621267709
 30
0.0
 10
222.1768323127852
 20
194.460158406054
 30
0.0
  0
SPLINE
  5
12E
330
1F
100
AcDbEntity
  8
0
  6
HIDDEN
 62
     7
370
    18
100
AcDbSpline
210
0.0
220
0.0
230
1.0
 70
     8
 71
     3
 72
    22
 73
    18
 74
     0
 42
0.000000001
 43
0.00000001
 40
0.0
 40
0.0
 40
0.0
 40
0.0
 40
0.125
 40
0.125
 40
0.25
 40
0.25
 40
0.375
 40
0.375
 40
0.5
 40
0.5
 40
0.625
 40
0.625
 40
0.75
 40
0.75
 40
0.875
 40
0.875
 40
1.0
 40
1.0
 40
1.0
 40
1.0
 10
224.2981526563734
 20
193.9880609436653
 30
0.0
 10
224.1731526563774
 20
193.9425646643789
 30
0.0
 10
224.0155116482442
 20
193.9017717094479
 30
0.0
 10
223.6510053634497
 20
193.8443554612675
 30
0.0
 10
223.44459926578
 20
193.8281543234486
 30
0.0
 10
223.0303857033962
 20
193.8281543234439
 30
0.0
 10
222.8239796057238
 20
193.8443554612579
 30
0.0
 10
222.4594733209191
 20
193.9017717094299
 30
0.0
 10
222.3018323127789
 20
193.9425646643573
 30
0.0
 10
222.051832312771
 20
194.0335572229243
 30
0.0
 10
221.9397545902309
 20
194.090933857586
 30
0.0
 10
221.7820047448588
 20
194.2236032954562
 30
0.0
 10
221.7374924845395
 20
194.2987289711796
 30
0.0
 10
221.7374924845415
 20
194.4494903785167
 30
0.0
 10
221.7820047448627
 20
194.5246160542399
 30
0.0
 10
221.9397545902384
 20
194.6572854921097
 30
0.0
 10
222.05183231278
 20
194.7146621267709
 30
0.0
 10
222.1768323127852
 20
194.760158406054
 30
0.0
  0
SPLINE
  5
12F
330
1F
100
AcDbEntity
  8
0
  6
HIDDEN
 62
     7
370
    18
100
AcDbSpline
210
0.0
220
0.0
230
1.0
 70
     8
 71
     3
 72
    22
 73
    18
 74
     0
 42
0.000000001
 43
0.00000001
 40
0.0
 40
0.0
 40
0.0
 40
0.0
 40
0.125
 40
0.125
 40
0.25
 40
0.25
 40
0.375
 40
0.375
 40
0.5
 40
0.5
 40
0.625
 40
0.625
 40
0.75
 40
0.75
 40
0.875
 40
0.875
 40
1.0
 40
1.0
 40
1.0
 40
1.0
 10
224.2981526562819
 20
193.6880609432725
 30
0.0
 10
224.9856526562819
 20
193.9382904793322
 30
0.0
 10
225.7599798946485
 20
194.1756328846983
 30
0.0
 10
227.4719078690271
 20
194.6041256135587
 30
0.0
 10
228.4095960289527
 20
194.7951372020752
 30
0.0
 10
230.4143805953187
 20
195.1109265670319
 30
0.0
 10
231.4813200454638
 20
195.2355495600835
 30
0.0
 10
233.6874963892753
 20
195.4036553347374
 30
0.0
 10
234.826327249367
 20
195.4470337654839
 30
0.0
 10
237.1045018424296
 20
195.4470337654839
 30
0.0
 10
238.2433327025213
 20
195.4036553347374
 30
0.0
 10
240.4495090463328
 20
195.2355495600835
 30
0.0
 10
241.5164484964779
 20
195.1109265670319
 30
0.0
 10
243.5212330628439
 20
194.7951372020752
 30
0.0
 10
244.4589212227695
 20
194.6041256135587
 30
0.0
 10
246.1708491971481
 20
194.1756328846983
 30
0.0
 10
246.9451764355147
 20
193.9382904793322
 30
0.0
 10
247.6326764355147
 20
193.6880609432725
 30
0.0
  0
SPLINE
  5
130
330
1F
100
AcDbEntity
  8
0
  6
HIDDEN
 62
     7
370
    18
100
AcDbSpline
210
0.0
220
0.0
230
1.0
 70
     8
 71
     3
 72
    22
 73
    18
 74
     0
 42
0.000000001
 43
0.00000001
 40
0.0
 40
0.0
 40
0.0
 40
0.0
 40
0.125
 40
0.125
 40
0.25
 40
0.25
 40
0.375
 40
0.375
 40
0.5
 40
0.5
 40
0.625
 40
0.625
 40
0.75
 40
0.75
 40
0.875
 40
0.875
 40
1.0
 40
1.0
 40
1.0
 40
1.0
 10
224.2981526562819
 20
193.9880609432725
 30
0.0
 10
224.9856526562819
 20
194.2382904793321
 30
0.0
 10
225.7599798946485
 20
194.4756328846983
 30
0.0
 10
227.4719078690271
 20
194.9041256135587
 30
0.0
 10
228.4095960289527
 20
195.0951372020751
 30
0.0
 10
230.4143805953187
 20
195.4109265670319
 30
0.0
 10
231.4813200454638
 20
195.5355495600835
 30
0.0
 10
233.6874963892753
 20
195.7036553347374
 30
0.0
 10
234.826327249367
 20
195.7470337654839
 30
0.0
 10
237.1045018424296
 20
195.7470337654839
 30
0.0
 10
238.2433327025213
 20
195.7036553347374
 30
0.0
 10
240.4495090463328
 20
195.5355495600835
 30
0.0
 10
241.5164484964779
 20
195.4109265670319
 30
0.0
 10
243.5212330628439
 20
195.0951372020751
 30
0.0
 10
244.4589212227695
 20
194.9041256135587
 30
0.0
 10
246.1708491971481
 20
194.4756328846983
 30
0.0
 10
246.9451764355147
 20
194.2382904793321
 30
0.0
 10
247.6326764355147
 20
193.9880609432725
 30
0.0
  0
SPLINE
  5
131
330
1F
100
AcDbEntity
  8
0
  6
HIDDEN
 62
     7
370
    18
100
AcDbSpline
210
0.0
220
0.0
230
1.0
 70
     8
 71
     3
 72
    22
 73
    18
 74
     0
 42
0.000000001
 43
0.00000001
 40
0.0
 40
0.0
 40
0.0
 40
0.0
 40
0.1250000000000001
 40
0.1250000000000001
 40
0.25
 40
0.25
 40
0.375
 40
0.375
 40
0.5
 40
0.5
 40
0.625
 40
0.625
 40
0.7500000000000001
 40
0.7500000000000001
 40
0.875
 40
0.875
 40
1.0
 40
1.0
 40
1.0
 40
1.0
 10
222.1768323127685
 20
194.4601584056883
 30
0.0
 10
222.9893323127684
 20
194.7558842210293
 30
0.0
 10
223.904446321746
 20
195.0363797910051
 30
0.0
 10
225.927633927825
 20
195.5427802887447
 30
0.0
 10
227.035810844097
 20
195.7685212569892
 30
0.0
 10
229.4051016952472
 20
196.1417268701162
 30
0.0
 10
230.6660301363218
 20
196.2890085891756
 30
0.0
 10
233.2733294517221
 20
196.4876790501281
 30
0.0
 10
234.6192204681868
 20
196.5389444682825
 30
0.0
 10
237.3116086236098
 20
196.5389444682825
 30
0.0
 10
238.6574996400745
 20
196.4876790501281
 30
0.0
 10
241.2647989554748
 20
196.2890085891756
 30
0.0
 10
242.5257273965494
 20
196.1417268701162
 30
0.0
 10
244.8950182476996
 20
195.7685212569892
 30
0.0
 10
246.0031951639716
 20
195.5427802887447
 30
0.0
 10
248.0263827700506
 20
195.0363797910051
 30
0.0
 10
248.9414967790282
 20
194.7558842210293
 30
0.0
 10
249.7539967790282
 20
194.4601584056883
 30
0.0
  0
SPLINE
  5
132
330
1F
100
AcDbEntity
  8
0
  6
HIDDEN
 62
     7
370
    18
100
AcDbSpline
210
0.0
220
0.0
230
1.0
 70
     8
 71
     3
 72
    22
 73
    18
 74
     0
 42
0.000000001
 43
0.00000001
 40
0.0
 40
0.0
 40
0.0
 40
0.0
 40
0.1250000000000001
 40
0.1250000000000001
 40
0.25
 40
0.25
 40
0.375
 40
0.375
 40
0.5
 40
0.5
 40
0.625
 40
0.625
 40
0.7500000000000001
 40
0.7500000000000001
 40
0.875
 40
0.875
 40
1.0
 40
1.0
 40
1.0
 40
1.0
 10
222.1768323127685
 20
194.7601584056883
 30
0.0
 10
222.9893323127684
 20
195.0558842210293
 30
0.0
 10
223.904446321746
 20
195.3363797910051
 30
0.0
 10
225.927633927825
 20
195.8427802887447
 30
0.0
 10
227.035810844097
 20
196.0685212569892
 30
0.0
 10
229.4051016952472
 20
196.4417268701162
 30
0.0
 10
230.6660301363218
 20
196.5890085891756
 30
0.0
 10
233.2733294517221
 20
196.7876790501281
 30
0.0
 10
234.6192204681868
 20
196.8389444682825
 30
0.0
 10
237.3116086236098
 20
196.8389444682825
 30
0.0
 10
238.6574996400745
 20
196.7876790501281
 30
0.0
 10
241.2647989554748
 20
196.5890085891756
 30
0.0
 10
242.5257273965494
 20
196.4417268701162
 30
0.0
 10
244.8950182476996
 20
196.0685212569892
 30
0.0
 10
246.0031951639716
 20
195.8427802887447
 30
0.0
 10
248.0263827700506
 20
195.3363797910051
 30
0.0
 10
248.9414967790282
 20
195.0558842210293
 30
0.0
 10
249.7539967790282
 20
194.7601584056883
 30
0.0
  0
LWPOLYLINE
  5
133
330
1F
100
AcDbEntity
  8
0
  6
HIDDEN
 62
     7
370
    18
100
AcDbPolyline
 90
       40
 70
   128
 43
0.0
 10
220.4654147992
 20
197.1992848931
 10
220.7862367997
 20
197.1904266185
 10
221.0987504715
 20
197.1640818311
 10
221.3948607588
 20
197.1209322593
 10
221.6668991516
 20
197.0620959556
 10
221.9078192631
 20
196.9890960982
 10
222.1113821635
 20
196.9038237376
 10
222.2723156357
 20
196.8084875053
 10
222.3864510799
 20
196.705556803
 10
222.4508324782
 20
196.5976966104
 10
222.4637927631
 20
196.4877013607
 10
222.4249957273
 20
196.3784190385
 10
222.3354471991
 20
196.2726808643
 10
222.1974652404
 20
196.1732244609
 10
222.0146242673
 20
196.0826267979
 10
221.791660055
 20
196.0032329453
 10
221.5343458722
 20
195.9371006606
 10
221.2493481258
 20
195.8859417146
 10
220.9440456847
 20
195.8510813794
 10
220.6263473401
 20
195.833422572
 10
220.3044822583
 20
195.833422572
 10
219.9867839137
 20
195.8510813794
 10
219.6814814726
 20
195.8859417146
 10
219.3964837263
 20
195.9371006606
 10
219.1391686121
 20
196.0032329453
 10
218.9162043998
 20
196.0826267979
 10
218.7333634267
 20
196.1732244609
 10
218.5953823993
 20
196.2726808643
 10
218.5058338711
 20
196.3784190385
 10
218.4670368353
 20
196.4877013607
 10
218.4799971203
 20
196.5976966104
 10
218.5443775872
 20
196.705556803
 10
218.6585130314
 20
196.8084875053
 10
218.8194474349
 20
196.9038237376
 10
219.0230103353
 20
196.9890960982
 10
219.2639304469
 20
197.0620959556
 10
219.5359679083
 20
197.1209322593
 10
219.8320781956
 20
197.1640818311
 10
220.1445927987
 20
197.1904266185
 10
220.4654147992
 20
197.1992848931
  0
LINE
  5
134
330
1F
100
AcDbEntity
  8
0
  6
HIDDEN
 62
     7
370
    18
100
AcDbLine
 10
209.9339930484
 20
186.6664442724
 30
0.0
 11
210.7349118362
 21
186.6664442724
 31
0.0
  0
ELLIPSE
  5
135
330
1F
100
AcDbEntity
  8
0
  6
HIDDEN
 62
     7
370
    18
100
AcDbEllipse
 10
210.9889600078
 20
189.4855224345
 30
0.0
 11
0.1892615460260742
 21
2.999966468922139
 31
0.0
210
0.0
220
0.0
230
1.0
 40
0.074943813
 41
1.575524338379557
 42
2.797254814775394
  0
LINE
  5
136
330
1F
100
AcDbEntity
  8
0
  6
HIDDEN
 62
     7
370
    18
100
AcDbLine
 10
261.1959172556
 20
186.6664442724
 30
0.0
 11
261.9968360434
 21
186.6664442724
 31
0.0
  0
ELLIPSE
  5
137
330
1F
100
AcDbEntity
  8
0
  6
HIDDEN
 62
     7
370
    18
100
AcDbEllipse
 10
260.941869084
 20
189.4855224345
 30
0.0
 11
-0.1892615460261027
 21
2.999966468922139
 31
0.0
210
0.0
220
0.0
230
1.0
 40
0.074943813
 41
3.485930492404129
 42
4.707660968800029
  0
LINE
  5
138
330
1F
100
AcDbEntity
  8
0
  6
HIDDEN
 62
     7
370
    18
100
AcDbLine
 10
260.8973464141
 20
193.7638282335
 30
0.0
 11
260.8973464141
 21
197.0759214392
 31
0.0
  0
LINE
  5
139
330
1F
100
AcDbEntity
  8
0
  6
HIDDEN
 62
     7
370
    18
100
AcDbLine
 10
260.6973467538
 20
196.9519866189
 30
0.0
 11
260.6973467538
 21
197.0759214392
 31
0.0
  0
LINE
  5
13A
330
1F
100
AcDbEntity
  8
0
  6
HIDDEN
 62
     7
370
    18
100
AcDbLine
 10
260.8973464141
 20
193.7638282335
 30
0.0
 11
260.6973467538
 21
196.9519866189
 31
0.0
  0
LINE
  5
13B
330
1F
100
AcDbEntity
  8
0
  6
HIDDEN
 62
     7
370
    18
100
AcDbLine
 10
211.0334826777
 20
193.7638282335
 30
0.0
 11
211.0334826777
 21
197.0759214392
 31
0.0
  0
LINE
  5
13C
330
1F
100
AcDbEntity
  8
0
  6
HIDDEN
 62
     7
370
    18
100
AcDbLine
 10
211.233482338
 20
196.9519866189
 30
0.0
 11
211.233482338
 21
197.0759214392
 31
0.0
  0
LINE
  5
13D
330
1F
100
AcDbEntity
  8
0
  6
HIDDEN
 62
     7
370
    18
100
AcDbLine
 10
211.233482338
 20
196.9519866189
 30
0.0
 11
211.0334826777
 21
193.7638282335
 31
0.0
  0
LINE
  5
13E
330
1F
100
AcDbEntity
  8
0
  6
HIDDEN
 62
     7
370
    18
100
AcDbLine
 10
262.100287355
 20
189.4855223155
 30
0.0
 11
261.1675901482
 21
189.4855223155
 31
0.0
  0
LINE
  5
13F
330
1F
100
AcDbEntity
  8
0
  6
HIDDEN
 62
     7
370
    18
100
AcDbLine
 10
260.8986390898
 20
193.7728071144
 30
0.0
 11
260.8986390898
 21
197.3848998105
 31
0.0
  0
LINE
  5
140
330
1F
100
AcDbEntity
  8
0
  6
HIDDEN
 62
     7
370
    18
100
AcDbLine
 10
261.1675901482
 20
189.4855223155
 30
0.0
 11
260.8986390898
 21
193.7728071144
 31
0.0
  0
LINE
  5
141
330
1F
100
AcDbEntity
  8
0
  6
HIDDEN
 62
     7
370
    18
100
AcDbLine
 10
260.8986390898
 20
197.3848998105
 30
0.0
 11
262.100287355
 21
197.3848998105
 31
0.0
  0
LINE
  5
142
330
1F
100
AcDbEntity
  8
0
  6
HIDDEN
 62
     7
370
    18
100
AcDbLine
 10
210.7632389436
 20
189.4855223155
 30
0.0
 11
209.8305417368
 21
189.4855223155
 31
0.0
  0
LINE
  5
143
330
1F
100
AcDbEntity
  8
0
  6
HIDDEN
 62
     7
370
    18
100
AcDbLine
 10
211.032190002
 20
193.7728071144
 30
0.0
 11
211.032190002
 21
197.3848998105
 31
0.0
  0
LINE
  5
144
330
1F
100
AcDbEntity
  8
0
  6
HIDDEN
 62
     7
370
    18
100
AcDbLine
 10
211.032190002
 20
193.7728071144
 30
0.0
 11
210.7632389436
 21
189.4855223155
 31
0.0
  0
LINE
  5
145
330
1F
100
AcDbEntity
  8
0
  6
HIDDEN
 62
     7
370
    18
100
AcDbLine
 10
211.032190002
 20
197.3848998105
 30
0.0
 11
209.8305417368
 21
197.3848998105
 31
0.0
  0
LINE
  5
146
330
1F
100
AcDbEntity
  8
0
  6
HIDDEN
 62
     7
370
    18
100
AcDbLine
 10
209.6209122012
 20
198.8407807449
 30
0.0
 11
262.3099168906
 21
198.8407807449
 31
0.0
  0
LINE
  5
147
330
1F
100
AcDbEntity
  8
0
  6
HIDDEN
 62
     7
370
    18
100
AcDbLine
 10
249.3448654333
 20
189.7415251961
 30
0.0
 11
243.4654143783
 21
195.6209757856
 31
0.0
  0
LINE
  5
148
330
1F
100
AcDbEntity
  8
0
  6
HIDDEN
 62
     7
370
    18
100
AcDbLine
 10
228.4654147135
 20
195.6209757856
 30
0.0
 11
222.5859636585
 21
189.7415251961
 31
0.0
  0
LINE
  5
149
330
1F
100
AcDbEntity
  8
0
  6
HIDDEN
 62
     7
370
    18
100
AcDbLine
 10
229.4654144118
 20
202.6209760016
 30
0.0
 11
229.4654144118
 21
195.6209757856
 31
0.0
  0
LINE
  5
14A
330
1F
100
AcDbEntity
  8
0
  6
HIDDEN
 62
     7
370
    18
100
AcDbLine
 10
242.46541468
 20
195.6209757856
 30
0.0
 11
242.46541468
 21
202.6209760016
 31
0.0
  0
LINE
  5
14B
330
1F
100
AcDbEntity
  8
0
  6
HIDDEN
 62
     7
370
    18
100
AcDbLine
 10
250.1933366204
 20
194.0741095251
 30
0.0
 11
250.1933366204
 21
194.3741099468
 31
0.0
  0
LINE
  5
14C
330
1F
100
AcDbEntity
  8
0
  6
HIDDEN
 62
     7
370
    18
100
AcDbLine
 10
221.7374924714
 20
194.3741099468
 30
0.0
 11
221.7374924714
 21
194.0741095251
 31
0.0
  0
LINE
  5
14D
330
1F
100
AcDbEntity
  8
0
  6
HIDDEN
 62
     7
370
    18
100
AcDbLine
 10
222.4654141957
 20
196.5152447602
 30
0.0
 11
222.4654141957
 21
198.3946299671
 31
0.0
  0
LINE
  5
14E
330
1F
100
AcDbEntity
  8
0
  6
HIDDEN
 62
     7
370
    18
100
AcDbLine
 10
218.4654144714
 20
198.3946299671
 30
0.0
 11
218.4654144714
 21
196.5152447602
 31
0.0
  0
LINE
  5
14F
330
1F
100
AcDbEntity
  8
0
  6
Continuous
 62
     7
370
    25
100
AcDbLine
 10
286.2640243742
 20
149.4235675462
 30
0.0
 11
284.1356691691
 21
149.4235675462
 31
0.0
  0
LINE
  5
150
330
1F
100
AcDbEntity
  8
0
  6
Continuous
 62
     7
370
    25
100
AcDbLine
 10
299.1203462492
 20
114.1011109256
 30
0.0
 11
300.942802501
 21
115.9235667118
 31
0.0
  0
LINE
  5
151
330
1F
100
AcDbEntity
  8
0
  6
Continuous
 62
     7
370
    25
100
AcDbLine
 10
300.942802501
 20
132.9235676356
 30
0.0
 11
287.3062246266
 21
146.5601455101
 31
0.0
  0
LINE
  5
152
330
1F
100
AcDbEntity
  8
0
  6
Continuous
 62
     7
370
    25
100
AcDbLine
 10
306.1143752905
 20
132.9235676356
 30
0.0
 11
300.942802501
 21
132.9235676356
 31
0.0
  0
LINE
  5
153
330
1F
100
AcDbEntity
  8
0
  6
Continuous
 62
     7
370
    25
100
AcDbLine
 10
300.942802501
 20
115.9235667118
 30
0.0
 11
306.1143752905
 21
115.9235667118
 31
0.0
  0
ARC
  5
154
330
1F
100
AcDbEntity
  8
0
  6
Continuous
 62
     7
370
    25
100
AcDbCircle
 10
288.6112789122
 20
118.4235671737
 30
0.0
 40
2.999999999999956
100
AcDbArc
 50
90.0
 51
200.0
  0
LINE
  5
155
330
1F
100
AcDbEntity
  8
0
  6
Continuous
 62
     7
370
    25
100
AcDbLine
 10
288.6112794998
 20
121.4235671476
 30
0.0
 11
294.3268350112
 21
121.4235671476
 31
0.0
  0
LINE
  5
156
330
1F
100
AcDbEntity
  8
0
  6
Continuous
 62
     7
370
    25
100
AcDbLine
 10
292.758705725
 20
125.731966077
 30
0.0
 11
294.3268350112
 21
121.4235671476
 31
0.0
  0
LINE
  5
157
330
1F
100
AcDbEntity
  8
0
  6
Continuous
 62
     7
370
    25
100
AcDbLine
 10
292.758705725
 20
125.731966077
 30
0.0
 11
294.8870618614
 21
125.731966077
 31
0.0
  0
LINE
  5
158
330
1F
100
AcDbEntity
  8
0
  6
Continuous
 62
     7
370
    25
100
AcDbLine
 10
294.8870618614
 20
125.731966077
 30
0.0
 11
303.734595121
 21
101.423567129
 31
0.0
  0
LINE
  5
159
330
1F
100
AcDbEntity
  8
0
  6
Continuous
 62
     7
370
    25
100
AcDbLine
 10
303.734595121
 20
101.423567129
 30
0.0
 11
306.1143752905
 21
101.423567129
 31
0.0
  0
LINE
  5
15A
330
1F
100
AcDbEntity
  8
0
  6
Continuous
 62
     7
370
    25
100
AcDbLine
 10
300.8782990995
 20
103.4235674568
 30
0.0
 11
302.3341800339
 21
99.4235668012
 31
0.0
  0
LINE
  5
15B
330
1F
100
AcDbEntity
  8
0
  6
Continuous
 62
     7
370
    25
100
AcDbLine
 10
292.9789216044
 20
103.4235674568
 30
0.0
 11
300.8782990995
 21
103.4235674568
 31
0.0
  0
ARC
  5
15C
330
1F
100
AcDbEntity
  8
0
  6
Continuous
 62
     7
370
    25
100
AcDbCircle
 10
292.9789217234
 20
106.4235671737
 30
0.0
 40
3.0
100
AcDbArc
 50
200.0
 51
270.0
  0
LINE
  5
15D
330
1F
100
AcDbEntity
  8
0
  6
Continuous
 62
     7
370
    25
100
AcDbLine
 10
290.1598435613
 20
105.3975075164
 30
0.0
 11
285.7922014567
 21
117.3975066893
 31
0.0
  0
LINE
  5
15E
330
1F
100
AcDbEntity
  8
0
  6
Continuous
 62
     7
370
    25
100
AcDbLine
 10
306.1143752905
 20
101.423567129
 30
0.0
 11
306.1143752905
 21
99.4235668012
 31
0.0
  0
LINE
  5
15F
330
1F
100
AcDbEntity
  8
0
  6
Continuous
 62
     7
370
    25
100
AcDbLine
 10
302.3341800339
 20
99.4235668012
 30
0.0
 11
306.1143752905
 21
99.4235668012
 31
0.0
  0
LWPOLYLINE
  5
160
330
1F
100
AcDbEntity
  8
0
  6
Continuous
 62
     7
370
    25
100
AcDbPolyline
 90
       35
 70
   128
 43
0.0
 10
294.8870618614
 20
125.731966077
 10
294.4818564477
 20
126.8452582561
 10
294.0784084397
 20
127.9537209456
 10
293.6775234315
 20
129.0551442333
 10
293.2800004977
 20
130.1473308966
 10
292.8866312626
 20
131.2281037361
 10
292.4982008311
 20
132.29530674
 10
292.1154840636
 20
133.3468127676
 10
291.7392437133
 20
134.3805240147
 10
291.3702304262
 20
135.3943785333
 10
291.0091808784
 20
136.3863562845
 10
290.6568131196
 20
137.354478208
 10
290.3138302985
 20
138.2968127408
 10
289.9809178683
 20
139.2114823364
 10
289.6587398621
 20
140.0966625341
 10
289.3479370299
 20
140.9505866148
 10
289.0491296324
 20
141.7715549149
 10
288.7629118535
 20
142.557926444
 10
288.4898592505
 20
143.3081347176
 10
288.2305119905
 20
144.0206858941
 10
287.9853897515
 20
144.6941550501
 10
287.7549786839
 20
145.3272029438
 10
287.5397407236
 20
145.9185629763
 10
287.3401042792
 20
146.4670598187
 10
287.1564679566
 20
146.9715982356
 10
286.9891968342
 20
147.4311705359
 10
286.8386243257
 20
147.8448640235
 10
286.705054042
 20
148.2118498214
 10
286.5887467536
 20
148.5313977726
 10
286.4899390164
 20
148.8028689899
 10
286.4088264081
 20
149.0257251688
 10
286.3455709788
 20
149.1995211371
 10
286.3002975258
 20
149.3239085802
 10
286.2730973187
 20
149.3986397662
 10
286.2640243742
 20
149.4235675462
  0
LWPOLYLINE
  5
161
330
1F
100
AcDbEntity
  8
0
  6
Continuous
 62
     7
370
    25
100
AcDbPolyline
 90
       35
 70
   128
 43
0.0
 10
292.758705725
 20
125.731966077
 10
292.3535003113
 20
126.8452582561
 10
291.9500532347
 20
127.9537209456
 10
291.5491682264
 20
129.0551442333
 10
291.1516443613
 20
130.1473308966
 10
290.7582751262
 20
131.2281037361
 10
290.369845626
 20
132.29530674
 10
289.9871279272
 20
133.3468127676
 10
289.6108885082
 20
134.3805240147
 10
289.2418761524
 20
135.3943785333
 10
288.880824742
 20
136.3863562845
 10
288.5284569832
 20
137.354478208
 10
288.1854750934
 20
138.2968127408
 10
287.8525626632
 20
139.2114823364
 10
287.5303846571
 20
140.0966625341
 10
287.2195799622
 20
140.9505866148
 10
286.9207725647
 20
141.7715549149
 10
286.6345566484
 20
142.557926444
 10
286.3615040454
 20
143.3081347176
 10
286.1021567854
 20
144.0206858941
 10
285.8570326838
 20
144.6941550501
 10
285.6266234788
 20
145.3272029438
 10
285.4113855186
 20
145.9185629763
 10
285.2117490741
 20
146.4670598187
 10
285.0281127515
 20
146.9715982356
 10
284.8608416292
 20
147.4311705359
 10
284.7102691206
 20
147.8448640235
 10
284.5766969743
 20
148.2118498214
 10
284.4603915485
 20
148.5313977726
 10
284.3615838113
 20
148.8028689899
 10
284.280471203
 20
149.0257251688
 10
284.2172139111
 20
149.1995211371
 10
284.1719404581
 20
149.3239085802
 10
284.144740251
 20
149.3986397662
 10
284.1356691691
 20
149.4235675462
  0
LINE
  5
162
330
1F
100
AcDbEntity
  8
0
  6
Continuous
 62
     7
370
    25
100
AcDbLine
 10
300.942802501
 20
124.4235671737
 30
0.0
 11
300.942802501
 21
132.9235676356
 31
0.0
  0
LINE
  5
163
330
1F
100
AcDbEntity
  8
0
  6
Continuous
 62
     7
370
    25
100
AcDbLine
 10
300.942802501
 20
115.9235667118
 30
0.0
 11
300.942802501
 21
124.4235671737
 31
0.0
  0
LINE
  5
164
330
1F
100
AcDbEntity
  8
0
  6
Continuous
 62
     7
370
    25
100
AcDbLine
 10
306.1143752905
 20
124.4235671737
 30
0.0
 11
306.1143752905
 21
132.9235676356
 31
0.0
  0
LINE
  5
165
330
1F
100
AcDbEntity
  8
0
  6
Continuous
 62
     7
370
    25
100
AcDbLine
 10
306.1143752905
 20
115.9235667118
 30
0.0
 11
306.1143752905
 21
124.4235671737
 31
0.0
  0
LINE
  5
166
330
1F
100
AcDbEntity
  8
0
  6
HIDDEN
 62
     7
370
    18
100
AcDbLine
 10
297.2662064033
 20
103.4235674568
 30
0.0
 11
297.2572275224
 21
103.4482363292
 31
0.0
  0
LINE
  5
167
330
1F
100
AcDbEntity
  8
0
  6
HIDDEN
 62
     7
370
    18
100
AcDbLine
 10
300.8782990995
 20
103.4235674568
 30
0.0
 11
294.3268350112
 21
121.4235671476
 31
0.0
  0
LINE
  5
168
330
1F
100
AcDbEntity
  8
0
  6
HIDDEN
 62
     7
370
    18
100
AcDbLine
 10
297.2572275224
 20
103.4482363292
 30
0.0
 11
300.5693207282
 21
103.4482363292
 31
0.0
  0
LINE
  5
169
330
1F
100
AcDbEntity
  8
0
  6
HIDDEN
 62
     7
370
    18
100
AcDbLine
 10
300.5693207282
 20
103.4482363292
 30
0.0
 11
294.0268345895
 21
121.4235671476
 31
0.0
  0
LINE
  5
16A
330
1F
100
AcDbEntity
  8
0
  6
HIDDEN
 62
     7
370
    18
100
AcDbLine
 10
300.4453859079
 20
103.4482363292
 30
0.0
 11
293.9029007005
 21
121.4235671476
 31
0.0
  0
LINE
  5
16B
330
1F
100
AcDbEntity
  8
0
  6
HIDDEN
 62
     7
370
    18
100
AcDbLine
 10
297.9535578537
 20
110.6349853479
 30
0.0
 11
298.2535573441
 21
110.6349853479
 31
0.0
  0
LINE
  5
16C
330
1F
100
AcDbEntity
  8
0
  6
HIDDEN
 62
     7
370
    18
100
AcDbLine
 10
297.1814597743
 20
112.7563053422
 30
0.0
 11
297.4814601961
 21
112.7563053422
 31
0.0
  0
LINE
  5
16D
330
1F
100
AcDbEntity
  8
0
  6
HIDDEN
 62
     7
370
    18
100
AcDbLine
 10
297.9535578537
 20
110.6349853479
 30
0.0
 11
297.9056515518
 21
110.7666063734
 31
0.0
  0
LINE
  5
16E
330
1F
100
AcDbEntity
  8
0
  6
HIDDEN
 62
     7
370
    18
100
AcDbLine
 10
299.1143750745
 20
124.4235671737
 30
0.0
 11
299.1143750745
 21
131.9235670061
 31
0.0
  0
LINE
  5
16F
330
1F
100
AcDbEntity
  8
0
  6
HIDDEN
 62
     7
370
    18
100
AcDbLine
 10
299.1143750745
 20
116.9235673413
 30
0.0
 11
299.1143750745
 21
124.4235671737
 31
0.0
  0
LINE
  5
170
330
1F
100
AcDbEntity
  8
0
  6
HIDDEN
 62
     7
370
    18
100
AcDbLine
 10
297.3215539726
 20
113.1956446596
 30
0.0
 11
297.0215535509
 21
113.1956446596
 31
0.0
  0
LINE
  5
171
330
1F
100
AcDbEntity
  8
0
  6
HIDDEN
 62
     7
370
    18
100
AcDbLine
 10
296.8051793772
 20
114.6143711784
 30
0.0
 11
299.1143750745
 21
116.9235673413
 31
0.0
  0
LINE
  5
172
330
1F
100
AcDbEntity
  8
0
  6
HIDDEN
 62
     7
370
    18
100
AcDbLine
 10
299.1143750745
 20
131.9235670061
 30
0.0
 11
285.5784871402
 21
145.4594563373
 31
0.0
  0
LINE
  5
173
330
1F
100
AcDbEntity
  8
0
  6
HIDDEN
 62
     7
370
    18
100
AcDbLine
 10
300.0283201012
 20
104.9235667714
 30
0.0
 11
300.3283200572
 21
104.9235667714
 31
0.0
  0
LINE
  5
174
330
1F
100
AcDbEntity
  8
0
  6
HIDDEN
 62
     7
370
    18
100
AcDbLine
 10
298.9396435927
 20
107.9235672631
 30
0.0
 11
299.2396435487
 21
107.9235672631
 31
0.0
  0
LINE
  5
175
330
1F
100
AcDbEntity
  8
0
  6
HIDDEN
 62
     7
370
    18
100
AcDbLine
 10
306.1143752905
 20
130.9235673078
 30
0.0
 11
299.1143750745
 21
130.9235673078
 31
0.0
  0
LINE
  5
176
330
1F
100
AcDbEntity
  8
0
  6
HIDDEN
 62
     7
370
    18
100
AcDbLine
 10
299.1143750745
 20
117.9235670396
 30
0.0
 11
306.1143752905
 21
117.9235670396
 31
0.0
  0
LINE
  5
177
330
1F
100
AcDbEntity
  8
0
  6
HIDDEN
 62
     7
370
    18
100
AcDbLine
 10
300.6926841821
 20
103.9335392096
 30
0.0
 11
302.5720693889
 21
104.6175807395
 31
0.0
  0
LINE
  5
178
330
1F
100
AcDbEntity
  8
0
  6
HIDDEN
 62
     7
370
    18
100
AcDbLine
 10
301.2039891231
 20
108.3763502218
 30
0.0
 11
299.3246039162
 21
107.6923105546
 31
0.0
  0
DIMENSION
  5
179
330
1F
100
AcDbEntity
  8
0
  6
Continuous
 62
     7
370
    18
100
AcDbDimension
  2
_D_4
 10
359.4694720554
 20
149.4235671737
 30
0.0
 11
359.4694720554
 21
125.8911323618
 31
0.0
 70
   160
  1
<>
 71
     2
 42
-1.0
  3
SLDDIMSTYLE4
100
AcDbAlignedDimension
 13
306.1143752905
 23
99.4235671737
 33
0.0
 14
286.2640238775
 24
149.4235671737
 34
0.0
 50
90.0
100
AcDbRotatedDimension
  0
DIMENSION
  5
184
330
1F
100
AcDbEntity
  8
0
  6
Continuous
 62
     7
370
    18
100
AcDbDimension
  2
_D_5
 10
342.8340112203
 20
103.4235671737
 30
0.0
 11
342.8340112203
 21
111.9228411132
 31
0.0
 70
   160
  1
<>
 71
     2
 42
-1.0
  3
SLDDIMSTYLE4
100
AcDbAlignedDimension
 13
294.326834892
 23
121.4235671737
 33
0.0
 14
300.8782991088
 24
103.4235671737
 34
0.0
 50
90.0
100
AcDbRotatedDimension
  0
DIMENSION
  5
190
330
1F
100
AcDbEntity
  8
0
  6
Continuous
 62
     7
370
    18
100
AcDbDimension
  2
_D_6
 10
327.347148565
 20
115.9235671737
 30
0.0
 11
327.347148565
 21
125.8911323618
 31
0.0
 70
   160
  1
%%c<>
 71
     2
 42
-1.0
  3
SLDDIMSTYLE4
100
AcDbAlignedDimension
 13
306.1143752905
 23
132.9235671737
 33
0.0
 14
306.1143752905
 24
115.9235671737
 34
0.0
 50
90.0
100
AcDbRotatedDimension
  0
LINE
  5
19D
330
1F
100
AcDbEntity
  8
0
  6
Continuous
 62
     7
370
    25
100
AcDbLine
 10
295.6766405499
 20
220.4634978347
 30
0.0
 11
294.1716661516
 21
219.5946946075
 31
0.0
  0
LINE
  5
19E
330
1F
100
AcDbEntity
  8
0
  6
Continuous
 62
     7
370
    25
100
AcDbLine
 10
316.671917543
 20
210.6565504805
 30
0.0
 11
315.2481712751
 21
211.4787293189
 31
0.0
  0
LINE
  5
19F
330
1F
100
AcDbEntity
  8
0
  6
Continuous
 62
     7
370
    25
100
AcDbLine
 10
327.4077298272
 20
172.8547825201
 30
0.0
 11
327.9873385563
 21
172.520181523
 31
0.0
  0
LINE
  5
1A0
330
1F
100
AcDbEntity
  8
0
  6
Continuous
 62
     7
370
    25
100
AcDbLine
 10
316.0781403193
 20
213.1889901835
 30
0.0
 11
314.4070036172
 21
212.2242635001
 31
0.0
  0
LINE
  5
1A1
330
1F
100
AcDbEntity
  8
0
  6
Continuous
 62
     7
370
    25
100
AcDbLine
 10
304.4734438432
 20
198.4053674647
 30
0.0
 11
304.2613115107
 21
198.2829060758
 31
0.0
  0
LINE
  5
1A2
330
1F
100
AcDbEntity
  8
0
  6
Continuous
 62
     7
370
    25
100
AcDbLine
 10
291.0921585914
 20
193.8193155519
 30
0.0
 11
291.6717673205
 21
193.4847145548
 31
0.0
  0
SPLINE
  5
1A3
330
1F
100
AcDbEntity
  8
0
  6
Continuous
 62
     7
370
    25
100
AcDbSpline
210
0.0
220
0.0
230
1.0
 70
     8
 71
     3
 72
    13
 73
     9
 74
     0
 42
0.000000001
 43
0.00000001
 40
0.0
 40
0.0
 40
0.0
 40
0.0
 40
0.1590423870334452
 40
0.3271710177906426
 40
0.5000260098450835
 40
0.6728813895883954
 40
0.8410096641186448
 40
1.0
 40
1.0
 40
1.0
 40
1.0
 10
305.973402107973
 20
197.5394120770609
 30
0.0
 10
305.886815999257
 20
197.6313326012547
 30
0.0
 10
305.7086970345989
 20
197.8204251571279
 30
0.0
 10
305.4084938310429
 20
198.0737264884335
 30
0.0
 10
305.1053101552191
 20
198.2788742162705
 30
0.0
 10
304.8319785785116
 20
198.406541438724
 30
0.0
 10
304.6110756456885
 20
198.4540781080969
 30
0.0
 10
304.518463135481
 20
198.4212904236707
 30
0.0
 10
304.4734504286644
 20
198.4053545374393
 30
0.0
  0
SPLINE
  5
1A4
330
1F
100
AcDbEntity
  8
0
  6
Continuous
 62
     7
370
    25
100
AcDbSpline
210
0.0
220
0.0
230
1.0
 70
     8
 71
     3
 72
    17
 73
    13
 74
     0
 42
0.000000001
 43
0.00000001
 40
0.0
 40
0.0
 40
0.0
 40
0.0
 40
0.0927052807589287
 40
0.2022124420068314
 40
0.3069133614769303
 40
0.4032645281929528
 40
0.4981658223349799
 40
0.5984887056392361
 40
0.7016322734832106
 40
0.8047756099915252
 40
0.905098705857973
 40
1.0
 40
1.0
 40
1.0
 40
1.0
 10
324.6120042420346
 20
186.0499536088794
 30
0.0
 10
324.598143769597
 20
186.1173642359222
 30
0.0
 10
324.5679107563745
 20
186.2644029741683
 30
0.0
 10
324.4253835685645
 20
186.5469491012733
 30
0.0
 10
324.2234373295649
 20
186.8519761785974
 30
0.0
 10
323.980129820428
 20
187.1489078698386
 30
0.0
 10
323.7071673748849
 20
187.4286580406004
 30
0.0
 10
323.4089262501413
 20
187.6827142879719
 30
0.0
 10
323.1051930521604
 20
187.8876500233168
 30
0.0
 10
322.8320083976528
 20
188.0153748919136
 30
0.0
 10
322.6110475760686
 20
188.0628991074117
 30
0.0
 10
322.5184264464704
 20
188.0301060411779
 30
0.0
 10
322.473402025785
 20
188.0141648750955
 30
0.0
  0
SPLINE
  5
1A5
330
1F
100
AcDbEntity
  8
0
  6
Continuous
 62
     7
370
    25
100
AcDbSpline
210
0.0
220
0.0
230
1.0
 70
     8
 71
     3
 72
    22
 73
    18
 74
     0
 42
0.000000001
 43
0.00000001
 40
0.0
 40
0.0
 40
0.0
 40
0.0
 40
0.125
 40
0.125
 40
0.25
 40
0.25
 40
0.375
 40
0.375
 40
0.5
 40
0.5
 40
0.625
 40
0.625
 40
0.75
 40
0.75
 40
0.875
 40
0.875
 40
1.0
 40
1.0
 40
1.0
 40
1.0
 10
305.9734020924137
 20
197.5394120681336
 30
0.0
 10
306.6364770062804
 20
196.7995446830478
 30
0.0
 10
307.3518354716844
 20
196.0478848307347
 30
0.0
 10
308.8653414655368
 20
194.5626890110834
 30
0.0
 10
309.6634527115837
 20
193.8293719666251
 30
0.0
 10
311.3043462746667
 20
192.4314667475322
 30
0.0
 10
312.1469081584584
 20
191.7672267051888
 30
0.0
 10
313.8257791448752
 20
190.558144924487
 30
0.0
 10
314.6617273512086
 20
190.0136604378115
 30
0.0
 10
316.2726400546901
 20
189.0837003288491
 30
0.0
 10
317.0472418959474
 20
188.6984340633517
 30
0.0
 10
318.4883754159354
 20
188.1063755808544
 30
0.0
 10
319.1546937727699
 20
187.8995576012757
 30
0.0
 10
320.348993733078
 20
187.6607404379305
 30
0.0
 10
320.8769738000744
 20
187.6285212622655
 30
0.0
 10
321.7844995653942
 20
187.7160851967778
 30
0.0
 10
322.1642051822031
 20
187.8355780104831
 30
0.0
 10
322.4734020924679
 20
188.0141648186909
 30
0.0
  0
LWPOLYLINE
  5
1A6
330
1F
100
AcDbEntity
  8
0
  6
Continuous
 62
     7
370
    25
100
AcDbPolyline
 90
       40
 70
   128
 43
0.0
 10
305.533925394
 20
193.2106372738
 10
305.75451706
 20
193.0959328646
 10
305.9568690188
 20
193.0167126431
 10
306.1357392561
 20
192.9750292768
 10
306.286495899
 20
192.9719599487
 10
306.4052334495
 20
193.0075867905
 10
306.4888774923
 20
193.0809835895
 10
306.5352617455
 20
193.1902534448
 10
306.5431846944
 20
193.3325652831
 10
306.5124405441
 20
193.5042318172
 10
306.4438264625
 20
193.7008065147
 10
306.3391185443
 20
193.9172012874
 10
306.2010299928
 20
194.1478083606
 10
306.0331357168
 20
194.3866575027
 10
305.8397854029
 20
194.6275620339
 10
305.625985965
 20
194.8642806136
 10
305.3972747744
 20
195.0906866289
 10
305.1595760977
 20
195.3009111561
 10
304.9190446918
 20
195.4895142453
 10
304.6819113756
 20
195.6516071552
 10
304.4543183936
 20
195.782993787
 10
304.2421584022
 20
195.8802723828
 10
304.0509269553
 20
195.9409206831
 10
303.8855779538
 20
195.9633706279
 10
303.7503912787
 20
195.9470383788
 10
303.6488717037
 20
195.8923495907
 10
303.5836458336
 20
195.8007179132
 10
303.5564048108
 20
195.6745179813
 10
303.5678526192
 20
195.5170190528
 10
303.6176932432
 20
195.332298495
 10
303.7046359355
 20
195.1251429157
 10
303.8264284739
 20
194.900915266
 10
303.979917418
 20
194.6654223252
 10
304.1611281225
 20
194.4247646975
 10
304.3653654942
 20
194.1851774954
 10
304.587340433
 20
193.9528615201
 10
304.8213035159
 20
193.7338368779
 10
305.061196463
 20
193.5337734036
 10
305.3008062358
 20
193.3578545482
 10
305.533925394
 20
193.2106372738
  0
LINE
  5
1A7
330
1F
100
AcDbEntity
  8
0
  6
Continuous
 62
     7
370
    25
100
AcDbLine
 10
335.1054756788
 20
175.8744694423
 30
0.0
 11
336.2831694263
 21
173.117030535
 31
0.0
  0
LINE
  5
1A8
330
1F
100
AcDbEntity
  8
0
  6
Continuous
 62
     7
370
    25
100
AcDbLine
 10
299.0264169164
 20
194.6248959512
 30
0.0
 11
324.0178622588
 21
180.1976416477
 31
0.0
  0
LINE
  5
1A9
330
1F
100
AcDbEntity
  8
0
  6
Continuous
 62
     7
370
    25
100
AcDbLine
 10
333.3060517077
 20
174.8356840114
 30
0.0
 11
336.2831694263
 21
173.117030535
 31
0.0
  0
LINE
  5
1AA
330
1F
100
AcDbEntity
  8
0
  6
Continuous
 62
     7
370
    25
100
AcDbLine
 10
298.4583322223
 20
196.2921449095
 30
0.0
 11
299.0264169164
 21
194.6248959512
 31
0.0
  0
LINE
  5
1AB
330
1F
100
AcDbEntity
  8
0
  6
Continuous
 62
     7
370
    25
100
AcDbLine
 10
298.9948777382
 20
196.7206739094
 30
0.0
 11
295.0293341039
 21
208.3589994568
 31
0.0
  0
LINE
  5
1AC
330
1F
100
AcDbEntity
  8
0
  6
Continuous
 62
     7
370
    25
100
AcDbLine
 10
295.0293341039
 20
208.3589994568
 30
0.0
 11
294.1796417842
 21
208.849516392
 31
0.0
  0
LINE
  5
1AD
330
1F
100
AcDbEntity
  8
0
  6
Continuous
 62
     7
370
    25
100
AcDbLine
 10
293.2304670968
 20
211.6352133658
 30
0.0
 11
294.1796417842
 21
208.849516392
 31
0.0
  0
ELLIPSE
  5
1AE
330
1F
100
AcDbEntity
  8
0
  6
Continuous
 62
     7
370
    25
100
AcDbEllipse
 10
311.2206476599
 20
200.5701307028
 30
0.0
 11
-17.65654889212215
 21
18.57184747814171
 31
0.0
210
0.0
220
0.0
230
1.0
 40
0.3495549005
 41
3.895352153432932
 42
6.932225051903033
  0
LINE
  5
1AF
330
1F
100
AcDbEntity
  8
0
  6
Continuous
 62
     7
370
    25
100
AcDbLine
 10
328.5373536123
 20
191.2529816284
 30
0.0
 11
329.805848629
 21
188.2829449523
 31
0.0
  0
LINE
  5
1B0
330
1F
100
AcDbEntity
  8
0
  6
Continuous
 62
     7
370
    25
100
AcDbLine
 10
328.9561563092
 20
188.7734618875
 30
0.0
 11
329.805848629
 21
188.2829449523
 31
0.0
  0
ELLIPSE
  5
1B1
330
1F
100
AcDbEntity
  8
0
  6
Continuous
 62
     7
370
    25
100
AcDbEllipse
 10
309.7759641968
 20
204.3196589898
 30
0.0
 11
-10.15136094128803
 21
11.30028760445387
 31
0.0
210
0.0
220
0.0
230
1.0
 40
0.3526131095
 41
0.0
 42
6.283185307179586
  0
ELLIPSE
  5
1B2
330
1F
100
AcDbEntity
  8
0
  6
Continuous
 62
     7
370
    25
100
AcDbEllipse
 10
312.7256222985
 20
201.4389340687
 30
0.0
 11
-17.6565488921222
 21
18.57184747814176
 31
0.0
210
0.0
220
0.0
230
1.0
 40
0.3495549005
 41
3.895352153432929
 42
6.199105502003351
  0
LINE
  5
1B3
330
1F
100
AcDbEntity
  8
0
  6
Continuous
 62
     7
370
    25
100
AcDbLine
 10
328.5373536123
 20
191.2529816284
 30
0.0
 11
330.0423286691
 21
192.1217852357
 31
0.0
  0
ARC
  5
1B4
330
1F
100
AcDbEntity
  8
0
  6
Continuous
 62
     7
370
    25
100
AcDbCircle
 10
309.8388824528
 20
199.8837486778
 30
0.0
 40
12.75710105094193
100
AcDbArc
 50
24.3150840916
 51
57.6136244052
  0
LWPOLYLINE
  5
1B5
330
1F
100
AcDbEntity
  8
0
  6
Continuous
 62
     7
370
    25
100
AcDbPolyline
 90
       45
 70
   128
 43
0.0
 10
312.0771732467
 20
209.668903709
 10
311.9975960454
 20
209.640305499
 10
311.6675220135
 20
209.4876577998
 10
311.3634746483
 20
209.2892940841
 10
311.0875866463
 20
209.0466063893
 10
310.8417931405
 20
208.7612966227
 10
310.6278182005
 20
208.4353661041
 10
310.4471629783
 20
208.0711007359
 10
310.3010938552
 20
207.6710561723
 10
310.1906361849
 20
207.2380379523
 10
310.1165644157
 20
206.7750835324
 10
310.0793981393
 20
206.2854402804
 10
310.0793981393
 20
205.7725425663
 10
310.1165644157
 20
205.2399880449
 10
310.1906361849
 20
204.6915121807
 10
310.3010938552
 20
204.1309622491
 10
310.4471629783
 20
203.5622698657
 10
310.6278182005
 20
202.9894244177
 10
310.8417931405
 20
202.416443692
 10
311.0875866463
 20
201.8473467842
 10
311.3634746483
 20
201.2861255824
 10
311.6675220135
 20
200.7367162511
 10
311.9975960454
 20
200.2029731865
 10
312.3513816309
 20
199.6886393599
 10
312.7263968803
 20
199.1973236
 10
313.1200115669
 20
198.7324709374
 10
313.5294647429
 20
198.2973429283
 10
313.9518844955
 20
197.8949910409
 10
314.3843077862
 20
197.5282375978
 10
314.8237013589
 20
197.1996557206
 10
315.2669832974
 20
196.9115492814
 10
315.7110442734
 20
196.6659394946
 10
316.1527694641
 20
196.4645496037
 10
316.5890606336
 20
196.3087913728
 10
317.0168573199
 20
196.1997581793
 10
317.4331590294
 20
196.1382141017
 10
317.8350455289
 20
196.1245909516
 10
318.2196980833
 20
196.1589847582
 10
318.5844181418
 20
196.2411541064
 10
318.9266482468
 20
196.3705221353
 10
319.2439873451
 20
196.5461817675
 10
319.5342095561
 20
196.7669012246
 10
319.7952793188
 20
197.0311316328
 10
320.025365221
 20
197.3370203327
 10
320.2138775377
 20
197.6644515169
  0
ELLIPSE
  5
1B6
330
1F
100
AcDbEntity
  8
0
  6
Continuous
 62
     7
370
    25
100
AcDbEllipse
 10
325.8755135161
 20
183.4360303401
 30
0.0
 11
1.374765885189561
 21
2.668908371795311
 31
0.0
210
0.0
220
0.0
230
1.0
 40
0.6067559047
 41
0.7562428636417031
 42
2.676105040835433
  0
LINE
  5
1B7
330
1F
100
AcDbEntity
  8
0
  6
Continuous
 62
     7
370
    25
100
AcDbLine
 10
325.7643405686
 20
185.9498320107
 30
0.0
 11
329.805848629
 21
188.2829449523
 31
0.0
  0
LINE
  5
1B8
330
1F
100
AcDbEntity
  8
0
  6
Continuous
 62
     7
370
    25
100
AcDbLine
 10
337.1992971978
 20
175.3645533583
 30
0.0
 11
338.8820558934
 21
176.3359892757
 31
0.0
  0
LINE
  5
1B9
330
1F
100
AcDbEntity
  8
0
  6
Continuous
 62
     7
370
    25
100
AcDbLine
 10
338.8820558934
 20
176.3359892757
 30
0.0
 11
338.9561711265
 21
174.6601215709
 31
0.0
  0
LINE
  5
1BA
330
1F
100
AcDbEntity
  8
0
  6
Continuous
 62
     7
370
    25
100
AcDbLine
 10
336.2831694263
 20
173.117030535
 30
0.0
 11
338.9561711265
 21
174.6601215709
 31
0.0
  0
LINE
  5
1BB
330
1F
100
AcDbEntity
  8
0
  6
Continuous
 62
     7
370
    25
100
AcDbLine
 10
329.5197722849
 20
172.6499115096
 30
0.0
 11
335.1054756788
 21
175.8744694423
 31
0.0
  0
ELLIPSE
  5
1BC
330
1F
100
AcDbEntity
  8
0
  6
Continuous
 62
     7
370
    25
100
AcDbEllipse
 10
329.4085981191
 20
175.163713291
 30
0.0
 11
1.374765885189561
 21
2.668908371795311
 31
0.0
210
0.0
220
0.0
230
1.0
 40
0.6067559047
 41
2.676105040835441
 42
3.897835517231512
  0
LINE
  5
1BD
330
1F
100
AcDbEntity
  8
0
  6
Continuous
 62
     7
370
    25
100
AcDbLine
 10
327.45323196
 20
173.1531842823
 30
0.0
 11
323.9201485772
 21
181.4255005286
 31
0.0
  0
LINE
  5
1BE
330
1F
100
AcDbEntity
  8
0
  6
Continuous
 62
     7
370
    25
100
AcDbLine
 10
330.0423286691
 20
192.1217852357
 30
0.0
 11
337.1992971978
 21
175.3645533583
 31
0.0
  0
LINE
  5
1BF
330
1F
100
AcDbEntity
  8
0
  6
Continuous
 62
     7
370
    25
100
AcDbLine
 10
325.0079534689
 20
186.386484989
 30
0.0
 11
325.7643405686
 21
185.9498320107
 31
0.0
  0
LINE
  5
1C0
330
1F
100
AcDbEntity
  8
0
  6
Continuous
 62
     7
370
    25
100
AcDbLine
 10
323.9201485772
 20
181.4255005286
 30
0.0
 11
323.3538121541
 21
181.7524395865
 31
0.0
  0
ELLIPSE
  5
1C1
330
1F
100
AcDbEntity
  8
0
  6
Continuous
 62
     7
370
    25
100
AcDbEllipse
 10
325.1675623512
 20
183.8447218484
 30
0.0
 11
1.184134833496273
 21
2.772030859444329
 31
0.0
210
0.0
220
0.0
230
1.0
 40
0.5790422009
 41
0.7157014696870592
 42
2.635563646880843
  0
LINE
  5
1C2
330
1F
100
AcDbEntity
  8
0
  6
Continuous
 62
     7
370
    25
100
AcDbLine
 10
328.5149670503
 20
188.6820516153
 30
0.0
 11
328.6026015436
 21
188.7326419315
 31
0.0
  0
LINE
  5
1C3
330
1F
100
AcDbEntity
  8
0
  6
Continuous
 62
     7
370
    25
100
AcDbLine
 10
328.6026015436
 20
188.7326419315
 30
0.0
 11
328.7440239767
 21
188.6510004986
 31
0.0
  0
LINE
  5
1C4
330
1F
100
AcDbEntity
  8
0
  6
Continuous
 62
     7
370
    25
100
AcDbLine
 10
328.7440239767
 20
188.6510004986
 30
0.0
 11
328.9561563092
 21
188.7734618875
 31
0.0
  0
LINE
  5
1C5
330
1F
100
AcDbEntity
  8
0
  6
Continuous
 62
     7
370
    25
100
AcDbLine
 10
328.5149670503
 20
188.6820516153
 30
0.0
 11
325.0079534689
 21
186.386484989
 31
0.0
  0
LINE
  5
1C6
330
1F
100
AcDbEntity
  8
0
  6
Continuous
 62
     7
370
    25
100
AcDbLine
 10
326.886896854
 20
173.4801225799
 30
0.0
 11
327.45323196
 21
173.1531842823
 31
0.0
  0
LINE
  5
1C7
330
1F
100
AcDbEntity
  8
0
  6
Continuous
 62
     7
370
    25
100
AcDbLine
 10
323.3538121541
 20
181.7524395865
 30
0.0
 11
326.886896854
 21
173.4801225799
 31
0.0
  0
ELLIPSE
  5
1C8
330
1F
100
AcDbEntity
  8
0
  6
Continuous
 62
     7
370
    25
100
AcDbEllipse
 10
328.7006469542
 20
175.5724047993
 30
0.0
 11
1.184134833496273
 21
2.772030859444357
 31
0.0
210
0.0
220
0.0
230
1.0
 40
0.5790422009
 41
2.635563646880819
 42
3.071977223941494
  0
LWPOLYLINE
  5
1C9
330
1F
100
AcDbEntity
  8
0
  6
Continuous
 62
     7
370
    25
100
AcDbPolyline
 90
       31
 70
   128
 43
0.0
 10
326.3382028383
 20
202.3578402165
 10
326.3196746886
 20
202.9130892698
 10
326.2642041676
 20
203.4863072563
 10
326.172134377
 20
204.0739597195
 10
326.0440323237
 20
204.6724236295
 10
325.8806876025
 20
205.2780095798
 10
325.6831071279
 20
205.8869839822
 10
325.4525098659
 20
206.4955919754
 10
325.1903169555
 20
207.1000809984
 10
324.8981447942
 20
207.6967251249
 10
324.5777948305
 20
208.2818452144
 10
324.2312423686
 20
208.8518340064
 10
323.8606237269
 20
209.403177222
 10
323.4682243842
 20
209.9324752363
 10
323.0564628452
 20
210.43646532
 10
322.6278782927
 20
210.9120405551
 10
322.1851129722
 20
211.3562679891
 10
321.730896715
 20
211.766408976
 10
321.2680297349
 20
212.1399351918
 10
320.7993660403
 20
212.4745442941
 10
320.3277948716
 20
212.7681721586
 10
319.8562237029
 20
213.0190087762
 10
319.3875600083
 20
213.2255072579
 10
318.9246930282
 20
213.386395882
 10
318.470476771
 20
213.5006818229
 10
318.0277114505
 20
213.5676603467
 10
317.599126898
 20
213.586918303
 10
317.187365359
 20
213.5583379729
 10
316.7949660163
 20
213.4820945962
 10
316.4243473746
 20
213.358658556
 10
316.0781403193
 20
213.1889901835
  0
ARC
  5
1CA
330
1F
100
AcDbEntity
  8
0
  6
Continuous
 62
     7
370
    25
100
AcDbCircle
 10
320.8268898042
 20
202.1884825622
 30
0.0
 40
5.513914523715782
100
AcDbArc
 50
332.8602454216
 51
1.7600935077
  0
LWPOLYLINE
  5
1CB
330
1F
100
AcDbEntity
  8
0
  6
Continuous
 62
     7
370
    25
100
AcDbPolyline
 90
       45
 70
   128
 43
0.0
 10
319.7689240384
 20
198.8667382889
 10
319.6811644216
 20
198.6210824793
 10
319.5190748862
 20
198.2767374675
 10
319.3236445595
 20
197.9701807208
 10
319.0964463749
 20
197.7038810393
 10
318.8393097693
 20
197.4799823397
 10
318.5543052064
 20
197.3002869231
 10
318.2437273846
 20
197.1662419757
 10
317.9100766328
 20
197.0789265436
 10
317.556039648
 20
197.0390440221
 10
317.1844666107
 20
197.0469148334
 10
316.7983492887
 20
197.1024765201
 10
316.4007966706
 20
197.205281081
 10
315.9950094061
 20
197.354500601
 10
315.5842547199
 20
197.548934509
 10
315.1718397812
 20
197.7870165854
 10
314.7610850949
 20
198.0668299435
 10
314.3552978305
 20
198.3861224264
 10
313.9577452124
 20
198.7423223482
 10
313.5716278903
 20
199.1325622324
 10
313.2000548531
 20
199.5537005182
 10
312.8460178682
 20
200.0023454417
 10
312.5123671164
 20
200.474885832
 10
312.2017892947
 20
200.9675162998
 10
311.9167847318
 20
201.4762709805
 10
311.6596481261
 20
201.9970532857
 10
311.4324499416
 20
202.5256704074
 10
311.2370196148
 20
203.0578662065
 10
311.0749300794
 20
203.5893558123
 10
310.9474868999
 20
204.1158598425
 10
310.8557157593
 20
204.6331393828
 10
310.800356203
 20
205.13702921
 10
310.781853078
 20
205.6234728189
 10
310.800356203
 20
206.0885531744
 10
310.8557157593
 20
206.5285262184
 10
310.9474868999
 20
206.9398490552
 10
311.0749300794
 20
207.3192103222
 10
311.2370196148
 20
207.663555334
 10
311.4324499416
 20
207.9701120807
 10
311.6596481261
 20
208.2364117622
 10
311.9167847318
 20
208.4603104618
 10
312.2017892947
 20
208.6400058784
 10
312.5123671164
 20
208.7740508258
 10
312.8460178682
 20
208.8613662579
 10
312.8659045953
 20
208.8649594099
  0
SPLINE
  5
1CC
330
1F
100
AcDbEntity
  8
0
  6
Continuous
 62
     7
370
    25
100
AcDbSpline
210
0.0
220
0.0
230
1.0
 70
     8
 71
     3
 72
    18
 73
    14
 74
     0
 42
0.000000001
 43
0.00000001
 40
0.0
 40
0.0
 40
0.0
 40
0.0
 40
0.0195126022053198
 40
0.1251089756368624
 40
0.2307050624844499
 40
0.3316667082277768
 40
0.4245767373145947
 40
0.516088626125026
 40
0.6128285237678207
 40
0.7122883777087761
 40
0.8117480085761433
 40
0.9084881111895687
 40
1.0
 40
1.0
 40
1.0
 40
1.0
 10
324.4065251846538
 20
185.8547949339198
 30
0.0
 10
324.4079841370688
 20
185.8660366259797
 30
0.0
 10
324.4173385040679
 20
185.9381149968318
 30
0.0
 10
324.3536502220105
 20
186.1339411862679
 30
0.0
 10
324.2157907072087
 20
186.4225796504762
 30
0.0
 10
324.0106964659688
 20
186.7299720636599
 30
0.0
 10
323.7681517440856
 20
187.0263302545742
 30
0.0
 10
323.4949920938568
 20
187.306230059937
 30
0.0
 10
323.1968071465221
 20
187.5602441242356
 30
0.0
 10
322.893056915843
 20
187.765190895764
 30
0.0
 10
322.6198778421371
 20
187.8929133588816
 30
0.0
 10
322.398915875712
 20
187.9404383217039
 30
0.0
 10
322.3062943123403
 20
187.9076448466092
 30
0.0
 10
322.2612696932401
 20
187.8917034861813
 30
0.0
  0
SPLINE
  5
1CD
330
1F
100
AcDbEntity
  8
0
  6
Continuous
 62
     7
370
    25
100
AcDbSpline
210
0.0
220
0.0
230
1.0
 70
     8
 71
     3
 72
    26
 73
    22
 74
     0
 42
0.000000001
 43
0.00000001
 40
0.0
 40
0.0
 40
0.0
 40
0.0
 40
0.0493314695890303
 40
0.0998351401343567
 40
0.1514038153288392
 40
0.2039182026997281
 40
0.2572488166583837
 40
0.3112581609147598
 40
0.3626760291681758
 40
0.4144462323542774
 40
0.4664430560092596
 40
0.5185395552977154
 40
0.5706083308432575
 40
0.6285275792730175
 40
0.6860781736789209
 40
0.7430870346642291
 40
0.79938542718491
 40
0.8548114066959358
 40
0.9092122392729804
 40
0.9624472324870667
 40
1.0
 40
1.0
 40
1.0
 40
1.0
 10
304.8072258100013
 20
196.8659113308195
 30
0.0
 10
305.1428501168601
 20
196.4970918570874
 30
0.0
 10
305.8220737440272
 20
195.7506891216516
 30
0.0
 10
306.8983639083531
 20
194.6449347590805
 30
0.0
 10
308.0249800313546
 20
193.5452429708058
 30
0.0
 10
309.1977122766268
 20
192.4652461921517
 30
0.0
 10
310.4058114364126
 20
191.4175262210062
 30
0.0
 10
311.6144955713996
 20
190.4348460212728
 30
0.0
 10
312.8107471143642
 20
189.5261227172383
 30
0.0
 10
313.9827482023351
 20
188.6980656532608
 30
0.0
 10
315.1420624712018
 20
187.9426819671833
 30
0.0
 10
316.276934369089
 20
187.2684661755741
 30
0.0
 10
317.4181935678435
 20
186.6598568420367
 30
0.0
 10
318.5487422285199
 20
186.1350073005496
 30
0.0
 10
319.6488626612033
 20
185.7118922416587
 30
0.0
 10
320.6668868695444
 20
185.4106348350342
 30
0.0
 10
321.5939532055618
 20
185.2299435056917
 30
0.0
 10
322.4252891656387
 20
185.1642870704936
 30
0.0
 10
323.1535825694089
 20
185.2114760535577
 30
0.0
 10
323.7350881388769
 20
185.3348982678511
 30
0.0
 10
324.0357580048295
 20
185.4823232098911
 30
0.0
 10
324.1601248300915
 20
185.5433029557258
 30
0.0
  0
SPLINE
  5
1CE
330
1F
100
AcDbEntity
  8
0
  6
Continuous
 62
     7
370
    25
100
AcDbSpline
210
0.0
220
0.0
230
1.0
 70
     8
 71
     3
 72
    22
 73
    18
 74
     0
 42
0.000000001
 43
0.00000001
 40
0.0
 40
0.0
 40
0.0
 40
0.0
 40
0.125
 40
0.125
 40
0.25
 40
0.25
 40
0.375
 40
0.375
 40
0.5
 40
0.5
 40
0.625
 40
0.625
 40
0.75
 40
0.75
 40
0.875
 40
0.875
 40
1.0
 40
1.0
 40
1.0
 40
1.0
 10
305.7612700584002
 20
197.4169508514086
 30
0.0
 10
305.6407109831525
 20
197.551472194155
 30
0.0
 10
305.5003969822522
 20
197.6906860779593
 30
0.0
 10
305.2020526980502
 20
197.9448506632611
 30
0.0
 10
305.044645612295
 20
198.0588391765128
 30
0.0
 10
304.7517523934706
 20
198.2279228327001
 30
0.0
 10
304.6172571765395
 20
198.2824459319255
 30
0.0
 10
304.4001117292017
 20
198.3258672343599
 30
0.0
 10
304.3174876784065
 20
198.315352748361
 30
0.0
 10
304.2050524383044
 20
198.2504120908345
 30
0.0
 10
304.1663729281273
 20
198.1908637299652
 30
0.0
 10
304.1486384019079
 20
198.0117798015713
 30
0.0
 10
304.1702853555354
 20
197.8920774897341
 30
0.0
 10
304.276889769006
 20
197.6153966291602
 30
0.0
 10
304.3614865648703
 20
197.4593541469223
 30
0.0
 10
304.5668440094404
 20
197.1514819651274
 30
0.0
 10
304.6866663345202
 20
197.0004324424219
 30
0.0
 10
304.8072254097719
 20
196.8659110996778
 30
0.0
  0
SPLINE
  5
1CF
330
1F
100
AcDbEntity
  8
0
  6
Continuous
 62
     7
370
    25
100
AcDbSpline
210
0.0
220
0.0
230
1.0
 70
     8
 71
     3
 72
    22
 73
    18
 74
     0
 42
0.000000001
 43
0.00000001
 40
0.0
 40
0.0
 40
0.0
 40
0.0
 40
0.125
 40
0.125
 40
0.25
 40
0.25
 40
0.375
 40
0.375
 40
0.5
 40
0.5
 40
0.625
 40
0.625
 40
0.75
 40
0.75
 40
0.875
 40
0.875
 40
1.0
 40
1.0
 40
1.0
 40
1.0
 10
305.7612700580577
 20
197.4169508513602
 30
0.0
 10
306.4243449719244
 20
196.6770834662744
 30
0.0
 10
307.1397034373284
 20
195.9254236139613
 30
0.0
 10
308.6532094311809
 20
194.4402277943101
 30
0.0
 10
309.4513206772277
 20
193.7069107498517
 30
0.0
 10
311.0922142403107
 20
192.3090055307588
 30
0.0
 10
311.9347761241024
 20
191.6447654884153
 30
0.0
 10
313.6136471105192
 20
190.4356837077135
 30
0.0
 10
314.4495953168527
 20
189.8911992210381
 30
0.0
 10
316.0605080203342
 20
188.9612391120757
 30
0.0
 10
316.8351098615914
 20
188.5759728465783
 30
0.0
 10
318.2762433815795
 20
187.983914364081
 30
0.0
 10
318.9425617384139
 20
187.7770963845023
 30
0.0
 10
320.136861698722
 20
187.538279221157
 30
0.0
 10
320.6648417657185
 20
187.5060600454921
 30
0.0
 10
321.5723675310383
 20
187.5936239800044
 30
0.0
 10
321.9520731478472
 20
187.7131167937097
 30
0.0
 10
322.261270058112
 20
187.8917036019174
 30
0.0
  0
LINE
  5
1D0
330
1F
100
AcDbEntity
  8
0
  6
Continuous
 62
     7
370
    25
100
AcDbLine
 10
322.2612696932
 20
187.8917034862
 30
0.0
 11
322.4734020258
 21
188.0141648751
 31
0.0
  0
LINE
  5
1D1
330
1F
100
AcDbEntity
  8
0
  6
Continuous
 62
     7
370
    25
100
AcDbLine
 10
305.7612697754
 20
197.4169506881
 30
0.0
 11
305.973402108
 21
197.5394120771
 31
0.0
  0
LINE
  5
1D2
330
1F
100
AcDbEntity
  8
0
  6
Continuous
 62
     7
370
    25
100
AcDbLine
 10
336.0979575701
 20
177.943215027
 30
0.0
 11
338.8820558934
 21
176.3359892757
 31
0.0
  0
ELLIPSE
  5
1D3
330
1F
100
AcDbEntity
  8
0
  6
Continuous
 62
     7
370
    25
100
AcDbEllipse
 10
290.7349111102
 20
203.7222683044
 30
0.0
 11
1.801200066801187
 21
2.416591885078703
 31
0.0
210
0.0
220
0.0
230
1.0
 40
0.5648794159
 41
0.8515936655194267
 42
2.771455842713157
  0
LINE
  5
1D4
330
1F
100
AcDbEntity
  8
0
  6
Continuous
 62
     7
370
    25
100
AcDbLine
 10
290.8945208235
 20
206.0797504722
 30
0.0
 11
294.8709897112
 21
208.1043063189
 31
0.0
  0
LINE
  5
1D5
330
1F
100
AcDbEntity
  8
0
  6
Continuous
 62
     7
370
    25
100
AcDbLine
 10
294.8709897112
 20
208.1043063189
 30
0.0
 11
298.8310970606
 21
196.4819317819
 31
0.0
  0
LINE
  5
1D6
330
1F
100
AcDbEntity
  8
0
  6
Continuous
 62
     7
370
    25
100
AcDbLine
 10
298.8310970606
 20
196.4819317819
 30
0.0
 11
296.4353075307
 21
195.2621532705
 31
0.0
  0
LINE
  5
1D7
330
1F
100
AcDbEntity
  8
0
  6
Continuous
 62
     7
370
    25
100
AcDbLine
 10
296.4353075307
 20
195.2621532705
 30
0.0
 11
296.4407424985
 21
195.2462030206
 31
0.0
  0
LINE
  5
1D8
330
1F
100
AcDbEntity
  8
0
  6
Continuous
 62
     7
370
    25
100
AcDbLine
 10
296.4407424985
 20
195.2462030206
 30
0.0
 11
293.2189972271
 21
193.6059028897
 31
0.0
  0
ELLIPSE
  5
1D9
330
1F
100
AcDbEntity
  8
0
  6
Continuous
 62
     7
370
    25
100
AcDbEllipse
 10
293.3786062064
 20
195.9633848888
 30
0.0
 11
1.80120006680113
 21
2.416591885078702
 31
0.0
210
0.0
220
0.0
230
1.0
 40
0.5648794159
 41
2.771455842713167
 42
3.993186319109178
  0
LINE
  5
1DA
330
1F
100
AcDbEntity
  8
0
  6
Continuous
 62
     7
370
    25
100
AcDbLine
 10
291.2055777364
 20
194.0785096575
 30
0.0
 11
288.5618837363
 21
201.8373923419
 31
0.0
  0
LINE
  5
1DB
330
1F
100
AcDbEntity
  8
0
  6
Continuous
 62
     7
370
    25
100
AcDbLine
 10
288.5618837363
 20
201.8373923419
 30
0.0
 11
287.9955473133
 21
202.1643313998
 31
0.0
  0
LINE
  5
1DC
330
1F
100
AcDbEntity
  8
0
  6
Continuous
 62
     7
370
    25
100
AcDbLine
 10
290.1381337238
 20
206.5164034505
 30
0.0
 11
290.8945208235
 21
206.0797504722
 31
0.0
  0
ELLIPSE
  5
1DD
330
1F
100
AcDbEntity
  8
0
  6
Continuous
 62
     7
370
    25
100
AcDbEllipse
 10
290.0269599453
 20
204.1309598126
 30
0.0
 11
1.611574464500393
 21
2.532702618677433
 31
0.0
210
0.0
220
0.0
230
1.0
 40
0.546413513
 41
0.8088975262364356
 42
2.728759703430095
  0
LINE
  5
1DE
330
1F
100
AcDbEntity
  8
0
  6
Continuous
 62
     7
370
    25
100
AcDbLine
 10
294.8172017714
 20
208.2365380678
 30
0.0
 11
295.0293341039
 21
208.3589994568
 31
0.0
  0
LINE
  5
1DF
330
1F
100
AcDbEntity
  8
0
  6
Continuous
 62
     7
370
    25
100
AcDbLine
 10
294.9586242045
 20
208.154896635
 30
0.0
 11
294.8172017714
 21
208.2365380678
 31
0.0
  0
LINE
  5
1E0
330
1F
100
AcDbEntity
  8
0
  6
Continuous
 62
     7
370
    25
100
AcDbLine
 10
294.8709897112
 20
208.1043063189
 30
0.0
 11
294.9586242045
 21
208.154896635
 31
0.0
  0
LINE
  5
1E1
330
1F
100
AcDbEntity
  8
0
  6
Continuous
 62
     7
370
    25
100
AcDbLine
 10
290.1381337238
 20
206.5164034505
 30
0.0
 11
294.1796417842
 21
208.849516392
 31
0.0
  0
LINE
  5
1E2
330
1F
100
AcDbEntity
  8
0
  6
Continuous
 62
     7
370
    25
100
AcDbLine
 10
290.6392426304
 20
194.4054479551
 30
0.0
 11
291.2055777364
 21
194.0785096575
 31
0.0
  0
LINE
  5
1E3
330
1F
100
AcDbEntity
  8
0
  6
Continuous
 62
     7
370
    25
100
AcDbLine
 10
290.6392426304
 20
194.4054479551
 30
0.0
 11
287.9955473133
 21
202.1643313998
 31
0.0
  0
LINE
  5
1E4
330
1F
100
AcDbEntity
  8
0
  6
Continuous
 62
     7
370
    25
100
AcDbLine
 10
298.9187322124
 20
196.5325224782
 30
0.0
 11
294.9586242045
 21
208.154896635
 31
0.0
  0
LINE
  5
1E5
330
1F
100
AcDbEntity
  8
0
  6
Continuous
 62
     7
370
    25
100
AcDbLine
 10
298.8310970606
 20
196.4819317819
 30
0.0
 11
298.9187322124
 21
196.5325224782
 31
0.0
  0
LINE
  5
1E6
330
1F
100
AcDbEntity
  8
0
  6
Continuous
 62
     7
370
    25
100
AcDbLine
 10
296.4407424985
 20
195.2462030206
 30
0.0
 11
296.7153707049
 21
195.4047425095
 31
0.0
  0
LINE
  5
1E7
330
1F
100
AcDbEntity
  8
0
  6
Continuous
 62
     7
370
    25
100
AcDbLine
 10
298.8776765721
 20
196.6530151164
 30
0.0
 11
298.9948777382
 21
196.7206739094
 31
0.0
  0
ELLIPSE
  5
1E8
330
1F
100
AcDbEntity
  8
0
  6
Continuous
 62
     7
370
    25
100
AcDbEllipse
 10
292.6706550415
 20
196.3720763971
 30
0.0
 11
1.61157446450045
 21
2.532702618677462
 31
0.0
210
0.0
220
0.0
230
1.0
 40
0.546413513
 41
2.728759703430165
 42
3.165173280490904
  0
SPLINE
  5
1E9
330
1F
100
AcDbEntity
  8
0
  6
HIDDEN
 62
     7
370
    18
100
AcDbSpline
210
0.0
220
0.0
230
1.0
 70
     8
 71
     3
 72
    14
 73
    10
 74
     0
 42
0.000000001
 43
0.00000001
 40
0.0
 40
0.0
 40
0.0
 40
0.0
 40
0.0000500029110154
 40
0.1551675179710181
 40
0.3237274535301424
 40
0.5000250461074511
 40
0.676322861796768
 40
0.8448825888025843
 40
1.0
 40
1.0
 40
1.0
 40
1.0
 10
304.4734504286644
 20
198.4053545374393
 30
0.0
 10
304.4734344030958
 20
198.4053508602514
 30
0.0
 10
304.4237043443305
 20
198.3939399221705
 30
0.0
 10
304.379353785233
 20
198.3049777576957
 30
0.0
 10
304.3560629742467
 20
198.1333858205848
 30
0.0
 10
304.4226823256425
 20
197.8833797002333
 30
0.0
 10
304.5663821726591
 20
197.5909166683577
 30
0.0
 10
304.768024654126
 20
197.2837653349229
 30
0.0
 10
304.9379319582349
 20
197.0840722525712
 30
0.0
 10
305.0193574840018
 20
196.9883723395641
 30
0.0
  0
SPLINE
  5
1EA
330
1F
100
AcDbEntity
  8
0
  6
HIDDEN
 62
     7
370
    18
100
AcDbSpline
210
0.0
220
0.0
230
1.0
 70
     8
 71
     3
 72
    22
 73
    18
 74
     0
 42
0.000000001
 43
0.00000001
 40
0.0
 40
0.0
 40
0.0
 40
0.0
 40
0.1250000000000001
 40
0.1250000000000001
 40
0.25
 40
0.25
 40
0.375
 40
0.375
 40
0.5
 40
0.5
 40
0.625
 40
0.625
 40
0.7500000000000001
 40
0.7500000000000001
 40
0.875
 40
0.875
 40
1.0
 40
1.0
 40
1.0
 40
1.0
 10
305.0193574438575
 20
196.9883723163225
 30
0.0
 10
305.8029914329711
 20
196.113983588498
 30
0.0
 10
306.6484150739007
 20
195.2256583084963
 30
0.0
 10
308.4371039757196
 20
193.4704268852825
 30
0.0
 10
309.3803263574072
 20
192.60377946911
 30
0.0
 10
311.3195642046778
 20
190.9517096647382
 30
0.0
 10
312.3153191582443
 20
190.1666987056103
 30
0.0
 10
314.2994394149079
 20
188.7377838738811
 30
0.0
 10
315.2873782042054
 20
188.0943022078141
 30
0.0
 10
317.1911841264914
 20
186.9952584426828
 30
0.0
 10
318.1066226661543
 20
186.5399437652787
 30
0.0
 10
319.8097804624959
 20
185.8402382859653
 30
0.0
 10
320.597247611479
 20
185.5958170373718
 30
0.0
 10
322.0086930191116
 20
185.3135785715972
 30
0.0
 10
322.6326694619246
 20
185.2755013639907
 30
0.0
 10
323.7051999118478
 20
185.3789860138625
 30
0.0
 10
324.1539429135319
 20
185.5202047936922
 30
0.0
 10
324.5193574438464
 20
185.7312619306608
 30
0.0
  0
SPLINE
  5
1EB
330
1F
100
AcDbEntity
  8
0
  6
HIDDEN
 62
     7
370
    18
100
AcDbSpline
210
0.0
220
0.0
230
1.0
 70
     8
 71
     3
 72
    10
 73
     6
 74
     0
 42
0.000000001
 43
0.00000001
 40
0.0
 40
0.0
 40
0.0
 40
0.0
 40
0.4422739149793767
 40
0.922874833955772
 40
1.0
 40
1.0
 40
1.0
 40
1.0
 10
324.519356907929
 20
185.7312622864556
 30
0.0
 10
324.5513004335342
 20
185.7616340252316
 30
0.0
 10
324.6179556779209
 20
185.8250094865248
 30
0.0
 10
324.6413768910722
 20
185.9438867171992
 30
0.0
 10
324.6155725904161
 20
186.0370680288023
 30
0.0
 10
324.6120042420346
 20
186.0499536088794
 30
0.0
  0
LINE
  5
1EC
330
1F
100
AcDbEntity
  8
0
  6
HIDDEN
 62
     7
370
    18
100
AcDbLine
 10
334.2557820419
 20
176.3649871379
 30
0.0
 11
335.1054756788
 21
175.8744694423
 31
0.0
  0
LINE
  5
1ED
330
1F
100
AcDbEntity
  8
0
  6
HIDDEN
 62
     7
370
    18
100
AcDbLine
 10
324.0178622588
 20
180.1976416477
 30
0.0
 11
333.3060517077
 21
174.8356840114
 31
0.0
  0
LINE
  5
1EE
330
1F
100
AcDbEntity
  8
0
  6
HIDDEN
 62
     7
370
    18
100
AcDbLine
 10
298.1451841014
 20
197.211191605
 30
0.0
 11
298.4583322223
 21
196.2921449095
 31
0.0
  0
LINE
  5
1EF
330
1F
100
AcDbEntity
  8
0
  6
HIDDEN
 62
     7
370
    18
100
AcDbLine
 10
298.9948777382
 20
196.7206739094
 30
0.0
 11
298.1451841014
 21
197.211191605
 31
0.0
  0
LINE
  5
1F0
330
1F
100
AcDbEntity
  8
0
  6
HIDDEN
 62
     7
370
    18
100
AcDbLine
 10
334.2557820419
 20
176.3649871379
 30
0.0
 11
328.9561563092
 21
188.7734618875
 31
0.0
  0
LINE
  5
1F1
330
1F
100
AcDbEntity
  8
0
  6
HIDDEN
 62
     7
370
    18
100
AcDbLine
 10
293.2304670968
 20
211.6352133658
 30
0.0
 11
294.7354421536
 21
212.5040169731
 31
0.0
  0
ELLIPSE
  5
1F2
330
1F
100
AcDbEntity
  8
0
  6
HIDDEN
 62
     7
370
    18
100
AcDbEllipse
 10
312.7256222985
 20
201.4389340687
 30
0.0
 11
-17.6565488921222
 21
18.57184747814176
 31
0.0
210
0.0
220
0.0
230
1.0
 40
0.3495549005
 41
6.199105502003351
 42
6.932225051903048
  0
ARC
  5
1F3
330
1F
100
AcDbEntity
  8
0
  6
HIDDEN
 62
     7
370
    18
100
AcDbCircle
 10
310.8724366949
 20
199.9040498022
 30
0.0
 40
11.81388453270137
100
AcDbArc
 50
1.6624450989
 51
26.2897110739
  0
LWPOLYLINE
  5
1F4
330
1F
100
AcDbEntity
  8
0
  6
HIDDEN
 62
     7
370
    18
100
AcDbPolyline
 90
       63
 70
   128
 43
0.0
 10
316.671917543
 20
210.6565504805
 10
316.6709406827
 20
210.6571151704
 10
316.1993695141
 20
210.907951788
 10
315.7307058194
 20
211.1144502698
 10
315.2678388393
 20
211.2753388938
 10
314.8136225822
 20
211.3896248347
 10
314.3708572616
 20
211.4566033586
 10
313.9422727091
 20
211.4758613149
 10
313.5305111701
 20
211.4472809848
 10
313.1381118274
 20
211.3710376081
 10
312.7674931857
 20
211.2476015678
 10
312.4209407238
 20
211.0777337315
 10
312.1005907601
 20
210.8624818373
 10
311.8084185988
 20
210.6031725078
 10
311.5462256884
 20
210.3014049756
 10
311.3156284264
 20
209.959038914
 10
311.1180479518
 20
209.5781860718
 10
310.9547032306
 20
209.1611939223
 10
310.8266011773
 20
208.7106334948
 10
310.7345313867
 20
208.2292825492
 10
310.6790608657
 20
207.7201094629
 10
310.660532716
 20
207.186252556
 10
310.6790608657
 20
206.6310035028
 10
310.7345313867
 20
206.0577855162
 10
310.8266011773
 20
205.4701330531
 10
310.9547032306
 20
204.871669143
 10
311.1180479518
 20
204.2660831927
 10
311.3156284264
 20
203.6571087903
 10
311.5462256884
 20
203.0485007972
 10
311.8084185988
 20
202.4440117741
 10
312.1005907601
 20
201.8473676476
 10
312.4209407238
 20
201.2622475581
 10
312.7674931857
 20
200.6922587662
 10
313.1381118274
 20
200.1409155505
 10
313.5305111701
 20
199.6116175362
 10
313.9422727091
 20
199.1076274525
 10
314.3708572616
 20
198.6320522174
 10
314.8136225822
 20
198.1878247834
 10
315.2678388393
 20
197.7776837966
 10
315.7307058194
 20
197.4041575807
 10
316.1993695141
 20
197.0695484785
 10
316.6709406827
 20
196.775920614
 10
317.1425118514
 20
196.5250839964
 10
317.611175546
 20
196.3185855146
 10
318.0740425261
 20
196.1576968906
 10
318.5282587833
 20
196.0434109497
 10
318.9710241039
 20
195.9764324258
 10
319.3996086563
 20
195.9571744695
 10
319.8113701953
 20
195.9857547996
 10
320.2037695381
 20
196.0619981763
 10
320.5743881797
 20
196.1854342166
 10
320.9209406416
 20
196.3553020529
 10
321.2412906053
 20
196.5705539471
 10
321.5334627666
 20
196.8298632766
 10
321.795655677
 20
197.1316308088
 10
322.026252939
 20
197.4739968704
 10
322.2238334136
 20
197.8548497126
 10
322.3871781348
 20
198.2718418621
 10
322.5152801881
 20
198.7224022896
 10
322.6073499787
 20
199.2037532352
 10
322.6628204997
 20
199.7129263215
 10
322.6813486494
 20
200.2467832284
 10
322.6813486494
 20
200.2467832284
  0
ELLIPSE
  5
1F5
330
1F
100
AcDbEntity
  8
0
  6
HIDDEN
 62
     7
370
    18
100
AcDbEllipse
 10
311.2053466585
 20
205.3846541255
 30
0.0
 11
-10.68252468166782
 21
11.89156822840818
 31
0.0
210
0.0
220
0.0
230
1.0
 40
0.3526131095
 41
0.0
 42
6.283185307179586
  0
LWPOLYLINE
  5
1F6
330
1F
100
AcDbEntity
  8
0
  6
HIDDEN
 62
     7
370
    18
100
AcDbPolyline
 90
       28
 70
   128
 43
0.0
 10
320.6813479909
 20
199.9086160499
 10
320.6627487183
 20
200.4318009866
 10
320.6070809633
 20
200.9727906799
 10
320.5147352425
 20
201.5277903615
 10
320.3863592347
 20
202.0929071877
 10
320.2228534994
 20
202.6641772349
 10
320.025365221
 20
203.2375933517
 10
319.7952793188
 20
203.8091335798
 10
319.5342095561
 20
204.3747887201
 10
319.2439873451
 20
204.9305916096
 10
318.9266482468
 20
205.4726431657
 10
318.5844181418
 20
205.9971416632
 10
318.2196980833
 20
206.5004078277
 10
317.8350455289
 20
206.9789120204
 10
317.4331590294
 20
207.429297146
 10
317.0168573199
 20
207.8484047913
 10
316.5890606336
 20
208.2332951382
 10
316.1527694641
 20
208.5812679694
 10
315.7110442734
 20
208.889883128
 10
315.2669832974
 20
209.156975231
 10
314.8237013589
 20
209.3806712238
 10
314.3843077862
 20
209.5594023673
 10
313.9518844955
 20
209.6919142284
 10
313.5294647429
 20
209.7772778061
 10
313.1200115669
 20
209.8148943713
 10
312.7263968803
 20
209.8044995524
 10
312.3513816309
 20
209.7461671832
 10
312.0771732467
 20
209.668903709
  0
ARC
  5
1F7
330
1F
100
AcDbEntity
  8
0
  6
HIDDEN
 62
     7
370
    18
100
AcDbCircle
 10
315.7779244901
 20
199.7592527003
 30
0.0
 40
4.905697854363333
100
AcDbArc
 50
334.7217964154
 51
1.7447491807
  0
LINE
  5
1F8
330
1F
100
AcDbEntity
  8
0
  6
HIDDEN
 62
     7
370
    18
100
AcDbLine
 10
331.7016468022
 20
174.890516249
 30
0.0
 11
331.6943837149
 21
174.9075218499
 31
0.0
  0
LINE
  5
1F9
330
1F
100
AcDbEntity
  8
0
  6
HIDDEN
 62
     7
370
    18
100
AcDbLine
 10
334.0363872806
 20
176.2595317301
 30
0.0
 11
328.7440239767
 21
188.6510004986
 31
0.0
  0
LINE
  5
1FA
330
1F
100
AcDbEntity
  8
0
  6
HIDDEN
 62
     7
370
    18
100
AcDbLine
 10
333.8949661646
 20
176.3411724026
 30
0.0
 11
328.6026015436
 21
188.7326419315
 31
0.0
  0
LINE
  5
1FB
330
1F
100
AcDbEntity
  8
0
  6
HIDDEN
 62
     7
370
    18
100
AcDbLine
 10
333.8073310127
 20
176.2905817062
 30
0.0
 11
328.5149670503
 21
188.6820516153
 31
0.0
  0
LINE
  5
1FC
330
1F
100
AcDbEntity
  8
0
  6
HIDDEN
 62
     7
370
    18
100
AcDbLine
 10
329.5197722849
 20
172.6499115096
 30
0.0
 11
328.8602557652
 21
173.0306422924
 31
0.0
  0
ELLIPSE
  5
1FD
330
1F
100
AcDbEntity
  8
0
  6
HIDDEN
 62
     7
370
    18
100
AcDbEllipse
 10
328.7006469542
 20
175.5724047993
 30
0.0
 11
1.184134833496273
 21
2.772030859444357
 31
0.0
210
0.0
220
0.0
230
1.0
 40
0.5790422009
 41
3.071977223941494
 42
3.857294123276888
  0
LWPOLYLINE
  5
1FE
330
1F
100
AcDbEntity
  8
0
  6
HIDDEN
 62
     7
370
    18
100
AcDbPolyline
 90
       47
 70
   128
 43
0.0
 10
316.0781403193
 20
213.1889901835
 10
316.0777949127
 20
213.1887907197
 10
315.757444949
 20
212.9735388254
 10
315.4652727877
 20
212.714229496
 10
315.2030798773
 20
212.4124619637
 10
314.9724826153
 20
212.0700959021
 10
314.7749021407
 20
211.68924306
 10
314.6115574195
 20
211.2722509104
 10
314.4834553662
 20
210.8216904829
 10
314.3913855756
 20
210.3403395373
 10
314.3359150546
 20
209.831166451
 10
314.3173869049
 20
209.2973095441
 10
314.3359150546
 20
208.7420604909
 10
314.3913855756
 20
208.1688425044
 10
314.4834553662
 20
207.5811900412
 10
314.6115574195
 20
206.9827261311
 10
314.7749021407
 20
206.3771401808
 10
314.9724826153
 20
205.7681657785
 10
315.2030798773
 20
205.1595577853
 10
315.4652727877
 20
204.5550687623
 10
315.757444949
 20
203.9584246357
 10
316.0777949127
 20
203.3733045462
 10
316.4243473746
 20
202.8033157543
 10
316.7949660163
 20
202.2519725387
 10
317.187365359
 20
201.7226745244
 10
317.599126898
 20
201.2186844407
 10
318.0277114505
 20
200.7431092056
 10
318.470476771
 20
200.2988817716
 10
318.9246930282
 20
199.8887407847
 10
319.3875600083
 20
199.5152145689
 10
319.8562237029
 20
199.1806054666
 10
320.3277948716
 20
198.8869776021
 10
320.7993660403
 20
198.6361409845
 10
321.2680297349
 20
198.4296425027
 10
321.730896715
 20
198.2687538787
 10
322.1851129722
 20
198.1544679378
 10
322.6278782927
 20
198.087489414
 10
323.0564628452
 20
198.0682314577
 10
323.4682243842
 20
198.0968117878
 10
323.8606237269
 20
198.1730551645
 10
324.2312423686
 20
198.2964912047
 10
324.5777948305
 20
198.466359041
 10
324.8981447942
 20
198.6816109352
 10
325.1903169555
 20
198.9409202647
 10
325.4525098659
 20
199.242687797
 10
325.6831071279
 20
199.5850538585
 10
325.7337031025
 20
199.6732416929
  0
ARC
  5
1FF
330
1F
100
AcDbEntity
  8
0
  6
HIDDEN
 62
     7
370
    18
100
AcDbCircle
 10
315.236197227
 20
200.2481043848
 30
0.0
 40
4.738542459172162
100
AcDbArc
 50
343.0511963249
 51
0.830899328
  0
LWPOLYLINE
  5
200
330
1F
100
AcDbEntity
  8
0
  6
HIDDEN
 62
     7
370
    18
100
AcDbPolyline
 90
       25
 70
   128
 43
0.0
 10
312.8659045953
 20
208.8649594099
 10
313.2000548531
 20
208.9012487794
 10
313.5716278903
 20
208.8933779681
 10
313.9577452124
 20
208.8378162814
 10
314.3552978305
 20
208.7350117205
 10
314.7610850949
 20
208.5857922005
 10
315.1718397812
 20
208.3913582925
 10
315.5842547199
 20
208.1532762161
 10
315.9950094061
 20
207.873462858
 10
316.4007966706
 20
207.5541703751
 10
316.7983492887
 20
207.1979704533
 10
317.1844666107
 20
206.8077305691
 10
317.556039648
 20
206.3865922833
 10
317.9100766328
 20
205.9379473598
 10
318.2437273846
 20
205.4654069695
 10
318.5543052064
 20
204.9727765017
 10
318.8393097693
 20
204.464021821
 10
319.0964463749
 20
203.9432395159
 10
319.3236445595
 20
203.4146223941
 10
319.5190748862
 20
202.882426595
 10
319.6811644216
 20
202.3509369892
 10
319.8086076011
 20
201.8244329591
 10
319.9003787418
 20
201.3071534187
 10
319.955738298
 20
200.8032635915
 10
319.9742414231
 20
200.3168199826
  0
LWPOLYLINE
  5
201
330
1F
100
AcDbEntity
  8
0
  6
HIDDEN
 62
     7
370
    18
100
AcDbPolyline
 90
       71
 70
   128
 43
0.0
 10
324.9239890441
 20
203.1742484622
 10
324.9054859191
 20
203.6606920711
 10
324.8501263629
 20
204.1645818983
 10
324.7583552222
 20
204.6818614386
 10
324.6309120427
 20
205.2083654688
 10
324.4688225073
 20
205.7398550746
 10
324.2733921806
 20
206.2720508737
 10
324.046193996
 20
206.8006679954
 10
323.7890573904
 20
207.3214503006
 10
323.5040528275
 20
207.8302049813
 10
323.1934750057
 20
208.3228354491
 10
322.8598242539
 20
208.7953758394
 10
322.5057872691
 20
209.2440207629
 10
322.1342142318
 20
209.6651590487
 10
321.7480969098
 20
210.0553989329
 10
321.3505442916
 20
210.4115988547
 10
320.9447570272
 20
210.7308913376
 10
320.5340023409
 20
211.0107046957
 10
320.1215874023
 20
211.2487867721
 10
319.710832716
 20
211.4432206801
 10
319.3050454516
 20
211.5924402001
 10
318.9074928334
 20
211.695244761
 10
318.5213755114
 20
211.7508064477
 10
318.1498024742
 20
211.758677259
 10
317.7957654893
 20
211.7187947375
 10
317.4621147375
 20
211.6314793054
 10
317.1515369157
 20
211.497434358
 10
316.8665323529
 20
211.3177389414
 10
316.6093957472
 20
211.0938402418
 10
316.3821975626
 20
210.8275405603
 10
316.1867672359
 20
210.5209838136
 10
316.0246777005
 20
210.1766388018
 10
315.897234521
 20
209.7972775348
 10
315.8054633803
 20
209.385954698
 10
315.7501038241
 20
208.945981654
 10
315.7316006991
 20
208.4809012985
 10
315.7501038241
 20
207.9944576896
 10
315.8054633803
 20
207.4905678624
 10
315.897234521
 20
206.973288322
 10
316.0246777005
 20
206.4467842919
 10
316.1867672359
 20
205.9152946861
 10
316.3821975626
 20
205.383098887
 10
316.6093957472
 20
204.8544817652
 10
316.8665323529
 20
204.33369946
 10
317.1515369157
 20
203.8249447794
 10
317.4621147375
 20
203.3323143116
 10
317.7957654893
 20
202.8597739213
 10
318.1498024742
 20
202.4111289978
 10
318.5213755114
 20
201.989990712
 10
318.9074928334
 20
201.5997508278
 10
319.3050454516
 20
201.243550906
 10
319.710832716
 20
200.9242584231
 10
320.1215874023
 20
200.644445065
 10
320.5340023409
 20
200.4063629886
 10
320.9447570272
 20
200.2119290806
 10
321.3505442916
 20
200.0627095606
 10
321.7480969098
 20
199.9599049997
 10
322.1342142318
 20
199.904343313
 10
322.5057872691
 20
199.8964725017
 10
322.8598242539
 20
199.9363550232
 10
323.1934750057
 20
200.0236704552
 10
323.5040528275
 20
200.1577154027
 10
323.7890573904
 20
200.3374108193
 10
324.046193996
 20
200.5613095189
 10
324.2733921806
 20
200.8276092004
 10
324.4688225073
 20
201.1341659471
 10
324.6309120427
 20
201.4785109589
 10
324.7583552222
 20
201.8578722259
 10
324.8501263629
 20
202.2691950627
 10
324.9054859191
 20
202.7091681067
 10
324.9239890441
 20
203.1742484622
  0
LINE
  5
202
330
1F
100
AcDbEntity
  8
0
  6
HIDDEN
 62
     7
370
    18
100
AcDbLine
 10
331.7016468022
 20
174.890516249
 30
0.0
 11
334.2557820419
 21
176.3649871379
 31
0.0
  0
LINE
  5
203
330
1F
100
AcDbEntity
  8
0
  6
HIDDEN
 62
     7
370
    18
100
AcDbLine
 10
328.8602557652
 20
173.0306422924
 30
0.0
 11
331.7016468022
 21
174.890516249
 31
0.0
  0
LINE
  5
204
330
1F
100
AcDbEntity
  8
0
  6
HIDDEN
 62
     7
370
    18
100
AcDbLine
 10
333.8073310127
 20
176.2905817062
 30
0.0
 11
333.8949661646
 21
176.3411724026
 31
0.0
  0
LINE
  5
205
330
1F
100
AcDbEntity
  8
0
  6
HIDDEN
 62
     7
370
    18
100
AcDbLine
 10
333.8949661646
 20
176.3411724026
 30
0.0
 11
334.0363872806
 21
176.2595317301
 31
0.0
  0
LINE
  5
206
330
1F
100
AcDbEntity
  8
0
  6
HIDDEN
 62
     7
370
    18
100
AcDbLine
 10
331.6943837149
 20
174.9075218499
 30
0.0
 11
334.0363872806
 21
176.2595317301
 31
0.0
  0
LINE
  5
207
330
1F
100
AcDbEntity
  8
0
  6
HIDDEN
 62
     7
370
    18
100
AcDbLine
 10
331.6943837149
 20
174.9075218499
 30
0.0
 11
333.8073310127
 21
176.2905817062
 31
0.0
  0
SPLINE
  5
208
330
1F
100
AcDbEntity
  8
0
  6
HIDDEN
 62
     7
370
    18
100
AcDbSpline
210
0.0
220
0.0
230
1.0
 70
     8
 71
     3
 72
     9
 73
     5
 74
     0
 42
0.000000001
 43
0.00000001
 40
0.0
 40
0.0
 40
0.0
 40
0.0
 40
0.5328668616703061
 40
0.9999999999999999
 40
0.9999999999999999
 40
0.9999999999999999
 40
0.9999999999999999
 10
324.3072252339286
 20
185.6088012777111
 30
0.0
 10
324.3419130306819
 20
185.6371445434522
 30
0.0
 10
324.407009585278
 20
185.6903346886459
 30
0.0
 10
324.4066794171347
 20
185.8024310219488
 30
0.0
 10
324.4065251846538
 20
185.8547949339198
 30
0.0
  0
LINE
  5
209
330
1F
100
AcDbEntity
  8
0
  6
HIDDEN
 62
     7
370
    18
100
AcDbLine
 10
324.1601248301
 20
185.5433029557
 30
0.0
 11
324.3072252339
 21
185.6088012777
 31
0.0
  0
LINE
  5
20A
330
1F
100
AcDbEntity
  8
0
  6
HIDDEN
 62
     7
370
    18
100
AcDbLine
 10
324.3072252339
 20
185.6088012777
 30
0.0
 11
324.5193569079
 21
185.7312622865
 31
0.0
  0
LINE
  5
20B
330
1F
100
AcDbEntity
  8
0
  6
HIDDEN
 62
     7
370
    18
100
AcDbLine
 10
304.80722581
 20
196.8659113308
 30
0.0
 11
305.019357484
 21
196.9883723396
 31
0.0
  0
LINE
  5
20C
330
1F
100
AcDbEntity
  8
0
  6
HIDDEN
 62
     7
370
    18
100
AcDbLine
 10
300.0907751541
 20
196.7868471478
 30
0.0
 11
301.7735338498
 21
197.7582830652
 31
0.0
  0
LINE
  5
20D
330
1F
100
AcDbEntity
  8
0
  6
HIDDEN
 62
     7
370
    18
100
AcDbLine
 10
301.7735338498
 20
197.7582830652
 30
0.0
 11
336.0979575701
 21
177.943215027
 31
0.0
  0
LINE
  5
20E
330
1F
100
AcDbEntity
  8
0
  6
HIDDEN
 62
     7
370
    18
100
AcDbLine
 10
300.0907751541
 20
196.7868471478
 30
0.0
 11
337.1992971978
 21
175.3645533583
 31
0.0
  0
LINE
  5
20F
330
1F
100
AcDbEntity
  8
0
  6
HIDDEN
 62
     7
370
    18
100
AcDbLine
 10
301.6994186167
 20
196.1679869871
 30
0.0
 11
338.9561711265
 21
174.6601215709
 31
0.0
  0
LINE
  5
210
330
1F
100
AcDbEntity
  8
0
  6
HIDDEN
 62
     7
370
    18
100
AcDbLine
 10
301.7735338498
 20
197.7582830652
 30
0.0
 11
301.6994186167
 21
196.1679869871
 31
0.0
  0
LINE
  5
211
330
1F
100
AcDbEntity
  8
0
  6
HIDDEN
 62
     7
370
    18
100
AcDbLine
 10
299.0264169164
 20
194.6248959512
 30
0.0
 11
301.6994186167
 21
196.1679869871
 31
0.0
  0
LINE
  5
212
330
1F
100
AcDbEntity
  8
0
  6
HIDDEN
 62
     7
370
    18
100
AcDbLine
 10
294.7354421536
 20
212.5040169731
 30
0.0
 11
300.0907751541
 21
196.7868471478
 31
0.0
  0
LINE
  5
213
330
1F
100
AcDbEntity
  8
0
  6
HIDDEN
 62
     7
370
    18
100
AcDbLine
 10
296.7153707049
 20
195.4047425095
 30
0.0
 11
298.8776765721
 21
196.6530151164
 31
0.0
  0
LINE
  5
214
330
1F
100
AcDbEntity
  8
0
  6
HIDDEN
 62
     7
370
    18
100
AcDbLine
 10
296.4353075307
 20
195.2621532705
 30
0.0
 11
298.7773110964
 21
196.6141631507
 31
0.0
  0
LINE
  5
215
330
1F
100
AcDbEntity
  8
0
  6
HIDDEN
 62
     7
370
    18
100
AcDbLine
 10
298.7773110964
 20
196.6141631507
 30
0.0
 11
294.8172017714
 21
208.2365380678
 31
0.0
  0
LWPOLYLINE
  5
216
330
1F
100
AcDbEntity
  8
0
  6
HIDDEN
 62
     7
370
    18
100
AcDbPolyline
 90
       15
 70
   128
 43
0.0
 10
306.8628514182
 20
194.536357764
 10
307.0834432489
 20
194.4216534499
 10
307.2857950431
 20
194.3424331333
 10
307.4646652803
 20
194.3007482461
 10
307.6154217586
 20
194.2976788229
 10
307.7341594737
 20
194.3333057598
 10
307.8178036812
 20
194.4067041747
 10
307.8641877697
 20
194.515973935
 10
307.8721107187
 20
194.6582842524
 10
307.8413665683
 20
194.8299507866
 10
307.7727524868
 20
195.026527005
 10
307.6680445685
 20
195.2429202567
 10
307.529956017
 20
195.4735288509
 10
307.3620617411
 20
195.7123779929
 10
307.2825062718
 20
195.815143628
  0
LWPOLYLINE
  5
217
330
1F
100
AcDbEntity
  8
0
  6
HIDDEN
 62
     7
370
    18
100
AcDbPolyline
 90
       25
 70
   128
 43
0.0
 10
306.5559769215
 20
196.5694070734
 10
306.488502122
 20
196.6266301254
 10
306.247970716
 20
196.8152332146
 10
306.0108373998
 20
196.9773261245
 10
305.7832444178
 20
197.1087127563
 10
305.5710844264
 20
197.2059913521
 10
305.3798529795
 20
197.2666396524
 10
305.2145039781
 20
197.2890895972
 10
305.0793176322
 20
197.2727590591
 10
304.9777977279
 20
197.21806856
 10
304.9125718579
 20
197.1264384034
 10
304.885330835
 20
197.0002384715
 10
304.8967786435
 20
196.8427380221
 10
304.9466192675
 20
196.6580189852
 10
305.0335619598
 20
196.450861885
 10
305.1553544982
 20
196.2266342353
 10
305.3088434423
 20
195.9911428154
 10
305.4900543114
 20
195.7504852828
 10
305.6942915184
 20
195.5108964647
 10
305.9162662926
 20
195.2785803944
 10
306.1502295402
 20
195.0595558472
 10
306.3901224872
 20
194.8594938939
 10
306.6297324247
 20
194.6835751335
 10
306.8628514182
 20
194.536357764
 10
306.8628514182
 20
194.536357764
  0
LINE
  5
218
330
1F
100
AcDbEntity
  8
0
  6
HIDDEN
 62
     7
370
    18
100
AcDbLine
 10
293.2189972271
 20
193.6059028897
 30
0.0
 11
292.5594807075
 21
193.9866336724
 31
0.0
  0
ELLIPSE
  5
219
330
1F
100
AcDbEntity
  8
0
  6
HIDDEN
 62
     7
370
    18
100
AcDbEllipse
 10
292.6706550415
 20
196.3720763971
 30
0.0
 11
1.61157446450045
 21
2.532702618677462
 31
0.0
210
0.0
220
0.0
230
1.0
 40
0.546413513
 41
3.165173280490904
 42
3.950490179826219
  0
LINE
  5
21A
330
1F
100
AcDbEntity
  8
0
  6
HIDDEN
 62
     7
370
    18
100
AcDbLine
 10
292.5594807075
 20
193.9866336724
 30
0.0
 11
298.1451841014
 21
197.211191605
 31
0.0
  0
LINE
  5
21B
330
1F
100
AcDbEntity
  8
0
  6
HIDDEN
 62
     7
370
    18
100
AcDbLine
 10
298.9187322124
 20
196.5325224782
 30
0.0
 11
298.7773110964
 21
196.6141631507
 31
0.0
  0
LINE
  5
21C
330
1F
100
AcDbEntity
  8
0
  6
HIDDEN
 62
     7
370
    18
100
AcDbLine
 10
322.6813479909
 20
195.6916159257
 30
0.0
 11
322.6813486494
 21
200.2467832284
 31
0.0
  0
LINE
  5
21D
330
1F
100
AcDbEntity
  8
0
  6
HIDDEN
 62
     7
370
    18
100
AcDbLine
 10
315.2481712751
 20
211.4787293189
 30
0.0
 11
307.0309680359
 21
216.223962499
 31
0.0
  0
LINE
  5
21E
330
1F
100
AcDbEntity
  8
0
  6
HIDDEN
 62
     7
370
    18
100
AcDbLine
 10
320.6813483201
 20
195.1085847055
 30
0.0
 11
320.6813479909
 21
199.9086160499
 31
0.0
  0
LINE
  5
21F
330
1F
100
AcDbEntity
  8
0
  6
HIDDEN
 62
     7
370
    18
100
AcDbLine
 10
315.3789091861
 20
209.0937047682
 30
0.0
 11
305.8091466467
 21
214.6200069227
 31
0.0
  0
LINE
  5
220
330
1F
100
AcDbEntity
  8
0
  6
HIDDEN
 62
     7
370
    18
100
AcDbLine
 10
314.4070036172
 20
212.2242635001
 30
0.0
 11
312.4212861304
 21
211.0779331953
 31
0.0
  0
LINE
  5
221
330
1F
100
AcDbEntity
  8
0
  6
HIDDEN
 62
     7
370
    18
100
AcDbLine
 10
320.920595235
 20
196.3551025891
 30
0.0
 11
324.5774494239
 21
198.4661595772
 31
0.0
  0
LINE
  5
222
330
1F
100
AcDbEntity
  8
0
  6
HIDDEN
 62
     7
370
    18
100
AcDbLine
 10
317.0780591537
 20
211.4568925098
 30
0.0
 11
312.1283115326
 21
208.5994640303
 31
0.0
  0
LINE
  5
223
330
1F
100
AcDbEntity
  8
0
  6
HIDDEN
 62
     7
370
    18
100
AcDbLine
 10
318.6277829684
 20
197.3408287713
 30
0.0
 11
323.5775305895
 21
200.1982572508
 31
0.0
  0
LINE
  5
224
330
1F
100
AcDbEntity
  8
0
  6
HIDDEN
 62
     7
370
    18
100
AcDbLine
 10
306.4627398608
 20
193.0500830553
 30
0.0
 11
307.7916660497
 21
194.3758036406
 31
0.0
  0
LINE
  5
225
330
1F
100
AcDbEntity
  8
0
  6
HIDDEN
 62
     7
370
    18
100
AcDbLine
 10
304.966657789
 20
197.2076445639
 30
0.0
 11
303.6377317648
 21
195.8819255946
 31
0.0
  0
ENDSEC
  0
SECTION
  2
OBJECTS
  0
DICTIONARY
  5
C
330
0
100
AcDbDictionary
281
     1
  3
ACAD_GROUP
350
D
  3
ACAD_LAYOUT
350
1A
  3
ACAD_MLINESTYLE
350
17
  3
ACAD_PLOTSETTINGS
350
19
  3
ACAD_PLOTSTYLENAME
350
E
  3
ACAD_SCALELIST
350
47
  0
DICTIONARY
  5
D
102
{ACAD_REACTORS
330
C
102
}
330
C
100
AcDbDictionary
281
     1
  0
DICTIONARY
  5
1A
102
{ACAD_REACTORS
330
C
102
}
330
C
100
AcDbDictionary
281
     1
  3
Layout1
350
1E
  3
Layout2
350
26
  3
Model
350
22
  0
DICTIONARY
  5
17
102
{ACAD_REACTORS
330
C
102
}
330
C
100
AcDbDictionary
281
     1
  3
Standard
350
18
  0
DICTIONARY
  5
19
102
{ACAD_REACTORS
330
C
102
}
330
C
100
AcDbDictionary
281
     1
  0
ACDBDICTIONARYWDFLT
  5
E
102
{ACAD_REACTORS
330
C
102
}
330
C
100
AcDbDictionary
281
     1
  3
Normal
350
F
100
AcDbDictionaryWithDefault
340
F
  0
DICTIONARY
  5
47
102
{ACAD_REACTORS
330
C
102
}
330
C
100
AcDbDictionary
281
     1
  3
A0
350
48
  3
A1
350
49
  3
A2
350
4A
  3
A3
350
4B
  3
A4
350
4C
  3
A5
350
4D
  3
A6
350
4E
  3
A7
350
4F
  3
A8
350
50
  3
A9
350
51
  3
B0
350
52
  3
B1
350
53
  3
B2
350
54
  3
B3
350
55
  3
B4
350
56
  3
B5
350
57
  3
B6
350
58
  3
B7
350
59
  3
B8
350
5A
  3
B9
350
5B
  3
C0
350
5C
  3
C1
350
5D
  3
C2
350
5E
  3
C3
350
5F
  3
C4
350
60
  3
C5
350
61
  3
C6
350
62
  3
C7
350
63
  3
C8
350
64
  3
C9
350
65
  3
D0
350
66
  3
D1
350
67
  3
D2
350
68
  0
LAYOUT
  5
1E
102
{ACAD_REACTORS
330
1A
102
}
330
1A
100
AcDbPlotSettings
  1

  2
none_device
  4

  6

 40
0.0
 41
0.0
 42
0.0
 43
0.0
 44
0.0
 45
0.0
 46
0.0
 47
0.0
 48
0.0
 49
0.0
140
0.0
141
0.0
142
1.0
143
1.0
 70
   688
 72
     1
 73
     0
 74
     5
  7

 75
    16
147
1.0
148
0.0
149
0.0
100
AcDbLayout
  1
Layout1
 70
     1
 71
     1
 10
0.0
 20
0.0
 11
420.0
 21
297.0
 12
0.0
 22
0.0
 32
0.0
 14
1.0000000000E+20
 24
1.0000000000E+20
 34
1.0000000000E+20
 15
-1.0000000000E+20
 25
-1.0000000000E+20
 35
-1.0000000000E+20
146
0.0
 13
0.0
 23
0.0
 33
0.0
 16
1.0
 26
0.0
 36
0.0
 17
0.0
 27
1.0
 37
0.0
 76
     0
330
1B
  0
LAYOUT
  5
26
102
{ACAD_REACTORS
330
1A
102
}
330
1A
100
AcDbPlotSettings
  1

  2
none_device
  4

  6

 40
0.0
 41
0.0
 42
0.0
 43
0.0
 44
0.0
 45
0.0
 46
0.0
 47
0.0
 48
0.0
 49
0.0
140
0.0
141
0.0
142
1.0
143
1.0
 70
   688
 72
     1
 73
     0
 74
     5
  7

 75
    16
147
1.0
148
0.0
149
0.0
100
AcDbLayout
  1
Layout2
 70
     1
 71
     2
 10
0.0
 20
0.0
 11
0.0
 21
0.0
 12
0.0
 22
0.0
 32
0.0
 14
0.0
 24
0.0
 34
0.0
 15
0.0
 25
0.0
 35
0.0
146
0.0
 13
0.0
 23
0.0
 33
0.0
 16
1.0
 26
0.0
 36
0.0
 17
0.0
 27
1.0
 37
0.0
 76
     0
330
23
  0
LAYOUT
  5
22
102
{ACAD_REACTORS
330
1A
102
}
330
1A
100
AcDbPlotSettings
  1

  2
none_device
  4
Letter_(8.50_x_11.00_Inches)
  6

 40
6.35
 41
6.35
 42
6.35000508
 43
6.35000508
 44
215.9
 45
279.4
 46
0.0
 47
0.0
 48
0.0
 49
0.0
140
0.0
141
0.0
142
1.0
143
1.0
 70
  1712
 72
     1
 73
     0
 74
     0
  7

 75
     0
147
1.0
148
0.0
149
0.0
100
AcDbLayout
  1
Model
 70
     1
 71
     0
 10
0.0
 20
0.0
 11
594.0
 21
420.0
 12
0.0
 22
0.0
 32
0.0
 14
0.0
 24
0.0
 34
0.0
 15
594.0
 25
420.0
 35
0.0
146
0.0
 13
0.0
 23
0.0
 33
0.0
 16
1.0
 26
0.0
 36
0.0
 17
0.0
 27
1.0
 37
0.0
 76
     0
330
1F
331
29
  0
MLINESTYLE
  5
18
102
{ACAD_REACTORS
330
17
102
}
330
17
100
AcDbMlineStyle
  2
Standard
 70
     0
  3

 62
   256
 51
90.0
 52
90.0
 71
     2
 49
0.5
 62
   256
  6
BYLAYER
 49
-0.5
 62
   256
  6
BYLAYER
  0
ACDBPLACEHOLDER
  5
F
102
{ACAD_REACTORS
330
E
102
}
330
E
  0
SCALE
  5
48
102
{ACAD_REACTORS
330
47
102
}
330
47
100
AcDbScale
 70
     0
300
1:1
140
1.0
141
1.0
290
     1
  0
SCALE
  5
49
102
{ACAD_REACTORS
330
47
102
}
330
47
100
AcDbScale
 70
     0
300
1:2
140
1.0
141
2.0
290
     0
  0
SCALE
  5
4A
102
{ACAD_REACTORS
330
47
102
}
330
47
100
AcDbScale
 70
     0
300
1:4
140
1.0
141
4.0
290
     0
  0
SCALE
  5
4B
102
{ACAD_REACTORS
330
47
102
}
330
47
100
AcDbScale
 70
     0
300
1:5
140
1.0
141
5.0
290
     0
  0
SCALE
  5
4C
102
{ACAD_REACTORS
330
47
102
}
330
47
100
AcDbScale
 70
     0
300
1:8
140
1.0
141
8.0
290
     0
  0
SCALE
  5
4D
102
{ACAD_REACTORS
330
47
102
}
330
47
100
AcDbScale
 70
     0
300
1:10
140
1.0
141
10.0
290
     0
  0
SCALE
  5
4E
102
{ACAD_REACTORS
330
47
102
}
330
47
100
AcDbScale
 70
     0
300
1:16
140
1.0
141
16.0
290
     0
  0
SCALE
  5
4F
102
{ACAD_REACTORS
330
47
102
}
330
47
100
AcDbScale
 70
     0
300
1:20
140
1.0
141
20.0
290
     0
  0
SCALE
  5
50
102
{ACAD_REACTORS
330
47
102
}
330
47
100
AcDbScale
 70
     0
300
1:30
140
1.0
141
30.0
290
     0
  0
SCALE
  5
51
102
{ACAD_REACTORS
330
47
102
}
330
47
100
AcDbScale
 70
     0
300
1:40
140
1.0
141
40.0
290
     0
  0
SCALE
  5
52
102
{ACAD_REACTORS
330
47
102
}
330
47
100
AcDbScale
 70
     0
300
1:50
140
1.0
141
50.0
290
     0
  0
SCALE
  5
53
102
{ACAD_REACTORS
330
47
102
}
330
47
100
AcDbScale
 70
     0
300
1:100
140
1.0
141
100.0
290
     0
  0
SCALE
  5
54
102
{ACAD_REACTORS
330
47
102
}
330
47
100
AcDbScale
 70
     0
300
2:1
140
2.0
141
1.0
290
     0
  0
SCALE
  5
55
102
{ACAD_REACTORS
330
47
102
}
330
47
100
AcDbScale
 70
     0
300
4:1
140
4.0
141
1.0
290
     0
  0
SCALE
  5
56
102
{ACAD_REACTORS
330
47
102
}
330
47
100
AcDbScale
 70
     0
300
8:1
140
8.0
141
1.0
290
     0
  0
SCALE
  5
57
102
{ACAD_REACTORS
330
47
102
}
330
47
100
AcDbScale
 70
     0
300
10:1
140
10.0
141
1.0
290
     0
  0
SCALE
  5
58
102
{ACAD_REACTORS
330
47
102
}
330
47
100
AcDbScale
 70
     0
300
100:1
140
100.0
141
1.0
290
     0
  0
SCALE
  5
59
102
{ACAD_REACTORS
330
47
102
}
330
47
100
AcDbScale
 70
     0
300
1/128" = 1'-0"
140
0.0078125
141
12.0
290
     0
  0
SCALE
  5
5A
102
{ACAD_REACTORS
330
47
102
}
330
47
100
AcDbScale
 70
     0
300
1/64" = 1'-0"
140
0.015625
141
12.0
290
     0
  0
SCALE
  5
5B
102
{ACAD_REACTORS
330
47
102
}
330
47
100
AcDbScale
 70
     0
300
1/32" = 1'-0"
140
0.03125
141
12.0
290
     0
  0
SCALE
  5
5C
102
{ACAD_REACTORS
330
47
102
}
330
47
100
AcDbScale
 70
     0
300
1/16" = 1'-0"
140
0.0625
141
12.0
290
     0
  0
SCALE
  5
5D
102
{ACAD_REACTORS
330
47
102
}
330
47
100
AcDbScale
 70
     0
300
3/32" = 1'-0"
140
0.09375
141
12.0
290
     0
  0
SCALE
  5
5E
102
{ACAD_REACTORS
330
47
102
}
330
47
100
AcDbScale
 70
     0
300
1/8" = 1'-0"
140
0.125
141
12.0
290
     0
  0
SCALE
  5
5F
102
{ACAD_REACTORS
330
47
102
}
330
47
100
AcDbScale
 70
     0
300
3/16" = 1'-0"
140
0.1875
141
12.0
290
     0
  0
SCALE
  5
60
102
{ACAD_REACTORS
330
47
102
}
330
47
100
AcDbScale
 70
     0
300
1/4" = 1'-0"
140
0.25
141
12.0
290
     0
  0
SCALE
  5
61
102
{ACAD_REACTORS
330
47
102
}
330
47
100
AcDbScale
 70
     0
300
3/8" = 1'-0"
140
0.375
141
12.0
290
     0
  0
SCALE
  5
62
102
{ACAD_REACTORS
330
47
102
}
330
47
100
AcDbScale
 70
     0
300
1/2" = 1'-0"
140
0.5
141
12.0
290
     0
  0
SCALE
  5
63
102
{ACAD_REACTORS
330
47
102
}
330
47
100
AcDbScale
 70
     0
300
3/4" = 1'-0"
140
0.75
141
12.0
290
     0
  0
SCALE
  5
64
102
{ACAD_REACTORS
330
47
102
}
330
47
100
AcDbScale
 70
     0
300
1" = 1'-0"
140
1.0
141
12.0
290
     0
  0
SCALE
  5
65
102
{ACAD_REACTORS
330
47
102
}
330
47
100
AcDbScale
 70
     0
300
1-1/2" = 1'-0"
140
1.5
141
12.0
290
     0
  0
SCALE
  5
66
102
{ACAD_REACTORS
330
47
102
}
330
47
100
AcDbScale
 70
     0
300
3" = 1'-0"
140
3.0
141
12.0
290
     0
  0
SCALE
  5
67
102
{ACAD_REACTORS
330
47
102
}
330
47
100
AcDbScale
 70
     0
300
6" = 1'-0"
140
6.0
141
12.0
290
     0
  0
SCALE
  5
68
102
{ACAD_REACTORS
330
47
102
}
330
47
100
AcDbScale
 70
     0
300
1'-0" = 1'-0"
140
12.0
141
12.0
290
     0
  0
ENDSEC
  0
EOF
