  0
SECTION
  2
HEADER
  9
$ACADVER
  1
AC1015
  9
$ACADMAINTVER
 70
     6
  9
$DWGCODEPAGE
  3
ANSI_1252
  9
$INSBASE
 10
0.0
 20
0.0
 30
0.0
  9
$EXTMIN
 10
0.0
 20
0.0
 30
0.0
  9
$EXTMAX
 10
594.0
 20
420.0
 30
0.0
  9
$LIMMIN
 10
0.0
 20
0.0
  9
$LIMMAX
 10
594.0
 20
420.0
  9
$ORTHOMODE
 70
     0
  9
$REGENMODE
 70
     1
  9
$FILLMODE
 70
     1
  9
$QTEXTMODE
 70
     0
  9
$MIRRTEXT
 70
     1
  9
$LTSCALE
 40
2.0
  9
$ATTMODE
 70
     1
  9
$TEXTSIZE
 40
7.0
  9
$TRACEWID
 40
1.0
  9
$TEXTSTYLE
  7
Standard
  9
$CLAYER
  8
0
  9
$CELTYPE
  6
ByLayer
  9
$CECOLOR
 62
   256
  9
$CELTSCALE
 40
1.0
  9
$DISPSILH
 70
     0
  9
$DIMSCALE
 40
1.0
  9
$DIMASZ
 40
6.604
  9
$DIMEXO
 40
2.0
  9
$DIMDLI
 40
3.75
  9
$DIMRND
 40
0.0
  9
$DIMDLE
 40
0.0
  9
$DIMEXE
 40
2.0
  9
$DIMTP
 40
0.0
  9
$DIMTM
 40
0.0
  9
$DIMTXT
 40
7.0
  9
$DIMCEN
 40
2.5
  9
$DIMTSZ
 40
0.0
  9
$DIMTOL
 70
     0
  9
$DIMLIM
 70
     0
  9
$DIMTIH
 70
     1
  9
$DIMTOH
 70
     1
  9
$DIMSE1
 70
     0
  9
$DIMSE2
 70
     0
  9
$DIMTAD
 70
     1
  9
$DIMZIN
 70
     1
  9
$DIMBLK
  1

  9
$DIMASO
 70
     1
  9
$DIMSHO
 70
     1
  9
$DIMPOST
  1

  9
$DIMAPOST
  1

  9
$DIMALT
 70
     0
  9
$DIMALTD
 70
     3
  9
$DIMALTF
 40
0.0393700787
  9
$DIMLFAC
 40
1.0
  9
$DIMTOFL
 70
     1
  9
$DIMTVP
 40
0.0
  9
$DIMTIX
 70
     0
  9
$DIMSOXD
 70
     0
  9
$DIMSAH
 70
     0
  9
$DIMBLK1
  1

  9
$DIMBLK2
  1

  9
$DIMSTYLE
  2
ISO-25
  9
$DIMCLRD
 70
     0
  9
$DIMCLRE
 70
     0
  9
$DIMCLRT
 70
     0
  9
$DIMTFAC
 40
1.0
  9
$DIMGAP
 40
3.048
  9
$DIMJUST
 70
     0
  9
$DIMSD1
 70
     0
  9
$DIMSD2
 70
     0
  9
$DIMTOLJ
 70
     0
  9
$DIMTZIN
 70
     1
  9
$DIMALTZ
 70
     0
  9
$DIMALTTZ
 70
     0
  9
$DIMUPT
 70
     0
  9
$DIMDEC
 70
     2
  9
$DIMTDEC
 70
     2
  9
$DIMALTU
 70
     2
  9
$DIMALTTD
 70
     3
  9
$DIMTXSTY
  7
Standard
  9
$DIMAUNIT
 70
     0
  9
$DIMADEC
 70
     2
  9
$DIMALTRND
 40
0.0
  9
$DIMAZIN
 70
     0
  9
$DIMDSEP
 70
    44
  9
$DIMATFIT
 70
     3
  9
$DIMFRAC
 70
     0
  9
$DIMLDRBLK
  1

  9
$DIMLUNIT
 70
     2
  9
$DIMLWD
 70
    -2
  9
$DIMLWE
 70
    -2
  9
$DIMTMOVE
 70
     0
  9
$LUNITS
 70
     2
  9
$LUPREC
 70
     2
  9
$SKETCHINC
 40
1.0
  9
$FILLETRAD
 40
10.0
  9
$AUNITS
 70
     0
  9
$AUPREC
 70
     2
  9
$MENU
  1
.
  9
$ELEVATION
 40
0.0
  9
$PELEVATION
 40
0.0
  9
$THICKNESS
 40
0.0
  9
$LIMCHECK
 70
     0
  9
$CHAMFERA
 40
0.0
  9
$CHAMFERB
 40
0.0
  9
$CHAMFERC
 40
0.0
  9
$CHAMFERD
 40
0.0
  9
$SKPOLY
 70
     0
  9
$TDCREATE
 40
2459021.629442106
  9
$TDUCREATE
 40
2459021.83777544
  9
$TDUPDATE
 40
2459021.62944316
  9
$TDUUPDATE
 40
2459021.837776493
  9
$TDINDWG
 40
0.0000000116
  9
$TDUSRTIMER
 40
0.0000000116
  9
$USRTIMER
 70
     1
  9
$ANGBASE
 50
0.0
  9
$ANGDIR
 70
     0
  9
$PDMODE
 70
     0
  9
$PDSIZE
 40
-1.0
  9
$PLINEWID
 40
0.0
  9
$SPLFRAME
 70
     0
  9
$SPLINETYPE
 70
     6
  9
$SPLINESEGS
 70
     8
  9
$HANDSEED
  5
185
  9
$SURFTAB1
 70
     6
  9
$SURFTAB2
 70
     6
  9
$SURFTYPE
 70
     6
  9
$SURFU
 70
     6
  9
$SURFV
 70
     6
  9
$UCSBASE
  2

  9
$UCSNAME
  2

  9
$UCSORG
 10
0.0
 20
0.0
 30
0.0
  9
$UCSXDIR
 10
1.0
 20
0.0
 30
0.0
  9
$UCSYDIR
 10
0.0
 20
1.0
 30
0.0
  9
$UCSORTHOREF
  2

  9
$UCSORTHOVIEW
 70
     0
  9
$UCSORGTOP
 10
0.0
 20
0.0
 30
0.0
  9
$UCSORGBOTTOM
 10
0.0
 20
0.0
 30
0.0
  9
$UCSORGLEFT
 10
0.0
 20
0.0
 30
0.0
  9
$UCSORGRIGHT
 10
0.0
 20
0.0
 30
0.0
  9
$UCSORGFRONT
 10
0.0
 20
0.0
 30
0.0
  9
$UCSORGBACK
 10
0.0
 20
0.0
 30
0.0
  9
$PUCSBASE
  2

  9
$PUCSNAME
  2

  9
$PUCSORG
 10
0.0
 20
0.0
 30
0.0
  9
$PUCSXDIR
 10
1.0
 20
0.0
 30
0.0
  9
$PUCSYDIR
 10
0.0
 20
1.0
 30
0.0
  9
$PUCSORTHOREF
  2

  9
$PUCSORTHOVIEW
 70
     0
  9
$PUCSORGTOP
 10
0.0
 20
0.0
 30
0.0
  9
$PUCSORGBOTTOM
 10
0.0
 20
0.0
 30
0.0
  9
$PUCSORGLEFT
 10
0.0
 20
0.0
 30
0.0
  9
$PUCSORGRIGHT
 10
0.0
 20
0.0
 30
0.0
  9
$PUCSORGFRONT
 10
0.0
 20
0.0
 30
0.0
  9
$PUCSORGBACK
 10
0.0
 20
0.0
 30
0.0
  9
$USERI1
 70
     0
  9
$USERI2
 70
     0
  9
$USERI3
 70
     0
  9
$USERI4
 70
     0
  9
$USERI5
 70
     0
  9
$USERR1
 40
0.0
  9
$USERR2
 40
0.0
  9
$USERR3
 40
0.0
  9
$USERR4
 40
0.0
  9
$USERR5
 40
0.0
  9
$WORLDVIEW
 70
     1
  9
$SHADEDGE
 70
     3
  9
$SHADEDIF
 70
    70
  9
$TILEMODE
 70
     1
  9
$MAXACTVP
 70
    64
  9
$PINSBASE
 10
0.0
 20
0.0
 30
0.0
  9
$PLIMCHECK
 70
     0
  9
$PEXTMIN
 10
1.0000000000E+20
 20
1.0000000000E+20
 30
1.0000000000E+20
  9
$PEXTMAX
 10
-1.0000000000E+20
 20
-1.0000000000E+20
 30
-1.0000000000E+20
  9
$PLIMMIN
 10
0.0
 20
0.0
  9
$PLIMMAX
 10
420.0
 20
297.0
  9
$UNITMODE
 70
     0
  9
$VISRETAIN
 70
     1
  9
$PLINEGEN
 70
     0
  9
$PSLTSCALE
 70
     1
  9
$TREEDEPTH
 70
  3020
  9
$CMLSTYLE
  2
Standard
  9
$CMLJUST
 70
     0
  9
$CMLSCALE
 40
20.0
  9
$PROXYGRAPHICS
 70
     1
  9
$MEASUREMENT
 70
     1
  9
$CELWEIGHT
370
    -1
  9
$ENDCAPS
280
     0
  9
$JOINSTYLE
280
     0
  9
$LWDISPLAY
290
     1
  9
$INSUNITS
 70
     4
  9
$HYPERLINKBASE
  1

  9
$STYLESHEET
  1

  9
$XEDIT
290
     1
  9
$CEPSNTYPE
380
     0
  9
$PSTYLEMODE
290
     1
  9
$FINGERPRINTGUID
  2
{E331420D-0F22-4B6A-83F8-53B57F807A66}
  9
$VERSIONGUID
  2
{FAEB1C32-E019-11D5-929B-00C0DF256EC4}
  9
$EXTNAMES
290
     1
  9
$PSVPSCALE
 40
0.0
  9
$OLESTARTUP
290
     0
  0
ENDSEC
  0
SECTION
  2
CLASSES
  0
CLASS
  1
ACDBDICTIONARYWDFLT
  2
AcDbDictionaryWithDefault
  3
ObjectDBX Classes
 90
        0
280
     0
281
     0
  0
CLASS
  1
VISUALSTYLE
  2
AcDbVisualStyle
  3
ObjectDBX Classes
 90
     4095
280
     0
281
     0
  0
CLASS
  1
MATERIAL
  2
AcDbMaterial
  3
ObjectDBX Classes
 90
     1153
280
     0
281
     0
  0
CLASS
  1
SCALE
  2
AcDbScale
  3
ObjectDBX Classes
 90
     1153
280
     0
281
     0
  0
CLASS
  1
TABLESTYLE
  2
AcDbTableStyle
  3
ObjectDBX Classes
 90
     4095
280
     0
281
     0
  0
CLASS
  1
MLEADERSTYLE
  2
AcDbMLeaderStyle
  3
ACDB_MLEADERSTYLE_CLASS
 90
     4095
280
     0
281
     0
  0
CLASS
  1
SUN
  2
AcDbSun
  3
SCENEOE
 90
     1153
280
     0
281
     0
  0
CLASS
  1
ACDBPLACEHOLDER
  2
AcDbPlaceHolder
  3
ObjectDBX Classes
 90
        0
280
     0
281
     0
  0
CLASS
  1
LAYOUT
  2
AcDbLayout
  3
ObjectDBX Classes
 90
        0
280
     0
281
     0
  0
ENDSEC
  0
SECTION
  2
TABLES
  0
TABLE
  2
VPORT
  5
8
330
0
100
AcDbSymbolTable
 70
     1
  0
VPORT
  5
29
330
8
100
AcDbSymbolTableRecord
100
AcDbViewportTableRecord
  2
*Active
 70
     0
 10
0.0
 20
0.0
 11
1.0
 21
1.0
 12
297.0
 22
210.0
 13
0.0
 23
0.0
 14
10.0
 24
10.0
 15
10.0
 25
10.0
 16
0.0
 26
0.0
 36
1.0
 17
0.0
 27
0.0
 37
0.0
 40
420.0
 41
1.4142857143
 42
50.0
 43
0.0
 44
0.0
 50
0.0
 51
0.0
 71
     0
 72
  2000
 73
     1
 74
     3
 75
     0
 76
     0
 77
     0
 78
     0
281
     0
 65
     1
110
0.0
120
0.0
130
0.0
111
1.0
121
0.0
131
0.0
112
0.0
122
1.0
132
0.0
 79
     0
146
0.0
  0
ENDTAB
  0
TABLE
  2
LTYPE
  5
5
330
0
100
AcDbSymbolTable
 70
     6
  0
LTYPE
  5
14
330
5
100
AcDbSymbolTableRecord
100
AcDbLinetypeTableRecord
  2
ByBlock
 70
     0
  3

 72
    65
 73
     0
 40
0.0
  0
LTYPE
  5
15
330
5
100
AcDbSymbolTableRecord
100
AcDbLinetypeTableRecord
  2
ByLayer
 70
     0
  3

 72
    65
 73
     0
 40
0.0
  0
LTYPE
  5
16
330
5
100
AcDbSymbolTableRecord
100
AcDbLinetypeTableRecord
  2
Continuous
 70
     0
  3
Solid line
 72
    65
 73
     0
 40
0.0
  0
LTYPE
  5
6E
330
5
100
AcDbSymbolTableRecord
100
AcDbLinetypeTableRecord
  2
HIDDEN
 70
     0
  3
Hidden __ __ __ __ __ __ __ __ __ __ __ __ __ __
 72
    65
 73
     2
 40
1.905
 49
1.27
 74
     0
 49
-0.635
 74
     0
  0
LTYPE
  5
6F
330
5
100
AcDbSymbolTableRecord
100
AcDbLinetypeTableRecord
  2
PHANTOM
 70
     0
  3
Phantom ______  __  __  ______  __  __  ______
 72
    65
 73
     6
 40
12.7
 49
6.35
 74
     0
 49
-1.27
 74
     0
 49
1.27
 74
     0
 49
-1.27
 74
     0
 49
1.27
 74
     0
 49
-1.27
 74
     0
  0
LTYPE
  5
70
330
5
100
AcDbSymbolTableRecord
100
AcDbLinetypeTableRecord
  2
CENTER
 70
     0
  3
Center ____ _ ____ _ ____ _ ____ _ ____ _ ____
 72
    65
 73
     4
 40
10.16
 49
6.35
 74
     0
 49
-1.27
 74
     0
 49
1.27
 74
     0
 49
-1.27
 74
     0
  0
LTYPE
  5
71
330
5
100
AcDbSymbolTableRecord
100
AcDbLinetypeTableRecord
  2
CENTERX2
 70
     0
  3
Center (2x) ________  __  ________  __  _____
 72
    65
 73
     4
 40
20.32
 49
12.7
 74
     0
 49
-2.54
 74
     0
 49
2.54
 74
     0
 49
-2.54
 74
     0
  0
LTYPE
  5
72
330
5
100
AcDbSymbolTableRecord
100
AcDbLinetypeTableRecord
  2
DOT2
 70
     0
  3
Dot (.5x) ........................................
 72
    65
 73
     2
 40
0.635
 49
0.0
 74
     0
 49
-0.635
 74
     0
  0
ENDTAB
  0
TABLE
  2
LAYER
  5
2
330
0
100
AcDbSymbolTable
 70
     1
  0
LAYER
  5
10
330
2
100
AcDbSymbolTableRecord
100
AcDbLayerTableRecord
  2
0
 70
     0
 62
     7
  6
Continuous
370
    -3
390
F
  0
ENDTAB
  0
TABLE
  2
STYLE
  5
3
330
0
100
AcDbSymbolTable
 70
     2
  0
STYLE
  5
11
330
3
100
AcDbSymbolTableRecord
100
AcDbTextStyleTableRecord
  2
Standard
 70
     0
 40
0.0
 41
1.0
 50
0.0
 71
     0
 42
7.0
  3
txt
  4

  0
STYLE
  5
91
330
3
100
AcDbSymbolTableRecord
100
AcDbTextStyleTableRecord
  2
SLDTEXTSTYLE0
 70
     0
 40
0.0
 41
0.75
 50
0.0
 71
     0
 42
7.0
  3
TXT
  4

  0
ENDTAB
  0
TABLE
  2
VIEW
  5
6
330
0
100
AcDbSymbolTable
 70
     0
  0
ENDTAB
  0
TABLE
  2
UCS
  5
7
330
0
100
AcDbSymbolTable
 70
     0
  0
ENDTAB
  0
TABLE
  2
APPID
  5
9
330
0
100
AcDbSymbolTable
 70
     1
  0
APPID
  5
12
330
9
100
AcDbSymbolTableRecord
100
AcDbRegAppTableRecord
  2
ACAD
 70
     0
  0
ENDTAB
  0
TABLE
  2
DIMSTYLE
  5
A
330
0
100
AcDbSymbolTable
 70
     5
100
AcDbDimStyleTable
  0
DIMSTYLE
105
27
330
A
100
AcDbSymbolTableRecord
100
AcDbDimStyleTableRecord
  2
ISO-25
 70
     0
 41
2.5
 42
0.625
 43
3.75
 44
1.25
 73
     0
 74
     0
 77
     1
 78
     8
140
2.5
141
2.5
143
0.0393700787
147
0.625
171
     3
172
     1
178
     0
271
     2
272
     2
274
     3
278
    44
283
     0
284
     8
340
11
  0
DIMSTYLE
105
92
102
{ACAD_REACTORS
330
90
330
DE
330
EA
102
}
330
A
100
AcDbSymbolTableRecord
100
AcDbDimStyleTableRecord
  2
SLDDIMSTYLE0
 70
     0
 41
6.604
 44
0.0
 45
0.000000001
 73
     0
 74
     0
 77
     1
 78
     4
 79
     1
140
7.0
147
1.75
172
     1
173
     1
178
     0
271
     2
272
     2
276
     2
284
    12
289
     0
340
91
  0
DIMSTYLE
105
D5
102
{ACAD_REACTORS
330
D4
102
}
330
A
100
AcDbSymbolTableRecord
100
AcDbDimStyleTableRecord
  2
SLDDIMSTYLE1
 70
     0
 41
6.604
 44
0.0
 45
0.000000001
 78
     4
 79
     1
140
7.0
141
0.0
147
1.75
173
     1
178
     0
271
     2
272
     2
276
     2
279
     1
284
    12
340
91
  0
DIMSTYLE
105
110
102
{ACAD_REACTORS
330
10F
102
}
330
A
100
AcDbSymbolTableRecord
100
AcDbDimStyleTableRecord
  2
SLDDIMSTYLE2
 70
     0
 41
6.604
 44
0.0
 45
0.000000001
 73
     0
 74
     0
 77
     1
 78
    12
 79
     3
140
7.0
147
1.75
172
     1
173
     1
178
     0
271
     2
272
     2
276
     2
284
    12
289
     0
340
91
  0
DIMSTYLE
105
11D
102
{ACAD_REACTORS
330
11C
102
}
330
A
100
AcDbSymbolTableRecord
100
AcDbDimStyleTableRecord
  2
SLDDIMSTYLE3
 70
     0
 41
6.604
 44
0.0
 45
0.000000001
 78
     4
 79
     1
140
7.0
141
0.0
147
1.75
172
     1
173
     1
178
     0
271
     2
272
     2
276
     2
284
    12
340
91
341
11E
343
11E
  0
ENDTAB
  0
TABLE
  2
BLOCK_RECORD
  5
1
330
0
100
AcDbSymbolTable
 70
     8
  0
BLOCK_RECORD
  5
1F
330
1
100
AcDbSymbolTableRecord
100
AcDbBlockTableRecord
  2
*Model_Space
340
22
  0
BLOCK_RECORD
  5
1B
330
1
100
AcDbSymbolTableRecord
100
AcDbBlockTableRecord
  2
*Paper_Space
340
1E
  0
BLOCK_RECORD
  5
23
330
1
100
AcDbSymbolTableRecord
100
AcDbBlockTableRecord
  2
*Paper_Space0
340
26
  0
BLOCK_RECORD
  5
93
330
1
100
AcDbSymbolTableRecord
100
AcDbBlockTableRecord
  2
_D
340
0
  0
BLOCK_RECORD
  5
D6
330
1
100
AcDbSymbolTableRecord
100
AcDbBlockTableRecord
  2
_D_1
340
0
  0
BLOCK_RECORD
  5
DF
330
1
100
AcDbSymbolTableRecord
100
AcDbBlockTableRecord
  2
_D_2
340
0
  0
BLOCK_RECORD
  5
EB
330
1
100
AcDbSymbolTableRecord
100
AcDbBlockTableRecord
  2
_D_3
340
0
  0
BLOCK_RECORD
  5
111
330
1
100
AcDbSymbolTableRecord
100
AcDbBlockTableRecord
  2
_D_4
340
0
  0
BLOCK_RECORD
  5
11E
330
1
100
AcDbSymbolTableRecord
100
AcDbBlockTableRecord
  2
_NONE
340
0
  0
BLOCK_RECORD
  5
121
330
1
100
AcDbSymbolTableRecord
100
AcDbBlockTableRecord
  2
_D_5
340
0
  0
ENDTAB
  0
ENDSEC
  0
SECTION
  2
BLOCKS
  0
BLOCK
  5
20
330
1F
100
AcDbEntity
  8
0
100
AcDbBlockBegin
  2
*Model_Space
 70
     0
 10
0.0
 20
0.0
 30
0.0
  3
*Model_Space
  1

  0
ENDBLK
  5
21
330
1F
100
AcDbEntity
  8
0
100
AcDbBlockEnd
  0
BLOCK
  5
1C
330
1B
100
AcDbEntity
 67
     1
  8
0
100
AcDbBlockBegin
  2
*Paper_Space
 70
     0
 10
0.0
 20
0.0
 30
0.0
  3
*Paper_Space
  1

  0
ENDBLK
  5
1D
330
1B
100
AcDbEntity
 67
     1
  8
0
100
AcDbBlockEnd
  0
BLOCK
  5
24
330
23
100
AcDbEntity
  8
0
100
AcDbBlockBegin
  2
*Paper_Space0
 70
     0
 10
0.0
 20
0.0
 30
0.0
  3
*Paper_Space0
  1

  0
ENDBLK
  5
25
330
23
100
AcDbEntity
  8
0
100
AcDbBlockEnd
  0
BLOCK
  5
94
330
93
100
AcDbEntity
  8
0
100
AcDbBlockBegin
  2
_D
 70
     0
 10
0.0
 20
0.0
 30
0.0
  3
_D
  1

  0
SOLID
  5
96
330
93
100
AcDbEntity
  8
0
  6
Continuous
 62
     7
370
    18
100
AcDbTrace
 10
98.2709635492
 20
122.7019677041
 30
0.0
 11
97.2549635492
 21
116.0979677041
 31
0.0
 12
99.2869635492
 22
116.0979677041
 32
0.0
 13
99.2869635492
 23
116.0979677041
 33
0.0
  0
SOLID
  5
97
330
93
100
AcDbEntity
  8
0
  6
Continuous
 62
     7
370
    18
100
AcDbTrace
 10
98.2709635492
 20
148.2019677041
 30
0.0
 11
99.2869635492
 21
154.8059677041
 31
0.0
 12
97.2549635492
 22
154.8059677041
 32
0.0
 13
97.2549635492
 23
154.8059677041
 33
0.0
  0
LINE
  5
98
330
93
100
AcDbEntity
  8
0
  6
Continuous
 62
     7
370
    18
100
AcDbLine
 10
126.65
 20
122.7019677041
 30
0.0
 11
96.2709635492
 21
122.7019677041
 31
0.0
  0
LINE
  5
99
330
93
100
AcDbEntity
  8
0
  6
Continuous
 62
     7
370
    18
100
AcDbLine
 10
122.45
 20
148.2019677041
 30
0.0
 11
96.2709635492
 21
148.2019677041
 31
0.0
  0
LINE
  5
9A
330
93
100
AcDbEntity
  8
0
  6
Continuous
 62
     7
370
    18
100
AcDbLine
 10
98.2709635492
 20
122.7019677041
 30
0.0
 11
98.2709635492
 21
110.0019677041
 31
0.0
  0
LINE
  5
9B
330
93
100
AcDbEntity
  8
0
  6
Continuous
 62
     7
370
    18
100
AcDbLine
 10
98.2709635492
 20
122.7019677041
 30
0.0
 11
98.2709635492
 21
148.2019677041
 31
0.0
  0
LINE
  5
9C
330
93
100
AcDbEntity
  8
0
  6
Continuous
 62
     7
370
    18
100
AcDbLine
 10
98.2709635492
 20
148.2019677041
 30
0.0
 11
98.2709635492
 21
160.9019677041
 31
0.0
  0
MTEXT
  5
9D
330
93
100
AcDbEntity
  8
0
  6
Continuous
 62
     7
370
    18
100
AcDbMText
 10
89.2474897201
 20
125.0999396844
 30
0.0
 40
7.0
 41
0.0
 71
     1
 72
     1
  1
25.50
  7
SLDTEXTSTYLE0
 11
6.123233995736766E-17
 21
1.0
 31
0.0
 73
     1
 44
1.0
  0
ENDBLK
  5
95
330
93
100
AcDbEntity
  8
0
100
AcDbBlockEnd
  0
BLOCK
  5
D7
330
D6
100
AcDbEntity
  8
0
100
AcDbBlockBegin
  2
_D_1
 70
     0
 10
0.0
 20
0.0
 30
0.0
  3
_D_1
  1

  0
SOLID
  5
D9
330
D6
100
AcDbEntity
  8
0
  6
Continuous
 62
     7
370
    18
100
AcDbTrace
 10
140.123075398
 20
189.0890053021
 30
0.0
 11
144.0476471077
 21
183.6813432476
 31
0.0
 12
145.4915884554
 22
185.1110485964
 32
0.0
 13
145.4915884554
 23
185.1110485964
 33
0.0
  0
LINE
  5
DA
330
D6
100
AcDbEntity
  8
0
  6
Continuous
 62
     7
370
    18
100
AcDbLine
 10
140.123075398
 20
189.0890053021
 30
0.0
 11
110.0887607497
 21
219.4223805028
 31
0.0
  0
LINE
  5
DB
330
D6
100
AcDbEntity
  8
0
  6
Continuous
 62
     7
370
    18
100
AcDbLine
 10
140.123075398
 20
189.0890053021
 30
0.0
 11
149.0587338279
 21
180.0643718788
 31
0.0
  0
LINE
  5
DC
330
D6
100
AcDbEntity
  8
0
  6
Continuous
 62
     7
370
    18
100
AcDbLine
 10
110.0887607497
 20
219.4223805028
 30
0.0
 11
83.1429254991
 21
219.4223805028
 31
0.0
  0
MTEXT
  5
DD
330
D6
100
AcDbEntity
  8
0
  6
Continuous
 62
     7
370
    18
100
AcDbMText
 10
83.1429254991
 20
228.445854332
 30
0.0
 40
7.0
 41
0.0
 71
     1
 72
     1
  1
R9.20
  7
SLDTEXTSTYLE0
 73
     1
 44
1.0
  0
ENDBLK
  5
D8
330
D6
100
AcDbEntity
  8
0
100
AcDbBlockEnd
  0
BLOCK
  5
E0
330
DF
100
AcDbEntity
  8
0
100
AcDbBlockBegin
  2
_D_2
 70
     0
 10
0.0
 20
0.0
 30
0.0
  3
_D_2
  1

  0
SOLID
  5
E2
330
DF
100
AcDbEntity
  8
0
  6
Continuous
 62
     7
370
    18
100
AcDbTrace
 10
103.7479912498
 20
177.626535026
 30
0.0
 11
102.7319912498
 21
171.022535026
 31
0.0
 12
104.7639912498
 22
171.022535026
 32
0.0
 13
104.7639912498
 23
171.022535026
 33
0.0
  0
SOLID
  5
E3
330
DF
100
AcDbEntity
  8
0
  6
Continuous
 62
     7
370
    18
100
AcDbTrace
 10
103.7479912498
 20
195.626535026
 30
0.0
 11
104.7639912498
 21
202.230535026
 31
0.0
 12
102.7319912498
 22
202.230535026
 32
0.0
 13
102.7319912498
 23
202.230535026
 33
0.0
  0
LINE
  5
E4
330
DF
100
AcDbEntity
  8
0
  6
Continuous
 62
     7
370
    18
100
AcDbLine
 10
122.45
 20
177.626535026
 30
0.0
 11
101.7479912498
 21
177.626535026
 31
0.0
  0
LINE
  5
E5
330
DF
100
AcDbEntity
  8
0
  6
Continuous
 62
     7
370
    18
100
AcDbLine
 10
122.45
 20
195.626535026
 30
0.0
 11
101.7479912498
 21
195.626535026
 31
0.0
  0
LINE
  5
E6
330
DF
100
AcDbEntity
  8
0
  6
Continuous
 62
     7
370
    18
100
AcDbLine
 10
103.7479912498
 20
177.626535026
 30
0.0
 11
103.7479912498
 21
164.926535026
 31
0.0
  0
LINE
  5
E7
330
DF
100
AcDbEntity
  8
0
  6
Continuous
 62
     7
370
    18
100
AcDbLine
 10
103.7479912498
 20
177.626535026
 30
0.0
 11
103.7479912498
 21
195.626535026
 31
0.0
  0
LINE
  5
E8
330
DF
100
AcDbEntity
  8
0
  6
Continuous
 62
     7
370
    18
100
AcDbLine
 10
103.7479912498
 20
195.626535026
 30
0.0
 11
103.7479912498
 21
208.326535026
 31
0.0
  0
MTEXT
  5
E9
330
DF
100
AcDbEntity
  8
0
  6
Continuous
 62
     7
370
    18
100
AcDbMText
 10
94.7245174206
 20
176.7109737647
 30
0.0
 40
7.0
 41
0.0
 71
     1
 72
     1
  1
18.00
  7
SLDTEXTSTYLE0
 11
5.053215498074303E-16
 21
1.0
 31
0.0
 73
     1
 44
1.0
  0
ENDBLK
  5
E1
330
DF
100
AcDbEntity
  8
0
100
AcDbBlockEnd
  0
BLOCK
  5
EC
330
EB
100
AcDbEntity
  8
0
100
AcDbBlockBegin
  2
_D_3
 70
     0
 10
0.0
 20
0.0
 30
0.0
  3
_D_3
  1

  0
SOLID
  5
EE
330
EB
100
AcDbEntity
  8
0
  6
Continuous
 62
     7
370
    18
100
AcDbTrace
 10
124.45
 20
234.0234862193
 30
0.0
 11
117.846
 21
235.0394862193
 31
0.0
 12
117.846
 22
233.0074862193
 32
0.0
 13
117.846
 23
233.0074862193
 33
0.0
  0
SOLID
  5
EF
330
EB
100
AcDbEntity
  8
0
  6
Continuous
 62
     7
370
    18
100
AcDbTrace
 10
142.85
 20
234.0234862193
 30
0.0
 11
149.454
 21
233.0074862193
 31
0.0
 12
149.454
 22
235.0394862193
 32
0.0
 13
149.454
 23
235.0394862193
 33
0.0
  0
LINE
  5
F0
330
EB
100
AcDbEntity
  8
0
  6
Continuous
 62
     7
370
    18
100
AcDbLine
 10
124.45
 20
197.626535026
 30
0.0
 11
124.45
 21
236.0234862193
 31
0.0
  0
LINE
  5
F1
330
EB
100
AcDbEntity
  8
0
  6
Continuous
 62
     7
370
    18
100
AcDbLine
 10
142.85
 20
197.626535026
 30
0.0
 11
142.85
 21
236.0234862193
 31
0.0
  0
LINE
  5
F2
330
EB
100
AcDbEntity
  8
0
  6
Continuous
 62
     7
370
    18
100
AcDbLine
 10
124.45
 20
234.0234862193
 30
0.0
 11
111.75
 21
234.0234862193
 31
0.0
  0
LINE
  5
F3
330
EB
100
AcDbEntity
  8
0
  6
Continuous
 62
     7
370
    18
100
AcDbLine
 10
124.45
 20
234.0234862193
 30
0.0
 11
142.85
 21
234.0234862193
 31
0.0
  0
LINE
  5
F4
330
EB
100
AcDbEntity
  8
0
  6
Continuous
 62
     7
370
    18
100
AcDbLine
 10
142.85
 20
234.0234862193
 30
0.0
 11
155.55
 21
234.0234862193
 31
0.0
  0
MTEXT
  5
F5
330
EB
100
AcDbEntity
  8
0
  6
Continuous
 62
     7
370
    18
100
AcDbMText
 10
124.8976597845
 20
243.0469600485
 30
0.0
 40
7.0
 41
0.0
 71
     1
 72
     1
  1
18.40
  7
SLDTEXTSTYLE0
 73
     1
 44
1.0
  0
ENDBLK
  5
ED
330
EB
100
AcDbEntity
  8
0
100
AcDbBlockEnd
  0
BLOCK
  5
112
330
111
100
AcDbEntity
  8
0
100
AcDbBlockBegin
  2
_D_4
 70
     0
 10
0.0
 20
0.0
 30
0.0
  3
_D_4
  1

  0
SOLID
  5
114
330
111
100
AcDbEntity
  8
0
  6
Continuous
 62
     7
370
    18
100
AcDbTrace
 10
164.9614080177
 20
104.6275819161
 30
0.0
 11
171.5654080177
 21
103.6115819161
 31
0.0
 12
171.5654080177
 22
105.6435819161
 32
0.0
 13
171.5654080177
 23
105.6435819161
 33
0.0
  0
SOLID
  5
115
330
111
100
AcDbEntity
  8
0
  6
Continuous
 62
     7
370
    18
100
AcDbTrace
 10
158.6226425374
 20
104.6275819161
 30
0.0
 11
152.0186425374
 21
105.6435819161
 31
0.0
 12
152.0186425374
 22
103.6115819161
 32
0.0
 13
152.0186425374
 23
103.6115819161
 33
0.0
  0
LINE
  5
116
330
111
100
AcDbEntity
  8
0
  6
Continuous
 62
     7
370
    18
100
AcDbLine
 10
164.9614080177
 20
143.9276863564
 30
0.0
 11
164.9614080177
 21
102.6275819161
 31
0.0
  0
LINE
  5
117
330
111
100
AcDbEntity
  8
0
  6
Continuous
 62
     7
370
    18
100
AcDbLine
 10
158.6226425374
 20
146.2019677041
 30
0.0
 11
158.6226425374
 21
102.6275819161
 31
0.0
  0
LINE
  5
118
330
111
100
AcDbEntity
  8
0
  6
Continuous
 62
     7
370
    18
100
AcDbLine
 10
164.9614080177
 20
104.6275819161
 30
0.0
 11
177.6614080177
 21
104.6275819161
 31
0.0
  0
LINE
  5
119
330
111
100
AcDbEntity
  8
0
  6
Continuous
 62
     7
370
    18
100
AcDbLine
 10
164.9614080177
 20
104.6275819161
 30
0.0
 11
158.6226425374
 21
104.6275819161
 31
0.0
  0
LINE
  5
11A
330
111
100
AcDbEntity
  8
0
  6
Continuous
 62
     7
370
    18
100
AcDbLine
 10
158.6226425374
 20
104.6275819161
 30
0.0
 11
145.9226425374
 21
104.6275819161
 31
0.0
  0
MTEXT
  5
11B
330
111
100
AcDbEntity
  8
0
  6
Continuous
 62
     7
370
    18
100
AcDbMText
 10
154.9525172472
 20
113.6510557452
 30
0.0
 40
7.0
 41
0.0
 71
     1
 72
     1
  1
6.34
  7
SLDTEXTSTYLE0
 73
     1
 44
1.0
  0
ENDBLK
  5
113
330
111
100
AcDbEntity
  8
0
100
AcDbBlockEnd
  0
BLOCK
  5
11F
330
11E
100
AcDbEntity
  8
0
100
AcDbBlockBegin
  2
_NONE
 70
     0
 10
0.0
 20
0.0
 30
0.0
  3
_NONE
  1

  0
ENDBLK
  5
120
330
11E
100
AcDbEntity
  8
0
100
AcDbBlockEnd
  0
BLOCK
  5
122
330
121
100
AcDbEntity
  8
0
100
AcDbBlockBegin
  2
_D_5
 70
     0
 10
0.0
 20
0.0
 30
0.0
  3
_D_5
  1

  0
SOLID
  5
124
330
121
100
AcDbEntity
  8
0
  6
Continuous
 62
     7
370
    18
100
AcDbTrace
 10
183.2436991253
 20
128.6021109649
 30
0.0
 11
187.6681804292
 21
123.5952120053
 31
0.0
 12
188.9685439868
 22
125.1566468
 32
0.0
 13
188.9685439868
 23
125.1566468
 33
0.0
  0
LINE
  5
125
330
121
100
AcDbEntity
  8
0
  6
Continuous
 62
     7
370
    18
100
AcDbLine
 10
183.2436991253
 20
128.6021109649
 30
0.0
 11
196.7898497076
 21
117.3208710289
 31
0.0
  0
LINE
  5
126
330
121
100
AcDbEntity
  8
0
  6
Continuous
 62
     7
370
    18
100
AcDbLine
 10
179.4015859494
 20
131.8018244433
 30
0.0
 11
183.2436991253
 21
128.6021109649
 31
0.0
  0
LINE
  5
127
330
121
100
AcDbEntity
  8
0
  6
Continuous
 62
     7
370
    18
100
AcDbLine
 10
196.7898497076
 20
117.3208710289
 30
0.0
 11
228.6245044888
 21
117.3208710289
 31
0.0
  0
MTEXT
  5
128
330
121
100
AcDbEntity
  8
0
  6
Continuous
 62
     7
370
    18
100
AcDbMText
 10
199.9648497076
 20
126.3443452073
 30
0.0
 40
7.0
 41
0.0
 71
     1
 72
     1
  1
%%c
  7
SLDTEXTSTYLE0
 73
     1
 44
1.0
  0
MTEXT
  5
129
330
121
100
AcDbEntity
  8
0
  6
Continuous
 62
     7
370
    18
100
AcDbMText
 10
210.5217245043
 20
126.4512895606
 30
0.0
 40
7.0
 41
0.0
 71
     1
 72
     1
  1
5.00
  7
SLDTEXTSTYLE0
 73
     1
 44
1.0
  0
ENDBLK
  5
123
330
121
100
AcDbEntity
  8
0
100
AcDbBlockEnd
  0
ENDSEC
  0
SECTION
  2
ENTITIES
  0
LINE
  5
73
330
1F
100
AcDbEntity
  8
0
  6
Continuous
 62
     7
370
    25
100
AcDbLine
 10
128.6500001118
 20
122.7019663331
 30
0.0
 11
131.1500000559
 21
122.7019663331
 31
0.0
  0
LINE
  5
74
330
1F
100
AcDbEntity
  8
0
  6
Continuous
 62
     7
370
    25
100
AcDbLine
 10
136.1499999441
 20
122.7019663331
 30
0.0
 11
138.6499998882
 21
122.7019663331
 31
0.0
  0
LINE
  5
75
330
1F
100
AcDbEntity
  8
0
  6
Continuous
 62
     7
370
    25
100
AcDbLine
 10
124.4499997959
 20
148.2019658563
 30
0.0
 11
142.8500002041
 21
148.2019658563
 31
0.0
  0
LINE
  5
76
330
1F
100
AcDbEntity
  8
0
  6
Continuous
 62
     7
370
    25
100
AcDbLine
 10
142.7700172901
 20
146.6758001027
 30
0.0
 11
142.8500002041
 21
148.2019658563
 31
0.0
  0
LINE
  5
77
330
1F
100
AcDbEntity
  8
0
  6
Continuous
 62
     7
370
    25
100
AcDbLine
 10
124.5299827099
 20
146.6758001027
 30
0.0
 11
142.7700172901
 21
146.6758001027
 31
0.0
  0
LINE
  5
78
330
1F
100
AcDbEntity
  8
0
  6
Continuous
 62
     7
370
    25
100
AcDbLine
 10
124.5299827099
 20
146.6758001027
 30
0.0
 11
124.4499997959
 21
148.2019658563
 31
0.0
  0
LINE
  5
79
330
1F
100
AcDbEntity
  8
0
  6
Continuous
 62
     7
370
    25
100
AcDbLine
 10
142.7700172901
 20
146.6758001027
 30
0.0
 11
142.2707017303
 21
146.2019692538
 31
0.0
  0
LINE
  5
7A
330
1F
100
AcDbEntity
  8
0
  6
Continuous
 62
     7
370
    25
100
AcDbLine
 10
142.2707017303
 20
146.2019692538
 30
0.0
 11
125.0292982697
 21
146.2019692538
 31
0.0
  0
LINE
  5
7B
330
1F
100
AcDbEntity
  8
0
  6
Continuous
 62
     7
370
    25
100
AcDbLine
 10
124.5299827099
 20
146.6758001027
 30
0.0
 11
125.0292982697
 21
146.2019692538
 31
0.0
  0
LINE
  5
7C
330
1F
100
AcDbEntity
  8
0
  6
Continuous
 62
     7
370
    25
100
AcDbLine
 10
131.3757186547
 20
145.927687305
 30
0.0
 11
128.4242815129
 21
145.927687305
 31
0.0
  0
LINE
  5
7D
330
1F
100
AcDbEntity
  8
0
  6
Continuous
 62
     7
370
    25
100
AcDbLine
 10
128.4242815129
 20
145.927687305
 30
0.0
 11
128.1500000298
 21
146.2019692538
 31
0.0
  0
LINE
  5
7E
330
1F
100
AcDbEntity
  8
0
  6
Continuous
 62
     7
370
    25
100
AcDbLine
 10
131.649999905
 20
146.2019692538
 30
0.0
 11
131.3757186547
 21
145.927687305
 31
0.0
  0
LINE
  5
7F
330
1F
100
AcDbEntity
  8
0
  6
Continuous
 62
     7
370
    25
100
AcDbLine
 10
138.8757184871
 20
145.927687305
 30
0.0
 11
135.9242813453
 21
145.927687305
 31
0.0
  0
LINE
  5
80
330
1F
100
AcDbEntity
  8
0
  6
Continuous
 62
     7
370
    25
100
AcDbLine
 10
139.1499999702
 20
146.2019692538
 30
0.0
 11
138.8757184871
 21
145.927687305
 31
0.0
  0
LINE
  5
81
330
1F
100
AcDbEntity
  8
0
  6
Continuous
 62
     7
370
    25
100
AcDbLine
 10
135.650000095
 20
146.2019692538
 30
0.0
 11
135.9242813453
 21
145.927687305
 31
0.0
  0
LINE
  5
82
330
1F
100
AcDbEntity
  8
0
  6
Continuous
 62
     7
370
    25
100
AcDbLine
 10
131.1500000559
 20
145.7019682405
 30
0.0
 11
131.1500000559
 21
126.8161881146
 31
0.0
  0
LINE
  5
83
330
1F
100
AcDbEntity
  8
0
  6
Continuous
 62
     7
370
    25
100
AcDbLine
 10
128.6500001118
 20
126.8161881146
 30
0.0
 11
131.1500000559
 21
126.8161881146
 31
0.0
  0
LINE
  5
84
330
1F
100
AcDbEntity
  8
0
  6
Continuous
 62
     7
370
    25
100
AcDbLine
 10
128.6500001118
 20
145.7019682405
 30
0.0
 11
128.6500001118
 21
126.8161881146
 31
0.0
  0
LINE
  5
85
330
1F
100
AcDbEntity
  8
0
  6
Continuous
 62
     7
370
    25
100
AcDbLine
 10
128.4242815129
 20
145.927687305
 30
0.0
 11
128.6500001118
 21
145.7019682405
 31
0.0
  0
LINE
  5
86
330
1F
100
AcDbEntity
  8
0
  6
Continuous
 62
     7
370
    25
100
AcDbLine
 10
131.1500000559
 20
145.7019682405
 30
0.0
 11
131.3757186547
 21
145.927687305
 31
0.0
  0
LINE
  5
87
330
1F
100
AcDbEntity
  8
0
  6
Continuous
 62
     7
370
    25
100
AcDbLine
 10
138.6499998882
 20
145.7019682405
 30
0.0
 11
138.6499998882
 21
126.8161881146
 31
0.0
  0
LINE
  5
88
330
1F
100
AcDbEntity
  8
0
  6
Continuous
 62
     7
370
    25
100
AcDbLine
 10
138.6499998882
 20
126.8161881146
 30
0.0
 11
136.1499999441
 21
126.8161881146
 31
0.0
  0
LINE
  5
89
330
1F
100
AcDbEntity
  8
0
  6
Continuous
 62
     7
370
    25
100
AcDbLine
 10
136.1499999441
 20
145.7019682405
 30
0.0
 11
136.1499999441
 21
126.8161881146
 31
0.0
  0
LINE
  5
8A
330
1F
100
AcDbEntity
  8
0
  6
Continuous
 62
     7
370
    25
100
AcDbLine
 10
138.6499998882
 20
145.7019682405
 30
0.0
 11
138.8757184871
 21
145.927687305
 31
0.0
  0
LINE
  5
8B
330
1F
100
AcDbEntity
  8
0
  6
Continuous
 62
     7
370
    25
100
AcDbLine
 10
135.9242813453
 20
145.927687305
 30
0.0
 11
136.1499999441
 21
145.7019682405
 31
0.0
  0
LINE
  5
8C
330
1F
100
AcDbEntity
  8
0
  6
Continuous
 62
     7
370
    25
100
AcDbLine
 10
128.6500001118
 20
126.8161881146
 30
0.0
 11
128.6500001118
 21
122.7019663331
 31
0.0
  0
LINE
  5
8D
330
1F
100
AcDbEntity
  8
0
  6
Continuous
 62
     7
370
    25
100
AcDbLine
 10
131.1500000559
 20
126.8161881146
 30
0.0
 11
131.1500000559
 21
122.7019663331
 31
0.0
  0
LINE
  5
8E
330
1F
100
AcDbEntity
  8
0
  6
Continuous
 62
     7
370
    25
100
AcDbLine
 10
138.6499998882
 20
126.8161881146
 30
0.0
 11
138.6499998882
 21
122.7019663331
 31
0.0
  0
LINE
  5
8F
330
1F
100
AcDbEntity
  8
0
  6
Continuous
 62
     7
370
    25
100
AcDbLine
 10
136.1499999441
 20
126.8161881146
 30
0.0
 11
136.1499999441
 21
122.7019663331
 31
0.0
  0
DIMENSION
  5
90
330
1F
100
AcDbEntity
  8
0
  6
Continuous
 62
     7
370
    18
100
AcDbDimension
  2
_D
 10
98.2709635492
 20
148.2019677041
 30
0.0
 11
98.2709635492
 21
136.7374401717
 31
0.0
 70
   160
  1
<>
 71
     2
 42
-1.0
  3
SLDDIMSTYLE0
100
AcDbAlignedDimension
 13
128.65
 23
122.7019677041
 33
0.0
 14
124.45
 24
148.2019677041
 34
0.0
 50
90.0
100
AcDbRotatedDimension
  0
LINE
  5
9E
330
1F
100
AcDbEntity
  8
0
  6
Continuous
 62
     7
370
    25
100
AcDbLine
 10
124.4499997959
 20
195.6265361917
 30
0.0
 11
124.4499997959
 21
177.6265332413
 31
0.0
  0
LINE
  5
9F
330
1F
100
AcDbEntity
  8
0
  6
Continuous
 62
     7
370
    25
100
AcDbLine
 10
142.8500002041
 20
195.6265361917
 30
0.0
 11
142.8500002041
 21
177.6265332413
 31
0.0
  0
ARC
  5
A0
330
1F
100
AcDbEntity
  8
0
  6
Continuous
 62
     7
370
    25
100
AcDbCircle
 10
133.65
 20
177.626535026
 30
0.0
 40
9.200000000000017
100
AcDbArc
 50
180.0
 51
0.0
  0
ARC
  5
A1
330
1F
100
AcDbEntity
  8
0
  6
Continuous
 62
     7
370
    25
100
AcDbCircle
 10
133.65
 20
195.626535026
 30
0.0
 40
9.199999999999989
100
AcDbArc
 50
0.0
 51
180.0
  0
LINE
  5
A2
330
1F
100
AcDbEntity
  8
0
  6
HIDDEN
 62
     7
370
    18
100
AcDbLine
 10
142.7700172901
 20
195.6265361917
 30
0.0
 11
142.8500002041
 21
195.6265361917
 31
0.0
  0
LINE
  5
A3
330
1F
100
AcDbEntity
  8
0
  6
HIDDEN
 62
     7
370
    18
100
AcDbLine
 10
124.5299827099
 20
195.6265361917
 30
0.0
 11
124.4499997959
 21
195.6265361917
 31
0.0
  0
LINE
  5
A4
330
1F
100
AcDbEntity
  8
0
  6
HIDDEN
 62
     7
370
    18
100
AcDbLine
 10
124.5299827099
 20
177.6265332413
 30
0.0
 11
124.4499997959
 21
177.6265332413
 31
0.0
  0
LINE
  5
A5
330
1F
100
AcDbEntity
  8
0
  6
HIDDEN
 62
     7
370
    18
100
AcDbLine
 10
142.7700172901
 20
177.6265332413
 30
0.0
 11
142.8500002041
 21
177.6265332413
 31
0.0
  0
ARC
  5
A6
330
1F
100
AcDbEntity
  8
0
  6
HIDDEN
 62
     7
370
    18
100
AcDbCircle
 10
133.65
 20
195.626535026
 30
0.0
 40
9.120016925453797
100
AcDbArc
 50
0.0
 51
180.0
  0
LINE
  5
A7
330
1F
100
AcDbEntity
  8
0
  6
HIDDEN
 62
     7
370
    18
100
AcDbLine
 10
125.0292982697
 20
195.6265361917
 30
0.0
 11
124.5299827099
 21
195.6265361917
 31
0.0
  0
LINE
  5
A8
330
1F
100
AcDbEntity
  8
0
  6
HIDDEN
 62
     7
370
    18
100
AcDbLine
 10
124.5299827099
 20
195.6265361917
 30
0.0
 11
124.5299827099
 21
177.6265332413
 31
0.0
  0
LINE
  5
A9
330
1F
100
AcDbEntity
  8
0
  6
HIDDEN
 62
     7
370
    18
100
AcDbLine
 10
142.2707017303
 20
195.6265361917
 30
0.0
 11
142.7700172901
 21
195.6265361917
 31
0.0
  0
LINE
  5
AA
330
1F
100
AcDbEntity
  8
0
  6
HIDDEN
 62
     7
370
    18
100
AcDbLine
 10
142.7700172901
 20
177.6265332413
 30
0.0
 11
142.7700172901
 21
195.6265361917
 31
0.0
  0
LINE
  5
AB
330
1F
100
AcDbEntity
  8
0
  6
HIDDEN
 62
     7
370
    18
100
AcDbLine
 10
142.7700172901
 20
177.6265332413
 30
0.0
 11
142.2707017303
 21
177.6265332413
 31
0.0
  0
LINE
  5
AC
330
1F
100
AcDbEntity
  8
0
  6
HIDDEN
 62
     7
370
    18
100
AcDbLine
 10
124.5299827099
 20
177.6265332413
 30
0.0
 11
125.0292982697
 21
177.6265332413
 31
0.0
  0
ARC
  5
AD
330
1F
100
AcDbEntity
  8
0
  6
HIDDEN
 62
     7
370
    18
100
AcDbCircle
 10
133.65
 20
177.626535026
 30
0.0
 40
9.120016925453797
100
AcDbArc
 50
180.0
 51
0.0
  0
ARC
  5
AE
330
1F
100
AcDbEntity
  8
0
  6
HIDDEN
 62
     7
370
    18
100
AcDbCircle
 10
133.65
 20
177.626535026
 30
0.0
 40
8.620702158076497
100
AcDbArc
 50
180.0
 51
0.0
  0
LINE
  5
AF
330
1F
100
AcDbEntity
  8
0
  6
HIDDEN
 62
     7
370
    18
100
AcDbLine
 10
142.2707017303
 20
195.6265361917
 30
0.0
 11
142.2707017303
 21
177.6265332413
 31
0.0
  0
LINE
  5
B0
330
1F
100
AcDbEntity
  8
0
  6
HIDDEN
 62
     7
370
    18
100
AcDbLine
 10
125.0292982697
 20
177.6265332413
 30
0.0
 11
125.0292982697
 21
195.6265361917
 31
0.0
  0
ARC
  5
B1
330
1F
100
AcDbEntity
  8
0
  6
HIDDEN
 62
     7
370
    18
100
AcDbCircle
 10
133.65
 20
195.626535026
 30
0.0
 40
8.620702158076483
100
AcDbArc
 50
0.0
 51
180.0
  0
LINE
  5
B2
330
1F
100
AcDbEntity
  8
0
  6
HIDDEN
 62
     7
370
    18
100
AcDbLine
 10
139.1499999702
 20
174.3191497338
 30
0.0
 11
139.1499999702
 21
199.1265358341
 31
0.0
  0
LINE
  5
B3
330
1F
100
AcDbEntity
  8
0
  6
HIDDEN
 62
     7
370
    18
100
AcDbLine
 10
135.650000095
 20
199.1265358341
 30
0.0
 11
135.650000095
 21
174.3191497338
 31
0.0
  0
LINE
  5
B4
330
1F
100
AcDbEntity
  8
0
  6
HIDDEN
 62
     7
370
    18
100
AcDbLine
 10
128.1500000298
 20
199.1265358341
 30
0.0
 11
128.1500000298
 21
174.3191497338
 31
0.0
  0
LINE
  5
B5
330
1F
100
AcDbEntity
  8
0
  6
HIDDEN
 62
     7
370
    18
100
AcDbLine
 10
131.649999905
 20
174.3191497338
 30
0.0
 11
131.649999905
 21
199.1265358341
 31
0.0
  0
LINE
  5
B6
330
1F
100
AcDbEntity
  8
0
  6
HIDDEN
 62
     7
370
    18
100
AcDbLine
 10
131.649999905
 20
199.1265358341
 30
0.0
 11
131.1500000559
 21
198.6265348208
 31
0.0
  0
LINE
  5
B7
330
1F
100
AcDbEntity
  8
0
  6
HIDDEN
 62
     7
370
    18
100
AcDbLine
 10
128.6500001118
 20
198.6265348208
 30
0.0
 11
128.1500000298
 21
199.1265358341
 31
0.0
  0
LINE
  5
B8
330
1F
100
AcDbEntity
  8
0
  6
HIDDEN
 62
     7
370
    18
100
AcDbLine
 10
131.649999905
 20
199.1265358341
 30
0.0
 11
128.1500000298
 21
199.1265358341
 31
0.0
  0
LINE
  5
B9
330
1F
100
AcDbEntity
  8
0
  6
HIDDEN
 62
     7
370
    18
100
AcDbLine
 10
136.1499999441
 20
198.6265348208
 30
0.0
 11
135.650000095
 21
199.1265358341
 31
0.0
  0
LINE
  5
BA
330
1F
100
AcDbEntity
  8
0
  6
HIDDEN
 62
     7
370
    18
100
AcDbLine
 10
138.6499998882
 20
198.6265348208
 30
0.0
 11
139.1499999702
 21
199.1265358341
 31
0.0
  0
LINE
  5
BB
330
1F
100
AcDbEntity
  8
0
  6
HIDDEN
 62
     7
370
    18
100
AcDbLine
 10
139.1499999702
 20
199.1265358341
 30
0.0
 11
135.650000095
 21
199.1265358341
 31
0.0
  0
LINE
  5
BC
330
1F
100
AcDbEntity
  8
0
  6
HIDDEN
 62
     7
370
    18
100
AcDbLine
 10
131.649999905
 20
174.3191497338
 30
0.0
 11
131.3757186547
 21
174.7653016758
 31
0.0
  0
LINE
  5
BD
330
1F
100
AcDbEntity
  8
0
  6
HIDDEN
 62
     7
370
    18
100
AcDbLine
 10
128.4242815129
 20
174.7653016758
 30
0.0
 11
128.1500000298
 21
174.3191497338
 31
0.0
  0
LINE
  5
BE
330
1F
100
AcDbEntity
  8
0
  6
HIDDEN
 62
     7
370
    18
100
AcDbLine
 10
128.1500000298
 20
174.3191497338
 30
0.0
 11
131.649999905
 21
174.3191497338
 31
0.0
  0
LINE
  5
BF
330
1F
100
AcDbEntity
  8
0
  6
HIDDEN
 62
     7
370
    18
100
AcDbLine
 10
135.650000095
 20
174.3191497338
 30
0.0
 11
135.9242813453
 21
174.7653016758
 31
0.0
  0
LINE
  5
C0
330
1F
100
AcDbEntity
  8
0
  6
HIDDEN
 62
     7
370
    18
100
AcDbLine
 10
139.1499999702
 20
174.3191497338
 30
0.0
 11
138.8757184871
 21
174.7653016758
 31
0.0
  0
LINE
  5
C1
330
1F
100
AcDbEntity
  8
0
  6
HIDDEN
 62
     7
370
    18
100
AcDbLine
 10
135.650000095
 20
174.3191497338
 30
0.0
 11
139.1499999702
 21
174.3191497338
 31
0.0
  0
LINE
  5
C2
330
1F
100
AcDbEntity
  8
0
  6
HIDDEN
 62
     7
370
    18
100
AcDbLine
 10
131.3757186547
 20
174.7653016758
 30
0.0
 11
128.4242815129
 21
174.7653016758
 31
0.0
  0
LINE
  5
C3
330
1F
100
AcDbEntity
  8
0
  6
HIDDEN
 62
     7
370
    18
100
AcDbLine
 10
131.1500000559
 20
174.8794967246
 30
0.0
 11
131.3757186547
 21
174.7653016758
 31
0.0
  0
LINE
  5
C4
330
1F
100
AcDbEntity
  8
0
  6
HIDDEN
 62
     7
370
    18
100
AcDbLine
 10
128.4242815129
 20
174.7653016758
 30
0.0
 11
128.6500001118
 21
174.8794967246
 31
0.0
  0
LINE
  5
C5
330
1F
100
AcDbEntity
  8
0
  6
HIDDEN
 62
     7
370
    18
100
AcDbLine
 10
138.8757184871
 20
174.7653016758
 30
0.0
 11
135.9242813453
 21
174.7653016758
 31
0.0
  0
LINE
  5
C6
330
1F
100
AcDbEntity
  8
0
  6
HIDDEN
 62
     7
370
    18
100
AcDbLine
 10
135.9242813453
 20
174.7653016758
 30
0.0
 11
136.1499999441
 21
174.8794967246
 31
0.0
  0
LINE
  5
C7
330
1F
100
AcDbEntity
  8
0
  6
HIDDEN
 62
     7
370
    18
100
AcDbLine
 10
138.6499998882
 20
174.8794967246
 30
0.0
 11
138.8757184871
 21
174.7653016758
 31
0.0
  0
LINE
  5
C8
330
1F
100
AcDbEntity
  8
0
  6
HIDDEN
 62
     7
370
    18
100
AcDbLine
 10
128.6500001118
 20
174.8794967246
 30
0.0
 11
128.6500001118
 21
198.6265348208
 31
0.0
  0
LINE
  5
C9
330
1F
100
AcDbEntity
  8
0
  6
HIDDEN
 62
     7
370
    18
100
AcDbLine
 10
136.1499999441
 20
174.8794967246
 30
0.0
 11
136.1499999441
 21
198.6265348208
 31
0.0
  0
LINE
  5
CA
330
1F
100
AcDbEntity
  8
0
  6
HIDDEN
 62
     7
370
    18
100
AcDbLine
 10
136.1499999441
 20
198.6265348208
 30
0.0
 11
138.6499998882
 21
198.6265348208
 31
0.0
  0
LINE
  5
CB
330
1F
100
AcDbEntity
  8
0
  6
HIDDEN
 62
     7
370
    18
100
AcDbLine
 10
128.6500001118
 20
198.6265348208
 30
0.0
 11
131.1500000559
 21
198.6265348208
 31
0.0
  0
LINE
  5
CC
330
1F
100
AcDbEntity
  8
0
  6
HIDDEN
 62
     7
370
    18
100
AcDbLine
 10
138.6499998882
 20
198.6265348208
 30
0.0
 11
138.6499998882
 21
174.8794967246
 31
0.0
  0
LINE
  5
CD
330
1F
100
AcDbEntity
  8
0
  6
HIDDEN
 62
     7
370
    18
100
AcDbLine
 10
131.1500000559
 20
198.6265348208
 30
0.0
 11
131.1500000559
 21
174.8794967246
 31
0.0
  0
LINE
  5
CE
330
1F
100
AcDbEntity
  8
0
  6
HIDDEN
 62
     7
370
    18
100
AcDbLine
 10
128.6500001118
 20
184.4342628431
 30
0.0
 11
131.1500000559
 21
184.4342628431
 31
0.0
  0
LINE
  5
CF
330
1F
100
AcDbEntity
  8
0
  6
HIDDEN
 62
     7
370
    18
100
AcDbLine
 10
138.6499998882
 20
184.4342628431
 30
0.0
 11
136.1499999441
 21
184.4342628431
 31
0.0
  0
LINE
  5
D0
330
1F
100
AcDbEntity
  8
0
  6
HIDDEN
 62
     7
370
    18
100
AcDbLine
 10
131.1500000559
 20
193.6265358639
 30
0.0
 11
128.6500001118
 21
193.6265358639
 31
0.0
  0
LINE
  5
D1
330
1F
100
AcDbEntity
  8
0
  6
HIDDEN
 62
     7
370
    18
100
AcDbLine
 10
128.6500001118
 20
188.6265331817
 30
0.0
 11
131.1500000559
 21
188.6265331817
 31
0.0
  0
LINE
  5
D2
330
1F
100
AcDbEntity
  8
0
  6
HIDDEN
 62
     7
370
    18
100
AcDbLine
 10
136.1499999441
 20
188.6265331817
 30
0.0
 11
138.6499998882
 21
188.6265331817
 31
0.0
  0
LINE
  5
D3
330
1F
100
AcDbEntity
  8
0
  6
HIDDEN
 62
     7
370
    18
100
AcDbLine
 10
138.6499998882
 20
193.6265358639
 30
0.0
 11
136.1499999441
 21
193.6265358639
 31
0.0
  0
DIMENSION
  5
D4
330
1F
100
AcDbEntity
  8
0
  6
Continuous
 62
     7
370
    18
100
AcDbDimension
  2
_D_1
 10
133.65
 20
195.626535026
 30
0.0
 11
95.0283431244
 21
224.9786304939
 31
0.0
 70
   164
  1
<>
 71
     1
 42
-1.0
  3
SLDDIMSTYLE1
100
AcDbRadialDimension
 15
140.123075398
 25
189.0890053021
 35
0.0
 40
0.0
  0
DIMENSION
  5
DE
330
1F
100
AcDbEntity
  8
0
  6
Continuous
 62
     7
370
    18
100
AcDbDimension
  2
_D_2
 10
103.7479912498
 20
195.626535026
 30
0.0
 11
103.7479912498
 21
188.3484742519
 31
0.0
 70
   160
  1
<>
 71
     2
 42
-1.0
  3
SLDDIMSTYLE0
100
AcDbAlignedDimension
 13
124.45
 23
177.626535026
 33
0.0
 14
124.45
 24
195.626535026
 34
0.0
 50
90.0
100
AcDbRotatedDimension
  0
DIMENSION
  5
EA
330
1F
100
AcDbEntity
  8
0
  6
Continuous
 62
     7
370
    18
100
AcDbDimension
  2
_D_3
 10
142.85
 20
234.0234862193
 30
0.0
 11
136.5351602718
 21
234.0234862193
 31
0.0
 70
   160
  1
<>
 71
     2
 42
-1.0
  3
SLDDIMSTYLE0
100
AcDbAlignedDimension
 13
124.45
 23
195.626535026
 33
0.0
 14
142.85
 24
195.626535026
 34
0.0
100
AcDbRotatedDimension
  0
LINE
  5
F6
330
1F
100
AcDbEntity
  8
0
  6
Continuous
 62
     7
370
    25
100
AcDbLine
 10
194.9426572679
 20
146.6758001027
 30
0.0
 11
195.0226392506
 21
148.2019658563
 31
0.0
  0
LINE
  5
F7
330
1F
100
AcDbEntity
  8
0
  6
Continuous
 62
     7
370
    25
100
AcDbLine
 10
158.6226433424
 20
148.2019658563
 30
0.0
 11
158.7026253251
 21
146.6758001027
 31
0.0
  0
LINE
  5
F8
330
1F
100
AcDbEntity
  8
0
  6
Continuous
 62
     7
370
    25
100
AcDbLine
 10
194.443341708
 20
146.2019692538
 30
0.0
 11
194.9426572679
 21
146.6758001027
 31
0.0
  0
LINE
  5
F9
330
1F
100
AcDbEntity
  8
0
  6
Continuous
 62
     7
370
    25
100
AcDbLine
 10
158.7026253251
 20
146.6758001027
 30
0.0
 11
159.2019390224
 21
146.2019692538
 31
0.0
  0
LINE
  5
FA
330
1F
100
AcDbEntity
  8
0
  6
Continuous
 62
     7
370
    25
100
AcDbLine
 10
185.822643703
 20
146.6758001027
 30
0.0
 11
194.9426572679
 21
146.6758001027
 31
0.0
  0
LINE
  5
FB
330
1F
100
AcDbEntity
  8
0
  6
Continuous
 62
     7
370
    25
100
AcDbLine
 10
185.822643703
 20
146.6758001027
 30
0.0
 11
185.822643703
 21
148.2019658563
 31
0.0
  0
LINE
  5
FC
330
1F
100
AcDbEntity
  8
0
  6
Continuous
 62
     7
370
    25
100
AcDbLine
 10
185.822643703
 20
148.2019658563
 30
0.0
 11
195.0226392506
 21
148.2019658563
 31
0.0
  0
LINE
  5
FD
330
1F
100
AcDbEntity
  8
0
  6
Continuous
 62
     7
370
    25
100
AcDbLine
 10
167.8226407526
 20
146.6758001027
 30
0.0
 11
185.822643703
 21
146.6758001027
 31
0.0
  0
LINE
  5
FE
330
1F
100
AcDbEntity
  8
0
  6
Continuous
 62
     7
370
    25
100
AcDbLine
 10
167.8226407526
 20
146.6758001027
 30
0.0
 11
167.8226407526
 21
148.2019658563
 31
0.0
  0
LINE
  5
FF
330
1F
100
AcDbEntity
  8
0
  6
Continuous
 62
     7
370
    25
100
AcDbLine
 10
185.822643703
 20
148.2019658563
 30
0.0
 11
167.8226407526
 21
148.2019658563
 31
0.0
  0
LINE
  5
100
330
1F
100
AcDbEntity
  8
0
  6
Continuous
 62
     7
370
    25
100
AcDbLine
 10
158.7026253251
 20
146.6758001027
 30
0.0
 11
167.8226407526
 21
146.6758001027
 31
0.0
  0
LINE
  5
101
330
1F
100
AcDbEntity
  8
0
  6
Continuous
 62
     7
370
    25
100
AcDbLine
 10
158.6226433424
 20
148.2019658563
 30
0.0
 11
167.8226407526
 21
148.2019658563
 31
0.0
  0
LINE
  5
102
330
1F
100
AcDbEntity
  8
0
  6
Continuous
 62
     7
370
    25
100
AcDbLine
 10
194.443341708
 20
146.2019692538
 30
0.0
 11
185.822643703
 21
146.2019692538
 31
0.0
  0
LINE
  5
103
330
1F
100
AcDbEntity
  8
0
  6
Continuous
 62
     7
370
    25
100
AcDbLine
 10
185.822643703
 20
146.2019692538
 30
0.0
 11
185.822643703
 21
146.6758001027
 31
0.0
  0
LINE
  5
104
330
1F
100
AcDbEntity
  8
0
  6
Continuous
 62
     7
370
    25
100
AcDbLine
 10
185.822643703
 20
146.2019692538
 30
0.0
 11
167.8226407526
 21
146.2019692538
 31
0.0
  0
LINE
  5
105
330
1F
100
AcDbEntity
  8
0
  6
Continuous
 62
     7
370
    25
100
AcDbLine
 10
167.8226407526
 20
146.6758001027
 30
0.0
 11
167.8226407526
 21
146.2019692538
 31
0.0
  0
LINE
  5
106
330
1F
100
AcDbEntity
  8
0
  6
Continuous
 62
     7
370
    25
100
AcDbLine
 10
167.8226407526
 20
146.2019692538
 30
0.0
 11
159.2019390224
 21
146.2019692538
 31
0.0
  0
LINE
  5
107
330
1F
100
AcDbEntity
  8
0
  6
Continuous
 62
     7
370
    25
100
AcDbLine
 10
188.8226423321
 20
145.7019682405
 30
0.0
 11
165.0756042359
 21
145.7019682405
 31
0.0
  0
LINE
  5
108
330
1F
100
AcDbEntity
  8
0
  6
Continuous
 62
     7
370
    25
100
AcDbLine
 10
165.0756042359
 20
145.7019682405
 30
0.0
 11
164.9614091871
 21
145.927687305
 31
0.0
  0
LINE
  5
109
330
1F
100
AcDbEntity
  8
0
  6
Continuous
 62
     7
370
    25
100
AcDbLine
 10
164.5152572451
 20
146.2019692538
 30
0.0
 11
164.9614091871
 21
145.927687305
 31
0.0
  0
LINE
  5
10A
330
1F
100
AcDbEntity
  8
0
  6
Continuous
 62
     7
370
    25
100
AcDbLine
 10
188.8226423321
 20
145.7019682405
 30
0.0
 11
189.3226433454
 21
146.2019692538
 31
0.0
  0
CIRCLE
  5
10B
330
1F
100
AcDbEntity
  8
0
  6
Continuous
 62
     7
370
    25
100
AcDbCircle
 10
181.3226425374
 20
130.2019677041
 30
0.0
 40
2.5
  0
LINE
  5
10C
330
1F
100
AcDbEntity
  8
0
  6
Continuous
 62
     7
370
    25
100
AcDbLine
 10
188.8226423321
 20
130.2019666312
 30
0.0
 11
188.8226423321
 21
145.7019682405
 31
0.0
  0
ARC
  5
10D
330
1F
100
AcDbEntity
  8
0
  6
Continuous
 62
     7
370
    25
100
AcDbCircle
 10
181.3226425374
 20
130.2019677041
 30
0.0
 40
7.500000000000028
100
AcDbArc
 50
206.8359373839
 51
0.0
  0
LINE
  5
10E
330
1F
100
AcDbEntity
  8
0
  6
Continuous
 62
     7
370
    25
100
AcDbLine
 10
165.0756042359
 20
145.7019682405
 30
0.0
 11
174.6303703545
 21
126.8161881146
 31
0.0
  0
DIMENSION
  5
10F
330
1F
100
AcDbEntity
  8
0
  6
Continuous
 62
     7
370
    18
100
AcDbDimension
  2
_D_4
 10
158.6226425374
 20
104.6275819161
 30
0.0
 11
164.0039063081
 21
104.6275819161
 31
0.0
 70
   160
  1
<>
 71
     2
 42
-1.0
  3
SLDDIMSTYLE2
100
AcDbAlignedDimension
 13
164.9614080177
 23
145.9276863564
 33
0.0
 14
158.6226425374
 24
148.2019677041
 34
0.0
100
AcDbRotatedDimension
  0
DIMENSION
  5
11C
330
1F
100
AcDbEntity
  8
0
  6
Continuous
 62
     7
370
    18
100
AcDbDimension
  2
_D_5
 10
179.4015859494
 20
131.8018244433
 30
0.0
 11
214.2946770982
 21
122.9305933712
 31
0.0
 70
   163
  1
<>
 71
     1
 42
-1.0
  3
SLDDIMSTYLE3
100
AcDbDiametricDimension
 15
183.2436991253
 25
128.6021109649
 35
0.0
 40
0.0
  0
LINE
  5
12A
330
1F
100
AcDbEntity
  8
0
  6
Continuous
 62
     7
370
    25
100
AcDbLine
 10
164.4269316459
 20
189.6542830924
 30
0.0
 11
164.5068572172
 21
188.4098160918
 31
0.0
  0
LINE
  5
12B
330
1F
100
AcDbEntity
  8
0
  6
Continuous
 62
     7
370
    25
100
AcDbLine
 10
167.5371156498
 20
184.6824852433
 30
0.0
 11
167.8701844335
 21
184.5103328584
 31
0.0
  0
LINE
  5
12C
330
1F
100
AcDbEntity
  8
0
  6
Continuous
 62
     7
370
    25
100
AcDbLine
 10
179.3710427846
 20
184.5103327515
 30
0.0
 11
179.7041108891
 21
184.682486265
 31
0.0
  0
LINE
  5
12D
330
1F
100
AcDbEntity
  8
0
  6
Continuous
 62
     7
370
    25
100
AcDbLine
 10
195.4622916996
 20
195.7574906827
 30
0.0
 11
195.5422176001
 21
197.0019552122
 31
0.0
  0
LINE
  5
12E
330
1F
100
AcDbEntity
  8
0
  6
Continuous
 62
     7
370
    25
100
AcDbLine
 10
181.1846266151
 20
173.1482131224
 30
0.0
 11
182.9523935286
 21
172.1277030054
 31
0.0
  0
LINE
  5
12F
330
1F
100
AcDbEntity
  8
0
  6
Continuous
 62
     7
370
    25
100
AcDbLine
 10
175.8813258748
 20
176.2097434733
 30
0.0
 11
177.6490927882
 21
175.1892333563
 31
0.0
  0
LWPOLYLINE
  5
130
330
1F
100
AcDbEntity
  8
0
  6
Continuous
 62
     7
370
    25
100
AcDbPolyline
 90
       53
 70
   128
 43
0.0
 10
167.1152291948
 20
193.6065433353
 10
166.7343132219
 20
193.3729416295
 10
166.3785240147
 20
193.126489049
 10
166.0491628572
 20
192.8680858355
 10
165.7474250077
 20
192.5986721485
 10
165.4744174794
 20
192.3192330076
 10
165.231134016
 20
192.0307884079
 10
165.0184623355
 20
191.7343891385
 10
164.8371801789
 20
191.4311190629
 10
164.6879487251
 20
191.1220837146
 10
164.5713092975
 20
190.808409156
 10
164.4876919256
 20
190.4912431193
 10
164.4373988816
 20
190.1717401798
 10
164.4206125821
 20
189.8510663177
 10
164.4373985523
 20
189.5303941664
 10
164.4876906085
 20
189.2108902764
 10
164.5713086389
 20
188.8937230992
 10
164.6879490543
 20
188.5800502514
 10
164.837181496
 20
188.2710143328
 10
165.0184636525
 20
187.9677434969
 10
165.2311354977
 20
187.6713456531
 10
165.4744178086
 20
187.3829001981
 10
165.7474251723
 20
187.1034611522
 10
166.0491609639
 20
186.8340478929
 10
166.3785250026
 20
186.5756437765
 10
166.7343142509
 20
186.3291911722
 10
167.1152311704
 20
186.0955896803
 10
167.5198846681
 20
185.8756910234
 10
167.9467993575
 20
185.6702982622
 10
168.3944169163
 20
185.4801604499
 10
168.8611049363
 20
185.3059720851
 10
169.3451600097
 20
185.1483682888
 10
169.8448163318
 20
185.0079244001
 10
170.3582480879
 20
184.8851515572
 10
170.8835855056
 20
184.7804995958
 10
171.4189094214
 20
184.694349541
 10
171.9622656046
 20
184.6270144624
 10
172.5116747996
 20
184.578742801
 10
173.0651317384
 20
184.5497098149
 10
173.6206123846
 20
184.5400194805
 10
174.1760959941
 20
184.549710005
 10
174.7295512866
 20
184.5787435613
 10
175.278958506
 20
184.6270148426
 10
175.8223176527
 20
184.6943493509
 10
176.3576405807
 20
184.7804988355
 10
176.8829766812
 20
184.8851507968
 10
177.3964109069
 20
185.0079235447
 10
177.8960657472
 20
185.1483680987
 10
178.3801209853
 20
185.3059719901
 10
178.8468097461
 20
185.4801615429
 10
179.2944257409
 20
185.670297692
 10
179.7213403891
 20
185.8756904294
 10
180.1259942573
 20
186.0955885398
  0
LINE
  5
131
330
1F
100
AcDbEntity
  8
0
  6
Continuous
 62
     7
370
    25
100
AcDbLine
 10
180.0694377964
 20
184.8820612662
 30
0.0
 11
180.1259942573
 21
186.0955885398
 31
0.0
  0
LWPOLYLINE
  5
132
330
1F
100
AcDbEntity
  8
0
  6
Continuous
 62
     7
370
    25
100
AcDbPolyline
 90
       40
 70
   128
 43
0.0
 10
164.5068572172
 20
188.4098160918
 10
164.517233903
 20
188.2870041864
 10
164.5670903321
 20
187.9702791465
 10
164.6499823171
 20
187.6558699101
 10
164.7656082447
 20
187.3449238291
 10
164.9135430244
 20
187.0385743793
 10
165.0932497779
 20
186.7379404952
 10
165.3040719361
 20
186.4441189661
 10
165.5452388375
 20
186.1581812051
 10
165.8158734653
 20
185.8811718235
 10
166.114986768
 20
185.6141012647
 10
166.4414856442
 20
185.3579427153
 10
166.7941821205
 20
185.1136328898
 10
167.1717869727
 20
184.8820620265
 10
167.5729229373
 20
184.6640753853
 10
167.9961258229
 20
184.4604680434
 10
168.4398535239
 20
184.2719842543
 10
168.902483428
 20
184.0993098201
 10
169.3823297435
 20
183.943075775
 10
169.8776421414
 20
183.8038530862
 10
170.386611106
 20
183.6821480448
 10
170.9073806943
 20
183.5784055443
 10
171.4380510053
 20
183.4930046138
 10
171.976683778
 20
183.4262551866
 10
172.5213155619
 20
183.3784026622
 10
173.0699588697
 20
183.3496211583
 10
173.6206130431
 20
183.3400163621
 10
174.1712655702
 20
183.3496217286
 10
174.7199098658
 20
183.3784034225
 10
175.2645426375
 20
183.4262557568
 10
175.8031754102
 20
183.4930036634
 10
176.3338460505
 20
183.5784051641
 10
176.8546151449
 20
183.6821473795
 10
177.3635857559
 20
183.8038533714
 10
177.8588974952
 20
183.9430764402
 10
178.3387419997
 20
184.0993094399
 10
178.8013741263
 20
184.2719843968
 10
179.2450987816
 20
184.4604679484
 10
179.6683038486
 20
184.6640757893
 10
180.0694377964
 20
184.8820612662
  0
LINE
  5
133
330
1F
100
AcDbEntity
  8
0
  6
Continuous
 62
     7
370
    25
100
AcDbLine
 10
179.8431533424
 20
200.954217546
 30
0.0
 11
167.1152291948
 21
193.6065433353
 31
0.0
  0
LWPOLYLINE
  5
134
330
1F
100
AcDbEntity
  8
0
  6
Continuous
 62
     7
370
    25
100
AcDbPolyline
 90
       53
 70
   128
 43
0.0
 10
192.8539184049
 20
193.4432627506
 10
193.2348343778
 20
193.6768644564
 10
193.5906235849
 20
193.9233170369
 10
193.9199873766
 20
194.1817217711
 10
194.221722592
 20
194.4511339374
 10
194.4947301203
 20
194.7305730783
 10
194.7380135837
 20
195.0190176779
 10
194.9506852642
 20
195.3154169473
 10
195.1319674207
 20
195.6186870229
 10
195.2812015088
 20
195.9277238919
 10
195.397835668
 20
196.2413954092
 10
195.4814583082
 20
196.5585644872
 10
195.5317487181
 20
196.8780659061
 10
195.5485350176
 20
197.1987397681
 10
195.5317516816
 20
197.5194134401
 10
195.4814569911
 20
197.8389158094
 10
195.3978363266
 20
198.1560814659
 10
195.2812011795
 20
198.4697573551
 10
195.1319661036
 20
198.778791753
 10
194.9506839471
 20
199.0820625889
 10
194.738012102
 20
199.3784604327
 10
194.4947324252
 20
199.6669074084
 10
194.2217211103
 20
199.9463441733
 10
193.9199853186
 20
200.2157574326
 10
193.59062128
 20
200.474161549
 10
193.234835983
 20
200.7206164343
 10
192.8539151122
 20
200.9542156452
 10
192.4492655657
 20
201.1741165832
 10
192.0223469251
 20
201.3795070633
 10
191.5747293662
 20
201.5696448756
 10
191.1080413463
 20
201.7438332404
 10
190.6239902241
 20
201.9014393178
 10
190.1243312678
 20
202.0418816858
 10
189.6108995117
 20
202.1646545287
 10
189.0855620941
 20
202.2693064901
 10
188.5502408125
 20
202.3554580656
 10
188.0068793609
 20
202.4227901028
 10
187.4574728001
 20
202.4710632849
 10
186.9040184954
 20
202.5000977917
 10
186.3485352151
 20
202.5097866053
 10
185.7930516055
 20
202.5000960809
 10
185.2395989472
 20
202.4710640452
 10
184.6901864595
 20
202.4227897226
 10
184.1468325812
 20
202.3554582556
 10
183.611507019
 20
202.2693072504
 10
183.0861709185
 20
202.164655289
 10
182.5727366928
 20
202.0418825412
 10
182.0730818525
 20
201.9014379872
 10
181.5890266144
 20
201.7438340958
 10
181.1223404877
 20
201.5696460636
 10
180.6747218588
 20
201.3795083939
 10
180.2478072106
 20
201.1741156565
 10
179.8431533424
 20
200.954217546
  0
LINE
  5
135
330
1F
100
AcDbEntity
  8
0
  6
Continuous
 62
     7
370
    25
100
AcDbLine
 10
192.8539184049
 20
193.4432627506
 30
0.0
 11
180.1259942573
 21
186.0955885398
 31
0.0
  0
ARC
  5
136
330
1F
100
AcDbEntity
  8
0
  6
Continuous
 62
     7
370
    25
100
AcDbCircle
 10
173.6206137217
 20
196.6313129472
 30
0.0
 40
13.41587102325193
100
AcDbArc
 50
244.6194254302
 51
295.3805735044
  0
LINE
  5
137
330
1F
100
AcDbEntity
  8
0
  6
Continuous
 62
     7
370
    25
100
AcDbLine
 10
192.797361944
 20
192.229735477
 30
0.0
 11
192.8539184049
 21
193.4432627506
 31
0.0
  0
LINE
  5
138
330
1F
100
AcDbEntity
  8
0
  6
Continuous
 62
     7
370
    25
100
AcDbLine
 10
180.0694377964
 20
184.8820612662
 30
0.0
 11
192.797361944
 21
192.229735477
 31
0.0
  0
LINE
  5
139
330
1F
100
AcDbEntity
  8
0
  6
Continuous
 62
     7
370
    25
100
AcDbLine
 10
175.9314213555
 20
183.4234851887
 30
0.0
 11
181.9699373189
 21
173.1266282186
 31
0.0
  0
LINE
  5
13A
330
1F
100
AcDbEntity
  8
0
  6
Continuous
 62
     7
370
    25
100
AcDbLine
 10
181.9699373189
 20
173.1266282186
 30
0.0
 11
180.2021704054
 21
174.1471383356
 31
0.0
  0
LINE
  5
13B
330
1F
100
AcDbEntity
  8
0
  6
Continuous
 62
     7
370
    25
100
AcDbLine
 10
174.8396055984
 20
183.2913651956
 30
0.0
 11
180.2021704054
 21
174.1471383356
 31
0.0
  0
LWPOLYLINE
  5
13C
330
1F
100
AcDbEntity
  8
0
  6
Continuous
 62
     7
370
    25
100
AcDbPolyline
 90
       55
 70
   128
 43
0.0
 10
188.4698559064
 20
179.6435776875
 10
188.4579020065
 20
179.8736644615
 10
188.4222036258
 20
180.086837727
 10
188.3632454531
 20
180.2802168051
 10
188.2818230101
 20
180.4511856287
 10
188.1790373833
 20
180.5974353292
 10
188.0562767845
 20
180.7169809683
 10
187.91520338
 20
180.8082086876
 10
187.7577243147
 20
180.8698894002
 10
187.5859706386
 20
180.901184876
 10
187.4022656969
 20
180.9016751215
 10
187.2090908851
 20
180.8713477365
 10
187.0090566737
 20
180.8106176887
 10
186.8048736319
 20
180.7203045029
 10
186.5993023783
 20
180.6016307442
 10
186.3951193365
 20
180.456199208
 10
186.1950877593
 20
180.285976192
 10
186.0019129475
 20
180.0932686867
 10
185.8182053716
 20
179.8806757094
 10
185.6464516955
 20
179.6510776603
 10
185.4889726302
 20
179.4075754891
 10
185.3478992257
 20
179.1534678839
 10
185.2251412611
 20
178.8921873951
 10
185.1223530001
 20
178.6272624152
 10
185.0409305571
 20
178.36228524
 10
184.9819723844
 20
178.1008345047
 10
184.9462740037
 20
177.8464447661
 10
184.9343201038
 20
177.6025563131
 10
184.9462740037
 20
177.3724725809
 10
184.9819723844
 20
177.1592993154
 10
185.0409305571
 20
176.9659171955
 10
185.1223530001
 20
176.7949483718
 10
185.2251412611
 20
176.6487032338
 10
185.3478992257
 20
176.5291560741
 10
185.4889726302
 20
176.437925313
 10
185.6464516955
 20
176.3762476422
 10
185.8182053716
 20
176.3449491246
 10
186.0019129475
 20
176.3444634416
 10
186.1950877593
 20
176.3747877847
 10
186.3951193365
 20
176.4355193537
 10
186.5993023783
 20
176.5258325395
 10
186.8048736319
 20
176.6445062982
 10
187.0090566737
 20
176.7899378344
 10
187.2090908851
 20
176.9601593293
 10
187.4022656969
 20
177.1528698764
 10
187.5859706386
 20
177.3654582911
 10
187.7577243147
 20
177.5950593821
 10
187.91520338
 20
177.8385585115
 10
188.0562767845
 20
178.0926691585
 10
188.1790373833
 20
178.353951168
 10
188.2818230101
 20
178.6188715853
 10
188.3632454531
 20
178.8838487606
 10
188.4222036258
 20
179.1453025377
 10
188.4579020065
 20
179.3996922763
 10
188.4698559064
 20
179.6435776875
  0
LWPOLYLINE
  5
13D
330
1F
100
AcDbEntity
  8
0
  6
Continuous
 62
     7
370
    25
100
AcDbPolyline
 90
       41
 70
   128
 43
0.0
 10
181.9699373189
 20
173.1266282186
 10
182.1403818084
 20
172.8662707963
 10
182.3311911284
 20
172.6316166298
 10
182.5415170733
 20
172.4237091537
 10
182.7704166076
 20
172.2434823049
 10
183.0168703043
 20
172.0917377071
 10
183.2797770769
 20
171.9691537963
 10
183.5579647163
 20
171.876276695
 10
183.8501872563
 20
171.813518691
 10
184.1551434129
 20
171.7811658403
 10
184.471471316
 20
171.779359717
 10
184.7977590463
 20
171.808109579
 10
185.1325472691
 20
171.8672817218
 10
185.4743424054
 20
171.956619249
 10
185.8216219005
 20
172.0757207792
 10
186.1728289549
 20
172.2240495717
 10
186.5264015013
 20
172.4009502539
 10
186.8807563985
 20
172.6056305722
 10
187.2343157739
 20
172.8371765981
 10
187.5854964866
 20
173.0945557716
 10
187.9327338348
 20
173.3766153778
 10
188.2744789217
 20
173.6821023192
 10
188.6092012901
 20
174.0096433434
 10
188.935409995
 20
174.3577876271
 10
189.2516483361
 20
174.7249702743
 10
189.5565043939
 20
175.1095579434
 10
189.8486136642
 20
175.5098321161
 10
190.1266774973
 20
175.9240088684
 10
190.3894499269
 20
176.3502312668
 10
190.6357613779
 20
176.7866043475
 10
190.8645081299
 20
177.2311738245
 10
191.07467339
 20
177.6819595478
 10
191.2653167567
 20
178.136946379
 10
191.4355847563
 20
178.5941054831
 10
191.5847213797
 20
179.051391286
 10
191.7120575458
 20
179.5067658099
 10
191.8170269062
 20
179.9581956301
 10
191.8991579431
 20
180.4036625224
 10
191.9580871398
 20
180.8411801917
 10
191.9935510787
 20
181.2687957943
 10
192.0053890747
 20
181.6845975413
  0
LINE
  5
13E
330
1F
100
AcDbEntity
  8
0
  6
Continuous
 62
     7
370
    25
100
AcDbLine
 10
192.0053890747
 20
181.6845975413
 30
0.0
 11
192.0053890747
 21
191.7725393175
 31
0.0
  0
LINE
  5
13F
330
1F
100
AcDbEntity
  8
0
  6
Continuous
 62
     7
370
    25
100
AcDbLine
 10
172.5058338391
 20
183.283146088
 30
0.0
 11
176.6666365785
 21
176.1881585695
 31
0.0
  0
LINE
  5
140
330
1F
100
AcDbEntity
  8
0
  6
Continuous
 62
     7
370
    25
100
AcDbLine
 10
174.8988696651
 20
177.2086686865
 30
0.0
 11
176.6666365785
 21
176.1881585695
 31
0.0
  0
LINE
  5
141
330
1F
100
AcDbEntity
  8
0
  6
Continuous
 62
     7
370
    25
100
AcDbLine
 10
171.2483651623
 20
183.4334958075
 30
0.0
 11
174.8988696651
 21
177.2086686865
 31
0.0
  0
ARC
  5
142
330
1F
100
AcDbEntity
  8
0
  6
Continuous
 62
     7
370
    25
100
AcDbCircle
 10
179.0484356322
 20
177.5799277541
 30
0.0
 40
2.758620705186817
100
AcDbArc
 50
210.299250307
 51
284.8004511235
  0
ARC
  5
143
330
1F
100
AcDbEntity
  8
0
  6
Continuous
 62
     7
370
    25
100
AcDbCircle
 10
190.8675224343
 20
196.4580165112
 30
0.0
 40
4.647864137142454
100
AcDbArc
 50
294.532539728
 51
351.3313492648
  0
ARC
  5
144
330
1F
100
AcDbEntity
  8
0
  6
Continuous
 62
     7
370
    25
100
AcDbCircle
 10
182.5602587592
 20
175.4837575696
 30
0.0
 40
2.710559289346347
100
AcDbArc
 50
209.5455714313
 51
239.5019792767
  0
ARC
  5
145
330
1F
100
AcDbEntity
  8
0
  6
Continuous
 62
     7
370
    25
100
AcDbCircle
 10
182.8897560525
 20
180.8238999166
 30
0.0
 40
3.815681113467283
100
AcDbArc
 50
302.400370938
 51
357.599579621
  0
ARC
  5
146
330
1F
100
AcDbEntity
  8
0
  6
Continuous
 62
     7
370
    25
100
AcDbCircle
 10
177.2569580189
 20
178.5452879205
 30
0.0
 40
2.710559289346695
100
AcDbArc
 50
209.5455714313
 51
239.5019792767
  0
ARC
  5
147
330
1F
100
AcDbEntity
  8
0
  6
HIDDEN
 62
     7
370
    18
100
AcDbCircle
 10
168.9709701034
 20
188.2386416888
 30
0.0
 40
4.467393483566506
100
AcDbArc
 50
113.7493906196
 51
177.804094871
  0
LINE
  5
148
330
1F
100
AcDbEntity
  8
0
  6
HIDDEN
 62
     7
370
    18
100
AcDbLine
 10
167.1717856556
 20
192.3277173618
 30
0.0
 11
167.1152291948
 21
193.6065433353
 31
0.0
  0
LINE
  5
149
330
1F
100
AcDbEntity
  8
0
  6
HIDDEN
 62
     7
370
    18
100
AcDbLine
 10
180.0694377964
 20
184.8820612662
 30
0.0
 11
179.7163683781
 21
184.6989816768
 31
0.0
  0
LINE
  5
14A
330
1F
100
AcDbEntity
  8
0
  6
HIDDEN
 62
     7
370
    18
100
AcDbLine
 10
179.7163683781
 20
184.6989816768
 30
0.0
 11
179.3710427846
 21
184.5103327515
 31
0.0
  0
LWPOLYLINE
  5
14B
330
1F
100
AcDbEntity
  8
0
  6
HIDDEN
 62
     7
370
    18
100
AcDbPolyline
 90
       27
 70
   128
 43
0.0
 10
167.8701844335
 20
184.5103328584
 10
167.524855074
 20
184.6989816768
 10
167.1541296246
 20
184.9268868017
 10
166.8089226103
 20
185.1677793773
 10
166.4905964362
 20
185.4207086706
 10
166.2004119269
 20
185.6846791835
 10
165.9395122332
 20
185.9586477782
 10
165.7089243555
 20
186.2415319214
 10
165.5095593899
 20
186.5322156253
 10
165.3422061083
 20
186.8295531534
 10
165.2075242075
 20
187.1323698766
 10
165.1060471087
 20
187.4394728226
 10
165.0381692799
 20
187.7496458287
 10
165.0041656635
 20
188.0616687402
 10
165.0041656635
 20
188.3743080968
 10
165.0381689506
 20
188.6863292976
 10
165.1060448038
 20
188.996503064
 10
165.2075265124
 20
189.3036056298
 10
165.3422064376
 20
189.6064215927
 10
165.509560707
 20
189.9037600713
 10
165.7089245201
 20
190.1944446305
 10
165.9395119039
 20
190.477329249
 10
166.2004134086
 20
190.751296608
 10
166.4905977533
 20
191.0152662656
 10
166.8089230219
 20
191.2681973172
 10
167.1541294188
 20
191.5090895364
 10
167.524855074
 20
191.736992499
  0
LINE
  5
14C
330
1F
100
AcDbEntity
  8
0
  6
HIDDEN
 62
     7
370
    18
100
AcDbLine
 10
167.1717856556
 20
192.3277173618
 30
0.0
 11
167.524855074
 21
191.736992499
 31
0.0
  0
LINE
  5
14D
330
1F
100
AcDbEntity
  8
0
  6
HIDDEN
 62
     7
370
    18
100
AcDbLine
 10
192.4442925257
 20
192.0466558876
 30
0.0
 11
179.7163683781
 21
184.6989816768
 31
0.0
  0
LINE
  5
14E
330
1F
100
AcDbEntity
  8
0
  6
HIDDEN
 62
     7
370
    18
100
AcDbLine
 10
192.0053890747
 20
194.3409814396
 30
0.0
 11
175.2136974038
 21
184.6473441728
 31
0.0
  0
LINE
  5
14F
330
1F
100
AcDbEntity
  8
0
  6
HIDDEN
 62
     7
370
    18
100
AcDbLine
 10
175.2136974038
 20
184.6473441728
 30
0.0
 11
175.2925564623
 21
184.6928988714
 31
0.0
  0
LINE
  5
150
330
1F
100
AcDbEntity
  8
0
  6
HIDDEN
 62
     7
370
    18
100
AcDbLine
 10
175.1710256953
 20
184.6227774304
 30
0.0
 11
175.2925564623
 21
184.6928988714
 31
0.0
  0
LINE
  5
151
330
1F
100
AcDbEntity
  8
0
  6
HIDDEN
 62
     7
370
    18
100
AcDbLine
 10
192.0053890747
 20
194.3409814396
 30
0.0
 11
192.7124966304
 21
194.7492530531
 31
0.0
  0
LINE
  5
152
330
1F
100
AcDbEntity
  8
0
  6
HIDDEN
 62
     7
370
    18
100
AcDbLine
 10
175.1710256953
 20
184.6227774304
 30
0.0
 11
192.7124966304
 21
194.7492530531
 31
0.0
  0
LINE
  5
153
330
1F
100
AcDbEntity
  8
0
  6
HIDDEN
 62
     7
370
    18
100
AcDbLine
 10
172.6961520494
 20
186.0514915751
 30
0.0
 11
175.1710256953
 21
184.6227774304
 31
0.0
  0
LINE
  5
154
330
1F
100
AcDbEntity
  8
0
  6
HIDDEN
 62
     7
370
    18
100
AcDbLine
 10
175.2136974038
 20
184.6473441728
 30
0.0
 11
175.9314213555
 21
183.4234851887
 31
0.0
  0
LINE
  5
155
330
1F
100
AcDbEntity
  8
0
  6
HIDDEN
 62
     7
370
    18
100
AcDbLine
 10
173.4459304904
 20
185.6678542898
 30
0.0
 11
174.8396055984
 21
183.2913651956
 31
0.0
  0
LINE
  5
156
330
1F
100
AcDbEntity
  8
0
  6
HIDDEN
 62
     7
370
    18
100
AcDbLine
 10
173.2055752451
 20
185.8976874834
 30
0.0
 11
173.4459304904
 21
185.6678542898
 31
0.0
  0
LINE
  5
157
330
1F
100
AcDbEntity
  8
0
  6
HIDDEN
 62
     7
370
    18
100
AcDbLine
 10
175.2925564623
 20
184.6928988714
 30
0.0
 11
173.2055752451
 21
185.8976874834
 31
0.0
  0
LINE
  5
158
330
1F
100
AcDbEntity
  8
0
  6
HIDDEN
 62
     7
370
    18
100
AcDbLine
 10
192.0053890747
 20
191.7725393175
 30
0.0
 11
192.0053890747
 21
194.3409814396
 31
0.0
  0
LINE
  5
159
330
1F
100
AcDbEntity
  8
0
  6
HIDDEN
 62
     7
370
    18
100
AcDbLine
 10
172.6961520494
 20
186.0514915751
 30
0.0
 11
173.2055752451
 21
185.8976874834
 31
0.0
  0
LINE
  5
15A
330
1F
100
AcDbEntity
  8
0
  6
HIDDEN
 62
     7
370
    18
100
AcDbLine
 10
190.2376229845
 20
196.1779671978
 30
0.0
 11
172.6961520494
 21
186.0514915751
 31
0.0
  0
LINE
  5
15B
330
1F
100
AcDbEntity
  8
0
  6
HIDDEN
 62
     7
370
    18
100
AcDbLine
 10
173.4459304904
 20
185.6678542898
 30
0.0
 11
190.2376221613
 21
195.3614915565
 31
0.0
  0
LINE
  5
15C
330
1F
100
AcDbEntity
  8
0
  6
HIDDEN
 62
     7
370
    18
100
AcDbLine
 10
167.3928511444
 20
189.1130220211
 30
0.0
 11
169.8677247903
 21
187.6843078763
 31
0.0
  0
LINE
  5
15D
330
1F
100
AcDbEntity
  8
0
  6
HIDDEN
 62
     7
370
    18
100
AcDbLine
 10
187.4091957254
 20
197.810783499
 30
0.0
 11
186.7020883344
 21
197.4025117905
 31
0.0
  0
LINE
  5
15E
330
1F
100
AcDbEntity
  8
0
  6
HIDDEN
 62
     7
370
    18
100
AcDbLine
 10
186.7020883344
 20
197.4025117905
 30
0.0
 11
169.9103966635
 21
187.7088745237
 31
0.0
  0
LINE
  5
15F
330
1F
100
AcDbEntity
  8
0
  6
HIDDEN
 62
     7
370
    18
100
AcDbLine
 10
169.9103966635
 20
187.7088745237
 30
0.0
 11
169.9892557219
 21
187.7544292223
 31
0.0
  0
LINE
  5
160
330
1F
100
AcDbEntity
  8
0
  6
HIDDEN
 62
     7
370
    18
100
AcDbLine
 10
169.8677247903
 20
187.6843078763
 30
0.0
 11
169.9892557219
 21
187.7544292223
 31
0.0
  0
LINE
  5
161
330
1F
100
AcDbEntity
  8
0
  6
HIDDEN
 62
     7
370
    18
100
AcDbLine
 10
169.8677247903
 20
187.6843078763
 30
0.0
 11
187.4091957254
 21
197.810783499
 31
0.0
  0
LINE
  5
162
330
1F
100
AcDbEntity
  8
0
  6
HIDDEN
 62
     7
370
    18
100
AcDbLine
 10
169.9103966635
 20
187.7088745237
 30
0.0
 11
172.5058338391
 21
183.283146088
 31
0.0
  0
LINE
  5
163
330
1F
100
AcDbEntity
  8
0
  6
HIDDEN
 62
     7
370
    18
100
AcDbLine
 10
168.14262975
 20
188.7293846407
 30
0.0
 11
171.2483651623
 21
183.4334958075
 31
0.0
  0
LINE
  5
164
330
1F
100
AcDbEntity
  8
0
  6
HIDDEN
 62
     7
370
    18
100
AcDbLine
 10
167.9022745048
 20
188.9592178343
 30
0.0
 11
168.14262975
 21
188.7293846407
 31
0.0
  0
LINE
  5
165
330
1F
100
AcDbEntity
  8
0
  6
HIDDEN
 62
     7
370
    18
100
AcDbLine
 10
169.9892557219
 20
187.7544292223
 30
0.0
 11
167.9022745048
 21
188.9592178343
 31
0.0
  0
LWPOLYLINE
  5
166
330
1F
100
AcDbEntity
  8
0
  6
HIDDEN
 62
     7
370
    18
100
AcDbPolyline
 90
       30
 70
   128
 43
0.0
 10
179.7531345887
 20
174.9128342845
 10
179.8292465287
 20
174.9288120727
 10
180.1710416651
 20
175.0181495999
 10
180.5183211601
 20
175.1372511301
 10
180.8695282146
 20
175.2855799226
 10
181.2231007609
 20
175.4624806048
 10
181.5774556581
 20
175.6671609231
 10
181.9310150336
 20
175.898706949
 10
182.2821957462
 20
176.1560861225
 10
182.6294330944
 20
176.4381457287
 10
182.9711781814
 20
176.7436326701
 10
183.3059005497
 20
177.0711736943
 10
183.6321092547
 20
177.419317978
 10
183.9483475958
 20
177.7865006252
 10
184.2532036536
 20
178.1710882943
 10
184.5453129239
 20
178.571362467
 10
184.8233767569
 20
178.9855392193
 10
185.0861491865
 20
179.4117616177
 10
185.3324606376
 20
179.8481346984
 10
185.5612073895
 20
180.2927041754
 10
185.7713726496
 20
180.7434898987
 10
185.9620160163
 20
181.1984767299
 10
186.1322840159
 20
181.655635834
 10
186.2814206394
 20
182.1129216369
 10
186.4087568055
 20
182.5682961608
 10
186.5137261658
 20
183.019725981
 10
186.5958572027
 20
183.4651928733
 10
186.6547863995
 20
183.9027105427
 10
186.6902503383
 20
184.3303261452
 10
186.7020883344
 20
184.7461278922
  0
LINE
  5
167
330
1F
100
AcDbEntity
  8
0
  6
HIDDEN
 62
     7
370
    18
100
AcDbLine
 10
186.7020883344
 20
184.7461278922
 30
0.0
 11
186.7020883344
 21
197.4025117905
 31
0.0
  0
LWPOLYLINE
  5
168
330
1F
100
AcDbEntity
  8
0
  6
HIDDEN
 62
     7
370
    18
100
AcDbPolyline
 90
       55
 70
   128
 43
0.0
 10
183.166555166
 20
182.7051080384
 10
183.1546012661
 20
182.9351948124
 10
183.1189028854
 20
183.1483680779
 10
183.0599447127
 20
183.341747156
 10
182.9785222697
 20
183.5127159796
 10
182.8757366429
 20
183.6589656801
 10
182.7529760441
 20
183.7785113192
 10
182.6119026396
 20
183.8697390385
 10
182.4544235743
 20
183.9314197511
 10
182.2826698983
 20
183.9627152269
 10
182.0989649565
 20
183.9632054724
 10
181.9057901447
 20
183.9328780874
 10
181.7057559333
 20
183.8721480396
 10
181.5015728915
 20
183.7818348538
 10
181.2960016379
 20
183.6631610951
 10
181.0918185961
 20
183.5177295589
 10
180.8917870189
 20
183.3475065429
 10
180.6986122071
 20
183.1547990376
 10
180.5149046312
 20
182.9422060603
 10
180.3431509552
 20
182.7126080112
 10
180.1856718899
 20
182.46910584
 10
180.0445984854
 20
182.2149982348
 10
179.9218405207
 20
181.953717746
 10
179.8190522597
 20
181.6887927661
 10
179.7376298168
 20
181.4238155909
 10
179.6786716441
 20
181.1623648556
 10
179.6429732634
 20
180.9079751171
 10
179.6310193635
 20
180.664086664
 10
179.6429732634
 20
180.4340029318
 10
179.6786716441
 20
180.2208296663
 10
179.7376298168
 20
180.0274475464
 10
179.8190522597
 20
179.8564787227
 10
179.9218405207
 20
179.7102335848
 10
180.0445984854
 20
179.590686425
 10
180.1856718899
 20
179.4994556639
 10
180.3431509552
 20
179.4377779931
 10
180.5149046312
 20
179.4064794755
 10
180.6986122071
 20
179.4059937925
 10
180.8917870189
 20
179.4363181356
 10
181.0918185961
 20
179.4970497046
 10
181.2960016379
 20
179.5873628904
 10
181.5015728915
 20
179.7060366491
 10
181.7057559333
 20
179.8514681853
 10
181.9057901447
 20
180.0216896802
 10
182.0989649565
 20
180.2144002273
 10
182.2826698983
 20
180.426988642
 10
182.4544235743
 20
180.6565897331
 10
182.6119026396
 20
180.9000888624
 10
182.7529760441
 20
181.1541995094
 10
182.8757366429
 20
181.4154815189
 10
182.9785222697
 20
181.6804019362
 10
183.0599447127
 20
181.9453791115
 10
183.1189028854
 20
182.2068328886
 10
183.1546012661
 20
182.4612226272
 10
183.166555166
 20
182.7051080384
  0
LINE
  5
169
330
1F
100
AcDbEntity
  8
0
  6
HIDDEN
 62
     7
370
    18
100
AcDbLine
 10
167.9022745048
 20
188.9592178343
 30
0.0
 11
167.3928511444
 21
189.1130220211
 31
0.0
  0
LINE
  5
16A
330
1F
100
AcDbEntity
  8
0
  6
HIDDEN
 62
     7
370
    18
100
AcDbLine
 10
184.9343220795
 20
199.2394976438
 30
0.0
 11
167.3928511444
 21
189.1130220211
 31
0.0
  0
LINE
  5
16B
330
1F
100
AcDbEntity
  8
0
  6
HIDDEN
 62
     7
370
    18
100
AcDbLine
 10
168.14262975
 20
188.7293846407
 30
0.0
 11
184.9343214209
 21
198.4230219074
 31
0.0
  0
LINE
  5
16C
330
1F
100
AcDbEntity
  8
0
  6
HIDDEN
 62
     7
370
    18
100
AcDbLine
 10
179.8997098033
 20
199.6753915726
 30
0.0
 11
179.8431533424
 21
200.954217546
 31
0.0
  0
LWPOLYLINE
  5
16D
330
1F
100
AcDbEntity
  8
0
  6
HIDDEN
 62
     7
370
    18
100
AcDbPolyline
 90
       41
 70
   128
 43
0.0
 10
195.4622916996
 20
195.7574906827
 10
195.4685514944
 20
195.9525627645
 10
195.4519110625
 20
196.2704471317
 10
195.4020546334
 20
196.5871721716
 10
195.3191679167
 20
196.9015844494
 10
195.2035419891
 20
197.2125305304
 10
195.0556072094
 20
197.5188799802
 10
194.875900456
 20
197.8195138643
 10
194.6650782977
 20
198.1133353934
 10
194.4239113964
 20
198.3992731543
 10
194.1532741344
 20
198.6762810153
 10
193.8541621487
 20
198.9433523345
 10
193.5276593213
 20
199.1995086028
 10
193.1749654792
 20
199.443819949
 10
192.7973593098
 20
199.6753900519
 10
192.3962246624
 20
199.8933774535
 10
191.9730191426
 20
200.0969832747
 10
191.5292953928
 20
200.2854693449
 10
191.0666641717
 20
200.4581430188
 10
190.5868204904
 20
200.6143785845
 10
190.0915080925
 20
200.7536012733
 10
189.5825391279
 20
200.8753063146
 10
189.0617695396
 20
200.9790488152
 10
188.5310992285
 20
201.0644497457
 10
187.9924664558
 20
201.1311991729
 10
187.4478294036
 20
201.179048656
 10
186.8991860958
 20
201.2078301598
 10
186.3485345566
 20
201.2174364767
 10
185.7978846637
 20
201.2078326309
 10
185.2492377339
 20
201.1790494163
 10
184.7046049622
 20
201.131197082
 10
184.1659721895
 20
201.0644491755
 10
183.6353015492
 20
200.9790476747
 10
183.1145324548
 20
200.8753054593
 10
182.605564478
 20
200.7536009881
 10
182.1102527387
 20
200.6143779192
 10
181.6304056
 20
200.4581433989
 10
181.1677761075
 20
200.2854699627
 10
180.724048818
 20
200.0969848904
 10
180.3008437511
 20
199.8933770495
 10
179.8997098033
 20
199.6753915726
  0
LINE
  5
16E
330
1F
100
AcDbEntity
  8
0
  6
HIDDEN
 62
     7
370
    18
100
AcDbLine
 10
179.8997098033
 20
199.6753915726
 30
0.0
 11
167.1717856556
 21
192.3277173618
 31
0.0
  0
LINE
  5
16F
330
1F
100
AcDbEntity
  8
0
  6
HIDDEN
 62
     7
370
    18
100
AcDbLine
 10
167.524855074
 20
191.736992499
 30
0.0
 11
180.2527792216
 21
199.0846667098
 31
0.0
  0
LINE
  5
170
330
1F
100
AcDbEntity
  8
0
  6
HIDDEN
 62
     7
370
    18
100
AcDbLine
 10
180.2527792216
 20
199.0846667098
 30
0.0
 11
179.8997098033
 21
199.6753915726
 31
0.0
  0
LINE
  5
171
330
1F
100
AcDbEntity
  8
0
  6
HIDDEN
 62
     7
370
    18
100
AcDbLine
 10
192.4442925257
 20
192.0466558876
 30
0.0
 11
192.797361944
 21
192.229735477
 31
0.0
  0
LWPOLYLINE
  5
172
330
1F
100
AcDbEntity
  8
0
  6
HIDDEN
 62
     7
370
    18
100
AcDbPolyline
 90
       51
 70
   128
 43
0.0
 10
180.2527792216
 20
199.0846667098
 10
180.6475615076
 20
199.2986820751
 10
181.064846918
 20
199.4979670068
 10
181.502981189
 20
199.6817307522
 10
181.9602395925
 20
199.8492506086
 10
182.4348190336
 20
199.999867362
 10
182.9248400264
 20
200.1329811045
 10
183.428375011
 20
200.2480713841
 10
183.9434361708
 20
200.3446829474
 10
184.4679856399
 20
200.4224320132
 10
184.9999605277
 20
200.4810161567
 10
185.537252833
 20
200.520198532
 10
186.0777506038
 20
200.5398297325
 10
186.6193165337
 20
200.5398297325
 10
187.1598172679
 20
200.5202013832
 10
187.6971082562
 20
200.4810148261
 10
188.2290838024
 20
200.4224333438
 10
188.7536345887
 20
200.3446831375
 10
189.268691468
 20
200.2480706237
 10
189.772227605
 20
200.1329811996
 10
190.2622504088
 20
199.9998656512
 10
190.7368319902
 20
199.8492529847
 10
191.1940892412
 20
199.6817315125
 10
191.6322257348
 20
199.4979672444
 10
192.0495064942
 20
199.2986819563
 10
192.4442898915
 20
199.0846651891
 10
192.815017975
 20
198.8567615849
 10
193.1602276235
 20
198.61587053
 10
193.4785511635
 20
198.3629397161
 10
193.768738307
 20
198.0989707238
 10
194.0296353664
 20
197.8250006085
 10
194.2602232442
 20
197.5421164652
 10
194.4595855755
 20
197.2514312407
 10
194.6269414914
 20
196.9540952332
 10
194.7616233921
 20
196.65127851
 10
194.863100491
 20
196.344175564
 10
194.930980954
 20
196.0340040787
 10
194.9649819362
 20
195.7219796464
 10
194.9649819362
 20
195.4093402898
 10
194.9309760149
 20
195.0973175683
 10
194.8631027959
 20
194.7871453227
 10
194.7616210872
 20
194.4800427568
 10
194.6269411621
 20
194.1772267939
 10
194.4595868926
 20
193.8798883154
 10
194.2602230796
 20
193.5892037562
 10
194.0296383299
 20
193.3063206584
 10
193.7687341911
 20
193.0323517786
 10
193.4785498464
 20
192.768382121
 10
193.1602272119
 20
192.5154525901
 10
192.8150181808
 20
192.2745588503
 10
192.4442925257
 20
192.0466558876
  0
LINE
  5
173
330
1F
100
AcDbEntity
  8
0
  6
HIDDEN
 62
     7
370
    18
100
AcDbLine
 10
190.2376221613
 20
195.3614915565
 30
0.0
 11
190.2376229845
 21
196.1779671978
 31
0.0
  0
LINE
  5
174
330
1F
100
AcDbEntity
  8
0
  6
HIDDEN
 62
     7
370
    18
100
AcDbLine
 10
192.7124966304
 20
194.7492530531
 30
0.0
 11
190.2376229845
 21
196.1779671978
 31
0.0
  0
LINE
  5
175
330
1F
100
AcDbEntity
  8
0
  6
HIDDEN
 62
     7
370
    18
100
AcDbLine
 10
190.2376221613
 20
195.3614915565
 30
0.0
 11
192.0053890747
 21
194.3409814396
 31
0.0
  0
LINE
  5
176
330
1F
100
AcDbEntity
  8
0
  6
HIDDEN
 62
     7
370
    18
100
AcDbLine
 10
190.2376221613
 20
182.7051076582
 30
0.0
 11
190.2376221613
 21
195.3614915565
 31
0.0
  0
LINE
  5
177
330
1F
100
AcDbEntity
  8
0
  6
HIDDEN
 62
     7
370
    18
100
AcDbLine
 10
192.0053890747
 20
181.6845975413
 30
0.0
 11
190.2376221613
 21
182.7051076582
 31
0.0
  0
LWPOLYLINE
  5
178
330
1F
100
AcDbEntity
  8
0
  6
HIDDEN
 62
     7
370
    18
100
AcDbPolyline
 90
       37
 70
   128
 43
0.0
 10
181.1846266151
 20
173.1482131224
 10
181.2491033908
 20
173.112247824
 10
181.5120101635
 20
172.9896639133
 10
181.7901978029
 20
172.896786812
 10
182.0824203428
 20
172.8340288079
 10
182.3873764994
 20
172.8016759573
 10
182.7037044026
 20
172.7998698339
 10
183.0299921328
 20
172.8286196959
 10
183.3647803556
 20
172.8877918387
 10
183.706575492
 20
172.977129366
 10
184.053854987
 20
173.0962308962
 10
184.4050620415
 20
173.2445596887
 10
184.7586345878
 20
173.4214603709
 10
185.112989485
 20
173.6261406891
 10
185.4665488605
 20
173.857686715
 10
185.8177295732
 20
174.1150658885
 10
186.1649669213
 20
174.3971254947
 10
186.5067120083
 20
174.7026124361
 10
186.8414343766
 20
175.0301534603
 10
187.1676430816
 20
175.378297744
 10
187.4838814227
 20
175.7454803913
 10
187.7887374805
 20
176.1300680604
 10
188.0808467508
 20
176.5303422331
 10
188.3589105838
 20
176.9445189853
 10
188.6216830134
 20
177.3707413837
 10
188.8679944645
 20
177.8071144645
 10
189.0967412164
 20
178.2516839414
 10
189.3069064765
 20
178.7024696647
 10
189.4975498432
 20
179.1574564959
 10
189.6678178428
 20
179.6146156001
 10
189.8169544663
 20
180.071901403
 10
189.9442906324
 20
180.5272759268
 10
190.0492599928
 20
180.978705747
 10
190.1313910296
 20
181.4241726393
 10
190.1903202264
 20
181.8616903087
 10
190.2257841652
 20
182.2893059112
 10
190.2376221613
 20
182.7051076582
  0
LWPOLYLINE
  5
179
330
1F
100
AcDbEntity
  8
0
  6
HIDDEN
 62
     7
370
    18
100
AcDbPolyline
 90
       42
 70
   128
 43
0.0
 10
186.7020889929
 20
180.6640878045
 10
186.690135093
 20
180.8941745785
 10
186.6544367123
 20
181.107347844
 10
186.5954785396
 20
181.3007269221
 10
186.5140560966
 20
181.4716957457
 10
186.4112704698
 20
181.6179454462
 10
186.288509871
 20
181.7374910852
 10
186.1474364665
 20
181.8287188045
 10
185.9899574012
 20
181.8903995171
 10
185.8182037252
 20
181.921694993
 10
185.6344987834
 20
181.9221852385
 10
185.4413239716
 20
181.8918578535
 10
185.2412897602
 20
181.8311278057
 10
185.0371067185
 20
181.7408146198
 10
184.8315354648
 20
181.6221408612
 10
184.6273524231
 20
181.4767093249
 10
184.4273208458
 20
181.3064863089
 10
184.2341460341
 20
181.1137788037
 10
184.0504384581
 20
180.9011858264
 10
183.8786847821
 20
180.6715877772
 10
183.7212057168
 20
180.428085606
 10
183.5801323123
 20
180.1739780009
 10
183.4573743476
 20
179.9126975121
 10
183.3545860867
 20
179.6477725322
 10
183.2731636437
 20
179.382795357
 10
183.214205471
 20
179.1213446216
 10
183.1785070903
 20
178.8669548831
 10
183.1665531904
 20
178.62306643
 10
183.1785070903
 20
178.3929826978
 10
183.214205471
 20
178.1798094323
 10
183.2731636437
 20
177.9864273124
 10
183.3545860867
 20
177.8154584888
 10
183.4573743476
 20
177.6692133508
 10
183.5801323123
 20
177.5496661911
 10
183.7212057168
 20
177.45843543
 10
183.8786847821
 20
177.3967577592
 10
184.0504384581
 20
177.3654592415
 10
184.2341460341
 20
177.3649735585
 10
184.4273208458
 20
177.3952979017
 10
184.6273524231
 20
177.4560294706
 10
184.8315354648
 20
177.5463426565
 10
184.9343210916
 20
177.6022270343
  0
LINE
  5
17A
330
1F
100
AcDbEntity
  8
0
  6
HIDDEN
 62
     7
370
    18
100
AcDbLine
 10
184.9343214209
 20
198.4230219074
 30
0.0
 11
184.9343220795
 21
199.2394976438
 31
0.0
  0
LINE
  5
17B
330
1F
100
AcDbEntity
  8
0
  6
HIDDEN
 62
     7
370
    18
100
AcDbLine
 10
187.4091957254
 20
197.810783499
 30
0.0
 11
184.9343220795
 21
199.2394976438
 31
0.0
  0
LINE
  5
17C
330
1F
100
AcDbEntity
  8
0
  6
HIDDEN
 62
     7
370
    18
100
AcDbLine
 10
184.9343214209
 20
198.4230219074
 30
0.0
 11
186.7020883344
 21
197.4025117905
 31
0.0
  0
LINE
  5
17D
330
1F
100
AcDbEntity
  8
0
  6
HIDDEN
 62
     7
370
    18
100
AcDbLine
 10
184.9343214209
 20
185.7666380091
 30
0.0
 11
184.9343214209
 21
198.4230219074
 31
0.0
  0
LINE
  5
17E
330
1F
100
AcDbEntity
  8
0
  6
HIDDEN
 62
     7
370
    18
100
AcDbLine
 10
184.9343214209
 20
185.7666380091
 30
0.0
 11
186.7020883344
 21
184.7461278922
 31
0.0
  0
LWPOLYLINE
  5
17F
330
1F
100
AcDbEntity
  8
0
  6
HIDDEN
 62
     7
370
    18
100
AcDbPolyline
 90
       37
 70
   128
 43
0.0
 10
175.8813258748
 20
176.2097434733
 10
175.9458026504
 20
176.1737781749
 10
176.2087094231
 20
176.0511942642
 10
176.4868970625
 20
175.9583171629
 10
176.7791196025
 20
175.8955591588
 10
177.0840757591
 20
175.8632063082
 10
177.4004036622
 20
175.8614001849
 10
177.7266913925
 20
175.8901500468
 10
178.0614796153
 20
175.9493221896
 10
178.4032747516
 20
176.0386597169
 10
178.7505542466
 20
176.1577612471
 10
179.1017613011
 20
176.3060900396
 10
179.4553338474
 20
176.4829907218
 10
179.8096887447
 20
176.68767104
 10
180.1632481201
 20
176.9192170659
 10
180.5144288328
 20
177.1765962394
 10
180.861666181
 20
177.4586558457
 10
181.2034112679
 20
177.764142787
 10
181.5381336363
 20
178.0916838112
 10
181.8643423412
 20
178.4398280949
 10
182.1805806823
 20
178.8070107422
 10
182.4854367401
 20
179.1915984113
 10
182.7775460104
 20
179.591872584
 10
183.0556098435
 20
180.0060493362
 10
183.3183822731
 20
180.4322717346
 10
183.5646937241
 20
180.8686448154
 10
183.793440476
 20
181.3132142924
 10
184.0036057361
 20
181.7640000156
 10
184.1942491029
 20
182.2189868468
 10
184.3645171025
 20
182.676145951
 10
184.5136537259
 20
183.1334317539
 10
184.640989892
 20
183.5888062777
 10
184.7459592524
 20
184.040236098
 10
184.8280902893
 20
184.4857029902
 10
184.887019486
 20
184.9232206596
 10
184.9224834248
 20
185.3508362621
 10
184.9343214209
 20
185.7666380091
  0
LWPOLYLINE
  5
180
330
1F
100
AcDbEntity
  8
0
  6
HIDDEN
 62
     7
370
    18
100
AcDbPolyline
 90
       55
 70
   128
 43
0.0
 10
181.3987882526
 20
183.7256181554
 10
181.3868343527
 20
183.9557049294
 10
181.351135972
 20
184.1688781949
 10
181.2921777993
 20
184.362257273
 10
181.2107553563
 20
184.5332260966
 10
181.1079697295
 20
184.6794757971
 10
180.9852091307
 20
184.7990214361
 10
180.8441357262
 20
184.8902491554
 10
180.6866566609
 20
184.951929868
 10
180.5149029848
 20
184.9832253439
 10
180.3311980431
 20
184.9837155894
 10
180.1380232313
 20
184.9533882044
 10
179.9379890199
 20
184.8926581566
 10
179.7338059781
 20
184.8023449707
 10
179.5282347245
 20
184.6836712121
 10
179.3240516827
 20
184.5382396759
 10
179.1240201055
 20
184.3680166598
 10
178.9308452937
 20
184.1753091546
 10
178.7471377177
 20
183.9627161773
 10
178.5753840417
 20
183.7331181281
 10
178.4179049764
 20
183.4896159569
 10
178.2768315719
 20
183.2355083518
 10
178.1540736073
 20
182.974227863
 10
178.0512853463
 20
182.7093028831
 10
177.9698629033
 20
182.4443257079
 10
177.9109047306
 20
182.1828749725
 10
177.8752063499
 20
181.928485234
 10
177.86325245
 20
181.6845967809
 10
177.8752063499
 20
181.4545130487
 10
177.9109047306
 20
181.2413397832
 10
177.9698629033
 20
181.0479576633
 10
178.0512853463
 20
180.8769888397
 10
178.1540736073
 20
180.7307437017
 10
178.2768315719
 20
180.611196542
 10
178.4179049764
 20
180.5199657809
 10
178.5753840417
 20
180.4582881101
 10
178.7471377177
 20
180.4269895924
 10
178.9308452937
 20
180.4265039094
 10
179.1240201055
 20
180.4568282526
 10
179.3240516827
 20
180.5175598215
 10
179.5282347245
 20
180.6078730074
 10
179.7338059781
 20
180.7265467661
 10
179.9379890199
 20
180.8719783023
 10
180.1380232313
 20
181.0421997971
 10
180.3311980431
 20
181.2349103442
 10
180.5149029848
 20
181.447498759
 10
180.6866566609
 20
181.67709985
 10
180.8441357262
 20
181.9205989794
 10
180.9852091307
 20
182.1747096264
 10
181.1079697295
 20
182.4359916358
 10
181.2107553563
 20
182.7009120532
 10
181.2921777993
 20
182.9658892284
 10
181.351135972
 20
183.2273430056
 10
181.3868343527
 20
183.4817327441
 10
181.3987882526
 20
183.7256181554
  0
LINE
  5
181
330
1F
100
AcDbEntity
  8
0
  6
HIDDEN
 62
     7
370
    18
100
AcDbLine
 10
183.6844220547
 20
177.4784542648
 30
0.0
 11
185.4521889682
 21
176.4579441478
 31
0.0
  0
LINE
  5
182
330
1F
100
AcDbEntity
  8
0
  6
HIDDEN
 62
     7
370
    18
100
AcDbLine
 10
187.951987042
 20
180.7881898527
 30
0.0
 11
186.1842201286
 21
181.8086999697
 31
0.0
  0
LINE
  5
183
330
1F
100
AcDbEntity
  8
0
  6
HIDDEN
 62
     7
370
    18
100
AcDbLine
 10
182.6486863016
 20
183.8497202036
 30
0.0
 11
180.8809193882
 21
184.8702303206
 31
0.0
  0
LINE
  5
184
330
1F
100
AcDbEntity
  8
0
  6
HIDDEN
 62
     7
370
    18
100
AcDbLine
 10
178.3811213144
 20
180.5399846157
 30
0.0
 11
180.1488882278
 21
179.5194744987
 31
0.0
  0
ENDSEC
  0
SECTION
  2
OBJECTS
  0
DICTIONARY
  5
C
330
0
100
AcDbDictionary
281
     1
  3
ACAD_GROUP
350
D
  3
ACAD_LAYOUT
350
1A
  3
ACAD_MLINESTYLE
350
17
  3
ACAD_PLOTSETTINGS
350
19
  3
ACAD_PLOTSTYLENAME
350
E
  3
ACAD_SCALELIST
350
47
  0
DICTIONARY
  5
D
102
{ACAD_REACTORS
330
C
102
}
330
C
100
AcDbDictionary
281
     1
  0
DICTIONARY
  5
1A
102
{ACAD_REACTORS
330
C
102
}
330
C
100
AcDbDictionary
281
     1
  3
Layout1
350
1E
  3
Layout2
350
26
  3
Model
350
22
  0
DICTIONARY
  5
17
102
{ACAD_REACTORS
330
C
102
}
330
C
100
AcDbDictionary
281
     1
  3
Standard
350
18
  0
DICTIONARY
  5
19
102
{ACAD_REACTORS
330
C
102
}
330
C
100
AcDbDictionary
281
     1
  0
ACDBDICTIONARYWDFLT
  5
E
102
{ACAD_REACTORS
330
C
102
}
330
C
100
AcDbDictionary
281
     1
  3
Normal
350
F
100
AcDbDictionaryWithDefault
340
F
  0
DICTIONARY
  5
47
102
{ACAD_REACTORS
330
C
102
}
330
C
100
AcDbDictionary
281
     1
  3
A0
350
48
  3
A1
350
49
  3
A2
350
4A
  3
A3
350
4B
  3
A4
350
4C
  3
A5
350
4D
  3
A6
350
4E
  3
A7
350
4F
  3
A8
350
50
  3
A9
350
51
  3
B0
350
52
  3
B1
350
53
  3
B2
350
54
  3
B3
350
55
  3
B4
350
56
  3
B5
350
57
  3
B6
350
58
  3
B7
350
59
  3
B8
350
5A
  3
B9
350
5B
  3
C0
350
5C
  3
C1
350
5D
  3
C2
350
5E
  3
C3
350
5F
  3
C4
350
60
  3
C5
350
61
  3
C6
350
62
  3
C7
350
63
  3
C8
350
64
  3
C9
350
65
  3
D0
350
66
  3
D1
350
67
  3
D2
350
68
  0
LAYOUT
  5
1E
102
{ACAD_REACTORS
330
1A
102
}
330
1A
100
AcDbPlotSettings
  1

  2
none_device
  4

  6

 40
0.0
 41
0.0
 42
0.0
 43
0.0
 44
0.0
 45
0.0
 46
0.0
 47
0.0
 48
0.0
 49
0.0
140
0.0
141
0.0
142
1.0
143
1.0
 70
   688
 72
     1
 73
     0
 74
     5
  7

 75
    16
147
1.0
148
0.0
149
0.0
100
AcDbLayout
  1
Layout1
 70
     1
 71
     1
 10
0.0
 20
0.0
 11
420.0
 21
297.0
 12
0.0
 22
0.0
 32
0.0
 14
1.0000000000E+20
 24
1.0000000000E+20
 34
1.0000000000E+20
 15
-1.0000000000E+20
 25
-1.0000000000E+20
 35
-1.0000000000E+20
146
0.0
 13
0.0
 23
0.0
 33
0.0
 16
1.0
 26
0.0
 36
0.0
 17
0.0
 27
1.0
 37
0.0
 76
     0
330
1B
  0
LAYOUT
  5
26
102
{ACAD_REACTORS
330
1A
102
}
330
1A
100
AcDbPlotSettings
  1

  2
none_device
  4

  6

 40
0.0
 41
0.0
 42
0.0
 43
0.0
 44
0.0
 45
0.0
 46
0.0
 47
0.0
 48
0.0
 49
0.0
140
0.0
141
0.0
142
1.0
143
1.0
 70
   688
 72
     1
 73
     0
 74
     5
  7

 75
    16
147
1.0
148
0.0
149
0.0
100
AcDbLayout
  1
Layout2
 70
     1
 71
     2
 10
0.0
 20
0.0
 11
0.0
 21
0.0
 12
0.0
 22
0.0
 32
0.0
 14
0.0
 24
0.0
 34
0.0
 15
0.0
 25
0.0
 35
0.0
146
0.0
 13
0.0
 23
0.0
 33
0.0
 16
1.0
 26
0.0
 36
0.0
 17
0.0
 27
1.0
 37
0.0
 76
     0
330
23
  0
LAYOUT
  5
22
102
{ACAD_REACTORS
330
1A
102
}
330
1A
100
AcDbPlotSettings
  1

  2
none_device
  4
Letter_(8.50_x_11.00_Inches)
  6

 40
6.35
 41
6.35
 42
6.35000508
 43
6.35000508
 44
215.9
 45
279.4
 46
0.0
 47
0.0
 48
0.0
 49
0.0
140
0.0
141
0.0
142
1.0
143
1.0
 70
  1712
 72
     1
 73
     0
 74
     0
  7

 75
     0
147
1.0
148
0.0
149
0.0
100
AcDbLayout
  1
Model
 70
     1
 71
     0
 10
0.0
 20
0.0
 11
594.0
 21
420.0
 12
0.0
 22
0.0
 32
0.0
 14
0.0
 24
0.0
 34
0.0
 15
594.0
 25
420.0
 35
0.0
146
0.0
 13
0.0
 23
0.0
 33
0.0
 16
1.0
 26
0.0
 36
0.0
 17
0.0
 27
1.0
 37
0.0
 76
     0
330
1F
331
29
  0
MLINESTYLE
  5
18
102
{ACAD_REACTORS
330
17
102
}
330
17
100
AcDbMlineStyle
  2
Standard
 70
     0
  3

 62
   256
 51
90.0
 52
90.0
 71
     2
 49
0.5
 62
   256
  6
BYLAYER
 49
-0.5
 62
   256
  6
BYLAYER
  0
ACDBPLACEHOLDER
  5
F
102
{ACAD_REACTORS
330
E
102
}
330
E
  0
SCALE
  5
48
102
{ACAD_REACTORS
330
47
102
}
330
47
100
AcDbScale
 70
     0
300
1:1
140
1.0
141
1.0
290
     1
  0
SCALE
  5
49
102
{ACAD_REACTORS
330
47
102
}
330
47
100
AcDbScale
 70
     0
300
1:2
140
1.0
141
2.0
290
     0
  0
SCALE
  5
4A
102
{ACAD_REACTORS
330
47
102
}
330
47
100
AcDbScale
 70
     0
300
1:4
140
1.0
141
4.0
290
     0
  0
SCALE
  5
4B
102
{ACAD_REACTORS
330
47
102
}
330
47
100
AcDbScale
 70
     0
300
1:5
140
1.0
141
5.0
290
     0
  0
SCALE
  5
4C
102
{ACAD_REACTORS
330
47
102
}
330
47
100
AcDbScale
 70
     0
300
1:8
140
1.0
141
8.0
290
     0
  0
SCALE
  5
4D
102
{ACAD_REACTORS
330
47
102
}
330
47
100
AcDbScale
 70
     0
300
1:10
140
1.0
141
10.0
290
     0
  0
SCALE
  5
4E
102
{ACAD_REACTORS
330
47
102
}
330
47
100
AcDbScale
 70
     0
300
1:16
140
1.0
141
16.0
290
     0
  0
SCALE
  5
4F
102
{ACAD_REACTORS
330
47
102
}
330
47
100
AcDbScale
 70
     0
300
1:20
140
1.0
141
20.0
290
     0
  0
SCALE
  5
50
102
{ACAD_REACTORS
330
47
102
}
330
47
100
AcDbScale
 70
     0
300
1:30
140
1.0
141
30.0
290
     0
  0
SCALE
  5
51
102
{ACAD_REACTORS
330
47
102
}
330
47
100
AcDbScale
 70
     0
300
1:40
140
1.0
141
40.0
290
     0
  0
SCALE
  5
52
102
{ACAD_REACTORS
330
47
102
}
330
47
100
AcDbScale
 70
     0
300
1:50
140
1.0
141
50.0
290
     0
  0
SCALE
  5
53
102
{ACAD_REACTORS
330
47
102
}
330
47
100
AcDbScale
 70
     0
300
1:100
140
1.0
141
100.0
290
     0
  0
SCALE
  5
54
102
{ACAD_REACTORS
330
47
102
}
330
47
100
AcDbScale
 70
     0
300
2:1
140
2.0
141
1.0
290
     0
  0
SCALE
  5
55
102
{ACAD_REACTORS
330
47
102
}
330
47
100
AcDbScale
 70
     0
300
4:1
140
4.0
141
1.0
290
     0
  0
SCALE
  5
56
102
{ACAD_REACTORS
330
47
102
}
330
47
100
AcDbScale
 70
     0
300
8:1
140
8.0
141
1.0
290
     0
  0
SCALE
  5
57
102
{ACAD_REACTORS
330
47
102
}
330
47
100
AcDbScale
 70
     0
300
10:1
140
10.0
141
1.0
290
     0
  0
SCALE
  5
58
102
{ACAD_REACTORS
330
47
102
}
330
47
100
AcDbScale
 70
     0
300
100:1
140
100.0
141
1.0
290
     0
  0
SCALE
  5
59
102
{ACAD_REACTORS
330
47
102
}
330
47
100
AcDbScale
 70
     0
300
1/128" = 1'-0"
140
0.0078125
141
12.0
290
     0
  0
SCALE
  5
5A
102
{ACAD_REACTORS
330
47
102
}
330
47
100
AcDbScale
 70
     0
300
1/64" = 1'-0"
140
0.015625
141
12.0
290
     0
  0
SCALE
  5
5B
102
{ACAD_REACTORS
330
47
102
}
330
47
100
AcDbScale
 70
     0
300
1/32" = 1'-0"
140
0.03125
141
12.0
290
     0
  0
SCALE
  5
5C
102
{ACAD_REACTORS
330
47
102
}
330
47
100
AcDbScale
 70
     0
300
1/16" = 1'-0"
140
0.0625
141
12.0
290
     0
  0
SCALE
  5
5D
102
{ACAD_REACTORS
330
47
102
}
330
47
100
AcDbScale
 70
     0
300
3/32" = 1'-0"
140
0.09375
141
12.0
290
     0
  0
SCALE
  5
5E
102
{ACAD_REACTORS
330
47
102
}
330
47
100
AcDbScale
 70
     0
300
1/8" = 1'-0"
140
0.125
141
12.0
290
     0
  0
SCALE
  5
5F
102
{ACAD_REACTORS
330
47
102
}
330
47
100
AcDbScale
 70
     0
300
3/16" = 1'-0"
140
0.1875
141
12.0
290
     0
  0
SCALE
  5
60
102
{ACAD_REACTORS
330
47
102
}
330
47
100
AcDbScale
 70
     0
300
1/4" = 1'-0"
140
0.25
141
12.0
290
     0
  0
SCALE
  5
61
102
{ACAD_REACTORS
330
47
102
}
330
47
100
AcDbScale
 70
     0
300
3/8" = 1'-0"
140
0.375
141
12.0
290
     0
  0
SCALE
  5
62
102
{ACAD_REACTORS
330
47
102
}
330
47
100
AcDbScale
 70
     0
300
1/2" = 1'-0"
140
0.5
141
12.0
290
     0
  0
SCALE
  5
63
102
{ACAD_REACTORS
330
47
102
}
330
47
100
AcDbScale
 70
     0
300
3/4" = 1'-0"
140
0.75
141
12.0
290
     0
  0
SCALE
  5
64
102
{ACAD_REACTORS
330
47
102
}
330
47
100
AcDbScale
 70
     0
300
1" = 1'-0"
140
1.0
141
12.0
290
     0
  0
SCALE
  5
65
102
{ACAD_REACTORS
330
47
102
}
330
47
100
AcDbScale
 70
     0
300
1-1/2" = 1'-0"
140
1.5
141
12.0
290
     0
  0
SCALE
  5
66
102
{ACAD_REACTORS
330
47
102
}
330
47
100
AcDbScale
 70
     0
300
3" = 1'-0"
140
3.0
141
12.0
290
     0
  0
SCALE
  5
67
102
{ACAD_REACTORS
330
47
102
}
330
47
100
AcDbScale
 70
     0
300
6" = 1'-0"
140
6.0
141
12.0
290
     0
  0
SCALE
  5
68
102
{ACAD_REACTORS
330
47
102
}
330
47
100
AcDbScale
 70
     0
300
1'-0" = 1'-0"
140
12.0
141
12.0
290
     0
  0
ENDSEC
  0
EOF
