G04*
G04 #@! TF.GenerationSoftware,Altium Limited,Altium Designer,19.0.11 (319)*
G04*
G04 Layer_Physical_Order=2*
G04 Layer_Color=16711680*
%FSLAX25Y25*%
%MOIN*%
G70*
G01*
G75*
%ADD14C,0.01200*%
%ADD15C,0.01000*%
%ADD18C,0.02000*%
%ADD21C,0.02800*%
%ADD22C,0.05906*%
%ADD23R,0.05906X0.05906*%
%ADD24C,0.05000*%
%ADD25R,0.05906X0.05906*%
%ADD26O,0.07874X0.03937*%
%ADD27R,0.07874X0.03937*%
%ADD28C,0.06000*%
%ADD29C,0.03937*%
%ADD30O,0.03937X0.07874*%
%ADD31R,0.03937X0.07874*%
%ADD32R,0.02756X0.05315*%
%ADD33R,0.05906X0.07480*%
%ADD34C,0.04000*%
G36*
X155923Y336529D02*
X116482D01*
Y378971D01*
X155923D01*
Y336529D01*
D02*
G37*
G36*
X99947D02*
X60506D01*
Y378971D01*
X99947D01*
Y336529D01*
D02*
G37*
G36*
X43971D02*
X4529D01*
Y378971D01*
X43971D01*
Y336529D01*
D02*
G37*
G36*
X348471Y336529D02*
X316529D01*
Y378971D01*
X348471D01*
Y336529D01*
D02*
G37*
G36*
X303471D02*
X271529D01*
Y378971D01*
X303471D01*
Y336529D01*
D02*
G37*
G36*
X258471D02*
X226529D01*
Y378971D01*
X258471D01*
Y336529D01*
D02*
G37*
G36*
X213471D02*
X181529D01*
Y378971D01*
X213471D01*
Y336529D01*
D02*
G37*
G36*
X236372Y295342D02*
Y285655D01*
X235872Y285622D01*
X235753Y286530D01*
X235354Y287492D01*
X234721Y288318D01*
X233895Y288951D01*
X232933Y289350D01*
X231902Y289485D01*
X230870Y289350D01*
X229908Y288951D01*
X229331Y288508D01*
X228831Y288755D01*
Y292242D01*
X229331Y292489D01*
X229908Y292046D01*
X230870Y291648D01*
X231902Y291512D01*
X232933Y291648D01*
X233895Y292046D01*
X234721Y292679D01*
X235354Y293505D01*
X235753Y294467D01*
X235872Y295375D01*
X236372Y295342D01*
D02*
G37*
G36*
X123872D02*
Y285655D01*
X123372Y285622D01*
X123252Y286530D01*
X122854Y287492D01*
X122221Y288318D01*
X121395Y288951D01*
X120433Y289350D01*
X119402Y289485D01*
X118370Y289350D01*
X117408Y288951D01*
X116831Y288508D01*
X116331Y288755D01*
Y292242D01*
X116831Y292489D01*
X117408Y292046D01*
X118370Y291648D01*
X119402Y291512D01*
X120433Y291648D01*
X121395Y292046D01*
X122221Y292679D01*
X122854Y293505D01*
X123252Y294467D01*
X123372Y295375D01*
X123872Y295342D01*
D02*
G37*
G36*
X11372D02*
Y285655D01*
X10872Y285622D01*
X10752Y286530D01*
X10354Y287492D01*
X9721Y288318D01*
X8895Y288951D01*
X7933Y289350D01*
X6901Y289485D01*
X5870Y289350D01*
X4908Y288951D01*
X4331Y288508D01*
X3831Y288755D01*
Y292242D01*
X4331Y292489D01*
X4908Y292046D01*
X5870Y291648D01*
X6901Y291512D01*
X7933Y291648D01*
X8895Y292046D01*
X9721Y292679D01*
X10354Y293505D01*
X10752Y294467D01*
X10872Y295375D01*
X11372Y295342D01*
D02*
G37*
G36*
X313502Y326444D02*
Y325998D01*
X313531Y325083D01*
X313771Y323267D01*
X314245Y321498D01*
X314945Y319807D01*
X315861Y318220D01*
X316976Y316768D01*
X318271Y315473D01*
X319724Y314358D01*
X321309Y313442D01*
X323001Y312741D01*
X324770Y312267D01*
X326586Y312029D01*
X327502Y311999D01*
X327502Y311999D01*
X327502Y240498D01*
X326553Y240468D01*
X324673Y240220D01*
X322841Y239729D01*
X321088Y239003D01*
X319640Y238167D01*
X319333Y238567D01*
X323683Y242917D01*
X324014Y243413D01*
X324131Y243999D01*
Y261546D01*
X326554D01*
Y269451D01*
X319370D01*
X319179Y269913D01*
X321106Y271840D01*
X321570Y271648D01*
X322602Y271512D01*
X323633Y271648D01*
X324595Y272046D01*
X325421Y272679D01*
X326054Y273505D01*
X326452Y274467D01*
X326588Y275499D01*
X326452Y276530D01*
X326054Y277492D01*
X325421Y278318D01*
X324595Y278951D01*
X323633Y279349D01*
X322602Y279485D01*
X321570Y279349D01*
X320608Y278951D01*
X319782Y278318D01*
X319149Y277492D01*
X318751Y276530D01*
X318615Y275499D01*
X318751Y274467D01*
X318943Y274003D01*
X308920Y263980D01*
X308589Y263484D01*
X308472Y262898D01*
Y252619D01*
X307972Y252412D01*
X305957Y254427D01*
X306032Y254998D01*
X305911Y255912D01*
X305559Y256764D01*
X304998Y257495D01*
X304267Y258056D01*
X303415Y258408D01*
X302502Y258529D01*
X301588Y258408D01*
X300736Y258056D01*
X300005Y257495D01*
X299444Y256764D01*
X299092Y255912D01*
X298971Y254998D01*
X299046Y254427D01*
X297505Y252886D01*
X297063Y252224D01*
X297040Y252106D01*
X296540Y252155D01*
Y266374D01*
X304883Y274717D01*
X305215Y275213D01*
X305331Y275799D01*
Y277144D01*
X305567Y277241D01*
X306298Y277802D01*
X306859Y278533D01*
X307211Y279385D01*
X307332Y280298D01*
X307211Y281212D01*
X306859Y282064D01*
X306298Y282795D01*
X305567Y283356D01*
X305293Y283469D01*
X305392Y283969D01*
X318957D01*
X319149Y283505D01*
X319782Y282679D01*
X320608Y282046D01*
X321570Y281647D01*
X322602Y281512D01*
X323633Y281647D01*
X324595Y282046D01*
X325421Y282679D01*
X326054Y283505D01*
X326452Y284467D01*
X326588Y285498D01*
X326452Y286530D01*
X326054Y287492D01*
X325421Y288318D01*
X324595Y288951D01*
X323633Y289350D01*
X322602Y289485D01*
X321570Y289350D01*
X320608Y288951D01*
X319782Y288318D01*
X319149Y287492D01*
X318957Y287028D01*
X316974D01*
X309631Y294371D01*
Y306044D01*
X309867Y306141D01*
X310598Y306702D01*
X311159Y307433D01*
X311511Y308285D01*
X311632Y309198D01*
X311511Y310112D01*
X311159Y310964D01*
X310598Y311695D01*
X309867Y312256D01*
X309015Y312608D01*
X308102Y312729D01*
X307188Y312608D01*
X306336Y312256D01*
X305605Y311695D01*
X305044Y310964D01*
X304692Y310112D01*
X304571Y309198D01*
X304692Y308285D01*
X305044Y307433D01*
X305605Y306702D01*
X306336Y306141D01*
X306572Y306044D01*
Y293738D01*
X306688Y293153D01*
X307020Y292656D01*
X312187Y287490D01*
X311995Y287028D01*
X300002D01*
X299416Y286912D01*
X298920Y286580D01*
X286055Y273715D01*
X285723Y273218D01*
X285607Y272633D01*
Y247931D01*
X283699D01*
Y244273D01*
Y240616D01*
X290573D01*
Y244273D01*
Y247931D01*
X288666D01*
Y272000D01*
X300635Y283969D01*
X302211D01*
X302310Y283469D01*
X302036Y283356D01*
X301305Y282795D01*
X300744Y282064D01*
X300392Y281212D01*
X300271Y280298D01*
X300392Y279385D01*
X300744Y278533D01*
X301305Y277802D01*
X302036Y277241D01*
X302272Y277144D01*
Y276432D01*
X293929Y268089D01*
X293597Y267592D01*
X293481Y267007D01*
Y247931D01*
X291573D01*
Y244273D01*
Y240616D01*
X308472D01*
Y239132D01*
X308168Y238828D01*
X281735D01*
X280791Y239771D01*
Y240616D01*
X282699D01*
Y244273D01*
Y247931D01*
X275825D01*
Y244273D01*
X274825D01*
Y247931D01*
X267951D01*
Y244273D01*
Y240616D01*
X269859D01*
Y238612D01*
X269975Y238027D01*
X270307Y237530D01*
X274620Y233217D01*
X275116Y232886D01*
X275701Y232769D01*
X312901D01*
X313487Y232886D01*
X313983Y233217D01*
X314933Y234167D01*
X315333Y233860D01*
X314497Y232412D01*
X313771Y230659D01*
X313280Y228827D01*
X313033Y226947D01*
X313001Y225998D01*
X241501D01*
X241470Y226947D01*
X241223Y228827D01*
X240732Y230659D01*
X240006Y232412D01*
X239058Y234054D01*
X237903Y235559D01*
X236562Y236900D01*
X235057Y238055D01*
X233415Y239003D01*
X231662Y239729D01*
X229830Y240220D01*
X227950Y240468D01*
X227002Y240498D01*
X227002Y240498D01*
Y251882D01*
X227463Y252074D01*
X236345Y243192D01*
X236841Y242860D01*
X237427Y242744D01*
X245388D01*
Y240616D01*
X266951D01*
Y244273D01*
Y247931D01*
X265043D01*
Y257842D01*
X265767Y258141D01*
X266498Y258702D01*
X267059Y259433D01*
X267411Y260285D01*
X267532Y261198D01*
X267411Y262112D01*
X267059Y262964D01*
X266498Y263695D01*
X265767Y264256D01*
X264915Y264608D01*
X264001Y264729D01*
X263088Y264608D01*
X262236Y264256D01*
X261607Y263772D01*
X261106Y263928D01*
Y267923D01*
X260990Y268508D01*
X260659Y269004D01*
X243483Y286180D01*
X242987Y286511D01*
X242402Y286628D01*
X241816Y286511D01*
X241320Y286180D01*
X239893Y284753D01*
X239431Y284944D01*
Y305342D01*
X239931Y305375D01*
X240051Y304467D01*
X240449Y303505D01*
X241082Y302679D01*
X241908Y302046D01*
X242870Y301647D01*
X243402Y301577D01*
Y305499D01*
Y309419D01*
X242870Y309349D01*
X241908Y308951D01*
X241548Y308675D01*
X241217Y309051D01*
X243552Y311386D01*
X243788Y311289D01*
X244702Y311168D01*
X245615Y311289D01*
X246467Y311641D01*
X247198Y312202D01*
X247759Y312933D01*
X248111Y313785D01*
X248232Y314699D01*
X248111Y315612D01*
X247759Y316464D01*
X247198Y317195D01*
X246467Y317756D01*
X245615Y318108D01*
X244702Y318229D01*
X243788Y318108D01*
X242936Y317756D01*
X242205Y317195D01*
X241644Y316464D01*
X241292Y315612D01*
X241171Y314699D01*
X241292Y313785D01*
X241389Y313549D01*
X236820Y308980D01*
X236489Y308484D01*
X236372Y307898D01*
Y305655D01*
X235872Y305622D01*
X235842Y305853D01*
X235753Y306530D01*
X235354Y307492D01*
X234721Y308318D01*
X233895Y308951D01*
X232933Y309349D01*
X232401Y309419D01*
Y305499D01*
Y301577D01*
X232933Y301647D01*
X233895Y302046D01*
X234721Y302679D01*
X235354Y303505D01*
X235753Y304467D01*
X235842Y305144D01*
X235872Y305375D01*
X236372Y305342D01*
Y295655D01*
X235872Y295622D01*
X235753Y296530D01*
X235354Y297492D01*
X234721Y298318D01*
X233895Y298951D01*
X232933Y299349D01*
X231902Y299485D01*
X230870Y299349D01*
X229908Y298951D01*
X229082Y298318D01*
X228449Y297492D01*
X228050Y296530D01*
X227987Y296047D01*
X227463Y295523D01*
X227002Y295715D01*
Y311999D01*
X227950Y312030D01*
X229830Y312277D01*
X231662Y312768D01*
X233415Y313494D01*
X235057Y314442D01*
X236562Y315597D01*
X237903Y316938D01*
X239058Y318443D01*
X240006Y320085D01*
X240732Y321838D01*
X241223Y323670D01*
X241470Y325550D01*
X241501Y326499D01*
X241501Y326499D01*
X313147Y326797D01*
X313502Y326444D01*
D02*
G37*
G36*
X201002D02*
Y325998D01*
X201031Y325083D01*
X201271Y323267D01*
X201745Y321498D01*
X202445Y319807D01*
X203361Y318220D01*
X204476Y316768D01*
X205771Y315473D01*
X207224Y314358D01*
X208809Y313442D01*
X210501Y312741D01*
X212270Y312267D01*
X214086Y312029D01*
X215002Y311999D01*
X215002Y311999D01*
X215002Y240498D01*
X214053Y240468D01*
X212173Y240220D01*
X210341Y239729D01*
X208588Y239003D01*
X207140Y238167D01*
X206833Y238567D01*
X211183Y242917D01*
X211514Y243413D01*
X211631Y243999D01*
Y261546D01*
X214054D01*
Y269451D01*
X206870D01*
X206679Y269913D01*
X208606Y271840D01*
X209070Y271648D01*
X210102Y271512D01*
X211133Y271648D01*
X212095Y272046D01*
X212921Y272679D01*
X213554Y273505D01*
X213952Y274467D01*
X214088Y275499D01*
X213952Y276530D01*
X213554Y277492D01*
X212921Y278318D01*
X212095Y278951D01*
X211133Y279349D01*
X210102Y279485D01*
X209070Y279349D01*
X208108Y278951D01*
X207282Y278318D01*
X206649Y277492D01*
X206251Y276530D01*
X206115Y275499D01*
X206251Y274467D01*
X206443Y274003D01*
X196420Y263980D01*
X196089Y263484D01*
X195972Y262898D01*
Y252619D01*
X195472Y252412D01*
X193456Y254427D01*
X193532Y254998D01*
X193411Y255912D01*
X193059Y256764D01*
X192498Y257495D01*
X191767Y258056D01*
X190915Y258408D01*
X190001Y258529D01*
X189088Y258408D01*
X188236Y258056D01*
X187505Y257495D01*
X186944Y256764D01*
X186592Y255912D01*
X186471Y254998D01*
X186547Y254427D01*
X185005Y252886D01*
X184563Y252224D01*
X184540Y252106D01*
X184040Y252155D01*
Y266374D01*
X192383Y274717D01*
X192715Y275213D01*
X192831Y275799D01*
Y277144D01*
X193067Y277241D01*
X193798Y277802D01*
X194359Y278533D01*
X194711Y279385D01*
X194832Y280298D01*
X194711Y281212D01*
X194359Y282064D01*
X193798Y282795D01*
X193067Y283356D01*
X192793Y283469D01*
X192892Y283969D01*
X206457D01*
X206649Y283505D01*
X207282Y282679D01*
X208108Y282046D01*
X209070Y281647D01*
X210102Y281512D01*
X211133Y281647D01*
X212095Y282046D01*
X212921Y282679D01*
X213554Y283505D01*
X213952Y284467D01*
X214088Y285498D01*
X213952Y286530D01*
X213554Y287492D01*
X212921Y288318D01*
X212095Y288951D01*
X211133Y289350D01*
X210102Y289485D01*
X209070Y289350D01*
X208108Y288951D01*
X207282Y288318D01*
X206649Y287492D01*
X206457Y287028D01*
X204474D01*
X197131Y294371D01*
Y306044D01*
X197367Y306141D01*
X198098Y306702D01*
X198659Y307433D01*
X199011Y308285D01*
X199132Y309198D01*
X199011Y310112D01*
X198659Y310964D01*
X198098Y311695D01*
X197367Y312256D01*
X196515Y312608D01*
X195601Y312729D01*
X194688Y312608D01*
X193836Y312256D01*
X193105Y311695D01*
X192544Y310964D01*
X192192Y310112D01*
X192071Y309198D01*
X192192Y308285D01*
X192544Y307433D01*
X193105Y306702D01*
X193836Y306141D01*
X194072Y306044D01*
Y293738D01*
X194188Y293153D01*
X194520Y292656D01*
X199687Y287490D01*
X199495Y287028D01*
X187502D01*
X186916Y286912D01*
X186420Y286580D01*
X173555Y273715D01*
X173223Y273218D01*
X173107Y272633D01*
Y247931D01*
X171199D01*
Y244273D01*
Y240616D01*
X178073D01*
Y244273D01*
Y247931D01*
X176165D01*
Y272000D01*
X188135Y283969D01*
X189711D01*
X189810Y283469D01*
X189536Y283356D01*
X188805Y282795D01*
X188244Y282064D01*
X187892Y281212D01*
X187771Y280298D01*
X187892Y279385D01*
X188244Y278533D01*
X188805Y277802D01*
X189536Y277241D01*
X189772Y277144D01*
Y276432D01*
X181429Y268089D01*
X181097Y267592D01*
X180981Y267007D01*
Y247931D01*
X179073D01*
Y244273D01*
Y240616D01*
X195972D01*
Y239132D01*
X195668Y238828D01*
X169235D01*
X168291Y239771D01*
Y240616D01*
X170199D01*
Y244273D01*
Y247931D01*
X163325D01*
Y244273D01*
X162325D01*
Y247931D01*
X155451D01*
Y244273D01*
Y240616D01*
X157359D01*
Y238612D01*
X157475Y238027D01*
X157807Y237530D01*
X162120Y233217D01*
X162616Y232886D01*
X163201Y232769D01*
X200401D01*
X200987Y232886D01*
X201483Y233217D01*
X202433Y234167D01*
X202833Y233860D01*
X201997Y232412D01*
X201271Y230659D01*
X200780Y228827D01*
X200533Y226947D01*
X200501Y225998D01*
X129001D01*
X128971Y226947D01*
X128723Y228827D01*
X128232Y230659D01*
X127506Y232412D01*
X126558Y234054D01*
X125403Y235559D01*
X124062Y236900D01*
X122557Y238055D01*
X120915Y239003D01*
X119162Y239729D01*
X117330Y240220D01*
X115450Y240468D01*
X114502Y240498D01*
X114502Y240498D01*
Y251882D01*
X114963Y252074D01*
X123845Y243192D01*
X124341Y242860D01*
X124927Y242744D01*
X132888D01*
Y240616D01*
X154451D01*
Y244273D01*
Y247931D01*
X152543D01*
Y257842D01*
X153267Y258141D01*
X153998Y258702D01*
X154559Y259433D01*
X154911Y260285D01*
X155032Y261198D01*
X154911Y262112D01*
X154559Y262964D01*
X153998Y263695D01*
X153267Y264256D01*
X152415Y264608D01*
X151502Y264729D01*
X150588Y264608D01*
X149736Y264256D01*
X149107Y263772D01*
X148607Y263928D01*
Y267923D01*
X148490Y268508D01*
X148159Y269004D01*
X130983Y286180D01*
X130487Y286511D01*
X129902Y286628D01*
X129316Y286511D01*
X128820Y286180D01*
X127393Y284753D01*
X126931Y284944D01*
Y305342D01*
X127431Y305375D01*
X127550Y304467D01*
X127949Y303505D01*
X128582Y302679D01*
X129408Y302046D01*
X130370Y301647D01*
X130902Y301577D01*
Y305499D01*
Y309419D01*
X130370Y309349D01*
X129408Y308951D01*
X129048Y308675D01*
X128717Y309051D01*
X131052Y311386D01*
X131288Y311289D01*
X132202Y311168D01*
X133115Y311289D01*
X133967Y311641D01*
X134698Y312202D01*
X135259Y312933D01*
X135611Y313785D01*
X135732Y314699D01*
X135611Y315612D01*
X135259Y316464D01*
X134698Y317195D01*
X133967Y317756D01*
X133115Y318108D01*
X132202Y318229D01*
X131288Y318108D01*
X130436Y317756D01*
X129705Y317195D01*
X129144Y316464D01*
X128792Y315612D01*
X128671Y314699D01*
X128792Y313785D01*
X128889Y313549D01*
X124320Y308980D01*
X123988Y308484D01*
X123872Y307898D01*
Y305655D01*
X123372Y305622D01*
X123342Y305853D01*
X123252Y306530D01*
X122854Y307492D01*
X122221Y308318D01*
X121395Y308951D01*
X120433Y309349D01*
X119902Y309419D01*
Y305499D01*
Y301577D01*
X120433Y301647D01*
X121395Y302046D01*
X122221Y302679D01*
X122854Y303505D01*
X123252Y304467D01*
X123342Y305144D01*
X123372Y305375D01*
X123872Y305342D01*
Y295655D01*
X123372Y295622D01*
X123252Y296530D01*
X122854Y297492D01*
X122221Y298318D01*
X121395Y298951D01*
X120433Y299349D01*
X119402Y299485D01*
X118370Y299349D01*
X117408Y298951D01*
X116582Y298318D01*
X115949Y297492D01*
X115550Y296530D01*
X115487Y296047D01*
X114963Y295523D01*
X114502Y295715D01*
Y311999D01*
X115450Y312030D01*
X117330Y312277D01*
X119162Y312768D01*
X120915Y313494D01*
X122557Y314442D01*
X124062Y315597D01*
X125403Y316938D01*
X126558Y318443D01*
X127506Y320085D01*
X128232Y321838D01*
X128723Y323670D01*
X128970Y325550D01*
X129001Y326499D01*
X129001Y326499D01*
X200647Y326797D01*
X201002Y326444D01*
D02*
G37*
G36*
X88502D02*
Y325998D01*
X88532Y325083D01*
X88771Y323267D01*
X89245Y321498D01*
X89945Y319807D01*
X90861Y318220D01*
X91976Y316768D01*
X93271Y315473D01*
X94723Y314358D01*
X96310Y313442D01*
X98001Y312741D01*
X99770Y312267D01*
X101586Y312029D01*
X102501Y311999D01*
X102501Y311999D01*
X102501Y240498D01*
X101553Y240468D01*
X99673Y240220D01*
X97841Y239729D01*
X96088Y239003D01*
X94640Y238167D01*
X94333Y238567D01*
X98683Y242917D01*
X99015Y243413D01*
X99131Y243999D01*
Y261546D01*
X101554D01*
Y269451D01*
X94370D01*
X94179Y269913D01*
X96106Y271840D01*
X96570Y271648D01*
X97601Y271512D01*
X98633Y271648D01*
X99595Y272046D01*
X100421Y272679D01*
X101054Y273505D01*
X101453Y274467D01*
X101588Y275499D01*
X101453Y276530D01*
X101054Y277492D01*
X100421Y278318D01*
X99595Y278951D01*
X98633Y279349D01*
X97601Y279485D01*
X96570Y279349D01*
X95608Y278951D01*
X94782Y278318D01*
X94149Y277492D01*
X93751Y276530D01*
X93615Y275499D01*
X93751Y274467D01*
X93943Y274003D01*
X83920Y263980D01*
X83588Y263484D01*
X83472Y262898D01*
Y252619D01*
X82972Y252412D01*
X80957Y254427D01*
X81032Y254998D01*
X80911Y255912D01*
X80559Y256764D01*
X79998Y257495D01*
X79267Y258056D01*
X78415Y258408D01*
X77501Y258529D01*
X76588Y258408D01*
X75736Y258056D01*
X75005Y257495D01*
X74444Y256764D01*
X74092Y255912D01*
X73971Y254998D01*
X74046Y254427D01*
X72505Y252886D01*
X72063Y252224D01*
X72040Y252106D01*
X71540Y252155D01*
Y266374D01*
X79883Y274717D01*
X80215Y275213D01*
X80331Y275799D01*
Y277144D01*
X80567Y277241D01*
X81298Y277802D01*
X81859Y278533D01*
X82211Y279385D01*
X82332Y280298D01*
X82211Y281212D01*
X81859Y282064D01*
X81298Y282795D01*
X80567Y283356D01*
X80293Y283469D01*
X80392Y283969D01*
X93957D01*
X94149Y283505D01*
X94782Y282679D01*
X95608Y282046D01*
X96570Y281647D01*
X97601Y281512D01*
X98633Y281647D01*
X99595Y282046D01*
X100421Y282679D01*
X101054Y283505D01*
X101453Y284467D01*
X101588Y285498D01*
X101453Y286530D01*
X101054Y287492D01*
X100421Y288318D01*
X99595Y288951D01*
X98633Y289350D01*
X97601Y289485D01*
X96570Y289350D01*
X95608Y288951D01*
X94782Y288318D01*
X94149Y287492D01*
X93957Y287028D01*
X91974D01*
X84631Y294371D01*
Y306044D01*
X84867Y306141D01*
X85598Y306702D01*
X86159Y307433D01*
X86511Y308285D01*
X86632Y309198D01*
X86511Y310112D01*
X86159Y310964D01*
X85598Y311695D01*
X84867Y312256D01*
X84015Y312608D01*
X83101Y312729D01*
X82188Y312608D01*
X81336Y312256D01*
X80605Y311695D01*
X80044Y310964D01*
X79692Y310112D01*
X79571Y309198D01*
X79692Y308285D01*
X80044Y307433D01*
X80605Y306702D01*
X81336Y306141D01*
X81572Y306044D01*
Y293738D01*
X81688Y293153D01*
X82020Y292656D01*
X87187Y287490D01*
X86995Y287028D01*
X75002D01*
X74416Y286912D01*
X73920Y286580D01*
X61055Y273715D01*
X60723Y273218D01*
X60607Y272633D01*
Y247931D01*
X58699D01*
Y244273D01*
Y240616D01*
X65573D01*
Y244273D01*
Y247931D01*
X63665D01*
Y272000D01*
X75635Y283969D01*
X77211D01*
X77310Y283469D01*
X77036Y283356D01*
X76305Y282795D01*
X75744Y282064D01*
X75392Y281212D01*
X75271Y280298D01*
X75392Y279385D01*
X75744Y278533D01*
X76305Y277802D01*
X77036Y277241D01*
X77272Y277144D01*
Y276432D01*
X68929Y268089D01*
X68597Y267592D01*
X68481Y267007D01*
Y247931D01*
X66573D01*
Y244273D01*
Y240616D01*
X83472D01*
Y239132D01*
X83168Y238828D01*
X56735D01*
X55791Y239771D01*
Y240616D01*
X57699D01*
Y244273D01*
Y247931D01*
X50825D01*
Y244273D01*
X49825D01*
Y247931D01*
X42951D01*
Y244273D01*
Y240616D01*
X44859D01*
Y238612D01*
X44975Y238027D01*
X45307Y237530D01*
X49620Y233217D01*
X50116Y232886D01*
X50701Y232769D01*
X87902D01*
X88487Y232886D01*
X88983Y233217D01*
X89933Y234167D01*
X90333Y233860D01*
X89497Y232412D01*
X88771Y230659D01*
X88280Y228827D01*
X88033Y226947D01*
X88002Y225998D01*
X16501D01*
X16470Y226947D01*
X16223Y228827D01*
X15732Y230659D01*
X15006Y232412D01*
X14058Y234054D01*
X12903Y235559D01*
X11562Y236900D01*
X10057Y238055D01*
X8415Y239003D01*
X6662Y239729D01*
X4830Y240220D01*
X2950Y240468D01*
X2001Y240498D01*
X2001Y240498D01*
Y251882D01*
X2463Y252074D01*
X11345Y243192D01*
X11841Y242860D01*
X12427Y242744D01*
X20388D01*
Y240616D01*
X41951D01*
Y244273D01*
Y247931D01*
X40044D01*
Y257842D01*
X40767Y258141D01*
X41498Y258702D01*
X42059Y259433D01*
X42411Y260285D01*
X42532Y261198D01*
X42411Y262112D01*
X42059Y262964D01*
X41498Y263695D01*
X40767Y264256D01*
X39915Y264608D01*
X39002Y264729D01*
X38088Y264608D01*
X37236Y264256D01*
X36606Y263772D01*
X36107Y263928D01*
Y267923D01*
X35990Y268508D01*
X35658Y269004D01*
X18483Y286180D01*
X17987Y286511D01*
X17402Y286628D01*
X16816Y286511D01*
X16320Y286180D01*
X14893Y284753D01*
X14431Y284944D01*
Y305342D01*
X14931Y305375D01*
X15051Y304467D01*
X15449Y303505D01*
X16082Y302679D01*
X16908Y302046D01*
X17870Y301647D01*
X18402Y301577D01*
Y305499D01*
Y309419D01*
X17870Y309349D01*
X16908Y308951D01*
X16548Y308675D01*
X16217Y309051D01*
X18552Y311386D01*
X18788Y311289D01*
X19702Y311168D01*
X20615Y311289D01*
X21467Y311641D01*
X22198Y312202D01*
X22759Y312933D01*
X23111Y313785D01*
X23232Y314699D01*
X23111Y315612D01*
X22759Y316464D01*
X22198Y317195D01*
X21467Y317756D01*
X20615Y318108D01*
X19702Y318229D01*
X18788Y318108D01*
X17936Y317756D01*
X17205Y317195D01*
X16644Y316464D01*
X16292Y315612D01*
X16171Y314699D01*
X16292Y313785D01*
X16389Y313549D01*
X11820Y308980D01*
X11489Y308484D01*
X11372Y307898D01*
Y305655D01*
X10872Y305622D01*
X10842Y305853D01*
X10752Y306530D01*
X10354Y307492D01*
X9721Y308318D01*
X8895Y308951D01*
X7933Y309349D01*
X7401Y309419D01*
Y305499D01*
Y301577D01*
X7933Y301647D01*
X8895Y302046D01*
X9721Y302679D01*
X10354Y303505D01*
X10752Y304467D01*
X10842Y305144D01*
X10872Y305375D01*
X11372Y305342D01*
Y295655D01*
X10872Y295622D01*
X10752Y296530D01*
X10354Y297492D01*
X9721Y298318D01*
X8895Y298951D01*
X7933Y299349D01*
X6901Y299485D01*
X5870Y299349D01*
X4908Y298951D01*
X4082Y298318D01*
X3449Y297492D01*
X3050Y296530D01*
X2987Y296047D01*
X2463Y295523D01*
X2001Y295715D01*
Y311999D01*
X2950Y312030D01*
X4830Y312277D01*
X6662Y312768D01*
X8415Y313494D01*
X10057Y314442D01*
X11562Y315597D01*
X12903Y316938D01*
X14058Y318443D01*
X15006Y320085D01*
X15732Y321838D01*
X16223Y323670D01*
X16470Y325550D01*
X16501Y326499D01*
X16501Y326499D01*
X88147Y326797D01*
X88502Y326444D01*
D02*
G37*
G36*
X378471Y272029D02*
X336029D01*
Y303971D01*
X378471D01*
Y272029D01*
D02*
G37*
G36*
X239970Y279797D02*
X239944Y279764D01*
X239592Y278912D01*
X239471Y277998D01*
X239592Y277085D01*
X239944Y276233D01*
X240505Y275502D01*
X241236Y274941D01*
X242088Y274589D01*
X243002Y274468D01*
X243915Y274589D01*
X244151Y274686D01*
X244677Y274160D01*
X244413Y273717D01*
X243588Y273608D01*
X242736Y273256D01*
X242005Y272695D01*
X241444Y271964D01*
X241092Y271112D01*
X240971Y270198D01*
X241092Y269285D01*
X241444Y268433D01*
X242005Y267702D01*
X242736Y267141D01*
X243588Y266789D01*
X244501Y266668D01*
X245415Y266789D01*
X245651Y266886D01*
X250174Y262363D01*
Y247931D01*
X245388D01*
Y245803D01*
X238060D01*
X228831Y255032D01*
Y261546D01*
X235854D01*
Y269451D01*
X228831D01*
Y272242D01*
X229331Y272489D01*
X229908Y272046D01*
X230870Y271648D01*
X231902Y271512D01*
X232933Y271648D01*
X233895Y272046D01*
X234721Y272679D01*
X235354Y273505D01*
X235753Y274467D01*
X235888Y275499D01*
X235781Y276315D01*
X239593Y280127D01*
X239970Y279797D01*
D02*
G37*
G36*
X127470D02*
X127444Y279764D01*
X127092Y278912D01*
X126971Y277998D01*
X127092Y277085D01*
X127444Y276233D01*
X128005Y275502D01*
X128736Y274941D01*
X129588Y274589D01*
X130501Y274468D01*
X131415Y274589D01*
X131651Y274686D01*
X132177Y274160D01*
X131913Y273717D01*
X131088Y273608D01*
X130236Y273256D01*
X129505Y272695D01*
X128944Y271964D01*
X128592Y271112D01*
X128471Y270198D01*
X128592Y269285D01*
X128944Y268433D01*
X129505Y267702D01*
X130236Y267141D01*
X131088Y266789D01*
X132001Y266668D01*
X132915Y266789D01*
X133151Y266886D01*
X137674Y262363D01*
Y247931D01*
X132888D01*
Y245803D01*
X125560D01*
X116331Y255032D01*
Y261546D01*
X123354D01*
Y269451D01*
X116331D01*
Y272242D01*
X116831Y272489D01*
X117408Y272046D01*
X118370Y271648D01*
X119402Y271512D01*
X120433Y271648D01*
X121395Y272046D01*
X122221Y272679D01*
X122854Y273505D01*
X123252Y274467D01*
X123388Y275499D01*
X123281Y276315D01*
X127093Y280127D01*
X127470Y279797D01*
D02*
G37*
G36*
X14970D02*
X14944Y279764D01*
X14592Y278912D01*
X14471Y277998D01*
X14592Y277085D01*
X14944Y276233D01*
X15505Y275502D01*
X16236Y274941D01*
X17088Y274589D01*
X18001Y274468D01*
X18915Y274589D01*
X19151Y274686D01*
X19677Y274160D01*
X19413Y273717D01*
X18588Y273608D01*
X17736Y273256D01*
X17005Y272695D01*
X16444Y271964D01*
X16092Y271112D01*
X15971Y270198D01*
X16092Y269285D01*
X16444Y268433D01*
X17005Y267702D01*
X17736Y267141D01*
X18588Y266789D01*
X19501Y266668D01*
X20415Y266789D01*
X20651Y266886D01*
X25174Y262363D01*
Y247931D01*
X20388D01*
Y245803D01*
X13060D01*
X3831Y255032D01*
Y261546D01*
X10854D01*
Y269451D01*
X3831D01*
Y272242D01*
X4331Y272489D01*
X4908Y272046D01*
X5870Y271648D01*
X6901Y271512D01*
X7933Y271648D01*
X8895Y272046D01*
X9721Y272679D01*
X10354Y273505D01*
X10752Y274467D01*
X10888Y275499D01*
X10781Y276315D01*
X14593Y280127D01*
X14970Y279797D01*
D02*
G37*
G36*
X258048Y267289D02*
Y247931D01*
X257170D01*
Y265360D01*
X257053Y265945D01*
X256721Y266441D01*
X246314Y276849D01*
X246411Y277085D01*
X246532Y277998D01*
X246517Y278113D01*
X246990Y278347D01*
X258048Y267289D01*
D02*
G37*
G36*
X254111Y264726D02*
Y247931D01*
X253233D01*
Y262997D01*
X253116Y263582D01*
X252784Y264078D01*
X247814Y269049D01*
X247911Y269285D01*
X248020Y270110D01*
X248463Y270374D01*
X254111Y264726D01*
D02*
G37*
G36*
X145548Y267289D02*
Y247931D01*
X144669D01*
Y265360D01*
X144553Y265945D01*
X144221Y266441D01*
X133814Y276849D01*
X133911Y277085D01*
X134032Y277998D01*
X134017Y278113D01*
X134490Y278347D01*
X145548Y267289D01*
D02*
G37*
G36*
X141611Y264726D02*
Y247931D01*
X140733D01*
Y262997D01*
X140616Y263582D01*
X140285Y264078D01*
X135314Y269049D01*
X135411Y269285D01*
X135520Y270110D01*
X135963Y270374D01*
X141611Y264726D01*
D02*
G37*
G36*
X33048Y267289D02*
Y247931D01*
X32169D01*
Y265360D01*
X32053Y265945D01*
X31721Y266441D01*
X21314Y276849D01*
X21411Y277085D01*
X21532Y277998D01*
X21517Y278113D01*
X21990Y278347D01*
X33048Y267289D01*
D02*
G37*
G36*
X29111Y264726D02*
Y247931D01*
X28232D01*
Y262997D01*
X28116Y263582D01*
X27784Y264078D01*
X22814Y269049D01*
X22911Y269285D01*
X23020Y270110D01*
X23463Y270374D01*
X29111Y264726D01*
D02*
G37*
G36*
X318649Y268730D02*
Y261546D01*
X321072D01*
Y244632D01*
X312268Y235828D01*
X310178D01*
X310131Y235891D01*
X309994Y236328D01*
X311083Y237417D01*
X311415Y237913D01*
X311531Y238498D01*
Y250458D01*
X313802D01*
Y255199D01*
Y259939D01*
X311531D01*
Y262265D01*
X318187Y268921D01*
X318649Y268730D01*
D02*
G37*
G36*
X206149D02*
Y261546D01*
X208572D01*
Y244632D01*
X199768Y235828D01*
X197678D01*
X197631Y235891D01*
X197494Y236328D01*
X198583Y237417D01*
X198915Y237913D01*
X199031Y238498D01*
Y250458D01*
X201302D01*
Y255199D01*
Y259939D01*
X199031D01*
Y262265D01*
X205687Y268921D01*
X206149Y268730D01*
D02*
G37*
G36*
X93649D02*
Y261546D01*
X96072D01*
Y244632D01*
X87268Y235828D01*
X85179D01*
X85131Y235891D01*
X84994Y236328D01*
X86083Y237417D01*
X86414Y237913D01*
X86531Y238498D01*
Y250458D01*
X88801D01*
Y255199D01*
Y259939D01*
X86531D01*
Y262265D01*
X93187Y268921D01*
X93649Y268730D01*
D02*
G37*
G36*
X378471Y227029D02*
X336029D01*
Y258971D01*
X378471D01*
Y227029D01*
D02*
G37*
G36*
Y182029D02*
X336029D01*
Y213971D01*
X378471D01*
Y182029D01*
D02*
G37*
G36*
X236372Y182842D02*
Y173155D01*
X235872Y173122D01*
X235753Y174030D01*
X235354Y174992D01*
X234721Y175818D01*
X233895Y176451D01*
X232933Y176849D01*
X231902Y176985D01*
X230870Y176849D01*
X229908Y176451D01*
X229331Y176008D01*
X228831Y176255D01*
Y179742D01*
X229331Y179989D01*
X229908Y179546D01*
X230870Y179148D01*
X231902Y179012D01*
X232933Y179148D01*
X233895Y179546D01*
X234721Y180179D01*
X235354Y181005D01*
X235753Y181967D01*
X235872Y182875D01*
X236372Y182842D01*
D02*
G37*
G36*
X123872D02*
Y173155D01*
X123372Y173122D01*
X123252Y174030D01*
X122854Y174992D01*
X122221Y175818D01*
X121395Y176451D01*
X120433Y176849D01*
X119402Y176985D01*
X118370Y176849D01*
X117408Y176451D01*
X116831Y176008D01*
X116331Y176255D01*
Y179742D01*
X116831Y179989D01*
X117408Y179546D01*
X118370Y179148D01*
X119402Y179012D01*
X120433Y179148D01*
X121395Y179546D01*
X122221Y180179D01*
X122854Y181005D01*
X123252Y181967D01*
X123372Y182875D01*
X123872Y182842D01*
D02*
G37*
G36*
X11372D02*
Y173155D01*
X10872Y173122D01*
X10752Y174030D01*
X10354Y174992D01*
X9721Y175818D01*
X8895Y176451D01*
X7933Y176849D01*
X6901Y176985D01*
X5870Y176849D01*
X4908Y176451D01*
X4331Y176008D01*
X3831Y176255D01*
Y179742D01*
X4331Y179989D01*
X4908Y179546D01*
X5870Y179148D01*
X6901Y179012D01*
X7933Y179148D01*
X8895Y179546D01*
X9721Y180179D01*
X10354Y181005D01*
X10752Y181967D01*
X10872Y182875D01*
X11372Y182842D01*
D02*
G37*
G36*
X313502Y213944D02*
Y213498D01*
X313531Y212583D01*
X313771Y210767D01*
X314245Y208998D01*
X314945Y207307D01*
X315861Y205720D01*
X316976Y204268D01*
X318271Y202973D01*
X319724Y201858D01*
X321309Y200942D01*
X323001Y200241D01*
X324770Y199767D01*
X326586Y199529D01*
X327502Y199498D01*
X327502Y199498D01*
X327502Y127998D01*
X326553Y127968D01*
X324673Y127720D01*
X322841Y127229D01*
X321088Y126503D01*
X319640Y125667D01*
X319333Y126067D01*
X323683Y130417D01*
X324014Y130913D01*
X324131Y131499D01*
Y149046D01*
X326554D01*
Y156951D01*
X319370D01*
X319179Y157413D01*
X321106Y159340D01*
X321570Y159148D01*
X322602Y159012D01*
X323633Y159148D01*
X324595Y159546D01*
X325421Y160179D01*
X326054Y161005D01*
X326452Y161967D01*
X326588Y162998D01*
X326452Y164030D01*
X326054Y164992D01*
X325421Y165818D01*
X324595Y166451D01*
X323633Y166850D01*
X322602Y166985D01*
X321570Y166850D01*
X320608Y166451D01*
X319782Y165818D01*
X319149Y164992D01*
X318751Y164030D01*
X318615Y162998D01*
X318751Y161967D01*
X318943Y161503D01*
X308920Y151480D01*
X308589Y150984D01*
X308472Y150399D01*
Y140119D01*
X307972Y139912D01*
X305957Y141927D01*
X306032Y142499D01*
X305911Y143412D01*
X305559Y144264D01*
X304998Y144995D01*
X304267Y145556D01*
X303415Y145908D01*
X302502Y146029D01*
X301588Y145908D01*
X300736Y145556D01*
X300005Y144995D01*
X299444Y144264D01*
X299092Y143412D01*
X298971Y142499D01*
X299046Y141927D01*
X297505Y140386D01*
X297063Y139725D01*
X297040Y139606D01*
X296540Y139655D01*
Y153874D01*
X304883Y162217D01*
X305215Y162713D01*
X305331Y163298D01*
Y164644D01*
X305567Y164741D01*
X306298Y165302D01*
X306859Y166033D01*
X307211Y166885D01*
X307332Y167798D01*
X307211Y168712D01*
X306859Y169564D01*
X306298Y170295D01*
X305567Y170856D01*
X305293Y170969D01*
X305392Y171469D01*
X318957D01*
X319149Y171005D01*
X319782Y170179D01*
X320608Y169546D01*
X321570Y169148D01*
X322602Y169012D01*
X323633Y169148D01*
X324595Y169546D01*
X325421Y170179D01*
X326054Y171005D01*
X326452Y171967D01*
X326588Y172998D01*
X326452Y174030D01*
X326054Y174992D01*
X325421Y175818D01*
X324595Y176451D01*
X323633Y176849D01*
X322602Y176985D01*
X321570Y176849D01*
X320608Y176451D01*
X319782Y175818D01*
X319149Y174992D01*
X318957Y174528D01*
X316974D01*
X309631Y181871D01*
Y193544D01*
X309867Y193641D01*
X310598Y194202D01*
X311159Y194933D01*
X311511Y195785D01*
X311632Y196698D01*
X311511Y197612D01*
X311159Y198464D01*
X310598Y199195D01*
X309867Y199756D01*
X309015Y200108D01*
X308102Y200229D01*
X307188Y200108D01*
X306336Y199756D01*
X305605Y199195D01*
X305044Y198464D01*
X304692Y197612D01*
X304571Y196698D01*
X304692Y195785D01*
X305044Y194933D01*
X305605Y194202D01*
X306336Y193641D01*
X306572Y193544D01*
Y181238D01*
X306688Y180653D01*
X307020Y180156D01*
X312187Y174990D01*
X311995Y174528D01*
X300002D01*
X299416Y174411D01*
X298920Y174080D01*
X286055Y161215D01*
X285723Y160718D01*
X285607Y160133D01*
Y135431D01*
X283699D01*
Y131773D01*
Y128116D01*
X290573D01*
Y131773D01*
Y135431D01*
X288666D01*
Y159500D01*
X300635Y171469D01*
X302211D01*
X302310Y170969D01*
X302036Y170856D01*
X301305Y170295D01*
X300744Y169564D01*
X300392Y168712D01*
X300271Y167798D01*
X300392Y166885D01*
X300744Y166033D01*
X301305Y165302D01*
X302036Y164741D01*
X302272Y164644D01*
Y163932D01*
X293929Y155589D01*
X293597Y155092D01*
X293481Y154507D01*
Y135431D01*
X291573D01*
Y131773D01*
Y128116D01*
X308472D01*
Y126632D01*
X308168Y126328D01*
X281735D01*
X280791Y127271D01*
Y128116D01*
X282699D01*
Y131773D01*
Y135431D01*
X275825D01*
Y131773D01*
X274825D01*
Y135431D01*
X267951D01*
Y131773D01*
Y128116D01*
X269859D01*
Y126112D01*
X269975Y125527D01*
X270307Y125030D01*
X274620Y120717D01*
X275116Y120386D01*
X275701Y120269D01*
X312901D01*
X313487Y120386D01*
X313983Y120717D01*
X314933Y121667D01*
X315333Y121360D01*
X314497Y119912D01*
X313771Y118159D01*
X313280Y116327D01*
X313033Y114447D01*
X313001Y113498D01*
X241501D01*
X241470Y114447D01*
X241223Y116327D01*
X240732Y118159D01*
X240006Y119912D01*
X239058Y121554D01*
X237903Y123059D01*
X236562Y124400D01*
X235057Y125555D01*
X233415Y126503D01*
X231662Y127229D01*
X229830Y127720D01*
X227950Y127968D01*
X227002Y127998D01*
X227002Y127998D01*
Y139382D01*
X227463Y139574D01*
X236345Y130692D01*
X236841Y130360D01*
X237427Y130244D01*
X245388D01*
Y128116D01*
X266951D01*
Y131773D01*
Y135431D01*
X265043D01*
Y145342D01*
X265767Y145641D01*
X266498Y146202D01*
X267059Y146933D01*
X267411Y147785D01*
X267532Y148698D01*
X267411Y149612D01*
X267059Y150464D01*
X266498Y151195D01*
X265767Y151756D01*
X264915Y152108D01*
X264001Y152229D01*
X263088Y152108D01*
X262236Y151756D01*
X261607Y151272D01*
X261106Y151428D01*
Y155423D01*
X260990Y156008D01*
X260659Y156504D01*
X243483Y173680D01*
X242987Y174012D01*
X242402Y174128D01*
X241816Y174012D01*
X241320Y173680D01*
X239893Y172253D01*
X239431Y172444D01*
Y192842D01*
X239931Y192875D01*
X240051Y191967D01*
X240449Y191005D01*
X241082Y190179D01*
X241908Y189546D01*
X242870Y189147D01*
X243402Y189077D01*
Y192999D01*
Y196920D01*
X242870Y196850D01*
X241908Y196451D01*
X241548Y196175D01*
X241217Y196551D01*
X243552Y198886D01*
X243788Y198789D01*
X244702Y198668D01*
X245615Y198789D01*
X246467Y199141D01*
X247198Y199702D01*
X247759Y200433D01*
X248111Y201285D01*
X248232Y202199D01*
X248111Y203112D01*
X247759Y203964D01*
X247198Y204695D01*
X246467Y205256D01*
X245615Y205608D01*
X244702Y205729D01*
X243788Y205608D01*
X242936Y205256D01*
X242205Y204695D01*
X241644Y203964D01*
X241292Y203112D01*
X241171Y202199D01*
X241292Y201285D01*
X241389Y201049D01*
X236820Y196480D01*
X236489Y195984D01*
X236372Y195398D01*
Y193155D01*
X235872Y193122D01*
X235842Y193353D01*
X235753Y194030D01*
X235354Y194992D01*
X234721Y195818D01*
X233895Y196451D01*
X232933Y196850D01*
X232401Y196920D01*
Y192999D01*
Y189077D01*
X232933Y189147D01*
X233895Y189546D01*
X234721Y190179D01*
X235354Y191005D01*
X235753Y191967D01*
X235842Y192644D01*
X235872Y192875D01*
X236372Y192842D01*
Y183155D01*
X235872Y183122D01*
X235753Y184030D01*
X235354Y184992D01*
X234721Y185818D01*
X233895Y186451D01*
X232933Y186849D01*
X231902Y186985D01*
X230870Y186849D01*
X229908Y186451D01*
X229082Y185818D01*
X228449Y184992D01*
X228050Y184030D01*
X227987Y183547D01*
X227463Y183023D01*
X227002Y183215D01*
Y199498D01*
X227950Y199530D01*
X229830Y199777D01*
X231662Y200268D01*
X233415Y200994D01*
X235057Y201942D01*
X236562Y203097D01*
X237903Y204438D01*
X239058Y205943D01*
X240006Y207585D01*
X240732Y209338D01*
X241223Y211170D01*
X241470Y213050D01*
X241501Y213999D01*
X241501Y213999D01*
X313147Y214297D01*
X313502Y213944D01*
D02*
G37*
G36*
X201002D02*
Y213498D01*
X201031Y212583D01*
X201271Y210767D01*
X201745Y208998D01*
X202445Y207307D01*
X203361Y205720D01*
X204476Y204268D01*
X205771Y202973D01*
X207224Y201858D01*
X208809Y200942D01*
X210501Y200241D01*
X212270Y199767D01*
X214086Y199529D01*
X215002Y199498D01*
X215002Y199498D01*
X215002Y127998D01*
X214053Y127968D01*
X212173Y127720D01*
X210341Y127229D01*
X208588Y126503D01*
X207140Y125667D01*
X206833Y126067D01*
X211183Y130417D01*
X211514Y130913D01*
X211631Y131499D01*
Y149046D01*
X214054D01*
Y156951D01*
X206870D01*
X206679Y157413D01*
X208606Y159340D01*
X209070Y159148D01*
X210102Y159012D01*
X211133Y159148D01*
X212095Y159546D01*
X212921Y160179D01*
X213554Y161005D01*
X213952Y161967D01*
X214088Y162998D01*
X213952Y164030D01*
X213554Y164992D01*
X212921Y165818D01*
X212095Y166451D01*
X211133Y166850D01*
X210102Y166985D01*
X209070Y166850D01*
X208108Y166451D01*
X207282Y165818D01*
X206649Y164992D01*
X206251Y164030D01*
X206115Y162998D01*
X206251Y161967D01*
X206443Y161503D01*
X196420Y151480D01*
X196089Y150984D01*
X195972Y150399D01*
Y140119D01*
X195472Y139912D01*
X193456Y141927D01*
X193532Y142499D01*
X193411Y143412D01*
X193059Y144264D01*
X192498Y144995D01*
X191767Y145556D01*
X190915Y145908D01*
X190001Y146029D01*
X189088Y145908D01*
X188236Y145556D01*
X187505Y144995D01*
X186944Y144264D01*
X186592Y143412D01*
X186471Y142499D01*
X186547Y141927D01*
X185005Y140386D01*
X184563Y139725D01*
X184540Y139606D01*
X184040Y139655D01*
Y153874D01*
X192383Y162217D01*
X192715Y162713D01*
X192831Y163298D01*
Y164644D01*
X193067Y164741D01*
X193798Y165302D01*
X194359Y166033D01*
X194711Y166885D01*
X194832Y167798D01*
X194711Y168712D01*
X194359Y169564D01*
X193798Y170295D01*
X193067Y170856D01*
X192793Y170969D01*
X192892Y171469D01*
X206457D01*
X206649Y171005D01*
X207282Y170179D01*
X208108Y169546D01*
X209070Y169148D01*
X210102Y169012D01*
X211133Y169148D01*
X212095Y169546D01*
X212921Y170179D01*
X213554Y171005D01*
X213952Y171967D01*
X214088Y172998D01*
X213952Y174030D01*
X213554Y174992D01*
X212921Y175818D01*
X212095Y176451D01*
X211133Y176849D01*
X210102Y176985D01*
X209070Y176849D01*
X208108Y176451D01*
X207282Y175818D01*
X206649Y174992D01*
X206457Y174528D01*
X204474D01*
X197131Y181871D01*
Y193544D01*
X197367Y193641D01*
X198098Y194202D01*
X198659Y194933D01*
X199011Y195785D01*
X199132Y196698D01*
X199011Y197612D01*
X198659Y198464D01*
X198098Y199195D01*
X197367Y199756D01*
X196515Y200108D01*
X195601Y200229D01*
X194688Y200108D01*
X193836Y199756D01*
X193105Y199195D01*
X192544Y198464D01*
X192192Y197612D01*
X192071Y196698D01*
X192192Y195785D01*
X192544Y194933D01*
X193105Y194202D01*
X193836Y193641D01*
X194072Y193544D01*
Y181238D01*
X194188Y180653D01*
X194520Y180156D01*
X199687Y174990D01*
X199495Y174528D01*
X187502D01*
X186916Y174411D01*
X186420Y174080D01*
X173555Y161215D01*
X173223Y160718D01*
X173107Y160133D01*
Y135431D01*
X171199D01*
Y131773D01*
Y128116D01*
X178073D01*
Y131773D01*
Y135431D01*
X176165D01*
Y159500D01*
X188135Y171469D01*
X189711D01*
X189810Y170969D01*
X189536Y170856D01*
X188805Y170295D01*
X188244Y169564D01*
X187892Y168712D01*
X187771Y167798D01*
X187892Y166885D01*
X188244Y166033D01*
X188805Y165302D01*
X189536Y164741D01*
X189772Y164644D01*
Y163932D01*
X181429Y155589D01*
X181097Y155092D01*
X180981Y154507D01*
Y135431D01*
X179073D01*
Y131773D01*
Y128116D01*
X195972D01*
Y126632D01*
X195668Y126328D01*
X169235D01*
X168291Y127271D01*
Y128116D01*
X170199D01*
Y131773D01*
Y135431D01*
X163325D01*
Y131773D01*
X162325D01*
Y135431D01*
X155451D01*
Y131773D01*
Y128116D01*
X157359D01*
Y126112D01*
X157475Y125527D01*
X157807Y125030D01*
X162120Y120717D01*
X162616Y120386D01*
X163201Y120269D01*
X200401D01*
X200987Y120386D01*
X201483Y120717D01*
X202433Y121667D01*
X202833Y121360D01*
X201997Y119912D01*
X201271Y118159D01*
X200780Y116327D01*
X200533Y114447D01*
X200501Y113498D01*
X129001D01*
X128971Y114447D01*
X128723Y116327D01*
X128232Y118159D01*
X127506Y119912D01*
X126558Y121554D01*
X125403Y123059D01*
X124062Y124400D01*
X122557Y125555D01*
X120915Y126503D01*
X119162Y127229D01*
X117330Y127720D01*
X115450Y127968D01*
X114502Y127998D01*
X114502Y127998D01*
Y139382D01*
X114963Y139574D01*
X123845Y130692D01*
X124341Y130360D01*
X124927Y130244D01*
X132888D01*
Y128116D01*
X154451D01*
Y131773D01*
Y135431D01*
X152543D01*
Y145342D01*
X153267Y145641D01*
X153998Y146202D01*
X154559Y146933D01*
X154911Y147785D01*
X155032Y148698D01*
X154911Y149612D01*
X154559Y150464D01*
X153998Y151195D01*
X153267Y151756D01*
X152415Y152108D01*
X151502Y152229D01*
X150588Y152108D01*
X149736Y151756D01*
X149107Y151272D01*
X148607Y151428D01*
Y155423D01*
X148490Y156008D01*
X148159Y156504D01*
X130983Y173680D01*
X130487Y174012D01*
X129902Y174128D01*
X129316Y174012D01*
X128820Y173680D01*
X127393Y172253D01*
X126931Y172444D01*
Y192842D01*
X127431Y192875D01*
X127550Y191967D01*
X127949Y191005D01*
X128582Y190179D01*
X129408Y189546D01*
X130370Y189147D01*
X130902Y189077D01*
Y192999D01*
Y196920D01*
X130370Y196850D01*
X129408Y196451D01*
X129048Y196175D01*
X128717Y196551D01*
X131052Y198886D01*
X131288Y198789D01*
X132202Y198668D01*
X133115Y198789D01*
X133967Y199141D01*
X134698Y199702D01*
X135259Y200433D01*
X135611Y201285D01*
X135732Y202199D01*
X135611Y203112D01*
X135259Y203964D01*
X134698Y204695D01*
X133967Y205256D01*
X133115Y205608D01*
X132202Y205729D01*
X131288Y205608D01*
X130436Y205256D01*
X129705Y204695D01*
X129144Y203964D01*
X128792Y203112D01*
X128671Y202199D01*
X128792Y201285D01*
X128889Y201049D01*
X124320Y196480D01*
X123988Y195984D01*
X123872Y195398D01*
Y193155D01*
X123372Y193122D01*
X123342Y193353D01*
X123252Y194030D01*
X122854Y194992D01*
X122221Y195818D01*
X121395Y196451D01*
X120433Y196850D01*
X119902Y196920D01*
Y192999D01*
Y189077D01*
X120433Y189147D01*
X121395Y189546D01*
X122221Y190179D01*
X122854Y191005D01*
X123252Y191967D01*
X123342Y192644D01*
X123372Y192875D01*
X123872Y192842D01*
Y183155D01*
X123372Y183122D01*
X123252Y184030D01*
X122854Y184992D01*
X122221Y185818D01*
X121395Y186451D01*
X120433Y186849D01*
X119402Y186985D01*
X118370Y186849D01*
X117408Y186451D01*
X116582Y185818D01*
X115949Y184992D01*
X115550Y184030D01*
X115487Y183547D01*
X114963Y183023D01*
X114502Y183215D01*
Y199498D01*
X115450Y199530D01*
X117330Y199777D01*
X119162Y200268D01*
X120915Y200994D01*
X122557Y201942D01*
X124062Y203097D01*
X125403Y204438D01*
X126558Y205943D01*
X127506Y207585D01*
X128232Y209338D01*
X128723Y211170D01*
X128970Y213050D01*
X129001Y213999D01*
X129001Y213999D01*
X200647Y214297D01*
X201002Y213944D01*
D02*
G37*
G36*
X88502D02*
Y213498D01*
X88532Y212583D01*
X88771Y210767D01*
X89245Y208998D01*
X89945Y207307D01*
X90861Y205720D01*
X91976Y204268D01*
X93271Y202973D01*
X94723Y201858D01*
X96310Y200942D01*
X98001Y200241D01*
X99770Y199767D01*
X101586Y199529D01*
X102501Y199498D01*
X102501Y199498D01*
X102501Y127998D01*
X101553Y127968D01*
X99673Y127720D01*
X97841Y127229D01*
X96088Y126503D01*
X94640Y125667D01*
X94333Y126067D01*
X98683Y130417D01*
X99015Y130913D01*
X99131Y131499D01*
Y149046D01*
X101554D01*
Y156951D01*
X94370D01*
X94179Y157413D01*
X96106Y159340D01*
X96570Y159148D01*
X97601Y159012D01*
X98633Y159148D01*
X99595Y159546D01*
X100421Y160179D01*
X101054Y161005D01*
X101453Y161967D01*
X101588Y162998D01*
X101453Y164030D01*
X101054Y164992D01*
X100421Y165818D01*
X99595Y166451D01*
X98633Y166850D01*
X97601Y166985D01*
X96570Y166850D01*
X95608Y166451D01*
X94782Y165818D01*
X94149Y164992D01*
X93751Y164030D01*
X93615Y162998D01*
X93751Y161967D01*
X93943Y161503D01*
X83920Y151480D01*
X83588Y150984D01*
X83472Y150399D01*
Y140119D01*
X82972Y139912D01*
X80957Y141927D01*
X81032Y142499D01*
X80911Y143412D01*
X80559Y144264D01*
X79998Y144995D01*
X79267Y145556D01*
X78415Y145908D01*
X77501Y146029D01*
X76588Y145908D01*
X75736Y145556D01*
X75005Y144995D01*
X74444Y144264D01*
X74092Y143412D01*
X73971Y142499D01*
X74046Y141927D01*
X72505Y140386D01*
X72063Y139725D01*
X72040Y139606D01*
X71540Y139655D01*
Y153874D01*
X79883Y162217D01*
X80215Y162713D01*
X80331Y163298D01*
Y164644D01*
X80567Y164741D01*
X81298Y165302D01*
X81859Y166033D01*
X82211Y166885D01*
X82332Y167798D01*
X82211Y168712D01*
X81859Y169564D01*
X81298Y170295D01*
X80567Y170856D01*
X80293Y170969D01*
X80392Y171469D01*
X93957D01*
X94149Y171005D01*
X94782Y170179D01*
X95608Y169546D01*
X96570Y169148D01*
X97601Y169012D01*
X98633Y169148D01*
X99595Y169546D01*
X100421Y170179D01*
X101054Y171005D01*
X101453Y171967D01*
X101588Y172998D01*
X101453Y174030D01*
X101054Y174992D01*
X100421Y175818D01*
X99595Y176451D01*
X98633Y176849D01*
X97601Y176985D01*
X96570Y176849D01*
X95608Y176451D01*
X94782Y175818D01*
X94149Y174992D01*
X93957Y174528D01*
X91974D01*
X84631Y181871D01*
Y193544D01*
X84867Y193641D01*
X85598Y194202D01*
X86159Y194933D01*
X86511Y195785D01*
X86632Y196698D01*
X86511Y197612D01*
X86159Y198464D01*
X85598Y199195D01*
X84867Y199756D01*
X84015Y200108D01*
X83101Y200229D01*
X82188Y200108D01*
X81336Y199756D01*
X80605Y199195D01*
X80044Y198464D01*
X79692Y197612D01*
X79571Y196698D01*
X79692Y195785D01*
X80044Y194933D01*
X80605Y194202D01*
X81336Y193641D01*
X81572Y193544D01*
Y181238D01*
X81688Y180653D01*
X82020Y180156D01*
X87187Y174990D01*
X86995Y174528D01*
X75002D01*
X74416Y174411D01*
X73920Y174080D01*
X61055Y161215D01*
X60723Y160718D01*
X60607Y160133D01*
Y135431D01*
X58699D01*
Y131773D01*
Y128116D01*
X65573D01*
Y131773D01*
Y135431D01*
X63665D01*
Y159500D01*
X75635Y171469D01*
X77211D01*
X77310Y170969D01*
X77036Y170856D01*
X76305Y170295D01*
X75744Y169564D01*
X75392Y168712D01*
X75271Y167798D01*
X75392Y166885D01*
X75744Y166033D01*
X76305Y165302D01*
X77036Y164741D01*
X77272Y164644D01*
Y163932D01*
X68929Y155589D01*
X68597Y155092D01*
X68481Y154507D01*
Y135431D01*
X66573D01*
Y131773D01*
Y128116D01*
X83472D01*
Y126632D01*
X83168Y126328D01*
X56735D01*
X55791Y127271D01*
Y128116D01*
X57699D01*
Y131773D01*
Y135431D01*
X50825D01*
Y131773D01*
X49825D01*
Y135431D01*
X42951D01*
Y131773D01*
Y128116D01*
X44859D01*
Y126112D01*
X44975Y125527D01*
X45307Y125030D01*
X49620Y120717D01*
X50116Y120386D01*
X50701Y120269D01*
X87902D01*
X88487Y120386D01*
X88983Y120717D01*
X89933Y121667D01*
X90333Y121360D01*
X89497Y119912D01*
X88771Y118159D01*
X88280Y116327D01*
X88033Y114447D01*
X88002Y113498D01*
X16501D01*
X16470Y114447D01*
X16223Y116327D01*
X15732Y118159D01*
X15006Y119912D01*
X14058Y121554D01*
X12903Y123059D01*
X11562Y124400D01*
X10057Y125555D01*
X8415Y126503D01*
X6662Y127229D01*
X4830Y127720D01*
X2950Y127968D01*
X2001Y127998D01*
X2001Y127998D01*
Y139382D01*
X2463Y139574D01*
X11345Y130692D01*
X11841Y130360D01*
X12427Y130244D01*
X20388D01*
Y128116D01*
X41951D01*
Y131773D01*
Y135431D01*
X40044D01*
Y145342D01*
X40767Y145641D01*
X41498Y146202D01*
X42059Y146933D01*
X42411Y147785D01*
X42532Y148698D01*
X42411Y149612D01*
X42059Y150464D01*
X41498Y151195D01*
X40767Y151756D01*
X39915Y152108D01*
X39002Y152229D01*
X38088Y152108D01*
X37236Y151756D01*
X36606Y151272D01*
X36107Y151428D01*
Y155423D01*
X35990Y156008D01*
X35658Y156504D01*
X18483Y173680D01*
X17987Y174012D01*
X17402Y174128D01*
X16816Y174012D01*
X16320Y173680D01*
X14893Y172253D01*
X14431Y172444D01*
Y192842D01*
X14931Y192875D01*
X15051Y191967D01*
X15449Y191005D01*
X16082Y190179D01*
X16908Y189546D01*
X17870Y189147D01*
X18402Y189077D01*
Y192999D01*
Y196920D01*
X17870Y196850D01*
X16908Y196451D01*
X16548Y196175D01*
X16217Y196551D01*
X18552Y198886D01*
X18788Y198789D01*
X19702Y198668D01*
X20615Y198789D01*
X21467Y199141D01*
X22198Y199702D01*
X22759Y200433D01*
X23111Y201285D01*
X23232Y202199D01*
X23111Y203112D01*
X22759Y203964D01*
X22198Y204695D01*
X21467Y205256D01*
X20615Y205608D01*
X19702Y205729D01*
X18788Y205608D01*
X17936Y205256D01*
X17205Y204695D01*
X16644Y203964D01*
X16292Y203112D01*
X16171Y202199D01*
X16292Y201285D01*
X16389Y201049D01*
X11820Y196480D01*
X11489Y195984D01*
X11372Y195398D01*
Y193155D01*
X10872Y193122D01*
X10842Y193353D01*
X10752Y194030D01*
X10354Y194992D01*
X9721Y195818D01*
X8895Y196451D01*
X7933Y196850D01*
X7401Y196920D01*
Y192999D01*
Y189077D01*
X7933Y189147D01*
X8895Y189546D01*
X9721Y190179D01*
X10354Y191005D01*
X10752Y191967D01*
X10842Y192644D01*
X10872Y192875D01*
X11372Y192842D01*
Y183155D01*
X10872Y183122D01*
X10752Y184030D01*
X10354Y184992D01*
X9721Y185818D01*
X8895Y186451D01*
X7933Y186849D01*
X6901Y186985D01*
X5870Y186849D01*
X4908Y186451D01*
X4082Y185818D01*
X3449Y184992D01*
X3050Y184030D01*
X2987Y183547D01*
X2463Y183023D01*
X2001Y183215D01*
Y199498D01*
X2950Y199530D01*
X4830Y199777D01*
X6662Y200268D01*
X8415Y200994D01*
X10057Y201942D01*
X11562Y203097D01*
X12903Y204438D01*
X14058Y205943D01*
X15006Y207585D01*
X15732Y209338D01*
X16223Y211170D01*
X16470Y213050D01*
X16501Y213999D01*
X16501Y213999D01*
X88147Y214297D01*
X88502Y213944D01*
D02*
G37*
G36*
X239970Y167297D02*
X239944Y167264D01*
X239592Y166412D01*
X239471Y165498D01*
X239592Y164585D01*
X239944Y163733D01*
X240505Y163002D01*
X241236Y162441D01*
X242088Y162089D01*
X243002Y161968D01*
X243915Y162089D01*
X244151Y162186D01*
X244677Y161660D01*
X244413Y161217D01*
X243588Y161108D01*
X242736Y160756D01*
X242005Y160195D01*
X241444Y159464D01*
X241092Y158612D01*
X240971Y157699D01*
X241092Y156785D01*
X241444Y155933D01*
X242005Y155202D01*
X242736Y154641D01*
X243588Y154289D01*
X244501Y154168D01*
X245415Y154289D01*
X245651Y154386D01*
X250174Y149863D01*
Y135431D01*
X245388D01*
Y133303D01*
X238060D01*
X228831Y142532D01*
Y149046D01*
X235854D01*
Y156951D01*
X228831D01*
Y159742D01*
X229331Y159989D01*
X229908Y159546D01*
X230870Y159148D01*
X231902Y159012D01*
X232933Y159148D01*
X233895Y159546D01*
X234721Y160179D01*
X235354Y161005D01*
X235753Y161967D01*
X235888Y162998D01*
X235781Y163815D01*
X239593Y167627D01*
X239970Y167297D01*
D02*
G37*
G36*
X127470D02*
X127444Y167264D01*
X127092Y166412D01*
X126971Y165498D01*
X127092Y164585D01*
X127444Y163733D01*
X128005Y163002D01*
X128736Y162441D01*
X129588Y162089D01*
X130501Y161968D01*
X131415Y162089D01*
X131651Y162186D01*
X132177Y161660D01*
X131913Y161217D01*
X131088Y161108D01*
X130236Y160756D01*
X129505Y160195D01*
X128944Y159464D01*
X128592Y158612D01*
X128471Y157699D01*
X128592Y156785D01*
X128944Y155933D01*
X129505Y155202D01*
X130236Y154641D01*
X131088Y154289D01*
X132001Y154168D01*
X132915Y154289D01*
X133151Y154386D01*
X137674Y149863D01*
Y135431D01*
X132888D01*
Y133303D01*
X125560D01*
X116331Y142532D01*
Y149046D01*
X123354D01*
Y156951D01*
X116331D01*
Y159742D01*
X116831Y159989D01*
X117408Y159546D01*
X118370Y159148D01*
X119402Y159012D01*
X120433Y159148D01*
X121395Y159546D01*
X122221Y160179D01*
X122854Y161005D01*
X123252Y161967D01*
X123388Y162998D01*
X123281Y163815D01*
X127093Y167627D01*
X127470Y167297D01*
D02*
G37*
G36*
X14970D02*
X14944Y167264D01*
X14592Y166412D01*
X14471Y165498D01*
X14592Y164585D01*
X14944Y163733D01*
X15505Y163002D01*
X16236Y162441D01*
X17088Y162089D01*
X18001Y161968D01*
X18915Y162089D01*
X19151Y162186D01*
X19677Y161660D01*
X19413Y161217D01*
X18588Y161108D01*
X17736Y160756D01*
X17005Y160195D01*
X16444Y159464D01*
X16092Y158612D01*
X15971Y157699D01*
X16092Y156785D01*
X16444Y155933D01*
X17005Y155202D01*
X17736Y154641D01*
X18588Y154289D01*
X19501Y154168D01*
X20415Y154289D01*
X20651Y154386D01*
X25174Y149863D01*
Y135431D01*
X20388D01*
Y133303D01*
X13060D01*
X3831Y142532D01*
Y149046D01*
X10854D01*
Y156951D01*
X3831D01*
Y159742D01*
X4331Y159989D01*
X4908Y159546D01*
X5870Y159148D01*
X6901Y159012D01*
X7933Y159148D01*
X8895Y159546D01*
X9721Y160179D01*
X10354Y161005D01*
X10752Y161967D01*
X10888Y162998D01*
X10781Y163815D01*
X14593Y167627D01*
X14970Y167297D01*
D02*
G37*
G36*
X258048Y154789D02*
Y135431D01*
X257170D01*
Y152860D01*
X257053Y153445D01*
X256721Y153941D01*
X246314Y164349D01*
X246411Y164585D01*
X246532Y165498D01*
X246517Y165613D01*
X246990Y165847D01*
X258048Y154789D01*
D02*
G37*
G36*
X254111Y152226D02*
Y135431D01*
X253233D01*
Y150497D01*
X253116Y151082D01*
X252784Y151578D01*
X247814Y156549D01*
X247911Y156785D01*
X248020Y157610D01*
X248463Y157874D01*
X254111Y152226D01*
D02*
G37*
G36*
X145548Y154789D02*
Y135431D01*
X144669D01*
Y152860D01*
X144553Y153445D01*
X144221Y153941D01*
X133814Y164349D01*
X133911Y164585D01*
X134032Y165498D01*
X134017Y165613D01*
X134490Y165847D01*
X145548Y154789D01*
D02*
G37*
G36*
X141611Y152226D02*
Y135431D01*
X140733D01*
Y150497D01*
X140616Y151082D01*
X140285Y151578D01*
X135314Y156549D01*
X135411Y156785D01*
X135520Y157610D01*
X135963Y157874D01*
X141611Y152226D01*
D02*
G37*
G36*
X33048Y154789D02*
Y135431D01*
X32169D01*
Y152860D01*
X32053Y153445D01*
X31721Y153941D01*
X21314Y164349D01*
X21411Y164585D01*
X21532Y165498D01*
X21517Y165613D01*
X21990Y165847D01*
X33048Y154789D01*
D02*
G37*
G36*
X29111Y152226D02*
Y135431D01*
X28232D01*
Y150497D01*
X28116Y151082D01*
X27784Y151578D01*
X22814Y156549D01*
X22911Y156785D01*
X23020Y157610D01*
X23463Y157874D01*
X29111Y152226D01*
D02*
G37*
G36*
X365519Y133796D02*
X365166Y133441D01*
X357000D01*
X351004Y139437D01*
X341500D01*
Y143437D01*
X365435D01*
X365519Y133796D01*
D02*
G37*
G36*
X356000Y132437D02*
X365602Y132437D01*
Y126437D01*
X349602D01*
X347602Y128437D01*
X341500Y128437D01*
X341500Y134437D01*
X354000Y134437D01*
X356000Y132437D01*
D02*
G37*
G36*
X318649Y156230D02*
Y149046D01*
X321072D01*
Y132132D01*
X312268Y123328D01*
X310178D01*
X310131Y123391D01*
X309994Y123828D01*
X311083Y124917D01*
X311415Y125413D01*
X311531Y125998D01*
Y137958D01*
X313802D01*
Y142699D01*
Y147439D01*
X311531D01*
Y149765D01*
X318187Y156421D01*
X318649Y156230D01*
D02*
G37*
G36*
X206149D02*
Y149046D01*
X208572D01*
Y132132D01*
X199768Y123328D01*
X197678D01*
X197631Y123391D01*
X197494Y123828D01*
X198583Y124917D01*
X198915Y125413D01*
X199031Y125998D01*
Y137958D01*
X201302D01*
Y142699D01*
Y147439D01*
X199031D01*
Y149765D01*
X205687Y156421D01*
X206149Y156230D01*
D02*
G37*
G36*
X93649D02*
Y149046D01*
X96072D01*
Y132132D01*
X87268Y123328D01*
X85179D01*
X85131Y123391D01*
X84994Y123828D01*
X86083Y124917D01*
X86414Y125413D01*
X86531Y125998D01*
Y137958D01*
X88801D01*
Y142699D01*
Y147439D01*
X86531D01*
Y149765D01*
X93187Y156421D01*
X93649Y156230D01*
D02*
G37*
G36*
X375500Y119437D02*
X366500Y119437D01*
X366500Y143437D01*
X375500Y143437D01*
X375500Y119437D01*
D02*
G37*
G36*
X365519Y86359D02*
X365166Y86004D01*
X357000D01*
X351004Y92000D01*
X341500D01*
Y96000D01*
X365435D01*
X365519Y86359D01*
D02*
G37*
G36*
X356000Y85000D02*
X365602Y85000D01*
Y79000D01*
X349602D01*
X347602Y81000D01*
X341500Y81000D01*
X341500Y87000D01*
X354000Y87000D01*
X356000Y85000D01*
D02*
G37*
G36*
X375500Y72000D02*
X366500Y72000D01*
X366500Y96000D01*
X375500Y96000D01*
X375500Y72000D01*
D02*
G37*
G36*
X236372Y70342D02*
Y60655D01*
X235872Y60622D01*
X235753Y61530D01*
X235354Y62492D01*
X234721Y63318D01*
X233895Y63951D01*
X232933Y64350D01*
X231902Y64485D01*
X230870Y64350D01*
X229908Y63951D01*
X229331Y63508D01*
X228831Y63755D01*
Y67242D01*
X229331Y67489D01*
X229908Y67046D01*
X230870Y66647D01*
X231902Y66512D01*
X232933Y66647D01*
X233895Y67046D01*
X234721Y67679D01*
X235354Y68505D01*
X235753Y69467D01*
X235872Y70375D01*
X236372Y70342D01*
D02*
G37*
G36*
X123872D02*
Y60655D01*
X123372Y60622D01*
X123252Y61530D01*
X122854Y62492D01*
X122221Y63318D01*
X121395Y63951D01*
X120433Y64350D01*
X119402Y64485D01*
X118370Y64350D01*
X117408Y63951D01*
X116831Y63508D01*
X116331Y63755D01*
Y67242D01*
X116831Y67489D01*
X117408Y67046D01*
X118370Y66647D01*
X119402Y66512D01*
X120433Y66647D01*
X121395Y67046D01*
X122221Y67679D01*
X122854Y68505D01*
X123252Y69467D01*
X123372Y70375D01*
X123872Y70342D01*
D02*
G37*
G36*
X11372D02*
Y60655D01*
X10872Y60622D01*
X10752Y61530D01*
X10354Y62492D01*
X9721Y63318D01*
X8895Y63951D01*
X7933Y64350D01*
X6901Y64485D01*
X5870Y64350D01*
X4908Y63951D01*
X4331Y63508D01*
X3831Y63755D01*
Y67242D01*
X4331Y67489D01*
X4908Y67046D01*
X5870Y66647D01*
X6901Y66512D01*
X7933Y66647D01*
X8895Y67046D01*
X9721Y67679D01*
X10354Y68505D01*
X10752Y69467D01*
X10872Y70375D01*
X11372Y70342D01*
D02*
G37*
G36*
X313502Y101444D02*
Y100998D01*
X313531Y100083D01*
X313771Y98267D01*
X314245Y96498D01*
X314945Y94806D01*
X315861Y93221D01*
X316976Y91768D01*
X318271Y90473D01*
X319724Y89358D01*
X321309Y88442D01*
X323001Y87742D01*
X324770Y87268D01*
X326586Y87028D01*
X327502Y86998D01*
X327502Y86998D01*
X327502Y15498D01*
X326553Y15468D01*
X324673Y15220D01*
X322841Y14729D01*
X321088Y14003D01*
X319640Y13167D01*
X319333Y13567D01*
X323683Y17917D01*
X324014Y18413D01*
X324131Y18999D01*
Y36546D01*
X326554D01*
Y44451D01*
X319370D01*
X319179Y44913D01*
X321106Y46840D01*
X321570Y46648D01*
X322602Y46512D01*
X323633Y46648D01*
X324595Y47046D01*
X325421Y47679D01*
X326054Y48505D01*
X326452Y49467D01*
X326588Y50498D01*
X326452Y51530D01*
X326054Y52492D01*
X325421Y53318D01*
X324595Y53951D01*
X323633Y54349D01*
X322602Y54485D01*
X321570Y54349D01*
X320608Y53951D01*
X319782Y53318D01*
X319149Y52492D01*
X318751Y51530D01*
X318615Y50498D01*
X318751Y49467D01*
X318943Y49003D01*
X308920Y38980D01*
X308589Y38484D01*
X308472Y37898D01*
Y27619D01*
X307972Y27412D01*
X305957Y29427D01*
X306032Y29998D01*
X305911Y30912D01*
X305559Y31764D01*
X304998Y32495D01*
X304267Y33056D01*
X303415Y33408D01*
X302502Y33529D01*
X301588Y33408D01*
X300736Y33056D01*
X300005Y32495D01*
X299444Y31764D01*
X299092Y30912D01*
X298971Y29998D01*
X299046Y29427D01*
X297505Y27886D01*
X297063Y27224D01*
X297040Y27106D01*
X296540Y27155D01*
Y41374D01*
X304883Y49717D01*
X305215Y50213D01*
X305331Y50798D01*
Y52144D01*
X305567Y52241D01*
X306298Y52802D01*
X306859Y53533D01*
X307211Y54385D01*
X307332Y55299D01*
X307211Y56212D01*
X306859Y57064D01*
X306298Y57795D01*
X305567Y58356D01*
X305293Y58469D01*
X305392Y58969D01*
X318957D01*
X319149Y58505D01*
X319782Y57679D01*
X320608Y57046D01*
X321570Y56647D01*
X322602Y56512D01*
X323633Y56647D01*
X324595Y57046D01*
X325421Y57679D01*
X326054Y58505D01*
X326452Y59467D01*
X326588Y60498D01*
X326452Y61530D01*
X326054Y62492D01*
X325421Y63318D01*
X324595Y63951D01*
X323633Y64350D01*
X322602Y64485D01*
X321570Y64350D01*
X320608Y63951D01*
X319782Y63318D01*
X319149Y62492D01*
X318957Y62028D01*
X316974D01*
X309631Y69371D01*
Y81044D01*
X309867Y81141D01*
X310598Y81702D01*
X311159Y82433D01*
X311511Y83285D01*
X311632Y84198D01*
X311511Y85112D01*
X311159Y85964D01*
X310598Y86695D01*
X309867Y87256D01*
X309015Y87608D01*
X308102Y87729D01*
X307188Y87608D01*
X306336Y87256D01*
X305605Y86695D01*
X305044Y85964D01*
X304692Y85112D01*
X304571Y84198D01*
X304692Y83285D01*
X305044Y82433D01*
X305605Y81702D01*
X306336Y81141D01*
X306572Y81044D01*
Y68738D01*
X306688Y68153D01*
X307020Y67656D01*
X312187Y62490D01*
X311995Y62028D01*
X300002D01*
X299416Y61911D01*
X298920Y61580D01*
X286055Y48715D01*
X285723Y48218D01*
X285607Y47633D01*
Y22931D01*
X283699D01*
Y19273D01*
Y15616D01*
X290573D01*
Y19273D01*
Y22931D01*
X288666D01*
Y47000D01*
X300635Y58969D01*
X302211D01*
X302310Y58469D01*
X302036Y58356D01*
X301305Y57795D01*
X300744Y57064D01*
X300392Y56212D01*
X300271Y55299D01*
X300392Y54385D01*
X300744Y53533D01*
X301305Y52802D01*
X302036Y52241D01*
X302272Y52144D01*
Y51432D01*
X293929Y43089D01*
X293597Y42592D01*
X293481Y42007D01*
Y22931D01*
X291573D01*
Y19273D01*
Y15616D01*
X308472D01*
Y14132D01*
X308168Y13828D01*
X281735D01*
X280791Y14771D01*
Y15616D01*
X282699D01*
Y19273D01*
Y22931D01*
X275825D01*
Y19273D01*
X274825D01*
Y22931D01*
X267951D01*
Y19273D01*
Y15616D01*
X269859D01*
Y13612D01*
X269975Y13027D01*
X270307Y12530D01*
X274620Y8217D01*
X275116Y7886D01*
X275701Y7769D01*
X312901D01*
X313487Y7886D01*
X313983Y8217D01*
X314933Y9167D01*
X315333Y8860D01*
X314497Y7412D01*
X313771Y5659D01*
X313280Y3827D01*
X313033Y1947D01*
X313001Y998D01*
X241501D01*
X241470Y1947D01*
X241223Y3827D01*
X240732Y5659D01*
X240006Y7412D01*
X239058Y9054D01*
X237903Y10559D01*
X236562Y11900D01*
X235057Y13055D01*
X233415Y14003D01*
X231662Y14729D01*
X229830Y15220D01*
X227950Y15468D01*
X227002Y15498D01*
X227002Y15498D01*
Y26882D01*
X227463Y27074D01*
X236345Y18192D01*
X236841Y17860D01*
X237427Y17744D01*
X245388D01*
Y15616D01*
X266951D01*
Y19273D01*
Y22931D01*
X265043D01*
Y32842D01*
X265767Y33141D01*
X266498Y33702D01*
X267059Y34433D01*
X267411Y35285D01*
X267532Y36198D01*
X267411Y37112D01*
X267059Y37964D01*
X266498Y38695D01*
X265767Y39256D01*
X264915Y39608D01*
X264001Y39729D01*
X263088Y39608D01*
X262236Y39256D01*
X261607Y38772D01*
X261106Y38928D01*
Y42923D01*
X260990Y43508D01*
X260659Y44004D01*
X243483Y61180D01*
X242987Y61511D01*
X242402Y61628D01*
X241816Y61511D01*
X241320Y61180D01*
X239893Y59753D01*
X239431Y59944D01*
Y80342D01*
X239931Y80375D01*
X240051Y79467D01*
X240449Y78505D01*
X241082Y77679D01*
X241908Y77046D01*
X242870Y76648D01*
X243402Y76578D01*
Y80498D01*
Y84420D01*
X242870Y84350D01*
X241908Y83951D01*
X241548Y83675D01*
X241217Y84051D01*
X243552Y86386D01*
X243788Y86289D01*
X244702Y86168D01*
X245615Y86289D01*
X246467Y86641D01*
X247198Y87202D01*
X247759Y87933D01*
X248111Y88785D01*
X248232Y89698D01*
X248111Y90612D01*
X247759Y91464D01*
X247198Y92195D01*
X246467Y92756D01*
X245615Y93108D01*
X244702Y93229D01*
X243788Y93108D01*
X242936Y92756D01*
X242205Y92195D01*
X241644Y91464D01*
X241292Y90612D01*
X241171Y89698D01*
X241292Y88785D01*
X241389Y88549D01*
X236820Y83980D01*
X236489Y83484D01*
X236372Y82898D01*
Y80655D01*
X235872Y80622D01*
X235842Y80853D01*
X235753Y81530D01*
X235354Y82492D01*
X234721Y83318D01*
X233895Y83951D01*
X232933Y84350D01*
X232401Y84420D01*
Y80498D01*
Y76578D01*
X232933Y76648D01*
X233895Y77046D01*
X234721Y77679D01*
X235354Y78505D01*
X235753Y79467D01*
X235842Y80144D01*
X235872Y80375D01*
X236372Y80342D01*
Y70655D01*
X235872Y70622D01*
X235753Y71530D01*
X235354Y72492D01*
X234721Y73318D01*
X233895Y73951D01*
X232933Y74349D01*
X231902Y74485D01*
X230870Y74349D01*
X229908Y73951D01*
X229082Y73318D01*
X228449Y72492D01*
X228050Y71530D01*
X227987Y71047D01*
X227463Y70523D01*
X227002Y70715D01*
Y86998D01*
X227950Y87030D01*
X229830Y87277D01*
X231662Y87768D01*
X233415Y88494D01*
X235057Y89442D01*
X236562Y90597D01*
X237903Y91938D01*
X239058Y93443D01*
X240006Y95085D01*
X240732Y96838D01*
X241223Y98670D01*
X241470Y100550D01*
X241501Y101498D01*
X241501Y101498D01*
X313147Y101797D01*
X313502Y101444D01*
D02*
G37*
G36*
X201002D02*
Y100998D01*
X201031Y100083D01*
X201271Y98267D01*
X201745Y96498D01*
X202445Y94806D01*
X203361Y93221D01*
X204476Y91768D01*
X205771Y90473D01*
X207224Y89358D01*
X208809Y88442D01*
X210501Y87742D01*
X212270Y87268D01*
X214086Y87028D01*
X215002Y86998D01*
X215002Y86998D01*
X215002Y15498D01*
X214053Y15468D01*
X212173Y15220D01*
X210341Y14729D01*
X208588Y14003D01*
X207140Y13167D01*
X206833Y13567D01*
X211183Y17917D01*
X211514Y18413D01*
X211631Y18999D01*
Y36546D01*
X214054D01*
Y44451D01*
X206870D01*
X206679Y44913D01*
X208606Y46840D01*
X209070Y46648D01*
X210102Y46512D01*
X211133Y46648D01*
X212095Y47046D01*
X212921Y47679D01*
X213554Y48505D01*
X213952Y49467D01*
X214088Y50498D01*
X213952Y51530D01*
X213554Y52492D01*
X212921Y53318D01*
X212095Y53951D01*
X211133Y54349D01*
X210102Y54485D01*
X209070Y54349D01*
X208108Y53951D01*
X207282Y53318D01*
X206649Y52492D01*
X206251Y51530D01*
X206115Y50498D01*
X206251Y49467D01*
X206443Y49003D01*
X196420Y38980D01*
X196089Y38484D01*
X195972Y37898D01*
Y27619D01*
X195472Y27412D01*
X193456Y29427D01*
X193532Y29998D01*
X193411Y30912D01*
X193059Y31764D01*
X192498Y32495D01*
X191767Y33056D01*
X190915Y33408D01*
X190001Y33529D01*
X189088Y33408D01*
X188236Y33056D01*
X187505Y32495D01*
X186944Y31764D01*
X186592Y30912D01*
X186471Y29998D01*
X186547Y29427D01*
X185005Y27886D01*
X184563Y27224D01*
X184540Y27106D01*
X184040Y27155D01*
Y41374D01*
X192383Y49717D01*
X192715Y50213D01*
X192831Y50798D01*
Y52144D01*
X193067Y52241D01*
X193798Y52802D01*
X194359Y53533D01*
X194711Y54385D01*
X194832Y55299D01*
X194711Y56212D01*
X194359Y57064D01*
X193798Y57795D01*
X193067Y58356D01*
X192793Y58469D01*
X192892Y58969D01*
X206457D01*
X206649Y58505D01*
X207282Y57679D01*
X208108Y57046D01*
X209070Y56647D01*
X210102Y56512D01*
X211133Y56647D01*
X212095Y57046D01*
X212921Y57679D01*
X213554Y58505D01*
X213952Y59467D01*
X214088Y60498D01*
X213952Y61530D01*
X213554Y62492D01*
X212921Y63318D01*
X212095Y63951D01*
X211133Y64350D01*
X210102Y64485D01*
X209070Y64350D01*
X208108Y63951D01*
X207282Y63318D01*
X206649Y62492D01*
X206457Y62028D01*
X204474D01*
X197131Y69371D01*
Y81044D01*
X197367Y81141D01*
X198098Y81702D01*
X198659Y82433D01*
X199011Y83285D01*
X199132Y84198D01*
X199011Y85112D01*
X198659Y85964D01*
X198098Y86695D01*
X197367Y87256D01*
X196515Y87608D01*
X195601Y87729D01*
X194688Y87608D01*
X193836Y87256D01*
X193105Y86695D01*
X192544Y85964D01*
X192192Y85112D01*
X192071Y84198D01*
X192192Y83285D01*
X192544Y82433D01*
X193105Y81702D01*
X193836Y81141D01*
X194072Y81044D01*
Y68738D01*
X194188Y68153D01*
X194520Y67656D01*
X199687Y62490D01*
X199495Y62028D01*
X187502D01*
X186916Y61911D01*
X186420Y61580D01*
X173555Y48715D01*
X173223Y48218D01*
X173107Y47633D01*
Y22931D01*
X171199D01*
Y19273D01*
Y15616D01*
X178073D01*
Y19273D01*
Y22931D01*
X176165D01*
Y47000D01*
X188135Y58969D01*
X189711D01*
X189810Y58469D01*
X189536Y58356D01*
X188805Y57795D01*
X188244Y57064D01*
X187892Y56212D01*
X187771Y55299D01*
X187892Y54385D01*
X188244Y53533D01*
X188805Y52802D01*
X189536Y52241D01*
X189772Y52144D01*
Y51432D01*
X181429Y43089D01*
X181097Y42592D01*
X180981Y42007D01*
Y22931D01*
X179073D01*
Y19273D01*
Y15616D01*
X195972D01*
Y14132D01*
X195668Y13828D01*
X169235D01*
X168291Y14771D01*
Y15616D01*
X170199D01*
Y19273D01*
Y22931D01*
X163325D01*
Y19273D01*
X162325D01*
Y22931D01*
X155451D01*
Y19273D01*
Y15616D01*
X157359D01*
Y13612D01*
X157475Y13027D01*
X157807Y12530D01*
X162120Y8217D01*
X162616Y7886D01*
X163201Y7769D01*
X200401D01*
X200987Y7886D01*
X201483Y8217D01*
X202433Y9167D01*
X202833Y8860D01*
X201997Y7412D01*
X201271Y5659D01*
X200780Y3827D01*
X200533Y1947D01*
X200501Y998D01*
X129001D01*
X128971Y1947D01*
X128723Y3827D01*
X128232Y5659D01*
X127506Y7412D01*
X126558Y9054D01*
X125403Y10559D01*
X124062Y11900D01*
X122557Y13055D01*
X120915Y14003D01*
X119162Y14729D01*
X117330Y15220D01*
X115450Y15468D01*
X114502Y15498D01*
X114502Y15498D01*
Y26882D01*
X114963Y27074D01*
X123845Y18192D01*
X124341Y17860D01*
X124927Y17744D01*
X132888D01*
Y15616D01*
X154451D01*
Y19273D01*
Y22931D01*
X152543D01*
Y32842D01*
X153267Y33141D01*
X153998Y33702D01*
X154559Y34433D01*
X154911Y35285D01*
X155032Y36198D01*
X154911Y37112D01*
X154559Y37964D01*
X153998Y38695D01*
X153267Y39256D01*
X152415Y39608D01*
X151502Y39729D01*
X150588Y39608D01*
X149736Y39256D01*
X149107Y38772D01*
X148607Y38928D01*
Y42923D01*
X148490Y43508D01*
X148159Y44004D01*
X130983Y61180D01*
X130487Y61511D01*
X129902Y61628D01*
X129316Y61511D01*
X128820Y61180D01*
X127393Y59753D01*
X126931Y59944D01*
Y80342D01*
X127431Y80375D01*
X127550Y79467D01*
X127949Y78505D01*
X128582Y77679D01*
X129408Y77046D01*
X130370Y76648D01*
X130902Y76578D01*
Y80498D01*
Y84420D01*
X130370Y84350D01*
X129408Y83951D01*
X129048Y83675D01*
X128717Y84051D01*
X131052Y86386D01*
X131288Y86289D01*
X132202Y86168D01*
X133115Y86289D01*
X133967Y86641D01*
X134698Y87202D01*
X135259Y87933D01*
X135611Y88785D01*
X135732Y89698D01*
X135611Y90612D01*
X135259Y91464D01*
X134698Y92195D01*
X133967Y92756D01*
X133115Y93108D01*
X132202Y93229D01*
X131288Y93108D01*
X130436Y92756D01*
X129705Y92195D01*
X129144Y91464D01*
X128792Y90612D01*
X128671Y89698D01*
X128792Y88785D01*
X128889Y88549D01*
X124320Y83980D01*
X123988Y83484D01*
X123872Y82898D01*
Y80655D01*
X123372Y80622D01*
X123342Y80853D01*
X123252Y81530D01*
X122854Y82492D01*
X122221Y83318D01*
X121395Y83951D01*
X120433Y84350D01*
X119902Y84420D01*
Y80498D01*
Y76578D01*
X120433Y76648D01*
X121395Y77046D01*
X122221Y77679D01*
X122854Y78505D01*
X123252Y79467D01*
X123342Y80144D01*
X123372Y80375D01*
X123872Y80342D01*
Y70655D01*
X123372Y70622D01*
X123252Y71530D01*
X122854Y72492D01*
X122221Y73318D01*
X121395Y73951D01*
X120433Y74349D01*
X119402Y74485D01*
X118370Y74349D01*
X117408Y73951D01*
X116582Y73318D01*
X115949Y72492D01*
X115550Y71530D01*
X115487Y71047D01*
X114963Y70523D01*
X114502Y70715D01*
Y86998D01*
X115450Y87030D01*
X117330Y87277D01*
X119162Y87768D01*
X120915Y88494D01*
X122557Y89442D01*
X124062Y90597D01*
X125403Y91938D01*
X126558Y93443D01*
X127506Y95085D01*
X128232Y96838D01*
X128723Y98670D01*
X128970Y100550D01*
X129001Y101498D01*
X129001Y101498D01*
X200647Y101797D01*
X201002Y101444D01*
D02*
G37*
G36*
X88502D02*
Y100998D01*
X88532Y100083D01*
X88771Y98267D01*
X89245Y96498D01*
X89945Y94806D01*
X90861Y93221D01*
X91976Y91768D01*
X93271Y90473D01*
X94723Y89358D01*
X96310Y88442D01*
X98001Y87742D01*
X99770Y87268D01*
X101586Y87028D01*
X102501Y86998D01*
X102501Y86998D01*
X102501Y15498D01*
X101553Y15468D01*
X99673Y15220D01*
X97841Y14729D01*
X96088Y14003D01*
X94640Y13167D01*
X94333Y13567D01*
X98683Y17917D01*
X99015Y18413D01*
X99131Y18999D01*
Y36546D01*
X101554D01*
Y44451D01*
X94370D01*
X94179Y44913D01*
X96106Y46840D01*
X96570Y46648D01*
X97601Y46512D01*
X98633Y46648D01*
X99595Y47046D01*
X100421Y47679D01*
X101054Y48505D01*
X101453Y49467D01*
X101588Y50498D01*
X101453Y51530D01*
X101054Y52492D01*
X100421Y53318D01*
X99595Y53951D01*
X98633Y54349D01*
X97601Y54485D01*
X96570Y54349D01*
X95608Y53951D01*
X94782Y53318D01*
X94149Y52492D01*
X93751Y51530D01*
X93615Y50498D01*
X93751Y49467D01*
X93943Y49003D01*
X83920Y38980D01*
X83588Y38484D01*
X83472Y37898D01*
Y27619D01*
X82972Y27412D01*
X80957Y29427D01*
X81032Y29998D01*
X80911Y30912D01*
X80559Y31764D01*
X79998Y32495D01*
X79267Y33056D01*
X78415Y33408D01*
X77501Y33529D01*
X76588Y33408D01*
X75736Y33056D01*
X75005Y32495D01*
X74444Y31764D01*
X74092Y30912D01*
X73971Y29998D01*
X74046Y29427D01*
X72505Y27886D01*
X72063Y27224D01*
X72040Y27106D01*
X71540Y27155D01*
Y41374D01*
X79883Y49717D01*
X80215Y50213D01*
X80331Y50798D01*
Y52144D01*
X80567Y52241D01*
X81298Y52802D01*
X81859Y53533D01*
X82211Y54385D01*
X82332Y55299D01*
X82211Y56212D01*
X81859Y57064D01*
X81298Y57795D01*
X80567Y58356D01*
X80293Y58469D01*
X80392Y58969D01*
X93957D01*
X94149Y58505D01*
X94782Y57679D01*
X95608Y57046D01*
X96570Y56647D01*
X97601Y56512D01*
X98633Y56647D01*
X99595Y57046D01*
X100421Y57679D01*
X101054Y58505D01*
X101453Y59467D01*
X101588Y60498D01*
X101453Y61530D01*
X101054Y62492D01*
X100421Y63318D01*
X99595Y63951D01*
X98633Y64350D01*
X97601Y64485D01*
X96570Y64350D01*
X95608Y63951D01*
X94782Y63318D01*
X94149Y62492D01*
X93957Y62028D01*
X91974D01*
X84631Y69371D01*
Y81044D01*
X84867Y81141D01*
X85598Y81702D01*
X86159Y82433D01*
X86511Y83285D01*
X86632Y84198D01*
X86511Y85112D01*
X86159Y85964D01*
X85598Y86695D01*
X84867Y87256D01*
X84015Y87608D01*
X83101Y87729D01*
X82188Y87608D01*
X81336Y87256D01*
X80605Y86695D01*
X80044Y85964D01*
X79692Y85112D01*
X79571Y84198D01*
X79692Y83285D01*
X80044Y82433D01*
X80605Y81702D01*
X81336Y81141D01*
X81572Y81044D01*
Y68738D01*
X81688Y68153D01*
X82020Y67656D01*
X87187Y62490D01*
X86995Y62028D01*
X75002D01*
X74416Y61911D01*
X73920Y61580D01*
X61055Y48715D01*
X60723Y48218D01*
X60607Y47633D01*
Y22931D01*
X58699D01*
Y19273D01*
Y15616D01*
X65573D01*
Y19273D01*
Y22931D01*
X63665D01*
Y47000D01*
X75635Y58969D01*
X77211D01*
X77310Y58469D01*
X77036Y58356D01*
X76305Y57795D01*
X75744Y57064D01*
X75392Y56212D01*
X75271Y55299D01*
X75392Y54385D01*
X75744Y53533D01*
X76305Y52802D01*
X77036Y52241D01*
X77272Y52144D01*
Y51432D01*
X68929Y43089D01*
X68597Y42592D01*
X68481Y42007D01*
Y22931D01*
X66573D01*
Y19273D01*
Y15616D01*
X83472D01*
Y14132D01*
X83168Y13828D01*
X56735D01*
X55791Y14771D01*
Y15616D01*
X57699D01*
Y19273D01*
Y22931D01*
X50825D01*
Y19273D01*
X49825D01*
Y22931D01*
X42951D01*
Y19273D01*
Y15616D01*
X44859D01*
Y13612D01*
X44975Y13027D01*
X45307Y12530D01*
X49620Y8217D01*
X50116Y7886D01*
X50701Y7769D01*
X87902D01*
X88487Y7886D01*
X88983Y8217D01*
X89933Y9167D01*
X90333Y8860D01*
X89497Y7412D01*
X88771Y5659D01*
X88280Y3827D01*
X88033Y1947D01*
X88002Y998D01*
X16501D01*
X16470Y1947D01*
X16223Y3827D01*
X15732Y5659D01*
X15006Y7412D01*
X14058Y9054D01*
X12903Y10559D01*
X11562Y11900D01*
X10057Y13055D01*
X8415Y14003D01*
X6662Y14729D01*
X4830Y15220D01*
X2950Y15468D01*
X2001Y15498D01*
X2001Y15498D01*
Y26882D01*
X2463Y27074D01*
X11345Y18192D01*
X11841Y17860D01*
X12427Y17744D01*
X20388D01*
Y15616D01*
X41951D01*
Y19273D01*
Y22931D01*
X40044D01*
Y32842D01*
X40767Y33141D01*
X41498Y33702D01*
X42059Y34433D01*
X42411Y35285D01*
X42532Y36198D01*
X42411Y37112D01*
X42059Y37964D01*
X41498Y38695D01*
X40767Y39256D01*
X39915Y39608D01*
X39002Y39729D01*
X38088Y39608D01*
X37236Y39256D01*
X36606Y38772D01*
X36107Y38928D01*
Y42923D01*
X35990Y43508D01*
X35658Y44004D01*
X18483Y61180D01*
X17987Y61511D01*
X17402Y61628D01*
X16816Y61511D01*
X16320Y61180D01*
X14893Y59753D01*
X14431Y59944D01*
Y80342D01*
X14931Y80375D01*
X15051Y79467D01*
X15449Y78505D01*
X16082Y77679D01*
X16908Y77046D01*
X17870Y76648D01*
X18402Y76578D01*
Y80498D01*
Y84420D01*
X17870Y84350D01*
X16908Y83951D01*
X16548Y83675D01*
X16217Y84051D01*
X18552Y86386D01*
X18788Y86289D01*
X19702Y86168D01*
X20615Y86289D01*
X21467Y86641D01*
X22198Y87202D01*
X22759Y87933D01*
X23111Y88785D01*
X23232Y89698D01*
X23111Y90612D01*
X22759Y91464D01*
X22198Y92195D01*
X21467Y92756D01*
X20615Y93108D01*
X19702Y93229D01*
X18788Y93108D01*
X17936Y92756D01*
X17205Y92195D01*
X16644Y91464D01*
X16292Y90612D01*
X16171Y89698D01*
X16292Y88785D01*
X16389Y88549D01*
X11820Y83980D01*
X11489Y83484D01*
X11372Y82898D01*
Y80655D01*
X10872Y80622D01*
X10842Y80853D01*
X10752Y81530D01*
X10354Y82492D01*
X9721Y83318D01*
X8895Y83951D01*
X7933Y84350D01*
X7401Y84420D01*
Y80498D01*
Y76578D01*
X7933Y76648D01*
X8895Y77046D01*
X9721Y77679D01*
X10354Y78505D01*
X10752Y79467D01*
X10842Y80144D01*
X10872Y80375D01*
X11372Y80342D01*
Y70655D01*
X10872Y70622D01*
X10752Y71530D01*
X10354Y72492D01*
X9721Y73318D01*
X8895Y73951D01*
X7933Y74349D01*
X6901Y74485D01*
X5870Y74349D01*
X4908Y73951D01*
X4082Y73318D01*
X3449Y72492D01*
X3050Y71530D01*
X2987Y71047D01*
X2463Y70523D01*
X2001Y70715D01*
Y86998D01*
X2950Y87030D01*
X4830Y87277D01*
X6662Y87768D01*
X8415Y88494D01*
X10057Y89442D01*
X11562Y90597D01*
X12903Y91938D01*
X14058Y93443D01*
X15006Y95085D01*
X15732Y96838D01*
X16223Y98670D01*
X16470Y100550D01*
X16501Y101498D01*
X16501Y101498D01*
X88147Y101797D01*
X88502Y101444D01*
D02*
G37*
G36*
X239970Y54797D02*
X239944Y54764D01*
X239592Y53912D01*
X239471Y52999D01*
X239592Y52085D01*
X239944Y51233D01*
X240505Y50502D01*
X241236Y49941D01*
X242088Y49589D01*
X243002Y49468D01*
X243915Y49589D01*
X244151Y49686D01*
X244677Y49160D01*
X244413Y48717D01*
X243588Y48608D01*
X242736Y48256D01*
X242005Y47695D01*
X241444Y46964D01*
X241092Y46112D01*
X240971Y45199D01*
X241092Y44285D01*
X241444Y43433D01*
X242005Y42702D01*
X242736Y42141D01*
X243588Y41789D01*
X244501Y41668D01*
X245415Y41789D01*
X245651Y41886D01*
X250174Y37363D01*
Y22931D01*
X245388D01*
Y20803D01*
X238060D01*
X228831Y30032D01*
Y36546D01*
X235854D01*
Y44451D01*
X228831D01*
Y47242D01*
X229331Y47489D01*
X229908Y47046D01*
X230870Y46648D01*
X231902Y46512D01*
X232933Y46648D01*
X233895Y47046D01*
X234721Y47679D01*
X235354Y48505D01*
X235753Y49467D01*
X235888Y50498D01*
X235781Y51315D01*
X239593Y55127D01*
X239970Y54797D01*
D02*
G37*
G36*
X127470D02*
X127444Y54764D01*
X127092Y53912D01*
X126971Y52999D01*
X127092Y52085D01*
X127444Y51233D01*
X128005Y50502D01*
X128736Y49941D01*
X129588Y49589D01*
X130501Y49468D01*
X131415Y49589D01*
X131651Y49686D01*
X132177Y49160D01*
X131913Y48717D01*
X131088Y48608D01*
X130236Y48256D01*
X129505Y47695D01*
X128944Y46964D01*
X128592Y46112D01*
X128471Y45199D01*
X128592Y44285D01*
X128944Y43433D01*
X129505Y42702D01*
X130236Y42141D01*
X131088Y41789D01*
X132001Y41668D01*
X132915Y41789D01*
X133151Y41886D01*
X137674Y37363D01*
Y22931D01*
X132888D01*
Y20803D01*
X125560D01*
X116331Y30032D01*
Y36546D01*
X123354D01*
Y44451D01*
X116331D01*
Y47242D01*
X116831Y47489D01*
X117408Y47046D01*
X118370Y46648D01*
X119402Y46512D01*
X120433Y46648D01*
X121395Y47046D01*
X122221Y47679D01*
X122854Y48505D01*
X123252Y49467D01*
X123388Y50498D01*
X123281Y51315D01*
X127093Y55127D01*
X127470Y54797D01*
D02*
G37*
G36*
X14970D02*
X14944Y54764D01*
X14592Y53912D01*
X14471Y52999D01*
X14592Y52085D01*
X14944Y51233D01*
X15505Y50502D01*
X16236Y49941D01*
X17088Y49589D01*
X18001Y49468D01*
X18915Y49589D01*
X19151Y49686D01*
X19677Y49160D01*
X19413Y48717D01*
X18588Y48608D01*
X17736Y48256D01*
X17005Y47695D01*
X16444Y46964D01*
X16092Y46112D01*
X15971Y45199D01*
X16092Y44285D01*
X16444Y43433D01*
X17005Y42702D01*
X17736Y42141D01*
X18588Y41789D01*
X19501Y41668D01*
X20415Y41789D01*
X20651Y41886D01*
X25174Y37363D01*
Y22931D01*
X20388D01*
Y20803D01*
X13060D01*
X3831Y30032D01*
Y36546D01*
X10854D01*
Y44451D01*
X3831D01*
Y47242D01*
X4331Y47489D01*
X4908Y47046D01*
X5870Y46648D01*
X6901Y46512D01*
X7933Y46648D01*
X8895Y47046D01*
X9721Y47679D01*
X10354Y48505D01*
X10752Y49467D01*
X10888Y50498D01*
X10781Y51315D01*
X14593Y55127D01*
X14970Y54797D01*
D02*
G37*
G36*
X365519Y38922D02*
X365166Y38567D01*
X357000D01*
X351004Y44563D01*
X341500D01*
Y48563D01*
X365435D01*
X365519Y38922D01*
D02*
G37*
G36*
X356000Y37563D02*
X365602Y37563D01*
Y31563D01*
X349602D01*
X347602Y33563D01*
X341500Y33563D01*
X341500Y39563D01*
X354000Y39563D01*
X356000Y37563D01*
D02*
G37*
G36*
X375500Y24563D02*
X366500Y24563D01*
X366500Y48563D01*
X375500Y48563D01*
X375500Y24563D01*
D02*
G37*
G36*
X258048Y42289D02*
Y22931D01*
X257170D01*
Y40360D01*
X257053Y40945D01*
X256721Y41441D01*
X246314Y51849D01*
X246411Y52085D01*
X246532Y52999D01*
X246517Y53113D01*
X246990Y53347D01*
X258048Y42289D01*
D02*
G37*
G36*
X254111Y39726D02*
Y22931D01*
X253233D01*
Y37997D01*
X253116Y38582D01*
X252784Y39078D01*
X247814Y44049D01*
X247911Y44285D01*
X248020Y45110D01*
X248463Y45374D01*
X254111Y39726D01*
D02*
G37*
G36*
X145548Y42289D02*
Y22931D01*
X144669D01*
Y40360D01*
X144553Y40945D01*
X144221Y41441D01*
X133814Y51849D01*
X133911Y52085D01*
X134032Y52999D01*
X134017Y53113D01*
X134490Y53347D01*
X145548Y42289D01*
D02*
G37*
G36*
X141611Y39726D02*
Y22931D01*
X140733D01*
Y37997D01*
X140616Y38582D01*
X140285Y39078D01*
X135314Y44049D01*
X135411Y44285D01*
X135520Y45110D01*
X135963Y45374D01*
X141611Y39726D01*
D02*
G37*
G36*
X33048Y42289D02*
Y22931D01*
X32169D01*
Y40360D01*
X32053Y40945D01*
X31721Y41441D01*
X21314Y51849D01*
X21411Y52085D01*
X21532Y52999D01*
X21517Y53113D01*
X21990Y53347D01*
X33048Y42289D01*
D02*
G37*
G36*
X29111Y39726D02*
Y22931D01*
X28232D01*
Y37997D01*
X28116Y38582D01*
X27784Y39078D01*
X22814Y44049D01*
X22911Y44285D01*
X23020Y45110D01*
X23463Y45374D01*
X29111Y39726D01*
D02*
G37*
G36*
X318649Y43730D02*
Y36546D01*
X321072D01*
Y19632D01*
X312268Y10828D01*
X310178D01*
X310131Y10891D01*
X309994Y11328D01*
X311083Y12417D01*
X311415Y12913D01*
X311531Y13498D01*
Y25458D01*
X313802D01*
Y30198D01*
Y34939D01*
X311531D01*
Y37265D01*
X318187Y43921D01*
X318649Y43730D01*
D02*
G37*
G36*
X206149D02*
Y36546D01*
X208572D01*
Y19632D01*
X199768Y10828D01*
X197678D01*
X197631Y10891D01*
X197494Y11328D01*
X198583Y12417D01*
X198915Y12913D01*
X199031Y13498D01*
Y25458D01*
X201302D01*
Y30198D01*
Y34939D01*
X199031D01*
Y37265D01*
X205687Y43921D01*
X206149Y43730D01*
D02*
G37*
G36*
X93649D02*
Y36546D01*
X96072D01*
Y19632D01*
X87268Y10828D01*
X85179D01*
X85131Y10891D01*
X84994Y11328D01*
X86083Y12417D01*
X86414Y12913D01*
X86531Y13498D01*
Y25458D01*
X88801D01*
Y30198D01*
Y34939D01*
X86531D01*
Y37265D01*
X93187Y43921D01*
X93649Y43730D01*
D02*
G37*
%LPC*%
G36*
X124906Y378151D02*
X121453D01*
Y374698D01*
X124906D01*
Y378151D01*
D02*
G37*
G36*
X120453D02*
X117000D01*
Y374698D01*
X120453D01*
Y378151D01*
D02*
G37*
G36*
X124906Y373698D02*
X121453D01*
Y370246D01*
X124906D01*
Y373698D01*
D02*
G37*
G36*
X120453D02*
X117000D01*
Y370246D01*
X120453D01*
Y373698D01*
D02*
G37*
G36*
X150953Y378185D02*
X149921Y378049D01*
X148959Y377651D01*
X148134Y377017D01*
X147500Y376192D01*
X147102Y375230D01*
X146966Y374198D01*
X147102Y373166D01*
X147252Y372804D01*
X137933Y363486D01*
X128065D01*
X128010Y363619D01*
X127449Y364351D01*
X126718Y364912D01*
X125866Y365264D01*
X124953Y365385D01*
X124039Y365264D01*
X123188Y364912D01*
X122457Y364351D01*
X121896Y363619D01*
X121543Y362768D01*
X121423Y361854D01*
X121543Y360941D01*
X121896Y360089D01*
X122457Y359358D01*
X123188Y358797D01*
X124039Y358444D01*
X124953Y358324D01*
X125866Y358444D01*
X126718Y358797D01*
X127449Y359358D01*
X128010Y360089D01*
X128065Y360223D01*
X138609D01*
X139233Y360347D01*
X139762Y360701D01*
X149559Y370497D01*
X149921Y370347D01*
X150953Y370212D01*
X151985Y370347D01*
X152946Y370746D01*
X153772Y371379D01*
X154405Y372205D01*
X154804Y373166D01*
X154940Y374198D01*
X154804Y375230D01*
X154405Y376192D01*
X153772Y377017D01*
X152946Y377651D01*
X151985Y378049D01*
X150953Y378185D01*
D02*
G37*
G36*
X140953D02*
X139921Y378049D01*
X138959Y377651D01*
X138134Y377017D01*
X137500Y376192D01*
X137102Y375230D01*
X136966Y374198D01*
X137102Y373166D01*
X137500Y372205D01*
X138134Y371379D01*
X138959Y370746D01*
X139921Y370347D01*
X140953Y370212D01*
X141985Y370347D01*
X142946Y370746D01*
X143772Y371379D01*
X144405Y372205D01*
X144804Y373166D01*
X144940Y374198D01*
X144804Y375230D01*
X144405Y376192D01*
X143772Y377017D01*
X142946Y377651D01*
X141985Y378049D01*
X140953Y378185D01*
D02*
G37*
G36*
X130953D02*
X129921Y378049D01*
X128959Y377651D01*
X128134Y377017D01*
X127500Y376192D01*
X127102Y375230D01*
X126966Y374198D01*
X127102Y373166D01*
X127500Y372205D01*
X128134Y371379D01*
X128959Y370746D01*
X129921Y370347D01*
X130953Y370212D01*
X131985Y370347D01*
X132946Y370746D01*
X133772Y371379D01*
X134406Y372205D01*
X134804Y373166D01*
X134940Y374198D01*
X134804Y375230D01*
X134406Y376192D01*
X133772Y377017D01*
X132946Y377651D01*
X131985Y378049D01*
X130953Y378185D01*
D02*
G37*
G36*
X68929Y378151D02*
X65476D01*
Y374698D01*
X68929D01*
Y378151D01*
D02*
G37*
G36*
X64476D02*
X61024D01*
Y374698D01*
X64476D01*
Y378151D01*
D02*
G37*
G36*
X68929Y373698D02*
X65476D01*
Y370246D01*
X68929D01*
Y373698D01*
D02*
G37*
G36*
X64476D02*
X61024D01*
Y370246D01*
X64476D01*
Y373698D01*
D02*
G37*
G36*
X94976Y378185D02*
X93945Y378049D01*
X92983Y377651D01*
X92157Y377017D01*
X91524Y376192D01*
X91125Y375230D01*
X90990Y374198D01*
X91125Y373166D01*
X91275Y372804D01*
X81957Y363486D01*
X72089D01*
X72034Y363619D01*
X71473Y364351D01*
X70741Y364912D01*
X69890Y365264D01*
X68976Y365385D01*
X68063Y365264D01*
X67211Y364912D01*
X66480Y364351D01*
X65919Y363619D01*
X65566Y362768D01*
X65446Y361854D01*
X65566Y360941D01*
X65919Y360089D01*
X66480Y359358D01*
X67211Y358797D01*
X68063Y358444D01*
X68976Y358324D01*
X69890Y358444D01*
X70741Y358797D01*
X71473Y359358D01*
X72034Y360089D01*
X72089Y360223D01*
X82632D01*
X83257Y360347D01*
X83786Y360701D01*
X93582Y370497D01*
X93945Y370347D01*
X94976Y370212D01*
X96008Y370347D01*
X96970Y370746D01*
X97795Y371379D01*
X98429Y372205D01*
X98827Y373166D01*
X98963Y374198D01*
X98827Y375230D01*
X98429Y376192D01*
X97795Y377017D01*
X96970Y377651D01*
X96008Y378049D01*
X94976Y378185D01*
D02*
G37*
G36*
X84976D02*
X83944Y378049D01*
X82983Y377651D01*
X82157Y377017D01*
X81524Y376192D01*
X81125Y375230D01*
X80989Y374198D01*
X81125Y373166D01*
X81524Y372205D01*
X82157Y371379D01*
X82983Y370746D01*
X83944Y370347D01*
X84976Y370212D01*
X86008Y370347D01*
X86970Y370746D01*
X87796Y371379D01*
X88429Y372205D01*
X88827Y373166D01*
X88963Y374198D01*
X88827Y375230D01*
X88429Y376192D01*
X87796Y377017D01*
X86970Y377651D01*
X86008Y378049D01*
X84976Y378185D01*
D02*
G37*
G36*
X74976D02*
X73944Y378049D01*
X72983Y377651D01*
X72157Y377017D01*
X71524Y376192D01*
X71125Y375230D01*
X70990Y374198D01*
X71125Y373166D01*
X71524Y372205D01*
X72157Y371379D01*
X72983Y370746D01*
X73944Y370347D01*
X74976Y370212D01*
X76008Y370347D01*
X76970Y370746D01*
X77795Y371379D01*
X78429Y372205D01*
X78827Y373166D01*
X78963Y374198D01*
X78827Y375230D01*
X78429Y376192D01*
X77795Y377017D01*
X76970Y377651D01*
X76008Y378049D01*
X74976Y378185D01*
D02*
G37*
G36*
X12953Y378151D02*
X9500D01*
Y374698D01*
X12953D01*
Y378151D01*
D02*
G37*
G36*
X8500D02*
X5047D01*
Y374698D01*
X8500D01*
Y378151D01*
D02*
G37*
G36*
X12953Y373698D02*
X9500D01*
Y370246D01*
X12953D01*
Y373698D01*
D02*
G37*
G36*
X8500D02*
X5047D01*
Y370246D01*
X8500D01*
Y373698D01*
D02*
G37*
G36*
X39000Y378185D02*
X37968Y378049D01*
X37007Y377651D01*
X36181Y377017D01*
X35547Y376192D01*
X35149Y375230D01*
X35013Y374198D01*
X35149Y373166D01*
X35299Y372804D01*
X25980Y363486D01*
X16113D01*
X16057Y363619D01*
X15496Y364351D01*
X14765Y364912D01*
X13914Y365264D01*
X13000Y365385D01*
X12086Y365264D01*
X11235Y364912D01*
X10504Y364351D01*
X9943Y363619D01*
X9590Y362768D01*
X9470Y361854D01*
X9590Y360941D01*
X9943Y360089D01*
X10504Y359358D01*
X11235Y358797D01*
X12086Y358444D01*
X13000Y358324D01*
X13914Y358444D01*
X14765Y358797D01*
X15496Y359358D01*
X16057Y360089D01*
X16113Y360223D01*
X26656D01*
X27280Y360347D01*
X27810Y360701D01*
X37606Y370497D01*
X37968Y370347D01*
X39000Y370212D01*
X40032Y370347D01*
X40993Y370746D01*
X41819Y371379D01*
X42453Y372205D01*
X42851Y373166D01*
X42987Y374198D01*
X42851Y375230D01*
X42453Y376192D01*
X41819Y377017D01*
X40993Y377651D01*
X40032Y378049D01*
X39000Y378185D01*
D02*
G37*
G36*
X29000D02*
X27968Y378049D01*
X27007Y377651D01*
X26181Y377017D01*
X25547Y376192D01*
X25149Y375230D01*
X25013Y374198D01*
X25149Y373166D01*
X25547Y372205D01*
X26181Y371379D01*
X27007Y370746D01*
X27968Y370347D01*
X29000Y370212D01*
X30032Y370347D01*
X30993Y370746D01*
X31819Y371379D01*
X32453Y372205D01*
X32851Y373166D01*
X32987Y374198D01*
X32851Y375230D01*
X32453Y376192D01*
X31819Y377017D01*
X30993Y377651D01*
X30032Y378049D01*
X29000Y378185D01*
D02*
G37*
G36*
X19000D02*
X17968Y378049D01*
X17007Y377651D01*
X16181Y377017D01*
X15547Y376192D01*
X15149Y375230D01*
X15013Y374198D01*
X15149Y373166D01*
X15547Y372205D01*
X16181Y371379D01*
X17007Y370746D01*
X17968Y370347D01*
X19000Y370212D01*
X20032Y370347D01*
X20993Y370746D01*
X21819Y371379D01*
X22453Y372205D01*
X22851Y373166D01*
X22987Y374198D01*
X22851Y375230D01*
X22453Y376192D01*
X21819Y377017D01*
X20993Y377651D01*
X20032Y378049D01*
X19000Y378185D01*
D02*
G37*
G36*
X326453Y377453D02*
X323000D01*
Y374000D01*
X326453D01*
Y377453D01*
D02*
G37*
G36*
X322000D02*
X318547D01*
Y374000D01*
X322000D01*
Y377453D01*
D02*
G37*
G36*
X326453Y373000D02*
X323000D01*
Y369547D01*
X326453D01*
Y373000D01*
D02*
G37*
G36*
X322000D02*
X318547D01*
Y369547D01*
X322000D01*
Y373000D01*
D02*
G37*
G36*
X342500Y377487D02*
X341468Y377351D01*
X340507Y376953D01*
X339681Y376319D01*
X339047Y375493D01*
X338649Y374532D01*
X338513Y373500D01*
X338649Y372468D01*
X339047Y371507D01*
X339681Y370681D01*
X340507Y370047D01*
X341468Y369649D01*
X342500Y369513D01*
X343532Y369649D01*
X344493Y370047D01*
X345319Y370681D01*
X345953Y371507D01*
X346351Y372468D01*
X346487Y373500D01*
X346351Y374532D01*
X345953Y375493D01*
X345319Y376319D01*
X344493Y376953D01*
X343532Y377351D01*
X342500Y377487D01*
D02*
G37*
G36*
X332500D02*
X331468Y377351D01*
X330507Y376953D01*
X329681Y376319D01*
X329047Y375493D01*
X328649Y374532D01*
X328513Y373500D01*
X328649Y372468D01*
X329047Y371507D01*
X329681Y370681D01*
X330507Y370047D01*
X331468Y369649D01*
X332500Y369513D01*
X333532Y369649D01*
X334493Y370047D01*
X335319Y370681D01*
X335953Y371507D01*
X336351Y372468D01*
X336487Y373500D01*
X336351Y374532D01*
X335953Y375493D01*
X335319Y376319D01*
X334493Y376953D01*
X333532Y377351D01*
X332500Y377487D01*
D02*
G37*
G36*
X332000Y357463D02*
X331225Y357361D01*
X330503Y357062D01*
X329883Y356586D01*
X329750Y356413D01*
X329250D01*
X329117Y356586D01*
X328497Y357062D01*
X327775Y357361D01*
X327500Y357397D01*
Y347603D01*
X327775Y347639D01*
X328497Y347938D01*
X329117Y348414D01*
X329250Y348587D01*
X329750D01*
X329883Y348414D01*
X330503Y347938D01*
X331225Y347639D01*
X332000Y347537D01*
X332775Y347639D01*
X333497Y347938D01*
X333583Y348005D01*
X334032Y347783D01*
Y347563D01*
X339968D01*
Y357437D01*
X334032D01*
Y357217D01*
X333583Y356996D01*
X333497Y357062D01*
X332775Y357361D01*
X332000Y357463D01*
D02*
G37*
G36*
X326500Y357397D02*
X326225Y357361D01*
X325503Y357062D01*
X324883Y356586D01*
X324407Y355965D01*
X324108Y355243D01*
X324006Y354468D01*
Y353000D01*
X326500D01*
Y357397D01*
D02*
G37*
G36*
Y352000D02*
X324006D01*
Y350532D01*
X324108Y349757D01*
X324407Y349034D01*
X324883Y348414D01*
X325503Y347938D01*
X326225Y347639D01*
X326500Y347603D01*
Y352000D01*
D02*
G37*
G36*
X281453Y377453D02*
X278000D01*
Y374000D01*
X281453D01*
Y377453D01*
D02*
G37*
G36*
X277000D02*
X273547D01*
Y374000D01*
X277000D01*
Y377453D01*
D02*
G37*
G36*
X281453Y373000D02*
X278000D01*
Y369547D01*
X281453D01*
Y373000D01*
D02*
G37*
G36*
X277000D02*
X273547D01*
Y369547D01*
X277000D01*
Y373000D01*
D02*
G37*
G36*
X297500Y377487D02*
X296468Y377351D01*
X295507Y376953D01*
X294681Y376319D01*
X294047Y375493D01*
X293649Y374532D01*
X293513Y373500D01*
X293649Y372468D01*
X294047Y371507D01*
X294681Y370681D01*
X295507Y370047D01*
X296468Y369649D01*
X297500Y369513D01*
X298532Y369649D01*
X299493Y370047D01*
X300319Y370681D01*
X300953Y371507D01*
X301351Y372468D01*
X301487Y373500D01*
X301351Y374532D01*
X300953Y375493D01*
X300319Y376319D01*
X299493Y376953D01*
X298532Y377351D01*
X297500Y377487D01*
D02*
G37*
G36*
X287500D02*
X286468Y377351D01*
X285507Y376953D01*
X284681Y376319D01*
X284047Y375493D01*
X283649Y374532D01*
X283513Y373500D01*
X283649Y372468D01*
X284047Y371507D01*
X284681Y370681D01*
X285507Y370047D01*
X286468Y369649D01*
X287500Y369513D01*
X288532Y369649D01*
X289493Y370047D01*
X290319Y370681D01*
X290953Y371507D01*
X291351Y372468D01*
X291487Y373500D01*
X291351Y374532D01*
X290953Y375493D01*
X290319Y376319D01*
X289493Y376953D01*
X288532Y377351D01*
X287500Y377487D01*
D02*
G37*
G36*
X287000Y357463D02*
X286225Y357361D01*
X285503Y357062D01*
X284883Y356586D01*
X284750Y356413D01*
X284250D01*
X284117Y356586D01*
X283497Y357062D01*
X282775Y357361D01*
X282500Y357397D01*
Y347603D01*
X282775Y347639D01*
X283497Y347938D01*
X284117Y348414D01*
X284250Y348587D01*
X284750D01*
X284883Y348414D01*
X285503Y347938D01*
X286225Y347639D01*
X287000Y347537D01*
X287775Y347639D01*
X288497Y347938D01*
X288583Y348005D01*
X289032Y347783D01*
Y347563D01*
X294969D01*
Y357437D01*
X289032D01*
Y357217D01*
X288583Y356996D01*
X288497Y357062D01*
X287775Y357361D01*
X287000Y357463D01*
D02*
G37*
G36*
X281500Y357397D02*
X281225Y357361D01*
X280503Y357062D01*
X279883Y356586D01*
X279407Y355965D01*
X279108Y355243D01*
X279006Y354468D01*
Y353000D01*
X281500D01*
Y357397D01*
D02*
G37*
G36*
Y352000D02*
X279006D01*
Y350532D01*
X279108Y349757D01*
X279407Y349034D01*
X279883Y348414D01*
X280503Y347938D01*
X281225Y347639D01*
X281500Y347603D01*
Y352000D01*
D02*
G37*
G36*
X236453Y377453D02*
X233000D01*
Y374000D01*
X236453D01*
Y377453D01*
D02*
G37*
G36*
X232000D02*
X228547D01*
Y374000D01*
X232000D01*
Y377453D01*
D02*
G37*
G36*
X236453Y373000D02*
X233000D01*
Y369547D01*
X236453D01*
Y373000D01*
D02*
G37*
G36*
X232000D02*
X228547D01*
Y369547D01*
X232000D01*
Y373000D01*
D02*
G37*
G36*
X252500Y377487D02*
X251468Y377351D01*
X250507Y376953D01*
X249681Y376319D01*
X249047Y375493D01*
X248649Y374532D01*
X248513Y373500D01*
X248649Y372468D01*
X249047Y371507D01*
X249681Y370681D01*
X250507Y370047D01*
X251468Y369649D01*
X252500Y369513D01*
X253532Y369649D01*
X254493Y370047D01*
X255319Y370681D01*
X255953Y371507D01*
X256351Y372468D01*
X256487Y373500D01*
X256351Y374532D01*
X255953Y375493D01*
X255319Y376319D01*
X254493Y376953D01*
X253532Y377351D01*
X252500Y377487D01*
D02*
G37*
G36*
X242500D02*
X241468Y377351D01*
X240507Y376953D01*
X239681Y376319D01*
X239047Y375493D01*
X238649Y374532D01*
X238513Y373500D01*
X238649Y372468D01*
X239047Y371507D01*
X239681Y370681D01*
X240507Y370047D01*
X241468Y369649D01*
X242500Y369513D01*
X243532Y369649D01*
X244493Y370047D01*
X245319Y370681D01*
X245953Y371507D01*
X246351Y372468D01*
X246487Y373500D01*
X246351Y374532D01*
X245953Y375493D01*
X245319Y376319D01*
X244493Y376953D01*
X243532Y377351D01*
X242500Y377487D01*
D02*
G37*
G36*
X242000Y357463D02*
X241225Y357361D01*
X240503Y357062D01*
X239883Y356586D01*
X239750Y356413D01*
X239250D01*
X239117Y356586D01*
X238497Y357062D01*
X237775Y357361D01*
X237500Y357397D01*
Y347603D01*
X237775Y347639D01*
X238497Y347938D01*
X239117Y348414D01*
X239250Y348587D01*
X239750D01*
X239883Y348414D01*
X240503Y347938D01*
X241225Y347639D01*
X242000Y347537D01*
X242775Y347639D01*
X243497Y347938D01*
X243583Y348005D01*
X244032Y347783D01*
Y347563D01*
X249969D01*
Y357437D01*
X244032D01*
Y357217D01*
X243583Y356996D01*
X243497Y357062D01*
X242775Y357361D01*
X242000Y357463D01*
D02*
G37*
G36*
X236500Y357397D02*
X236225Y357361D01*
X235503Y357062D01*
X234883Y356586D01*
X234407Y355965D01*
X234108Y355243D01*
X234006Y354468D01*
Y353000D01*
X236500D01*
Y357397D01*
D02*
G37*
G36*
Y352000D02*
X234006D01*
Y350532D01*
X234108Y349757D01*
X234407Y349034D01*
X234883Y348414D01*
X235503Y347938D01*
X236225Y347639D01*
X236500Y347603D01*
Y352000D01*
D02*
G37*
G36*
X191453Y377453D02*
X188000D01*
Y374000D01*
X191453D01*
Y377453D01*
D02*
G37*
G36*
X187000D02*
X183547D01*
Y374000D01*
X187000D01*
Y377453D01*
D02*
G37*
G36*
X191453Y373000D02*
X188000D01*
Y369547D01*
X191453D01*
Y373000D01*
D02*
G37*
G36*
X187000D02*
X183547D01*
Y369547D01*
X187000D01*
Y373000D01*
D02*
G37*
G36*
X207500Y377487D02*
X206468Y377351D01*
X205507Y376953D01*
X204681Y376319D01*
X204047Y375493D01*
X203649Y374532D01*
X203513Y373500D01*
X203649Y372468D01*
X204047Y371507D01*
X204681Y370681D01*
X205507Y370047D01*
X206468Y369649D01*
X207500Y369513D01*
X208532Y369649D01*
X209493Y370047D01*
X210319Y370681D01*
X210953Y371507D01*
X211351Y372468D01*
X211487Y373500D01*
X211351Y374532D01*
X210953Y375493D01*
X210319Y376319D01*
X209493Y376953D01*
X208532Y377351D01*
X207500Y377487D01*
D02*
G37*
G36*
X197500D02*
X196468Y377351D01*
X195507Y376953D01*
X194681Y376319D01*
X194047Y375493D01*
X193649Y374532D01*
X193513Y373500D01*
X193649Y372468D01*
X194047Y371507D01*
X194681Y370681D01*
X195507Y370047D01*
X196468Y369649D01*
X197500Y369513D01*
X198532Y369649D01*
X199493Y370047D01*
X200319Y370681D01*
X200953Y371507D01*
X201351Y372468D01*
X201487Y373500D01*
X201351Y374532D01*
X200953Y375493D01*
X200319Y376319D01*
X199493Y376953D01*
X198532Y377351D01*
X197500Y377487D01*
D02*
G37*
G36*
X197000Y357463D02*
X196225Y357361D01*
X195503Y357062D01*
X194883Y356586D01*
X194750Y356413D01*
X194250D01*
X194117Y356586D01*
X193497Y357062D01*
X192775Y357361D01*
X192500Y357397D01*
Y347603D01*
X192775Y347639D01*
X193497Y347938D01*
X194117Y348414D01*
X194250Y348587D01*
X194750D01*
X194883Y348414D01*
X195503Y347938D01*
X196225Y347639D01*
X197000Y347537D01*
X197775Y347639D01*
X198497Y347938D01*
X198583Y348005D01*
X199031Y347783D01*
Y347563D01*
X204969D01*
Y357437D01*
X199031D01*
Y357217D01*
X198583Y356996D01*
X198497Y357062D01*
X197775Y357361D01*
X197000Y357463D01*
D02*
G37*
G36*
X191500Y357397D02*
X191225Y357361D01*
X190503Y357062D01*
X189883Y356586D01*
X189407Y355965D01*
X189108Y355243D01*
X189006Y354468D01*
Y353000D01*
X191500D01*
Y357397D01*
D02*
G37*
G36*
Y352000D02*
X189006D01*
Y350532D01*
X189108Y349757D01*
X189407Y349034D01*
X189883Y348414D01*
X190503Y347938D01*
X191225Y347639D01*
X191500Y347603D01*
Y352000D01*
D02*
G37*
G36*
X312201Y317938D02*
X303101D01*
X302321Y317782D01*
X301660Y317340D01*
X298573Y314253D01*
X298002Y314329D01*
X297088Y314208D01*
X296236Y313856D01*
X295505Y313295D01*
X294944Y312564D01*
X294592Y311712D01*
X294471Y310799D01*
X294592Y309885D01*
X294944Y309033D01*
X295505Y308302D01*
X295962Y307952D01*
Y302843D01*
X289657Y296538D01*
X284150D01*
X283821Y296914D01*
X283832Y296999D01*
X283711Y297912D01*
X283359Y298764D01*
X282798Y299495D01*
X282067Y300056D01*
X281215Y300408D01*
X280301Y300529D01*
X279388Y300408D01*
X278536Y300056D01*
X277805Y299495D01*
X277244Y298764D01*
X276892Y297912D01*
X276771Y296999D01*
X276892Y296085D01*
X277244Y295233D01*
X277805Y294502D01*
X278536Y293941D01*
X279388Y293589D01*
X280301Y293468D01*
X280873Y293544D01*
X281360Y293057D01*
X282021Y292615D01*
X282802Y292459D01*
X290501D01*
X291282Y292615D01*
X291943Y293057D01*
X299443Y300557D01*
X299886Y301218D01*
X300041Y301998D01*
Y307952D01*
X300498Y308302D01*
X301059Y309033D01*
X301411Y309885D01*
X301532Y310799D01*
X301456Y311370D01*
X303946Y313859D01*
X311357D01*
X318743Y306473D01*
X318615Y305499D01*
X318751Y304467D01*
X319149Y303505D01*
X319782Y302679D01*
X320608Y302046D01*
X321570Y301647D01*
X322602Y301512D01*
X323633Y301647D01*
X324595Y302046D01*
X325421Y302679D01*
X326054Y303505D01*
X326452Y304467D01*
X326588Y305499D01*
X326452Y306530D01*
X326054Y307492D01*
X325421Y308318D01*
X324595Y308951D01*
X323633Y309349D01*
X322602Y309485D01*
X321627Y309357D01*
X313643Y317340D01*
X312982Y317782D01*
X312201Y317938D01*
D02*
G37*
G36*
X244402Y309419D02*
Y305998D01*
X247822D01*
X247752Y306530D01*
X247354Y307492D01*
X246721Y308318D01*
X245895Y308951D01*
X244933Y309349D01*
X244402Y309419D01*
D02*
G37*
G36*
X231401D02*
X230870Y309349D01*
X229908Y308951D01*
X229082Y308318D01*
X228449Y307492D01*
X228050Y306530D01*
X227980Y305998D01*
X231401D01*
Y309419D01*
D02*
G37*
G36*
X285678Y308900D02*
X284903Y308799D01*
X284181Y308499D01*
X283561Y308024D01*
X283085Y307403D01*
X282786Y306681D01*
X282684Y305906D01*
X282786Y305131D01*
X283085Y304409D01*
X283561Y303789D01*
X284181Y303313D01*
X284903Y303014D01*
X285678Y302912D01*
X286453Y303014D01*
X287175Y303313D01*
X287795Y303789D01*
X288271Y304409D01*
X288570Y305131D01*
X288672Y305906D01*
X288570Y306681D01*
X288271Y307403D01*
X287795Y308024D01*
X287175Y308499D01*
X286453Y308799D01*
X285678Y308900D01*
D02*
G37*
G36*
X259694D02*
X258919Y308799D01*
X258197Y308499D01*
X257576Y308024D01*
X257101Y307403D01*
X256802Y306681D01*
X256699Y305906D01*
X256802Y305131D01*
X257101Y304409D01*
X257576Y303789D01*
X258197Y303313D01*
X258919Y303014D01*
X259694Y302912D01*
X260469Y303014D01*
X261191Y303313D01*
X261811Y303789D01*
X262287Y304409D01*
X262586Y305131D01*
X262688Y305906D01*
X262586Y306681D01*
X262287Y307403D01*
X261811Y308024D01*
X261191Y308499D01*
X260469Y308799D01*
X259694Y308900D01*
D02*
G37*
G36*
X247822Y304998D02*
X244402D01*
Y301577D01*
X244933Y301647D01*
X245895Y302046D01*
X246721Y302679D01*
X247354Y303505D01*
X247752Y304467D01*
X247822Y304998D01*
D02*
G37*
G36*
X231401D02*
X227980D01*
X228050Y304467D01*
X228449Y303505D01*
X229082Y302679D01*
X229908Y302046D01*
X230870Y301647D01*
X231401Y301577D01*
Y304998D01*
D02*
G37*
G36*
X247854Y299451D02*
X239949D01*
Y291546D01*
X247854D01*
Y293969D01*
X255888D01*
X255944Y293833D01*
X256505Y293102D01*
X257236Y292541D01*
X258088Y292189D01*
X259001Y292068D01*
X259915Y292189D01*
X260767Y292541D01*
X261498Y293102D01*
X262059Y293833D01*
X262411Y294685D01*
X262532Y295599D01*
X262411Y296512D01*
X262059Y297364D01*
X261498Y298095D01*
X260767Y298656D01*
X259915Y299008D01*
X259001Y299129D01*
X258088Y299008D01*
X257236Y298656D01*
X256505Y298095D01*
X255944Y297364D01*
X255805Y297028D01*
X247854D01*
Y299451D01*
D02*
G37*
G36*
X322602Y299485D02*
X321570Y299349D01*
X320608Y298951D01*
X319782Y298318D01*
X319149Y297492D01*
X318751Y296530D01*
X318615Y295498D01*
X318751Y294467D01*
X319149Y293505D01*
X319782Y292679D01*
X320608Y292046D01*
X321570Y291648D01*
X322602Y291512D01*
X323633Y291648D01*
X324595Y292046D01*
X325421Y292679D01*
X326054Y293505D01*
X326452Y294467D01*
X326588Y295498D01*
X326452Y296530D01*
X326054Y297492D01*
X325421Y298318D01*
X324595Y298951D01*
X323633Y299349D01*
X322602Y299485D01*
D02*
G37*
G36*
X199701Y317938D02*
X190602D01*
X189821Y317782D01*
X189160Y317340D01*
X186073Y314253D01*
X185502Y314329D01*
X184588Y314208D01*
X183736Y313856D01*
X183005Y313295D01*
X182444Y312564D01*
X182092Y311712D01*
X181971Y310799D01*
X182092Y309885D01*
X182444Y309033D01*
X183005Y308302D01*
X183462Y307952D01*
Y302843D01*
X177157Y296538D01*
X171650D01*
X171320Y296914D01*
X171332Y296999D01*
X171211Y297912D01*
X170859Y298764D01*
X170298Y299495D01*
X169567Y300056D01*
X168715Y300408D01*
X167801Y300529D01*
X166888Y300408D01*
X166036Y300056D01*
X165305Y299495D01*
X164744Y298764D01*
X164392Y297912D01*
X164271Y296999D01*
X164392Y296085D01*
X164744Y295233D01*
X165305Y294502D01*
X166036Y293941D01*
X166888Y293589D01*
X167801Y293468D01*
X168373Y293544D01*
X168860Y293057D01*
X169521Y292615D01*
X170301Y292459D01*
X178001D01*
X178782Y292615D01*
X179443Y293057D01*
X186943Y300557D01*
X187385Y301218D01*
X187541Y301998D01*
Y307952D01*
X187998Y308302D01*
X188559Y309033D01*
X188911Y309885D01*
X189032Y310799D01*
X188956Y311370D01*
X191446Y313859D01*
X198857D01*
X206243Y306473D01*
X206115Y305499D01*
X206251Y304467D01*
X206649Y303505D01*
X207282Y302679D01*
X208108Y302046D01*
X209070Y301647D01*
X210102Y301512D01*
X211133Y301647D01*
X212095Y302046D01*
X212921Y302679D01*
X213554Y303505D01*
X213952Y304467D01*
X214088Y305499D01*
X213952Y306530D01*
X213554Y307492D01*
X212921Y308318D01*
X212095Y308951D01*
X211133Y309349D01*
X210102Y309485D01*
X209127Y309357D01*
X201143Y317340D01*
X200482Y317782D01*
X199701Y317938D01*
D02*
G37*
G36*
X131902Y309419D02*
Y305998D01*
X135322D01*
X135252Y306530D01*
X134854Y307492D01*
X134221Y308318D01*
X133395Y308951D01*
X132433Y309349D01*
X131902Y309419D01*
D02*
G37*
G36*
X118902D02*
X118370Y309349D01*
X117408Y308951D01*
X116582Y308318D01*
X115949Y307492D01*
X115550Y306530D01*
X115480Y305998D01*
X118902D01*
Y309419D01*
D02*
G37*
G36*
X173178Y308900D02*
X172403Y308799D01*
X171681Y308499D01*
X171061Y308024D01*
X170585Y307403D01*
X170286Y306681D01*
X170184Y305906D01*
X170286Y305131D01*
X170585Y304409D01*
X171061Y303789D01*
X171681Y303313D01*
X172403Y303014D01*
X173178Y302912D01*
X173953Y303014D01*
X174675Y303313D01*
X175295Y303789D01*
X175771Y304409D01*
X176070Y305131D01*
X176172Y305906D01*
X176070Y306681D01*
X175771Y307403D01*
X175295Y308024D01*
X174675Y308499D01*
X173953Y308799D01*
X173178Y308900D01*
D02*
G37*
G36*
X147194D02*
X146419Y308799D01*
X145697Y308499D01*
X145077Y308024D01*
X144601Y307403D01*
X144301Y306681D01*
X144200Y305906D01*
X144301Y305131D01*
X144601Y304409D01*
X145077Y303789D01*
X145697Y303313D01*
X146419Y303014D01*
X147194Y302912D01*
X147969Y303014D01*
X148691Y303313D01*
X149311Y303789D01*
X149787Y304409D01*
X150086Y305131D01*
X150188Y305906D01*
X150086Y306681D01*
X149787Y307403D01*
X149311Y308024D01*
X148691Y308499D01*
X147969Y308799D01*
X147194Y308900D01*
D02*
G37*
G36*
X135322Y304998D02*
X131902D01*
Y301577D01*
X132433Y301647D01*
X133395Y302046D01*
X134221Y302679D01*
X134854Y303505D01*
X135252Y304467D01*
X135322Y304998D01*
D02*
G37*
G36*
X118902D02*
X115480D01*
X115550Y304467D01*
X115949Y303505D01*
X116582Y302679D01*
X117408Y302046D01*
X118370Y301647D01*
X118902Y301577D01*
Y304998D01*
D02*
G37*
G36*
X135354Y299451D02*
X127449D01*
Y291546D01*
X135354D01*
Y293969D01*
X143388D01*
X143444Y293833D01*
X144005Y293102D01*
X144736Y292541D01*
X145588Y292189D01*
X146502Y292068D01*
X147415Y292189D01*
X148267Y292541D01*
X148998Y293102D01*
X149559Y293833D01*
X149911Y294685D01*
X150032Y295599D01*
X149911Y296512D01*
X149559Y297364D01*
X148998Y298095D01*
X148267Y298656D01*
X147415Y299008D01*
X146502Y299129D01*
X145588Y299008D01*
X144736Y298656D01*
X144005Y298095D01*
X143444Y297364D01*
X143305Y297028D01*
X135354D01*
Y299451D01*
D02*
G37*
G36*
X210102Y299485D02*
X209070Y299349D01*
X208108Y298951D01*
X207282Y298318D01*
X206649Y297492D01*
X206251Y296530D01*
X206115Y295498D01*
X206251Y294467D01*
X206649Y293505D01*
X207282Y292679D01*
X208108Y292046D01*
X209070Y291648D01*
X210102Y291512D01*
X211133Y291648D01*
X212095Y292046D01*
X212921Y292679D01*
X213554Y293505D01*
X213952Y294467D01*
X214088Y295498D01*
X213952Y296530D01*
X213554Y297492D01*
X212921Y298318D01*
X212095Y298951D01*
X211133Y299349D01*
X210102Y299485D01*
D02*
G37*
G36*
X87201Y317938D02*
X78101D01*
X77321Y317782D01*
X76660Y317340D01*
X73573Y314253D01*
X73001Y314329D01*
X72088Y314208D01*
X71236Y313856D01*
X70505Y313295D01*
X69944Y312564D01*
X69592Y311712D01*
X69471Y310799D01*
X69592Y309885D01*
X69944Y309033D01*
X70505Y308302D01*
X70962Y307952D01*
Y302843D01*
X64657Y296538D01*
X59150D01*
X58820Y296914D01*
X58832Y296999D01*
X58711Y297912D01*
X58359Y298764D01*
X57798Y299495D01*
X57067Y300056D01*
X56215Y300408D01*
X55301Y300529D01*
X54388Y300408D01*
X53536Y300056D01*
X52805Y299495D01*
X52244Y298764D01*
X51892Y297912D01*
X51771Y296999D01*
X51892Y296085D01*
X52244Y295233D01*
X52805Y294502D01*
X53536Y293941D01*
X54388Y293589D01*
X55301Y293468D01*
X55873Y293544D01*
X56360Y293057D01*
X57021Y292615D01*
X57802Y292459D01*
X65501D01*
X66282Y292615D01*
X66943Y293057D01*
X74443Y300557D01*
X74885Y301218D01*
X75041Y301998D01*
Y307952D01*
X75498Y308302D01*
X76059Y309033D01*
X76411Y309885D01*
X76532Y310799D01*
X76456Y311370D01*
X78946Y313859D01*
X86357D01*
X93743Y306473D01*
X93615Y305499D01*
X93751Y304467D01*
X94149Y303505D01*
X94782Y302679D01*
X95608Y302046D01*
X96570Y301647D01*
X97601Y301512D01*
X98633Y301647D01*
X99595Y302046D01*
X100421Y302679D01*
X101054Y303505D01*
X101453Y304467D01*
X101588Y305499D01*
X101453Y306530D01*
X101054Y307492D01*
X100421Y308318D01*
X99595Y308951D01*
X98633Y309349D01*
X97601Y309485D01*
X96627Y309357D01*
X88643Y317340D01*
X87982Y317782D01*
X87201Y317938D01*
D02*
G37*
G36*
X19401Y309419D02*
Y305998D01*
X22822D01*
X22752Y306530D01*
X22354Y307492D01*
X21721Y308318D01*
X20895Y308951D01*
X19933Y309349D01*
X19401Y309419D01*
D02*
G37*
G36*
X6402D02*
X5870Y309349D01*
X4908Y308951D01*
X4082Y308318D01*
X3449Y307492D01*
X3050Y306530D01*
X2981Y305998D01*
X6402D01*
Y309419D01*
D02*
G37*
G36*
X60678Y308900D02*
X59903Y308799D01*
X59181Y308499D01*
X58561Y308024D01*
X58085Y307403D01*
X57786Y306681D01*
X57684Y305906D01*
X57786Y305131D01*
X58085Y304409D01*
X58561Y303789D01*
X59181Y303313D01*
X59903Y303014D01*
X60678Y302912D01*
X61453Y303014D01*
X62175Y303313D01*
X62795Y303789D01*
X63271Y304409D01*
X63570Y305131D01*
X63672Y305906D01*
X63570Y306681D01*
X63271Y307403D01*
X62795Y308024D01*
X62175Y308499D01*
X61453Y308799D01*
X60678Y308900D01*
D02*
G37*
G36*
X34694D02*
X33919Y308799D01*
X33197Y308499D01*
X32577Y308024D01*
X32101Y307403D01*
X31802Y306681D01*
X31699Y305906D01*
X31802Y305131D01*
X32101Y304409D01*
X32577Y303789D01*
X33197Y303313D01*
X33919Y303014D01*
X34694Y302912D01*
X35469Y303014D01*
X36191Y303313D01*
X36811Y303789D01*
X37287Y304409D01*
X37586Y305131D01*
X37688Y305906D01*
X37586Y306681D01*
X37287Y307403D01*
X36811Y308024D01*
X36191Y308499D01*
X35469Y308799D01*
X34694Y308900D01*
D02*
G37*
G36*
X22822Y304998D02*
X19401D01*
Y301577D01*
X19933Y301647D01*
X20895Y302046D01*
X21721Y302679D01*
X22354Y303505D01*
X22752Y304467D01*
X22822Y304998D01*
D02*
G37*
G36*
X6402D02*
X2981D01*
X3050Y304467D01*
X3449Y303505D01*
X4082Y302679D01*
X4908Y302046D01*
X5870Y301647D01*
X6402Y301577D01*
Y304998D01*
D02*
G37*
G36*
X22854Y299451D02*
X14949D01*
Y291546D01*
X22854D01*
Y293969D01*
X30888D01*
X30944Y293833D01*
X31505Y293102D01*
X32236Y292541D01*
X33088Y292189D01*
X34001Y292068D01*
X34915Y292189D01*
X35767Y292541D01*
X36498Y293102D01*
X37059Y293833D01*
X37411Y294685D01*
X37532Y295599D01*
X37411Y296512D01*
X37059Y297364D01*
X36498Y298095D01*
X35767Y298656D01*
X34915Y299008D01*
X34001Y299129D01*
X33088Y299008D01*
X32236Y298656D01*
X31505Y298095D01*
X30944Y297364D01*
X30805Y297028D01*
X22854D01*
Y299451D01*
D02*
G37*
G36*
X97601Y299485D02*
X96570Y299349D01*
X95608Y298951D01*
X94782Y298318D01*
X94149Y297492D01*
X93751Y296530D01*
X93615Y295498D01*
X93751Y294467D01*
X94149Y293505D01*
X94782Y292679D01*
X95608Y292046D01*
X96570Y291648D01*
X97601Y291512D01*
X98633Y291648D01*
X99595Y292046D01*
X100421Y292679D01*
X101054Y293505D01*
X101453Y294467D01*
X101588Y295498D01*
X101453Y296530D01*
X101054Y297492D01*
X100421Y298318D01*
X99595Y298951D01*
X98633Y299349D01*
X97601Y299485D01*
D02*
G37*
G36*
X376953Y301953D02*
X373500D01*
Y298500D01*
X376953D01*
Y301953D01*
D02*
G37*
G36*
X372500D02*
X369047D01*
Y298500D01*
X372500D01*
Y301953D01*
D02*
G37*
G36*
X376953Y297500D02*
X373500D01*
Y294047D01*
X376953D01*
Y297500D01*
D02*
G37*
G36*
X372500D02*
X369047D01*
Y294047D01*
X372500D01*
Y297500D01*
D02*
G37*
G36*
X353969Y296494D02*
X352500D01*
Y294000D01*
X356897D01*
X356861Y294275D01*
X356561Y294997D01*
X356086Y295617D01*
X355466Y296093D01*
X354743Y296392D01*
X353969Y296494D01*
D02*
G37*
G36*
X351500D02*
X350031D01*
X349257Y296392D01*
X348534Y296093D01*
X347914Y295617D01*
X347439Y294997D01*
X347139Y294275D01*
X347103Y294000D01*
X351500D01*
Y296494D01*
D02*
G37*
G36*
X373000Y291987D02*
X371968Y291851D01*
X371007Y291453D01*
X370181Y290819D01*
X369547Y289993D01*
X369149Y289032D01*
X369013Y288000D01*
X369149Y286968D01*
X369547Y286007D01*
X370181Y285181D01*
X371007Y284547D01*
X371968Y284149D01*
X373000Y284013D01*
X374032Y284149D01*
X374993Y284547D01*
X375819Y285181D01*
X376453Y286007D01*
X376851Y286968D01*
X376987Y288000D01*
X376851Y289032D01*
X376453Y289993D01*
X375819Y290819D01*
X374993Y291453D01*
X374032Y291851D01*
X373000Y291987D01*
D02*
G37*
G36*
X356897Y293000D02*
X347103D01*
X347139Y292725D01*
X347439Y292003D01*
X347914Y291383D01*
X348087Y291250D01*
Y290750D01*
X347914Y290617D01*
X347439Y289997D01*
X347139Y289275D01*
X347037Y288500D01*
X347139Y287725D01*
X347439Y287003D01*
X347504Y286917D01*
X347283Y286469D01*
X347063D01*
Y280532D01*
X356937D01*
Y286469D01*
X356717D01*
X356495Y286917D01*
X356561Y287003D01*
X356861Y287725D01*
X356963Y288500D01*
X356861Y289275D01*
X356561Y289997D01*
X356086Y290617D01*
X355912Y290750D01*
Y291250D01*
X356086Y291383D01*
X356561Y292003D01*
X356861Y292725D01*
X356897Y293000D01*
D02*
G37*
G36*
X373000Y281987D02*
X371968Y281851D01*
X371007Y281453D01*
X370181Y280819D01*
X369547Y279993D01*
X369149Y279032D01*
X369013Y278000D01*
X369149Y276968D01*
X369547Y276007D01*
X370181Y275181D01*
X371007Y274547D01*
X371968Y274149D01*
X373000Y274013D01*
X374032Y274149D01*
X374993Y274547D01*
X375819Y275181D01*
X376453Y276007D01*
X376851Y276968D01*
X376987Y278000D01*
X376851Y279032D01*
X376453Y279993D01*
X375819Y280819D01*
X374993Y281453D01*
X374032Y281851D01*
X373000Y281987D01*
D02*
G37*
G36*
X244238Y259939D02*
X240786D01*
Y255698D01*
X244238D01*
Y259939D01*
D02*
G37*
G36*
X239786D02*
X236333D01*
Y255698D01*
X239786D01*
Y259939D01*
D02*
G37*
G36*
X244238Y254698D02*
X240786D01*
Y250458D01*
X244238D01*
Y254698D01*
D02*
G37*
G36*
X239786D02*
X236333D01*
Y250458D01*
X239786D01*
Y254698D01*
D02*
G37*
G36*
X131738Y259939D02*
X128286D01*
Y255698D01*
X131738D01*
Y259939D01*
D02*
G37*
G36*
X127286D02*
X123833D01*
Y255698D01*
X127286D01*
Y259939D01*
D02*
G37*
G36*
X131738Y254698D02*
X128286D01*
Y250458D01*
X131738D01*
Y254698D01*
D02*
G37*
G36*
X127286D02*
X123833D01*
Y250458D01*
X127286D01*
Y254698D01*
D02*
G37*
G36*
X19239Y259939D02*
X15786D01*
Y255698D01*
X19239D01*
Y259939D01*
D02*
G37*
G36*
X14786D02*
X11333D01*
Y255698D01*
X14786D01*
Y259939D01*
D02*
G37*
G36*
X19239Y254698D02*
X15786D01*
Y250458D01*
X19239D01*
Y254698D01*
D02*
G37*
G36*
X14786D02*
X11333D01*
Y250458D01*
X14786D01*
Y254698D01*
D02*
G37*
G36*
X318254Y259939D02*
X314802D01*
Y255698D01*
X318254D01*
Y259939D01*
D02*
G37*
G36*
Y254698D02*
X314802D01*
Y250458D01*
X318254D01*
Y254698D01*
D02*
G37*
G36*
X205754Y259939D02*
X202302D01*
Y255698D01*
X205754D01*
Y259939D01*
D02*
G37*
G36*
Y254698D02*
X202302D01*
Y250458D01*
X205754D01*
Y254698D01*
D02*
G37*
G36*
X93254Y259939D02*
X89802D01*
Y255698D01*
X93254D01*
Y259939D01*
D02*
G37*
G36*
Y254698D02*
X89802D01*
Y250458D01*
X93254D01*
Y254698D01*
D02*
G37*
G36*
X376953Y256953D02*
X373500D01*
Y253500D01*
X376953D01*
Y256953D01*
D02*
G37*
G36*
X372500D02*
X369047D01*
Y253500D01*
X372500D01*
Y256953D01*
D02*
G37*
G36*
X376953Y252500D02*
X373500D01*
Y249047D01*
X376953D01*
Y252500D01*
D02*
G37*
G36*
X372500D02*
X369047D01*
Y249047D01*
X372500D01*
Y252500D01*
D02*
G37*
G36*
X353969Y251494D02*
X352500D01*
Y249000D01*
X356897D01*
X356861Y249275D01*
X356561Y249997D01*
X356086Y250617D01*
X355466Y251093D01*
X354743Y251392D01*
X353969Y251494D01*
D02*
G37*
G36*
X351500D02*
X350031D01*
X349257Y251392D01*
X348534Y251093D01*
X347914Y250617D01*
X347439Y249997D01*
X347139Y249275D01*
X347103Y249000D01*
X351500D01*
Y251494D01*
D02*
G37*
G36*
X373000Y246987D02*
X371968Y246851D01*
X371007Y246453D01*
X370181Y245819D01*
X369547Y244993D01*
X369149Y244032D01*
X369013Y243000D01*
X369149Y241968D01*
X369547Y241007D01*
X370181Y240181D01*
X371007Y239547D01*
X371968Y239149D01*
X373000Y239013D01*
X374032Y239149D01*
X374993Y239547D01*
X375819Y240181D01*
X376453Y241007D01*
X376851Y241968D01*
X376987Y243000D01*
X376851Y244032D01*
X376453Y244993D01*
X375819Y245819D01*
X374993Y246453D01*
X374032Y246851D01*
X373000Y246987D01*
D02*
G37*
G36*
X356897Y248000D02*
X347103D01*
X347139Y247725D01*
X347439Y247003D01*
X347914Y246383D01*
X348087Y246250D01*
Y245750D01*
X347914Y245617D01*
X347439Y244997D01*
X347139Y244275D01*
X347037Y243500D01*
X347139Y242725D01*
X347439Y242003D01*
X347504Y241917D01*
X347283Y241469D01*
X347063D01*
Y235531D01*
X356937D01*
Y241469D01*
X356717D01*
X356495Y241917D01*
X356561Y242003D01*
X356861Y242725D01*
X356963Y243500D01*
X356861Y244275D01*
X356561Y244997D01*
X356086Y245617D01*
X355912Y245750D01*
Y246250D01*
X356086Y246383D01*
X356561Y247003D01*
X356861Y247725D01*
X356897Y248000D01*
D02*
G37*
G36*
X373000Y236987D02*
X371968Y236851D01*
X371007Y236453D01*
X370181Y235819D01*
X369547Y234993D01*
X369149Y234032D01*
X369013Y233000D01*
X369149Y231968D01*
X369547Y231007D01*
X370181Y230181D01*
X371007Y229547D01*
X371968Y229149D01*
X373000Y229013D01*
X374032Y229149D01*
X374993Y229547D01*
X375819Y230181D01*
X376453Y231007D01*
X376851Y231968D01*
X376987Y233000D01*
X376851Y234032D01*
X376453Y234993D01*
X375819Y235819D01*
X374993Y236453D01*
X374032Y236851D01*
X373000Y236987D01*
D02*
G37*
G36*
X376953Y211953D02*
X373500D01*
Y208500D01*
X376953D01*
Y211953D01*
D02*
G37*
G36*
X372500D02*
X369047D01*
Y208500D01*
X372500D01*
Y211953D01*
D02*
G37*
G36*
X376953Y207500D02*
X373500D01*
Y204047D01*
X376953D01*
Y207500D01*
D02*
G37*
G36*
X372500D02*
X369047D01*
Y204047D01*
X372500D01*
Y207500D01*
D02*
G37*
G36*
X353969Y206494D02*
X352500D01*
Y204000D01*
X356897D01*
X356861Y204275D01*
X356561Y204997D01*
X356086Y205617D01*
X355466Y206093D01*
X354743Y206392D01*
X353969Y206494D01*
D02*
G37*
G36*
X351500D02*
X350031D01*
X349257Y206392D01*
X348534Y206093D01*
X347914Y205617D01*
X347439Y204997D01*
X347139Y204275D01*
X347103Y204000D01*
X351500D01*
Y206494D01*
D02*
G37*
G36*
X373000Y201987D02*
X371968Y201851D01*
X371007Y201453D01*
X370181Y200819D01*
X369547Y199993D01*
X369149Y199032D01*
X369013Y198000D01*
X369149Y196968D01*
X369547Y196007D01*
X370181Y195181D01*
X371007Y194547D01*
X371968Y194149D01*
X373000Y194013D01*
X374032Y194149D01*
X374993Y194547D01*
X375819Y195181D01*
X376453Y196007D01*
X376851Y196968D01*
X376987Y198000D01*
X376851Y199032D01*
X376453Y199993D01*
X375819Y200819D01*
X374993Y201453D01*
X374032Y201851D01*
X373000Y201987D01*
D02*
G37*
G36*
X356897Y203000D02*
X347103D01*
X347139Y202725D01*
X347439Y202003D01*
X347914Y201383D01*
X348087Y201250D01*
Y200750D01*
X347914Y200617D01*
X347439Y199997D01*
X347139Y199275D01*
X347037Y198500D01*
X347139Y197725D01*
X347439Y197003D01*
X347504Y196917D01*
X347283Y196468D01*
X347063D01*
Y190532D01*
X356937D01*
Y196468D01*
X356717D01*
X356495Y196917D01*
X356561Y197003D01*
X356861Y197725D01*
X356963Y198500D01*
X356861Y199275D01*
X356561Y199997D01*
X356086Y200617D01*
X355912Y200750D01*
Y201250D01*
X356086Y201383D01*
X356561Y202003D01*
X356861Y202725D01*
X356897Y203000D01*
D02*
G37*
G36*
X373000Y191987D02*
X371968Y191851D01*
X371007Y191453D01*
X370181Y190819D01*
X369547Y189993D01*
X369149Y189032D01*
X369013Y188000D01*
X369149Y186968D01*
X369547Y186007D01*
X370181Y185181D01*
X371007Y184547D01*
X371968Y184149D01*
X373000Y184013D01*
X374032Y184149D01*
X374993Y184547D01*
X375819Y185181D01*
X376453Y186007D01*
X376851Y186968D01*
X376987Y188000D01*
X376851Y189032D01*
X376453Y189993D01*
X375819Y190819D01*
X374993Y191453D01*
X374032Y191851D01*
X373000Y191987D01*
D02*
G37*
G36*
X312201Y205438D02*
X303101D01*
X302321Y205282D01*
X301660Y204840D01*
X298573Y201753D01*
X298002Y201829D01*
X297088Y201708D01*
X296236Y201356D01*
X295505Y200795D01*
X294944Y200064D01*
X294592Y199212D01*
X294471Y198299D01*
X294592Y197385D01*
X294944Y196533D01*
X295505Y195802D01*
X295962Y195452D01*
Y190343D01*
X289657Y184038D01*
X284150D01*
X283821Y184414D01*
X283832Y184499D01*
X283711Y185412D01*
X283359Y186264D01*
X282798Y186995D01*
X282067Y187556D01*
X281215Y187908D01*
X280301Y188029D01*
X279388Y187908D01*
X278536Y187556D01*
X277805Y186995D01*
X277244Y186264D01*
X276892Y185412D01*
X276771Y184499D01*
X276892Y183585D01*
X277244Y182733D01*
X277805Y182002D01*
X278536Y181441D01*
X279388Y181089D01*
X280301Y180968D01*
X280873Y181044D01*
X281360Y180557D01*
X282021Y180114D01*
X282802Y179959D01*
X290501D01*
X291282Y180114D01*
X291943Y180557D01*
X299443Y188057D01*
X299886Y188718D01*
X300041Y189498D01*
Y195452D01*
X300498Y195802D01*
X301059Y196533D01*
X301411Y197385D01*
X301532Y198299D01*
X301456Y198870D01*
X303946Y201359D01*
X311357D01*
X318743Y193973D01*
X318615Y192999D01*
X318751Y191967D01*
X319149Y191005D01*
X319782Y190179D01*
X320608Y189546D01*
X321570Y189147D01*
X322602Y189012D01*
X323633Y189147D01*
X324595Y189546D01*
X325421Y190179D01*
X326054Y191005D01*
X326452Y191967D01*
X326588Y192999D01*
X326452Y194030D01*
X326054Y194992D01*
X325421Y195818D01*
X324595Y196451D01*
X323633Y196850D01*
X322602Y196985D01*
X321627Y196857D01*
X313643Y204840D01*
X312982Y205282D01*
X312201Y205438D01*
D02*
G37*
G36*
X244402Y196920D02*
Y193499D01*
X247822D01*
X247752Y194030D01*
X247354Y194992D01*
X246721Y195818D01*
X245895Y196451D01*
X244933Y196850D01*
X244402Y196920D01*
D02*
G37*
G36*
X231401D02*
X230870Y196850D01*
X229908Y196451D01*
X229082Y195818D01*
X228449Y194992D01*
X228050Y194030D01*
X227980Y193499D01*
X231401D01*
Y196920D01*
D02*
G37*
G36*
X285678Y196400D02*
X284903Y196299D01*
X284181Y195999D01*
X283561Y195524D01*
X283085Y194903D01*
X282786Y194181D01*
X282684Y193406D01*
X282786Y192631D01*
X283085Y191909D01*
X283561Y191289D01*
X284181Y190813D01*
X284903Y190514D01*
X285678Y190412D01*
X286453Y190514D01*
X287175Y190813D01*
X287795Y191289D01*
X288271Y191909D01*
X288570Y192631D01*
X288672Y193406D01*
X288570Y194181D01*
X288271Y194903D01*
X287795Y195524D01*
X287175Y195999D01*
X286453Y196299D01*
X285678Y196400D01*
D02*
G37*
G36*
X259694D02*
X258919Y196299D01*
X258197Y195999D01*
X257576Y195524D01*
X257101Y194903D01*
X256802Y194181D01*
X256699Y193406D01*
X256802Y192631D01*
X257101Y191909D01*
X257576Y191289D01*
X258197Y190813D01*
X258919Y190514D01*
X259694Y190412D01*
X260469Y190514D01*
X261191Y190813D01*
X261811Y191289D01*
X262287Y191909D01*
X262586Y192631D01*
X262688Y193406D01*
X262586Y194181D01*
X262287Y194903D01*
X261811Y195524D01*
X261191Y195999D01*
X260469Y196299D01*
X259694Y196400D01*
D02*
G37*
G36*
X247822Y192499D02*
X244402D01*
Y189077D01*
X244933Y189147D01*
X245895Y189546D01*
X246721Y190179D01*
X247354Y191005D01*
X247752Y191967D01*
X247822Y192499D01*
D02*
G37*
G36*
X231401D02*
X227980D01*
X228050Y191967D01*
X228449Y191005D01*
X229082Y190179D01*
X229908Y189546D01*
X230870Y189147D01*
X231401Y189077D01*
Y192499D01*
D02*
G37*
G36*
X247854Y186951D02*
X239949D01*
Y179046D01*
X247854D01*
Y181469D01*
X255888D01*
X255944Y181333D01*
X256505Y180602D01*
X257236Y180041D01*
X258088Y179689D01*
X259001Y179568D01*
X259915Y179689D01*
X260767Y180041D01*
X261498Y180602D01*
X262059Y181333D01*
X262411Y182185D01*
X262532Y183098D01*
X262411Y184012D01*
X262059Y184864D01*
X261498Y185595D01*
X260767Y186156D01*
X259915Y186508D01*
X259001Y186629D01*
X258088Y186508D01*
X257236Y186156D01*
X256505Y185595D01*
X255944Y184864D01*
X255805Y184528D01*
X247854D01*
Y186951D01*
D02*
G37*
G36*
X322602Y186985D02*
X321570Y186849D01*
X320608Y186451D01*
X319782Y185818D01*
X319149Y184992D01*
X318751Y184030D01*
X318615Y182999D01*
X318751Y181967D01*
X319149Y181005D01*
X319782Y180179D01*
X320608Y179546D01*
X321570Y179148D01*
X322602Y179012D01*
X323633Y179148D01*
X324595Y179546D01*
X325421Y180179D01*
X326054Y181005D01*
X326452Y181967D01*
X326588Y182999D01*
X326452Y184030D01*
X326054Y184992D01*
X325421Y185818D01*
X324595Y186451D01*
X323633Y186849D01*
X322602Y186985D01*
D02*
G37*
G36*
X199701Y205438D02*
X190602D01*
X189821Y205282D01*
X189160Y204840D01*
X186073Y201753D01*
X185502Y201829D01*
X184588Y201708D01*
X183736Y201356D01*
X183005Y200795D01*
X182444Y200064D01*
X182092Y199212D01*
X181971Y198299D01*
X182092Y197385D01*
X182444Y196533D01*
X183005Y195802D01*
X183462Y195452D01*
Y190343D01*
X177157Y184038D01*
X171650D01*
X171320Y184414D01*
X171332Y184499D01*
X171211Y185412D01*
X170859Y186264D01*
X170298Y186995D01*
X169567Y187556D01*
X168715Y187908D01*
X167801Y188029D01*
X166888Y187908D01*
X166036Y187556D01*
X165305Y186995D01*
X164744Y186264D01*
X164392Y185412D01*
X164271Y184499D01*
X164392Y183585D01*
X164744Y182733D01*
X165305Y182002D01*
X166036Y181441D01*
X166888Y181089D01*
X167801Y180968D01*
X168373Y181044D01*
X168860Y180557D01*
X169521Y180114D01*
X170301Y179959D01*
X178001D01*
X178782Y180114D01*
X179443Y180557D01*
X186943Y188057D01*
X187385Y188718D01*
X187541Y189498D01*
Y195452D01*
X187998Y195802D01*
X188559Y196533D01*
X188911Y197385D01*
X189032Y198299D01*
X188956Y198870D01*
X191446Y201359D01*
X198857D01*
X206243Y193973D01*
X206115Y192999D01*
X206251Y191967D01*
X206649Y191005D01*
X207282Y190179D01*
X208108Y189546D01*
X209070Y189147D01*
X210102Y189012D01*
X211133Y189147D01*
X212095Y189546D01*
X212921Y190179D01*
X213554Y191005D01*
X213952Y191967D01*
X214088Y192999D01*
X213952Y194030D01*
X213554Y194992D01*
X212921Y195818D01*
X212095Y196451D01*
X211133Y196850D01*
X210102Y196985D01*
X209127Y196857D01*
X201143Y204840D01*
X200482Y205282D01*
X199701Y205438D01*
D02*
G37*
G36*
X131902Y196920D02*
Y193499D01*
X135322D01*
X135252Y194030D01*
X134854Y194992D01*
X134221Y195818D01*
X133395Y196451D01*
X132433Y196850D01*
X131902Y196920D01*
D02*
G37*
G36*
X118902D02*
X118370Y196850D01*
X117408Y196451D01*
X116582Y195818D01*
X115949Y194992D01*
X115550Y194030D01*
X115480Y193499D01*
X118902D01*
Y196920D01*
D02*
G37*
G36*
X173178Y196400D02*
X172403Y196299D01*
X171681Y195999D01*
X171061Y195524D01*
X170585Y194903D01*
X170286Y194181D01*
X170184Y193406D01*
X170286Y192631D01*
X170585Y191909D01*
X171061Y191289D01*
X171681Y190813D01*
X172403Y190514D01*
X173178Y190412D01*
X173953Y190514D01*
X174675Y190813D01*
X175295Y191289D01*
X175771Y191909D01*
X176070Y192631D01*
X176172Y193406D01*
X176070Y194181D01*
X175771Y194903D01*
X175295Y195524D01*
X174675Y195999D01*
X173953Y196299D01*
X173178Y196400D01*
D02*
G37*
G36*
X147194D02*
X146419Y196299D01*
X145697Y195999D01*
X145077Y195524D01*
X144601Y194903D01*
X144301Y194181D01*
X144200Y193406D01*
X144301Y192631D01*
X144601Y191909D01*
X145077Y191289D01*
X145697Y190813D01*
X146419Y190514D01*
X147194Y190412D01*
X147969Y190514D01*
X148691Y190813D01*
X149311Y191289D01*
X149787Y191909D01*
X150086Y192631D01*
X150188Y193406D01*
X150086Y194181D01*
X149787Y194903D01*
X149311Y195524D01*
X148691Y195999D01*
X147969Y196299D01*
X147194Y196400D01*
D02*
G37*
G36*
X135322Y192499D02*
X131902D01*
Y189077D01*
X132433Y189147D01*
X133395Y189546D01*
X134221Y190179D01*
X134854Y191005D01*
X135252Y191967D01*
X135322Y192499D01*
D02*
G37*
G36*
X118902D02*
X115480D01*
X115550Y191967D01*
X115949Y191005D01*
X116582Y190179D01*
X117408Y189546D01*
X118370Y189147D01*
X118902Y189077D01*
Y192499D01*
D02*
G37*
G36*
X135354Y186951D02*
X127449D01*
Y179046D01*
X135354D01*
Y181469D01*
X143388D01*
X143444Y181333D01*
X144005Y180602D01*
X144736Y180041D01*
X145588Y179689D01*
X146502Y179568D01*
X147415Y179689D01*
X148267Y180041D01*
X148998Y180602D01*
X149559Y181333D01*
X149911Y182185D01*
X150032Y183098D01*
X149911Y184012D01*
X149559Y184864D01*
X148998Y185595D01*
X148267Y186156D01*
X147415Y186508D01*
X146502Y186629D01*
X145588Y186508D01*
X144736Y186156D01*
X144005Y185595D01*
X143444Y184864D01*
X143305Y184528D01*
X135354D01*
Y186951D01*
D02*
G37*
G36*
X210102Y186985D02*
X209070Y186849D01*
X208108Y186451D01*
X207282Y185818D01*
X206649Y184992D01*
X206251Y184030D01*
X206115Y182999D01*
X206251Y181967D01*
X206649Y181005D01*
X207282Y180179D01*
X208108Y179546D01*
X209070Y179148D01*
X210102Y179012D01*
X211133Y179148D01*
X212095Y179546D01*
X212921Y180179D01*
X213554Y181005D01*
X213952Y181967D01*
X214088Y182999D01*
X213952Y184030D01*
X213554Y184992D01*
X212921Y185818D01*
X212095Y186451D01*
X211133Y186849D01*
X210102Y186985D01*
D02*
G37*
G36*
X87201Y205438D02*
X78101D01*
X77321Y205282D01*
X76660Y204840D01*
X73573Y201753D01*
X73001Y201829D01*
X72088Y201708D01*
X71236Y201356D01*
X70505Y200795D01*
X69944Y200064D01*
X69592Y199212D01*
X69471Y198299D01*
X69592Y197385D01*
X69944Y196533D01*
X70505Y195802D01*
X70962Y195452D01*
Y190343D01*
X64657Y184038D01*
X59150D01*
X58820Y184414D01*
X58832Y184499D01*
X58711Y185412D01*
X58359Y186264D01*
X57798Y186995D01*
X57067Y187556D01*
X56215Y187908D01*
X55301Y188029D01*
X54388Y187908D01*
X53536Y187556D01*
X52805Y186995D01*
X52244Y186264D01*
X51892Y185412D01*
X51771Y184499D01*
X51892Y183585D01*
X52244Y182733D01*
X52805Y182002D01*
X53536Y181441D01*
X54388Y181089D01*
X55301Y180968D01*
X55873Y181044D01*
X56360Y180557D01*
X57021Y180114D01*
X57802Y179959D01*
X65501D01*
X66282Y180114D01*
X66943Y180557D01*
X74443Y188057D01*
X74885Y188718D01*
X75041Y189498D01*
Y195452D01*
X75498Y195802D01*
X76059Y196533D01*
X76411Y197385D01*
X76532Y198299D01*
X76456Y198870D01*
X78946Y201359D01*
X86357D01*
X93743Y193973D01*
X93615Y192999D01*
X93751Y191967D01*
X94149Y191005D01*
X94782Y190179D01*
X95608Y189546D01*
X96570Y189147D01*
X97601Y189012D01*
X98633Y189147D01*
X99595Y189546D01*
X100421Y190179D01*
X101054Y191005D01*
X101453Y191967D01*
X101588Y192999D01*
X101453Y194030D01*
X101054Y194992D01*
X100421Y195818D01*
X99595Y196451D01*
X98633Y196850D01*
X97601Y196985D01*
X96627Y196857D01*
X88643Y204840D01*
X87982Y205282D01*
X87201Y205438D01*
D02*
G37*
G36*
X19401Y196920D02*
Y193499D01*
X22822D01*
X22752Y194030D01*
X22354Y194992D01*
X21721Y195818D01*
X20895Y196451D01*
X19933Y196850D01*
X19401Y196920D01*
D02*
G37*
G36*
X6402D02*
X5870Y196850D01*
X4908Y196451D01*
X4082Y195818D01*
X3449Y194992D01*
X3050Y194030D01*
X2981Y193499D01*
X6402D01*
Y196920D01*
D02*
G37*
G36*
X60678Y196400D02*
X59903Y196299D01*
X59181Y195999D01*
X58561Y195524D01*
X58085Y194903D01*
X57786Y194181D01*
X57684Y193406D01*
X57786Y192631D01*
X58085Y191909D01*
X58561Y191289D01*
X59181Y190813D01*
X59903Y190514D01*
X60678Y190412D01*
X61453Y190514D01*
X62175Y190813D01*
X62795Y191289D01*
X63271Y191909D01*
X63570Y192631D01*
X63672Y193406D01*
X63570Y194181D01*
X63271Y194903D01*
X62795Y195524D01*
X62175Y195999D01*
X61453Y196299D01*
X60678Y196400D01*
D02*
G37*
G36*
X34694D02*
X33919Y196299D01*
X33197Y195999D01*
X32577Y195524D01*
X32101Y194903D01*
X31802Y194181D01*
X31699Y193406D01*
X31802Y192631D01*
X32101Y191909D01*
X32577Y191289D01*
X33197Y190813D01*
X33919Y190514D01*
X34694Y190412D01*
X35469Y190514D01*
X36191Y190813D01*
X36811Y191289D01*
X37287Y191909D01*
X37586Y192631D01*
X37688Y193406D01*
X37586Y194181D01*
X37287Y194903D01*
X36811Y195524D01*
X36191Y195999D01*
X35469Y196299D01*
X34694Y196400D01*
D02*
G37*
G36*
X22822Y192499D02*
X19401D01*
Y189077D01*
X19933Y189147D01*
X20895Y189546D01*
X21721Y190179D01*
X22354Y191005D01*
X22752Y191967D01*
X22822Y192499D01*
D02*
G37*
G36*
X6402D02*
X2981D01*
X3050Y191967D01*
X3449Y191005D01*
X4082Y190179D01*
X4908Y189546D01*
X5870Y189147D01*
X6402Y189077D01*
Y192499D01*
D02*
G37*
G36*
X22854Y186951D02*
X14949D01*
Y179046D01*
X22854D01*
Y181469D01*
X30888D01*
X30944Y181333D01*
X31505Y180602D01*
X32236Y180041D01*
X33088Y179689D01*
X34001Y179568D01*
X34915Y179689D01*
X35767Y180041D01*
X36498Y180602D01*
X37059Y181333D01*
X37411Y182185D01*
X37532Y183098D01*
X37411Y184012D01*
X37059Y184864D01*
X36498Y185595D01*
X35767Y186156D01*
X34915Y186508D01*
X34001Y186629D01*
X33088Y186508D01*
X32236Y186156D01*
X31505Y185595D01*
X30944Y184864D01*
X30805Y184528D01*
X22854D01*
Y186951D01*
D02*
G37*
G36*
X97601Y186985D02*
X96570Y186849D01*
X95608Y186451D01*
X94782Y185818D01*
X94149Y184992D01*
X93751Y184030D01*
X93615Y182999D01*
X93751Y181967D01*
X94149Y181005D01*
X94782Y180179D01*
X95608Y179546D01*
X96570Y179148D01*
X97601Y179012D01*
X98633Y179148D01*
X99595Y179546D01*
X100421Y180179D01*
X101054Y181005D01*
X101453Y181967D01*
X101588Y182999D01*
X101453Y184030D01*
X101054Y184992D01*
X100421Y185818D01*
X99595Y186451D01*
X98633Y186849D01*
X97601Y186985D01*
D02*
G37*
G36*
X244238Y147439D02*
X240786D01*
Y143199D01*
X244238D01*
Y147439D01*
D02*
G37*
G36*
X239786D02*
X236333D01*
Y143199D01*
X239786D01*
Y147439D01*
D02*
G37*
G36*
X244238Y142199D02*
X240786D01*
Y137958D01*
X244238D01*
Y142199D01*
D02*
G37*
G36*
X239786D02*
X236333D01*
Y137958D01*
X239786D01*
Y142199D01*
D02*
G37*
G36*
X131738Y147439D02*
X128286D01*
Y143199D01*
X131738D01*
Y147439D01*
D02*
G37*
G36*
X127286D02*
X123833D01*
Y143199D01*
X127286D01*
Y147439D01*
D02*
G37*
G36*
X131738Y142199D02*
X128286D01*
Y137958D01*
X131738D01*
Y142199D01*
D02*
G37*
G36*
X127286D02*
X123833D01*
Y137958D01*
X127286D01*
Y142199D01*
D02*
G37*
G36*
X19239Y147439D02*
X15786D01*
Y143199D01*
X19239D01*
Y147439D01*
D02*
G37*
G36*
X14786D02*
X11333D01*
Y143199D01*
X14786D01*
Y147439D01*
D02*
G37*
G36*
X19239Y142199D02*
X15786D01*
Y137958D01*
X19239D01*
Y142199D01*
D02*
G37*
G36*
X14786D02*
X11333D01*
Y137958D01*
X14786D01*
Y142199D01*
D02*
G37*
G36*
X318254Y147439D02*
X314802D01*
Y143199D01*
X318254D01*
Y147439D01*
D02*
G37*
G36*
Y142199D02*
X314802D01*
Y137958D01*
X318254D01*
Y142199D01*
D02*
G37*
G36*
X205754Y147439D02*
X202302D01*
Y143199D01*
X205754D01*
Y147439D01*
D02*
G37*
G36*
Y142199D02*
X202302D01*
Y137958D01*
X205754D01*
Y142199D01*
D02*
G37*
G36*
X93254Y147439D02*
X89802D01*
Y143199D01*
X93254D01*
Y147439D01*
D02*
G37*
G36*
Y142199D02*
X89802D01*
Y137958D01*
X93254D01*
Y142199D01*
D02*
G37*
G36*
X312201Y92938D02*
X303101D01*
X302321Y92782D01*
X301660Y92340D01*
X298573Y89253D01*
X298002Y89329D01*
X297088Y89208D01*
X296236Y88856D01*
X295505Y88295D01*
X294944Y87564D01*
X294592Y86712D01*
X294471Y85799D01*
X294592Y84885D01*
X294944Y84033D01*
X295505Y83302D01*
X295962Y82952D01*
Y77843D01*
X289657Y71538D01*
X284150D01*
X283821Y71914D01*
X283832Y71999D01*
X283711Y72912D01*
X283359Y73764D01*
X282798Y74495D01*
X282067Y75056D01*
X281215Y75408D01*
X280301Y75529D01*
X279388Y75408D01*
X278536Y75056D01*
X277805Y74495D01*
X277244Y73764D01*
X276892Y72912D01*
X276771Y71999D01*
X276892Y71085D01*
X277244Y70233D01*
X277805Y69502D01*
X278536Y68941D01*
X279388Y68589D01*
X280301Y68468D01*
X280873Y68543D01*
X281360Y68057D01*
X282021Y67615D01*
X282802Y67459D01*
X290501D01*
X291282Y67615D01*
X291943Y68057D01*
X299443Y75557D01*
X299886Y76218D01*
X300041Y76999D01*
Y82952D01*
X300498Y83302D01*
X301059Y84033D01*
X301411Y84885D01*
X301532Y85799D01*
X301456Y86370D01*
X303946Y88859D01*
X311357D01*
X318743Y81473D01*
X318615Y80498D01*
X318751Y79467D01*
X319149Y78505D01*
X319782Y77679D01*
X320608Y77046D01*
X321570Y76648D01*
X322602Y76512D01*
X323633Y76648D01*
X324595Y77046D01*
X325421Y77679D01*
X326054Y78505D01*
X326452Y79467D01*
X326588Y80498D01*
X326452Y81530D01*
X326054Y82492D01*
X325421Y83318D01*
X324595Y83951D01*
X323633Y84350D01*
X322602Y84485D01*
X321627Y84357D01*
X313643Y92340D01*
X312982Y92782D01*
X312201Y92938D01*
D02*
G37*
G36*
X244402Y84420D02*
Y80998D01*
X247822D01*
X247752Y81530D01*
X247354Y82492D01*
X246721Y83318D01*
X245895Y83951D01*
X244933Y84350D01*
X244402Y84420D01*
D02*
G37*
G36*
X231401D02*
X230870Y84350D01*
X229908Y83951D01*
X229082Y83318D01*
X228449Y82492D01*
X228050Y81530D01*
X227980Y80998D01*
X231401D01*
Y84420D01*
D02*
G37*
G36*
X285678Y83900D02*
X284903Y83798D01*
X284181Y83499D01*
X283561Y83024D01*
X283085Y82403D01*
X282786Y81681D01*
X282684Y80906D01*
X282786Y80131D01*
X283085Y79409D01*
X283561Y78789D01*
X284181Y78313D01*
X284903Y78014D01*
X285678Y77912D01*
X286453Y78014D01*
X287175Y78313D01*
X287795Y78789D01*
X288271Y79409D01*
X288570Y80131D01*
X288672Y80906D01*
X288570Y81681D01*
X288271Y82403D01*
X287795Y83024D01*
X287175Y83499D01*
X286453Y83798D01*
X285678Y83900D01*
D02*
G37*
G36*
X259694D02*
X258919Y83798D01*
X258197Y83499D01*
X257576Y83024D01*
X257101Y82403D01*
X256802Y81681D01*
X256699Y80906D01*
X256802Y80131D01*
X257101Y79409D01*
X257576Y78789D01*
X258197Y78313D01*
X258919Y78014D01*
X259694Y77912D01*
X260469Y78014D01*
X261191Y78313D01*
X261811Y78789D01*
X262287Y79409D01*
X262586Y80131D01*
X262688Y80906D01*
X262586Y81681D01*
X262287Y82403D01*
X261811Y83024D01*
X261191Y83499D01*
X260469Y83798D01*
X259694Y83900D01*
D02*
G37*
G36*
X247822Y79998D02*
X244402D01*
Y76578D01*
X244933Y76648D01*
X245895Y77046D01*
X246721Y77679D01*
X247354Y78505D01*
X247752Y79467D01*
X247822Y79998D01*
D02*
G37*
G36*
X231401D02*
X227980D01*
X228050Y79467D01*
X228449Y78505D01*
X229082Y77679D01*
X229908Y77046D01*
X230870Y76648D01*
X231401Y76578D01*
Y79998D01*
D02*
G37*
G36*
X247854Y74451D02*
X239949D01*
Y66546D01*
X247854D01*
Y68969D01*
X255888D01*
X255944Y68833D01*
X256505Y68102D01*
X257236Y67541D01*
X258088Y67189D01*
X259001Y67068D01*
X259915Y67189D01*
X260767Y67541D01*
X261498Y68102D01*
X262059Y68833D01*
X262411Y69685D01*
X262532Y70599D01*
X262411Y71512D01*
X262059Y72364D01*
X261498Y73095D01*
X260767Y73656D01*
X259915Y74008D01*
X259001Y74129D01*
X258088Y74008D01*
X257236Y73656D01*
X256505Y73095D01*
X255944Y72364D01*
X255805Y72028D01*
X247854D01*
Y74451D01*
D02*
G37*
G36*
X322602Y74485D02*
X321570Y74349D01*
X320608Y73951D01*
X319782Y73318D01*
X319149Y72492D01*
X318751Y71530D01*
X318615Y70499D01*
X318751Y69467D01*
X319149Y68505D01*
X319782Y67679D01*
X320608Y67046D01*
X321570Y66647D01*
X322602Y66512D01*
X323633Y66647D01*
X324595Y67046D01*
X325421Y67679D01*
X326054Y68505D01*
X326452Y69467D01*
X326588Y70499D01*
X326452Y71530D01*
X326054Y72492D01*
X325421Y73318D01*
X324595Y73951D01*
X323633Y74349D01*
X322602Y74485D01*
D02*
G37*
G36*
X199701Y92938D02*
X190602D01*
X189821Y92782D01*
X189160Y92340D01*
X186073Y89253D01*
X185502Y89329D01*
X184588Y89208D01*
X183736Y88856D01*
X183005Y88295D01*
X182444Y87564D01*
X182092Y86712D01*
X181971Y85799D01*
X182092Y84885D01*
X182444Y84033D01*
X183005Y83302D01*
X183462Y82952D01*
Y77843D01*
X177157Y71538D01*
X171650D01*
X171320Y71914D01*
X171332Y71999D01*
X171211Y72912D01*
X170859Y73764D01*
X170298Y74495D01*
X169567Y75056D01*
X168715Y75408D01*
X167801Y75529D01*
X166888Y75408D01*
X166036Y75056D01*
X165305Y74495D01*
X164744Y73764D01*
X164392Y72912D01*
X164271Y71999D01*
X164392Y71085D01*
X164744Y70233D01*
X165305Y69502D01*
X166036Y68941D01*
X166888Y68589D01*
X167801Y68468D01*
X168373Y68543D01*
X168860Y68057D01*
X169521Y67615D01*
X170301Y67459D01*
X178001D01*
X178782Y67615D01*
X179443Y68057D01*
X186943Y75557D01*
X187385Y76218D01*
X187541Y76999D01*
Y82952D01*
X187998Y83302D01*
X188559Y84033D01*
X188911Y84885D01*
X189032Y85799D01*
X188956Y86370D01*
X191446Y88859D01*
X198857D01*
X206243Y81473D01*
X206115Y80498D01*
X206251Y79467D01*
X206649Y78505D01*
X207282Y77679D01*
X208108Y77046D01*
X209070Y76648D01*
X210102Y76512D01*
X211133Y76648D01*
X212095Y77046D01*
X212921Y77679D01*
X213554Y78505D01*
X213952Y79467D01*
X214088Y80498D01*
X213952Y81530D01*
X213554Y82492D01*
X212921Y83318D01*
X212095Y83951D01*
X211133Y84350D01*
X210102Y84485D01*
X209127Y84357D01*
X201143Y92340D01*
X200482Y92782D01*
X199701Y92938D01*
D02*
G37*
G36*
X131902Y84420D02*
Y80998D01*
X135322D01*
X135252Y81530D01*
X134854Y82492D01*
X134221Y83318D01*
X133395Y83951D01*
X132433Y84350D01*
X131902Y84420D01*
D02*
G37*
G36*
X118902D02*
X118370Y84350D01*
X117408Y83951D01*
X116582Y83318D01*
X115949Y82492D01*
X115550Y81530D01*
X115480Y80998D01*
X118902D01*
Y84420D01*
D02*
G37*
G36*
X173178Y83900D02*
X172403Y83798D01*
X171681Y83499D01*
X171061Y83024D01*
X170585Y82403D01*
X170286Y81681D01*
X170184Y80906D01*
X170286Y80131D01*
X170585Y79409D01*
X171061Y78789D01*
X171681Y78313D01*
X172403Y78014D01*
X173178Y77912D01*
X173953Y78014D01*
X174675Y78313D01*
X175295Y78789D01*
X175771Y79409D01*
X176070Y80131D01*
X176172Y80906D01*
X176070Y81681D01*
X175771Y82403D01*
X175295Y83024D01*
X174675Y83499D01*
X173953Y83798D01*
X173178Y83900D01*
D02*
G37*
G36*
X147194D02*
X146419Y83798D01*
X145697Y83499D01*
X145077Y83024D01*
X144601Y82403D01*
X144301Y81681D01*
X144200Y80906D01*
X144301Y80131D01*
X144601Y79409D01*
X145077Y78789D01*
X145697Y78313D01*
X146419Y78014D01*
X147194Y77912D01*
X147969Y78014D01*
X148691Y78313D01*
X149311Y78789D01*
X149787Y79409D01*
X150086Y80131D01*
X150188Y80906D01*
X150086Y81681D01*
X149787Y82403D01*
X149311Y83024D01*
X148691Y83499D01*
X147969Y83798D01*
X147194Y83900D01*
D02*
G37*
G36*
X135322Y79998D02*
X131902D01*
Y76578D01*
X132433Y76648D01*
X133395Y77046D01*
X134221Y77679D01*
X134854Y78505D01*
X135252Y79467D01*
X135322Y79998D01*
D02*
G37*
G36*
X118902D02*
X115480D01*
X115550Y79467D01*
X115949Y78505D01*
X116582Y77679D01*
X117408Y77046D01*
X118370Y76648D01*
X118902Y76578D01*
Y79998D01*
D02*
G37*
G36*
X135354Y74451D02*
X127449D01*
Y66546D01*
X135354D01*
Y68969D01*
X143388D01*
X143444Y68833D01*
X144005Y68102D01*
X144736Y67541D01*
X145588Y67189D01*
X146502Y67068D01*
X147415Y67189D01*
X148267Y67541D01*
X148998Y68102D01*
X149559Y68833D01*
X149911Y69685D01*
X150032Y70599D01*
X149911Y71512D01*
X149559Y72364D01*
X148998Y73095D01*
X148267Y73656D01*
X147415Y74008D01*
X146502Y74129D01*
X145588Y74008D01*
X144736Y73656D01*
X144005Y73095D01*
X143444Y72364D01*
X143305Y72028D01*
X135354D01*
Y74451D01*
D02*
G37*
G36*
X210102Y74485D02*
X209070Y74349D01*
X208108Y73951D01*
X207282Y73318D01*
X206649Y72492D01*
X206251Y71530D01*
X206115Y70499D01*
X206251Y69467D01*
X206649Y68505D01*
X207282Y67679D01*
X208108Y67046D01*
X209070Y66647D01*
X210102Y66512D01*
X211133Y66647D01*
X212095Y67046D01*
X212921Y67679D01*
X213554Y68505D01*
X213952Y69467D01*
X214088Y70499D01*
X213952Y71530D01*
X213554Y72492D01*
X212921Y73318D01*
X212095Y73951D01*
X211133Y74349D01*
X210102Y74485D01*
D02*
G37*
G36*
X87201Y92938D02*
X78101D01*
X77321Y92782D01*
X76660Y92340D01*
X73573Y89253D01*
X73001Y89329D01*
X72088Y89208D01*
X71236Y88856D01*
X70505Y88295D01*
X69944Y87564D01*
X69592Y86712D01*
X69471Y85799D01*
X69592Y84885D01*
X69944Y84033D01*
X70505Y83302D01*
X70962Y82952D01*
Y77843D01*
X64657Y71538D01*
X59150D01*
X58820Y71914D01*
X58832Y71999D01*
X58711Y72912D01*
X58359Y73764D01*
X57798Y74495D01*
X57067Y75056D01*
X56215Y75408D01*
X55301Y75529D01*
X54388Y75408D01*
X53536Y75056D01*
X52805Y74495D01*
X52244Y73764D01*
X51892Y72912D01*
X51771Y71999D01*
X51892Y71085D01*
X52244Y70233D01*
X52805Y69502D01*
X53536Y68941D01*
X54388Y68589D01*
X55301Y68468D01*
X55873Y68543D01*
X56360Y68057D01*
X57021Y67615D01*
X57802Y67459D01*
X65501D01*
X66282Y67615D01*
X66943Y68057D01*
X74443Y75557D01*
X74885Y76218D01*
X75041Y76999D01*
Y82952D01*
X75498Y83302D01*
X76059Y84033D01*
X76411Y84885D01*
X76532Y85799D01*
X76456Y86370D01*
X78946Y88859D01*
X86357D01*
X93743Y81473D01*
X93615Y80498D01*
X93751Y79467D01*
X94149Y78505D01*
X94782Y77679D01*
X95608Y77046D01*
X96570Y76648D01*
X97601Y76512D01*
X98633Y76648D01*
X99595Y77046D01*
X100421Y77679D01*
X101054Y78505D01*
X101453Y79467D01*
X101588Y80498D01*
X101453Y81530D01*
X101054Y82492D01*
X100421Y83318D01*
X99595Y83951D01*
X98633Y84350D01*
X97601Y84485D01*
X96627Y84357D01*
X88643Y92340D01*
X87982Y92782D01*
X87201Y92938D01*
D02*
G37*
G36*
X19401Y84420D02*
Y80998D01*
X22822D01*
X22752Y81530D01*
X22354Y82492D01*
X21721Y83318D01*
X20895Y83951D01*
X19933Y84350D01*
X19401Y84420D01*
D02*
G37*
G36*
X6402D02*
X5870Y84350D01*
X4908Y83951D01*
X4082Y83318D01*
X3449Y82492D01*
X3050Y81530D01*
X2981Y80998D01*
X6402D01*
Y84420D01*
D02*
G37*
G36*
X60678Y83900D02*
X59903Y83798D01*
X59181Y83499D01*
X58561Y83024D01*
X58085Y82403D01*
X57786Y81681D01*
X57684Y80906D01*
X57786Y80131D01*
X58085Y79409D01*
X58561Y78789D01*
X59181Y78313D01*
X59903Y78014D01*
X60678Y77912D01*
X61453Y78014D01*
X62175Y78313D01*
X62795Y78789D01*
X63271Y79409D01*
X63570Y80131D01*
X63672Y80906D01*
X63570Y81681D01*
X63271Y82403D01*
X62795Y83024D01*
X62175Y83499D01*
X61453Y83798D01*
X60678Y83900D01*
D02*
G37*
G36*
X34694D02*
X33919Y83798D01*
X33197Y83499D01*
X32577Y83024D01*
X32101Y82403D01*
X31802Y81681D01*
X31699Y80906D01*
X31802Y80131D01*
X32101Y79409D01*
X32577Y78789D01*
X33197Y78313D01*
X33919Y78014D01*
X34694Y77912D01*
X35469Y78014D01*
X36191Y78313D01*
X36811Y78789D01*
X37287Y79409D01*
X37586Y80131D01*
X37688Y80906D01*
X37586Y81681D01*
X37287Y82403D01*
X36811Y83024D01*
X36191Y83499D01*
X35469Y83798D01*
X34694Y83900D01*
D02*
G37*
G36*
X22822Y79998D02*
X19401D01*
Y76578D01*
X19933Y76648D01*
X20895Y77046D01*
X21721Y77679D01*
X22354Y78505D01*
X22752Y79467D01*
X22822Y79998D01*
D02*
G37*
G36*
X6402D02*
X2981D01*
X3050Y79467D01*
X3449Y78505D01*
X4082Y77679D01*
X4908Y77046D01*
X5870Y76648D01*
X6402Y76578D01*
Y79998D01*
D02*
G37*
G36*
X22854Y74451D02*
X14949D01*
Y66546D01*
X22854D01*
Y68969D01*
X30888D01*
X30944Y68833D01*
X31505Y68102D01*
X32236Y67541D01*
X33088Y67189D01*
X34001Y67068D01*
X34915Y67189D01*
X35767Y67541D01*
X36498Y68102D01*
X37059Y68833D01*
X37411Y69685D01*
X37532Y70599D01*
X37411Y71512D01*
X37059Y72364D01*
X36498Y73095D01*
X35767Y73656D01*
X34915Y74008D01*
X34001Y74129D01*
X33088Y74008D01*
X32236Y73656D01*
X31505Y73095D01*
X30944Y72364D01*
X30805Y72028D01*
X22854D01*
Y74451D01*
D02*
G37*
G36*
X97601Y74485D02*
X96570Y74349D01*
X95608Y73951D01*
X94782Y73318D01*
X94149Y72492D01*
X93751Y71530D01*
X93615Y70499D01*
X93751Y69467D01*
X94149Y68505D01*
X94782Y67679D01*
X95608Y67046D01*
X96570Y66647D01*
X97601Y66512D01*
X98633Y66647D01*
X99595Y67046D01*
X100421Y67679D01*
X101054Y68505D01*
X101453Y69467D01*
X101588Y70499D01*
X101453Y71530D01*
X101054Y72492D01*
X100421Y73318D01*
X99595Y73951D01*
X98633Y74349D01*
X97601Y74485D01*
D02*
G37*
G36*
X244238Y34939D02*
X240786D01*
Y30698D01*
X244238D01*
Y34939D01*
D02*
G37*
G36*
X239786D02*
X236333D01*
Y30698D01*
X239786D01*
Y34939D01*
D02*
G37*
G36*
X244238Y29699D02*
X240786D01*
Y25458D01*
X244238D01*
Y29699D01*
D02*
G37*
G36*
X239786D02*
X236333D01*
Y25458D01*
X239786D01*
Y29699D01*
D02*
G37*
G36*
X131738Y34939D02*
X128286D01*
Y30698D01*
X131738D01*
Y34939D01*
D02*
G37*
G36*
X127286D02*
X123833D01*
Y30698D01*
X127286D01*
Y34939D01*
D02*
G37*
G36*
X131738Y29699D02*
X128286D01*
Y25458D01*
X131738D01*
Y29699D01*
D02*
G37*
G36*
X127286D02*
X123833D01*
Y25458D01*
X127286D01*
Y29699D01*
D02*
G37*
G36*
X19239Y34939D02*
X15786D01*
Y30698D01*
X19239D01*
Y34939D01*
D02*
G37*
G36*
X14786D02*
X11333D01*
Y30698D01*
X14786D01*
Y34939D01*
D02*
G37*
G36*
X19239Y29699D02*
X15786D01*
Y25458D01*
X19239D01*
Y29699D01*
D02*
G37*
G36*
X14786D02*
X11333D01*
Y25458D01*
X14786D01*
Y29699D01*
D02*
G37*
G36*
X318254Y34939D02*
X314802D01*
Y30698D01*
X318254D01*
Y34939D01*
D02*
G37*
G36*
Y29699D02*
X314802D01*
Y25458D01*
X318254D01*
Y29699D01*
D02*
G37*
G36*
X205754Y34939D02*
X202302D01*
Y30698D01*
X205754D01*
Y34939D01*
D02*
G37*
G36*
Y29699D02*
X202302D01*
Y25458D01*
X205754D01*
Y29699D01*
D02*
G37*
G36*
X93254Y34939D02*
X89802D01*
Y30698D01*
X93254D01*
Y34939D01*
D02*
G37*
G36*
Y29699D02*
X89802D01*
Y25458D01*
X93254D01*
Y29699D01*
D02*
G37*
%LPD*%
D14*
X13000Y361854D02*
X26656D01*
X39000Y374198D02*
X26656Y361854D01*
X68976D02*
X82632D01*
X94976Y374198D02*
X82632Y361854D01*
X124953D02*
X138609D01*
X150953Y374198D02*
X138609Y361854D01*
D15*
X2301Y293198D02*
Y254398D01*
X12427Y244273D01*
X22766D01*
X4602Y295498D02*
X2301Y293198D01*
X4602Y295498D02*
X6901D01*
X62136Y272633D02*
Y244273D01*
X75002Y285498D02*
X91341D01*
X75002D02*
X62136Y272633D01*
X46388Y244273D02*
Y238612D01*
X50701Y234298D01*
X97601Y243999D02*
X87902Y234298D01*
X97601Y265498D02*
Y243999D01*
X50701Y234298D02*
X87902D01*
X85001Y262898D02*
Y238498D01*
X17402Y285099D02*
X34577Y267923D01*
X17402Y285099D02*
X12901Y280598D01*
X34577Y267923D02*
Y244273D01*
X85001Y238498D02*
X83802Y237298D01*
X56102D02*
X83802D01*
X54262Y239138D02*
X56102Y237298D01*
X54262Y244273D02*
Y239138D01*
X97601Y275499D02*
X85001Y262898D01*
X70010Y267007D02*
Y244273D01*
X26703Y262997D02*
Y244273D01*
X19501Y270198D02*
X26703Y262997D01*
X38514Y260711D02*
Y244273D01*
X39002Y261198D02*
X38514Y260711D01*
X30640Y265360D02*
Y244273D01*
X18001Y277998D02*
X30640Y265360D01*
X15286Y255199D02*
X21501D01*
X78802Y275799D02*
X70010Y267007D01*
X78802Y280298D02*
Y275799D01*
X12901Y307898D02*
Y280598D01*
X34001Y295599D02*
X33902Y295498D01*
X18902D02*
X33902D01*
X12901Y280598D02*
X7801Y275499D01*
X19702Y314699D02*
X12901Y307898D01*
X91341Y285498D02*
X97001D01*
X6901Y275499D02*
X7801D01*
X83101Y293738D02*
X91341Y285498D01*
X83101Y309198D02*
Y293738D01*
X2301Y180699D02*
Y141899D01*
X12427Y131773D01*
X22766D01*
X4602Y182999D02*
X2301Y180699D01*
X4602Y182999D02*
X6901D01*
X62136Y160133D02*
Y131773D01*
X75002Y172998D02*
X91341D01*
X75002D02*
X62136Y160133D01*
X46388Y131773D02*
Y126112D01*
X50701Y121799D01*
X97601Y131499D02*
X87902Y121799D01*
X97601Y152998D02*
Y131499D01*
X50701Y121799D02*
X87902D01*
X85001Y150399D02*
Y125998D01*
X17402Y172599D02*
X34577Y155423D01*
X17402Y172599D02*
X12901Y168098D01*
X34577Y155423D02*
Y131773D01*
X85001Y125998D02*
X83802Y124799D01*
X56102D02*
X83802D01*
X54262Y126638D02*
X56102Y124799D01*
X54262Y131773D02*
Y126638D01*
X97601Y162998D02*
X85001Y150399D01*
X70010Y154507D02*
Y131773D01*
X26703Y150497D02*
Y131773D01*
X19501Y157699D02*
X26703Y150497D01*
X38514Y148211D02*
Y131773D01*
X39002Y148698D02*
X38514Y148211D01*
X30640Y152860D02*
Y131773D01*
X18001Y165498D02*
X30640Y152860D01*
X15286Y142699D02*
X21501D01*
X78802Y163298D02*
X70010Y154507D01*
X78802Y167798D02*
Y163298D01*
X12901Y195398D02*
Y168098D01*
X34001Y183098D02*
X33902Y182999D01*
X18902D02*
X33902D01*
X12901Y168098D02*
X7801Y162998D01*
X19702Y202199D02*
X12901Y195398D01*
X91341Y172998D02*
X97001D01*
X6901Y162998D02*
X7801D01*
X83101Y181238D02*
X91341Y172998D01*
X83101Y196698D02*
Y181238D01*
X2301Y68199D02*
Y29399D01*
X12427Y19273D01*
X22766D01*
X4602Y70499D02*
X2301Y68199D01*
X4602Y70499D02*
X6901D01*
X62136Y47633D02*
Y19273D01*
X75002Y60498D02*
X91341D01*
X75002D02*
X62136Y47633D01*
X46388Y19273D02*
Y13612D01*
X50701Y9298D01*
X97601Y18999D02*
X87902Y9298D01*
X97601Y40499D02*
Y18999D01*
X50701Y9298D02*
X87902D01*
X85001Y37898D02*
Y13498D01*
X17402Y60098D02*
X34577Y42923D01*
X17402Y60098D02*
X12901Y55598D01*
X34577Y42923D02*
Y19273D01*
X85001Y13498D02*
X83802Y12298D01*
X56102D02*
X83802D01*
X54262Y14138D02*
X56102Y12298D01*
X54262Y19273D02*
Y14138D01*
X97601Y50498D02*
X85001Y37898D01*
X70010Y42007D02*
Y19273D01*
X26703Y37997D02*
Y19273D01*
X19501Y45199D02*
X26703Y37997D01*
X38514Y35711D02*
Y19273D01*
X39002Y36198D02*
X38514Y35711D01*
X30640Y40360D02*
Y19273D01*
X18001Y52999D02*
X30640Y40360D01*
X15286Y30198D02*
X21501D01*
X78802Y50798D02*
X70010Y42007D01*
X78802Y55299D02*
Y50798D01*
X12901Y82898D02*
Y55598D01*
X34001Y70599D02*
X33902Y70499D01*
X18902D02*
X33902D01*
X12901Y55598D02*
X7801Y50498D01*
X19702Y89698D02*
X12901Y82898D01*
X91341Y60498D02*
X97001D01*
X6901Y50498D02*
X7801D01*
X83101Y68738D02*
X91341Y60498D01*
X83101Y84198D02*
Y68738D01*
X114802Y293198D02*
Y254398D01*
X124927Y244273D01*
X135266D01*
X117102Y295498D02*
X114802Y293198D01*
X117102Y295498D02*
X119402D01*
X174636Y272633D02*
Y244273D01*
X187502Y285498D02*
X203841D01*
X187502D02*
X174636Y272633D01*
X158888Y244273D02*
Y238612D01*
X163201Y234298D01*
X210102Y243999D02*
X200401Y234298D01*
X210102Y265498D02*
Y243999D01*
X163201Y234298D02*
X200401D01*
X197502Y262898D02*
Y238498D01*
X129902Y285099D02*
X147077Y267923D01*
X129902Y285099D02*
X125401Y280598D01*
X147077Y267923D02*
Y244273D01*
X197502Y238498D02*
X196301Y237298D01*
X168602D02*
X196301D01*
X166762Y239138D02*
X168602Y237298D01*
X166762Y244273D02*
Y239138D01*
X210102Y275499D02*
X197502Y262898D01*
X182510Y267007D02*
Y244273D01*
X139203Y262997D02*
Y244273D01*
X132001Y270198D02*
X139203Y262997D01*
X151014Y260711D02*
Y244273D01*
X151502Y261198D02*
X151014Y260711D01*
X143140Y265360D02*
Y244273D01*
X130501Y277998D02*
X143140Y265360D01*
X127786Y255199D02*
X134002D01*
X191302Y275799D02*
X182510Y267007D01*
X191302Y280298D02*
Y275799D01*
X125401Y307898D02*
Y280598D01*
X146502Y295599D02*
X146402Y295498D01*
X131402D02*
X146402D01*
X125401Y280598D02*
X120301Y275499D01*
X132202Y314699D02*
X125401Y307898D01*
X203841Y285498D02*
X209502D01*
X119402Y275499D02*
X120301D01*
X195601Y293738D02*
X203841Y285498D01*
X195601Y309198D02*
Y293738D01*
X114802Y180699D02*
Y141899D01*
X124927Y131773D01*
X135266D01*
X117102Y182999D02*
X114802Y180699D01*
X117102Y182999D02*
X119402D01*
X174636Y160133D02*
Y131773D01*
X187502Y172998D02*
X203841D01*
X187502D02*
X174636Y160133D01*
X158888Y131773D02*
Y126112D01*
X163201Y121799D01*
X210102Y131499D02*
X200401Y121799D01*
X210102Y152998D02*
Y131499D01*
X163201Y121799D02*
X200401D01*
X197502Y150399D02*
Y125998D01*
X129902Y172599D02*
X147077Y155423D01*
X129902Y172599D02*
X125401Y168098D01*
X147077Y155423D02*
Y131773D01*
X197502Y125998D02*
X196301Y124799D01*
X168602D02*
X196301D01*
X166762Y126638D02*
X168602Y124799D01*
X166762Y131773D02*
Y126638D01*
X210102Y162998D02*
X197502Y150399D01*
X182510Y154507D02*
Y131773D01*
X139203Y150497D02*
Y131773D01*
X132001Y157699D02*
X139203Y150497D01*
X151014Y148211D02*
Y131773D01*
X151502Y148698D02*
X151014Y148211D01*
X143140Y152860D02*
Y131773D01*
X130501Y165498D02*
X143140Y152860D01*
X127786Y142699D02*
X134002D01*
X191302Y163298D02*
X182510Y154507D01*
X191302Y167798D02*
Y163298D01*
X125401Y195398D02*
Y168098D01*
X146502Y183098D02*
X146402Y182999D01*
X131402D02*
X146402D01*
X125401Y168098D02*
X120301Y162998D01*
X132202Y202199D02*
X125401Y195398D01*
X203841Y172998D02*
X209502D01*
X119402Y162998D02*
X120301D01*
X195601Y181238D02*
X203841Y172998D01*
X195601Y196698D02*
Y181238D01*
X114802Y68199D02*
Y29399D01*
X124927Y19273D01*
X135266D01*
X117102Y70499D02*
X114802Y68199D01*
X117102Y70499D02*
X119402D01*
X174636Y47633D02*
Y19273D01*
X187502Y60498D02*
X203841D01*
X187502D02*
X174636Y47633D01*
X158888Y19273D02*
Y13612D01*
X163201Y9298D01*
X210102Y18999D02*
X200401Y9298D01*
X210102Y40499D02*
Y18999D01*
X163201Y9298D02*
X200401D01*
X197502Y37898D02*
Y13498D01*
X129902Y60098D02*
X147077Y42923D01*
X129902Y60098D02*
X125401Y55598D01*
X147077Y42923D02*
Y19273D01*
X197502Y13498D02*
X196301Y12298D01*
X168602D02*
X196301D01*
X166762Y14138D02*
X168602Y12298D01*
X166762Y19273D02*
Y14138D01*
X210102Y50498D02*
X197502Y37898D01*
X182510Y42007D02*
Y19273D01*
X139203Y37997D02*
Y19273D01*
X132001Y45199D02*
X139203Y37997D01*
X151014Y35711D02*
Y19273D01*
X151502Y36198D02*
X151014Y35711D01*
X143140Y40360D02*
Y19273D01*
X130501Y52999D02*
X143140Y40360D01*
X127786Y30198D02*
X134002D01*
X191302Y50798D02*
X182510Y42007D01*
X191302Y55299D02*
Y50798D01*
X125401Y82898D02*
Y55598D01*
X146502Y70599D02*
X146402Y70499D01*
X131402D02*
X146402D01*
X125401Y55598D02*
X120301Y50498D01*
X132202Y89698D02*
X125401Y82898D01*
X203841Y60498D02*
X209502D01*
X119402Y50498D02*
X120301D01*
X195601Y68738D02*
X203841Y60498D01*
X195601Y84198D02*
Y68738D01*
X227302Y293198D02*
Y254398D01*
X237427Y244273D01*
X247766D01*
X229602Y295498D02*
X227302Y293198D01*
X229602Y295498D02*
X231902D01*
X287136Y272633D02*
Y244273D01*
X300002Y285498D02*
X316341D01*
X300002D02*
X287136Y272633D01*
X271388Y244273D02*
Y238612D01*
X275701Y234298D01*
X322602Y243999D02*
X312901Y234298D01*
X322602Y265498D02*
Y243999D01*
X275701Y234298D02*
X312901D01*
X310001Y262898D02*
Y238498D01*
X242402Y285099D02*
X259577Y267923D01*
X242402Y285099D02*
X237901Y280598D01*
X259577Y267923D02*
Y244273D01*
X310001Y238498D02*
X308802Y237298D01*
X281101D02*
X308802D01*
X279262Y239138D02*
X281101Y237298D01*
X279262Y244273D02*
Y239138D01*
X322602Y275499D02*
X310001Y262898D01*
X295010Y267007D02*
Y244273D01*
X251703Y262997D02*
Y244273D01*
X244501Y270198D02*
X251703Y262997D01*
X263514Y260711D02*
Y244273D01*
X264001Y261198D02*
X263514Y260711D01*
X255640Y265360D02*
Y244273D01*
X243002Y277998D02*
X255640Y265360D01*
X240286Y255199D02*
X246501D01*
X303801Y275799D02*
X295010Y267007D01*
X303801Y280298D02*
Y275799D01*
X237901Y307898D02*
Y280598D01*
X259001Y295599D02*
X258902Y295498D01*
X243901D02*
X258902D01*
X237901Y280598D02*
X232802Y275499D01*
X244702Y314699D02*
X237901Y307898D01*
X316341Y285498D02*
X322002D01*
X231902Y275499D02*
X232802D01*
X308102Y293738D02*
X316341Y285498D01*
X308102Y309198D02*
Y293738D01*
X227302Y180699D02*
Y141899D01*
X237427Y131773D01*
X247766D01*
X229602Y182999D02*
X227302Y180699D01*
X229602Y182999D02*
X231902D01*
X287136Y160133D02*
Y131773D01*
X300002Y172998D02*
X316341D01*
X300002D02*
X287136Y160133D01*
X271388Y131773D02*
Y126112D01*
X275701Y121799D01*
X322602Y131499D02*
X312901Y121799D01*
X322602Y152998D02*
Y131499D01*
X275701Y121799D02*
X312901D01*
X310001Y150399D02*
Y125998D01*
X242402Y172599D02*
X259577Y155423D01*
X242402Y172599D02*
X237901Y168098D01*
X259577Y155423D02*
Y131773D01*
X310001Y125998D02*
X308802Y124799D01*
X281101D02*
X308802D01*
X279262Y126638D02*
X281101Y124799D01*
X279262Y131773D02*
Y126638D01*
X322602Y162998D02*
X310001Y150399D01*
X295010Y154507D02*
Y131773D01*
X251703Y150497D02*
Y131773D01*
X244501Y157699D02*
X251703Y150497D01*
X263514Y148211D02*
Y131773D01*
X264001Y148698D02*
X263514Y148211D01*
X255640Y152860D02*
Y131773D01*
X243002Y165498D02*
X255640Y152860D01*
X240286Y142699D02*
X246501D01*
X303801Y163298D02*
X295010Y154507D01*
X303801Y167798D02*
Y163298D01*
X237901Y195398D02*
Y168098D01*
X259001Y183098D02*
X258902Y182999D01*
X243901D02*
X258902D01*
X237901Y168098D02*
X232802Y162998D01*
X244702Y202199D02*
X237901Y195398D01*
X316341Y172998D02*
X322002D01*
X231902Y162998D02*
X232802D01*
X308102Y181238D02*
X316341Y172998D01*
X308102Y196698D02*
Y181238D01*
X227302Y68199D02*
Y29399D01*
X237427Y19273D01*
X247766D01*
X229602Y70499D02*
X227302Y68199D01*
X229602Y70499D02*
X231902D01*
X287136Y47633D02*
Y19273D01*
X300002Y60498D02*
X316341D01*
X300002D02*
X287136Y47633D01*
X271388Y19273D02*
Y13612D01*
X275701Y9298D01*
X322602Y18999D02*
X312901Y9298D01*
X322602Y40499D02*
Y18999D01*
X275701Y9298D02*
X312901D01*
X310001Y37898D02*
Y13498D01*
X242402Y60098D02*
X259577Y42923D01*
X242402Y60098D02*
X237901Y55598D01*
X259577Y42923D02*
Y19273D01*
X310001Y13498D02*
X308802Y12298D01*
X281101D02*
X308802D01*
X279262Y14138D02*
X281101Y12298D01*
X279262Y19273D02*
Y14138D01*
X322602Y50498D02*
X310001Y37898D01*
X295010Y42007D02*
Y19273D01*
X251703Y37997D02*
Y19273D01*
X244501Y45199D02*
X251703Y37997D01*
X263514Y35711D02*
Y19273D01*
X264001Y36198D02*
X263514Y35711D01*
X255640Y40360D02*
Y19273D01*
X243002Y52999D02*
X255640Y40360D01*
X240286Y30198D02*
X246501D01*
X303801Y50798D02*
X295010Y42007D01*
X303801Y55299D02*
Y50798D01*
X237901Y82898D02*
Y55598D01*
X259001Y70599D02*
X258902Y70499D01*
X243901D02*
X258902D01*
X237901Y55598D02*
X232802Y50498D01*
X244702Y89698D02*
X237901Y82898D01*
X316341Y60498D02*
X322002D01*
X231902Y50498D02*
X232802D01*
X308102Y68738D02*
X316341Y60498D01*
X308102Y84198D02*
Y68738D01*
X372000Y26563D02*
X373000Y27563D01*
X372000Y74000D02*
X373000Y75000D01*
X372000Y121437D02*
X373000Y122437D01*
D18*
X73947Y251444D02*
Y244273D01*
X77501Y254998D02*
X77884Y254616D01*
X77501Y254998D02*
X73947Y251444D01*
X81821Y250679D02*
Y244273D01*
X77884Y254616D02*
X81821Y250679D01*
X77884Y254616D02*
Y244273D01*
X55301Y296999D02*
X57802Y294498D01*
X65501D01*
X73001Y301998D02*
X65501Y294498D01*
X73001Y310799D02*
Y301998D01*
X78101Y315898D02*
X73001Y310799D01*
X78101Y315898D02*
X87201D01*
X97601Y305499D01*
X73947Y138944D02*
Y131773D01*
X77501Y142499D02*
X77884Y142116D01*
X77501Y142499D02*
X73947Y138944D01*
X81821Y138179D02*
Y131773D01*
X77884Y142116D02*
X81821Y138179D01*
X77884Y142116D02*
Y131773D01*
X55301Y184499D02*
X57802Y181999D01*
X65501D01*
X73001Y189498D02*
X65501Y181999D01*
X73001Y198299D02*
Y189498D01*
X78101Y203398D02*
X73001Y198299D01*
X78101Y203398D02*
X87201D01*
X97601Y192999D01*
X73947Y26444D02*
Y19273D01*
X77501Y29998D02*
X77884Y29616D01*
X77501Y29998D02*
X73947Y26444D01*
X81821Y25679D02*
Y19273D01*
X77884Y29616D02*
X81821Y25679D01*
X77884Y29616D02*
Y19273D01*
X55301Y71999D02*
X57802Y69498D01*
X65501D01*
X73001Y76999D02*
X65501Y69498D01*
X73001Y85799D02*
Y76999D01*
X78101Y90899D02*
X73001Y85799D01*
X78101Y90899D02*
X87201D01*
X97601Y80498D01*
X186447Y251444D02*
Y244273D01*
X190001Y254998D02*
X190384Y254616D01*
X190001Y254998D02*
X186447Y251444D01*
X194321Y250679D02*
Y244273D01*
X190384Y254616D02*
X194321Y250679D01*
X190384Y254616D02*
Y244273D01*
X167801Y296999D02*
X170301Y294498D01*
X178001D01*
X185502Y301998D02*
X178001Y294498D01*
X185502Y310799D02*
Y301998D01*
X190602Y315898D02*
X185502Y310799D01*
X190602Y315898D02*
X199701D01*
X210102Y305499D01*
X186447Y138944D02*
Y131773D01*
X190001Y142499D02*
X190384Y142116D01*
X190001Y142499D02*
X186447Y138944D01*
X194321Y138179D02*
Y131773D01*
X190384Y142116D02*
X194321Y138179D01*
X190384Y142116D02*
Y131773D01*
X167801Y184499D02*
X170301Y181999D01*
X178001D01*
X185502Y189498D02*
X178001Y181999D01*
X185502Y198299D02*
Y189498D01*
X190602Y203398D02*
X185502Y198299D01*
X190602Y203398D02*
X199701D01*
X210102Y192999D01*
X186447Y26444D02*
Y19273D01*
X190001Y29998D02*
X190384Y29616D01*
X190001Y29998D02*
X186447Y26444D01*
X194321Y25679D02*
Y19273D01*
X190384Y29616D02*
X194321Y25679D01*
X190384Y29616D02*
Y19273D01*
X167801Y71999D02*
X170301Y69498D01*
X178001D01*
X185502Y76999D02*
X178001Y69498D01*
X185502Y85799D02*
Y76999D01*
X190602Y90899D02*
X185502Y85799D01*
X190602Y90899D02*
X199701D01*
X210102Y80498D01*
X298947Y251444D02*
Y244273D01*
X302502Y254998D02*
X302884Y254616D01*
X302502Y254998D02*
X298947Y251444D01*
X306821Y250679D02*
Y244273D01*
X302884Y254616D02*
X306821Y250679D01*
X302884Y254616D02*
Y244273D01*
X280301Y296999D02*
X282802Y294498D01*
X290501D01*
X298002Y301998D02*
X290501Y294498D01*
X298002Y310799D02*
Y301998D01*
X303101Y315898D02*
X298002Y310799D01*
X303101Y315898D02*
X312201D01*
X322602Y305499D01*
X298947Y138944D02*
Y131773D01*
X302502Y142499D02*
X302884Y142116D01*
X302502Y142499D02*
X298947Y138944D01*
X306821Y138179D02*
Y131773D01*
X302884Y142116D02*
X306821Y138179D01*
X302884Y142116D02*
Y131773D01*
X280301Y184499D02*
X282802Y181999D01*
X290501D01*
X298002Y189498D02*
X290501Y181999D01*
X298002Y198299D02*
Y189498D01*
X303101Y203398D02*
X298002Y198299D01*
X303101Y203398D02*
X312201D01*
X322602Y192999D01*
X298947Y26444D02*
Y19273D01*
X302502Y29998D02*
X302884Y29616D01*
X302502Y29998D02*
X298947Y26444D01*
X306821Y25679D02*
Y19273D01*
X302884Y29616D02*
X306821Y25679D01*
X302884Y29616D02*
Y19273D01*
X280301Y71999D02*
X282802Y69498D01*
X290501D01*
X298002Y76999D02*
X290501Y69498D01*
X298002Y85799D02*
Y76999D01*
X303101Y90899D02*
X298002Y85799D01*
X303101Y90899D02*
X312201D01*
X322602Y80498D01*
D21*
X266450Y377900D02*
D03*
X261400Y377750D02*
D03*
X222850Y377300D02*
D03*
X216450Y377600D02*
D03*
X332100Y302500D02*
D03*
Y298596D02*
D03*
X332400Y183959D02*
D03*
X18700Y334950D02*
D03*
X18450Y329150D02*
D03*
X83050Y334100D02*
D03*
X82750Y329650D02*
D03*
X140200Y329400D02*
D03*
X135900Y329450D02*
D03*
X131641Y329400D02*
D03*
X302300Y329850D02*
D03*
X296550Y329800D02*
D03*
X307100Y329650D02*
D03*
X311750Y329700D02*
D03*
X177550Y330600D02*
D03*
X172550Y330450D02*
D03*
X179350Y377700D02*
D03*
X158300Y377550D02*
D03*
X102400Y377700D02*
D03*
X113500D02*
D03*
X45600Y347400D02*
D03*
X45115Y343250D02*
D03*
X45344Y339000D02*
D03*
X58100Y347600D02*
D03*
X58215Y343300D02*
D03*
X57978Y338596D02*
D03*
X375850Y152650D02*
D03*
X371596D02*
D03*
X367341D02*
D03*
X374350Y112802D02*
D03*
X370096D02*
D03*
X365841D02*
D03*
X314500Y346950D02*
D03*
Y342796D02*
D03*
Y338641D02*
D03*
X47150Y377550D02*
D03*
X57250Y377150D02*
D03*
X159791Y330300D02*
D03*
X163846D02*
D03*
X167900D02*
D03*
X335750Y73291D02*
D03*
Y77246D02*
D03*
Y81200D02*
D03*
X290600Y329850D02*
D03*
X285050Y329800D02*
D03*
X111550Y153687D02*
D03*
Y157741D02*
D03*
Y161796D02*
D03*
Y149583D02*
D03*
Y169904D02*
D03*
Y173959D02*
D03*
Y178013D02*
D03*
Y165850D02*
D03*
Y182117D02*
D03*
X105800Y181417D02*
D03*
Y165150D02*
D03*
Y177313D02*
D03*
Y173259D02*
D03*
Y169204D02*
D03*
Y148883D02*
D03*
Y161096D02*
D03*
Y157041D02*
D03*
Y152987D02*
D03*
X270984Y338491D02*
D03*
Y342646D02*
D03*
X270643Y346750D02*
D03*
X305350Y338641D02*
D03*
Y343100D02*
D03*
X305300Y347354D02*
D03*
X260650Y339091D02*
D03*
Y343196D02*
D03*
Y347300D02*
D03*
X223800Y338341D02*
D03*
Y342496D02*
D03*
Y346600D02*
D03*
X216049Y338491D02*
D03*
Y342646D02*
D03*
Y346750D02*
D03*
X178750Y339491D02*
D03*
Y343646D02*
D03*
Y347800D02*
D03*
X158300Y339091D02*
D03*
Y343196D02*
D03*
Y347300D02*
D03*
X114573Y338396D02*
D03*
X114623Y343300D02*
D03*
X114600Y347900D02*
D03*
X102123Y338200D02*
D03*
X102136Y343100D02*
D03*
X102273Y347950D02*
D03*
X369041Y217100D02*
D03*
X373296D02*
D03*
X377550D02*
D03*
X368491Y225750D02*
D03*
X372746D02*
D03*
X377000D02*
D03*
X368641Y260437D02*
D03*
X372896D02*
D03*
X377150D02*
D03*
X368641Y270450D02*
D03*
X372896D02*
D03*
X377150D02*
D03*
X332250Y195900D02*
D03*
Y191946D02*
D03*
X332400Y187950D02*
D03*
X332600Y146850D02*
D03*
Y142896D02*
D03*
Y138941D02*
D03*
X330375Y80900D02*
D03*
Y76946D02*
D03*
Y72991D02*
D03*
X330750Y38900D02*
D03*
Y34796D02*
D03*
Y30841D02*
D03*
X335050Y32241D02*
D03*
Y36346D02*
D03*
Y40450D02*
D03*
X367396Y56450D02*
D03*
X371650D02*
D03*
X375904D02*
D03*
X366841Y65050D02*
D03*
X371096D02*
D03*
X375350D02*
D03*
X365991Y103302D02*
D03*
X370246D02*
D03*
X374500D02*
D03*
X375950Y179250D02*
D03*
X371696D02*
D03*
X367441D02*
D03*
X332400Y243296D02*
D03*
Y247200D02*
D03*
X287634Y334596D02*
D03*
X292884D02*
D03*
X297884Y334646D02*
D03*
X131491Y334250D02*
D03*
X135750Y334300D02*
D03*
X139850Y334400D02*
D03*
X77850Y329700D02*
D03*
X73450Y329800D02*
D03*
X68891Y329700D02*
D03*
X77650Y334500D02*
D03*
X73150Y334700D02*
D03*
X69041Y334750D02*
D03*
X33250Y329100D02*
D03*
X28200Y329300D02*
D03*
X23550Y329600D02*
D03*
X33400Y334950D02*
D03*
X28500Y334800D02*
D03*
X23350Y335000D02*
D03*
X225450Y288046D02*
D03*
Y283991D02*
D03*
Y279937D02*
D03*
Y292100D02*
D03*
Y271829D02*
D03*
Y267724D02*
D03*
Y263670D02*
D03*
Y275883D02*
D03*
Y259616D02*
D03*
X217850Y258944D02*
D03*
Y275212D02*
D03*
Y262999D02*
D03*
Y267053D02*
D03*
Y271157D02*
D03*
Y291429D02*
D03*
Y279266D02*
D03*
Y283320D02*
D03*
Y287374D02*
D03*
X111750Y289546D02*
D03*
Y285491D02*
D03*
Y281437D02*
D03*
Y293600D02*
D03*
Y273329D02*
D03*
Y269274D02*
D03*
Y265170D02*
D03*
Y277383D02*
D03*
Y261116D02*
D03*
X106050Y261516D02*
D03*
Y277783D02*
D03*
Y265570D02*
D03*
Y269674D02*
D03*
Y273729D02*
D03*
Y294000D02*
D03*
Y281837D02*
D03*
Y285891D02*
D03*
Y289946D02*
D03*
X61661Y216600D02*
D03*
X57607D02*
D03*
X53553D02*
D03*
X65716D02*
D03*
X45544D02*
D03*
X41390D02*
D03*
X37336D02*
D03*
X49549D02*
D03*
X33281D02*
D03*
X34066Y223150D02*
D03*
X50333D02*
D03*
X38120D02*
D03*
X42174D02*
D03*
X46329D02*
D03*
X66550D02*
D03*
X54337D02*
D03*
X58441D02*
D03*
X62496D02*
D03*
X175246Y217450D02*
D03*
X171241D02*
D03*
X167187D02*
D03*
X179300D02*
D03*
X159029D02*
D03*
X154974D02*
D03*
X150970D02*
D03*
X163133D02*
D03*
X146966D02*
D03*
Y223950D02*
D03*
X163133D02*
D03*
X150970D02*
D03*
X154974D02*
D03*
X159029D02*
D03*
X179300D02*
D03*
X167187D02*
D03*
X171241D02*
D03*
X175246D02*
D03*
X290663Y216650D02*
D03*
X286509D02*
D03*
X282454D02*
D03*
X294817D02*
D03*
X274346D02*
D03*
X270291D02*
D03*
X266187D02*
D03*
X278400D02*
D03*
X262133D02*
D03*
X261617Y223950D02*
D03*
X277850Y223750D02*
D03*
X265637D02*
D03*
X269691D02*
D03*
X273796D02*
D03*
X294267D02*
D03*
X281904D02*
D03*
X285959D02*
D03*
X290113D02*
D03*
X218100Y152220D02*
D03*
Y156274D02*
D03*
Y160329D02*
D03*
Y148116D02*
D03*
Y168437D02*
D03*
Y172491D02*
D03*
Y176546D02*
D03*
Y164383D02*
D03*
Y180600D02*
D03*
X224800Y180150D02*
D03*
Y163933D02*
D03*
Y176096D02*
D03*
Y172041D02*
D03*
Y167987D02*
D03*
Y147666D02*
D03*
Y159879D02*
D03*
Y155824D02*
D03*
Y151770D02*
D03*
X263070Y111900D02*
D03*
X267124D02*
D03*
X271229D02*
D03*
X259016D02*
D03*
X279337D02*
D03*
X283391D02*
D03*
X287546D02*
D03*
X275283D02*
D03*
X291600D02*
D03*
X291450Y103670D02*
D03*
X275083D02*
D03*
X287346D02*
D03*
X283191D02*
D03*
X279137D02*
D03*
X258816D02*
D03*
X271029D02*
D03*
X266924D02*
D03*
X262870D02*
D03*
X223000Y63996D02*
D03*
Y59941D02*
D03*
Y55837D02*
D03*
Y68100D02*
D03*
Y47729D02*
D03*
Y43674D02*
D03*
Y39620D02*
D03*
Y51783D02*
D03*
Y35516D02*
D03*
X217600Y34816D02*
D03*
Y51083D02*
D03*
Y38920D02*
D03*
Y42974D02*
D03*
Y47029D02*
D03*
Y67400D02*
D03*
Y55137D02*
D03*
Y59241D02*
D03*
Y63296D02*
D03*
X176646Y104750D02*
D03*
X172641D02*
D03*
X168637D02*
D03*
X180750D02*
D03*
X160529D02*
D03*
X156374D02*
D03*
X152370D02*
D03*
X164583D02*
D03*
X148366D02*
D03*
X148766Y112350D02*
D03*
X164983D02*
D03*
X152770D02*
D03*
X156774D02*
D03*
X160929D02*
D03*
X181150D02*
D03*
X169037D02*
D03*
X173041D02*
D03*
X177046D02*
D03*
X105800Y40070D02*
D03*
Y44124D02*
D03*
Y48179D02*
D03*
Y35966D02*
D03*
Y56287D02*
D03*
Y60391D02*
D03*
Y64446D02*
D03*
Y52233D02*
D03*
Y68550D02*
D03*
X111300Y68250D02*
D03*
Y51933D02*
D03*
Y64146D02*
D03*
Y60091D02*
D03*
Y55987D02*
D03*
Y35666D02*
D03*
Y47879D02*
D03*
Y43824D02*
D03*
Y39770D02*
D03*
X37420Y105100D02*
D03*
X41474D02*
D03*
X45629D02*
D03*
X33366D02*
D03*
X53687D02*
D03*
X57691D02*
D03*
X61796D02*
D03*
X49683D02*
D03*
X65850D02*
D03*
X66700Y110550D02*
D03*
X50283D02*
D03*
X62596D02*
D03*
X58491D02*
D03*
X54337D02*
D03*
X33766D02*
D03*
X46179D02*
D03*
X41974D02*
D03*
X37870D02*
D03*
D22*
X39000Y374198D02*
D03*
X29000D02*
D03*
X19000D02*
D03*
X94976D02*
D03*
X84976D02*
D03*
X74976D02*
D03*
X150953D02*
D03*
X140953D02*
D03*
X130953D02*
D03*
X373000Y278000D02*
D03*
Y288000D02*
D03*
Y233000D02*
D03*
Y243000D02*
D03*
Y188000D02*
D03*
Y198000D02*
D03*
X18902Y305499D02*
D03*
X97601D02*
D03*
Y295498D02*
D03*
Y285498D02*
D03*
Y275499D02*
D03*
X6901D02*
D03*
Y285498D02*
D03*
Y295498D02*
D03*
Y305499D02*
D03*
X18902Y192999D02*
D03*
X97601D02*
D03*
Y182999D02*
D03*
Y172998D02*
D03*
Y162998D02*
D03*
X6901D02*
D03*
Y172998D02*
D03*
Y182999D02*
D03*
Y192999D02*
D03*
X18902Y80498D02*
D03*
X97601D02*
D03*
Y70499D02*
D03*
Y60498D02*
D03*
Y50498D02*
D03*
X6901D02*
D03*
Y60498D02*
D03*
Y70499D02*
D03*
Y80498D02*
D03*
X131402Y305499D02*
D03*
X210102D02*
D03*
Y295498D02*
D03*
Y285498D02*
D03*
Y275499D02*
D03*
X119402D02*
D03*
Y285498D02*
D03*
Y295498D02*
D03*
Y305499D02*
D03*
X131402Y192999D02*
D03*
X210102D02*
D03*
Y182999D02*
D03*
Y172998D02*
D03*
Y162998D02*
D03*
X119402D02*
D03*
Y172998D02*
D03*
Y182999D02*
D03*
Y192999D02*
D03*
X131402Y80498D02*
D03*
X210102D02*
D03*
Y70499D02*
D03*
Y60498D02*
D03*
Y50498D02*
D03*
X119402D02*
D03*
Y60498D02*
D03*
Y70499D02*
D03*
Y80498D02*
D03*
X243901Y305499D02*
D03*
X322602D02*
D03*
Y295498D02*
D03*
Y285498D02*
D03*
Y275499D02*
D03*
X231902D02*
D03*
Y285498D02*
D03*
Y295498D02*
D03*
Y305499D02*
D03*
X243901Y192999D02*
D03*
X322602D02*
D03*
Y182999D02*
D03*
Y172998D02*
D03*
Y162998D02*
D03*
X231902D02*
D03*
Y172998D02*
D03*
Y182999D02*
D03*
Y192999D02*
D03*
X243901Y80498D02*
D03*
X322602D02*
D03*
Y70499D02*
D03*
Y60498D02*
D03*
Y50498D02*
D03*
X231902D02*
D03*
Y60498D02*
D03*
Y70499D02*
D03*
Y80498D02*
D03*
X344500Y36563D02*
D03*
Y26563D02*
D03*
Y84000D02*
D03*
Y74000D02*
D03*
Y131437D02*
D03*
Y121437D02*
D03*
X207500Y373500D02*
D03*
X197500D02*
D03*
X252500D02*
D03*
X242500D02*
D03*
X297500D02*
D03*
X287500D02*
D03*
X342500D02*
D03*
X332500D02*
D03*
D23*
X9000Y374198D02*
D03*
X64976D02*
D03*
X120953D02*
D03*
X187500Y373500D02*
D03*
X232500D02*
D03*
X277500D02*
D03*
X322500D02*
D03*
D24*
X13000Y361854D02*
D03*
X68976D02*
D03*
X124953D02*
D03*
X18001Y277998D02*
D03*
X39002Y261198D02*
D03*
X21501Y255199D02*
D03*
X19501Y270198D02*
D03*
X78802Y280298D02*
D03*
X77501Y254998D02*
D03*
X90333Y246599D02*
D03*
X34001Y295599D02*
D03*
X19702Y314699D02*
D03*
X55301Y296999D02*
D03*
X73001Y310799D02*
D03*
X83101Y309198D02*
D03*
X18001Y165498D02*
D03*
X39002Y148698D02*
D03*
X21501Y142699D02*
D03*
X19501Y157699D02*
D03*
X78802Y167798D02*
D03*
X77501Y142499D02*
D03*
X90333Y134098D02*
D03*
X34001Y183098D02*
D03*
X19702Y202199D02*
D03*
X55301Y184499D02*
D03*
X73001Y198299D02*
D03*
X83101Y196698D02*
D03*
X18001Y52999D02*
D03*
X39002Y36198D02*
D03*
X21501Y30198D02*
D03*
X19501Y45199D02*
D03*
X78802Y55299D02*
D03*
X77501Y29998D02*
D03*
X90333Y21599D02*
D03*
X34001Y70599D02*
D03*
X19702Y89698D02*
D03*
X55301Y71999D02*
D03*
X73001Y85799D02*
D03*
X83101Y84198D02*
D03*
X130501Y277998D02*
D03*
X151502Y261198D02*
D03*
X134002Y255199D02*
D03*
X132001Y270198D02*
D03*
X191302Y280298D02*
D03*
X190001Y254998D02*
D03*
X202833Y246599D02*
D03*
X146502Y295599D02*
D03*
X132202Y314699D02*
D03*
X167801Y296999D02*
D03*
X185502Y310799D02*
D03*
X195601Y309198D02*
D03*
X130501Y165498D02*
D03*
X151502Y148698D02*
D03*
X134002Y142699D02*
D03*
X132001Y157699D02*
D03*
X191302Y167798D02*
D03*
X190001Y142499D02*
D03*
X202833Y134098D02*
D03*
X146502Y183098D02*
D03*
X132202Y202199D02*
D03*
X167801Y184499D02*
D03*
X185502Y198299D02*
D03*
X195601Y196698D02*
D03*
X130501Y52999D02*
D03*
X151502Y36198D02*
D03*
X134002Y30198D02*
D03*
X132001Y45199D02*
D03*
X191302Y55299D02*
D03*
X190001Y29998D02*
D03*
X202833Y21599D02*
D03*
X146502Y70599D02*
D03*
X132202Y89698D02*
D03*
X167801Y71999D02*
D03*
X185502Y85799D02*
D03*
X195601Y84198D02*
D03*
X243002Y277998D02*
D03*
X264001Y261198D02*
D03*
X246501Y255199D02*
D03*
X244501Y270198D02*
D03*
X303801Y280298D02*
D03*
X302502Y254998D02*
D03*
X315333Y246599D02*
D03*
X259001Y295599D02*
D03*
X244702Y314699D02*
D03*
X280301Y296999D02*
D03*
X298002Y310799D02*
D03*
X308102Y309198D02*
D03*
X243002Y165498D02*
D03*
X264001Y148698D02*
D03*
X246501Y142699D02*
D03*
X244501Y157699D02*
D03*
X303801Y167798D02*
D03*
X302502Y142499D02*
D03*
X315333Y134098D02*
D03*
X259001Y183098D02*
D03*
X244702Y202199D02*
D03*
X280301Y184499D02*
D03*
X298002Y198299D02*
D03*
X308102Y196698D02*
D03*
X243002Y52999D02*
D03*
X264001Y36198D02*
D03*
X246501Y30198D02*
D03*
X244501Y45199D02*
D03*
X303801Y55299D02*
D03*
X302502Y29998D02*
D03*
X315333Y21599D02*
D03*
X259001Y70599D02*
D03*
X244702Y89698D02*
D03*
X280301Y71999D02*
D03*
X298002Y85799D02*
D03*
X308102Y84198D02*
D03*
X369000Y35099D02*
D03*
X363000D02*
D03*
X369000Y41063D02*
D03*
X363000D02*
D03*
X369000Y82537D02*
D03*
X363000D02*
D03*
X369000Y88500D02*
D03*
X363000D02*
D03*
X369000Y129973D02*
D03*
X363000D02*
D03*
X369000Y135937D02*
D03*
X363000D02*
D03*
D25*
X373000Y298000D02*
D03*
Y253000D02*
D03*
Y208000D02*
D03*
X18902Y295498D02*
D03*
X97601Y265498D02*
D03*
X6901D02*
D03*
X18902Y182999D02*
D03*
X97601Y152998D02*
D03*
X6901D02*
D03*
X18902Y70499D02*
D03*
X97601Y40499D02*
D03*
X6901D02*
D03*
X131402Y295498D02*
D03*
X210102Y265498D02*
D03*
X119402D02*
D03*
X131402Y182999D02*
D03*
X210102Y152998D02*
D03*
X119402D02*
D03*
X131402Y70499D02*
D03*
X210102Y40499D02*
D03*
X119402D02*
D03*
X243901Y295498D02*
D03*
X322602Y265498D02*
D03*
X231902D02*
D03*
X243901Y182999D02*
D03*
X322602Y152998D02*
D03*
X231902D02*
D03*
X243901Y70499D02*
D03*
X322602Y40499D02*
D03*
X231902D02*
D03*
X344500Y46563D02*
D03*
Y94000D02*
D03*
Y141437D02*
D03*
D26*
X352000Y293500D02*
D03*
Y288500D02*
D03*
Y248500D02*
D03*
Y243500D02*
D03*
Y203500D02*
D03*
Y198500D02*
D03*
D27*
Y283500D02*
D03*
Y238500D02*
D03*
Y193500D02*
D03*
D28*
X46202Y295999D02*
D03*
Y183499D02*
D03*
Y70999D02*
D03*
X158702Y295999D02*
D03*
Y183499D02*
D03*
Y70999D02*
D03*
X271201Y295999D02*
D03*
Y183499D02*
D03*
Y70999D02*
D03*
D29*
X34694Y305906D02*
D03*
X60678D02*
D03*
X34694Y193406D02*
D03*
X60678D02*
D03*
X34694Y80906D02*
D03*
X60678D02*
D03*
X147194Y305906D02*
D03*
X173178D02*
D03*
X147194Y193406D02*
D03*
X173178D02*
D03*
X147194Y80906D02*
D03*
X173178D02*
D03*
X259694Y305906D02*
D03*
X285678D02*
D03*
X259694Y193406D02*
D03*
X285678D02*
D03*
X259694Y80906D02*
D03*
X285678D02*
D03*
D30*
X192000Y352500D02*
D03*
X197000D02*
D03*
X237000D02*
D03*
X242000D02*
D03*
X282000D02*
D03*
X287000D02*
D03*
X327000D02*
D03*
X332000D02*
D03*
D31*
X202000D02*
D03*
X247000D02*
D03*
X292000D02*
D03*
X337000D02*
D03*
D32*
X81821Y244273D02*
D03*
X77884D02*
D03*
X73947D02*
D03*
X70010D02*
D03*
X66073D02*
D03*
X62136D02*
D03*
X58199D02*
D03*
X54262D02*
D03*
X50325D02*
D03*
X46388D02*
D03*
X42451D02*
D03*
X38514D02*
D03*
X34577D02*
D03*
X30640D02*
D03*
X26703D02*
D03*
X22766D02*
D03*
X81821Y131773D02*
D03*
X77884D02*
D03*
X73947D02*
D03*
X70010D02*
D03*
X66073D02*
D03*
X62136D02*
D03*
X58199D02*
D03*
X54262D02*
D03*
X50325D02*
D03*
X46388D02*
D03*
X42451D02*
D03*
X38514D02*
D03*
X34577D02*
D03*
X30640D02*
D03*
X26703D02*
D03*
X22766D02*
D03*
X81821Y19273D02*
D03*
X77884D02*
D03*
X73947D02*
D03*
X70010D02*
D03*
X66073D02*
D03*
X62136D02*
D03*
X58199D02*
D03*
X54262D02*
D03*
X50325D02*
D03*
X46388D02*
D03*
X42451D02*
D03*
X38514D02*
D03*
X34577D02*
D03*
X30640D02*
D03*
X26703D02*
D03*
X22766D02*
D03*
X194321Y244273D02*
D03*
X190384D02*
D03*
X186447D02*
D03*
X182510D02*
D03*
X178573D02*
D03*
X174636D02*
D03*
X170699D02*
D03*
X166762D02*
D03*
X162825D02*
D03*
X158888D02*
D03*
X154951D02*
D03*
X151014D02*
D03*
X147077D02*
D03*
X143140D02*
D03*
X139203D02*
D03*
X135266D02*
D03*
X194321Y131773D02*
D03*
X190384D02*
D03*
X186447D02*
D03*
X182510D02*
D03*
X178573D02*
D03*
X174636D02*
D03*
X170699D02*
D03*
X166762D02*
D03*
X162825D02*
D03*
X158888D02*
D03*
X154951D02*
D03*
X151014D02*
D03*
X147077D02*
D03*
X143140D02*
D03*
X139203D02*
D03*
X135266D02*
D03*
X194321Y19273D02*
D03*
X190384D02*
D03*
X186447D02*
D03*
X182510D02*
D03*
X178573D02*
D03*
X174636D02*
D03*
X170699D02*
D03*
X166762D02*
D03*
X162825D02*
D03*
X158888D02*
D03*
X154951D02*
D03*
X151014D02*
D03*
X147077D02*
D03*
X143140D02*
D03*
X139203D02*
D03*
X135266D02*
D03*
X306821Y244273D02*
D03*
X302884D02*
D03*
X298947D02*
D03*
X295010D02*
D03*
X291073D02*
D03*
X287136D02*
D03*
X283199D02*
D03*
X279262D02*
D03*
X275325D02*
D03*
X271388D02*
D03*
X267451D02*
D03*
X263514D02*
D03*
X259577D02*
D03*
X255640D02*
D03*
X251703D02*
D03*
X247766D02*
D03*
X306821Y131773D02*
D03*
X302884D02*
D03*
X298947D02*
D03*
X295010D02*
D03*
X291073D02*
D03*
X287136D02*
D03*
X283199D02*
D03*
X279262D02*
D03*
X275325D02*
D03*
X271388D02*
D03*
X267451D02*
D03*
X263514D02*
D03*
X259577D02*
D03*
X255640D02*
D03*
X251703D02*
D03*
X247766D02*
D03*
X306821Y19273D02*
D03*
X302884D02*
D03*
X298947D02*
D03*
X295010D02*
D03*
X291073D02*
D03*
X287136D02*
D03*
X283199D02*
D03*
X279262D02*
D03*
X275325D02*
D03*
X271388D02*
D03*
X267451D02*
D03*
X263514D02*
D03*
X259577D02*
D03*
X255640D02*
D03*
X251703D02*
D03*
X247766D02*
D03*
D33*
X89302Y255199D02*
D03*
X15286D02*
D03*
X89302Y142699D02*
D03*
X15286D02*
D03*
X89302Y30198D02*
D03*
X15286D02*
D03*
X201801Y255199D02*
D03*
X127786D02*
D03*
X201801Y142699D02*
D03*
X127786D02*
D03*
X201801Y30198D02*
D03*
X127786D02*
D03*
X314301Y255199D02*
D03*
X240286D02*
D03*
X314301Y142699D02*
D03*
X240286D02*
D03*
X314301Y30198D02*
D03*
X240286D02*
D03*
D34*
X344500Y26563D02*
X372000D01*
X344500Y74000D02*
X372000D01*
X344500Y121437D02*
X372000D01*
M02*
